# 3ds Max Wavefront OBJ Exporter v0.97b - (c)2007 guruware
# File Created: 28.05.2011 12:55:34

mtllib meat.mtl

#
# object meat
#

v  946.4517 709.3719 4019.1685
v  657.1530 709.3719 4667.0757
v  30.0552 709.3719 4618.3159
v  642.8905 709.3719 3271.4480
v  -271.6823 709.3719 2745.5100
v  -482.3066 709.3719 4724.1914
v  -1108.9310 709.3719 4320.3784
v  -1183.5483 709.3719 3154.7756
v  -1089.6145 1043.7611 3160.2866
v  -1309.9934 1063.1951 4152.1167
v  -1161.0066 1106.3480 4520.7793
v  -415.6831 1106.3480 2721.8477
v  -524.6147 1054.3143 4854.1436
v  680.4809 1116.1163 3254.8027
v  21.9865 1066.2703 4643.6011
v  491.7080 1068.6527 4770.3242
v  853.2425 1070.2290 4638.6650
v  1039.1798 1068.0349 3962.4656
v  -82.4058 1106.3480 2687.3557
# 19 vertices

vn 0.0000 -1.0000 -0.0000
vn -0.1279 0.9904 -0.0523
vn -0.1535 0.9867 -0.0534
vn 0.0002 1.0000 0.0019
vn -0.0292 0.9996 -0.0012
vn 0.0290 0.9993 0.0252
vn -0.0009 0.9994 0.0343
vn -0.0390 0.9977 -0.0554
vn -0.0048 1.0000 -0.0011
vn -0.0048 1.0000 -0.0040
vn 0.0128 0.9993 0.0343
vn -0.0016 0.9999 -0.0151
vn -0.0012 -0.2499 -0.9683
vn -0.8427 0.0856 -0.5315
vn -0.3031 -0.1168 -0.9458
vn -0.7678 -0.4476 0.4584
vn -0.9243 -0.3487 0.1552
vn -0.6602 -0.3907 0.6415
vn -0.0785 -0.3285 0.9413
vn 0.0033 -0.1184 0.9930
vn -0.0912 -0.3609 0.9281
vn 0.0057 -0.1225 0.9924
vn 0.0383 -0.1939 0.9803
vn 0.4405 -0.3381 0.8316
vn 0.7316 -0.2897 0.6171
vn 0.9551 -0.2963 -0.0027
vn 0.7486 -0.1594 -0.6436
vn 0.9673 -0.2321 -0.1020
vn 0.2882 -0.2275 -0.9301
vn 0.7596 -0.0965 -0.6432
vn -0.7784 0.2283 -0.5847
# 31 vertex normals

vt 0.3965 0.9462 0.0000
vt 0.7377 0.9354 0.0000
vt 0.8233 0.7714 0.0000
vt 0.1120 0.7967 0.0000
vt 0.0321 0.5136 0.0000
vt 0.9588 0.6515 0.0000
vt 0.8844 0.4533 0.0000
vt 0.3726 0.3215 0.0000
vt 0.3599 0.3207 0.0000
vt 0.7934 0.3631 0.0000
vt 0.9191 0.4414 0.0000
vt 0.0798 0.4574 0.0000
vt 0.9557 0.6418 0.0000
vt 0.1263 0.8021 0.0000
vt 0.7870 0.7659 0.0000
vt 0.7660 0.9032 0.0000
vt 0.6574 0.9858 0.0000
vt 0.3564 0.9668 0.0000
vt 0.0147 0.5422 0.0000
vt 0.5320 0.3096 0.0000
vt 0.0888 0.3096 0.0000
vt 0.4007 0.0161 0.0000
vt 0.9470 0.2706 0.0000
vt 0.1720 0.3016 0.0000
vt 0.2816 0.0286 0.0000
vt 0.0919 0.0064 0.0000
vt 0.9711 0.3158 0.0000
vt 0.6706 0.3158 0.0000
vt 0.9695 0.0222 0.0000
vt 0.4245 0.0519 0.0000
vt 0.6858 0.0607 0.0000
vt 0.4206 0.3158 0.0000
vt 0.2000 0.0501 0.0000
vt 0.1209 0.3158 0.0000
vt 0.0993 0.0489 0.0000
vt 0.9559 0.3132 0.0000
vt 0.5534 0.3132 0.0000
vt 0.9615 0.0421 0.0000
vt 0.0802 0.3132 0.0000
vt 0.5142 0.0438 0.0000
vt 0.5855 0.0161 0.0000
vt 0.9876 0.3096 0.0000
vt 0.0968 0.0076 0.0000
vt 0.9871 0.0197 0.0000
vt 0.0993 0.0624 0.0000
vt 0.9630 0.0153 0.0000
# 46 texture coords

g meat
usemtl Material__28
s 2
f 1/1/1 2/2/1 3/3/1 4/4/1 
f 5/5/1 4/4/1 3/3/1 6/6/1 
f 5/5/1 6/6/1 7/7/1 8/8/1 
s 4
f 9/9/2 10/10/3 11/11/4 12/12/5 
f 12/12/5 11/11/4 13/13/6 14/14/7 
f 15/15/8 16/16/9 17/17/10 18/18/11 
f 13/13/6 15/15/8 18/18/11 14/14/7 
f 12/12/5 14/14/7 19/19/12 
s 1
f 5/20/13 8/21/14 12/22/15 
f 8/23/14 7/24/16 10/25/17 
f 7/24/16 11/26/18 10/25/17 
f 7/27/16 6/28/19 11/29/18 
f 15/30/20 13/31/21 6/28/19 3/32/22 
f 16/33/23 15/30/20 3/32/22 2/34/24 
f 2/34/24 17/35/25 16/33/23 
f 2/36/24 1/37/26 17/38/25 
f 4/39/27 18/40/28 1/37/26 
f 5/20/13 19/41/29 4/42/27 
f 5/20/13 12/22/15 19/41/29 
f 1/37/26 18/40/28 17/38/25 
f 4/39/27 14/43/30 18/40/28 
f 19/41/29 14/44/30 4/42/27 
f 8/21/14 9/45/31 12/22/15 
f 10/25/17 9/46/31 8/23/14 
f 6/28/19 13/31/21 11/29/18 
# 9 polygons - 16 triangles

