# Exported from Wings 3D 1.4
mtllib antijet.mtl
o cylinder1
#36 vertices, 32 faces
v 0.82049519 1.00000000 0.0000000e+0
v 0.50000000 1.00000000 0.48707080
v -0.50000000 1.00000000 0.48707080
v -0.79390188 1.00000000 1.2246468e-16
v -0.50000000 1.00000000 -0.36740093
v 0.50000000 1.00000000 -0.36740093
v 0.82049519 -1.00000000 0.0000000e+0
v 0.50000000 -1.00000000 0.48707080
v -0.50000000 -1.00000000 0.48707080
v -0.79390188 -1.00000000 1.2246468e-16
v -0.50000000 -1.00000000 -0.36740093
v 0.50000000 -1.00000000 -0.36740093
v 0.19627073 1.42216872 0.30370519
v 0.33973999 1.42216872 1.6356798e-2
v 0.17712355 1.42216872 -0.20039211
v -0.16870191 1.42216872 -0.20039211
v -0.30725268 1.42216872 1.6356798e-2
v -0.17827550 1.42216872 0.30370519
v 0.14515495 1.77688839 0.27761672
v 0.28067100 1.77688839 3.6883875e-2
v 0.13994826 1.77688839 -0.20084289
v -0.13629052 1.77688839 -0.19783680
v -0.27180656 1.77688839 4.2896042e-2
v -0.13108383 1.77688839 0.28062280
v 0.21656495 1.77688839 0.39825157
v 0.42084884 1.77688839 3.5358433e-2
v 0.20871611 1.77688839 -0.32300318
v -0.20770051 1.77688839 -0.31847166
v -0.41198441 1.77688839 4.4421484e-2
v -0.19985168 1.77688839 0.40278310
v 0.21656495 2.12698585 0.39825157
v 0.42084884 2.12698585 3.5358433e-2
v 0.20871611 2.12698585 -0.32300318
v -0.20770051 2.12698585 -0.31847166
v -0.41198441 2.12698585 4.4421484e-2
v -0.19985168 2.12698585 0.40278310
vt 0.16821903 0.68442141
vt 0.21256431 0.76319706
vt 0.21426811 0.60662944
vt 0.30295867 0.76418075
vt 0.30466247 0.60761313
vt 0.33375187 0.25686303
vt 0.33899888 0.25458213
vt 0.34900775 0.68638878
vt 0.34910149 0.18909036
vt 0.36029234 0.19393378
vt 0.39878716 9.3382448e-2
vt 0.40879147 7.4188358e-2
vt 0.43588958 5.1040395e-2
vt 0.44535284 5.3758608e-2
vt 0.55936247 0.68794333
vt 0.58119206 0.38759836
vt 0.58663513 0.39792051
vt 0.59424913 0.34392785
vt 0.61824987 0.34202395
vt 0.62893452 0.58221160
vt 0.62893452 0.76769753
vt 0.65364596 0.26448478
vt 0.66808765 0.23078594
vt 0.68563800 0.36526092
vt 0.69035158 0.33757296
vt 0.69306457 0.34424732
vt 0.69773190 0.19675472
vt 0.69993052 0.19031130
vt 0.70256579 0.36856611
vt 0.71827084 0.28787360
vt 0.72120727 0.29488313
vt 0.73304517 0.29369045
vt 0.73457067 0.26077084
vt 0.74849887 0.32575172
vt 0.76691246 0.36651255
vt 0.76764050 0.38140179
vt 0.77151311 0.36341346
vt 0.77537536 0.34990384
vt 0.77817075 0.38380943
vt 0.77968316 0.40528177
vt 0.78078429 0.40508315
vt 0.78092037 0.40658318
vt 0.78104768 0.40602859
vt 0.78157749 0.40098349
vt 0.78190881 0.39863897
vt 0.78841303 0.32899405
vt 0.79572112 0.38475398
vt 0.79619680 0.38437939
vt 0.79660394 0.33740531
vt 0.80898832 0.38460960
vt 0.81068117 0.38422177
vt 0.81579852 0.41867128
vt 0.81647010 0.33204393
vt 0.81660618 0.33354396
vt 0.81673349 0.33298937
vt 0.81730515 0.34688217
vt 0.81922043 0.33440566
vt 0.82111476 0.33010738
vt 0.82144608 0.32776286
vt 0.82230709 0.40710936
vt 0.82468384 0.35934720
vt 0.84501668 0.44410482
vt 0.84601126 0.58221160
vt 0.84601126 0.76769753
vt 0.84691100 0.43980654
vt 0.84724232 0.43746203
vt 0.84793631 0.44066833
vt 0.84807238 0.44216836
vt 0.84819970 0.44161376
vt 0.84845183 0.40682485
vt 0.85322719 0.35903658
vt 0.85521046 0.41824239
vt 0.86033287 0.34641394
vt 0.86127781 0.38404058
vt 0.86776786 0.38360054
vt 0.87454500 0.38389620
vt 0.88225223 0.38344292
vt 0.88362212 0.36762911
vt 0.88375819 0.36912914
vt 0.88388551 0.36857455
vt 0.88455394 0.37322871
vt 0.88644827 0.36893043
vt 0.88677959 0.36658592
vt 0.90981052 0.68794333
vn 0.90231063 0.42598313 -6.6135522e-2
vn 0.43587708 0.31559120 0.84286023
vn -0.44816757 0.32368465 0.83329111
vn -0.90268817 0.42575138 -6.2368451e-2
vn -0.39811297 0.30091023 -0.86657896
vn 0.38139143 0.29296327 -0.87676285
vn 0.84495176 -0.53176828 -5.7262776e-2
vn 0.41259424 -0.49390323 0.76539244
vn -0.42633190 -0.49793301 0.75518463
vn -0.85203503 -0.52045651 -5.6225753e-2
vn -0.37881585 -0.48510885 -0.78814209
vn 0.36278416 -0.48141899 -0.79788684
vn 0.44676658 0.37537482 0.81209197
vn 0.87648490 0.47817291 -5.5900628e-2
vn 0.40334313 0.33265800 -0.85243942
vn -0.42435171 0.33450227 -0.84144748
vn -0.88491297 0.46369516 -4.3770261e-2
vn -0.45307935 0.37267001 0.80983712
vn 0.35591802 -0.72434694 0.59046073
vn 0.69994298 -0.71327806 -3.6252431e-2
vn 0.31990780 -0.72926199 -0.60484374
vn -0.33380224 -0.73691464 -0.58782045
vn -0.69518278 -0.71847605 -2.2650913e-2
vn -0.35264214 -0.73300647 0.58167434
vn 0.33347671 -0.75592895 0.56335132
vn 0.65461491 -0.75592895 -7.1236451e-3
vn 0.32113820 -0.75592895 -0.57047497
vn -0.33347671 -0.75592895 -0.56335132
vn -0.65461491 -0.75592895 7.1236451e-3
vn -0.32113820 -0.75592895 0.57047497
vn 0.44114823 0.50000000 0.74524375
vn 0.86597413 0.50000000 -9.4236967e-3
vn 0.42482590 0.50000000 -0.75466744
vn -0.44114823 0.50000000 -0.74524375
vn -0.86597413 0.50000000 9.4236967e-3
vn -0.42482590 0.50000000 0.75466744
g cylinder1_cylinder1_auv
usemtl cylinder1_auv
s 1
f 1/16/1 7/7/7 12/10/12 6/18/6
f 1/28/1 14/33/14 13/30/13 2/22/2
f 2/22/2 8/11/8 7/13/7 1/28/1
f 2/22/2 13/30/13 18/25/18 3/19/3
f 3/19/3 9/9/9 8/11/8 2/22/2
f 3/19/3 18/25/18 17/29/17 4/17/4
f 4/17/4 10/6/10 9/9/9 3/19/3
f 4/27/4 17/32/17 16/31/16 5/23/5
f 5/23/5 11/12/11 10/14/10 4/27/4
f 5/23/5 16/31/16 15/26/15 6/18/6
f 6/18/6 12/10/12 11/12/11 5/23/5
f 6/18/6 15/26/15 14/24/14 1/16/1
f 8/20/8 9/63/9 10/84/10 11/64/11 12/21/12 7/15/7
f 13/30/13 19/46/19 24/37/24 18/25/18
f 14/33/14 20/34/20 19/46/19 13/30/13
f 15/26/15 21/35/21 20/36/20 14/24/14
f 16/31/16 22/38/22 21/35/21 15/26/15
f 17/32/17 23/49/23 22/38/22 16/31/16
f 18/25/18 24/37/24 23/39/23 17/29/17
f 19/61/19 25/56/25 30/73/30 24/71/24
f 20/51/20 26/48/26 25/56/25 19/61/19
f 21/60/21 27/52/27 26/47/26 20/50/20
f 22/70/22 28/72/28 27/52/27 21/60/21
f 23/74/23 29/76/29 28/72/28 22/70/22
f 24/71/24 30/73/30 29/77/29 23/75/23
f 25/45/25 26/59/26 32/83/32 31/66/31
f 26/42/26 27/54/27 33/79/33 32/68/32
f 27/43/27 28/55/28 34/80/34 33/69/33
f 28/41/28 29/53/29 35/78/35 34/67/34
f 29/40/29 30/57/30 36/81/36 35/62/35
f 31/82/31 36/65/36 30/44/30 25/58/25
f 35/1/35 36/3/36 31/5/31 32/8/32 33/4/33 34/2/34
