# 3ds Max Wavefront OBJ Exporter v0.97b - (c)2007 guruware
# File Created: 17.05.2011 12:52:41

mtllib gunp.mtl

#
# object Cube01
#

v  0.3555 -1.0000 -1.0658
v  0.3555 1.0000 0.9342
v  0.3555 -1.0000 0.9342
v  -0.3555 -1.0000 0.9342
v  -0.3555 -1.0000 -1.0658
v  0.3555 1.0000 -1.0658
v  -0.3555 1.0000 -1.0658
v  -0.3555 1.0000 0.9342
v  0.0011 0.9928 -0.8853
v  -0.1457 0.9928 -0.8245
v  0.0011 1.2064 -0.8853
v  0.1478 1.2064 -0.8245
v  0.2086 1.2064 -0.6778
v  0.1478 0.9928 -0.8245
v  0.2086 0.9928 -0.6778
v  0.1478 1.2064 -0.5310
v  0.1478 0.9928 -0.5310
v  0.0011 1.2064 -0.4703
v  0.0011 0.9928 -0.4703
v  -0.1457 1.2064 -0.5310
v  -0.1457 0.9928 -0.5310
v  -0.2065 1.2064 -0.6778
v  -0.2065 0.9928 -0.6778
v  -0.1457 1.2064 -0.8245
# 24 vertices

vn 0.9422 -0.3350 -0.0000
vn 0.0000 -1.0000 -0.0000
vn 0.0000 1.0000 -0.0000
vn 1.0000 -0.0000 0.0000
vn -0.0000 -0.0000 1.0000
vn -1.0000 -0.0000 -0.0000
vn 0.0000 0.0000 -1.0000
vn 0.7071 0.0000 -0.7071
vn 0.9239 -0.0000 -0.3827
vn 0.9239 -0.0000 0.3827
vn 0.3827 -0.0000 0.9239
vn -0.3827 0.0000 0.9239
vn -0.9239 0.0000 0.3827
vn -0.9239 0.0000 -0.3827
vn -0.3827 -0.0000 -0.9239
# 15 vertex normals

vt 0.7860 0.2054 0.0468
vt 0.1937 0.7841 0.9532
vt 0.1987 0.2038 0.0468
vt 0.1975 -0.0031 0.0468
vt 0.7883 0.0013 0.0468
vt 0.7850 0.7909 0.9532
vt 0.7816 0.9939 0.9532
vt 0.1936 0.9964 0.9532
vt 0.9928 0.2108 0.0468
vt 0.9901 0.7907 0.9532
vt 0.7729 0.7885 0.9532
vt 0.7925 0.2086 0.0468
vt 0.2278 0.7862 0.9532
vt 0.2286 0.2047 0.0468
vt -0.0025 0.7841 0.9532
vt -0.0036 0.2079 0.0468
vt 0.8933 0.9949 0.9500
vt 0.8159 0.9655 0.9500
vt 0.8933 0.9949 1.0468
vt 0.9708 0.9655 1.0468
vt 1.0029 0.8944 1.0468
vt 0.9708 0.9655 0.9500
vt 1.0029 0.8944 0.9500
vt 0.9708 0.8234 1.0468
vt 0.9708 0.8234 0.9500
vt 0.8933 0.7939 1.0468
vt 0.8933 0.7939 0.9500
vt 0.8159 0.8234 1.0468
vt 0.8159 0.8234 0.9500
vt 0.7838 0.8944 1.0468
vt 0.7838 0.8944 0.9500
vt 0.8159 0.9655 1.0468
# 32 texture coords

g Cube01
usemtl Material__27
s off
f 1/1/1 2/2/1 3/3/1 4/4/1 
f 1/1/2 4/4/2 5/5/2 
f 6/6/3 7/7/3 8/8/3 2/2/3 
f 1/1/4 6/6/4 2/2/4 
f 3/9/5 2/10/5 8/11/5 4/12/5 
f 4/12/6 8/11/6 7/13/6 5/14/6 
f 6/15/7 1/16/7 5/14/7 7/13/7 
f 9/17/7 10/18/7 11/19/7 12/20/7 
f 9/17/8 12/20/8 13/21/8 14/22/8 
f 14/22/9 13/21/9 15/23/9 
f 15/23/10 13/21/10 16/24/10 17/25/10 
f 17/25/11 16/24/11 18/26/11 19/27/11 
f 19/27/12 18/26/12 20/28/12 21/29/12 
f 21/29/13 20/28/13 22/30/13 23/31/13 
f 23/31/14 22/30/14 24/32/14 10/18/14 
f 10/18/15 24/32/15 11/19/15 
f 13/21/3 12/20/3 20/28/3 18/26/3 
f 13/21/3 18/26/3 16/24/3 
f 12/20/3 11/19/3 22/30/3 20/28/3 
f 11/19/3 24/32/3 22/30/3 
# 14 polygons - 6 triangles

