# 3ds Max Wavefront OBJ Exporter v0.97b - (c)2007 guruware
# File Created: 22.06.2011 18:54:04

mtllib account_book.mtl

#
# object Box01
#

v  -22.1022 -0.3167 39.2024
v  -22.1022 -0.3167 -31.4619
v  29.8720 1.3294 -30.4746
v  29.8720 1.3294 40.1897
v  -22.1022 3.6596 39.2024
v  29.8720 5.3057 40.1897
v  29.8720 5.3057 -30.4746
v  -22.1022 3.6596 -31.4619
# 8 vertices

vn 0.0317 -0.9995 -0.0000
vn -0.0317 0.9995 -0.0000
vn -0.0190 0.0000 0.9998
vn 1.0000 0.0000 -0.0000
vn 0.0190 0.0000 -0.9998
vn -1.0000 0.0000 -0.0000
# 6 vertex normals

vt 0.6681 0.0600 0.0000
vt 0.6667 0.9492 0.0000
vt 0.0233 0.9548 0.0000
vt 0.0054 0.0644 0.0000
vt -0.0420 0.0705 0.0000
vt 0.6206 0.0659 0.0000
vt 0.6239 0.9557 0.0000
vt -0.0392 0.9540 0.0000
vt 0.9583 0.0674 0.0000
vt 0.9461 0.9464 0.0000
vt 0.8087 0.9437 0.0000
vt 0.8209 0.0647 0.0000
vt 0.9547 0.0609 0.0000
vt 0.9520 0.9464 0.0000
vt 0.8076 0.9463 0.0000
vt 0.8104 0.0608 0.0000
vt 0.9599 0.0635 0.0000
vt 0.9590 0.9478 0.0000
vt 0.8061 0.9477 0.0000
vt 0.8070 0.0633 0.0000
vt 0.7922 0.0645 0.0000
vt 0.7922 0.9406 0.0000
vt 0.6274 0.9406 0.0000
vt 0.6275 0.0645 0.0000
# 24 texture coords

g Box01
usemtl Material__27
s 2
f 1/1/1 2/2/1 3/3/1 4/4/1 
s 4
f 5/5/2 6/6/2 7/7/2 8/8/2 
s 8
f 1/9/3 4/10/3 6/11/3 
f 6/11/3 5/12/3 1/9/3 
s 16
f 4/13/4 3/14/4 7/15/4 
f 7/15/4 6/16/4 4/13/4 
s 32
f 3/17/5 2/18/5 8/19/5 
f 8/19/5 7/20/5 3/17/5 
s 64
f 2/21/6 1/22/6 5/23/6 
f 5/23/6 8/24/6 2/21/6 
# 2 polygons - 8 triangles

