# 3ds Max Wavefront OBJ Exporter v0.97b - (c)2007 guruware
# File Created: 18.07.2011 13:33:04

mtllib mmodule_red.mtl

#
# object Box03
#

v  -28.7593 0.7107 7.2288
v  -28.7238 0.0923 -21.2206
v  43.7717 -0.0326 -21.1275
v  43.7363 0.5857 7.3218
v  -28.7580 1.4259 7.2133
v  43.7375 1.3009 7.3063
v  43.7730 0.6826 -21.1431
v  -28.7226 0.8076 -21.2361
v  1.4480 0.8661 16.8161
v  1.4604 0.6498 6.8636
v  22.0803 0.6143 6.8901
v  22.0679 0.8306 16.8426
v  1.4492 1.5663 16.8009
v  22.0691 1.5307 16.8274
v  22.0815 1.3144 6.8749
v  1.4616 1.3500 6.8484
v  27.4003 0.8200 16.7838
v  27.4131 0.5959 6.4732
v  35.8806 0.5813 6.4841
v  35.8678 0.8054 16.7947
v  27.4015 1.5147 16.7687
v  35.8690 1.5001 16.7796
v  35.8818 1.2760 6.4690
v  27.4144 1.2906 6.4581
v  -20.3174 0.9036 16.7882
v  -20.3051 0.6873 6.8357
v  -5.0209 0.6610 6.8553
v  -5.0333 0.8773 16.8078
v  -20.3162 1.6038 16.7730
v  -5.0321 1.5775 16.7926
v  -5.0197 1.3611 6.8401
v  -20.3038 1.3875 6.8205
v  -24.2417 0.6005 2.5233
v  -24.0830 0.5071 -1.7592
v  -20.4526 0.5503 0.5196
v  -20.6114 0.6437 4.8022
v  -28.0307 0.6507 4.5270
v  -27.8720 0.5573 0.2445
v  -24.4004 0.6938 6.8059
v  -20.4370 9.5006 0.3251
v  -20.5957 9.5939 4.6076
v  -24.0673 9.4574 -1.9537
v  -27.8563 9.5076 0.0500
v  -28.0150 9.6009 4.3325
v  -24.3847 9.6441 6.6114
v  -24.2260 9.5508 2.3288
v  -24.2304 0.4032 -6.5545
v  -24.0716 0.3098 -10.8371
v  -20.4413 0.3530 -8.5582
v  -20.6000 0.4464 -4.2757
v  -28.0194 0.4534 -4.5508
v  -27.8607 0.3600 -8.8334
v  -24.3891 0.4965 -2.2720
v  -20.4257 9.3033 -8.7527
v  -20.5844 9.3966 -4.4702
v  -24.0560 9.2601 -11.0316
v  -27.8450 9.3103 -9.0279
v  -28.0037 9.4036 -4.7453
v  -24.3734 9.4468 -2.4665
v  -24.2147 9.3535 -6.7490
v  -24.2192 0.2081 -15.5282
v  -24.0605 0.1148 -19.8108
v  -20.4302 0.1580 -17.5319
v  -20.5889 0.2513 -13.2494
v  -28.0082 0.2583 -13.5245
v  -27.8495 0.1650 -17.8071
v  -24.3779 0.3015 -11.2457
v  -20.4145 9.1082 -17.7264
v  -20.5732 9.2016 -13.4439
v  -24.0448 9.0651 -20.0053
v  -27.8338 9.1152 -18.0016
v  -27.9925 9.2086 -13.7190
v  -24.3622 9.2518 -11.4402
v  -24.2035 9.1584 -15.7227
# 74 vertices

vn -0.0018 -0.9998 0.0217
vn 0.0018 0.9998 -0.0217
vn -0.0012 0.0217 0.9998
vn 1.0000 -0.0017 0.0013
vn 0.0012 -0.0217 -0.9998
vn -1.0000 0.0017 -0.0013
vn 0.8469 0.0101 0.5316
vn 0.8839 -0.0117 -0.4674
vn 0.0370 -0.0218 -0.9991
vn -0.8469 -0.0101 -0.5316
vn -0.8839 0.0117 0.4674
vn -0.0370 0.0218 0.9991
# 12 vertex normals

vt -0.3743 0.4990 0.0000
vt -0.3743 0.6021 0.0000
vt -0.5650 0.6021 0.0000
vt -0.5650 0.4990 0.0000
vt -0.9921 0.1714 0.0000
vt 0.0003 0.1731 0.0000
vt -0.0006 0.6056 0.0000
vt -0.9929 0.6074 0.0000
vt 0.5162 0.4826 0.0000
vt 0.5206 0.0430 0.0000
vt 0.5263 0.0431 0.0000
vt 0.5219 0.4826 0.0000
vt 0.5459 0.3019 0.0000
vt 0.5475 0.0566 0.0000
vt 0.5537 0.0566 0.0000
vt 0.5521 0.3019 0.0000
vt 0.5413 0.4827 0.0000
vt 0.5457 0.0432 0.0000
vt 0.5514 0.0432 0.0000
vt 0.5470 0.4827 0.0000
vt 0.5430 0.2817 0.0000
vt 0.5444 0.0475 0.0000
vt 0.5497 0.0476 0.0000
vt 0.5483 0.2818 0.0000
vt -0.3764 0.5037 0.0000
vt -0.3764 0.5895 0.0000
vt -0.5542 0.5895 0.0000
vt -0.5542 0.5037 0.0000
vt -0.5748 0.0321 0.0000
vt -0.2960 0.0331 0.0000
vt -0.2965 0.1700 0.0000
vt -0.5753 0.1690 0.0000
vt 0.5419 0.4716 0.0000
vt 0.5429 0.3019 0.0000
vt 0.5482 0.3020 0.0000
vt 0.5472 0.4717 0.0000
vt 0.5184 0.4213 0.0000
vt 0.5189 0.3394 0.0000
vt 0.5242 0.3394 0.0000
vt 0.5237 0.4213 0.0000
vt 0.5197 0.2171 0.0000
vt 0.5207 0.0473 0.0000
vt 0.5259 0.0474 0.0000
vt 0.5249 0.2171 0.0000
vt 0.5213 0.3751 0.0000
vt 0.5222 0.2893 0.0000
vt 0.5283 0.2893 0.0000
vt 0.5273 0.3751 0.0000
vt -0.4679 0.5904 0.0000
vt -0.5568 0.5904 0.0000
vt -0.5568 0.5174 0.0000
vt -0.4679 0.5174 0.0000
vt -0.2175 0.0381 0.0000
vt -0.1051 0.0366 0.0000
vt -0.1042 0.1669 0.0000
vt -0.2166 0.1685 0.0000
vt 0.5212 0.3563 0.0000
vt 0.5201 0.2833 0.0000
vt 0.5261 0.2832 0.0000
vt 0.5272 0.3562 0.0000
vt 0.5454 0.4119 0.0000
vt 0.5460 0.3230 0.0000
vt 0.5519 0.3231 0.0000
vt 0.5514 0.4120 0.0000
vt 0.5434 0.3804 0.0000
vt 0.5441 0.4534 0.0000
vt 0.5381 0.4534 0.0000
vt 0.5374 0.3804 0.0000
vt 0.5198 0.1453 0.0000
vt 0.5204 0.0564 0.0000
vt 0.5264 0.0565 0.0000
vt 0.5258 0.1453 0.0000
vt -0.4245 0.5080 0.0000
vt -0.4245 0.5938 0.0000
vt -0.5563 0.5938 0.0000
vt -0.5563 0.5080 0.0000
vt -0.8754 0.0344 0.0000
vt -0.6723 0.0359 0.0000
vt -0.6733 0.1729 0.0000
vt -0.8763 0.1714 0.0000
vt 0.5272 0.2179 0.0000
vt 0.5285 0.3497 0.0000
vt 0.5224 0.3497 0.0000
vt 0.5212 0.2180 0.0000
vt 0.5190 0.3192 0.0000
vt 0.5195 0.2372 0.0000
vt 0.5248 0.2373 0.0000
vt 0.5243 0.3192 0.0000
vt 0.5486 0.3732 0.0000
vt 0.5492 0.2414 0.0000
vt 0.5553 0.2415 0.0000
vt 0.5547 0.3732 0.0000
vt 0.5548 0.2636 0.0000
vt 0.5557 0.3494 0.0000
vt 0.5496 0.3495 0.0000
vt 0.5488 0.2637 0.0000
vt 1.2402 0.7610 0.0000
vt 1.2035 0.7611 0.0000
vt 1.2218 0.7296 0.0000
vt 1.2585 0.7295 0.0000
vt 1.2586 0.7924 0.0000
vt 1.2219 0.7925 0.0000
vt 1.2770 0.7609 0.0000
vt 1.0232 0.7186 0.0000
vt 1.0482 0.7187 0.0000
vt 1.0477 0.7941 0.0000
vt 1.0227 0.7940 0.0000
vt 1.0266 0.7192 0.0000
vt 1.0519 0.7194 0.0000
vt 1.0508 0.7939 0.0000
vt 1.0255 0.7937 0.0000
vt 1.0783 0.7196 0.0000
vt 1.0772 0.7941 0.0000
vt 1.0241 0.7208 0.0000
vt 1.0469 0.7210 0.0000
vt 1.0463 0.7943 0.0000
vt 1.0235 0.7941 0.0000
vt 1.0282 0.7172 0.0000
vt 1.0519 0.7175 0.0000
vt 1.0505 0.7931 0.0000
vt 1.0269 0.7928 0.0000
vt 1.0766 0.7177 0.0000
vt 1.0752 0.7934 0.0000
vt 1.0474 0.7827 0.0000
vt 1.0712 0.7828 0.0000
vt 1.0592 0.7959 0.0000
vt 1.0355 0.7959 0.0000
vt 1.0237 0.7827 0.0000
vt 1.0357 0.7695 0.0000
vt 1.0594 0.7696 0.0000
vt 1.2405 0.7643 0.0000
vt 1.2038 0.7644 0.0000
vt 1.2221 0.7329 0.0000
vt 1.2588 0.7328 0.0000
vt 1.2589 0.7958 0.0000
vt 1.2222 0.7958 0.0000
vt 1.2772 0.7643 0.0000
vt 1.0228 0.7175 0.0000
vt 1.0477 0.7176 0.0000
vt 1.0474 0.7951 0.0000
vt 1.0225 0.7951 0.0000
vt 1.0247 0.7205 0.0000
vt 1.0499 0.7205 0.0000
vt 1.0498 0.7948 0.0000
vt 1.0245 0.7948 0.0000
vt 1.0762 0.7205 0.0000
vt 1.0761 0.7948 0.0000
vt 1.0294 0.7190 0.0000
vt 1.0519 0.7190 0.0000
vt 1.0517 0.7912 0.0000
vt 1.0293 0.7912 0.0000
vt 1.0248 0.7187 0.0000
vt 1.0489 0.7188 0.0000
vt 1.0487 0.7952 0.0000
vt 1.0246 0.7952 0.0000
vt 1.0740 0.7188 0.0000
vt 1.0738 0.7953 0.0000
vt 1.0473 0.7818 0.0000
vt 1.0710 0.7819 0.0000
vt 1.0591 0.7950 0.0000
vt 1.0354 0.7950 0.0000
vt 1.0236 0.7818 0.0000
vt 1.0355 0.7686 0.0000
vt 1.0592 0.7687 0.0000
vt 1.2434 0.7636 0.0000
vt 1.2066 0.7637 0.0000
vt 1.2249 0.7322 0.0000
vt 1.2617 0.7321 0.0000
vt 1.2618 0.7951 0.0000
vt 1.2250 0.7951 0.0000
vt 1.2801 0.7636 0.0000
vt 1.0262 0.7215 0.0000
vt 1.0501 0.7216 0.0000
vt 1.0495 0.7928 0.0000
vt 1.0255 0.7926 0.0000
vt 1.0217 0.7182 0.0000
vt 1.0494 0.7182 0.0000
vt 1.0491 0.7956 0.0000
vt 1.0214 0.7956 0.0000
vt 1.0783 0.7182 0.0000
vt 1.0779 0.7956 0.0000
vt 1.0248 0.7176 0.0000
vt 1.0499 0.7178 0.0000
vt 1.0492 0.7933 0.0000
vt 1.0241 0.7931 0.0000
vt 1.0248 0.7197 0.0000
vt 1.0494 0.7197 0.0000
vt 1.0493 0.7930 0.0000
vt 1.0246 0.7929 0.0000
vt 1.0751 0.7197 0.0000
vt 1.0750 0.7930 0.0000
vt 1.0492 0.7822 0.0000
vt 1.0729 0.7823 0.0000
vt 1.0609 0.7954 0.0000
vt 1.0372 0.7954 0.0000
vt 1.0254 0.7822 0.0000
vt 1.0374 0.7690 0.0000
vt 1.0611 0.7691 0.0000
# 198 texture coords

g Box03
usemtl Material__41
s 2
f 1/1/1 2/2/1 3/3/1 4/4/1 
s 4
f 5/5/2 6/6/2 7/7/2 8/8/2 
s 8
f 1/9/3 4/10/3 6/11/3 5/12/3 
s 16
f 4/13/4 3/14/4 7/15/4 6/16/4 
s 32
f 3/17/5 2/18/5 8/19/5 7/20/5 
s 64
f 2/21/6 1/22/6 5/23/6 8/24/6 
s 2
f 9/25/1 10/26/1 11/27/1 12/28/1 
s 4
f 13/29/2 14/30/2 15/31/2 16/32/2 
s 8
f 9/33/3 12/34/3 14/35/3 13/36/3 
s 16
f 12/37/4 11/38/4 15/39/4 14/40/4 
s 32
f 11/41/5 10/42/5 16/43/5 15/44/5 
s 64
f 10/45/6 9/46/6 13/47/6 16/48/6 
s 2
f 17/49/1 18/50/1 19/51/1 20/52/1 
s 4
f 21/53/2 22/54/2 23/55/2 24/56/2 
s 8
f 17/57/3 20/58/3 22/59/3 21/60/3 
s 16
f 20/61/4 19/62/4 23/63/4 22/64/4 
s 32
f 19/65/5 18/66/5 24/67/5 23/68/5 
s 64
f 18/69/6 17/70/6 21/71/6 24/72/6 
s 2
f 25/73/1 26/74/1 27/75/1 28/76/1 
s 4
f 29/77/2 30/78/2 31/79/2 32/80/2 
s 8
f 25/81/3 28/82/3 30/83/3 29/84/3 
s 16
f 28/85/4 27/86/4 31/87/4 30/88/4 
s 32
f 27/89/5 26/90/5 32/91/5 31/92/5 
s 64
f 26/93/6 25/94/6 29/95/6 32/96/6 
s 1
f 33/97/1 34/98/1 35/99/1 36/100/1 
f 33/97/1 37/101/1 38/102/1 34/98/1 
f 33/97/1 36/100/1 39/103/1 37/101/1 
s 8
f 36/104/7 35/105/8 40/106/8 41/107/7 
f 35/108/8 34/109/9 42/110/9 40/111/8 
f 34/109/9 38/112/10 43/113/10 42/110/9 
f 38/114/10 37/115/11 44/116/11 43/117/10 
f 37/118/11 39/119/12 45/120/12 44/121/11 
f 39/119/12 36/122/7 41/123/7 45/120/12 
s 1
f 46/124/2 45/125/2 41/126/2 40/127/2 
f 46/124/2 40/127/2 42/128/2 43/129/2 
f 46/124/2 43/129/2 44/130/2 45/125/2 
f 47/131/1 48/132/1 49/133/1 50/134/1 
f 47/131/1 51/135/1 52/136/1 48/132/1 
f 47/131/1 50/134/1 53/137/1 51/135/1 
s 8
f 50/138/7 49/139/8 54/140/8 55/141/7 
f 49/142/8 48/143/9 56/144/9 54/145/8 
f 48/143/9 52/146/10 57/147/10 56/144/9 
f 52/148/10 51/149/11 58/150/11 57/151/10 
f 51/152/11 53/153/12 59/154/12 58/155/11 
f 53/153/12 50/156/7 55/157/7 59/154/12 
s 1
f 60/158/2 59/159/2 55/160/2 54/161/2 
f 60/158/2 54/161/2 56/162/2 57/163/2 
f 60/158/2 57/163/2 58/164/2 59/159/2 
f 61/165/1 62/166/1 63/167/1 64/168/1 
f 61/165/1 65/169/1 66/170/1 62/166/1 
f 61/165/1 64/168/1 67/171/1 65/169/1 
s 8
f 64/172/7 63/173/8 68/174/8 69/175/7 
f 63/176/8 62/177/9 70/178/9 68/179/8 
f 62/177/9 66/180/10 71/181/10 70/178/9 
f 66/182/10 65/183/11 72/184/11 71/185/10 
f 65/186/11 67/187/12 73/188/12 72/189/11 
f 67/187/12 64/190/7 69/191/7 73/188/12 
s 1
f 74/192/2 73/193/2 69/194/2 68/195/2 
f 74/192/2 68/195/2 70/196/2 71/197/2 
f 74/192/2 71/197/2 72/198/2 73/193/2 
# 60 polygons

