# 3ds Max Wavefront OBJ Exporter v0.97b - (c)2007 guruware
# File Created: 01.12.2011 17:35:54

mtllib Envelope.mtl

#
# object Plane001
#

v  -67.7807 15.9927 -0.0000
v  -19.8259 3.4117 -0.0000
v  -7.1045 102.5992 0.0000
v  -55.8771 108.8320 0.0000
v  115.1931 -13.9053 -0.0000
v  127.9145 85.2822 0.0000
# 6 vertices

vn -0.0000 -0.0000 1.0000
# 1 vertex normals

vt 0.0000 0.0000 0.0000
vt 0.3950 0.0000 0.0000
vt 0.3950 1.0000 0.0000
vt 0.0000 1.0000 0.0000
vt 1.0000 0.0000 0.0000
vt 1.0000 1.0000 0.0000
# 6 texture coords

g Plane001
usemtl 01___Default
s 1
f 1/1/1 2/2/1 3/3/1 4/4/1 
f 5/5/1 6/6/1 3/3/1 2/2/1 
# 2 polygons

