# 3ds Max Wavefront OBJ Exporter v0.97b - (c)2007 guruware
# File Created: 20.07.2011 17:37:19

mtllib tankerfob.mtl

#
# object Cylinder02
#

v  5.8053 6.3493 -19.7830
v  4.6943 7.9268 -20.8969
v  6.9163 4.7718 -20.8969
v  5.8053 6.3493 -17.5550
v  11.8000 23.2904 -20.8969
v  10.5331 24.7457 -17.5550
v  9.2662 26.2010 -20.8969
v  28.2864 28.9779 -20.8969
v  28.4410 30.9012 -17.5550
v  28.5956 32.8244 -20.8969
v  44.2469 24.6758 -20.8969
v  45.5430 26.1051 -17.5550
v  46.8391 27.5344 -20.8969
v  53.1729 7.5867 -20.8969
v  54.8026 8.6196 -17.5550
v  56.4323 9.6526 -20.8969
v  54.8026 8.6196 -19.7830
v  54.7039 9.5335 -17.5550
v  52.8376 10.0231 -20.8969
v  39.4052 -7.3712 -20.8969
v  40.4942 -8.9640 -17.5550
v  56.5702 9.0439 -20.8969
v  41.5832 -10.5568 -20.8969
v  16.1786 -9.5238 -20.8969
v  15.5537 -11.3493 -17.5550
v  14.9288 -13.1748 -20.8969
v  7.8613 4.3675 -20.8969
v  3.0961 2.4663 -17.5550
v  2.7668 0.5652 -20.8969
v  3.0961 2.4663 -19.7830
v  0.9265 2.8852 -15.1482
v  -16.9225 1.5419 -32.8360
v  18.7754 1.5419 -32.8360
v  18.5503 2.9658 16.7117
v  -8.3969 2.8852 26.1442
v  -16.6973 2.9658 16.7117
v  10.2499 2.8852 26.1442
v  17.3402 7.1298 -30.8002
v  17.1331 6.9865 15.6786
v  -15.4872 7.1298 -30.8002
v  -15.2802 6.9865 15.6786
v  -7.6472 7.0606 24.3526
v  9.5002 7.0606 24.3526
v  5.3622 6.0065 -13.5706
v  1.0608 -1.9978 3.3407
v  10.8177 -2.1477 -35.8392
v  21.2612 -1.5856 -34.2676
v  27.3048 -2.1459 4.3676
v  -19.1956 -1.5856 -34.2676
v  -8.6962 -2.1477 -35.8392
v  -17.7496 -1.6544 23.4113
v  -23.4742 -1.7305 3.3407
v  8.2457 -1.6544 31.8577
v  -6.1241 -1.6544 31.8577
v  19.8712 -1.6544 25.2676
v  22.0027 3.1621 -31.2944
v  26.5007 3.2909 4.2824
v  10.5154 3.6183 -35.1102
v  -8.3500 3.6183 -35.1102
v  -20.5152 3.1621 -31.2944
v  -25.0691 3.2909 4.2824
v  -17.1025 3.1414 22.2178
v  -5.8634 3.1414 27.4245
v  8.0289 3.1414 27.4245
v  19.2680 3.1414 22.2178
v  1.0827 3.4734 3.3870
# 66 vertices

vn -0.8176 -0.5758 -0.0000
vn 0.4118 -0.1130 0.9043
vn 0.9197 -0.2425 -0.3087
vn 0.5626 -0.4977 -0.6601
vn -0.2109 0.1493 0.9661
vn -0.7313 0.1874 -0.6558
vn -0.6623 0.6250 -0.4131
vn 0.0374 -0.8089 -0.5868
vn -0.0194 0.1608 0.9868
vn -0.0168 0.8973 -0.4411
vn -0.4859 -0.6105 -0.6255
vn 0.1267 0.1733 0.9767
vn 0.5749 0.6990 -0.4253
vn -0.7750 -0.4097 -0.4811
vn -0.0388 -0.0160 0.9991
vn 0.7542 0.4046 -0.5171
vn 0.5354 -0.8446 -0.0000
vn 0.1817 -0.1373 0.9737
vn -0.6386 0.4932 -0.5907
vn -0.3658 0.6874 -0.6275
vn 0.0881 -0.1997 0.9759
vn 0.7278 -0.5588 -0.3976
vn 0.4474 -0.7873 -0.4242
vn 0.3464 0.6351 -0.6904
vn -0.0680 -0.2708 0.9602
vn -0.3250 -0.8492 -0.4163
vn 0.7597 0.6390 -0.1207
vn -0.1930 -0.1667 0.9669
vn -0.6921 -0.6126 -0.3818
vn -0.7195 0.6240 -0.3048
vn -0.7003 0.4473 -0.5564
vn -0.6579 0.7531 -0.0000
vn -0.4190 0.8108 -0.4086
vn 0.0000 -0.9994 0.0356
vn 0.0235 -0.9984 0.0521
vn -0.0235 -0.9984 0.0521
vn -0.0038 -1.0000 0.0046
vn -0.0032 -1.0000 -0.0007
vn 0.0038 -1.0000 0.0046
vn 0.0032 -1.0000 -0.0007
vn 0.8559 0.3861 0.3439
vn 0.6217 0.4041 -0.6709
vn 0.6729 0.4021 -0.6209
vn 0.8711 0.3840 0.3062
vn -0.6227 0.4074 -0.6681
vn -0.6770 0.3992 -0.6183
vn -0.8577 0.3873 0.3382
vn -0.8746 0.3816 0.2991
vn -0.3694 0.4216 0.8281
vn -0.3748 0.4230 0.8250
vn 0.3705 0.4232 0.8268
vn 0.3771 0.4216 0.8247
vn -0.0173 0.9998 0.0130
vn -0.0070 0.9996 -0.0270
vn -0.0307 0.9993 -0.0211
vn -0.0346 0.9986 0.0411
vn 0.0288 0.9991 0.0303
vn 0.0249 0.9996 -0.0159
vn 0.0072 0.9997 -0.0253
vn -0.0052 -1.0000 0.0045
vn 0.0285 -0.9995 0.0109
vn 0.0318 -0.9995 0.0061
vn -0.0058 -1.0000 0.0030
vn -0.0377 -0.9992 0.0094
vn -0.0284 -0.9995 0.0109
vn -0.0089 -0.9999 0.0088
vn -0.0109 -0.9999 0.0005
vn 0.0030 -0.9999 0.0113
vn -0.0035 -0.9999 0.0112
vn 0.0006 -0.9999 0.0152
vn 0.9850 0.1383 0.1030
vn 0.6127 0.2717 -0.7422
vn 0.8561 0.1808 -0.4842
vn 0.9810 0.1614 0.1074
vn 0.0712 0.1288 -0.9891
vn 0.0931 0.1821 -0.9789
vn -0.1309 0.1833 -0.9743
vn -0.1468 0.1328 -0.9802
vn -0.5185 0.3417 -0.7839
vn -0.8586 0.0219 -0.5122
vn -0.9529 -0.2822 0.1114
vn -0.9330 -0.3223 0.1598
vn -0.7225 0.3174 0.6142
vn -0.7555 0.2086 0.6210
vn -0.2092 0.6699 0.7124
vn -0.2508 0.6298 0.7351
vn 0.1602 0.6607 0.7333
vn 0.1722 0.6729 0.7194
vn 0.6352 0.4585 0.6215
vn 0.7115 0.4531 0.5371
vn 0.0001 1.0000 0.0058
vn 0.0062 0.9999 0.0116
vn 0.0071 1.0000 0.0027
vn 0.0262 0.9996 0.0068
vn 0.0188 0.9998 0.0084
vn -0.0179 0.9998 0.0082
vn -0.0246 0.9997 0.0064
vn -0.0069 1.0000 0.0027
vn -0.0061 0.9999 0.0117
vn -0.0030 0.9999 0.0130
vn 0.0030 0.9999 0.0130
# 101 vertex normals

vt 0.8500 0.2241 0.0000
vt 0.8553 0.2314 0.0000
vt 0.8447 0.2314 0.0000
vt 0.8500 0.2095 0.0000
vt 0.8500 0.2933 0.0000
vt 0.8447 0.2713 0.0000
vt 0.9071 0.2713 0.0000
vt 0.9120 0.2933 0.0000
vt 0.9874 0.2911 0.0000
vt 0.9696 0.3025 0.0000
vt 0.8702 0.2739 0.0000
vt 0.8867 0.2608 0.0000
vt 0.9120 0.2095 0.0000
vt 0.9169 0.2314 0.0000
vt 0.9199 0.2592 0.0000
vt 0.8988 0.2512 0.0000
vt 0.8988 0.1472 0.0000
vt 0.9199 0.1463 0.0000
vt 0.8379 0.1680 0.0000
vt 0.8590 0.1705 0.0000
vt 0.8637 0.2662 0.0000
vt 0.8426 0.2582 0.0000
vt 0.8426 0.1452 0.0000
vt 0.8637 0.1443 0.0000
vt 0.8988 0.0465 0.0000
vt 0.9199 0.0384 0.0000
vt 0.8709 0.0705 0.0000
vt 0.8861 0.0851 0.0000
vt 0.8426 0.0373 0.0000
vt 0.8637 0.0292 0.0000
vt 0.9323 0.1323 0.0000
vt 0.9248 0.1534 0.0000
vt 0.8349 0.1534 0.0000
vt 0.8403 0.1323 0.0000
vt 0.9712 0.0224 0.0000
vt 0.9819 0.0405 0.0000
vt 0.9416 0.2666 0.0000
vt 0.9341 0.2877 0.0000
vt 0.8421 0.2877 0.0000
vt 0.8476 0.2666 0.0000
vt 0.9173 0.1038 0.0000
vt 0.9058 0.1097 0.0000
vt 0.9173 0.0919 0.0000
vt 0.9289 0.1097 0.0000
vt 0.8349 0.0427 0.0000
vt 0.8387 0.0188 0.0000
vt 0.9543 0.0175 0.0000
vt 0.9576 0.0415 0.0000
vt 0.9838 0.2882 0.0000
vt 0.9738 0.3074 0.0000
vt 0.8483 0.2161 0.0000
vt 0.8725 0.2066 0.0000
vt 0.9608 0.1202 0.0000
vt 0.9817 0.1241 0.0000
vt 0.9827 0.2503 0.0000
vt 0.9618 0.2537 0.0000
vt 0.8731 0.1060 0.0000
vt 0.8767 0.0841 0.0000
vt 0.9551 0.0841 0.0000
vt 0.9572 0.1060 0.0000
vt 0.8517 0.0737 0.0000
vt 0.8764 0.0825 0.0000
vt 0.8421 0.2424 0.0000
vt 0.8479 0.2213 0.0000
vt 0.9791 0.2213 0.0000
vt 0.9824 0.2424 0.0000
vt 0.9750 0.1908 0.0000
vt 0.9562 0.1852 0.0000
vt 0.9463 0.1003 0.0000
vt 0.9809 0.0919 0.0000
vt 0.9582 0.0179 0.0000
vt 0.9808 0.0471 0.0000
vt 0.8487 0.1749 0.0000
vt 0.8515 0.1502 0.0000
vt 0.9142 0.1465 0.0000
vt 0.9106 0.1708 0.0000
vt 0.9159 0.1373 0.0000
vt 0.9057 0.1366 0.0000
vt 0.9288 0.1305 0.0000
vt 0.9289 0.1614 0.0000
vt 0.9713 0.0208 0.0000
vt 0.1452 0.1569 0.0000
vt 0.0336 0.2695 0.0000
vt 0.0336 0.0443 0.0000
vt 0.3462 0.0457 0.0000
vt 0.4057 0.2157 0.0000
vt 0.3462 0.2681 0.0000
vt 0.4057 0.0981 0.0000
vt 0.9104 0.6763 0.0000
vt 0.9413 0.8322 0.0000
vt 0.8203 0.8258 0.0000
vt 0.8234 0.6795 0.0000
vt 0.9367 0.6578 0.0000
vt 0.9367 0.8218 0.0000
vt 0.8305 0.8152 0.0000
vt 0.8305 0.6644 0.0000
vt 0.8277 0.8280 0.0000
vt 0.8522 0.6868 0.0000
vt 0.9216 0.6898 0.0000
vt 0.9241 0.8222 0.0000
vt 0.9188 0.8083 0.0000
vt 0.8395 0.8087 0.0000
vt 0.8449 0.7801 0.0000
vt 0.9178 0.7806 0.0000
vt 0.9299 0.8129 0.0000
vt 0.8196 0.8129 0.0000
vt 0.8241 0.7082 0.0000
vt 0.9255 0.7082 0.0000
vt 0.8349 0.7868 0.0000
vt 0.9141 0.7872 0.0000
vt 0.9131 0.8149 0.0000
vt 0.8402 0.8154 0.0000
vt -0.5817 0.7403 0.0000
vt -0.5309 0.3782 0.0000
vt -0.4372 0.4610 0.0000
vt -0.4347 0.9048 0.0000
vt -0.8377 0.9048 0.0000
vt -0.8351 0.4610 0.0000
vt -0.7414 0.3782 0.0000
vt 0.2586 0.1629 0.0000
vt 0.0100 0.1061 0.0000
vt 0.0181 0.0222 0.0000
vt 0.2651 0.0100 0.0000
vt 0.0181 0.3036 0.0000
vt 0.0100 0.2198 0.0000
vt 0.3859 0.2725 0.0000
vt 0.2586 0.3059 0.0000
vt 0.4395 0.1210 0.0000
vt 0.4395 0.2048 0.0000
vt 0.3977 0.0533 0.0000
vt 0.8284 0.7625 0.0000
vt 0.8301 0.6699 0.0000
vt 0.9260 0.6783 0.0000
vt 0.9204 0.7623 0.0000
vt 0.9266 0.6811 0.0000
vt 0.9285 0.7226 0.0000
vt 0.8260 0.7234 0.0000
vt 0.8260 0.6785 0.0000
vt 0.9285 0.7788 0.0000
vt 0.8260 0.7778 0.0000
vt 0.9266 0.8203 0.0000
vt 0.8260 0.8249 0.0000
vt 0.8221 0.8216 0.0000
vt 0.8286 0.7314 0.0000
vt 0.9319 0.7291 0.0000
vt 0.9387 0.8132 0.0000
vt 0.8302 0.6836 0.0000
vt 0.9288 0.6864 0.0000
vt 0.9228 0.7804 0.0000
vt 0.8322 0.7804 0.0000
vt 0.8473 0.7420 0.0000
vt 0.9240 0.7513 0.0000
vt 0.9250 0.8162 0.0000
vt 0.8270 0.8162 0.0000
vt 0.8285 0.6855 0.0000
vt 0.9232 0.6855 0.0000
vt 0.8178 0.7696 0.0000
vt 0.8974 0.7424 0.0000
vt 0.9149 0.7735 0.0000
vt 0.8424 0.8027 0.0000
vt 0.8367 0.8123 0.0000
vt 0.9179 0.8050 0.0000
vt -0.6403 0.5748 0.0000
vt -0.4220 0.3719 0.0000
vt -0.3352 0.5651 0.0000
vt -0.3401 0.9452 0.0000
vt -0.5271 0.9895 0.0000
vt -0.7536 0.9895 0.0000
vt -0.9493 0.9452 0.0000
vt -0.9543 0.5651 0.0000
vt -0.8586 0.3719 0.0000
vt -0.7237 0.3158 0.0000
vt -0.5569 0.3158 0.0000
# 173 texture coords

g Cylinder02
usemtl Material__41
s 1
f 1/1/1 2/2/1 3/3/1 4/4/1 
f 1/1/1 4/4/1 2/2/1 
s 8
f 4/5/2 3/6/3 5/7/4 6/8/5 
f 3/9/3 2/10/6 7/11/7 5/12/4 
f 2/2/6 4/4/2 6/13/5 7/14/7 
f 6/15/5 5/16/4 8/17/8 9/18/9 
f 5/12/4 7/11/7 10/19/10 8/20/8 
f 7/21/7 6/22/5 9/23/9 10/24/10 
f 9/18/9 8/17/8 11/25/11 12/26/12 
f 8/20/8 10/19/10 13/27/13 11/28/11 
f 10/24/10 9/23/9 12/29/12 13/30/13 
f 12/31/12 11/32/11 14/33/14 15/34/15 
f 11/28/11 13/27/13 16/35/16 14/36/14 
f 13/37/13 12/38/12 15/39/15 16/40/16 
s 1
f 17/41/17 16/42/17 15/43/17 14/44/17 
f 17/41/17 14/44/17 16/42/17 
s 8
f 18/45/18 19/46/19 20/47/20 21/48/21 
f 19/49/19 22/50/22 23/51/23 20/52/20 
f 22/53/22 18/54/18 21/55/21 23/56/23 
f 21/57/21 20/58/20 24/59/24 25/60/25 
f 20/52/20 23/51/23 26/61/26 24/62/24 
f 23/63/23 21/64/21 25/65/25 26/66/26 
f 25/67/25 24/68/24 27/69/27 28/70/28 
f 24/62/24 26/61/26 29/71/29 27/72/27 
f 26/73/26 25/74/25 28/75/28 29/76/29 
s 1
f 30/77/30 29/78/31 28/79/32 27/80/33 
f 30/81/30 27/72/33 29/71/31 
f 31/82/34 32/83/35 33/84/36 34/85/37 
f 31/82/34 35/86/38 36/87/39 32/83/35 
f 31/82/34 34/85/37 37/88/40 35/86/38 
s 8
f 34/89/41 33/90/42 38/91/43 39/92/44 
f 33/93/42 32/94/45 40/95/46 38/96/43 
f 32/97/45 36/98/47 41/99/48 40/100/46 
f 36/101/47 35/102/49 42/103/50 41/104/48 
f 35/105/49 37/106/51 43/107/52 42/108/50 
f 37/109/51 34/110/41 39/111/44 43/112/52 
s 1
f 44/113/53 43/114/54 39/115/55 38/116/56 
f 44/113/53 38/116/56 40/117/57 41/118/58 
f 44/113/53 41/118/58 42/119/59 43/114/54 
f 45/120/60 46/121/61 47/122/62 48/123/63 
f 45/120/60 49/124/64 50/125/65 46/121/61 
f 45/120/60 51/126/66 52/127/67 49/124/64 
f 45/120/60 53/128/68 54/129/69 51/126/66 
f 45/120/60 48/123/63 55/130/70 53/128/68 
s 8
f 48/131/71 47/132/72 56/133/73 57/134/74 
f 47/135/72 46/136/75 58/137/76 56/138/73 
f 46/136/75 50/139/77 59/140/78 58/137/76 
f 50/139/77 49/141/79 60/142/80 59/140/78 
f 49/143/79 52/144/81 61/145/82 60/146/80 
f 52/144/81 51/147/83 62/148/84 61/145/82 
f 51/149/83 54/150/85 63/151/86 62/152/84 
f 54/153/85 53/154/87 64/155/88 63/156/86 
f 53/157/87 55/158/89 65/159/90 64/160/88 
f 55/161/89 48/131/71 57/134/74 65/162/90 
s 1
f 66/163/91 65/164/92 57/165/93 56/166/94 
f 66/163/91 56/166/94 58/167/95 59/168/96 
f 66/163/91 59/168/96 60/169/97 61/170/98 
f 66/163/91 61/170/98 62/171/99 63/172/100 
f 66/163/91 63/172/100 64/173/101 65/164/92 
# 56 polygons - 3 triangles

