# 3ds Max Wavefront OBJ Exporter v0.97b - (c)2007 guruware
# File Created: 23.03.2011 12:05:34

mtllib envirohelmet.mtl

#
# object ATR_environmental
#

v  0.3069 55.7638 -10.7186
v  -1.1856 55.1421 -9.3368
v  -1.4925 62.7037 -4.9909
v  0.0063 63.0757 -6.3779
v  1.7994 55.5548 -9.2178
v  0.3069 54.9331 -7.8359
v  0.0063 62.1629 -3.8694
v  2.7119 44.4641 -12.4764
v  1.4134 43.4735 -10.9764
v  4.0104 45.4547 -10.9764
v  2.7119 44.4641 -9.4764
v  11.3489 39.3106 -7.8138
v  11.5967 38.0032 -6.3138
v  12.0843 40.6179 -6.3138
v  11.3489 39.3106 -4.8138
v  14.7929 37.1686 -1.1120
v  13.3550 35.8613 -1.9625
v  11.8021 37.1686 -1.3466
v  13.2400 38.4760 -0.4962
v  13.1227 40.5549 9.3998
v  11.6848 39.5895 10.6247
v  10.1319 40.3213 9.3785
v  11.5698 41.2867 8.1536
v  -3.3688 75.1626 -3.3274
v  0.1099 76.9316 -3.3274
v  0.1099 75.4252 -5.4457
v  -0.5850 75.2822 -5.2701
v  -4.5278 72.9445 -3.0864
v  -1.5433 66.9290 -6.9552
v  -3.3688 63.7528 -5.7955
v  -4.5770 67.6426 -4.6109
v  0.1099 62.2345 -7.0750
v  0.1099 67.4804 -7.4883
v  3.5886 63.7528 -5.7955
v  2.2894 66.9290 -6.9552
v  4.7968 67.6426 -4.6109
v  0.8048 75.2822 -5.2701
v  3.5886 75.1626 -3.3274
v  4.7476 72.9445 -3.0864
v  -4.8097 74.8037 -0.2109
v  0.1099 77.3055 -0.2109
v  -6.4778 68.8619 1.3358
v  -4.8097 64.2427 1.3509
v  0.1099 61.7409 -0.2109
v  5.0295 64.2427 1.3509
v  6.6976 68.8619 1.3358
v  5.0295 74.8037 -0.2109
v  -3.3688 74.5115 5.9550
v  0.1099 76.2805 5.9550
v  -4.4456 70.4271 6.0651
v  -3.3688 66.6070 7.0066
v  0.1099 64.8380 7.0066
v  3.5886 66.6070 7.0066
v  4.6654 70.4271 6.0651
v  3.5886 74.5115 5.9550
v  0.1099 71.1420 7.9949
# 56 vertices

vn -0.7117 0.3281 -0.6211
vn -0.6812 0.3528 -0.6415
vn 0.6782 0.3956 -0.6194
vn -0.6834 -0.3728 0.6277
vn -0.6371 -0.4034 0.6568
vn -0.7318 -0.0677 -0.6782
vn -0.6728 -0.0282 -0.7393
vn 0.6445 0.2496 -0.7227
vn 0.6704 0.0379 0.7411
vn -0.6384 -0.2602 0.7244
vn -0.7037 -0.2502 0.6650
vn -0.1133 -0.7582 -0.6421
vn -0.1267 -0.7738 -0.6207
vn 0.6126 0.4221 -0.6682
vn 0.6079 0.3101 -0.7310
vn 0.0552 0.7392 0.6713
vn -0.5493 -0.3950 0.7364
vn 0.7226 -0.4580 -0.5177
vn 0.7243 -0.4561 -0.5172
vn -0.6633 -0.7420 -0.0973
vn -0.9808 -0.1949 0.0078
vn -0.7336 0.5311 0.4240
vn -0.5450 0.7459 0.3829
vn 0.6691 0.7306 0.1361
vn 0.8916 0.0177 -0.4525
vn 0.6999 -0.6399 0.3173
vn -0.6059 -0.7838 0.1361
vn -0.6947 0.6536 -0.3003
vn -0.5063 0.7867 -0.3534
vn 0.5277 0.8325 -0.1686
vn 0.5986 0.7854 -0.1579
vn -0.3828 0.7529 -0.5354
vn -0.2697 0.9043 -0.3309
vn -0.5657 0.2089 -0.7977
vn -0.6023 0.0554 -0.7963
vn -0.3859 -0.1125 -0.9156
vn -0.2832 -0.0753 -0.9561
vn 0.3722 -0.0729 -0.9253
vn 0.1607 -0.2799 -0.9465
vn 0.6812 0.0113 -0.7320
vn 0.5657 0.2089 -0.7977
vn 0.3896 0.7661 -0.5111
vn 0.2998 0.7775 -0.5529
vn -0.4507 0.8863 -0.1063
vn -0.9039 0.1495 -0.4007
vn -0.8837 0.4662 0.0407
vn -0.9162 -0.3316 -0.2249
vn -0.9540 -0.2428 -0.1757
vn -0.4612 -0.8867 -0.0322
vn -0.4192 -0.9056 -0.0651
vn 0.4683 -0.8813 -0.0634
vn 0.4059 -0.9137 -0.0192
vn 0.9276 -0.3355 -0.1640
vn 0.9423 -0.2143 -0.2572
vn 0.9513 0.2078 -0.2276
vn 0.8468 0.4050 -0.3449
vn 0.4507 0.8863 -0.1063
vn -0.4484 0.8817 0.1466
vn -0.9391 0.2538 0.2315
vn -0.9028 0.3263 0.2800
vn -0.8908 -0.1449 0.4307
vn -0.8792 -0.3163 0.3562
vn -0.4073 -0.8010 0.4386
vn -0.3237 -0.8695 0.3731
vn 0.4234 -0.8325 0.3573
vn 0.2962 -0.8520 0.4316
vn 0.9311 -0.1849 0.3145
vn 0.8362 -0.3005 0.4588
vn 0.9168 0.2501 0.3112
vn 0.9197 0.3181 0.2300
vn 0.4484 0.8817 0.1466
vn -0.1844 0.3626 0.9135
vn -0.4041 0.1309 0.9053
vn -0.4023 0.1106 0.9088
vn -0.0785 -0.1544 0.9849
vn 0.0785 -0.1544 0.9849
vn 0.4023 0.1106 0.9088
vn 0.4041 0.1309 0.9053
vn 0.1844 0.3626 0.9135
vn 0.2837 0.2378 -0.9289
vn 0.2873 0.2385 -0.9277
vn -0.3677 0.2316 -0.9007
vn -0.2815 0.2207 -0.9339
vn -0.5707 0.2248 -0.7898
vn -0.5595 0.2338 -0.7952
vn 0.6191 0.2596 -0.7412
vn 0.5728 0.2314 -0.7864
vn -0.9414 0.1012 -0.3217
vn 0.9414 0.1012 -0.3217
# 89 vertex normals

vt 0.5505 -0.4564 0.0000
vt 0.5417 -0.4563 0.0000
vt 0.5413 -0.4847 0.0000
vt 0.5505 -0.4821 0.0000
vt 0.5596 -0.4532 0.0000
vt 0.5329 -0.4560 0.0000
vt 0.5325 -0.4838 0.0000
vt 0.5505 -0.4141 0.0000
vt 0.5414 -0.4145 0.0000
vt 0.5597 -0.4185 0.0000
vt 0.5692 -0.4517 0.0000
vt 0.5693 -0.4202 0.0000
vt 0.5325 -0.4193 0.0000
vt 0.5504 -0.3911 0.0000
vt 0.5410 -0.3841 0.0000
vt 0.5594 -0.3890 0.0000
vt 0.5691 -0.3863 0.0000
vt 0.5503 -0.3634 0.0000
vt 0.5409 -0.3650 0.0000
vt 0.5322 -0.3640 0.0000
vt 0.5322 -0.3863 0.0000
vt 0.5689 -0.3593 0.0000
vt 0.5592 -0.3627 0.0000
vt 0.5503 -0.3289 0.0000
vt 0.5408 -0.3251 0.0000
vt 0.5322 -0.3276 0.0000
vt 0.5689 -0.3307 0.0000
vt 0.5592 -0.3319 0.0000
vt 0.2760 -0.2833 0.0000
vt 0.3311 -0.2670 0.0000
vt 0.3311 -0.2809 0.0000
vt 0.3222 -0.2822 0.0000
vt 0.2634 -0.3038 0.0000
vt 0.3150 -0.3593 0.0000
vt 0.2938 -0.3887 0.0000
vt 0.2763 -0.3527 0.0000
vt 0.3311 -0.4027 0.0000
vt 0.3311 -0.3542 0.0000
vt 0.3684 -0.3887 0.0000
vt 0.3521 -0.3593 0.0000
vt 0.3860 -0.3527 0.0000
vt 0.3401 -0.2822 0.0000
vt 0.3863 -0.2833 0.0000
vt 0.3988 -0.3038 0.0000
vt 0.2256 -0.2866 0.0000
vt 0.3311 -0.2635 0.0000
vt 0.2072 -0.3415 0.0000
vt 0.2031 -0.3841 0.0000
vt 0.3311 -0.4162 0.0000
vt 0.4582 -0.3904 0.0000
vt 0.4551 -0.3415 0.0000
vt 0.4367 -0.2866 0.0000
vt 0.1457 -0.2893 0.0000
vt 0.1099 -0.2716 0.0000
vt 0.1541 -0.3270 0.0000
vt 0.1405 -0.3623 0.0000
vt 0.1065 -0.3786 0.0000
vt 0.0725 -0.3623 0.0000
vt 0.0099 -0.3841 0.0000
vt 0.0590 -0.3270 0.0000
vt 0.0059 -0.3415 0.0000
vt 0.0675 -0.2889 0.0000
vt 0.0062 -0.2857 0.0000
vt 0.0057 -0.2699 0.0000
vt 0.1065 -0.3204 0.0000
vt 0.3312 -0.2861 0.0000
vt 0.3390 -0.2872 0.0000
vt 0.3496 -0.3549 0.0000
vt 0.3312 -0.3504 0.0000
vt 0.3171 -0.3549 0.0000
vt 0.3233 -0.2872 0.0000
vt 0.2718 -0.3062 0.0000
vt 0.2831 -0.3491 0.0000
vt 0.3793 -0.3491 0.0000
vt 0.3906 -0.3062 0.0000
# 75 texture coords

g ATR_environmental
usemtl PDX08___Default
s 1
f 1/1/1 2/2/1 3/3/1 
f 3/3/2 4/4/2 1/1/2 
f 5/5/3 1/1/3 4/4/3 
f 2/2/4 6/6/4 7/7/4 
f 7/7/5 3/3/5 2/2/5 
f 8/8/6 9/9/6 2/2/6 
f 2/2/7 1/1/7 8/8/7 
f 10/10/8 8/8/8 1/1/8 
f 5/5/9 6/11/9 11/12/9 
f 9/9/10 11/13/10 6/6/10 
f 6/6/11 2/2/11 9/9/11 
f 12/14/12 13/15/12 9/9/12 
f 9/9/13 8/8/13 12/14/13 
f 14/16/14 12/14/14 8/8/14 
f 8/8/15 10/10/15 14/16/15 
f 15/17/16 14/16/16 10/10/16 
f 11/13/17 9/9/17 13/15/17 
f 12/14/18 16/18/18 17/19/18 
f 17/19/19 13/15/19 12/14/19 
f 13/15/20 17/19/20 18/20/20 
f 18/20/21 15/21/21 13/15/21 
f 15/17/22 18/22/22 19/23/22 
f 19/23/23 14/16/23 15/17/23 
f 14/16/24 19/23/24 16/18/24 
f 16/18/25 12/14/25 14/16/25 
f 16/18/26 20/24/26 21/25/26 
f 22/26/27 18/20/27 17/19/27 
f 18/22/28 22/27/28 23/28/28 
f 23/28/29 19/23/29 18/22/29 
f 19/23/30 23/28/30 20/24/30 
f 20/24/31 16/18/31 19/23/31 
f 24/29/32 25/30/32 26/31/32 
f 26/31/33 27/32/33 24/29/33 
f 27/32/34 28/33/34 24/29/34 
f 29/34/35 30/35/35 31/36/35 
f 32/37/36 30/35/36 29/34/36 
f 29/34/37 33/38/37 32/37/37 
f 34/39/38 32/37/38 33/38/38 
f 33/38/39 35/40/39 34/39/39 
f 35/40/40 36/41/40 34/39/40 
f 37/42/41 38/43/41 39/44/41 
f 25/30/42 38/43/42 37/42/42 
f 37/42/43 26/31/43 25/30/43 
f 40/45/44 41/46/44 25/30/44 
f 25/30/44 24/29/44 40/45/44 
f 42/47/45 40/45/45 24/29/45 
f 24/29/46 28/33/46 42/47/46 
f 43/48/47 42/47/47 31/36/47 
f 31/36/48 30/35/48 43/48/48 
f 44/49/49 43/48/49 30/35/49 
f 30/35/50 32/37/50 44/49/50 
f 45/50/51 44/49/51 32/37/51 
f 32/37/52 34/39/52 45/50/52 
f 46/51/53 45/50/53 34/39/53 
f 34/39/54 36/41/54 46/51/54 
f 47/52/55 46/51/55 39/44/55 
f 39/44/56 38/43/56 47/52/56 
f 41/46/57 47/52/57 38/43/57 
f 38/43/57 25/30/57 41/46/57 
f 48/53/58 49/54/58 41/46/58 
f 41/46/58 40/45/58 48/53/58 
f 50/55/59 48/53/59 40/45/59 
f 40/45/60 42/47/60 50/55/60 
f 51/56/61 50/55/61 42/47/61 
f 42/47/62 43/48/62 51/56/62 
f 52/57/63 51/56/63 43/48/63 
f 43/48/64 44/49/64 52/57/64 
f 53/58/65 52/57/65 44/49/65 
f 44/49/66 45/59/66 53/58/66 
f 54/60/67 53/58/67 45/59/67 
f 45/59/68 46/61/68 54/60/68 
f 55/62/69 54/60/69 46/61/69 
f 46/61/70 47/63/70 55/62/70 
f 49/54/71 55/62/71 47/63/71 
f 47/63/71 41/64/71 49/54/71 
f 56/65/72 49/54/72 48/53/72 
f 56/65/73 48/53/73 50/55/73 
f 56/65/74 50/55/74 51/56/74 
f 56/65/75 51/56/75 52/57/75 
f 56/65/76 52/57/76 53/58/76 
f 56/65/77 53/58/77 54/60/77 
f 56/65/78 54/60/78 55/62/78 
f 56/65/79 55/62/79 49/54/79 
f 26/66/80 37/67/80 35/68/80 
f 26/66/81 35/68/81 33/69/81 
f 26/66/82 33/69/82 29/70/82 
f 26/66/83 29/70/83 27/71/83 
f 28/72/84 27/71/84 29/70/84 
f 29/70/85 31/73/85 28/72/85 
f 36/74/86 35/68/86 37/67/86 
f 37/67/87 39/75/87 36/74/87 
f 42/47/88 28/33/88 31/36/88 
f 46/51/89 36/41/89 39/44/89 
# 0 polygons - 93 triangles

