# 3ds Max Wavefront OBJ Exporter v0.97b - (c)2007 guruware
# File Created: 26.05.2011 23:48:49

mtllib roentgenrum.mtl

#
# object Box03
#

v  15.2476 -0.5010 -13.7914
v  25.3351 -0.5010 -14.7501
v  26.7560 -0.5010 -13.9208
v  26.9678 -0.5010 -11.6917
v  26.2007 -0.5010 -10.4204
v  14.2429 -0.5010 -12.4570
v  15.4575 -0.5010 -9.3993
v  14.4257 -0.5010 -10.5343
v  22.7746 16.3861 -11.5313
v  21.4140 16.3763 -9.9654
v  25.8847 15.0055 -10.3903
v  22.5321 16.3861 -13.2089
v  26.9865 14.5428 -11.4955
v  26.7584 14.5428 -13.8949
v  25.3351 15.0055 -14.7501
v  21.1596 16.3861 -14.3533
v  15.5258 15.0055 -9.4058
v  14.4262 14.5428 -10.5293
v  20.0067 16.3861 -9.8317
v  15.2476 15.0055 -13.7914
v  18.7683 16.3861 -14.1260
v  18.0348 16.3861 -12.7566
v  18.4479 16.3861 -10.9624
v  14.2436 14.5428 -12.4496
v  20.1305 23.4541 -10.2854
v  21.1255 23.4541 -10.3800
v  22.3093 23.4541 -11.6745
v  21.0187 23.4541 -13.8979
v  22.1208 23.4541 -12.9790
v  19.0448 23.4541 -13.7103
v  18.5006 23.4541 -12.6944
v  18.8397 23.4541 -11.2218
# 32 vertices

vn 0.0000 -1.0000 -0.0000
vn 0.3723 0.9226 0.1015
vn 0.3056 0.9127 0.2713
vn 0.3782 0.9250 0.0358
vn 0.3393 0.9207 -0.1928
vn 0.3892 0.9209 -0.0212
vn 0.3897 0.9185 -0.0671
vn 0.3624 0.9177 -0.1630
vn 0.2693 0.9073 -0.3230
vn -0.7383 0.0000 0.6744
vn -0.7154 0.0034 0.6987
vn -0.8949 0.0019 0.4463
vn -0.9146 -0.0001 0.4043
vn 0.0946 0.0000 0.9955
vn 0.5049 0.0013 -0.8632
vn 0.5151 0.0000 -0.8572
vn 0.8240 0.0001 -0.5666
vn 0.8424 0.0008 -0.5388
vn -0.0946 0.0000 -0.9955
vn -0.4347 0.9001 -0.0298
vn -0.3741 0.9055 -0.2004
vn -0.4122 0.9110 -0.0106
vn -0.3417 0.9163 0.2090
vn -0.3896 0.9173 0.0822
vn -0.2471 0.9071 0.3406
vn -0.4132 0.9099 0.0360
vn -0.4090 0.9122 0.0256
vn 0.0000 1.0000 -0.0000
vn -0.8006 0.0003 -0.5992
vn -0.7989 0.0000 -0.6015
vn -0.9623 0.0000 -0.2718
vn -0.9541 0.0002 -0.2995
vn 0.9254 -0.0061 0.3789
vn 0.9738 0.0077 0.2273
vn 0.7188 -0.0081 0.6952
vn 0.8561 0.0164 0.5166
vn -0.0944 0.0621 -0.9936
vn -0.8798 0.0621 -0.4713
vn -0.9726 0.0621 0.2240
vn -0.5860 0.0621 0.8079
vn 0.0947 0.0621 0.9936
vn 0.7454 0.0659 0.6633
vn 0.9878 0.0621 -0.1428
vn 0.6392 0.0621 -0.7666
# 44 vertex normals

vt 0.3375 0.8357 0.0000
vt 0.6226 0.8332 0.0000
vt 0.6605 0.8599 0.0000
vt 0.6610 0.9229 0.0000
vt 0.6364 0.9567 0.0000
vt 0.3061 0.8707 0.0000
vt 0.3328 0.9593 0.0000
vt 0.3066 0.9250 0.0000
vt 0.5894 0.6935 0.0000
vt 0.5495 0.7361 0.0000
vt 0.5484 0.6098 0.0000
vt 0.6371 0.6954 0.0000
vt 0.5762 0.5757 0.0000
vt 0.6440 0.5751 0.0000
vt 0.6720 0.6125 0.0000
vt 0.6731 0.7305 0.0000
vt 0.1626 0.1325 0.0000
vt 0.1665 0.5688 0.0000
vt 0.1319 0.5561 0.0000
vt 0.1281 0.1328 0.0000
vt 0.1948 0.1323 0.0000
vt 0.4985 0.1296 0.0000
vt 0.4933 0.5660 0.0000
vt 0.3673 0.6057 0.0000
vt 0.3275 0.6063 0.0000
vt 0.2005 0.5685 0.0000
vt 0.6755 0.1309 0.0000
vt 0.6794 0.5672 0.0000
vt 0.6417 0.5545 0.0000
vt 0.6380 0.1312 0.0000
vt 0.9607 0.1284 0.0000
vt 0.9645 0.5647 0.0000
vt 0.8653 0.6044 0.0000
vt 0.7977 0.6050 0.0000
vt 0.0777 0.6894 0.0000
vt 0.0420 0.7124 0.0000
vt 0.0394 0.6057 0.0000
vt 0.1292 0.6944 0.0000
vt 0.1628 0.5992 0.0000
vt 0.1663 0.7309 0.0000
vt 0.1277 0.5694 0.0000
vt 0.0735 0.5706 0.0000
vt 0.8926 0.8929 0.0000
vt 0.8928 0.9210 0.0000
vt 0.8600 0.9579 0.0000
vt 0.7941 0.9282 0.0000
vt 0.8230 0.9564 0.0000
vt 0.7936 0.8724 0.0000
vt 0.8204 0.8543 0.0000
vt 0.8626 0.8595 0.0000
vt 0.0429 0.5699 0.0000
vt 0.0391 0.1336 0.0000
vt 0.0738 0.1333 0.0000
vt 0.0777 0.5566 0.0000
vt 0.5483 0.5527 0.0000
vt 0.5502 0.1293 0.0000
vt 0.6132 0.1288 0.0000
vt 0.6161 0.5521 0.0000
vt 0.5204 0.5659 0.0000
vt 0.5166 0.1296 0.0000
vt 0.8604 0.8033 0.0000
vt 0.8046 0.8038 0.0000
vt 0.4310 0.6144 0.0000
vt 0.4674 0.6141 0.0000
vt 0.4721 0.8129 0.0000
vt 0.4451 0.8132 0.0000
vt 0.5188 0.6136 0.0000
vt 0.5143 0.8126 0.0000
vt 0.2869 0.6066 0.0000
vt 0.3339 0.8051 0.0000
vt 0.3003 0.8054 0.0000
vt 0.3621 0.8049 0.0000
vt 0.4096 0.6056 0.0000
vt 0.3987 0.8046 0.0000
vt 0.1797 0.6101 0.0000
vt 0.2274 0.6096 0.0000
vt 0.2237 0.8086 0.0000
vt 0.1867 0.8089 0.0000
vt 0.2631 0.6093 0.0000
vt 0.2524 0.8083 0.0000
# 80 texture coords

g Box03
usemtl wire_177026088
s 2
f 1/1/1 2/2/1 3/3/1 4/4/1 
f 1/1/1 4/4/1 5/5/1 6/6/1 
f 5/5/1 7/7/1 8/8/1 6/6/1 
s 4
f 9/9/2 10/10/3 11/11/4 12/12/5 
f 12/12/5 11/11/4 13/13/6 14/14/7 
f 12/12/5 14/14/7 15/15/8 16/16/9 
s 8
f 7/17/10 17/18/11 18/19/12 8/20/13 
s 16
f 7/21/14 5/22/14 11/23/14 10/24/14 
f 7/21/14 10/24/14 19/25/14 17/26/14 
s 32
f 2/27/15 15/28/16 14/29/17 3/30/18 
s 64
f 2/27/19 1/31/19 20/32/19 21/33/19 
f 2/27/19 21/33/19 16/34/19 15/28/19 
s 4
f 22/35/20 21/36/21 20/37/22 23/38/23 
f 17/39/24 19/40/25 23/38/23 18/41/26 
f 24/42/27 18/41/26 23/38/23 20/37/22 
f 25/43/28 26/44/28 27/45/28 28/46/28 
f 27/45/28 29/47/28 28/46/28 
f 28/46/28 30/48/28 31/49/28 25/43/28 
f 32/50/28 25/43/28 31/49/28 
s 8
f 20/51/29 1/52/30 6/53/31 24/54/32 
f 24/54/32 6/53/31 8/20/13 18/19/12 
s 32
f 13/55/33 4/56/34 3/57/18 14/58/17 
f 11/59/35 5/60/36 4/56/34 13/55/33 
s off
f 16/34/37 21/33/37 30/61/37 28/62/37 
f 21/63/38 22/64/38 31/65/38 30/66/38 
f 22/64/39 23/67/39 32/68/39 31/65/39 
f 23/69/40 19/25/40 25/70/40 32/71/40 
f 19/25/41 10/24/41 26/72/41 25/70/41 
f 10/24/42 9/73/42 27/74/42 26/72/42 
f 9/75/43 12/76/43 29/77/43 27/78/43 
f 12/76/44 16/79/44 28/80/44 29/77/44 
# 29 polygons - 2 triangles

