# 3ds Max Wavefront OBJ Exporter v0.97b - (c)2007 guruware
# File Created: 07.11.2011 21:49:15

mtllib howitzer_shell.mtl

#
# object Cylinder01
#

v  -0.3029 0.0000 -2.2219
v  -0.3029 5.9917 -2.2219
v  0.9059 5.9917 -0.5581
v  0.9059 0.0000 -0.5581
v  -2.2587 0.0000 -1.5864
v  -2.2587 5.9917 -1.5864
v  -2.2587 0.0000 0.4701
v  -2.2587 5.9917 0.4701
v  -0.3029 0.0000 1.1056
v  -0.3029 5.9917 1.1056
v  -0.3953 7.7277 -1.9373
v  0.6067 7.7277 -0.5581
v  -2.0166 7.7277 -1.4105
v  -2.0166 7.7277 0.2942
v  -0.3953 7.7277 0.8210
v  -0.8435 9.0354 -0.5581
# 16 vertices

vn 0.3090 0.0000 -0.9511
vn 0.3080 0.0826 -0.9478
vn 0.9966 0.0826 -0.0000
vn 1.0000 0.0000 -0.0000
vn -0.8090 0.0000 -0.5878
vn -0.8062 0.0826 -0.5858
vn -0.8090 0.0000 0.5878
vn -0.8062 0.0826 0.5858
vn 0.3090 0.0000 0.9511
vn 0.3080 0.0826 0.9478
vn 0.0000 -1.0000 -0.0000
vn 0.2779 0.4371 -0.8554
vn 0.8994 0.4371 -0.0000
vn -0.7277 0.4371 -0.5287
vn -0.7277 0.4371 0.5287
vn 0.2779 0.4371 0.8554
vn 0.0000 1.0000 -0.0000
# 17 vertex normals

vt 0.3421 0.0134 0.0000
vt 0.3421 0.9842 0.0000
vt 0.0089 0.9842 0.0000
vt 0.0089 0.0134 0.0000
vt 0.6883 0.4485 0.0000
vt 0.8841 0.7180 0.0000
vt 0.3713 0.8847 0.0000
vt 0.3713 0.5514 0.0000
vt 0.6883 0.9876 0.0000
vt 0.7059 0.1436 0.0000
vt 0.6774 0.4276 0.0000
vt 0.4012 0.4276 0.0000
vt 0.3727 0.1436 0.0000
vt 0.7190 0.0233 0.0000
vt 0.9953 0.0233 0.0000
vt 0.8572 0.3080 0.0000
# 16 texture coords

g Cylinder01
usemtl Material__39
s 1
f 1/1/1 2/2/2 3/3/3 4/4/4 
f 5/1/5 6/2/6 2/3/2 1/4/1 
f 7/1/7 8/2/8 6/3/6 5/4/5 
f 9/1/9 10/2/10 8/3/8 7/4/7 
f 4/1/4 3/2/3 10/3/10 9/4/9 
s 2
f 1/5/11 4/6/11 7/7/11 5/8/11 
f 9/9/11 7/7/11 4/6/11 
s 1
f 2/10/2 11/11/12 12/12/13 3/13/3 
f 6/10/6 13/11/14 11/12/12 2/13/2 
f 8/10/8 14/11/15 13/12/14 6/13/6 
f 10/10/10 15/11/16 14/12/15 8/13/8 
f 3/10/3 12/11/13 15/12/16 10/13/10 
f 12/14/13 11/15/12 16/16/17 
f 11/14/12 13/15/14 16/16/17 
f 13/14/14 14/15/15 16/16/17 
f 14/14/15 15/15/16 16/16/17 
f 15/14/16 12/15/13 16/16/17 
# 11 polygons - 6 triangles

