# 3ds Max Wavefront OBJ Exporter v0.97b - (c)2007 guruware
# File Created: 07.11.2011 21:55:15

mtllib detparts.mtl

#
# object Plane02
#

v  -21.6241 34.5953 24.9077
v  23.1550 34.5953 24.9077
v  23.1550 34.5953 -15.4982
v  -21.6241 34.5953 -15.4982
v  7.9407 34.7998 -4.7681
v  3.9445 36.8219 -12.5254
v  5.1107 39.1267 -12.5254
v  9.1069 37.1046 -4.7681
v  -4.0480 40.8660 -12.5254
v  -2.8818 43.1708 -12.5254
v  -8.0442 42.8880 -4.7681
v  -6.8780 45.1928 -4.7681
v  -4.0480 40.8660 2.9892
v  -2.8818 43.1708 2.9892
v  3.9445 36.8219 2.9892
v  5.1107 39.1267 2.9892
v  -21.7712 3.1392 25.0922
v  -21.7712 3.1392 -15.4982
v  23.2472 3.1392 -15.4982
v  23.2472 3.1392 25.0922
v  23.2472 46.6817 25.0922
v  -21.7712 46.6817 25.0922
v  23.2472 46.6817 -15.4982
v  -21.7712 46.6817 -15.4982
v  9.2309 64.3109 -15.4982
v  9.2309 64.3109 25.0922
v  -2.8632 40.6957 25.0923
v  -2.8632 40.6957 -15.4982
v  23.1459 45.9677 14.9903
v  18.9262 43.0527 6.1072
v  17.2450 45.4863 6.1072
v  21.4647 48.4014 14.9903
v  10.4869 37.2225 6.1073
v  8.8057 39.6562 6.1073
v  6.2672 34.3075 14.9903
v  4.5860 36.7411 14.9903
v  10.4869 37.2225 23.8734
v  8.8057 39.6562 23.8734
v  18.9262 43.0527 23.8734
v  17.2450 45.4863 23.8734
v  4.9747 23.6080 27.0238
v  6.0424 23.6080 27.0238
v  6.0424 36.2211 27.8274
v  4.9747 36.2211 27.8274
v  6.0424 48.3120 24.5295
v  4.9747 48.3120 24.5295
v  6.0424 25.4688 19.4964
v  4.9747 25.4688 19.4964
v  0.7326 30.6318 27.5266
v  2.7047 30.6318 27.5266
v  2.7047 39.0404 28.7321
v  0.7326 39.0404 28.7321
v  2.7047 48.3120 24.5295
v  0.7326 48.3120 24.5295
v  2.7047 25.4688 19.4964
v  0.7326 25.4688 19.4964
# 56 vertices

vn 0.0000 1.0000 -0.0000
vn 0.8923 -0.4515 0.0000
vn 0.7727 -0.3910 -0.5000
vn 0.0000 0.0000 -1.0000
vn -0.7727 0.3910 -0.5000
vn -0.8923 0.4515 0.0000
vn -0.7727 0.3910 0.5000
vn 0.0000 0.0000 1.0000
vn 0.7727 -0.3910 0.5000
vn -0.4515 -0.8923 0.0000
vn -0.4515 -0.8923 -0.0000
vn 0.4515 0.8923 0.0000
vn 0.4515 0.8923 -0.0000
vn 0.0000 -1.0000 -0.0000
vn 1.0000 0.0000 -0.0000
vn -1.0000 0.0000 -0.0000
vn 0.7828 0.6223 -0.0000
vn 0.3018 0.9534 -0.0000
vn 0.8228 0.5684 0.0000
vn 0.7125 0.4922 -0.5000
vn -0.0000 -0.0000 -1.0000
vn -0.7125 -0.4922 -0.5000
vn -0.8228 -0.5684 0.0000
vn -0.7125 -0.4922 0.5000
vn 0.7125 0.4922 0.5000
vn 0.5684 -0.8228 0.0000
vn 0.5684 -0.8228 -0.0000
vn -0.5684 0.8228 -0.0000
vn -0.5684 0.8228 0.0000
vn 0.0000 -0.0636 0.9980
vn 0.0000 0.1012 0.9949
vn 0.0000 0.2631 0.9648
vn 0.0000 0.2152 -0.9766
vn 0.0000 -0.1419 0.9899
vn 0.0000 0.1411 0.9900
vn 0.0000 0.4128 0.9108
# 36 vertex normals

vt 0.3639 -0.9953 0.0000
vt 0.3639 -0.6604 0.0000
vt 0.0046 -0.6604 0.0000
vt 0.0046 -0.9953 0.0000
vt 0.1946 0.5550 0.0000
vt 0.1791 0.6147 0.0000
vt 0.1614 0.6147 0.0000
vt 0.1769 0.5550 0.0000
vt 0.1889 0.7974 0.0000
vt 0.1948 0.7288 0.0000
vt 0.2146 0.7305 0.0000
vt 0.2087 0.7991 0.0000
vt 0.2222 0.6095 0.0000
vt 0.2066 0.6692 0.0000
vt 0.1889 0.6692 0.0000
vt 0.2045 0.6095 0.0000
vt 0.2222 0.7288 0.0000
vt 0.2045 0.7288 0.0000
vt 0.1946 0.5642 0.0000
vt 0.1967 0.4954 0.0000
vt 0.2166 0.4960 0.0000
vt 0.2145 0.5648 0.0000
vt 0.1791 0.4954 0.0000
vt 0.1614 0.4954 0.0000
vt 0.7922 0.7116 0.0000
vt 0.8518 0.6809 0.0000
vt 0.9115 0.7116 0.0000
vt 0.9115 0.7730 0.0000
vt 0.8518 0.8038 0.0000
vt 0.7922 0.7730 0.0000
vt 1.0075 0.6450 0.0000
vt 1.0075 0.4546 0.0000
vt 1.1669 0.3595 0.0000
vt 1.3262 0.4546 0.0000
vt 1.3262 0.6450 0.0000
vt 1.1669 0.7401 0.0000
vt -0.6177 0.1055 0.0000
vt -0.0187 0.1177 0.0000
vt 0.0032 0.9988 0.0000
vt -0.6152 0.9915 0.0000
vt 0.9977 -0.8899 0.0000
vt 0.9977 -0.0096 0.0000
vt 0.4037 -0.0096 0.0000
vt 0.4037 -0.8899 0.0000
vt 0.9822 -0.0102 0.0000
vt 0.3983 -0.0102 0.0000
vt 0.3983 -0.6375 0.0000
vt 0.9822 -0.6375 0.0000
vt 0.9914 -0.8946 0.0000
vt 0.9914 -0.0048 0.0000
vt 0.3974 -0.0048 0.0000
vt 0.3974 -0.8946 0.0000
vt 0.9589 0.6809 0.0000
vt 0.6468 0.6809 0.0000
vt 0.6468 0.3461 0.0000
vt 0.9589 0.3461 0.0000
vt 0.3983 -0.8915 0.0000
vt 0.9822 -0.8915 0.0000
vt 0.7922 0.6809 0.0000
vt 0.7922 0.9929 0.0000
vt 0.6468 0.9929 0.0000
vt 1.0816 0.8914 0.0000
vt 1.1040 0.9597 0.0000
vt 1.0853 0.9597 0.0000
vt 1.0629 0.8914 0.0000
vt 1.0868 0.8247 0.0000
vt 1.0891 0.9035 0.0000
vt 1.0663 0.9042 0.0000
vt 1.0640 0.8254 0.0000
vt 1.2643 0.8254 0.0000
vt 1.2867 0.8937 0.0000
vt 1.2680 0.8937 0.0000
vt 1.2456 0.8254 0.0000
vt 1.2643 0.9620 0.0000
vt 1.2456 0.9620 0.0000
vt 0.9395 0.6824 0.0000
vt 0.9341 0.7611 0.0000
vt 0.9115 0.7595 0.0000
vt 0.9169 0.6809 0.0000
vt 1.1040 0.8231 0.0000
vt 1.0853 0.8231 0.0000
vt 0.8325 -0.0033 0.0000
vt 0.8649 0.0650 0.0000
vt 0.8325 0.1333 0.0000
vt 0.7676 0.1333 0.0000
vt 0.7352 0.0650 0.0000
vt 0.7676 -0.0033 0.0000
vt 0.0920 1.8037 0.0000
vt 0.2612 1.8037 0.0000
vt 0.3458 1.8957 0.0000
vt 0.2612 1.9877 0.0000
vt 0.0920 1.9877 0.0000
vt 0.0074 1.8957 0.0000
vt 0.2911 0.9384 0.0000
vt 0.2829 0.9384 0.0000
vt 0.2757 0.9019 0.0000
vt 0.2839 0.9019 0.0000
vt 0.2742 0.8334 0.0000
vt 0.2825 0.8334 0.0000
vt 1.0761 -0.1794 0.0000
vt 1.1001 -0.1794 0.0000
vt 1.1001 -0.0891 0.0000
vt 1.0761 -0.0891 0.0000
vt 0.9541 0.0801 0.0000
vt 0.9352 0.0801 0.0000
vt 0.9352 0.0502 0.0000
vt 0.9541 0.0502 0.0000
vt 0.9352 0.0199 0.0000
vt 0.9541 0.0199 0.0000
vt 0.9566 0.0166 0.0000
vt 0.9844 0.0166 0.0000
vt 0.9844 0.0826 0.0000
vt 0.9566 0.0826 0.0000
# 113 texture coords

g Plane02
usemtl Material__0
s 1
f 1/1/1 2/2/1 3/3/1 4/4/1 
s 8
f 5/5/2 6/6/3 7/7/3 8/8/2 
f 6/9/4 9/10/4 10/11/4 
f 10/11/4 7/12/4 6/9/4 
f 9/13/5 11/14/6 12/15/6 
f 12/15/6 10/16/5 9/13/5 
f 11/14/6 13/17/7 14/18/7 12/15/6 
f 13/19/8 15/20/8 16/21/8 
f 16/21/8 14/22/8 13/19/8 
f 15/23/9 5/5/2 8/8/2 
f 8/8/2 16/24/9 15/23/9 
s 1
f 13/25/10 11/26/10 9/27/10 
f 9/27/11 6/28/11 5/29/11 
f 13/25/10 9/27/10 5/29/10 
f 15/30/11 13/25/11 5/29/11 
f 7/31/12 10/32/12 12/33/12 
f 12/33/13 14/34/13 16/35/13 
f 7/31/13 12/33/13 16/35/13 
f 8/36/13 7/31/13 16/35/13 
s 2
f 17/37/14 18/38/14 19/39/14 20/40/14 
s 8
f 17/41/8 20/42/8 21/43/8 
f 21/43/8 22/44/8 17/41/8 
s 16
f 20/45/15 19/46/15 23/47/15 
f 23/47/15 21/48/15 20/45/15 
s 32
f 19/49/4 18/50/4 24/51/4 
f 24/51/4 23/52/4 19/49/4 
s 64
f 18/53/16 17/54/16 22/55/16 
f 22/55/16 24/56/16 18/53/16 
s off
f 21/48/17 23/47/17 25/57/17 
f 25/57/17 26/58/17 21/48/17 
f 24/59/18 22/60/18 27/61/18 
f 27/61/18 28/54/18 24/59/18 
s 8
f 29/62/19 30/63/20 31/64/20 32/65/19 
f 30/66/21 33/67/21 34/68/21 
f 34/68/21 31/69/21 30/66/21 
f 33/70/22 35/71/23 36/72/23 
f 36/72/23 34/73/22 33/70/22 
f 35/71/23 37/74/24 38/75/24 36/72/23 
f 37/76/8 39/77/8 40/78/8 
f 40/78/8 38/79/8 37/76/8 
f 39/80/25 29/62/19 32/65/19 
f 32/65/19 40/81/25 39/80/25 
s 1
f 37/82/26 35/83/26 33/84/26 
f 33/84/26 30/85/26 29/86/26 
f 37/82/26 33/84/26 29/86/26 
f 39/87/27 37/82/27 29/86/27 
f 31/88/28 34/89/28 36/90/28 
f 36/90/28 38/91/28 40/92/28 
f 31/88/29 36/90/29 40/92/29 
f 32/93/29 31/88/29 40/92/29 
f 41/94/30 42/95/30 43/96/31 44/97/31 
f 44/97/31 43/96/31 45/98/32 46/99/32 
f 46/100/33 45/101/33 47/102/33 
f 47/102/33 48/103/33 46/100/33 
f 49/104/34 50/105/34 51/106/35 52/107/35 
f 52/107/35 51/106/35 53/108/36 54/109/36 
f 54/110/33 53/111/33 55/112/33 
f 55/112/33 56/113/33 54/110/33 
# 10 polygons - 48 triangles

