# 3ds Max Wavefront OBJ Exporter v0.97b - (c)2007 guruware
# File Created: 26.05.2011 23:23:29

mtllib geiger.mtl

#
# object Geiger
#

v  0.0000 0.3749 23.8295
v  0.0000 13.8303 13.2682
v  -16.5296 11.0915 9.0981
v  -17.3313 0.0180 16.8059
v  0.0000 13.2875 -14.8396
v  -15.0367 10.6215 -9.9483
v  0.0000 -0.4966 -33.5370
v  -14.4498 -0.9354 -27.9984
v  0.0000 -13.6090 -18.8938
v  -16.2366 -11.2098 -14.3430
v  0.0000 -13.3391 21.0057
v  -15.4593 -11.3802 14.0474
v  -23.9155 -0.2809 -0.9071
v  17.3313 0.0180 16.8059
v  16.5296 11.0915 9.0981
v  15.0367 10.6215 -9.9483
v  14.4498 -0.9354 -27.9984
v  16.2366 -11.2098 -14.3430
v  15.4593 -11.3802 14.0474
v  23.9155 -0.2809 -0.9071
v  -14.3048 11.2719 -21.9891
v  -11.8692 11.2131 -10.8834
v  -9.7937 10.1092 -13.6847
v  -12.3752 10.2282 -22.2798
v  -14.9616 9.1767 -21.3757
v  -13.2412 8.9085 -13.4709
v  -17.5136 6.4403 -29.5038
v  -15.4079 5.7351 -29.0505
v  -17.5240 5.0795 -27.5282
v  -18.5865 -3.4217 -31.7475
v  -16.5850 -3.0044 -31.1601
v  -18.3105 -3.0760 -29.3572
v  -13.5975 -8.4693 -27.2528
v  -14.9213 -10.0728 -26.9451
v  -15.5903 -8.0701 -25.8808
v  -11.1026 -7.1965 -21.4301
v  -11.6955 -8.2982 -18.9977
v  -13.4170 -6.7415 -20.6925
v  10.5231 -4.3588 27.9223
v  4.3588 -10.5231 27.9223
v  0.0000 -12.2374 21.2629
v  12.2374 0.0000 18.9603
v  -4.3588 -10.5231 27.9223
v  -10.5231 -4.3588 27.9223
v  -12.2374 0.0000 18.9603
v  -10.5231 4.3588 27.9223
v  -4.3588 10.5231 27.9223
v  0.0000 11.7530 14.8812
v  4.3588 10.5231 27.9223
v  10.5231 4.3588 27.9223
v  2.3387 11.0173 22.4847
v  -0.0000 11.2336 20.1460
v  0.0000 14.6718 20.1460
v  2.3387 14.6718 22.4847
v  -2.3387 11.0173 22.4847
v  -2.3387 14.6718 22.4847
v  0.0000 10.6356 26.3934
v  0.0000 14.6718 24.8233
v  2.8113 17.9153 -0.3513
v  -0.0548 22.8794 -0.3513
v  -0.2138 22.9712 -34.4477
v  2.8113 17.7316 -34.4477
v  5.6773 22.8794 -0.3513
v  5.8364 22.9712 -34.4477
v  -0.3311 23.8847 6.9866
v  5.7469 23.8846 6.9866
v  5.7469 23.8846 -0.3313
v  -0.3311 23.8847 -0.3313
v  -0.3311 13.6485 6.9866
v  5.7469 12.6699 6.9866
v  5.7469 12.6699 -0.3313
v  -0.3311 13.6485 -0.3313
v  8.0248 16.0329 12.3885
v  3.8242 18.4703 12.3380
v  3.7586 18.4324 -0.9656
v  8.4419 15.8657 -0.9077
v  8.0144 20.8895 12.4390
v  8.5607 21.2049 -0.8499
# 78 vertices

vn 0.0000 0.2073 0.9783
vn 0.0000 0.8862 0.4633
vn -0.5742 0.7520 0.3236
vn -0.6897 0.1173 0.7145
vn 0.0000 0.9373 -0.3485
vn -0.5517 0.7943 -0.2544
vn 0.0000 0.0402 -0.9992
vn -0.6162 0.0165 -0.7874
vn -0.0000 -0.9183 -0.3959
vn -0.5928 -0.7537 -0.2837
vn -0.0000 -0.7300 0.6835
vn -0.5786 -0.6995 0.4194
vn -0.9999 0.0115 -0.0110
vn 0.6897 0.1173 0.7145
vn 0.5742 0.7520 0.3236
vn 0.5517 0.7943 -0.2544
vn 0.6162 0.0165 -0.7874
vn 0.5928 -0.7537 -0.2837
vn 0.5786 -0.6995 0.4194
vn 0.9999 0.0115 -0.0110
vn -0.3430 0.9239 -0.1695
vn -0.2885 0.9548 0.0718
vn 0.8529 0.4736 -0.2198
vn 0.9336 0.0655 -0.3524
vn -0.6958 -0.6094 0.3801
vn -0.8778 -0.4478 0.1703
vn -0.5258 0.5672 -0.6339
vn 0.9062 0.0114 -0.4227
vn -0.5862 -0.3234 0.7428
vn -0.6087 -0.2364 -0.7574
vn 0.8633 0.0504 -0.5022
vn -0.5690 0.0476 0.8209
vn 0.8792 0.0648 -0.4721
vn -0.1746 -0.9550 -0.2398
vn -0.7729 0.3276 0.5434
vn 0.9148 -0.0703 -0.3977
vn -0.0759 -0.9690 0.2352
vn -0.9099 0.3105 0.2749
vn 0.8633 -0.4968 -0.0884
vn 0.5097 -0.8527 -0.1141
vn 0.0060 -0.9946 -0.1034
vn 0.9889 0.0885 -0.1198
vn -0.4977 -0.8628 -0.0885
vn -0.8714 -0.4856 -0.0695
vn -0.9883 0.0864 -0.1260
vn -0.8770 0.4775 -0.0537
vn -0.4536 0.8886 -0.0678
vn 0.0030 0.9889 -0.1484
vn 0.4608 0.8840 -0.0789
vn 0.8714 0.4856 -0.0695
vn -0.0000 -0.0000 1.0000
vn 0.0000 -0.0000 1.0000
vn 0.9963 -0.0000 -0.0863
vn -0.0000 -0.0000 -1.0000
vn 0.0000 0.0000 -1.0000
vn 0.9941 0.0850 -0.0673
vn -0.9965 0.0799 -0.0236
vn -1.0000 0.0000 -0.0000
vn -0.0349 0.2796 0.9595
vn -0.0790 0.2794 0.9569
vn 0.0000 1.0000 -0.0000
vn -0.0000 -1.0000 0.0054
vn -0.8660 0.5000 0.0054
vn 0.8660 0.5000 0.0054
vn 0.0000 1.0000 0.0000
vn 0.0000 0.0000 1.0000
vn 1.0000 -0.0000 0.0000
vn 1.0000 -0.0000 -0.0000
vn 1.0000 0.0000 0.0000
vn -1.0000 -0.0000 -0.0000
vn 0.5017 -0.8644 0.0340
vn -1.0000 0.0084 0.0049
vn -0.9999 -0.0157 -0.0021
vn 0.5014 -0.8646 0.0333
vn 0.4948 0.8684 0.0335
vn 0.5150 0.8562 0.0415
vn -0.0181 -0.0104 0.9998
vn 0.0181 0.0104 -0.9998
# 78 vertex normals

vt 0.8947 0.8278 -0.1698
vt 0.7020 0.9800 -0.0492
vt 0.6232 0.7740 0.4429
vt 0.7396 0.6434 0.3777
vt 0.3253 0.9811 -0.2125
vt 0.3763 0.7917 0.2799
vt 0.0088 0.9820 -0.5000
vt 0.0545 0.7811 0.0179
vt 0.4201 0.3221 -0.0096
vt 0.6059 0.3221 0.5000
vt 0.6497 0.4724 0.4899
vt 0.4822 0.4724 0.1155
vt 0.9883 0.3221 -0.5000
vt 0.9226 0.4724 -0.2101
vt 0.4821 0.6475 0.5000
vt 0.2633 0.4858 0.0178
vt 0.9896 0.4849 -0.3681
vt 0.7358 0.4853 0.1467
vt 0.3364 0.3478 0.0000
vt 0.3364 0.3012 0.0000
vt 0.3630 0.3012 0.0000
vt 0.3630 0.3475 0.0000
vt 0.3087 0.3494 0.0000
vt 0.3090 0.3013 0.0000
vt 0.2815 0.3481 0.0000
vt 0.2815 0.3012 0.0000
vt 0.3364 0.3759 0.0000
vt 0.3630 0.3756 0.0000
vt 0.3085 0.3763 0.0000
vt 0.2815 0.3755 0.0000
vt 0.3364 0.4056 0.0000
vt 0.3630 0.4053 0.0000
vt 0.3083 0.4058 0.0000
vt 0.2815 0.4049 0.0000
vt 0.3631 0.4284 0.0000
vt 0.3364 0.4307 0.0000
vt 0.3085 0.4296 0.0000
vt 0.2814 0.4286 0.0000
vt 0.3631 0.4722 0.0000
vt 0.3364 0.4721 0.0000
vt 0.3086 0.4722 0.0000
vt 0.2815 0.4722 0.0000
vt 0.0081 0.1385 0.2719
vt 0.0081 0.0370 -0.2183
vt 0.1294 0.0088 -0.5000
vt 0.1603 0.2103 0.5000
vt 0.1311 0.5114 -1.0000
vt 0.0108 0.5114 -2.0000
vt 0.0703 0.4087 0.0000
vt 0.0081 0.0370 -0.1893
vt 0.0081 0.1385 0.3061
vt 0.0081 0.2823 0.3076
vt 0.0081 0.3842 -0.1858
vt 0.2322 0.4046 -0.4542
vt 0.0108 0.5177 -0.0000
vt 0.1311 0.5177 -0.0000
vt 0.0688 0.7292 -0.0000
vt 0.0081 0.3842 -0.2083
vt 0.0081 0.2823 0.2761
vt 0.2322 0.4046 -0.4206
vt 0.3608 0.2853 256833.6563
vt 0.2475 0.2853 -2429690.0000
vt 0.1674 0.2052 -3692935.0000
vt 0.4409 0.0919 3692935.2500
vt 0.1674 0.0919 -2792908.0000
vt 0.2475 0.0118 -256833.3438
vt 0.3608 0.0118 2429691.2500
vt 0.4409 0.2052 2792908.2500
vt 0.8908 0.9070 0.5000
vt 0.8284 0.9070 -0.2261
vt 0.8284 0.9859 -0.2261
vt 0.8906 0.9859 0.5000
vt 0.8284 0.9070 -0.2564
vt 0.8908 0.9070 0.3481
vt 0.8284 0.9859 -0.1045
vt 0.9756 0.9071 -0.5000
vt 0.9538 0.9859 -0.2869
vt 0.9538 0.9859 -0.4312
vt 0.9128 0.8382 0.2500
vt 0.9496 0.8015 0.2500
vt 0.9863 0.8382 0.2500
vt 0.9496 0.8749 0.2500
vt 0.4619 0.0158 1.0000
vt 0.5365 0.0158 1.0000
vt 0.5365 0.2796 1.0000
vt 0.4619 0.2796 1.0000
vt 0.6111 0.0158 1.0000
vt 0.6111 0.2796 1.0000
vt 0.6857 0.0158 1.0000
vt 0.6857 0.2796 1.0000
vt 0.1804 0.4946 0.2500
vt 0.2112 0.4413 0.2500
vt 0.1496 0.4413 0.2500
vt 0.9085 0.2308 0.0000
vt 0.8420 0.2308 0.0000
vt 0.8420 0.1466 0.0000
vt 0.9085 0.1466 0.0000
vt 0.7004 0.0289 0.0000
vt 0.7620 0.0176 0.0000
vt 0.7620 0.1466 0.0000
vt 0.7004 0.1466 0.0000
vt 0.8420 0.0176 0.0000
vt 0.9085 0.0289 0.0000
vt 0.9885 0.0289 0.0000
vt 0.9885 0.1466 0.0000
vt 0.8169 0.1746 1.0000
vt 0.7845 0.1746 1.0000
vt 0.7845 0.2759 1.0000
vt 0.8169 0.2759 1.0000
vt 0.7529 0.1746 1.0000
vt 0.7529 0.2759 1.0000
vt 0.7205 0.1746 1.0000
vt 0.7205 0.2759 1.0000
vt 0.9673 0.2167 0.0000
vt 0.9386 0.1992 0.0000
vt 0.9674 0.1816 0.0000
vt 0.9377 0.2169 0.0000
vt 0.9695 0.2344 0.0000
vt 0.9377 0.2547 0.0000
# 119 texture coords

g Geiger
usemtl geiger
s 1
f 1/1/1 2/2/2 3/3/3 4/4/4 
f 5/5/5 6/6/6 3/3/3 2/2/2 
f 5/5/5 7/7/7 8/8/8 6/6/6 
f 7/9/7 9/10/9 10/11/10 8/12/8 
f 9/10/9 11/13/11 12/14/12 10/11/10 
f 13/15/13 8/8/8 10/16/10 
f 11/17/11 1/1/1 4/4/4 12/18/12 
f 6/6/6 8/8/8 13/15/13 
f 10/16/10 12/18/12 13/15/13 
f 13/15/13 3/3/3 6/6/6 
f 12/18/12 4/4/4 13/15/13 
f 13/15/13 4/4/4 3/3/3 
f 1/1/1 14/4/14 15/3/15 2/2/2 
f 5/5/5 2/2/2 15/3/15 16/6/16 
f 5/5/5 16/6/16 17/8/17 7/7/7 
f 7/9/7 17/12/17 18/11/18 9/10/9 
f 9/10/9 18/11/18 19/14/19 11/13/11 
f 20/15/20 18/16/18 17/8/17 
f 11/17/11 19/18/19 14/4/14 1/1/1 
f 16/6/16 20/15/20 17/8/17 
f 18/16/18 20/15/20 19/18/19 
f 20/15/20 16/6/16 15/3/15 
f 19/18/19 20/15/20 14/4/14 
f 20/15/20 15/3/15 14/4/14 
f 21/19/21 22/20/22 23/21/23 24/22/24 
f 25/23/25 26/24/26 22/20/22 21/19/21 
f 24/25/24 23/26/23 26/24/26 25/23/25 
f 27/27/27 21/19/21 24/22/24 28/28/28 
f 29/29/29 25/23/25 21/19/21 27/27/27 
f 28/30/28 24/25/24 25/23/25 29/29/29 
f 30/31/30 27/27/27 28/28/28 31/32/31 
f 32/33/32 29/29/29 27/27/27 30/31/30 
f 31/34/31 28/30/28 29/29/29 32/33/32 
f 31/32/31 33/35/33 34/36/34 30/31/30 
f 30/31/30 34/36/34 35/37/35 32/33/32 
f 32/33/32 35/37/35 33/38/33 31/34/31 
f 33/35/33 36/39/36 37/40/37 34/36/34 
f 34/36/34 37/40/37 38/41/38 35/37/35 
f 35/37/35 38/41/38 36/42/36 33/38/33 
s 8
f 39/43/39 40/44/40 41/45/41 42/46/42 
f 40/47/40 43/48/43 41/49/41 
f 43/50/43 44/51/44 45/46/45 41/45/41 
f 44/51/44 46/52/46 45/46/45 
f 46/52/46 47/53/47 48/54/48 45/46/45 
f 47/55/47 49/56/49 48/57/48 
f 49/58/49 50/59/50 42/46/42 48/60/48 
f 50/59/50 39/43/39 42/46/42 
s 1
f 49/61/51 47/62/51 46/63/51 39/64/51 
f 46/63/51 44/65/51 43/66/51 39/64/51 
f 43/66/51 40/67/52 39/64/51 
f 50/68/51 49/61/51 39/64/51 
s 8
f 51/69/53 52/70/54 53/71/55 54/72/56 
f 52/73/54 55/74/57 56/72/58 53/75/55 
f 55/74/57 57/76/59 58/77/60 56/72/58 
f 57/76/59 51/69/53 54/72/56 58/78/60 
s 1
f 53/79/61 56/80/61 58/81/61 54/82/61 
s 8
f 59/83/62 60/84/63 61/85/63 62/86/62 
f 60/84/63 63/87/64 64/88/64 61/85/63 
f 63/87/64 59/89/62 62/90/62 64/88/64 
s 1
f 62/91/55 61/92/55 64/93/55 
s 4
f 65/94/65 66/95/65 67/96/65 68/97/65 
s 8
f 69/98/52 70/99/66 66/100/52 65/101/52 
s 16
f 70/99/67 71/102/68 67/96/69 66/100/69 
s 32
f 71/102/55 72/103/55 68/97/55 67/96/55 
s 64
f 72/103/70 69/104/70 65/105/70 68/97/70 
s 8
f 73/106/71 74/107/72 75/108/73 76/109/74 
f 74/107/72 77/110/75 78/111/76 75/108/73 
f 77/110/75 73/112/71 76/113/74 78/111/76 
s 1
f 77/114/77 74/115/77 73/116/77 
f 76/117/78 75/118/78 78/119/78 
# 49 polygons - 21 triangles

