# Exported from Wings 3D 1.4
mtllib Cat_paw.mtl
o cube1
#8 vertices, 6 faces
v -1.00000000 -2.7530329e-2 0.81328000
v -1.00000000 4.2371717e-2 0.81328000
v 1.00000000 4.2371717e-2 0.81328000
v 1.00000000 -2.7530329e-2 0.81328000
v -1.00000000 -2.7530329e-2 -0.81328000
v -1.00000000 4.2371717e-2 -0.81328000
v 1.00000000 4.2371717e-2 -0.81328000
v 1.00000000 -2.7530329e-2 -0.81328000
vt 0.11222714 0.39115917
vt 0.16938782 5.6852827e-2
vt 0.38966448 0.42703889
vt 0.40143658 0.62722496
vt 0.40143658 0.62722496
vt 0.40666730 0.61871182
vt 0.43439706 0.62741431
vt 0.43439706 0.62741431
vt 0.43962777 0.61890117
vt 0.44438296 9.6151630e-2
vt 0.45223321 0.54455193
vt 0.45223321 0.54455193
vt 0.45746393 0.53603878
vt 0.45746393 0.53603878
vt 0.48519369 0.54474127
vt 0.49042440 0.53622813
vt 0.49042440 0.53622813
vt 0.56443558 0.40671319
vt 0.62569942 7.1386091e-2
vt 0.85572865 0.44200301
vt 0.91266049 0.10950372
vn -0.57735027 -0.57735027 0.57735027
vn -0.57735027 0.57735027 0.57735027
vn 0.57735027 0.57735027 0.57735027
vn 0.57735027 -0.57735027 0.57735027
vn -0.57735027 -0.57735027 -0.57735027
vn -0.57735027 0.57735027 -0.57735027
vn 0.57735027 0.57735027 -0.57735027
vn 0.57735027 -0.57735027 -0.57735027
g cube1_cube1_auv
usemtl cube1_auv
s 1
f 1/4/1 4/14/4 3/17/3 2/7/2
f 1/3/1 5/1/5 8/2/8 4/10/4
f 2/15/2 6/9/6 5/6/5 1/11/1
f 3/19/3 7/21/7 6/20/6 2/18/2
f 4/6/4 8/12/8 7/15/7 3/9/3
f 6/16/6 7/8/7 8/5/8 5/13/5
