# 3ds Max Wavefront OBJ Exporter v0.97b - (c)2007 guruware
# File Created: 26.05.2011 23:38:23

mtllib psycho.mtl

#
# object Cylinder01
#

v  -47.6657 -4.9676 -4.0642
v  -43.6723 -3.1900 -3.7601
v  -46.3002 -1.2787 19.5797
v  -50.2936 -3.0563 19.2756
v  -42.5397 1.0371 -3.9787
v  -45.1676 2.9484 19.3610
v  -45.1207 4.5307 -4.5554
v  -47.7486 6.4420 18.7844
v  -49.4718 4.6600 -5.0559
v  -52.0997 6.5713 18.2839
v  -52.3165 1.3276 -5.1033
v  -54.9444 3.2389 18.2364
v  -51.5127 -2.9570 -4.6620
v  -54.1406 -1.0458 18.6778
v  -64.6618 -4.1167 -6.3120
v  -60.9553 -2.4668 -6.0298
v  -63.0008 -0.9792 12.1371
v  -66.7073 -2.6290 11.8549
v  -59.9040 1.4566 -6.2327
v  -61.9495 2.9443 11.9342
v  -62.2996 4.6992 -6.7680
v  -64.3451 6.1869 11.3989
v  -66.3381 4.8192 -7.2325
v  -68.3836 6.3069 10.9344
v  -68.9785 1.7263 -7.2765
v  -71.0240 3.2140 10.8904
v  -68.2325 -2.2506 -6.8669
v  -70.2779 -0.7629 11.3001
v  -65.2728 0.8853 17.4145
v  -64.7117 2.9795 17.3062
v  -65.9904 4.7103 17.0205
v  -69.1571 1.0008 16.9677
v  -68.1459 4.7743 16.7725
v  -69.5553 3.1234 16.7490
v  -67.2512 0.0047 17.2638
v  -60.4656 1.8036 -2.9036
v  -60.9591 2.1592 1.4357
v  -53.2035 1.9306 2.3521
v  -52.7100 1.5751 -1.9872
v  -61.3141 2.4208 4.6326
v  -62.0888 2.9808 11.4686
v  -54.3332 2.7522 12.3850
v  -53.5585 2.1922 5.5490
v  -63.3466 0.5046 -6.1066
v  -62.3360 -0.3760 -15.9627
v  -63.4209 1.5056 -16.2417
v  -64.4315 2.3862 -6.3855
v  -66.1771 7.3701 -20.1432
v  -66.5667 7.7055 -16.2973
v  -58.7874 -5.5669 -14.1126
v  -58.3512 -5.9424 -18.4190
v  -65.4031 0.5612 -6.3223
v  -64.2777 -0.4183 -17.3118
v  -68.9406 6.0376 -18.3496
v  -61.4456 -7.4345 -16.4106
v  -68.4436 3.7130 31.3267
v  -65.3129 2.2637 16.2731
v  -67.8302 4.0936 15.8327
v  -68.9548 4.0845 31.2337
v  -68.0358 1.1287 15.9024
v  -69.0002 3.4847 31.2802
v  -49.6601 1.8763 18.3379
v  -51.1780 1.9230 18.1842
v  -53.5473 2.5324 24.8622
v  -52.7674 2.6049 26.1860
v  -56.0838 2.7249 26.0815
v  -56.2057 2.8676 27.8605
v  -62.3555 2.3263 17.8152
v  -63.4226 2.4805 19.2720
v  -70.1339 2.5544 16.8817
v  -70.2957 2.6826 18.4541
v  -48.6247 2.0496 -4.4121
v  -46.4320 1.9829 -4.1808
v  -46.9575 2.3395 -12.4375
v  -48.6564 2.4609 -11.7181
v  -53.0856 5.4799 -16.3860
v  -52.7690 5.6021 -14.6528
v  -60.2463 7.8476 -9.0404
v  -59.6593 7.8994 -7.7660
v  -71.0303 5.6032 -0.8637
v  -70.5302 4.7124 0.5241
v  -74.0836 4.7803 15.9859
v  -74.5167 5.7190 16.8891
v  -70.3907 4.6668 18.3438
v  -70.2269 4.5408 16.8007
v  -69.7285 2.1777 13.2204
v  -69.9888 6.8032 16.6778
v  -70.6067 3.3809 21.2523
v  -70.3465 -1.2446 17.7949
# 89 vertices

vn -0.0385 -0.9963 0.0772
vn 0.7524 -0.6442 0.1375
vn 0.9767 0.1929 0.0942
vn 0.4655 0.8848 -0.0200
vn -0.3962 0.9104 -0.1192
vn -0.9596 0.2505 -0.1286
vn -0.8004 -0.5981 -0.0411
vn 0.1115 -0.0811 -0.9904
vn -0.1115 0.0811 0.9904
vn 0.3372 -0.8326 0.4393
vn 0.8690 -0.2097 0.4482
vn 0.7187 0.5914 0.3657
vn -0.0005 0.9672 0.2539
vn -0.7470 0.6349 0.1971
vn -0.9588 -0.1553 0.2380
vn -0.4763 -0.8085 0.3458
vn 0.0385 0.9963 -0.0772
vn 0.8627 0.5038 0.0434
vn 0.8418 0.5111 0.1735
vn 0.8904 0.4523 0.0507
vn 0.8327 0.5375 0.1327
vn -0.1015 0.0884 0.9909
vn -0.0368 -0.9957 0.0851
vn -0.8767 0.4628 -0.1311
vn -0.3586 -0.3949 -0.8458
vn -0.4957 0.8595 -0.1252
vn -0.5165 -0.2479 0.8196
vn -0.5842 -0.1246 0.8020
vn 0.4957 -0.8595 0.1252
vn -0.4813 -0.3558 -0.8011
vn 0.5824 0.8118 0.0430
vn 0.5825 0.8117 0.0430
vn 0.5823 0.8118 0.0430
vn 0.3609 -0.9182 0.1634
vn -0.9951 0.0677 -0.0727
vn 0.0542 0.9974 0.0473
vn 0.4368 0.8855 0.1582
vn 0.2037 0.9720 -0.1174
vn -0.0081 0.9528 0.3036
vn 0.8564 0.4843 0.1788
vn 0.2429 0.9098 -0.3366
vn 0.9932 -0.0285 0.1129
# 42 vertex normals

vt 0.9920 0.5225 0.0000
vt 0.9920 0.6093 0.0000
vt 0.5386 0.6093 0.0000
vt 0.5386 0.5225 0.0000
vt 0.9920 0.6102 0.0000
vt 0.9920 0.6947 0.0000
vt 0.5385 0.6947 0.0000
vt 0.5385 0.6102 0.0000
vt 0.9920 0.7626 0.0000
vt 0.5385 0.7626 0.0000
vt 0.9922 0.7625 0.0000
vt 0.9922 0.8493 0.0000
vt 0.5388 0.8493 0.0000
vt 0.5388 0.7625 0.0000
vt 0.9921 0.8496 0.0000
vt 0.9926 0.9174 0.0000
vt 0.5386 0.9174 0.0000
vt 0.5386 0.8496 0.0000
vt 0.9926 0.9897 0.0000
vt 0.5386 0.9897 0.0000
vt 0.9916 0.4382 0.0000
vt 0.9916 0.5216 0.0000
vt 0.5381 0.5216 0.0000
vt 0.5381 0.4382 0.0000
vt 0.8594 0.3509 0.0000
vt 0.8020 0.4235 0.0000
vt 0.7100 0.4235 0.0000
vt 0.7560 0.2202 0.0000
vt 0.6526 0.3509 0.0000
vt 0.6731 0.2605 0.0000
vt 0.8389 0.2605 0.0000
vt 0.8387 0.2600 0.0000
vt 0.8592 0.3505 0.0000
vt 0.8018 0.4230 0.0000
vt 0.6728 0.2600 0.0000
vt 0.7097 0.4230 0.0000
vt 0.6524 0.3505 0.0000
vt 0.7558 0.2197 0.0000
vt 0.0106 0.6735 0.0000
vt 0.0101 0.5947 0.0000
vt 0.4016 0.5941 0.0000
vt 0.4015 0.6735 0.0000
vt 0.0105 0.5937 0.0000
vt 0.0105 0.5079 0.0000
vt 0.4019 0.5073 0.0000
vt 0.4019 0.5932 0.0000
vt 0.0105 0.4396 0.0000
vt 0.4019 0.4390 0.0000
vt 0.0124 0.9855 0.0000
vt 0.0124 0.9094 0.0000
vt 0.4001 0.9094 0.0000
vt 0.4001 0.9855 0.0000
vt 0.0098 0.9078 0.0000
vt 0.0098 0.8390 0.0000
vt 0.4007 0.8390 0.0000
vt 0.4007 0.9078 0.0000
vt 0.0098 0.7531 0.0000
vt 0.4007 0.7531 0.0000
vt 0.0106 0.7528 0.0000
vt 0.4015 0.7528 0.0000
vt 0.9986 0.1993 0.0000
vt 0.9451 0.2667 0.0000
vt 0.8593 0.2667 0.0000
vt 0.9022 0.0777 0.0000
vt 0.8058 0.1993 0.0000
vt 0.8249 0.1151 0.0000
vt 0.9795 0.1151 0.0000
vt 0.3482 0.2118 0.0000
vt 0.2956 0.2237 0.0000
vt 0.2534 0.1904 0.0000
vt 0.3482 0.1157 0.0000
vt 0.2534 0.1371 0.0000
vt 0.2956 0.1038 0.0000
vt 0.3716 0.1638 0.0000
vt 0.5265 0.6313 0.0000
vt 0.5265 0.6737 0.0000
vt 0.5268 0.5179 0.0000
vt 0.5268 0.5638 0.0000
vt 0.5268 0.4811 0.0000
vt 0.5222 0.9304 0.0000
vt 0.5222 0.9775 0.0000
vt 0.5228 0.8289 0.0000
vt 0.5228 0.8657 0.0000
vt 0.5228 0.7830 0.0000
vt 0.5265 0.7161 0.0000
vt 0.0120 0.4286 0.0000
vt 0.0119 0.2997 0.0000
vt 0.2418 0.2990 0.0000
vt 0.2420 0.4279 0.0000
vt 0.0111 0.3000 0.0000
vt 0.0109 0.0822 0.0000
vt 0.2401 0.0814 0.0000
vt 0.2402 0.2992 0.0000
vt 0.4696 0.1193 0.0000
vt 0.4702 0.3442 0.0000
vt 0.4206 0.3443 0.0000
vt 0.4201 0.1194 0.0000
vt 0.4702 0.3959 0.0000
vt 0.2647 0.3263 0.0000
vt 0.4206 0.3960 0.0000
vt 0.6161 0.3209 0.0000
vt 0.6161 0.4192 0.0000
vt 0.6501 0.2781 0.0000
vt 0.6206 0.2780 0.0000
vt 0.6336 0.2515 0.0000
vt 0.4204 0.3423 0.0000
vt 0.3769 0.3192 0.0000
vt 0.3773 0.1184 0.0000
vt 0.4209 0.1185 0.0000
vt 0.5177 0.3175 0.0000
vt 0.4696 0.3404 0.0000
vt 0.4699 0.1182 0.0000
vt 0.5180 0.1182 0.0000
vt 0.4455 0.3442 0.0000
vt 0.6172 0.3213 0.0000
vt 0.6162 0.4192 0.0000
vt 0.6226 0.2448 0.0000
vt 0.5787 0.3121 0.0000
vt 0.5349 0.2448 0.0000
vt 0.4208 0.3443 0.0000
vt 0.4197 0.3960 0.0000
vt 0.2639 0.4143 0.0000
vt 0.2647 0.3265 0.0000
vt 0.6162 0.4194 0.0000
vt 0.4700 0.3963 0.0000
vt 0.4701 0.3441 0.0000
vt 0.6166 0.3208 0.0000
vt 0.3542 0.2527 0.0000
vt 0.3051 0.3151 0.0000
vt 0.2559 0.2527 0.0000
vt 0.4202 0.3949 0.0000
vt 0.2643 0.4144 0.0000
vt 0.2642 0.3266 0.0000
vt 0.5273 0.1263 0.0000
vt 0.8032 0.1276 0.0000
vt 0.7984 0.1843 0.0000
vt 0.5264 0.1379 0.0000
vt 0.8025 0.0766 0.0000
vt 0.8034 0.1258 0.0000
vt 0.5276 0.1212 0.0000
vt 0.5269 0.1113 0.0000
vt 0.8029 0.1043 0.0000
vt 0.8035 0.1581 0.0000
vt 0.5271 0.1267 0.0000
vt 0.5275 0.1158 0.0000
vt 0.6350 0.0065 0.0000
vt 0.6368 0.0685 0.0000
vt 0.5347 0.0675 0.0000
vt 0.5333 0.0072 0.0000
vt 0.4291 0.0682 0.0000
vt 0.4254 0.0067 0.0000
vt 0.1135 0.0668 0.0000
vt 0.1126 0.0051 0.0000
vt 0.2114 0.0062 0.0000
vt 0.2133 0.0672 0.0000
vt 0.0026 0.0668 0.0000
vt 0.0033 0.0043 0.0000
vt 0.9250 0.0046 0.0000
vt 0.9273 0.0670 0.0000
vt 0.8526 0.0670 0.0000
vt 0.8521 0.0041 0.0000
vt 0.7806 0.0023 0.0000
vt 0.7804 0.0672 0.0000
vt 0.7099 0.0683 0.0000
vt 0.7087 0.0022 0.0000
vt 0.5701 0.0025 0.0000
vt 0.5709 0.0682 0.0000
vt 0.4978 0.0681 0.0000
vt 0.4989 0.0020 0.0000
vt 0.4291 0.0035 0.0000
vt 0.4286 0.0495 0.0000
vt 0.3557 0.0661 0.0000
vt 0.3552 0.0017 0.0000
vt 0.0716 0.0039 0.0000
vt 0.1399 0.0022 0.0000
vt 0.1418 0.0664 0.0000
vt 0.0675 0.0683 0.0000
vt 0.0024 0.0660 0.0000
vt 0.0011 0.0011 0.0000
vt 0.8963 0.3173 0.0000
vt 0.9788 0.3201 0.0000
vt 0.9763 0.4021 0.0000
vt 0.8938 0.3993 0.0000
# 183 texture coords

g Cylinder01
usemtl wire_108008136
s 8
f 1/1/1 2/2/2 3/3/2 4/4/1 
f 2/5/2 5/6/3 6/7/3 3/8/2 
f 5/6/3 7/9/4 8/10/4 6/7/3 
f 7/11/4 9/12/5 10/13/5 8/14/4 
f 9/15/5 11/16/6 12/17/6 10/18/5 
f 11/16/6 13/19/7 14/20/7 12/17/6 
f 13/21/7 1/22/1 4/23/1 14/24/7 
s 1
f 11/25/8 9/26/8 7/27/8 1/28/8 
f 7/27/8 5/29/8 2/30/8 1/28/8 
f 13/31/8 11/25/8 1/28/8 
f 3/32/9 6/33/9 8/34/9 14/35/9 
f 8/34/9 10/36/9 12/37/9 14/35/9 
f 4/38/9 3/32/9 14/35/9 
s 8
f 15/39/1 16/40/2 17/41/2 18/42/1 
f 16/43/2 19/44/3 20/45/3 17/46/2 
f 19/44/3 21/47/4 22/48/4 20/45/3 
f 21/49/4 23/50/5 24/51/5 22/52/4 
f 23/53/5 25/54/6 26/55/6 24/56/5 
f 25/54/6 27/57/7 28/58/7 26/55/6 
f 27/59/7 15/39/1 18/42/1 28/60/7 
s 1
f 25/61/8 23/62/8 21/63/8 15/64/8 
f 21/63/8 19/65/8 16/66/8 15/64/8 
f 27/67/8 25/61/8 15/64/8 
f 29/68/9 30/69/9 31/70/9 32/71/9 
f 31/70/9 33/72/9 34/73/9 32/71/9 
f 35/74/9 29/68/9 32/71/9 
s off
f 18/42/10 17/41/10 29/75/10 35/76/10 
f 17/46/11 20/45/11 30/77/11 29/78/11 
f 20/45/12 22/48/12 31/79/12 30/77/12 
f 22/52/13 24/51/13 33/80/13 31/81/13 
f 24/56/14 26/55/14 34/82/14 33/83/14 
f 26/55/15 28/58/15 32/84/15 34/82/15 
f 28/60/16 18/42/16 35/76/16 32/85/16 
s 8
f 36/86/17 37/87/17 38/88/17 39/89/17 
f 40/90/17 41/91/17 42/92/17 43/93/17 
f 44/94/18 45/95/18 46/96/18 47/97/18 
s off
f 46/96/19 45/95/19 48/98/19 
f 49/99/20 46/96/20 48/100/20 
f 45/95/21 50/101/21 51/102/21 48/98/21 
f 47/103/22 52/104/22 44/105/22 
f 53/106/23 45/107/23 44/108/23 52/109/23 
f 46/110/24 53/111/24 52/112/24 47/113/24 
f 53/114/25 54/115/25 48/116/25 
f 48/117/26 54/118/26 49/119/26 
f 53/120/27 46/121/27 49/122/27 54/123/27 
f 50/124/28 45/125/28 53/126/28 55/127/28 
f 50/128/29 55/129/29 51/130/29 
f 53/114/30 48/131/30 51/132/30 55/133/30 
s 8
f 56/134/31 57/135/32 58/136/32 59/137/33 
s off
f 60/138/34 57/139/34 56/140/34 61/141/34 
f 58/142/35 60/143/35 61/144/35 59/145/35 
f 62/146/17 63/147/17 64/148/17 65/149/17 
f 65/149/17 64/148/17 66/150/17 67/151/17 
f 68/152/17 69/153/17 67/154/17 66/155/17 
f 69/153/17 68/152/17 70/156/17 71/157/17 
f 72/158/36 73/159/36 74/160/36 75/161/36 
f 75/162/37 74/163/37 76/164/37 77/165/37 
f 77/166/38 76/167/38 78/168/38 79/169/38 
f 79/170/39 78/171/39 80/172/39 81/173/39 
f 82/174/40 81/175/40 80/176/40 83/177/40 
f 82/174/41 83/177/41 84/178/41 85/179/41 
s 8
f 86/180/42 87/181/42 88/182/42 89/183/42 
# 52 polygons - 10 triangles

