# Exported from Wings 3D 1.4
mtllib Gamma_gulp.mtl
o cylinder1
#24 vertices, 20 faces
v 1.00000000 2.14444160 0.0000000e+0
v 0.50000000 2.14444160 0.59928958
v -0.50000000 2.14444160 0.59928958
v -1.00000000 2.14444160 8.4745559e-17
v -0.50000000 2.14444160 -0.59928958
v 0.50000000 2.14444160 -0.59928958
v 1.00000000 -0.69200000 0.0000000e+0
v 0.50000000 -0.69200000 0.59928958
v -0.50000000 -0.69200000 0.59928958
v -1.00000000 -0.69200000 8.4745559e-17
v -0.50000000 -0.69200000 -0.59928958
v 0.50000000 -0.69200000 -0.59928958
v 0.20950552 2.76126496 0.34033893
v 0.43737209 2.75704443 1.0927484e-17
v 0.20950552 2.76126496 -0.34033893
v -0.22718435 2.76059424 -0.34128717
v -0.44535296 2.75665450 3.5330273e-17
v -0.22718435 2.76059424 0.34128717
v 0.20950552 4.51112531 0.34033893
v 0.43737209 4.50690478 1.0927484e-17
v 0.20950552 4.51112531 -0.34033893
v -0.22718435 4.51045459 -0.34128717
v -0.44535296 4.50651485 3.5330273e-17
v -0.22718435 4.51045459 0.34128717
vt 1.4622215e-2 0.41950275
vt 1.9704056e-2 0.91332748
vt 2.4708343e-2 0.43261898
vt 3.5386433e-2 0.44775676
vt 4.7098486e-2 0.46518328
vt 4.8463837e-2 0.80847572
vt 0.14102066 0.99897037
vt 0.14134362 0.29665818
vt 0.14664515 0.78411413
vt 0.14820974 0.23582956
vt 0.15495238 0.68446279
vt 0.15612453 0.30787306
vt 0.15894971 0.70205785
vt 0.16909425 0.25245926
vt 0.17110759 0.71626564
vt 0.17549202 0.32431009
vt 0.18147556 0.73223250
vt 0.18359319 0.34315015
vt 0.22471499 0.29721801
vt 0.23239305 0.95841458
vt 0.24330239 0.88355890
vt 0.25222611 0.33494327
vt 0.27703929 0.56033835
vt 0.30177253 0.57793571
vt 0.31366644 0.89192331
vt 0.31498805 0.59533840
vt 0.32646768 0.60834854
vt 0.33456490 0.45719273
vt 0.33764826 3.6686012e-2
vt 0.36128575 0.49927802
vt 0.36961389 0.97944584
vt 0.36962902 0.80441045
vt 0.38748609 7.2719243e-2
vt 0.39721919 0.53738545
vt 0.41644334 0.57739715
vt 0.43113212 0.11772926
vt 0.45946121 0.15061872
vt 0.47839532 0.30916000
vt 0.48159626 0.97921236
vt 0.48161134 0.80466328
vt 0.52444345 0.33440449
vt 0.54004660 0.89194287
vt 0.57348115 0.38798663
vt 0.58827535 0.41433677
vn 0.93028107 0.36684757 -2.9025052e-16
vn 0.40532366 0.26986472 0.87343332
vn -0.40737003 0.26747520 0.87321628
vn -0.93283739 0.36029766 3.2561534e-16
vn -0.40737003 0.26747520 -0.87321628
vn 0.40532366 0.26986472 -0.87343332
vn 0.83799515 -0.54567768 -2.4232957e-16
vn 0.37109860 -0.48329689 0.79291232
vn -0.37109860 -0.48329689 0.79291232
vn -0.83799515 -0.54567768 3.0291196e-16
vn -0.37109860 -0.48329689 -0.79291232
vn 0.37109860 -0.48329689 -0.79291232
vn 0.42951178 0.27343336 0.86067057
vn 0.93552707 0.35325500 -3.1443306e-16
vn 0.42951178 0.27343336 -0.86067057
vn -0.43518162 0.27194938 -0.85828928
vn -0.93875149 0.34459489 3.4602681e-16
vn -0.43518162 0.27194938 0.85828928
vn 0.41030163 0.49296711 0.76722617
vn 0.85673068 0.51576404 -2.8630665e-16
vn 0.41030163 0.49296711 -0.76722617
vn -0.41671490 0.49538226 -0.76219755
vn -0.86008299 0.51015415 3.3983104e-16
vn -0.41671490 0.49538226 0.76219755
g cylinder1_cylinder1_auv
usemtl cylinder1_auv
s 1
f 1/28/1 7/38/7 12/41/12 6/30/6
f 1/22/1 14/18/14 13/16/13 2/19/2
f 2/19/2 8/36/8 7/37/7 1/22/1
f 2/19/2 13/16/13 18/12/18 3/14/3
f 3/14/3 9/33/9 8/36/8 2/19/2
f 3/14/3 18/12/18 17/8/17 4/10/4
f 4/10/4 10/29/10 9/33/9 3/14/3
f 4/35/4 17/27/17 16/26/16 5/34/5
f 5/34/5 11/43/11 10/44/10 4/35/4
f 5/34/5 16/26/16 15/24/15 6/30/6
f 6/30/6 12/41/12 11/43/11 5/34/5
f 6/30/6 15/24/15 14/23/14 1/28/1
f 8/9/8 9/21/9 10/20/10 11/7/11 12/2/12 7/6/7
f 13/16/13 19/4/19 24/3/24 18/12/18
f 14/18/14 20/5/20 19/4/19 13/16/13
f 15/24/15 21/13/21 20/11/20 14/23/14
f 16/26/16 22/15/22 21/13/21 15/24/15
f 17/27/17 23/17/23 22/15/22 16/26/16
f 18/12/18 24/3/24 23/1/23 17/8/17
f 20/42/20 21/39/21 22/31/22 23/25/23 24/32/24 19/40/19
