# Exported from Wings 3D 1.2
mtllib combatjacket5_boots.mtl
o clboot_right
#40 vertices, 49 faces
v -9.18322555 21.00572018 4.41839427
v -14.25719761 22.07686159 5.13550373
v -16.57823327 22.24606957 1.43789118
v -12.10248374 12.21387934 1.90540636
v -15.85505915 12.45997429 1.92841875
v -17.22062575 13.67659215 -0.60382817
v -14.46634451 23.52554596 -4.37443790
v -16.06523066 13.28389972 -4.15162064
v -15.05711332 4.20631768 3.16258454
v -18.45941663 3.71118886 2.85224933
v -17.54709202 6.69318383 0.29737256
v -13.82316941 6.92602060 0.88074685
v -19.10280884 4.01892856 -3.06231435
v -19.23151990 5.48365598 -2.49925516
v -17.03830459 7.05335383 -4.79471090
v -16.45691958 2.11397416 8.81169212
v -21.06897627 1.23744890 6.35248660
v -19.63005026 1.99305214 -3.33785702
v -16.55191029 -0.42660185 8.72928891
v -20.95319743 -0.53710270 6.40721280
v -19.07237047 -0.38949589 -3.17913319
v -16.57799895 -0.44664136 -7.01731909
v -16.77509972 3.58848550 -7.08501815
v -12.72199749 6.58249928 -2.68791275
v -10.89296144 11.60272909 -1.58283700
v -13.71494067 7.01944461 -5.59069207
v -12.49771304 13.75237678 -5.54964825
v -9.82574813 23.34579192 -5.90703583
v -7.15576261 20.18190295 0.29437204
v -13.12911788 2.13944960 2.86350355
v -12.86962338 3.30745843 -0.61926921
v -13.60487985 -0.22963855 -0.11432767
v -13.26061645 -0.36909863 3.95588930
v -14.29878930 1.36089518 8.12154512
v -13.55846317 -0.45006596 8.09158883
v -12.26820153 3.43995601 -3.17143768
v -13.40156298 3.66992654 -6.55096403
v -13.53103118 -0.57052860 -6.50012757
v -12.29138248 -0.50420963 -3.21733128
v -18.16746246 6.75002345 -2.07201649
vt 3.2012160e-2 0.76296912
vt 3.8112160e-2 0.70946912
vt 3.8812160e-2 0.80026912
vt 4.2412160e-2 0.72236912
vt 4.6112160e-2 0.78406912
vt 5.1512160e-2 0.76646912
vt 5.2400640e-2 0.95144480
vt 5.3612640e-2 0.64846432
vt 5.7200640e-2 0.87144480
vt 5.8012640e-2 0.69306432
vt 6.0012640e-2 0.63336432
vt 6.2300640e-2 0.81564480
vt 7.8200640e-2 0.96324480
vt 8.2700640e-2 0.87754480
vt 8.6500640e-2 0.81554480
vt 9.9712160e-2 0.76116912
vt 0.10041216 0.79956912
vt 0.10291216 0.78306912
vt 0.10341216 0.73696912
vt 0.11070064 0.95984480
vt 0.11500064 0.88494480
vt 0.11561264 0.64256432
vt 0.11690064 0.81914480
vt 0.12771216 0.74346912
vt 0.12771216 0.76436912
vt 0.13561216 0.79896912
vt 0.13660064 0.82354480
vt 0.13841216 0.78266912
vt 0.14080064 0.87604480
vt 0.14141216 0.73866912
vt 0.14341264 0.64516432
vt 0.14371216 0.73006912
vt 0.14410064 0.92614480
vt 0.14781216 0.72266912
vt 0.14921216 0.71706912
vt 0.15101216 0.76996912
vt 0.15241216 0.70726912
vt 0.16281216 0.74586912
vt 0.16420064 0.81134480
vt 0.16580064 0.87074480
vt 0.16750064 0.92754480
vt 0.16831216 0.76156912
vt 0.17051216 0.78096912
vt 0.17221264 0.68686432
vt 0.17441216 0.74296912
vt 0.17601264 0.63146432
vt 0.17771216 0.76446912
vt 0.18520064 0.81824480
vt 0.18621216 0.79896912
vt 0.18810064 0.87554480
vt 0.19100064 0.82634480
vt 0.19341216 0.73946912
vt 0.19460064 0.93454480
vt 0.19481216 0.76216912
vt 0.19851264 0.65106432
vt 0.19860064 0.87834480
vt 0.20221264 0.67136432
vt 0.21300064 0.93204480
vn 0.55774965 0.12881117 0.81995305
vn -0.33506337 0.33536000 0.88049203
vn -0.81662022 0.54677920 0.18483483
vn 0.49644850 -0.37206748 0.78428609
vn -0.41808599 -0.15066681 0.89582566
vn -0.98509455 0.10453508 0.13660581
vn -0.55937172 0.60351349 -0.56822068
vn -0.75673773 0.14679658 -0.63702336
vn 0.30414378 0.78286823 0.54278347
vn -0.62564660 0.68963658 0.36464739
vn -0.76311835 0.29322862 0.57590569
vn 0.54072823 6.9597478e-2 0.83831329
vn -0.90579883 0.34652717 -0.24381839
vn -0.87903189 0.46422602 -0.10861467
vn -0.68289674 0.35461288 -0.63867186
vn 3.4107672e-2 0.54667007 0.83665316
vn -0.83544373 0.42936151 0.34304879
vn -0.92618722 0.15310194 -0.34458240
vn -9.9902827e-2 -0.46223635 0.88111122
vn -0.52661058 -0.80463975 0.27429212
vn -0.37396300 -0.91315766 -0.16215659
vn -0.32920533 -0.54712703 -0.76959461
vn -0.35501217 0.22677031 -0.90694079
vn 0.98824509 -4.8306439e-2 -0.14504525
vn 0.93123334 -0.33247920 -0.14920471
vn 0.39754018 0.24391056 -0.88457303
vn 0.52620788 -0.12793834 -0.84067654
vn 0.65100239 0.20990645 -0.72947596
vn 0.98634881 0.15512059 5.5259609e-2
vn 0.92628411 0.28933682 0.24141657
vn 0.96683798 5.0181874e-2 0.25041185
vn 0.39115500 -0.91740841 7.3209180e-2
vn 0.88622013 -0.46060563 4.9561452e-2
vn 0.72162116 0.36954506 0.58540529
vn 0.28724073 -0.91920945 0.26934502
vn 0.99835531 5.5536375e-2 -1.4226090e-2
vn 0.72902586 0.14213587 -0.66956605
vn 0.28732564 -0.88746589 -0.36034466
vn 0.85561041 -0.51730904 1.7949490e-2
vn -0.92541535 0.36750658 -9.2441081e-2
g clboot_right_jack8
usemtl jack8
s 1
f 1/53/1 29/7/29 28/13/28 7/20/7 3/33/3 2/41/2
f 2/41/2 5/40/5 4/50/4 1/53/1
f 3/33/3 6/29/6 5/40/5 2/41/2
f 3/33/3 7/20/7 8/21/8 6/29/6
f 4/50/4 25/56/25 29/58/29 1/53/1
f 5/40/5 12/48/12 4/50/4
f 6/29/6 11/39/11 5/40/5
f 6/29/6 40/27/40 11/39/11
f 7/20/7 28/13/28 27/14/27 8/21/8
f 8/21/8 27/14/27 26/15/26 15/23/15
f 8/21/8 40/27/40 6/29/6
f 9/16/9 12/25/12 11/24/11 10/19/10
f 9/16/9 30/18/30 31/28/31 12/25/12
f 10/19/10 17/4/17 16/6/16 9/16/9
f 11/39/11 12/48/12 5/40/5
f 11/24/11 14/32/14 13/34/13 10/19/10
f 11/24/11 40/30/40 14/32/14
f 12/48/12 24/51/24 25/56/25 4/50/4
f 12/25/12 31/28/31 36/43/36 24/36/24
f 13/34/13 18/35/18 17/4/17 10/19/10
f 14/32/14 15/38/15 13/34/13
f 14/32/14 40/30/40 15/38/15
f 15/38/15 23/45/23 18/35/18 13/34/13
f 15/38/15 26/42/26 23/45/23
f 15/23/15 40/27/40 8/21/8
f 16/6/16 34/5/34 30/18/30 9/16/9
f 17/4/17 20/2/20 19/1/19 16/6/16
f 18/35/18 21/37/21 20/2/20 17/4/17
f 18/35/18 23/45/23 22/52/22 21/37/21
f 19/1/19 35/3/35 34/5/34 16/6/16
f 20/10/20 35/11/35 19/8/19
f 21/44/21 35/11/35 20/10/20
f 21/44/21 38/55/38 32/31/32
f 22/57/22 38/55/38 21/44/21
f 23/45/23 37/47/37 38/54/38 22/52/22
f 24/12/24 27/14/27 25/9/25
f 24/36/24 37/47/37 26/42/26
f 26/15/26 27/14/27 24/12/24
f 26/42/26 37/47/37 23/45/23
f 27/14/27 28/13/28 25/9/25
f 28/13/28 29/7/29 25/9/25
f 30/18/30 33/17/33 32/26/32 31/28/31
f 30/18/30 34/5/34 35/3/35 33/17/33
f 32/31/32 35/11/35 21/44/21
f 32/26/32 39/49/39 36/43/36 31/28/31
f 33/22/33 35/11/35 32/31/32
f 36/43/36 37/47/37 24/36/24
f 36/43/36 39/49/39 38/54/38 37/47/37
f 38/55/38 39/46/39 32/31/32
o clboot_left
#40 vertices, 49 faces
v 9.23251958 21.00571786 4.41839354
v 14.30660216 22.07686339 5.13550421
v 16.62753319 22.24607333 1.43788556
v 12.15177735 12.21387818 1.90540604
v 15.90446731 12.45994695 1.92841003
v 17.39350176 12.96188570 -0.67972570
v 14.51564217 23.52554780 -4.37443749
v 16.11452714 13.28390420 -4.15162027
v 15.10652468 4.20631651 3.16258311
v 13.87257260 6.92602038 0.88074634
v 17.64674665 6.68979714 0.28944308
v 18.50882404 3.71118456 2.85225170
v 19.28091984 5.48366456 -2.49927213
v 19.15211412 4.01891178 -3.06232952
v 17.08760518 7.05336396 -4.79470426
v 16.50632461 2.11397127 8.81169687
v 21.11827629 1.23744542 6.35248998
v 19.67934989 1.99304468 -3.33785194
v 16.60120021 -0.42660222 8.72928649
v 21.00249579 -0.53710270 6.40720373
v 19.12167083 -0.38949595 -3.17913112
v 16.82450830 3.58848461 -7.08501856
v 16.62740467 -0.44664196 -7.01732035
v 12.77139459 6.58251209 -2.68791323
v 10.94237038 11.60271934 -1.58284080
v 12.54710015 13.75240751 -5.54965254
v 13.77864333 7.02161038 -5.58594496
v 9.87505026 23.34578971 -5.90703732
v 7.20516674 20.18190548 0.29436971
v 13.17841676 2.13945734 2.86350169
v 13.30992095 -0.36909005 3.95573516
v 13.65417987 -0.22963332 -0.11434927
v 12.91892178 3.30746912 -0.61927042
v 14.34809067 1.36090369 8.12154515
v 13.62327221 -0.37261790 8.09256346
v 12.31997993 3.39078928 -3.17578599
v 12.34078860 -0.50421386 -3.21734819
v 13.57982169 -0.53677840 -6.50048435
v 13.45096326 3.66992386 -6.55096467
v 18.21675765 6.75003503 -2.07202286
vt 3.2311111e-2 0.76146667
vt 3.8011111e-2 0.71006667
vt 3.8011111e-2 0.80036667
vt 4.2411111e-2 0.72246667
vt 4.5811111e-2 0.78436667
vt 5.1744444e-2 0.95212222
vt 5.1811111e-2 0.76616667
vt 5.4322222e-2 0.64837778
vt 5.6544444e-2 0.87162222
vt 5.8822222e-2 0.69297778
vt 6.1644444e-2 0.81592222
vt 6.1822222e-2 0.63337778
vt 7.7544444e-2 0.96392222
vt 8.1444444e-2 0.87802222
vt 8.4844444e-2 0.81592222
vt 9.9411111e-2 0.76106667
vt 9.9611111e-2 0.79886667
vt 0.10231111 0.73666667
vt 0.10231111 0.78306667
vt 0.11004444 0.95992222
vt 0.11364444 0.88512222
vt 0.11514444 0.81922222
vt 0.11632222 0.64257778
vt 0.12791111 0.74346667
vt 0.12791111 0.76366667
vt 0.13561111 0.79866667
vt 0.13614444 0.82322222
vt 0.13781111 0.78346667
vt 0.14084444 0.87632222
vt 0.14131111 0.73846667
vt 0.14334444 0.92632222
vt 0.14341111 0.72996667
vt 0.14412222 0.64507778
vt 0.14741111 0.72276667
vt 0.14951111 0.71746667
vt 0.15041111 0.77076667
vt 0.15101111 0.70726667
vt 0.16211111 0.74486667
vt 0.16344444 0.81122222
vt 0.16554444 0.87092222
vt 0.16644444 0.92792222
vt 0.16801111 0.76166667
vt 0.16851111 0.78666667
vt 0.17292222 0.68677778
vt 0.17411111 0.74276667
vt 0.17572222 0.63247778
vt 0.17771111 0.76426667
vt 0.18414444 0.81912222
vt 0.18451111 0.79786667
vt 0.18764444 0.87562222
vt 0.19074444 0.82552222
vt 0.19211111 0.73846667
vt 0.19474444 0.93502222
vt 0.19611111 0.76316667
vt 0.19814444 0.87882222
vt 0.19932222 0.65097778
vt 0.20302222 0.67127778
vt 0.21214444 0.93272222
vn -0.55775847 0.12881224 0.81994689
vn 0.33001334 0.33446521 0.88273678
vn 0.81387333 0.54933880 0.18930684
vn -0.49645420 -0.37207103 0.78428081
vn 0.41618842 -0.14860007 0.89705363
vn 0.98524436 0.10639255 0.13406784
vn 0.55795243 0.60388047 -0.56922532
vn 0.75622716 0.14723388 -0.63752856
vn -0.30412940 0.78287399 0.54278322
vn -0.54095440 6.9419208e-2 0.83818215
vn 0.76724048 0.29400558 0.57000242
vn 0.62782581 0.68777137 0.36442461
vn 0.87940873 0.46234463 -0.11348007
vn 0.90671009 0.34356196 -0.24462624
vn 0.68289427 0.35461725 -0.63867208
vn -3.4204175e-2 0.54658311 0.83670603
vn 0.83545056 0.42935032 0.34304616
vn 0.92619076 0.15309834 -0.34457448
vn 9.2545415e-2 -0.46979912 0.87790895
vn 0.52054050 -0.81188719 0.26434217
vn 0.37081435 -0.91487352 -0.15969710
vn 0.35504719 0.22715734 -0.90683021
vn 0.32564763 -0.54945915 -0.76944672
vn -0.98803374 -4.8467105e-2 -0.14642498
vn -0.93123193 -0.33248143 -0.14920854
vn -0.52520195 -0.12832011 -0.84124720
vn -0.39573404 0.24479292 -0.88513897
vn -0.65100477 0.20990347 -0.72947469
vn -0.98634962 0.15511744 5.5253921e-2
vn -0.92629136 0.28928638 0.24144918
vn -0.87725932 -0.47660031 5.7168366e-2
vn -0.36880066 -0.92638426 7.6146397e-2
vn -0.96694335 4.9958716e-2 0.25004938
vn -0.72174497 0.36929120 0.58541285
vn -0.26889318 -0.92491373 0.26875836
vn -0.99841955 5.4425991e-2 -1.4007645e-2
vn -0.85420242 -0.51971154 1.5432118e-2
vn -0.28726407 -0.88704126 -0.36143763
vn -0.72875316 0.14294167 -0.66969136
vn 0.92471798 0.36744103 -9.9417080e-2
g clboot_left_jack8
usemtl jack8
s 1
f 41/111/41 44/108/44 45/98/45 42/99/42
f 41/111/41 69/116/69 65/113/65 44/108/44
f 42/99/42 43/89/43 47/78/47 68/71/68 69/116/69 41/111/41
f 42/99/42 45/98/45 46/87/46 43/89/43
f 44/108/44 50/106/50 45/98/45
f 44/108/44 65/113/65 64/109/64 50/106/50
f 45/98/45 51/97/51 46/87/46
f 46/87/46 48/79/48 47/78/47 43/89/43
f 46/87/46 80/85/80 48/79/48
f 48/79/48 66/72/66 68/71/68 47/78/47
f 48/79/48 80/85/80 55/80/55
f 49/74/49 52/76/52 51/82/51 50/83/50
f 49/74/49 56/65/56 57/62/57 52/76/52
f 49/74/49 70/77/70 74/63/74 56/65/56
f 50/106/50 51/97/51 45/98/45
f 50/83/50 73/86/73 70/77/70 49/74/49
f 51/97/51 80/85/80 46/87/46
f 52/76/52 54/92/54 53/90/53 51/82/51
f 52/76/52 57/62/57 58/93/58 54/92/54
f 53/90/53 80/88/80 51/82/51
f 54/92/54 55/96/55 53/90/53
f 54/92/54 58/93/58 62/103/62 55/96/55
f 55/80/55 67/73/67 66/72/66 48/79/48
f 55/96/55 80/88/80 53/90/53
f 56/65/56 59/59/59 60/60/60 57/62/57
f 56/65/56 74/63/74 75/61/75 59/59/59
f 57/62/57 60/60/60 61/95/61 58/93/58
f 59/66/59 75/70/75 60/68/60
f 60/68/60 75/70/75 61/102/61
f 61/95/61 63/110/63 62/103/62 58/93/58
f 61/102/61 75/70/75 72/91/72
f 61/102/61 78/114/78 63/115/63
f 62/103/62 67/100/67 55/96/55
f 62/103/62 79/105/79 67/100/67
f 63/110/63 78/112/78 79/105/79 62/103/62
f 64/94/64 76/101/76 73/86/73 50/83/50
f 64/94/64 79/105/79 76/101/76
f 65/67/65 66/72/66 64/69/64
f 65/67/65 68/71/68 66/72/66
f 65/67/65 69/64/69 68/71/68
f 66/72/66 67/73/67 64/69/64
f 67/100/67 79/105/79 64/94/64
f 70/77/70 73/86/73 72/84/72 71/75/71
f 71/75/71 75/61/75 74/63/74 70/77/70
f 72/91/72 75/70/75 71/81/71
f 72/91/72 78/114/78 61/102/61
f 73/86/73 76/101/76 77/107/77 72/84/72
f 76/101/76 79/105/79 78/112/78 77/107/77
f 77/104/77 78/114/78 72/91/72
