# 3ds Max Wavefront OBJ Exporter v0.97b - (c)2007 guruware
# File Created: 26.05.2011 23:15:25

mtllib poofs.mtl

#
# object Cheezy
#

v  -0.8826 -0.2109 -0.0000
v  -0.6250 -0.2109 -0.0000
v  -0.8826 -0.2109 0.0698
v  -0.6250 -0.2109 0.0698
v  -0.6250 0.1847 -0.0000
v  -0.6250 0.1847 0.0698
v  -0.8826 0.1847 -0.0000
v  -0.8826 0.1847 0.0698
# 8 vertices

vn 0.0000 -1.0000 -0.0000
vn 1.0000 0.0000 -0.0000
vn 0.0000 1.0000 -0.0000
vn -1.0000 0.0000 -0.0000
vn 0.0000 0.0000 -1.0000
vn 0.0000 0.0000 1.0000
# 6 vertex normals

vt 0.4913 0.7641 0.0000
vt 0.5783 0.7641 0.0000
vt 0.4913 0.8489 0.0000
vt 0.5783 0.8489 0.0000
vt 0.1220 0.4800 0.0000
vt 0.1220 0.9608 0.0000
vt 0.0371 0.4800 0.0000
vt 0.0371 0.9608 0.0000
vt 0.4910 0.9534 0.0000
vt 0.4910 0.8754 0.0000
vt 0.5759 0.9534 0.0000
vt 0.5759 0.8754 0.0000
vt 0.0370 0.9608 0.0000
vt 0.0370 0.4800 0.0000
vt 0.1219 0.9608 0.0000
vt 0.1219 0.4800 0.0000
vt 0.4610 0.4792 0.0000
vt 0.1480 0.9600 0.0000
vt 0.1480 0.4792 0.0000
vt 0.4610 0.9600 0.0000
vt 0.1483 0.4792 0.0000
vt 0.4613 0.4792 0.0000
vt 0.4613 0.9600 0.0000
vt 0.1483 0.9600 0.0000
# 24 texture coords

g Cheezy
usemtl Material__26
s 1
f 1/1/1 2/2/1 3/3/1 
f 3/3/1 2/2/1 4/4/1 
f 2/5/2 5/6/2 4/7/2 
f 4/7/2 5/6/2 6/8/2 
f 5/9/3 7/10/3 6/11/3 
f 6/11/3 7/10/3 8/12/3 
f 7/13/4 1/14/4 8/15/4 
f 8/15/4 1/14/4 3/16/4 
s 2
f 1/17/5 5/18/5 2/19/5 
f 5/18/5 1/17/5 7/20/5 
f 3/21/6 4/22/6 6/23/6 
f 6/23/6 8/24/6 3/21/6 
# 0 polygons - 12 triangles

