# 3ds Max Wavefront OBJ Exporter v0.97b - (c)2007 guruware
# File Created: 21.06.2011 22:36:28

mtllib briefcase.mtl

#
# object default01
#

v  -0.2065 -0.7845 1.1018
v  0.2065 -0.7845 1.1018
v  0.2065 -0.7845 -1.1018
v  -0.2065 -0.7845 -1.1018
v  -0.2065 0.7845 1.1018
v  -0.2065 0.7845 -1.1018
v  0.2065 0.7845 -1.1018
v  0.2065 0.7845 1.1018
v  0.2065 -0.7845 -0.0117
v  -0.2065 0.7845 -0.0117
v  -0.2065 -0.7845 -0.0117
v  0.2065 0.7845 -0.0117
v  0.1009 0.9030 -0.3445
v  0.0303 0.9030 -0.3445
v  0.0303 1.0251 -0.1473
v  0.1009 1.0251 -0.1473
v  0.1009 0.9022 -0.2739
v  0.1009 0.9545 -0.1462
v  0.0303 0.9022 -0.2739
v  0.0303 0.9545 -0.1462
v  0.0303 0.7841 -0.3459
v  0.0303 0.7832 -0.2753
v  0.1009 0.7832 -0.2753
v  0.1009 0.7841 -0.3459
v  0.0284 0.9561 0.0220
v  0.0284 0.9561 -0.1477
v  0.0992 0.9561 -0.1477
v  0.0992 0.9561 0.0220
v  0.0284 1.0285 0.0220
v  0.0992 1.0285 0.0220
v  0.0992 1.0285 -0.1477
v  0.0284 1.0285 -0.1477
v  0.0330 0.9030 0.2198
v  0.1036 0.9030 0.2181
v  0.0991 1.0251 0.0210
v  0.0285 1.0251 0.0227
v  0.0314 0.9022 0.1492
v  0.0285 0.9545 0.0216
v  0.1020 0.9022 0.1476
v  0.0990 0.9545 0.0199
v  0.1036 0.7841 0.2196
v  0.1020 0.7832 0.1490
v  0.0314 0.7832 0.1506
v  0.0331 0.7841 0.2212
# 44 vertices

vn -0.0000 1.0000 -0.0000
vn -0.9671 -0.2545 0.0000
vn 1.0000 0.0000 -0.0000
vn 0.9671 -0.2545 0.0000
vn 0.0000 0.0000 1.0000
vn 0.8408 0.4426 -0.3118
vn -0.9749 0.1269 0.1827
vn -0.9081 0.2390 0.3440
vn 0.0000 0.5706 0.8212
vn -1.0000 0.0000 -0.0000
vn 0.0000 0.8503 -0.5264
vn 0.0000 -0.9253 0.3793
vn 0.0000 -0.0121 0.9999
vn 0.0000 0.0121 -0.9999
vn 0.0000 -0.9999 -0.0121
vn -0.0000 0.0000 -1.0000
vn 0.0000 -1.0000 -0.0000
vn 0.0000 -1.0000 0.0000
vn 0.0000 1.0000 -0.0000
vn 0.0000 -0.0000 -1.0000
vn 0.0121 0.8503 0.5262
vn -0.9997 -0.0000 0.0230
vn -0.0087 -0.9253 -0.3792
vn 0.9997 0.0000 -0.0230
vn 0.9997 -0.0000 -0.0230
vn -0.0230 -0.0121 -0.9997
vn -0.9997 0.0000 0.0230
vn 0.0230 0.0121 0.9997
vn 0.0003 -0.9999 0.0121
# 29 vertex normals

vt 0.9391 0.5354 0.0000
vt 1.0010 0.5354 0.0000
vt 0.9994 0.9990 0.0000
vt 0.9401 0.9990 0.0000
vt 0.9390 0.9987 0.0000
vt 0.9472 0.5443 0.0000
vt 0.9968 0.5450 0.0000
vt 0.9909 0.9977 0.0000
vt 0.8815 0.0035 0.0000
vt 0.8815 0.5380 0.0000
vt 0.9372 0.5400 0.0000
vt 0.9359 0.0061 0.0000
vt 0.9982 0.0017 0.0000
vt 1.0007 0.8559 0.0000
vt 0.8789 0.5393 0.0000
vt 0.9345 0.5387 0.0000
vt 0.9398 0.8564 0.0000
vt 0.9385 -0.0010 0.0000
vt 0.9356 0.0017 0.0000
vt 0.8802 -0.0010 0.0000
vt 0.9994 0.6890 0.0000
vt 0.9993 0.0019 0.0000
vt 0.9366 0.0008 0.0000
vt 0.9368 0.6891 0.0000
vt 0.6005 0.5255 0.0000
vt 0.1733 0.5278 0.0000
vt 0.5064 1.0031 0.0000
vt 0.0303 0.9959 0.0000
vt 0.2811 0.5276 0.0000
vt 0.3479 0.9989 0.0000
vt 0.7109 0.5304 0.0000
vt 0.7727 0.9984 0.0000
vt 0.2941 0.4673 0.0000
vt 0.6931 0.4852 0.0000
vt 0.3606 0.0071 0.0000
vt 0.7649 0.0020 0.0000
vt 0.0784 0.4608 0.0000
vt 0.5760 0.4583 0.0000
vt 0.4325 0.0201 0.0000
vt -0.0010 -0.0055 0.0000
vt 0.9294 -0.2883 0.0000
vt 0.9307 -0.0749 0.0000
vt 0.8822 -0.0739 0.0000
vt 0.8808 -0.2873 0.0000
vt 0.9322 -0.0823 0.0000
vt 0.8892 -0.0815 0.0000
vt 0.8882 -0.2848 0.0000
vt 0.9312 -0.2856 0.0000
vt 0.0000 0.0000 0.0000
vt 1.0000 0.0000 0.0000
vt 1.0000 1.0000 0.0000
vt 0.0000 1.0000 0.0000
vt 0.9291 -0.2951 0.0000
vt 0.9300 -0.0794 0.0000
vt 0.8857 -0.0786 0.0000
vt 0.8848 -0.2943 0.0000
vt 0.9317 -0.2874 0.0000
vt 0.9328 -0.0816 0.0000
vt 0.8881 -0.0806 0.0000
vt 0.8870 -0.2865 0.0000
# 60 texture coords

g default01
usemtl Material__35
s off
f 1/1/1 2/2/1 3/3/1 4/4/1 
f 5/5/2 6/6/2 3/3/2 2/2/2 
f 4/4/3 3/3/3 6/6/3 7/7/3 
f 7/7/4 8/8/4 1/1/4 4/4/4 
f 8/8/5 5/5/5 2/2/5 
f 1/1/5 2/2/5 8/8/5 
f 9/9/6 10/10/6 5/5/6 8/8/6 
f 7/7/7 11/11/7 9/9/7 8/8/7 
f 12/12/8 6/6/8 11/11/8 
f 11/11/9 7/7/9 6/6/9 
f 10/10/1 12/12/1 6/6/1 
f 6/6/10 5/5/10 10/10/10 
f 13/13/11 14/14/11 15/15/11 16/16/11 
f 17/17/3 13/13/3 16/16/3 18/18/3 
f 19/19/12 17/17/12 18/18/12 20/20/12 
f 15/15/10 14/14/10 19/19/10 20/20/10 
f 21/21/10 22/22/10 19/19/10 14/14/10 
f 22/22/13 23/23/13 17/17/13 19/19/13 
f 23/23/3 24/24/3 13/13/3 17/17/3 
f 24/24/14 21/21/14 14/14/14 13/13/14 
f 24/24/15 23/23/15 22/22/15 21/21/15 
f 2/3/5 8/2/5 1/4/5 
f 5/1/5 1/4/5 8/2/5 
f 7/8/16 3/7/16 6/5/16 
f 4/6/16 6/5/16 3/7/16 
f 9/11/17 11/10/17 3/12/17 
f 4/9/17 3/12/17 11/10/17 
f 1/20/18 11/15/18 2/18/18 
f 9/16/18 2/18/18 11/15/18 
f 10/17/1 12/14/1 6/19/1 
f 7/13/1 6/19/1 12/14/1 
f 8/22/19 12/21/19 5/23/19 
f 10/24/19 5/23/19 12/21/19 
f 4/25/10 11/26/10 6/27/10 
f 10/28/10 6/27/10 11/26/10 
f 1/29/10 5/30/10 11/31/10 
f 10/32/10 11/31/10 5/30/10 
f 2/33/3 9/34/3 8/35/3 
f 12/36/3 8/35/3 9/34/3 
f 7/37/3 12/38/3 9/39/3 3/40/3 
s 2
f 25/41/17 26/42/17 27/43/17 28/44/17 
s 4
f 29/45/19 30/46/19 31/47/19 32/48/19 
s 8
f 25/49/5 28/50/5 30/51/5 29/52/5 
s 16
f 28/53/3 27/54/3 31/55/3 30/56/3 
s 32
f 27/49/20 26/50/20 32/51/20 31/52/20 
s 64
f 26/57/10 25/58/10 29/59/10 32/60/10 
s off
f 33/13/21 34/14/21 35/15/21 36/16/21 
f 37/17/22 33/13/22 36/16/22 38/18/22 
f 39/19/23 37/17/23 38/18/23 40/20/23 
f 35/15/24 34/14/24 39/19/24 40/20/24 
f 41/21/25 42/22/25 39/19/25 34/14/25 
f 42/22/26 43/23/26 37/17/26 39/19/26 
f 43/23/27 44/24/27 33/13/27 37/17/27 
f 44/24/28 41/21/28 34/14/28 33/13/28 
f 44/24/29 43/23/29 42/22/29 41/21/29 
# 31 polygons - 24 triangles

