# 3ds Max Wavefront OBJ Exporter v0.97b - (c)2007 guruware
# File Created: 26.05.2011 23:09:42

mtllib radioset_portable.mtl

#
# object Box01
#

#
# object Box02
#

v  -9.2422 0.0000 28.5069
v  -9.2422 0.0000 6.0252
v  -0.4273 0.0000 6.0252
v  -0.4273 0.0000 28.5069
v  -9.2422 18.0405 28.5069
v  -0.4273 18.0405 28.5069
v  -0.4273 18.0405 6.0252
v  -9.2422 18.0405 6.0252
v  -9.2422 0.0000 37.4409
v  -0.4273 0.0000 37.4409
v  -0.4273 22.6801 37.4409
v  -9.2422 22.6801 37.4409
v  -0.4273 0.0000 29.8409
v  -9.2422 0.0000 29.8409
v  -0.4273 22.6801 29.8409
v  -9.2422 22.6801 29.8409
v  -4.8141 23.2466 8.5776
v  -4.8141 23.2298 25.2539
v  -4.8141 24.6213 25.2539
v  -4.8141 24.6213 7.4321
v  -4.8141 20.2985 29.3972
v  -4.8141 21.4924 29.7280
v  -4.8141 17.6612 6.9539
v  -4.8141 17.6534 8.1447
v  -11.1187 13.6400 32.0162
v  -11.0434 12.8042 36.0270
v  -11.0434 19.3603 36.0270
v  -11.1187 19.3603 32.0162
v  -9.3060 12.7402 31.2363
v  -9.2307 11.9043 36.5039
v  -9.2307 20.0989 36.5039
v  -9.3060 20.0989 31.2363
v  -4.8564 46.5914 33.8198
v  -4.8564 22.4513 32.9165
v  -5.7039 22.4513 33.5757
v  -5.7039 46.5914 34.4789
v  -4.8564 22.4513 34.2917
v  -4.8564 46.5914 35.1949
v  -6.4866 82.1840 37.7756
v  -5.6391 82.1840 37.3720
v  -5.6391 82.1840 38.1586
# 41 vertices

vn 0.0000 -1.0000 -0.0000
vn 0.0000 1.0000 -0.0000
vn 0.0000 0.0000 1.0000
vn 1.0000 0.0000 -0.0000
vn 0.0000 0.0000 -1.0000
vn -1.0000 0.0000 -0.0000
vn 0.0000 0.2763 -0.9611
vn -1.0000 -0.0000 0.0000
vn -1.0000 -0.0000 -0.0000
vn -0.9998 0.0000 0.0188
vn -0.4496 -0.8803 -0.1513
vn -0.2544 -0.0000 0.9671
vn -0.3769 0.9262 0.0061
vn -0.3952 -0.0000 -0.9186
vn -0.6137 0.0295 -0.7890
vn -0.6451 -0.0286 0.7635
vn -0.5299 0.0697 -0.8452
vn -0.5421 -0.0854 0.8360
# 18 vertex normals

vt 0.8914 0.6375 0.0000
vt 0.8914 0.9842 0.0000
vt 0.6812 0.9842 0.0000
vt 0.6812 0.6375 0.0000
vt 0.4871 0.3964 0.0000
vt 0.4876 0.5597 0.0000
vt 0.0396 0.5609 0.0000
vt 0.0391 0.3976 0.0000
vt 0.8874 0.9850 0.0000
vt 0.6805 0.9850 0.0000
vt 0.6805 0.4941 0.0000
vt 0.8874 0.4941 0.0000
vt 0.5008 0.9819 0.0000
vt 0.0177 0.9833 0.0000
vt 0.0166 0.6013 0.0000
vt 0.4997 0.5998 0.0000
vt 0.8914 0.9778 0.0000
vt 0.6886 0.9778 0.0000
vt 0.6886 0.4958 0.0000
vt 0.8914 0.4958 0.0000
vt 0.0085 0.0161 0.0000
vt 0.4910 0.0129 0.0000
vt 0.4936 0.4011 0.0000
vt 0.0111 0.4043 0.0000
vt 0.6812 0.6169 0.0000
vt 0.8914 0.6169 0.0000
vt 0.5280 0.5015 0.0000
vt 0.5295 0.9818 0.0000
vt 0.1242 0.4020 0.0000
vt 0.1242 0.5561 0.0000
vt 0.0553 0.5561 0.0000
vt 0.0553 0.4020 0.0000
vt 0.5197 0.0127 0.0000
vt 0.5229 0.5007 0.0000
vt 0.6812 0.4996 0.0000
vt 0.8914 0.4996 0.0000
vt 0.6913 0.5010 0.0000
vt 0.6928 0.9813 0.0000
vt 0.8848 0.5044 0.0000
vt 0.6837 0.5039 0.0000
vt 0.6842 0.3544 0.0000
vt 0.8853 0.3549 0.0000
vt 0.6828 0.0116 0.0000
vt 0.6860 0.4996 0.0000
vt 0.9814 0.3828 0.0000
vt 0.9841 0.4379 0.0000
vt 0.9024 0.4337 0.0000
vt 0.9026 0.3890 0.0000
vt 0.9827 0.5307 0.0000
vt 0.9052 0.5376 0.0000
vt 0.8998 0.2725 0.0000
vt 0.9829 0.2701 0.0000
vt 0.7341 0.1292 0.0000
vt 0.8344 0.1087 0.0000
vt 0.8346 0.2863 0.0000
vt 0.7344 0.2887 0.0000
vt 0.7468 0.0186 0.0000
vt 0.8446 0.0175 0.0000
vt 0.8407 0.1062 0.0000
vt 0.7446 0.1277 0.0000
vt 0.8714 0.1030 0.0000
vt 0.8703 0.3440 0.0000
vt 0.8337 0.2868 0.0000
vt 0.8349 0.1047 0.0000
vt 0.8710 0.3451 0.0000
vt 0.7009 0.3469 0.0000
vt 0.7330 0.2873 0.0000
vt 0.8346 0.2880 0.0000
vt 0.6996 0.3452 0.0000
vt 0.7008 0.1278 0.0000
vt 0.7341 0.1302 0.0000
vt 0.7336 0.2877 0.0000
vt 0.9086 0.5162 0.0000
vt 0.9017 0.0159 0.0000
vt 0.9431 0.0174 0.0000
vt 0.9440 0.5107 0.0000
vt 0.9806 0.5114 0.0000
vt 0.9747 0.9730 0.0000
vt 0.9423 0.9747 0.0000
vt 0.9445 0.5120 0.0000
vt 0.9430 0.9745 0.0000
vt 0.9217 0.9767 0.0000
vt 0.9428 0.0173 0.0000
vt 0.9816 0.0167 0.0000
# 84 texture coords

g Box02
usemtl wire_140088225
s 2
f 1/1/1 2/2/1 3/3/1 4/4/1 
s 4
f 5/5/2 6/6/2 7/7/2 8/8/2 
s 8
f 9/9/3 10/10/3 11/11/3 12/12/3 
s 16
f 4/13/4 3/14/4 7/15/4 6/16/4 
s 32
f 3/17/5 2/18/5 8/19/5 7/20/5 
s 64
f 2/21/6 1/22/6 5/23/6 8/24/6 
s off
f 1/1/1 4/4/1 13/25/1 14/26/1 
f 4/13/4 6/16/4 15/27/4 13/28/4 
f 6/29/7 5/30/7 16/31/7 15/32/7 
f 5/23/8 1/22/8 14/33/8 16/34/8 
f 14/26/1 13/25/1 10/35/1 9/36/1 
f 13/28/4 15/27/4 11/37/4 10/38/4 
f 15/39/2 16/40/2 12/41/2 11/42/2 
f 16/34/9 14/33/9 9/43/9 12/44/9 
s 64
f 17/45/9 18/46/9 19/47/9 20/48/9 
s off
f 19/47/6 18/46/6 21/49/6 22/50/6 
f 17/45/8 20/48/8 23/51/8 24/52/8 
s 8
f 25/53/10 26/54/10 27/55/10 28/56/10 
s off
f 29/57/11 30/58/11 26/59/11 25/60/11 
f 30/61/12 31/62/12 27/63/12 26/64/12 
f 31/65/13 32/66/13 28/67/13 27/68/13 
f 32/69/14 29/70/14 25/71/14 28/72/14 
f 33/73/15 34/74/15 35/75/15 36/76/15 
f 36/77/16 35/78/16 37/79/16 38/80/16 
f 33/73/17 36/76/17 39/81/17 40/82/17 
f 36/77/18 38/80/18 41/83/18 39/84/18 
# 26 polygons

