# 3ds Max Wavefront OBJ Exporter v0.97b - (c)2007 guruware
# File Created: 26.05.2011 23:33:07

mtllib mtoe.mtl

#
# object MToe
#

v  -227.6454 9.5314 71.0417
v  -209.2330 10.5481 75.0797
v  -210.7455 16.3269 72.4357
v  -227.6756 15.2585 69.0357
v  -216.5107 3.2418 27.6661
v  -197.7149 4.2703 27.3159
v  -198.8715 -1.4025 45.0107
v  -217.8608 -1.4723 40.9788
v  -191.9383 14.6289 30.0237
v  -199.9627 24.4160 29.6668
v  -204.1220 23.3223 45.8659
v  -196.6115 11.0093 43.3034
v  -214.2238 24.3157 28.8592
v  -221.0198 22.5209 45.3124
v  -222.4675 12.6350 27.4448
v  -227.6441 10.9023 41.0438
v  -200.9408 -1.7635 60.8855
v  -222.4646 -1.7369 56.4857
v  -198.0333 9.8319 57.6246
v  -206.1218 19.2909 55.4588
v  -222.8358 18.1298 53.7529
v  -227.7674 10.3743 50.2452
v  -209.1438 1.9049 71.4385
v  -223.8378 0.6082 68.1779
v  -202.8066 11.4741 71.6642
v  -230.4313 9.6384 64.0474
# 26 vertices

vn -0.6279 -0.1008 0.7718
vn 0.1448 0.0199 0.9893
vn 0.1287 0.7840 0.6072
vn -0.5955 0.6617 0.4555
vn -0.4465 -0.8311 -0.3315
vn 0.5589 -0.7996 -0.2198
vn 0.6153 -0.7874 -0.0381
vn -0.3694 -0.8952 -0.2492
vn 0.9686 0.1278 0.2134
vn 0.4378 0.8805 0.1819
vn 0.4080 0.8567 0.3154
vn 0.9442 0.1678 0.2834
vn -0.3801 0.9237 -0.0476
vn -0.5074 0.8551 0.1065
vn -0.9447 0.0437 -0.3250
vn -0.9732 -0.0221 -0.2289
vn 0.5874 -0.7566 0.2871
vn -0.5203 -0.8539 0.0140
vn 0.9411 0.2592 0.2170
vn 0.3901 0.8684 0.3061
vn -0.5268 0.8385 0.1396
vn -0.9978 0.0427 -0.0515
vn 0.1825 -0.6804 0.7097
vn -0.4562 -0.7613 0.4608
vn 0.7542 0.2941 0.5871
vn -0.9970 -0.0772 -0.0050
vn 0.2094 0.1364 -0.9683
vn 0.0287 0.1002 -0.9946
vn 0.0553 0.1218 -0.9910
vn -0.0168 -0.0342 -0.9993
# 30 vertex normals

vt 0.2615 0.1797 0.0000
vt 0.5633 0.1916 0.0000
vt 0.5270 0.2703 0.0000
vt 0.2611 0.2488 0.0000
vt 0.6568 0.1243 0.0000
vt 0.6225 0.0411 0.0000
vt 0.7073 0.0200 0.0000
vt 0.7143 0.1091 0.0000
vt 0.9484 0.9648 0.0000
vt 0.7484 0.9840 0.0000
vt 0.9561 0.6648 0.0000
vt 0.5291 0.9866 0.0000
vt 0.5197 0.7152 0.0000
vt 0.7587 0.7413 0.0000
vt 0.2810 0.9191 0.0000
vt 0.2559 0.6491 0.0000
vt 0.0383 0.8734 0.0000
vt 0.0290 0.6422 0.0000
vt 0.6580 0.1772 0.0000
vt 0.7220 0.1811 0.0000
vt 0.7830 0.0100 0.0000
vt 0.7866 0.1108 0.0000
vt 0.7397 0.4989 0.0000
vt 0.9183 0.4067 0.0000
vt 0.5356 0.5487 0.0000
vt 0.2482 0.4970 0.0000
vt 0.0773 0.4847 0.0000
vt 0.7668 0.1744 0.0000
vt 0.8426 0.0372 0.0000
vt 0.8405 0.1088 0.0000
vt 0.6700 0.2521 0.0000
vt 0.8470 0.1928 0.0000
vt 0.1478 0.2278 0.0000
vt 0.8326 0.1649 0.0000
vt 0.2794 0.0314 0.0000
vt 0.5718 0.0499 0.0000
vt 0.0545 0.0317 0.0000
vt 0.0614 0.1498 0.0000
vt 0.0177 0.0910 0.0000
vt 0.1966 0.0880 0.0000
vt 0.1453 0.1537 0.0000
vt 0.1648 0.0321 0.0000
# 42 texture coords

g MToe
usemtl Material__204
s 1
f 1/1/1 2/2/2 3/3/3 4/4/4 
f 5/5/5 6/6/6 7/7/7 8/8/8 
f 6/9/6 9/10/9 7/11/7 
f 9/10/9 10/12/10 11/13/11 12/14/12 
f 10/12/10 13/15/13 14/16/14 11/13/11 
f 13/15/13 15/17/15 16/18/16 14/16/14 
f 15/19/15 5/5/5 8/8/8 16/20/16 
f 8/8/8 7/7/7 17/21/17 18/22/18 
f 7/11/7 12/14/12 19/23/19 17/24/17 
f 12/14/12 11/13/11 20/25/20 19/23/19 
f 11/13/11 14/16/14 21/26/21 20/25/20 
f 14/16/14 16/18/16 22/27/22 21/26/21 
f 16/20/16 8/8/8 18/22/18 22/28/22 
f 18/22/18 17/21/17 23/29/23 24/30/24 
f 17/24/17 19/23/19 25/31/25 23/32/23 
f 19/23/19 20/25/20 3/3/3 25/31/25 
f 20/25/20 21/26/21 4/4/4 3/3/3 
f 21/26/21 22/27/22 26/33/26 4/4/4 
f 22/28/22 18/22/18 24/30/24 26/34/26 
f 25/31/25 3/3/3 2/2/2 
f 4/4/4 26/33/26 1/1/1 
f 26/33/26 24/35/24 1/1/1 
f 24/35/24 23/36/23 2/2/2 1/1/1 
f 2/2/2 23/36/23 25/31/25 
s off
f 6/37/27 10/38/27 9/39/27 
f 6/37/28 15/40/28 13/41/28 
f 6/37/29 13/41/29 10/38/29 
f 6/37/30 5/42/30 15/40/30 
s 1
f 9/10/9 12/14/12 7/11/7 
# 19 polygons - 10 triangles

