# 3ds Max Wavefront OBJ Exporter v0.97b - (c)2007 guruware
# File Created: 26.05.2011 23:30:16

mtllib junk.mtl

#
# object Cylinder02
#

v  -1.6213 13.1947 29.8537
v  2.3525 8.3524 41.7847
v  2.0685 5.9263 40.1783
v  -11.0975 18.9772 22.7964
v  -10.8135 21.4032 24.4029
v  -23.8211 21.7242 20.8974
v  -23.5371 24.1503 22.5038
v  -36.3827 20.6998 24.6654
v  -45.4165 16.1784 33.0910
v  -45.1324 18.6045 34.6974
v  -48.5018 9.3715 43.9163
v  -48.2178 11.7976 45.5228
v  -44.8120 2.1031 54.2409
v  -35.3358 -3.6793 61.2982
v  -35.0518 -1.2532 62.9047
v  -22.6122 -6.4264 63.1973
v  -22.3282 -4.0003 64.8037
v  -10.0507 -5.4019 59.4292
v  -1.0169 -0.8806 51.0037
v  -0.7329 1.5455 52.6101
v  -41.3702 8.4785 61.5569
v  -31.1385 8.3904 57.7839
v  -31.7113 15.0906 56.0742
v  -41.9430 15.1786 59.8472
v  -27.3324 6.1703 47.8082
v  -27.9052 12.8705 46.0985
v  -30.9974 3.3377 37.9354
v  -31.5702 10.0379 36.2257
v  -41.1774 1.5763 34.4433
v  -41.7502 8.2765 32.7336
v  -51.4090 1.6643 38.2162
v  -51.9818 8.3645 36.5065
v  -55.2152 3.8844 48.1919
v  -55.7880 10.5846 46.4822
v  -51.5502 6.7171 58.0647
v  -52.1230 13.4172 56.3550
v  -16.7613 -16.3554 39.0688
v  -15.2444 -14.8583 35.3392
v  -13.7018 -0.3190 41.8029
v  -19.2508 -2.0394 46.9969
v  -16.6666 -13.0867 31.6936
v  -24.7908 -15.6054 39.2981
v  -23.2482 -1.0661 45.7618
v  -15.1240 1.4526 38.1572
v  -36.3534 9.4344 52.2841
v  -41.5534 9.4791 54.2016
v  -34.4190 8.3061 47.2142
v  -36.2817 6.8664 42.1965
v  -41.4554 5.9712 40.4217
v  -46.6554 6.0160 42.3392
v  -48.5898 7.1443 47.4091
v  -46.7272 8.5839 52.4268
v  -21.8166 -5.7851 68.5522
v  -18.3588 -3.0661 66.4090
v  -20.0632 -0.5083 66.9040
v  -23.5211 -3.2273 69.0471
v  -17.8014 -1.7871 61.7190
v  -19.5058 0.7707 62.2140
v  -19.9945 -2.4106 57.3895
v  -24.0510 -4.8897 56.2313
v  -25.7555 -2.3319 56.7263
v  -21.6989 0.1471 57.8845
v  -27.5089 -7.6087 58.3745
v  -29.2133 -5.0509 58.8695
v  -28.0663 -8.8877 63.0645
v  -29.7707 -6.3299 63.5595
v  -25.8732 -8.2641 67.3940
v  -27.5777 -5.7064 67.8890
v  -21.4342 -2.4650 64.9535
v  -23.3730 -3.9894 66.1551
v  -21.1217 -1.7479 62.3240
v  -24.6257 -3.4874 59.2472
v  -22.3513 -2.0975 59.8966
v  -26.5644 -5.0119 60.4488
v  -26.8769 -5.7290 63.0784
v  -25.6473 -5.3794 65.5058
v  -5.0165 13.4219 32.5965
v  -1.9202 7.3226 41.2603
v  -23.6453 20.5794 25.0808
v  -34.1863 19.7197 28.2428
v  -44.3561 10.2137 44.3971
v  -41.2598 4.1144 53.0609
v  -22.6309 -3.0431 60.5766
v  -12.0899 -2.1834 57.4147
v  15.6254 13.1796 50.2050
v  4.5646 -7.1996 36.7760
v  -10.8321 -0.1553 38.7673
v  0.2287 20.2239 52.1964
v  7.6909 12.1263 34.9920
v  -2.5670 3.5852 31.6749
v  -7.2393 6.5665 38.4471
v  3.0187 15.1076 41.7642
v  -20.2875 -1.0854 41.5719
v  -18.3055 -0.3373 39.4984
v  -16.7628 14.2020 45.9620
v  -18.7449 13.4539 48.0355
v  -26.8675 20.1778 47.0223
v  -28.8495 19.4296 49.0958
v  -37.3893 15.5413 46.1515
v  -39.3713 14.7931 48.2250
v  -42.4491 -8.8899 48.9319
v  -44.4311 -9.6381 51.0054
v  -44.0815 -13.7099 42.6951
v  -46.0635 -14.4581 44.7686
v  -28.3571 -16.7398 39.3010
v  -30.3391 -17.4879 41.3744
v  -30.3873 7.0077 33.2413
v  -32.3693 6.2596 35.3147
v  -8.9621 20.0990 29.0747
v  -10.9442 19.3508 31.1482
v  -2.3923 17.8306 27.9236
v  -4.3743 17.0824 29.9971
v  2.2759 16.7830 19.3232
v  -25.6110 -1.8099 14.7512
v  -27.4431 10.6121 72.6988
v  -26.1862 12.6734 69.6137
v  -22.7450 -2.3990 -8.5057
v  -23.2734 9.4756 70.2977
v  -33.6791 9.7192 83.1798
v  -32.4221 11.7805 80.0946
v  -29.5094 8.5827 80.7786
# 121 vertices

vn 0.8498 0.2182 -0.4798
vn 0.9953 -0.0789 -0.0568
vn 0.9950 -0.0678 -0.0735
vn 0.4769 0.4458 -0.7575
vn 0.4593 0.4524 -0.7644
vn -0.0238 0.5539 -0.8323
vn -0.0038 0.5524 -0.8336
vn -0.5181 0.5136 -0.6840
vn -0.8736 0.3356 -0.3524
vn -0.8830 0.3266 -0.3372
vn -0.9950 0.0678 0.0735
vn -0.9953 0.0789 0.0568
vn -0.8498 -0.2182 0.4798
vn -0.4769 -0.4458 0.7575
vn -0.4593 -0.4524 0.7644
vn 0.0238 -0.5539 0.8323
vn 0.0038 -0.5524 0.8336
vn 0.5181 -0.5136 0.6840
vn 0.8736 -0.3356 0.3524
vn 0.8830 -0.3266 0.3372
vn -0.0069 0.2467 0.9691
vn 0.6998 0.2322 0.6755
vn 0.9966 0.0817 -0.0137
vn 0.7095 -0.1167 -0.6949
vn 0.0069 -0.2467 -0.9691
vn -0.6998 -0.2322 -0.6755
vn -0.9966 -0.0817 0.0137
vn -0.7095 0.1167 0.6949
vn 0.5815 -0.4043 0.7060
vn 0.9306 -0.2266 0.2875
vn 0.7498 -0.2477 0.6136
vn 0.1716 -0.3798 0.9090
vn -0.6955 0.3522 -0.6263
vn -0.9398 -0.1422 0.3106
vn -0.9744 0.0034 0.2248
vn -0.0965 -0.9095 -0.4043
vn 0.0965 0.9095 0.4043
vn -0.2510 0.6725 -0.6962
vn -0.5735 0.7255 -0.3803
vn -0.5761 0.8171 -0.0206
vn -0.2579 0.9227 0.2866
vn 0.1120 0.9530 0.2815
vn 0.4346 0.9000 -0.0345
vn 0.4371 0.8084 -0.3942
vn 0.1190 0.7028 -0.7013
vn 0.1780 -0.0713 0.9814
vn 0.7040 0.3495 0.6182
vn 0.8290 0.5066 0.2367
vn 0.1139 0.2614 -0.9585
vn -0.1780 0.0713 -0.9814
vn -0.7040 -0.3495 -0.6182
vn -0.8177 -0.5656 0.1072
vn -0.4523 -0.4504 0.7698
vn 0.7067 0.5557 -0.4380
vn -0.6833 0.6967 -0.2186
vn -0.8398 0.5409 0.0477
vn -0.5459 0.6416 0.5388
vn -0.3150 0.8014 0.5085
vn -0.1585 0.9572 0.2422
vn -0.2088 0.9773 -0.0350
vn -0.4523 0.8564 -0.2489
vn -0.7895 0.5207 0.3249
vn 0.0396 0.8880 0.4582
vn 0.4239 0.7802 0.4601
vn -0.0050 0.6806 0.7326
vn -0.0119 0.8021 0.5971
vn 0.0425 0.9699 0.2396
vn 0.3312 0.7266 0.6020
vn 0.1530 0.7592 0.6326
vn -0.2473 0.7766 0.5794
vn 0.1944 0.9252 0.3259
vn 0.2036 0.8473 0.4905
vn 0.1433 0.5887 0.7955
vn -0.1406 0.8763 0.4608
vn 0.1182 0.5008 -0.8574
vn -0.3984 0.7059 -0.5856
vn 0.7383 -0.3379 0.5838
vn 0.4381 0.6264 0.6448
vn -0.3992 0.9155 -0.0512
vn -0.7342 0.0753 -0.6747
vn -0.6354 0.6825 -0.3611
vn -0.2706 -0.7936 -0.5450
vn 0.6576 0.2386 0.7146
vn 0.5395 -0.8120 0.2227
vn 0.3532 0.7199 0.5974
vn -0.6818 0.5836 -0.4411
vn -0.8978 0.4234 -0.1212
vn -0.9142 0.3893 -0.1124
vn -0.9137 0.3904 -0.1127
vn -0.8975 0.4240 -0.1213
vn 0.7460 0.6593 -0.0943
vn -0.8190 -0.2635 -0.5097
vn 0.6217 0.6574 0.4259
# 93 vertex normals

vt 0.1797 0.0100 0.0000
vt 0.3681 0.0135 0.0000
vt 0.3677 0.1176 0.0000
vt 0.1793 0.1141 0.0000
vt 0.0213 0.1202 0.0000
vt 0.0217 0.0161 0.0000
vt 0.4551 0.0213 0.0000
vt 0.6393 0.0159 0.0000
vt 0.6397 0.1320 0.0000
vt 0.4555 0.1374 0.0000
vt 0.7992 0.1273 0.0000
vt 0.4156 0.7941 0.0000
vt 0.3436 0.7876 0.0000
vt 0.3448 0.7672 0.0000
vt 0.3654 0.1282 0.0000
vt 0.2512 0.1323 0.0000
vt 0.2455 0.0376 0.0000
vt 0.3597 0.0335 0.0000
vt 0.1172 0.0330 0.0000
vt 0.1229 0.1276 0.0000
vt 0.0148 0.1154 0.0000
vt 0.0091 0.0208 0.0000
vt 0.7252 0.2651 0.0000
vt 0.8187 0.2626 0.0000
vt 0.8192 0.2833 0.0000
vt 0.7258 0.2859 0.0000
vt 0.5077 0.6133 0.0000
vt 0.5796 0.6127 0.0000
vt 0.5790 0.6281 0.0000
vt 0.9033 0.3322 0.0000
vt 0.8098 0.3351 0.0000
vt 0.8092 0.3143 0.0000
vt 0.5360 0.1299 0.0000
vt 0.5364 0.0258 0.0000
vt 0.8242 0.7385 0.0000
vt 0.6704 0.7385 0.0000
vt 0.6704 0.6403 0.0000
vt 0.8242 0.6403 0.0000
vt 0.9510 0.6462 0.0000
vt 0.8236 0.6462 0.0000
vt 0.8236 0.5431 0.0000
vt 0.9510 0.5431 0.0000
vt 0.6684 0.6462 0.0000
vt 0.6684 0.5431 0.0000
vt 0.9500 0.8312 0.0000
vt 0.8258 0.8312 0.0000
vt 0.8258 0.7378 0.0000
vt 0.9500 0.7378 0.0000
vt 0.6747 0.8312 0.0000
vt 0.6747 0.7378 0.0000
vt 0.9507 0.9226 0.0000
vt 0.8278 0.9226 0.0000
vt 0.8278 0.8300 0.0000
vt 0.9507 0.8300 0.0000
vt 0.6783 0.9226 0.0000
vt 0.6783 0.8300 0.0000
vt 0.9505 0.7385 0.0000
vt 0.9505 0.6403 0.0000
vt 0.0474 0.8979 0.0000
vt 0.0493 0.8730 0.0000
vt 0.1626 0.8819 0.0000
vt 0.1607 0.9068 0.0000
vt 0.7369 0.2029 0.0000
vt 0.7398 0.1583 0.0000
vt 0.9698 0.1716 0.0000
vt 0.9669 0.2162 0.0000
vt 0.7252 0.2292 0.0000
vt 0.7269 0.2059 0.0000
vt 0.8402 0.2143 0.0000
vt 0.8385 0.2375 0.0000
vt 0.1751 0.6325 0.0000
vt 0.1363 0.5512 0.0000
vt 0.2574 0.5515 0.0000
vt 0.2576 0.5998 0.0000
vt 0.6276 0.2524 0.0000
vt 0.5368 0.4406 0.0000
vt 0.4252 0.4418 0.0000
vt 0.4464 0.1674 0.0000
vt 0.1218 0.1544 0.0000
vt 0.2406 0.1558 0.0000
vt 0.2071 0.2258 0.0000
vt 0.1467 0.2250 0.0000
vt 0.3162 0.2475 0.0000
vt 0.2455 0.2724 0.0000
vt 0.3147 0.3663 0.0000
vt 0.2447 0.3328 0.0000
vt 0.2230 0.4419 0.0000
vt 0.1981 0.3712 0.0000
vt 0.1042 0.4404 0.0000
vt 0.1378 0.3704 0.0000
vt 0.0287 0.3487 0.0000
vt 0.0994 0.3238 0.0000
vt 0.0302 0.2299 0.0000
vt 0.1001 0.2634 0.0000
vt 0.0655 0.5701 0.0000
vt 0.0310 0.5669 0.0000
vt 0.0326 0.5454 0.0000
vt 0.0671 0.5486 0.0000
vt 0.4945 0.8582 0.0000
vt 0.4630 0.8507 0.0000
vt 0.4624 0.8324 0.0000
vt 0.4939 0.8399 0.0000
vt 0.4645 0.8857 0.0000
vt 0.4359 0.8821 0.0000
vt 0.4352 0.8606 0.0000
vt 0.4638 0.8641 0.0000
vt 0.4013 0.8840 0.0000
vt 0.4006 0.8625 0.0000
vt 0.4608 0.8671 0.0000
vt 0.4261 0.8659 0.0000
vt 0.4268 0.8438 0.0000
vt 0.4616 0.8450 0.0000
vt 0.3995 0.8650 0.0000
vt 0.4003 0.8428 0.0000
vt 0.0942 0.5677 0.0000
vt 0.0958 0.5462 0.0000
vt 0.4289 0.8382 0.0000
vt 0.4295 0.8565 0.0000
vt 0.4084 0.8865 0.0000
vt 0.3967 0.8609 0.0000
vt 0.4160 0.8563 0.0000
vt 0.4226 0.8706 0.0000
vt 0.3206 0.7945 0.0000
vt 0.3524 0.7882 0.0000
vt 0.3532 0.8061 0.0000
vt 0.3354 0.8096 0.0000
vt 0.4647 0.8942 0.0000
vt 0.4317 0.9052 0.0000
vt 0.4317 0.8839 0.0000
vt 0.4501 0.8777 0.0000
vt 0.4000 0.8943 0.0000
vt 0.4139 0.8778 0.0000
vt 0.4883 0.8624 0.0000
vt 0.4709 0.8875 0.0000
vt 0.4577 0.8712 0.0000
vt 0.4674 0.8572 0.0000
vt 0.4384 0.8988 0.0000
vt 0.4394 0.8775 0.0000
vt 0.3857 0.7953 0.0000
vt 0.3719 0.8101 0.0000
vt 0.1158 0.0099 0.0000
vt 0.2304 0.0048 0.0000
vt 0.2216 0.1170 0.0000
vt 0.1254 0.1213 0.0000
vt 0.9881 0.1327 0.0000
vt 0.8999 0.1292 0.0000
vt 0.8948 0.0144 0.0000
vt 0.7908 0.1288 0.0000
vt 0.7915 0.0098 0.0000
vt 0.6784 0.1280 0.0000
vt 0.6798 0.0067 0.0000
vt 0.5729 0.1243 0.0000
vt 0.5743 0.0069 0.0000
vt 0.4606 0.1228 0.0000
vt 0.4606 0.0069 0.0000
vt 0.4980 0.0082 0.0000
vt 0.6229 0.0073 0.0000
vt 0.6059 0.1170 0.0000
vt 0.5011 0.1178 0.0000
vt 0.0063 0.0033 0.0000
vt 0.1197 0.0071 0.0000
vt 0.1202 0.1259 0.0000
vt 0.2254 0.0069 0.0000
vt 0.2235 0.1229 0.0000
vt 0.3187 0.0087 0.0000
vt 0.3219 0.1223 0.0000
vt 0.4035 0.0089 0.0000
vt 0.4009 0.1241 0.0000
vt 0.4870 0.0102 0.0000
vt 0.4864 0.1223 0.0000
vt 0.6749 0.5581 0.0000
vt 0.6667 0.9365 0.0000
vt 0.9488 0.9409 0.0000
vt 0.9571 0.5626 0.0000
vt 0.5578 0.5610 0.0000
vt 0.3063 0.5871 0.0000
vt 0.2979 0.9303 0.0000
vt 0.5494 0.9042 0.0000
vt 0.9055 0.3591 0.0000
vt 0.9059 0.3801 0.0000
vt 0.7923 0.3836 0.0000
vt 0.7919 0.3626 0.0000
vt 0.4271 0.7137 0.0000
vt 0.4189 0.6980 0.0000
vt 0.4835 0.6985 0.0000
vt 0.4917 0.7142 0.0000
vt 0.8445 0.4537 0.0000
vt 0.8321 0.4384 0.0000
vt 0.9105 0.4373 0.0000
vt 0.9229 0.4525 0.0000
vt 0.2933 0.1002 0.0000
vt 0.3183 0.1552 0.0000
vt 0.0519 0.1005 0.0000
vt 0.0269 0.0455 0.0000
vt 0.3436 0.8360 0.0000
vt 0.3505 0.8187 0.0000
vt 0.3914 0.8187 0.0000
vt 0.3846 0.8360 0.0000
vt 0.3774 0.8943 0.0000
vt 0.3928 0.8829 0.0000
vt 0.5091 0.8804 0.0000
vt 0.4937 0.8918 0.0000
vt 0.3670 0.9173 0.0000
vt 0.3746 0.8998 0.0000
vt 0.5494 0.8998 0.0000
vt 0.5418 0.9173 0.0000
vt 0.4366 0.8343 0.0000
vt 0.4517 0.8217 0.0000
vt 0.5349 0.8379 0.0000
vt 0.5198 0.8505 0.0000
vt 0.4746 0.7806 0.0000
vt 0.4849 0.7672 0.0000
vt 0.4360 0.7820 0.0000
vt 0.4464 0.7686 0.0000
vt 0.8136 0.5060 0.0000
vt 0.7945 0.5149 0.0000
vt 0.7246 0.5143 0.0000
vt 0.7063 0.5041 0.0000
vt 0.0138 0.4903 0.0000
vt 0.0436 0.4529 0.0000
vt 0.9719 0.4484 0.0000
vt 0.9816 0.5033 0.0000
vt 0.0588 0.5131 0.0000
vt 0.0556 0.4488 0.0000
vt 0.4980 0.8894 0.0000
vt 0.4732 0.9021 0.0000
vt 0.3864 0.8998 0.0000
vt 0.4111 0.8871 0.0000
vt 0.8675 0.2925 0.0000
vt 0.8713 0.2616 0.0000
vt 0.9582 0.2590 0.0000
vt 0.9544 0.2899 0.0000
# 232 texture coords

g Cylinder02
usemtl 17___Default
s 8
f 1/1/1 2/2/2 3/3/3 
f 1/4/1 4/5/4 5/6/5 
f 4/7/4 6/8/6 7/9/7 5/10/5 
f 8/11/8 7/9/7 6/8/6 
f 8/12/8 9/13/9 10/14/10 
f 9/15/9 11/16/11 12/17/12 10/18/10 
f 13/19/13 12/17/12 11/16/11 
f 13/20/13 14/21/14 15/22/15 
f 14/23/14 16/24/16 17/25/17 15/26/15 
f 18/27/18 17/28/17 16/29/16 
f 18/30/18 19/31/19 20/32/20 
f 19/33/19 3/3/3 2/2/2 20/34/20 
f 21/35/21 22/36/22 23/37/22 24/38/21 
f 22/39/22 25/40/23 26/41/23 23/42/22 
f 25/40/23 27/43/24 28/44/24 26/41/23 
f 27/45/24 29/46/25 30/47/25 28/48/24 
f 29/46/25 31/49/26 32/50/26 30/47/25 
f 31/51/26 33/52/27 34/53/27 32/54/26 
f 33/52/27 35/55/28 36/56/28 34/53/27 
f 35/57/28 21/35/21 24/38/21 36/58/28 
f 37/59/29 38/60/30 39/61/31 40/62/32 
f 41/63/33 42/64/34 43/65/35 44/66/33 
f 42/67/34 37/68/29 40/69/32 43/70/35 
s 1
f 37/71/36 42/72/36 41/73/36 38/74/36 
f 39/75/37 44/76/37 43/77/37 40/78/37 
s off
f 24/79/38 23/80/38 45/81/38 46/82/38 
f 23/80/39 26/83/39 47/84/39 45/81/39 
f 26/83/40 28/85/40 48/86/40 47/84/40 
f 28/85/41 30/87/41 49/88/41 48/86/41 
f 30/87/42 32/89/42 50/90/42 49/88/42 
f 32/89/43 34/91/43 51/92/43 50/90/43 
f 34/91/44 36/93/44 52/94/44 51/92/44 
f 36/93/45 24/79/45 46/82/45 52/94/45 
s 8
f 53/95/46 54/96/47 55/97/47 56/98/46 
f 54/99/47 57/100/48 58/101/48 55/102/47 
f 59/103/49 60/104/50 61/105/50 62/106/49 
f 60/104/50 63/107/51 64/108/51 61/105/50 
f 63/109/51 65/110/52 66/111/52 64/112/51 
f 65/110/52 67/113/53 68/114/53 66/111/52 
f 67/115/53 53/95/46 56/98/46 68/116/53 
s 1
f 62/117/54 58/101/54 57/100/54 59/118/54 
s off
f 56/119/55 55/120/55 69/121/55 70/122/55 
f 55/123/56 58/124/56 71/125/56 69/126/56 
f 62/127/57 61/128/57 72/129/57 73/130/57 
f 61/128/58 64/131/58 74/132/58 72/129/58 
f 64/133/59 66/134/59 75/135/59 74/136/59 
f 66/134/60 68/137/60 76/138/60 75/135/60 
f 68/137/61 56/119/61 70/122/61 76/138/61 
f 58/124/62 62/139/62 73/140/62 71/125/62 
f 2/141/63 1/142/63 77/143/63 78/144/63 
f 1/145/64 5/146/64 77/147/64 
f 5/146/65 7/148/65 79/149/65 77/147/65 
f 7/148/66 8/150/66 80/151/66 79/149/66 
f 8/150/67 10/152/67 80/153/67 
f 10/152/68 12/154/68 81/155/68 80/153/68 
f 12/156/69 13/157/69 82/158/69 81/159/69 
f 13/160/70 15/161/70 82/162/70 
f 15/161/71 17/163/71 83/164/71 82/162/71 
f 17/163/72 18/165/72 84/166/72 83/164/72 
f 18/165/73 20/167/73 84/168/73 
f 20/167/74 2/169/74 78/170/74 84/168/74 
s 8
f 85/171/75 86/172/75 87/173/75 88/174/75 
f 89/175/76 90/176/76 91/177/76 92/178/76 
f 93/179/77 94/180/77 95/181/77 96/182/77 
s off
f 96/183/78 95/184/78 97/185/78 98/186/78 
f 98/187/79 97/188/79 99/189/79 100/190/79 
f 100/191/80 99/192/80 101/193/80 102/194/80 
f 102/195/81 101/196/81 103/197/81 104/198/81 
f 104/199/82 103/200/82 105/201/82 106/202/82 
f 106/203/83 105/204/83 107/205/83 108/206/83 
f 108/207/84 107/208/84 109/209/84 110/210/84 
f 109/211/85 110/212/85 111/213/85 
f 112/214/85 111/213/85 110/212/85 
f 112/215/86 111/216/86 113/217/86 
s 8
f 114/218/87 115/219/88 116/220/89 117/221/90 
s off
f 117/222/91 116/223/91 118/224/91 
f 116/225/92 115/226/92 119/227/92 120/228/92 
f 118/229/93 116/230/93 120/231/93 121/232/93 
# 62 polygons - 16 triangles

