# 3ds Max Wavefront OBJ Exporter v0.97b - (c)2007 guruware
# File Created: 12.07.2011 17:48:03

mtllib sandbag.mtl

#
# object Box01
#

v  21.6100 8.7075 29.4625
v  16.7389 14.4160 14.6076
v  8.1338 19.3875 14.5496
v  6.3276 12.4109 24.3335
v  -5.2657 19.0086 14.5496
v  -3.5397 12.1319 24.3335
v  -14.9910 13.5189 14.5496
v  -18.5869 7.5153 29.4625
v  15.0154 16.7592 -0.3786
v  8.1784 22.0218 -0.3632
v  -5.2211 21.6430 -0.3052
v  -14.6255 17.0641 -0.3632
v  16.0689 14.3970 -15.2761
v  8.1338 19.3875 -15.2761
v  -5.2657 19.0086 -15.2761
v  -14.4550 13.5341 -15.2761
v  21.6110 8.6709 -30.1573
v  6.5794 12.6689 -26.2081
v  -3.8057 12.3753 -25.7925
v  -18.5870 7.5205 -30.1890
v  21.6463 7.4215 29.4625
v  6.5975 2.8607 24.3335
v  8.4965 -1.7873 14.5496
v  17.1055 1.4470 14.5496
v  -3.2697 2.5817 24.3762
v  -4.9030 -2.1661 14.5496
v  -18.5537 6.3409 29.4625
v  -14.6243 0.5500 14.5496
v  8.5376 -3.2433 -0.3632
v  15.5756 -1.3591 -0.2898
v  -4.8618 -3.6221 -0.3632
v  -14.1620 -1.5717 -0.3632
v  8.4965 -1.7873 -15.2761
v  16.4355 1.4280 -15.2761
v  -4.9030 -2.1661 -15.2181
v  -14.0883 0.5651 -15.2761
v  6.8636 2.6173 -26.2081
v  21.6453 7.4582 -30.1627
v  -3.5216 2.3237 -25.7925
v  -18.5535 6.3357 -30.1890
# 40 vertices

vn 0.2229 0.8766 0.4264
vn 0.5096 0.8476 0.1477
vn 0.1894 0.9249 0.3295
vn -0.0101 0.8150 0.5793
vn -0.2445 0.8914 0.3817
vn -0.1573 0.8440 0.5128
vn -0.3713 0.8619 0.3454
vn -0.1714 0.9275 0.3321
vn 0.5967 0.8017 -0.0353
vn 0.2879 0.9576 -0.0128
vn -0.2403 0.9707 -0.0072
vn -0.4483 0.8936 -0.0205
vn 0.4137 0.8632 -0.2894
vn 0.2576 0.9049 -0.3388
vn -0.2322 0.9205 -0.3143
vn -0.4907 0.8506 -0.1890
vn 0.1716 0.9392 -0.2975
vn 0.1278 0.8807 -0.4562
vn -0.0751 0.8415 -0.5350
vn -0.2956 0.8661 -0.4032
vn 0.2173 -0.9045 0.3669
vn 0.0729 -0.8955 0.4390
vn 0.1663 -0.9551 0.2450
vn 0.3334 -0.9219 0.1973
vn -0.0733 -0.9099 0.4084
vn -0.1160 -0.9536 0.2778
vn -0.1197 -0.9357 0.3318
vn -0.2157 -0.9371 0.2745
vn 0.1518 -0.9884 0.0092
vn 0.2768 -0.9606 0.0237
vn -0.0996 -0.9950 -0.0073
vn -0.2255 -0.9741 -0.0152
vn 0.1912 -0.9480 -0.2546
vn 0.3215 -0.9093 -0.2642
vn -0.1134 -0.9666 -0.2298
vn -0.2670 -0.9420 -0.2031
vn 0.1452 -0.9231 -0.3561
vn 0.2244 -0.9280 -0.2974
vn -0.0547 -0.9179 -0.3930
vn -0.1903 -0.9180 -0.3479
vn -0.3201 -0.0091 0.9473
vn -0.1469 -0.0029 0.9892
vn -0.1457 -0.0041 0.9893
vn 0.1470 0.0085 0.9891
vn 0.1483 0.0074 0.9889
vn 0.3201 0.0090 0.9473
vn 0.3197 0.0104 0.9475
vn -0.9692 -0.0274 -0.2447
vn -0.9929 -0.0269 -0.1160
vn -0.9927 -0.0281 -0.1176
vn -0.9995 -0.0256 -0.0186
vn -0.9995 -0.0256 -0.0187
vn -0.9936 -0.0281 0.1094
vn -0.9934 -0.0269 0.1117
vn -0.9605 -0.0272 0.2771
vn 0.2827 0.0080 -0.9592
vn 0.1071 0.0030 -0.9942
vn -0.1383 -0.0038 -0.9904
vn -0.1384 -0.0039 -0.9904
vn -0.2548 -0.0029 -0.9670
vn -0.2553 -0.0044 -0.9669
vn 0.9403 0.0257 0.3395
vn 0.9833 0.0288 0.1797
vn 0.9837 0.0278 0.1778
vn 0.9404 0.0251 0.3392
vn 0.9993 0.0304 -0.0215
vn 0.9993 0.0301 -0.0223
vn 0.9814 0.0286 -0.1900
vn 0.9817 0.0291 -0.1883
vn 0.9529 0.0269 -0.3021
vn 0.9530 0.0275 -0.3019
# 71 vertex normals

vt -0.9935 0.9819 0.0000
vt -0.9268 0.7929 0.0000
vt -0.8113 0.7927 0.0000
vt -0.7894 0.9175 0.0000
vt -0.6334 0.7935 0.0000
vt -0.6584 0.9180 0.0000
vt -0.6618 0.9129 0.0000
vt -0.6521 0.7786 0.0000
vt -0.5116 0.7979 0.0000
vt -0.4549 0.9841 0.0000
vt -0.9025 0.6020 0.0000
vt -0.8105 0.6026 0.0000
vt -0.6326 0.6041 0.0000
vt -0.5087 0.6039 0.0000
vt -0.5055 0.7940 0.0000
vt -0.9163 0.4121 0.0000
vt -0.8097 0.4126 0.0000
vt -0.6318 0.4133 0.0000
vt -0.5110 0.4139 0.0000
vt -0.9904 0.2221 0.0000
vt -0.7900 0.2733 0.0000
vt -0.6522 0.2792 0.0000
vt -0.4567 0.2240 0.0000
vt -0.9860 -0.7750 0.0000
vt -0.7923 -0.7084 0.0000
vt -0.8184 -0.5829 0.0000
vt -0.9292 -0.5834 0.0000
vt -0.6645 -0.7085 0.0000
vt -0.6449 -0.5823 0.0000
vt -0.4655 -0.7730 0.0000
vt -0.5184 -0.5818 0.0000
vt -0.8199 -0.3916 0.0000
vt -0.9107 -0.3928 0.0000
vt -0.6465 -0.3909 0.0000
vt -0.5255 -0.3905 0.0000
vt -0.8198 -0.2002 0.0000
vt -0.9219 -0.2005 0.0000
vt -0.6463 -0.2003 0.0000
vt -0.5267 -0.1991 0.0000
vt -0.7982 -0.0598 0.0000
vt -0.9888 -0.0097 0.0000
vt -0.6637 -0.0646 0.0000
vt -0.4684 -0.0075 0.0000
vt 0.2163 -0.4410 0.0000
vt 0.3378 -0.4731 0.0000
vt 0.3372 -0.3967 0.0000
vt 0.2163 -0.4307 0.0000
vt 0.4167 -0.4724 0.0000
vt 0.4161 -0.3961 0.0000
vt 0.5377 -0.4380 0.0000
vt 0.5376 -0.4286 0.0000
vt -0.1110 -0.8952 0.0000
vt -0.3516 -0.8190 0.0000
vt -0.3539 -0.9775 0.0000
vt -0.1112 -0.9095 0.0000
vt -0.5099 -0.7964 0.0000
vt -0.5132 -0.9738 0.0000
vt -0.8572 -0.8284 0.0000
vt -0.8585 -0.9583 0.0000
vt -0.9950 -0.8877 0.0000
vt -0.9951 -0.8996 0.0000
vt 0.2258 -0.3006 0.0000
vt 0.3448 -0.3367 0.0000
vt 0.3452 -0.2564 0.0000
vt 0.2259 -0.2911 0.0000
vt 0.4278 -0.3372 0.0000
vt 0.4283 -0.2569 0.0000
vt 0.5472 -0.3026 0.0000
vt 0.5472 -0.2929 0.0000
vt 1.0282 -0.9107 0.0000
vt 0.7731 -0.8585 0.0000
vt 0.7635 -0.9665 0.0000
vt 1.0274 -0.9208 0.0000
vt 0.5153 -0.8336 0.0000
vt 0.5003 -0.9845 0.0000
vt 0.2525 -0.8476 0.0000
vt 0.2439 -0.9556 0.0000
vt -0.0105 -0.8891 0.0000
vt -0.0115 -0.8998 0.0000
# 79 texture coords

g Box01
usemtl Material__34
s 2
f 1/1/1 2/2/2 3/3/3 4/4/4 
f 4/4/4 3/3/3 5/5/5 6/6/6 
f 6/7/6 5/8/5 7/9/7 8/10/8 
f 2/2/2 9/11/9 10/12/10 3/3/3 
f 3/3/3 10/12/10 11/13/11 5/5/5 
f 5/5/5 11/13/11 12/14/12 7/15/7 
f 9/11/9 13/16/13 14/17/14 10/12/10 
f 10/12/10 14/17/14 15/18/15 11/13/11 
f 11/13/11 15/18/15 16/19/16 12/14/12 
f 13/16/13 17/20/17 18/21/18 14/17/14 
f 14/17/14 18/21/18 19/22/19 15/18/15 
f 15/18/15 19/22/19 20/23/20 16/19/16 
s 4
f 21/24/21 22/25/22 23/26/23 24/27/24 
f 22/25/22 25/28/25 26/29/26 23/26/23 
f 25/28/25 27/30/27 28/31/28 26/29/26 
f 24/27/24 23/26/23 29/32/29 30/33/30 
f 23/26/23 26/29/26 31/34/31 29/32/29 
f 26/29/26 28/31/28 32/35/32 31/34/31 
f 30/33/30 29/32/29 33/36/33 34/37/34 
f 29/32/29 31/34/31 35/38/35 33/36/33 
f 31/34/31 32/35/32 36/39/36 35/38/35 
f 34/37/34 33/36/33 37/40/37 38/41/38 
f 33/36/33 35/38/35 39/42/39 37/40/37 
f 35/38/35 36/39/36 40/43/40 39/42/39 
s 8
f 1/44/41 4/45/42 22/46/43 21/47/41 
f 4/45/42 6/48/44 25/49/45 22/46/43 
f 6/48/44 8/50/46 27/51/47 25/49/45 
s 16
f 8/52/48 7/53/49 28/54/50 27/55/48 
f 7/53/49 12/56/51 32/57/52 28/54/50 
f 12/56/51 16/58/53 36/59/54 32/57/52 
f 16/58/53 20/60/55 40/61/55 36/59/54 
s 32
f 20/62/56 19/63/57 39/64/57 40/65/56 
f 19/63/57 18/66/58 37/67/59 39/64/57 
f 18/66/58 17/68/60 38/69/61 37/67/59 
s 64
f 17/70/62 13/71/63 34/72/64 38/73/65 
f 13/71/63 9/74/66 30/75/67 34/72/64 
f 9/74/66 2/76/68 24/77/69 30/75/67 
f 2/76/68 1/78/70 21/79/71 24/77/69 
# 38 polygons

