# Exported from Wings 3D 1.4.1
mtllib Enclave officer.mtl
o Encl_off_hat
#30 vertices, 21 faces
v -5.83321905 97.51504068 1.52798901
v -4.72236063 97.94300507 -2.42433919
v -1.81409553 97.49294784 -4.86701235
v 1.78071783 97.49294784 -4.86701235
v 4.68898293 97.94300507 -2.42433919
v 5.79984134 97.51504068 1.52798901
v 4.68898293 97.01250470 5.48031721
v 1.78071783 96.74800816 7.92299037
v -1.81409553 96.74800816 7.92299037
v -4.72236063 97.01250470 5.48031721
v -5.83321905 91.50439970 0.84528775
v -4.72236063 90.69754395 -8.34359250
v -1.81409553 90.96204049 -9.75724889
v 1.78071783 90.96204049 -9.75724889
v 4.68898293 90.69754395 -8.34359250
v 5.79984134 91.50439970 0.84528775
v 4.68898293 91.07643531 4.79761595
v 1.78071783 90.81193877 7.24028912
v -1.81409553 90.81193877 7.24028912
v -4.72236063 91.07643531 4.79761595
v -4.72236063 92.66524654 -2.98204367
v -5.03553513 91.81171187 -1.99279547
v -1.81409553 92.92974308 -5.42471683
v 1.78071783 92.92974308 -5.42471683
v 4.68898293 92.66524654 -2.98204367
v 5.00215743 91.81171187 -1.99279547
v -1.36508389 92.07186386 -4.39534589
v 1.33170619 92.07186386 -4.39534589
v -1.6688853e-2 90.81193877 7.24028912
v -1.6688853e-2 96.74800816 7.92299037
vt 0.0000000e+0 0.15578465
vt 0.0000000e+0 0.96837940
vt 1.4619387e-3 0.0000000e+0
vt 8.4960482e-3 0.80029490
vt 4.5408687e-2 0.15621078
vt 4.6870626e-2 4.2613133e-4
vt 4.7055013e-2 0.45811519
vt 8.1759821e-2 0.32696972
vt 8.3287858e-2 0.76549586
vt 8.3303384e-2 0.58913006
vt 9.4630221e-2 0.90825996
vt 0.14287989 0.15755115
vt 0.14434183 1.7665015e-3
vt 0.16276328 0.90826077
vt 0.17410902 0.76549693
vt 0.17660471 0.66950679
vt 0.17660471 0.24750992
vt 0.23397272 0.66950679
vt 0.24890141 0.80029472
vt 0.25025038 0.15924749
vt 0.25194487 1.5333584e-3
vt 0.25739401 0.96837940
vt 0.29134074 0.66950679
vt 0.29134074 0.24750992
vt 0.29482289 0.96294006
vt 0.32598998 0.94713332
vt 0.32735083 0.16046711
vt 0.32948038 0.79837969
vt 0.35678512 0.14157956
vt 0.35931537 3.2294218e-3
vt 0.38464207 0.58913006
vt 0.38618563 0.32696972
vt 0.40609293 0.76796757
vt 0.40624857 0.89193901
vt 0.42089044 0.45811519
vt 0.45425212 0.14319672
vt 0.45517045 2.3338395e-2
vt 0.49684454 0.76785363
vt 0.49700018 0.89182508
vt 0.52326003 0.40667467
vt 0.54507083 0.14389256
vt 0.54598916 2.4034231e-2
vt 0.55191794 0.30083471
vt 0.56316917 0.55406789
vt 0.57338706 0.79844159
vt 0.57714202 0.94718877
vt 0.60833717 0.96294006
vt 0.64213906 5.3857366e-3
vt 0.64255115 0.14375840
vt 0.66765264 0.64516191
vt 0.67169362 0.16309318
vt 0.68378400 0.21123698
vt 0.73222697 0.64516191
vt 0.74880370 0.16305509
vt 0.74952293 5.3334907e-3
vt 0.78066994 0.21123698
vt 0.79680131 0.64516191
vt 0.85618758 0.16300205
vt 0.85710981 7.2132744e-3
vt 0.90128478 0.55406789
vt 0.91253601 0.30083471
vt 0.94119391 0.40667467
vt 0.95366788 0.16315346
vt 0.95459011 7.3646796e-3
vt 0.99907777 0.16342227
vt 1.00000000 7.6334951e-3
vn -0.88756838 0.45945140 3.3567729e-2
vn -0.73685148 0.51248864 -0.44091415
vn -0.29507629 0.55641845 -0.77674223
vn 0.29507629 0.55641845 -0.77674223
vn 0.73685148 0.51248864 -0.44091415
vn 0.88756838 0.45945140 3.3567729e-2
vn 0.75228674 0.41129250 0.51468742
vn 0.30811385 0.37989722 0.87220637
vn -0.30811385 0.37989722 0.87220637
vn -0.75228674 0.41129250 0.51468742
vn -0.83041485 0.35836971 -0.42659387
vn -0.28441288 0.59446285 -0.75214575
vn 0.28441288 0.59446285 -0.75214575
vn 0.83041485 0.35836971 -0.42659387
vn 6.1615501e-2 -0.99371709 9.3433851e-2
vn -6.1615501e-2 -0.99371709 9.3433851e-2
vn 5.6915112e-18 0.34940733 0.93697093
vn -4.5314560e-18 -0.99418860 -0.10765232
vn -0.99999963 -1.4087054e-4 -8.4962549e-4
vn -0.99999963 -1.4087054e-4 -8.4962549e-4
vn -0.72611179 0.63897465 -0.25391546
vn 0.18228277 -0.96637184 0.18137934
vn -0.72611179 0.63897465 -0.25391546
vn -0.16035534 0.90661985 -0.39029043
vn 9.1529453e-2 -0.97694982 0.19285077
vn 9.1529453e-2 -0.97694982 0.19285077
vn -0.16035534 0.90661985 -0.39029043
vn 0.16035534 0.90661985 -0.39029043
vn -9.1529453e-2 -0.97694982 0.19285077
vn -9.1529453e-2 -0.97694982 0.19285077
vn 0.16035534 0.90661985 -0.39029043
vn 0.72611179 0.63897465 -0.25391546
vn -0.18228277 -0.96637184 0.18137934
vn 0.72611179 0.63897465 -0.25391546
vn -4.5314560e-18 -0.99418860 -0.10765232
vn 0.99999963 -1.4087054e-4 -8.4962549e-4
vn 0.99999963 -1.4087054e-4 -8.4962549e-4
vn -4.5314560e-18 -0.99418860 -0.10765232
vn 0.84148532 -6.1631122e-2 0.53675326
vn 0.84148532 -6.1631122e-2 0.53675326
vn -4.5314560e-18 -0.99418860 -0.10765232
vn 0.34358647 -0.10730005 0.93297108
vn 0.34358647 -0.10730005 0.93297108
vn -4.5314560e-18 -0.99418860 -0.10765232
vn -0.34358647 -0.10730005 0.93297108
vn -0.34358647 -0.10730005 0.93297108
vn -4.5314560e-18 -0.99418860 -0.10765232
vn -0.84148532 -6.1631122e-2 0.53675326
vn -0.84148532 -6.1631122e-2 0.53675326
vn 9.2510733e-2 -0.99500839 3.7417360e-2
vn -0.97323535 0.14065432 -0.18173968
vn -0.97323535 0.14065432 -0.18173968
vn 9.2510733e-2 -0.99500839 3.7417360e-2
vn -9.2510733e-2 -0.99500839 3.7417360e-2
vn 0.97323535 0.14065432 -0.18173968
vn 0.97323535 0.14065432 -0.18173968
vn -9.2510733e-2 -0.99500839 3.7417360e-2
vn -4.5314560e-18 -0.99418860 -0.10765232
vn 0.0000000e+0 -0.11425582 0.99345136
vn 0.0000000e+0 -0.11425582 0.99345136
g Encl_off_hat_cylinder14_auv
usemtl cylinder14_auv
s 1
f 1/35/1 10/31/10 9/23/9 30/18/17 8/16/8 7/10/7 6/7/6 5/8/5 4/17/4 3/24/3 2/32/2
f 1/21/1 11/20/19 20/12/48 10/13/10
f 2/30/2 21/29/11 22/27/51 11/20/20 1/21/1
f 3/37/3 23/36/12 21/29/11 2/30/2
f 4/42/4 24/41/13 23/36/12 3/37/3
f 5/48/5 25/49/14 24/41/13 4/42/4
f 6/55/6 16/54/37 26/51/55 25/49/14 5/48/5
f 7/59/7 17/58/40 16/54/36 6/55/6
f 8/64/8 18/63/42 17/58/39 7/59/7
f 10/13/10 20/12/49 19/5/45 9/6/9
f 12/45/23 21/46/11 23/39/12 13/38/27
f 12/45/21 22/47/52 21/46/11
f 13/38/24 23/39/12 24/34/13 14/33/28
f 14/33/31 24/34/13 25/26/14 15/28/34
f 15/28/32 25/26/14 26/25/56
f 19/5/46 29/1/59 30/3/17 9/6/9
f 30/66/17 29/65/60 18/63/43 8/64/8
s 2
f 13/9/25 27/11/15 22/2/53 12/4/22
f 14/15/29 28/14/16 27/11/15 13/9/26
f 15/19/33 26/22/57 28/14/16 14/15/30
f 22/43/50 27/52/15 28/56/16 26/61/54 16/62/35 17/60/38 18/57/41 29/53/58 19/50/44 20/44/47 11/40/18
