# 3ds Max Wavefront OBJ Exporter v0.97b - (c)2007 guruware
# File Created: 07.11.2011 21:31:21

mtllib goo.mtl

#
# object Plane01
#

v  -13.2816 1.0405 17.8506
v  -7.4723 0.9604 20.2952
v  -7.4723 3.5729 11.3468
v  -14.3186 1.1206 11.0827
v  -0.5409 0.9604 18.8734
v  -0.8302 4.7471 11.3468
v  6.2215 0.9604 19.2017
v  5.4366 7.3563 13.1573
v  9.3912 0.9604 11.4675
v  -7.4723 7.8782 2.3985
v  -13.2712 0.9604 3.7069
v  -0.8302 2.0074 2.3985
v  5.8119 3.8316 2.3985
v  13.7662 0.9604 5.0153
v  -7.4723 2.7902 -6.5499
v  -15.7519 0.9604 -6.4038
v  -0.8302 10.5730 -6.5499
v  5.8119 6.8345 -6.5499
v  11.9359 0.9604 -6.2578
v  -9.1593 0.9604 -14.6428
v  -0.8302 0.9604 -15.4982
v  5.8119 0.9604 -15.4982
v  10.0144 0.9604 -12.2451
# 23 vertices

vn -0.2051 0.9600 0.1906
vn -0.0600 0.9415 0.3317
vn -0.1297 0.9654 0.2261
vn -0.4647 0.8771 0.1217
vn -0.0625 0.8397 0.5395
vn -0.2577 0.9660 0.0219
vn 0.3483 0.6661 0.6596
vn 0.2087 0.9443 0.2544
vn 0.8033 0.3743 0.4633
vn -0.2099 0.9668 0.1458
vn -0.6786 0.7194 -0.1484
vn 0.1561 0.9630 0.2197
vn 0.1191 0.9922 -0.0366
vn 0.5022 0.8644 -0.0221
vn -0.4694 0.8313 -0.2976
vn -0.2163 0.9756 -0.0373
vn -0.0340 0.9921 -0.1208
vn 0.5015 0.8652 -0.0029
vn 0.6126 0.7897 -0.0338
vn -0.0960 0.9750 -0.2004
vn -0.1823 0.7770 -0.6025
vn 0.2423 0.7509 -0.6143
vn 0.5208 0.7564 -0.3959
vn 0.0000 -1.0000 -0.0000
vn -0.0071 -0.9998 0.0207
vn -0.0067 -1.0000 -0.0028
vn -0.0033 -0.9999 -0.0113
vn -0.0045 -0.9997 -0.0220
vn 0.0094 -0.9809 -0.1943
# 29 vertex normals

vt 0.4434 0.8813 0.0000
vt 0.2833 0.8831 0.0000
vt 0.4238 0.8143 0.0000
vt 0.5721 0.8824 0.0000
vt 0.2258 0.7442 0.0000
vt 0.2975 0.6766 0.0000
vt 0.1246 0.6309 0.0000
vt 0.2172 0.6017 0.0000
vt 0.0784 0.4897 0.0000
vt 0.5943 0.6446 0.0000
vt 0.6438 0.7191 0.0000
vt 0.3744 0.4919 0.0000
vt 0.2798 0.4364 0.0000
vt 0.1273 0.3253 0.0000
vt 0.6881 0.4954 0.0000
vt 0.8783 0.5959 0.0000
vt 0.5673 0.3483 0.0000
vt 0.4353 0.3171 0.0000
vt 0.3532 0.2382 0.0000
vt 0.9013 0.2992 0.0000
vt 0.7920 0.0775 0.0000
vt 0.6432 0.1118 0.0000
vt 0.5348 0.2082 0.0000
vt 0.7546 0.5273 0.0000
vt 0.6712 0.7099 0.0000
vt 0.3167 0.4132 0.0000
vt 0.3800 0.2407 0.0000
vt 0.5486 0.1887 0.0000
vt 0.7859 0.4206 0.0000
vt 0.5499 0.7588 0.0000
vt 0.2317 0.5096 0.0000
vt 0.4326 0.8386 0.0000
vt 0.1808 0.6186 0.0000
vt 0.3440 0.7643 0.0000
vt 0.2362 0.7138 0.0000
vt 0.6699 0.2619 0.0000
vt 0.7601 0.3301 0.0000
# 37 texture coords

g Plane01
usemtl Material__25
s 1
f 1/1/1 2/2/2 3/3/3 4/4/4 
f 2/2/2 5/5/5 6/6/6 3/3/3 
f 5/5/5 7/7/7 8/8/8 6/6/6 
f 8/8/8 7/7/7 9/9/9 
f 4/4/4 3/3/3 10/10/10 11/11/11 
f 3/3/3 6/6/6 12/12/12 10/10/10 
f 6/6/6 8/8/8 13/13/13 12/12/12 
f 8/8/8 9/9/9 14/14/14 13/13/13 
f 11/11/11 10/10/10 15/15/15 16/16/16 
f 10/10/10 12/12/12 17/17/17 15/15/15 
f 12/12/12 13/13/13 18/18/18 17/17/17 
f 13/13/13 14/14/14 19/19/19 18/18/18 
f 16/16/16 15/15/15 20/20/20 
f 15/15/15 17/17/17 21/21/21 20/20/20 
f 17/17/17 18/18/18 22/22/22 21/21/21 
f 18/18/18 19/19/19 23/23/23 22/22/22 
s off
f 19/24/24 14/25/24 11/26/24 
f 11/26/24 16/27/24 19/24/24 
f 19/24/24 16/27/24 20/28/24 
f 20/28/24 23/29/24 19/24/24 
f 11/26/24 14/25/24 9/30/24 
f 9/30/25 4/31/25 11/26/25 
f 4/31/26 9/30/26 7/32/26 
f 7/32/27 1/33/27 4/31/27 
f 5/34/28 2/35/28 1/33/28 
f 7/32/29 5/34/29 1/33/29 
f 21/36/24 22/37/24 23/29/24 
f 23/29/24 20/28/24 21/36/24 
# 14 polygons - 14 triangles

