# 3ds Max Wavefront OBJ Exporter v0.97b - (c)2007 guruware
# File Created: 18.10.2011 20:37:29

mtllib rubber_boots.mtl

#
# object Cylinder01
#

v  -5.1821 6.1507 -3.6775
v  -2.9521 -0.2550 2.1378
v  -1.4478 -0.2550 -14.1417
v  -2.8911 3.3840 -13.2252
v  -12.8257 20.3103 3.7175
v  -2.0651 20.3103 3.5510
v  -4.4773 20.3103 -4.6425
v  -10.5902 20.3103 -4.5259
v  -9.8648 6.1507 -3.5763
v  -11.9692 -0.2550 2.2855
v  -12.3516 3.3840 -13.1354
v  -13.8335 -0.2550 -14.0483
v  5.5318 6.1507 -2.8995
v  5.3570 -0.2550 3.3263
v  12.9990 -0.2550 -11.1266
v  11.3144 3.3840 -10.8348
v  -4.3660 20.3103 0.9923
v  5.6332 20.3103 4.9718
v  6.5532 20.3103 -3.5197
v  0.8644 20.3103 -5.7601
v  1.1694 6.1507 -4.6047
v  -3.0251 -0.2550 -0.0009
v  2.5451 3.3840 -14.3857
v  1.5275 -0.2550 -15.7978
# 24 vertices

vn 0.7280 0.4073 -0.5515
vn 0.7601 0.0935 0.6431
vn 0.6850 0.4362 -0.5835
vn 0.5295 0.6623 -0.5300
vn -0.6602 0.5364 0.5258
vn 0.6713 0.5364 0.5115
vn 0.4798 0.5696 -0.6674
vn -0.4940 0.5696 -0.6569
vn -0.7398 0.4074 -0.5355
vn -0.7461 0.0935 0.6593
vn -0.5355 0.6651 -0.5204
vn -0.6923 0.4410 -0.5712
vn 0.8816 0.4303 -0.1940
vn 0.4589 0.1075 0.8819
vn 0.8559 0.4369 -0.2768
vn 0.6922 0.6619 -0.2878
vn -0.8188 0.5281 0.2250
vn 0.4367 0.5286 0.7279
vn 0.7082 0.5610 -0.4286
vn -0.2190 0.5622 -0.7975
vn -0.5065 0.4251 -0.7502
vn -0.9406 0.1082 0.3219
vn -0.2954 0.6648 -0.6862
vn -0.4202 0.4414 -0.7929
# 24 vertex normals

vt 0.1937 0.8254 0.0000
vt 0.0426 0.9861 0.0000
vt 0.0103 0.5741 0.0000
vt 0.1046 0.5887 0.0000
vt 0.0088 0.3039 0.0000
vt 0.3861 0.1886 0.0000
vt 0.2683 0.0057 0.0000
vt 0.0042 0.0865 0.0000
vt 0.2646 0.7536 0.0000
vt 0.5323 0.7475 0.0000
vt 0.5162 0.5833 0.0000
vt 0.2507 0.6111 0.0000
vt 0.5667 0.9821 0.0000
vt 0.5617 0.7840 0.0000
vt 0.2216 0.4683 0.0000
vt 0.5469 0.3108 0.0000
vt 0.5384 0.2088 0.0000
vt 0.1461 0.3986 0.0000
vt 0.4525 0.4035 0.0000
vt 0.2160 0.4676 0.0000
vt 0.1608 0.3301 0.0000
vt 0.3903 0.2485 0.0000
vt 0.5132 0.7182 0.0000
vt 0.3178 0.7296 0.0000
vt 0.2627 0.5999 0.0000
vt 0.4289 0.5230 0.0000
# 26 texture coords

g Cylinder01
usemtl 02___Default
s 1
f 1/1/1 2/2/2 3/3/3 4/4/4 
f 5/5/5 6/6/6 7/7/7 8/8/8 
f 9/9/9 8/10/8 7/11/7 1/12/1 
f 5/13/5 8/14/8 9/1/9 10/2/10 
f 11/15/11 4/16/4 3/17/3 12/18/12 
f 5/19/5 10/20/10 2/21/2 6/22/6 
f 11/23/11 9/24/9 1/25/1 4/26/4 
f 6/13/6 2/2/2 1/1/1 7/14/7 
f 9/1/9 11/4/11 12/3/12 10/2/10 
f 13/1/13 14/2/14 15/3/15 16/4/16 
f 17/5/17 18/6/18 19/7/19 20/8/20 
f 21/9/21 20/10/20 19/11/19 13/12/13 
f 17/13/17 20/14/20 21/1/21 22/2/22 
f 23/15/23 16/16/16 15/17/15 24/18/24 
f 17/19/17 22/20/22 14/21/14 18/22/18 
f 23/23/23 21/24/21 13/25/13 16/26/16 
f 18/13/18 14/2/14 13/1/13 19/14/19 
f 21/1/21 23/4/23 24/3/24 22/2/22 
# 18 polygons

