# 3ds Max Wavefront OBJ Exporter v0.97b - (c)2007 guruware
# File Created: 26.05.2011 23:37:31

mtllib paramedics_bag.mtl

#
# object Sphere02
#

v  -3.4768 32.2778 20.0338
v  -7.3623 38.4454 20.5781
v  -4.3152 38.1836 24.1344
v  -1.9715 32.3188 24.9569
v  -11.1688 33.3050 17.8615
v  -8.4268 38.5903 20.3276
v  -10.6374 39.4258 19.7821
v  -13.6402 39.3181 19.4431
v  -22.3113 35.1596 21.5313
v  -18.7225 40.1958 21.7079
v  -14.9831 39.5098 19.2946
v  -19.3719 34.4979 17.3567
v  -20.8305 35.2127 26.6105
v  -15.9423 39.9799 25.3795
v  -12.9034 34.1550 28.8657
v  -14.5868 39.7963 25.7146
v  -11.6656 39.9297 26.3051
v  -9.3815 39.0679 26.5647
v  -8.3215 38.9155 26.6630
v  -4.9355 32.9927 29.2875
v  -4.6812 26.9961 21.8845
v  -3.5772 27.0057 25.1142
v  -12.3287 28.0533 20.3934
v  -19.8847 29.1195 19.3239
v  -21.9235 29.5681 22.0244
v  -20.8346 29.5851 25.3504
v  -13.3477 28.5527 26.8578
v  -5.6312 27.4617 27.9110
v  -12.8705 28.0067 23.5720
v  -11.0004 40.5809 22.8954
v  -4.3254 38.1151 24.1381
v  -7.3681 38.3763 20.5825
v  -10.7254 38.8343 19.8139
v  -14.9665 39.4375 19.3028
v  -18.7327 40.1273 21.7116
v  -15.9723 39.9141 25.3799
v  -11.7536 39.3382 26.3369
v  -8.3530 38.8499 26.6631
v  -13.7957 41.9684 20.2799
v  -13.0902 41.5503 20.3455
v  -8.7070 41.9058 25.5128
v  -9.3662 41.6663 25.5079
v  -8.6939 41.3271 21.0622
v  -8.0302 41.5742 21.2192
v  -13.7545 41.8902 24.8256
v  -14.4725 42.3001 24.5735
v  -11.9545 43.9339 21.7983
v  -11.7096 43.4382 21.7972
v  -9.5095 43.5422 23.1843
v  -9.9122 43.1043 23.2353
v  -9.7594 43.0840 22.1385
v  -9.3522 43.5294 22.2397
v  -11.8544 43.4592 22.9284
v  -12.1118 43.9467 22.7429
v  -10.5870 44.0971 22.0012
v  -10.6450 43.6446 21.9523
v  -10.7443 44.1099 22.9459
v  -10.7937 43.6652 23.0663
# 58 vertices

vn 0.6856 -0.0302 -0.7273
vn 0.4394 0.3656 -0.8205
vn 0.8526 0.4840 0.1970
vn 0.9834 0.0709 0.1668
vn 0.1676 -0.0818 -0.9825
vn 0.2839 0.2805 -0.9169
vn 0.2096 0.2761 -0.9380
vn 0.1097 0.2799 -0.9537
vn -0.9394 0.2790 -0.1991
vn -0.7160 0.6397 -0.2794
vn -0.1149 0.3754 -0.9197
vn -0.4249 0.1572 -0.8915
vn -0.6701 0.2155 0.7103
vn -0.3379 0.5579 0.7580
vn -0.1634 0.0698 0.9841
vn -0.1728 0.4405 0.8810
vn -0.0779 0.4180 0.9051
vn 0.0159 0.4025 0.9153
vn 0.2276 0.4447 0.8663
vn 0.4719 0.1541 0.8681
vn 0.3975 -0.7816 -0.4807
vn 0.6337 -0.7595 0.1470
vn -0.0092 -0.8331 -0.5531
vn -0.4058 -0.6929 -0.5960
vn -0.8079 -0.5837 -0.0812
vn -0.5865 -0.5975 0.5468
vn -0.2240 -0.7408 0.6333
vn 0.2245 -0.7051 0.6726
vn -0.1468 -0.9878 0.0514
vn 0.1596 0.9853 -0.0612
vn 0.3496 0.9367 -0.0189
vn 0.3295 0.8858 -0.3268
vn 0.2015 0.8597 -0.4693
vn 0.0429 0.9374 -0.3456
vn -0.0452 0.9952 -0.0863
vn -0.0393 0.9820 0.1849
vn 0.0738 0.9327 0.3530
vn 0.2356 0.9353 0.2641
vn 0.1886 0.3057 -0.9333
vn -0.0741 0.3620 0.9292
vn 0.2076 0.2546 -0.9445
vn -0.1356 0.4160 0.8992
vn 0.3848 0.3397 -0.8582
vn -0.4175 0.6943 0.5863
vn -0.0779 0.4519 -0.8887
vn 0.2134 0.6058 0.7665
vn 0.1335 0.0784 -0.9879
vn -0.0679 0.2236 0.9723
vn 0.2209 0.0485 -0.9741
vn -0.1742 0.2718 0.9465
# 50 vertex normals

vt 0.0230 0.4275 0.0000
vt 0.0510 0.2187 0.0000
vt 0.1736 0.2238 0.0000
vt 0.2075 0.4370 0.0000
vt 0.6927 0.4410 0.0000
vt 0.7724 0.2288 0.0000
vt 0.8259 0.2299 0.0000
vt 1.0007 0.4410 0.0000
vt 0.6927 0.2096 0.0000
vt 0.5784 0.2299 0.0000
vt 0.2003 0.4326 0.0000
vt 0.1736 0.2228 0.0000
vt 0.0492 0.2219 0.0000
vt 0.0213 0.4319 0.0000
vt 0.3797 0.4308 0.0000
vt 0.3618 0.2378 0.0000
vt 0.2275 0.2260 0.0000
vt 0.1974 0.4291 0.0000
vt 0.6926 0.4416 0.0000
vt 0.7718 0.2294 0.0000
vt 0.8257 0.2299 0.0000
vt 1.0101 0.4416 0.0000
vt 0.6926 0.2102 0.0000
vt 0.5776 0.2298 0.0000
vt 0.1961 0.4359 0.0000
vt 0.2270 0.2261 0.0000
vt 0.3625 0.2367 0.0000
vt 0.3780 0.4315 0.0000
vt 0.0828 0.6538 0.0000
vt 0.0207 0.4349 0.0000
vt 0.1990 0.4349 0.0000
vt 0.1990 0.6538 0.0000
vt 0.6927 0.6521 0.0000
vt 0.9948 0.6521 0.0000
vt 0.3906 0.6521 0.0000
vt 0.3752 0.4410 0.0000
vt 0.2017 0.6537 0.0000
vt 0.2017 0.4348 0.0000
vt 0.3797 0.4348 0.0000
vt 0.3177 0.6537 0.0000
vt 0.0818 0.6537 0.0000
vt 0.0175 0.4348 0.0000
vt 0.6926 0.6528 0.0000
vt 0.9887 0.6528 0.0000
vt 0.3905 0.6528 0.0000
vt 0.3754 0.4397 0.0000
vt 0.3800 0.4349 0.0000
vt 0.3156 0.6538 0.0000
vt 0.2093 0.8015 0.0000
vt 0.0457 0.8769 0.0000
vt 0.0123 0.8015 0.0000
vt 0.2093 0.8820 0.0000
vt 0.3697 0.8769 0.0000
vt 0.4032 0.8015 0.0000
vt 0.3697 0.7236 0.0000
vt 0.2093 0.7175 0.0000
vt 0.0457 0.7236 0.0000
vt 0.6528 0.8069 0.0000
vt 0.3787 0.8044 0.0000
vt 0.5195 0.6925 0.0000
vt 0.6542 0.6862 0.0000
vt 0.8214 0.6953 0.0000
vt 0.9512 0.8097 0.0000
vt 0.8206 0.9275 0.0000
vt 0.6513 0.9352 0.0000
vt 0.5178 0.9248 0.0000
vt 0.5260 0.2299 0.0000
vt 0.5247 0.2305 0.0000
vt 0.5639 0.1319 0.0000
vt 0.5963 0.1439 0.0000
vt 0.5625 0.1305 0.0000
vt 0.5960 0.1448 0.0000
vt 0.7449 0.1368 0.0000
vt 0.7695 0.1240 0.0000
vt 0.7440 0.1352 0.0000
vt 0.7701 0.1264 0.0000
vt 0.6245 0.0689 0.0000
vt 0.6363 0.0875 0.0000
vt 0.5967 0.1440 0.0000
vt 0.5644 0.1326 0.0000
vt 0.6264 0.0699 0.0000
vt 0.6362 0.0880 0.0000
vt 0.7136 0.0906 0.0000
vt 0.7272 0.0716 0.0000
vt 0.7126 0.0917 0.0000
vt 0.7264 0.0714 0.0000
vt 0.6763 0.0565 0.0000
vt 0.6762 0.0739 0.0000
vt 0.6359 0.0857 0.0000
vt 0.6261 0.0698 0.0000
vt 0.6778 0.0567 0.0000
vt 0.6761 0.0730 0.0000
# 92 texture coords

g Sphere02
usemtl wire_088199225
s 1
f 1/1/1 2/2/2 3/3/3 4/4/4 
f 5/5/5 6/6/6 2/7/2 1/8/1 
f 7/9/7 5/5/5 8/10/8 
f 9/11/9 10/12/10 11/13/11 12/14/12 
f 13/15/13 14/16/14 10/17/10 9/18/9 
f 15/19/15 16/20/16 14/21/14 13/22/13 
f 17/23/17 15/19/15 18/24/18 
f 4/25/4 3/26/3 19/27/19 20/28/20 
f 21/29/21 1/30/1 4/31/4 22/32/22 
f 23/33/23 5/5/5 1/8/1 21/34/21 
f 24/35/24 12/36/12 5/5/5 23/33/23 
f 25/37/25 9/38/9 12/39/12 24/40/24 
f 26/41/26 13/42/13 9/38/9 25/37/25 
f 27/43/27 15/19/15 13/22/13 26/44/26 
f 28/45/28 20/46/20 15/19/15 27/43/27 
f 22/32/22 4/31/4 20/47/20 28/48/28 
f 29/49/29 21/50/21 22/51/22 
f 29/49/29 23/52/23 21/50/21 
f 29/49/29 24/53/24 23/52/23 
f 29/49/29 25/54/25 24/53/24 
f 29/49/29 26/55/26 25/54/25 
f 29/49/29 27/56/27 26/55/26 
f 29/49/29 28/57/28 27/56/27 
f 29/49/29 22/51/22 28/57/28 
f 30/58/30 31/59/31 32/60/32 
f 30/58/30 32/60/32 33/61/33 
f 30/58/30 33/61/33 34/62/34 
f 30/58/30 34/62/34 35/63/35 
f 30/58/30 35/63/35 36/64/36 
f 30/58/30 36/64/36 37/65/37 
f 30/58/30 37/65/37 38/66/38 
f 30/58/30 38/66/38 31/59/31 
f 5/5/5 7/9/7 6/6/6 
f 12/36/12 11/67/11 8/10/8 5/5/5 
f 15/19/15 17/23/17 16/20/16 
f 20/46/20 19/68/19 18/24/18 15/19/15 
s off
f 8/10/39 11/67/39 39/69/39 40/70/39 
f 18/24/40 19/68/40 41/71/40 42/72/40 
f 2/7/41 6/6/41 43/73/41 44/74/41 
f 14/21/42 16/20/42 45/75/42 46/76/42 
f 40/70/43 39/69/43 47/77/43 48/78/43 
f 42/79/44 41/80/44 49/81/44 50/82/44 
f 44/74/45 43/73/45 51/83/45 52/84/45 
f 46/76/46 45/75/46 53/85/46 54/86/46 
f 48/78/47 47/77/47 55/87/47 56/88/47 
f 50/89/48 49/90/48 57/91/48 58/92/48 
f 52/84/49 51/83/49 56/88/49 55/87/49 
f 54/86/50 53/85/50 58/92/50 57/91/50 
# 28 polygons - 20 triangles

