# Exported from Wings 3D 1.4
mtllib Guns_n_Bullets.mtl
o cube1
#8 vertices, 6 faces
v -0.78179105 -0.17995669 1.28507943
v -0.78179105 -3.2999940e-3 1.28507943
v 0.76419355 -3.2999940e-3 1.28507943
v 0.76419355 -0.17995669 1.28507943
v -0.78179105 -0.17995669 -1.16189696
v -0.78179105 -3.2999940e-3 -1.16189696
v 0.76419355 -3.2999940e-3 -1.16189696
v 0.76419355 -0.17995669 -1.16189696
vt 0.15936518 0.72014849
vt 0.21483836 0.53915500
vt 0.21599999 0.53718385
vt 0.21610764 0.60640711
vt 0.21706813 0.53816434
vt 0.21725806 0.60656278
vt 0.21780268 0.60747836
vt 0.25592320 0.30288234
vt 0.25758720 0.32643645
vt 0.26163040 0.33051929
vt 0.31614957 0.96922788
vt 0.53927481 0.51267151
vt 0.58293491 0.53880885
vt 0.58318862 0.53796471
vt 0.58319141 0.60804704
vt 0.58350910 0.60821220
vt 0.58362907 0.60851917
vt 0.58443855 0.53989658
vt 0.67777480 0.65303736
vt 0.69688113 8.5829299e-2
vt 0.72330080 2.4827936e-2
vt 0.75125600 4.4055646e-2
vt 0.75178212 0.94636066
vt 0.94939914 0.32672072
vn -0.57735027 -0.57735027 0.57735027
vn -0.57735027 0.57735027 0.57735027
vn 0.57735027 0.57735027 0.57735027
vn 0.57735027 -0.57735027 0.57735027
vn -0.57735027 -0.57735027 -0.57735027
vn -0.57735027 0.57735027 -0.57735027
vn 0.57735027 0.57735027 -0.57735027
vn 0.57735027 -0.57735027 -0.57735027
g cube1_cube1_auv
usemtl cube1_auv
s 1
f 1/17/1 4/4/4 3/3/3 2/14/2
f 1/23/1 5/11/5 8/1/8 4/19/4
f 2/22/2 6/9/6 5/8/5 1/21/1
f 3/24/3 7/12/7 6/10/6 2/20/2
f 4/16/4 8/7/8 7/5/7 3/18/3
f 6/2/6 7/13/7 8/15/8 5/6/5
