# 3ds Max Wavefront OBJ Exporter v0.97b - (c)2007 guruware
# File Created: 18.06.2011 13:54:20

mtllib electronic_parts.mtl

#
# object Cylinder02
#

v  -0.4692 0.0631 -1.6857
v  -0.3713 0.0782 -1.7178
v  -0.3107 0.0870 -1.6335
v  -0.4691 0.0626 -1.5815
v  -0.3712 0.0773 -1.5493
v  -0.5028 0.9427 -1.7130
v  -0.4422 0.9515 -1.6287
v  -0.6007 0.9277 -1.6809
v  -0.6006 0.9271 -1.5767
v  -0.5027 0.9418 -1.5445
v  -0.7352 0.0187 -1.5935
v  -0.6284 0.0352 -1.6285
v  -0.5623 0.0447 -1.5366
v  -0.7352 0.0181 -1.4798
v  -0.6283 0.0342 -1.4446
v  -0.7524 0.8509 -1.6240
v  -0.6863 0.8605 -1.5320
v  -0.8593 0.8345 -1.5889
v  -0.8593 0.8339 -1.4752
v  -0.7524 0.8499 -1.4401
v  -0.5538 0.0453 -1.0819
v  -0.3601 0.0752 -1.1455
v  -0.2403 0.0924 -0.9788
v  -0.5537 0.0442 -0.8759
v  -0.3600 0.0733 -0.8121
v  -0.2403 0.0924 -1.3155
v  -0.3601 0.0752 -1.4823
v  -0.4925 0.9451 -1.4774
v  -0.3726 0.9624 -1.3107
v  -0.5538 0.0453 -1.4187
v  -0.6862 0.9153 -1.4138
v  -0.5537 0.0442 -1.2126
v  -0.6861 0.9142 -1.2078
v  -0.3600 0.0733 -1.1489
v  -0.4923 0.9433 -1.1440
v  -1.0458 -0.0738 1.6426
v  -1.0474 -0.0558 -1.9530
v  0.6334 0.1998 -1.9524
v  0.6349 0.1818 1.6432
v  -1.0528 -0.0199 -1.9528
v  -1.0513 -0.0379 1.6428
v  0.6279 0.2357 -1.9522
v  0.6295 0.2177 1.6434
v  0.4531 0.1988 -0.1736
v  -0.8429 0.0016 -0.1741
v  -0.8421 -0.0078 1.5660
v  0.4539 0.1895 1.5665
v  -0.7739 0.0813 -0.1020
v  -0.7731 0.0728 1.4948
v  0.3635 0.2545 -0.1016
v  0.3642 0.2459 1.4952
# 51 vertices

vn 0.1504 -0.9886 -0.0055
vn 0.7995 0.1249 -0.5875
vn 0.9886 0.1504 0.0004
vn -0.3059 -0.0412 -0.9512
vn -0.9886 -0.1504 -0.0004
vn -0.3051 -0.0517 0.9509
vn 0.8001 0.1184 0.5881
vn -0.1504 0.9886 0.0055
vn 0.1504 -0.9886 -0.0050
vn -0.9886 -0.1504 -0.0003
vn -0.0005 0.0055 -1.0000
vn 0.9886 0.1504 0.0003
vn 0.0005 -0.0055 1.0000
vn -0.1504 0.9886 0.0050
vn -0.1505 0.9886 0.0054
vn -0.7580 0.6522 0.0038
vn -0.1088 0.7164 -0.6891
vn 0.5298 0.8481 0.0043
vn -0.1082 0.7088 0.6971
# 19 vertex normals

vt 0.5281 0.0000 0.0000
vt 0.9500 0.0000 0.0000
vt 0.7500 0.0000 0.0000
vt 0.0674 0.0000 0.0000
vt 0.2045 0.0000 0.0000
vt -0.1689 0.0376 0.0000
vt -0.1689 0.0063 0.0000
vt -0.0185 0.0063 0.0000
vt -0.0185 0.0376 0.0000
vt -0.1641 0.0605 0.0000
vt -0.1641 0.0078 0.0000
vt -0.0250 0.0078 0.0000
vt -0.0250 0.0605 0.0000
vt -0.1566 0.0604 0.0000
vt -0.1566 0.0153 0.0000
vt -0.0212 0.0153 0.0000
vt -0.0212 0.0604 0.0000
vt -0.1622 0.0559 0.0000
vt -0.1622 0.0115 0.0000
vt -0.0231 0.0115 0.0000
vt -0.0231 0.0559 0.0000
vt -0.1689 0.0689 0.0000
vt -0.0185 0.0689 0.0000
vt -0.0874 0.0401 0.0000
vt -0.0990 0.0692 0.0000
vt -0.1366 0.0692 0.0000
vt -0.1178 0.0221 0.0000
vt -0.1482 0.0401 0.0000
vt -0.1576 0.0378 0.0000
vt -0.1576 0.0175 0.0000
vt -0.0156 0.0175 0.0000
vt -0.0156 0.0378 0.0000
vt -0.1595 0.0649 0.0000
vt -0.1595 0.0153 0.0000
vt -0.0119 0.0153 0.0000
vt -0.0119 0.0649 0.0000
vt -0.1501 0.0594 0.0000
vt -0.1501 0.0177 0.0000
vt -0.0213 0.0177 0.0000
vt -0.0213 0.0594 0.0000
vt -0.1614 0.0575 0.0000
vt -0.1614 0.0153 0.0000
vt -0.0251 0.0153 0.0000
vt -0.0251 0.0575 0.0000
vt -0.1576 0.0580 0.0000
vt -0.0156 0.0580 0.0000
vt -0.0842 0.0349 0.0000
vt -0.0968 0.0656 0.0000
vt -0.1375 0.0656 0.0000
vt -0.1171 0.0160 0.0000
vt -0.1501 0.0349 0.0000
vt -0.4231 0.0590 0.0000
vt -0.4231 0.0150 0.0000
vt -0.1908 0.0150 0.0000
vt -0.1908 0.0590 0.0000
vt -0.4300 0.0664 0.0000
vt -0.4300 0.0163 0.0000
vt -0.1921 0.0163 0.0000
vt -0.1921 0.0664 0.0000
vt -0.4231 0.0640 0.0000
vt -0.4231 0.0125 0.0000
vt -0.1927 0.0125 0.0000
vt -0.1927 0.0640 0.0000
vt -0.4244 0.0634 0.0000
vt -0.4244 0.0100 0.0000
vt -0.1940 0.0100 0.0000
vt -0.1940 0.0634 0.0000
vt -0.4250 0.0615 0.0000
vt -0.4250 0.0156 0.0000
vt -0.1927 0.0156 0.0000
vt -0.1927 0.0615 0.0000
vt -0.3110 0.0308 0.0000
vt -0.3249 0.0635 0.0000
vt -0.3697 0.0635 0.0000
vt -0.3473 0.0105 0.0000
vt -0.3836 0.0308 0.0000
vt 1.0155 0.9825 0.0000
vt 0.0100 0.9825 0.0000
vt 0.0100 0.5241 0.0000
vt 1.0155 0.5241 0.0000
vt 0.3186 0.3180 0.0000
vt 0.3127 0.3180 0.0000
vt 0.3153 0.1542 0.0000
vt 0.3212 0.1543 0.0000
vt 0.2927 0.2608 0.0000
vt 0.2868 0.2607 0.0000
vt 0.2884 0.1541 0.0000
vt 0.2943 0.1541 0.0000
vt 0.3097 0.3179 0.0000
vt 0.3038 0.3179 0.0000
vt 0.3063 0.1542 0.0000
vt 0.3122 0.1542 0.0000
vt 0.3016 0.2608 0.0000
vt 0.2957 0.2608 0.0000
vt 0.2974 0.1541 0.0000
vt 0.3033 0.1542 0.0000
vt 0.0238 0.9857 0.0000
vt 0.0238 0.5474 0.0000
vt 0.9809 0.5474 0.0000
vt 0.9809 0.9857 0.0000
vt 0.5687 0.1288 0.0000
vt 0.5661 0.4758 0.0000
vt 0.0501 0.4749 0.0000
vt 0.0527 0.1279 0.0000
vt 0.5444 0.4612 0.0000
vt 0.0720 0.4603 0.0000
vt 0.5468 0.1434 0.0000
vt 0.0744 0.1426 0.0000
# 108 texture coords

g Cylinder02
usemtl Material__30
s 1
f 1/1/1 2/2/1 3/3/1 4/4/1 
f 5/5/1 4/4/1 3/3/1 
s 8
f 3/6/2 2/7/2 6/8/2 
f 6/8/2 7/9/3 3/6/2 
f 2/10/4 1/11/4 8/12/4 
f 8/12/4 6/13/4 2/10/4 
f 1/14/5 4/15/5 9/16/5 
f 9/16/5 8/17/5 1/14/5 
f 4/18/6 5/19/6 10/20/6 
f 10/20/6 9/21/6 4/18/6 
f 5/22/7 3/6/7 7/9/3 
f 7/9/3 10/23/7 5/22/7 
s 1
f 6/24/8 8/25/8 9/26/8 
f 7/27/8 6/24/8 9/26/8 
f 10/28/8 7/27/8 9/26/8 
f 11/1/1 12/2/1 13/3/1 14/4/1 
f 15/5/1 14/4/1 13/3/1 
s 8
f 13/29/2 12/30/2 16/31/2 
f 16/31/2 17/32/3 13/29/2 
f 12/33/4 11/34/4 18/35/4 
f 18/35/4 16/36/4 12/33/4 
f 11/37/5 14/38/5 19/39/5 
f 19/39/5 18/40/5 11/37/5 
f 14/41/6 15/42/6 20/43/6 
f 20/43/6 19/44/6 14/41/6 
f 15/45/7 13/29/7 17/32/3 
f 17/32/3 20/46/7 15/45/7 
s 1
f 16/47/8 18/48/8 19/49/8 
f 17/50/8 16/47/8 19/49/8 
f 20/51/8 17/50/8 19/49/8 
f 21/1/1 22/2/1 23/3/1 24/4/1 
f 25/5/1 24/4/1 23/3/1 
s 8
f 26/52/2 27/53/2 28/54/2 
f 28/54/2 29/55/2 26/52/2 
f 27/56/4 30/57/4 31/58/4 
f 31/58/4 28/59/4 27/56/4 
f 30/60/5 32/61/5 33/62/5 
f 33/62/5 31/63/5 30/60/5 
f 32/64/6 34/65/6 35/66/6 
f 35/66/6 33/67/6 32/64/6 
f 34/68/7 26/69/7 29/70/7 
f 29/70/7 35/71/7 34/68/7 
s 1
f 28/72/8 31/73/8 33/74/8 
f 29/75/8 28/72/8 33/74/8 
f 35/76/8 29/75/8 33/74/8 
s off
f 36/77/9 37/78/9 38/79/9 39/80/9 
f 40/81/10 37/82/10 36/83/10 41/84/10 
f 42/85/11 38/86/11 37/87/11 40/88/11 
f 43/89/12 39/90/12 38/91/12 42/92/12 
f 41/93/13 36/94/13 39/95/13 43/96/13 
f 41/97/14 43/98/14 42/99/14 40/100/14 
f 44/101/15 45/102/15 46/103/15 47/104/15 
f 48/105/16 45/102/16 46/103/16 49/106/16 
f 50/107/17 44/101/17 45/102/17 48/105/17 
f 51/108/18 47/104/18 44/101/18 50/107/18 
f 49/106/19 46/103/19 47/104/19 51/108/19 
f 50/107/15 48/105/15 49/106/15 51/108/15 
# 15 polygons - 42 triangles

