# 3ds Max Wavefront OBJ Exporter v0.97b - (c)2007 guruware
# File Created: 26.05.2011 23:10:56

mtllib bag_grey.mtl

#
# object Sphere02
#

v  -45.2071 54.0037 14.0428
v  -7.7089 32.3325 -26.1033
v  -35.4396 23.7496 -18.4361
v  -61.0999 19.2555 1.6369
v  -61.0999 19.2555 26.4486
v  -35.4396 23.7496 46.5216
v  -7.7089 24.0752 44.9130
v  14.4986 40.9000 46.5216
v  31.1371 44.4261 26.4486
v  31.1371 44.4261 1.6369
v  14.4985 40.9000 -18.4361
v  -42.9419 12.5586 -62.3761
v  1.2725 12.5586 -78.8193
v  -75.9696 -0.3152 -12.0809
v  -75.9696 -0.3152 15.0949
v  -42.9419 1.0856 58.1437
v  1.2725 12.5586 74.5869
v  45.4869 12.5586 58.1437
v  72.8129 12.5586 15.0949
v  72.8129 12.5586 -38.1164
v  45.4868 12.5586 -62.3761
v  -42.8601 -24.6563 -94.5818
v  16.3833 -36.3363 -108.9563
v  -80.1614 -24.6563 -43.2410
v  -80.1614 -36.1293 20.2197
v  -42.8601 -24.6563 71.5604
v  16.3833 -24.6493 91.1708
v  64.8518 -27.7074 71.5604
v  94.2594 -25.5678 20.2196
v  94.2593 -25.5678 -43.2411
v  64.8517 -27.7074 -94.5818
v  -19.9930 -62.6434 -62.8514
v  17.3083 -62.6434 -74.9713
v  -43.0464 -62.6434 -31.1211
v  -43.0464 -62.6434 8.0997
v  -19.9930 -62.6434 39.8301
v  17.3083 -62.6434 51.9500
v  54.6095 -62.6434 39.8301
v  77.6629 -62.6434 8.0997
v  77.6629 -62.6434 -31.1211
v  54.6095 -62.6434 -62.8515
v  17.3083 -70.0888 -11.5107
v  -40.8392 40.5046 9.6571
v  -47.1636 74.2123 40.8160
v  -62.6976 73.6660 38.6523
v  -64.5217 79.0149 30.4871
v  -57.6466 85.1525 13.1983
v  -38.4692 85.4730 29.5115
v  -57.5278 41.3876 31.8025
v  -24.1156 53.3864 32.4757
v  -33.9077 60.1373 2.4303
v  -54.6111 51.0901 1.0490
v  -60.7952 48.9351 19.8900
v  -46.5088 54.4115 35.3947
v  -25.8688 60.4540 12.9013
v  -45.8767 62.7305 -2.2725
# 56 vertices

vn -0.4878 0.8724 0.0318
vn -0.2258 0.8656 -0.4469
vn -0.4693 0.7702 -0.4319
vn -0.7377 0.6137 -0.2815
vn -0.7926 0.4582 0.4023
vn -0.3288 0.6604 0.6751
vn -0.1169 0.7209 0.6831
vn 0.0541 0.6814 0.7299
vn 0.4300 0.8590 0.2778
vn 0.3448 0.9289 -0.1350
vn 0.0728 0.9201 -0.3848
vn -0.4716 0.7540 -0.4573
vn 0.0018 0.7445 -0.6677
vn -0.8586 0.4933 -0.1394
vn -0.9100 0.3402 0.2369
vn -0.5696 0.4011 0.7174
vn -0.0570 0.6532 0.7551
vn 0.4692 0.6214 0.6274
vn 0.7444 0.6347 0.2075
vn 0.6588 0.7041 -0.2650
vn 0.3081 0.7694 -0.5595
vn -0.5479 -0.0632 -0.8341
vn 0.0584 -0.1897 -0.9801
vn -0.9252 -0.1342 -0.3550
vn -0.8769 -0.3940 0.2753
vn -0.5360 -0.1587 0.8292
vn 0.0528 -0.1361 0.9893
vn 0.6292 -0.0989 0.7710
vn 0.9620 0.0285 0.2716
vn 0.9594 0.0102 -0.2819
vn 0.5666 0.0056 -0.8240
vn -0.2905 -0.8837 -0.3670
vn 0.0248 -0.8992 -0.4369
vn -0.4558 -0.8777 -0.1480
vn -0.3984 -0.9121 0.0965
vn -0.2476 -0.8868 0.3903
vn 0.0010 -0.8780 0.4786
vn 0.3223 -0.8582 0.3994
vn 0.5971 -0.7880 0.1504
vn 0.5998 -0.7809 -0.1743
vn 0.3556 -0.8448 -0.3998
vn 0.0000 -1.0000 0.0000
vn 0.2565 -0.8649 -0.4314
vn 0.4633 -0.5531 0.6924
vn -0.6390 -0.7000 0.3189
vn -0.8782 -0.3917 -0.2744
vn -0.2416 -0.0140 -0.9703
vn 0.9778 0.0394 -0.2060
vn -0.3575 0.8906 0.2810
vn -0.3271 0.8936 0.3074
vn -0.3631 0.8899 0.2761
vn -0.4021 0.8834 0.2406
vn -0.2807 0.9468 0.1577
vn -0.3201 0.9466 -0.0394
vn -0.2613 0.9359 0.2364
vn -0.2104 0.8872 0.4106
# 56 vertex normals

vt 0.0000 87.3477 0.0000
vt 0.0000 69.8782 0.0000
vt 17.4695 69.8782 0.0000
vt 17.4695 87.3477 0.0000
vt 34.9391 69.8782 0.0000
vt 34.9391 87.3477 0.0000
vt 52.4086 69.8782 0.0000
vt 52.4086 87.3477 0.0000
vt 69.8782 69.8782 0.0000
vt 69.8782 87.3477 0.0000
vt 87.3477 69.8782 0.0000
vt 87.3477 87.3477 0.0000
vt 104.8173 69.8782 0.0000
vt 104.8173 87.3477 0.0000
vt 122.2868 69.8782 0.0000
vt 122.2868 87.3477 0.0000
vt 139.7564 69.8782 0.0000
vt 139.7564 87.3477 0.0000
vt 157.2259 69.8782 0.0000
vt 157.2259 87.3477 0.0000
vt 174.6955 69.8782 0.0000
vt 17.4695 52.4086 0.0000
vt 0.0000 52.4086 0.0000
vt 34.9391 52.4086 0.0000
vt 52.4086 52.4086 0.0000
vt 69.8782 52.4086 0.0000
vt 87.3477 52.4086 0.0000
vt 104.8173 52.4086 0.0000
vt 122.2868 52.4086 0.0000
vt 139.7564 52.4086 0.0000
vt 157.2259 52.4086 0.0000
vt 174.6955 52.4086 0.0000
vt 17.4695 34.9391 0.0000
vt 0.0000 34.9391 0.0000
vt 34.9391 34.9391 0.0000
vt 52.4086 34.9391 0.0000
vt 69.8782 34.9391 0.0000
vt 87.3477 34.9391 0.0000
vt 104.8173 34.9391 0.0000
vt 122.2868 34.9391 0.0000
vt 139.7564 34.9391 0.0000
vt 157.2259 34.9391 0.0000
vt 174.6955 34.9391 0.0000
vt 17.4695 17.4695 0.0000
vt 0.0000 17.4695 0.0000
vt 34.9391 17.4695 0.0000
vt 52.4086 17.4695 0.0000
vt 69.8782 17.4695 0.0000
vt 87.3477 17.4695 0.0000
vt 104.8173 17.4695 0.0000
vt 122.2868 17.4695 0.0000
vt 139.7564 17.4695 0.0000
vt 157.2259 17.4695 0.0000
vt 174.6955 17.4695 0.0000
vt 0.0000 0.0000 0.0000
vt 17.4695 0.0000 0.0000
vt 34.9391 0.0000 0.0000
vt 52.4086 0.0000 0.0000
vt 69.8782 0.0000 0.0000
vt 87.3477 0.0000 0.0000
vt 104.8173 0.0000 0.0000
vt 122.2868 0.0000 0.0000
vt 139.7564 0.0000 0.0000
vt 157.2259 0.0000 0.0000
# 64 texture coords

g Sphere02
usemtl wire_228153184
s 1
f 1/1/1 2/2/2 3/3/3 
f 1/4/1 3/3/3 4/5/4 
f 1/6/1 4/5/4 5/7/5 
f 1/8/1 5/7/5 6/9/6 
f 1/10/1 6/9/6 7/11/7 
f 1/12/1 7/11/7 8/13/8 
f 1/14/1 8/13/8 9/15/9 
f 1/16/1 9/15/9 10/17/10 
f 1/18/1 10/17/10 11/19/11 
f 1/20/1 11/19/11 2/21/2 
f 12/22/12 3/3/3 2/2/2 13/23/13 
f 14/24/14 4/5/4 3/3/3 12/22/12 
f 15/25/15 5/7/5 4/5/4 14/24/14 
f 16/26/16 6/9/6 5/7/5 15/25/15 
f 17/27/17 7/11/7 6/9/6 16/26/16 
f 18/28/18 8/13/8 7/11/7 17/27/17 
f 19/29/19 9/15/9 8/13/8 18/28/18 
f 20/30/20 10/17/10 9/15/9 19/29/19 
f 21/31/21 11/19/11 10/17/10 20/30/20 
f 13/32/13 2/21/2 11/19/11 21/31/21 
f 22/33/22 12/22/12 13/23/13 23/34/23 
f 24/35/24 14/24/14 12/22/12 22/33/22 
f 25/36/25 15/25/15 14/24/14 24/35/24 
f 26/37/26 16/26/16 15/25/15 25/36/25 
f 27/38/27 17/27/17 16/26/16 26/37/26 
f 28/39/28 18/28/18 17/27/17 27/38/27 
f 29/40/29 19/29/19 18/28/18 28/39/28 
f 30/41/30 20/30/20 19/29/19 29/40/29 
f 31/42/31 21/31/21 20/30/20 30/41/30 
f 23/43/23 13/32/13 21/31/21 31/42/31 
f 32/44/32 22/33/22 23/34/23 33/45/33 
f 34/46/34 24/35/24 22/33/22 32/44/32 
f 35/47/35 25/36/25 24/35/24 34/46/34 
f 36/48/36 26/37/26 25/36/25 35/47/35 
f 37/49/37 27/38/27 26/37/26 36/48/36 
f 38/50/38 28/39/28 27/38/27 37/49/37 
f 39/51/39 29/40/29 28/39/28 38/50/38 
f 40/52/40 30/41/30 29/40/29 39/51/39 
f 41/53/41 31/42/31 30/41/30 40/52/40 
f 33/54/33 23/43/23 31/42/31 41/53/41 
f 42/55/42 32/44/32 33/45/33 
f 42/56/42 34/46/34 32/44/32 
f 42/57/42 35/47/35 34/46/34 
f 42/58/42 36/48/36 35/47/35 
f 42/59/42 37/49/37 36/48/36 
f 42/60/42 38/50/38 37/49/37 
f 42/61/42 39/51/39 38/50/38 
f 42/62/42 40/52/40 39/51/39 
f 42/63/42 41/53/41 40/52/40 
f 42/64/42 33/54/33 41/53/41 
f 43/1/43 44/2/44 45/3/45 
f 43/6/43 45/5/45 46/7/46 
f 43/10/43 46/9/46 47/11/47 
f 43/12/43 47/11/47 48/13/48 
f 43/16/43 48/15/48 44/17/44 
f 49/26/49 50/9/50 51/7/51 52/25/52 
f 53/26/53 54/9/54 55/7/55 56/25/56 
# 32 polygons - 25 triangles

