# 3ds Max Wavefront OBJ Exporter v0.97b - (c)2007 guruware
# File Created: 22.08.2011 17:37:44

mtllib ggecko_pelt.mtl

#
# object Cylinder01
#

v  0.8891 16.6287 -34.9558
v  0.8891 33.5551 -34.9558
v  12.8579 28.5975 -34.9558
v  17.8156 16.6287 -34.9558
v  -16.0373 16.6287 -34.9558
v  -11.0797 28.5975 -34.9558
v  0.8891 -0.2978 -34.9558
v  -11.0797 4.6599 -34.9558
v  12.8579 4.6599 -34.9558
v  12.8579 28.5975 52.7118
v  17.8156 16.6287 52.7118
v  0.8891 33.5551 52.7118
v  -11.0797 28.5975 52.7118
v  -16.0373 16.6287 52.7118
v  -11.0797 4.6599 52.7118
v  0.8891 -0.2978 52.7118
v  12.8579 4.6599 52.7118
v  0.8891 16.6287 52.7118
v  -4.1985 31.0095 44.1085
v  -4.1985 41.1605 41.9181
v  4.9728 41.1605 41.9181
v  4.9728 31.0095 44.1085
v  -4.1985 47.8953 35.4435
v  4.9728 47.8953 35.4435
v  -4.1985 51.8132 26.8996
v  4.9728 51.8132 26.8996
v  -4.1985 53.6327 16.7841
v  4.9728 53.6327 16.7841
v  -4.1985 53.1767 6.3842
v  4.9728 53.1767 6.3842
v  -4.1985 49.3158 -5.1090
v  4.9728 49.3158 -5.1090
v  -4.1985 43.0542 -15.7194
v  4.9728 43.0542 -15.7194
v  -4.1985 33.0950 -21.4751
v  4.9728 33.0950 -21.4751
v  -4.1985 31.0095 45.2459
v  4.9728 31.0095 45.2459
v  4.9728 41.7292 42.9032
v  -4.1985 41.7292 42.9032
v  4.9728 48.6996 36.2478
v  -4.1985 48.6996 36.2478
v  4.9728 52.7982 27.4684
v  -4.1985 52.7982 27.4684
v  4.9728 54.7702 16.7841
v  -4.1985 54.7702 16.7841
v  4.9728 54.3141 6.3842
v  -4.1985 54.3141 6.3842
v  4.9728 50.4359 -5.3065
v  -4.1985 50.4359 -5.3065
v  4.9728 44.0392 -16.2881
v  -4.1985 44.0392 -16.2881
v  4.9728 33.2925 -22.5953
v  -4.1985 33.2925 -22.5953
# 54 vertices

vn 0.0000 0.0000 -1.0000
vn 1.0000 0.0000 -0.0000
vn 0.7071 0.7071 0.0000
vn 1.0000 -0.0000 -0.0000
vn -0.0000 1.0000 0.0000
vn -0.7071 0.7071 0.0000
vn -1.0000 -0.0000 -0.0000
vn -0.7071 -0.7071 -0.0000
vn 0.0000 -1.0000 -0.0000
vn 0.7071 -0.7071 -0.0000
vn 0.0000 -0.0000 1.0000
vn 0.0000 -0.2109 -0.9775
vn 0.0000 -0.4698 -0.8828
vn 0.0000 -0.8153 -0.5790
vn 0.0000 -0.9542 -0.2993
vn 0.0000 -0.9978 -0.0670
vn 0.0000 -0.9831 0.1829
vn -0.0000 -0.9095 0.4156
vn 0.0000 -0.9095 0.4156
vn -0.0000 -0.7039 0.7103
vn 0.0000 -0.5004 0.8658
vn -0.0000 -0.5004 0.8658
vn 0.0000 0.2135 0.9769
vn 0.0000 0.4695 0.8829
vn 0.0000 0.8123 0.5832
vn 0.0000 0.9524 0.3047
vn 0.0000 0.9976 0.0693
vn 0.0000 0.9835 -0.1811
vn 0.0000 0.9115 -0.4113
vn 0.0000 0.7083 -0.7059
vn 0.0000 0.5062 -0.8624
vn -0.0000 -1.0000 0.0000
vn 0.0000 -0.9848 -0.1737
vn -1.0000 0.0000 0.0000
vn -1.0000 0.0000 -0.0000
# 35 vertex normals

vt 0.7731 0.1820 0.0000
vt 0.9288 0.1149 0.0000
vt 0.9353 0.2411 0.0000
vt 0.8384 0.3297 0.0000
vt 0.7115 0.0465 0.0000
vt 0.8351 0.0348 0.0000
vt 0.6249 0.2360 0.0000
vt 0.6256 0.1260 0.0000
vt 0.7049 0.3225 0.0000
vt -0.8262 0.8257 0.0000
vt -0.8705 0.8257 0.0000
vt -0.8811 0.1866 0.0000
vt -0.8369 0.1866 0.0000
vt -0.6062 0.8289 0.0000
vt -0.6505 0.8289 0.0000
vt -0.6611 0.1898 0.0000
vt -0.6169 0.1898 0.0000
vt -0.6947 0.8289 0.0000
vt -0.7053 0.1898 0.0000
vt -0.8721 0.8226 0.0000
vt -0.9163 0.8226 0.0000
vt -0.9270 0.1834 0.0000
vt -0.8827 0.1834 0.0000
vt -0.9606 0.8226 0.0000
vt -0.9712 0.1834 0.0000
vt -0.6949 0.8289 0.0000
vt -0.7391 0.8289 0.0000
vt -0.7497 0.1898 0.0000
vt -0.7055 0.1898 0.0000
vt -0.7833 0.8289 0.0000
vt -0.7939 0.1898 0.0000
vt -0.7820 0.8257 0.0000
vt -0.7926 0.1866 0.0000
vt 0.7685 0.1782 0.0000
vt 0.8321 0.0348 0.0000
vt 0.9309 0.1157 0.0000
vt 0.9356 0.2406 0.0000
vt 0.8369 0.3297 0.0000
vt 0.7050 0.3216 0.0000
vt 0.6229 0.2358 0.0000
vt 0.6251 0.1237 0.0000
vt 0.7111 0.0470 0.0000
vt 0.1519 0.2780 0.0000
vt 0.0986 0.2780 0.0000
vt 0.0986 0.2572 0.0000
vt 0.1519 0.2572 0.0000
vt 0.0633 0.2780 0.0000
vt 0.0633 0.2572 0.0000
vt 0.4256 0.2804 0.0000
vt 0.3590 0.2804 0.0000
vt 0.3590 0.2567 0.0000
vt 0.4256 0.2567 0.0000
vt 0.2802 0.2804 0.0000
vt 0.2802 0.2567 0.0000
vt 0.1991 0.2804 0.0000
vt 0.1991 0.2567 0.0000
vt 0.1095 0.2804 0.0000
vt 0.1095 0.2567 0.0000
vt 0.0269 0.2804 0.0000
vt 0.0269 0.2567 0.0000
vt 0.2676 0.2780 0.0000
vt 0.2316 0.2780 0.0000
vt 0.2316 0.2600 0.0000
vt 0.2676 0.2600 0.0000
vt 0.1661 0.2802 0.0000
vt 0.1661 0.2590 0.0000
vt 0.2210 0.2590 0.0000
vt 0.2210 0.2802 0.0000
vt 0.2566 0.2590 0.0000
vt 0.2566 0.2802 0.0000
vt 0.3767 0.6853 0.0000
vt 0.3767 0.7075 0.0000
vt 0.3205 0.7075 0.0000
vt 0.3205 0.6853 0.0000
vt 0.2521 0.7075 0.0000
vt 0.2521 0.6853 0.0000
vt 0.1855 0.7075 0.0000
vt 0.1855 0.6853 0.0000
vt 0.1106 0.7075 0.0000
vt 0.1106 0.6853 0.0000
vt 0.0403 0.7075 0.0000
vt 0.0403 0.6853 0.0000
vt 0.2910 0.2779 0.0000
vt 0.2910 0.2585 0.0000
vt 0.3477 0.2585 0.0000
vt 0.3477 0.2779 0.0000
vt 0.1176 0.3857 0.0000
vt 0.1874 0.3857 0.0000
vt 0.1874 0.3885 0.0000
vt 0.1176 0.3885 0.0000
vt 0.2943 0.3454 0.0000
vt 0.2155 0.3473 0.0000
vt 0.2122 0.3447 0.0000
vt 0.2955 0.3426 0.0000
vt 0.1580 0.3609 0.0000
vt 0.1527 0.3587 0.0000
vt 0.1195 0.3805 0.0000
vt 0.1127 0.3788 0.0000
vt 0.0953 0.4047 0.0000
vt 0.0867 0.4043 0.0000
vt 0.0879 0.4303 0.0000
vt 0.0793 0.4299 0.0000
vt 0.1051 0.4597 0.0000
vt 0.0964 0.4598 0.0000
vt 0.1412 0.4878 0.0000
vt 0.1332 0.4889 0.0000
vt 0.2103 0.5053 0.0000
vt 0.2077 0.5079 0.0000
vt 0.2926 0.3693 0.0000
vt 0.2228 0.3693 0.0000
vt 0.2228 0.3665 0.0000
vt 0.2926 0.3665 0.0000
vt 0.2802 0.3444 0.0000
vt 0.2028 0.3577 0.0000
vt 0.1954 0.3562 0.0000
vt 0.2791 0.3416 0.0000
vt 0.1520 0.3833 0.0000
vt 0.1435 0.3827 0.0000
vt 0.1192 0.4113 0.0000
vt 0.1105 0.4112 0.0000
vt 0.1126 0.4369 0.0000
vt 0.1040 0.4368 0.0000
vt 0.1234 0.4621 0.0000
vt 0.1158 0.4634 0.0000
vt 0.1507 0.4835 0.0000
vt 0.1443 0.4854 0.0000
vt 0.2000 0.5002 0.0000
vt 0.1954 0.5026 0.0000
vt 0.2765 0.5066 0.0000
vt 0.2762 0.5094 0.0000
# 130 texture coords

g Cylinder01
usemtl Material__28
s 1
f 1/1/1 2/2/1 3/3/1 4/4/1 
f 1/1/1 5/5/1 6/6/1 2/2/1 
f 1/1/1 7/7/1 8/8/1 5/5/1 
f 1/1/1 4/4/1 9/9/1 7/7/1 
s 8
f 4/10/2 3/11/3 10/12/3 11/13/4 
f 3/14/3 2/15/5 12/16/5 10/17/3 
f 2/15/5 6/18/6 13/19/6 12/16/5 
f 6/20/6 5/21/7 14/22/7 13/23/6 
f 5/21/7 8/24/8 15/25/8 14/22/7 
f 8/26/8 7/27/9 16/28/9 15/29/8 
f 7/27/9 9/30/10 17/31/10 16/28/9 
f 9/32/10 4/10/2 11/13/4 17/33/10 
s 1
f 18/34/11 17/35/11 11/36/11 10/37/11 
f 18/34/11 10/37/11 12/38/11 13/39/11 
f 18/34/11 13/39/11 14/40/11 15/41/11 
f 18/34/11 15/41/11 16/42/11 17/35/11 
s 2
f 19/43/12 20/44/13 21/45/13 22/46/12 
f 20/44/13 23/47/14 24/48/14 21/45/13 
f 23/49/14 25/50/15 26/51/15 24/52/14 
f 25/50/15 27/53/16 28/54/16 26/51/15 
f 27/53/16 29/55/17 30/56/17 28/54/16 
f 29/55/17 31/57/18 32/58/19 30/56/17 
f 31/57/18 33/59/20 34/60/20 32/58/19 
f 33/61/20 35/62/21 36/63/22 34/64/20 
s 4
f 37/65/23 38/66/23 39/67/24 40/68/24 
f 40/68/24 39/67/24 41/69/25 42/70/25 
f 42/71/25 41/72/25 43/73/26 44/74/26 
f 44/74/26 43/73/26 45/75/27 46/76/27 
f 46/76/27 45/75/27 47/77/28 48/78/28 
f 48/78/28 47/77/28 49/79/29 50/80/29 
f 50/80/29 49/79/29 51/81/30 52/82/30 
f 52/83/30 51/84/30 53/85/31 54/86/31 
s 8
f 19/87/32 22/88/32 38/89/32 37/90/9 
s 16
f 22/91/2 21/92/2 39/93/2 38/94/2 
f 21/92/2 24/95/2 41/96/2 39/93/2 
f 24/95/2 26/97/2 43/98/2 41/96/2 
f 26/97/2 28/99/2 45/100/2 43/98/2 
f 28/99/2 30/101/2 47/102/2 45/100/2 
f 30/101/2 32/103/2 49/104/2 47/102/2 
f 32/103/2 34/105/2 51/106/2 49/104/2 
f 34/105/2 36/107/2 53/108/2 51/106/2 
s 32
f 36/109/33 35/110/33 54/111/33 53/112/33 
s 64
f 35/113/34 33/114/34 52/115/34 54/116/34 
f 33/114/34 31/117/35 50/118/35 52/115/34 
f 31/117/35 29/119/35 48/120/35 50/118/35 
f 29/119/35 27/121/35 46/122/35 48/120/35 
f 27/121/35 25/123/35 44/124/35 46/122/35 
f 25/123/35 23/125/35 42/126/35 44/124/35 
f 23/125/35 20/127/35 40/128/35 42/126/35 
f 20/127/35 19/129/35 37/130/35 40/128/35 
# 50 polygons

