# 3ds Max Wavefront OBJ Exporter v0.97b - (c)2007 guruware
# File Created: 26.05.2011 23:05:00

mtllib backpack_mid_type.mtl

#
# object Box01
#

v  -27.6546 19.7422 4.8848
v  8.4238 19.7422 4.8848
v  9.2079 59.9569 4.8848
v  -28.4663 59.9569 4.8848
v  8.4238 19.7422 -8.9324
v  -27.6546 19.7422 -8.9324
v  -28.4663 59.9569 -8.9324
v  9.2079 59.9569 -8.9324
v  9.2079 60.0070 -8.8568
v  -28.4663 60.0070 -8.8568
v  -27.2625 63.0503 -1.3124
v  8.1752 63.0417 -1.2876
v  8.1752 60.9445 5.6456
v  -27.2625 60.9445 5.6456
v  -24.5822 47.7017 7.2950
v  5.1597 47.7017 7.2950
v  -19.5974 39.7231 5.6543
v  0.0338 39.7231 5.6543
v  -29.6437 41.0989 1.6007
v  -29.6437 41.0989 -5.3454
v  -28.7913 28.5061 -5.7361
v  -28.7913 28.5061 2.0341
v  -25.3481 28.5061 2.0341
v  -25.3481 42.2154 3.2240
v  -25.3481 28.5061 -5.7361
v  -25.3481 42.2154 -6.9814
v  3.9156 13.3586 -4.7731
v  -22.4615 13.3586 -4.7731
v  -22.4605 16.1222 2.0415
v  3.9450 16.1222 2.0415
v  -25.8860 19.7422 -8.9324
v  -25.8860 19.7422 4.8848
v  -25.8860 59.9569 4.8848
v  -25.8860 59.9569 -8.9324
v  -22.4625 16.1222 2.0415
v  6.9652 19.7422 4.8848
v  6.9652 19.7422 -8.9324
v  6.9652 59.9569 -8.9324
v  6.9652 59.9569 4.8848
v  3.8862 16.1222 2.0415
v  9.9480 28.5287 2.0341
v  9.9480 28.5287 -5.7361
v  10.7630 41.1111 -5.3454
v  10.7630 41.1111 1.6007
v  6.4548 42.1889 3.2240
v  6.3663 28.4805 2.0341
v  6.4548 42.1889 -6.9814
v  6.3663 28.4805 -5.7361
v  3.0341 23.5883 6.6206
v  3.0341 30.4930 6.6597
v  -22.6945 30.4748 6.6090
v  -22.6945 23.5286 6.6119
v  -23.6497 21.9040 4.6974
v  4.3965 21.9772 4.6996
v  -23.6497 32.1093 4.6931
v  4.3965 32.1496 4.6950
v  6.7855 5.2551 -5.4398
v  6.7850 11.4170 -6.6199
v  -26.4301 11.3611 -6.6999
v  -26.4276 5.2095 -5.4649
v  -27.8408 2.2272 -1.5544
v  8.2844 2.2314 -1.3359
v  -27.8503 16.8152 -2.0085
v  8.2733 16.9508 -1.8712
v  9.4060 3.5846 6.1971
v  -29.0290 3.4782 5.9512
v  -29.0364 15.8331 3.8101
v  9.3989 15.8494 4.0722
v  -30.0111 11.0263 8.1781
v  10.3392 11.0948 8.4815
# 70 vertices

vn 0.0000 0.0000 1.0000
vn 0.0000 0.0000 -1.0000
vn 0.0004 0.9281 -0.3724
vn 0.0000 0.9274 -0.3741
vn 0.0000 0.9982 -0.0605
vn 0.0003 0.9984 -0.0571
vn 0.0000 0.1236 0.9923
vn -0.0000 -0.2014 0.9795
vn -0.9977 -0.0675 -0.0000
vn -0.9977 -0.0675 0.0000
vn -0.2863 -0.0648 0.9559
vn 0.0000 0.0344 0.9994
vn -0.0741 0.0091 0.9972
vn -0.3337 -0.0815 0.9391
vn 0.0000 -1.0000 0.0000
vn -0.0729 -0.0721 -0.9947
vn -0.3570 0.0048 -0.9341
vn -0.2937 -0.0131 -0.9558
vn -0.0000 -0.0905 -0.9959
vn -0.2516 0.9678 -0.0000
vn 0.0000 -0.5459 -0.8378
vn 0.0000 -0.6177 0.7864
vn -1.0000 0.0000 -0.0000
vn -0.8274 -0.5566 0.0745
vn 1.0000 0.0000 -0.0000
vn 0.8547 -0.5144 0.0701
vn 0.9979 -0.0646 0.0000
vn 0.0731 -0.0680 0.9950
vn 0.3546 0.0092 0.9350
vn 0.2899 -0.0092 0.9570
vn 0.0012 -0.0865 0.9963
vn 0.2427 0.9701 0.0000
vn 0.2427 0.9701 -0.0000
vn 0.2851 -0.0697 -0.9560
vn -0.0004 0.0311 -0.9995
vn 0.0749 0.0048 -0.9972
vn 0.3345 -0.0874 -0.9384
vn 0.0134 -0.9999 -0.0000
vn 0.0000 0.9571 0.2896
vn -0.0000 0.9572 0.2895
vn -0.0017 -0.0046 1.0000
vn -0.0020 -0.0057 1.0000
vn -0.0006 -0.0006 1.0000
vn -0.0003 0.0004 1.0000
vn 0.0019 -0.7654 0.6435
vn 0.0015 -0.7628 0.6466
vn 0.0016 -0.7630 0.6463
vn 0.0019 -0.7655 0.6434
vn -0.8949 0.0002 0.4463
vn -0.0012 0.7607 0.6491
vn -0.0018 0.7651 0.6439
vn -0.0018 0.7647 0.6444
vn -0.0011 0.7605 0.6494
vn 0.8208 -0.0002 0.5713
vn 0.8144 -0.0033 0.5803
vn 0.8164 -0.0023 0.5774
vn 0.8217 0.0003 0.5700
vn -0.0025 0.1891 0.9819
vn -0.0027 0.1881 0.9821
vn -0.0012 0.1958 0.9806
vn -0.0010 0.1968 0.9804
vn -0.0027 0.8002 0.5997
vn 0.9516 0.0255 0.3061
vn -0.0006 -0.6517 0.7585
vn -0.9494 0.0252 0.3132
vn -0.0004 0.9853 -0.1706
vn 0.9844 0.0175 0.1751
vn 0.0029 -0.9847 -0.1744
vn -0.9863 0.0155 0.1642
vn 0.0060 0.2870 -0.9579
vn 0.9628 0.0467 0.2662
vn 0.0060 -0.6763 -0.7366
vn -0.9666 0.0432 0.2527
# 73 vertex normals

vt 0.0662 0.8228 0.0000
vt 0.0662 0.4942 0.0000
vt 0.4282 0.4871 0.0000
vt 0.4282 0.8302 0.0000
vt 0.0665 0.3448 0.0000
vt 0.0665 0.0152 0.0000
vt 0.4295 0.0078 0.0000
vt 0.4295 0.3519 0.0000
vt 0.4451 0.6039 0.0000
vt 0.8214 0.6039 0.0000
vt 0.8127 0.6960 0.0000
vt 0.4543 0.6962 0.0000
vt 0.4550 0.7586 0.0000
vt 0.8073 0.7586 0.0000
vt 0.7807 0.8792 0.0000
vt 0.4850 0.8792 0.0000
vt 0.7311 0.9518 0.0000
vt 0.5359 0.9518 0.0000
vt 0.9345 0.8687 0.0000
vt 0.8656 0.8697 0.0000
vt 0.8601 0.7361 0.0000
vt 0.9383 0.7351 0.0000
vt 0.8129 0.8599 0.0000
vt 0.8219 0.7378 0.0000
vt 0.8612 0.7356 0.0000
vt 0.8595 0.8706 0.0000
vt 0.8609 0.6980 0.0000
vt 0.9294 0.6959 0.0000
vt 0.9313 0.7346 0.0000
vt 0.8619 0.7354 0.0000
vt 0.9767 0.7333 0.0000
vt 0.9896 0.8560 0.0000
vt 0.9370 0.8681 0.0000
vt 0.9312 0.7348 0.0000
vt 0.8595 0.8701 0.0000
vt 0.9363 0.8689 0.0000
vt 0.9552 0.9139 0.0000
vt 0.8446 0.9175 0.0000
vt 0.0074 0.3050 0.0000
vt 0.0074 0.0640 0.0000
vt 0.0337 0.7755 0.0000
vt 0.0337 0.5350 0.0000
vt 0.0662 0.4831 0.0000
vt 0.0662 0.3549 0.0000
vt 0.4292 0.3549 0.0000
vt 0.4292 0.4831 0.0000
vt 0.0086 0.4445 0.0000
vt 0.0335 0.3813 0.0000
vt 0.0653 0.9503 0.0000
vt 0.0653 0.8321 0.0000
vt 0.4282 0.8321 0.0000
vt 0.4282 0.9503 0.0000
vt 0.0326 0.9260 0.0000
vt 0.0076 0.8677 0.0000
vt 0.8731 0.4887 0.0000
vt 0.9510 0.4914 0.0000
vt 0.9448 0.6232 0.0000
vt 0.8759 0.6223 0.0000
vt 0.9827 0.4912 0.0000
vt 0.9946 0.6143 0.0000
vt 0.9514 0.6228 0.0000
vt 0.9472 0.4890 0.0000
vt 0.8738 0.6205 0.0000
vt 0.9517 0.6227 0.0000
vt 0.9691 0.6639 0.0000
vt 0.8546 0.6607 0.0000
vt 0.8287 0.6104 0.0000
vt 0.8410 0.4884 0.0000
vt 0.8778 0.4878 0.0000
vt 0.8731 0.6206 0.0000
vt 0.9480 0.4886 0.0000
vt 0.8787 0.4890 0.0000
vt 0.8786 0.4493 0.0000
vt 0.9479 0.4489 0.0000
vt 0.8094 0.7593 0.0000
vt 0.4554 0.7593 0.0000
vt 0.7990 0.4682 0.0000
vt 0.7985 0.5619 0.0000
vt 0.4668 0.5622 0.0000
vt 0.4677 0.4669 0.0000
vt 0.7990 0.4681 0.0000
vt 0.4679 0.4666 0.0000
vt 0.4419 0.4391 0.0000
vt 0.8233 0.4397 0.0000
vt 0.4673 0.4677 0.0000
vt 0.4673 0.5607 0.0000
vt 0.4430 0.5928 0.0000
vt 0.4420 0.4391 0.0000
vt 0.4665 0.5622 0.0000
vt 0.7989 0.5617 0.0000
vt 0.8235 0.5947 0.0000
vt 0.4421 0.5949 0.0000
vt 0.7993 0.5612 0.0000
vt 0.7994 0.4687 0.0000
vt 0.8230 0.4400 0.0000
vt 0.8233 0.5945 0.0000
vt 0.6103 0.3030 0.0000
vt 0.6103 0.2407 0.0000
vt 0.9861 0.2413 0.0000
vt 0.9871 0.3035 0.0000
vt 0.9858 0.3433 0.0000
vt 0.6089 0.3434 0.0000
vt 0.6092 0.3019 0.0000
vt 0.9860 0.3017 0.0000
vt 0.4357 0.1310 0.0000
vt 0.5921 0.1392 0.0000
vt 0.5567 0.1785 0.0000
vt 0.4898 0.1862 0.0000
vt 0.6106 0.1906 0.0000
vt 0.9877 0.1910 0.0000
vt 0.4449 0.3479 0.0000
vt 0.6030 0.3477 0.0000
vt 0.5456 0.4010 0.0000
vt 0.4790 0.3908 0.0000
vt 0.5922 0.1369 0.0000
vt 0.4344 0.1294 0.0000
vt 0.6095 0.4199 0.0000
vt 0.6087 0.3437 0.0000
vt 0.9855 0.3436 0.0000
vt 0.9851 0.4195 0.0000
vt 0.5854 0.0576 0.0000
vt 0.4514 0.0695 0.0000
vt 0.6111 0.1904 0.0000
vt 0.6114 0.1307 0.0000
vt 0.9876 0.1300 0.0000
vt 0.9877 0.1907 0.0000
vt 0.5897 0.2830 0.0000
vt 0.6039 0.3464 0.0000
vt 0.4458 0.3466 0.0000
vt 0.4573 0.2650 0.0000
vt 0.9871 0.0077 0.0000
vt 0.9870 0.0831 0.0000
vt 0.6112 0.0836 0.0000
vt 0.6106 0.0077 0.0000
vt 0.5067 0.0269 0.0000
vt 0.6112 0.1298 0.0000
vt 0.9877 0.1301 0.0000
vt 0.5369 0.2374 0.0000
# 138 texture coords

g Box01
usemtl wire_166229229
s 8
f 1/1/1 2/2/1 3/3/1 4/4/1 
s 32
f 5/5/2 6/6/2 7/7/2 8/8/2 
s 4
f 9/9/3 10/10/4 11/11/5 12/12/6 
s off
f 13/13/7 14/14/7 15/15/7 16/16/7 
f 16/16/8 15/15/8 17/17/8 18/18/8 
s 2
f 19/19/9 20/20/9 21/21/10 22/22/10 
s 8
f 19/23/11 22/24/12 23/25/13 24/26/14 
s 16
f 22/27/15 21/28/15 25/29/15 23/30/15 
s 32
f 21/31/16 20/32/17 26/33/18 25/34/19 
s 64
f 20/35/20 19/36/20 24/37/20 26/38/20 
s off
f 6/6/21 5/5/21 27/39/21 28/40/21 
f 2/2/22 1/1/22 29/41/22 30/42/22 
s 64
f 31/43/23 32/44/23 33/45/23 34/46/23 
s off
f 32/44/24 31/43/24 28/47/24 35/48/24 
s 16
f 36/49/25 37/50/25 38/51/25 39/52/25 
s off
f 37/50/26 36/49/26 40/53/26 27/54/26 
s 2
f 41/55/27 42/56/27 43/57/27 44/58/27 
s 8
f 41/59/28 44/60/29 45/61/30 46/62/31 
s 16
f 44/63/32 43/64/32 47/65/32 45/66/33 
s 32
f 43/67/34 42/68/35 48/69/36 47/70/37 
s 64
f 42/71/38 41/72/38 46/73/38 48/74/38 
s 4
f 14/75/39 13/76/40 12/12/6 11/11/5 
s 2
f 49/77/41 50/78/42 51/79/43 52/80/44 
s 8
f 49/81/45 52/82/46 53/83/47 54/84/48 
s 16
f 52/85/49 51/86/49 55/87/49 53/88/49 
s 32
f 51/89/50 50/90/51 56/91/52 55/92/53 
s 64
f 50/93/54 49/94/55 54/95/56 56/96/57 
s 2
f 57/97/58 58/98/59 59/99/60 60/100/61 
s off
f 61/101/62 62/102/62 57/103/62 60/104/62 
f 63/105/63 61/106/63 60/107/63 59/108/63 
f 64/109/64 63/110/64 59/99/64 58/98/64 
f 62/111/65 64/112/65 58/113/65 57/114/65 
f 61/106/25 62/115/25 62/115/25 61/106/25 
f 63/105/25 61/106/25 61/106/25 63/105/25 
f 64/116/25 63/105/25 63/105/25 64/116/25 
f 62/115/25 64/116/25 64/116/25 62/115/25 
f 61/106/25 62/115/25 62/115/25 61/106/25 
f 63/105/25 61/106/25 61/106/25 63/105/25 
f 64/116/25 63/105/25 63/105/25 64/116/25 
f 62/115/25 64/116/25 64/116/25 62/115/25 
f 65/117/66 62/118/66 61/119/66 66/120/66 
f 66/121/67 61/106/67 63/105/67 67/122/67 
f 67/123/68 63/124/68 64/125/68 68/126/68 
f 68/127/69 64/128/69 62/129/69 65/130/69 
f 66/131/70 69/132/70 70/133/70 65/134/70 
f 67/122/71 69/135/71 66/121/71 
f 68/136/72 70/133/72 69/132/72 67/137/72 
f 65/130/73 70/138/73 68/127/73 
# 46 polygons - 2 triangles

