# 3ds Max Wavefront OBJ Exporter v0.97b - (c)2007 guruware
# File Created: 07.11.2011 21:32:09

mtllib voice_module.mtl

#
# object Sphere01
#

v  -1.3425 20.4630 -3.7155
v  -1.3425 16.3167 -15.4234
v  -8.8682 16.3167 -12.6843
v  -12.8726 16.3167 -5.7486
v  -11.4819 16.3167 2.1384
v  -5.3469 16.3167 7.2863
v  2.6618 16.3167 7.2863
v  8.7968 16.3167 2.1384
v  10.1875 16.3167 -5.7486
v  6.1832 16.3167 -12.6843
v  -1.3425 8.4420 -21.6531
v  -12.8726 8.4420 -17.4565
v  -19.0076 8.4420 -6.8304
v  -16.8769 8.4420 5.2532
v  -7.4775 8.4420 13.1402
v  4.7925 8.4420 13.1402
v  14.1918 8.4420 5.2532
v  16.3225 8.4420 -6.8304
v  10.1875 8.4420 -17.4565
v  -24.8861 0.0000 21.4309
v  -24.8861 0.0000 20.0854
v  20.2846 0.0000 20.0854
v  20.2846 0.0000 21.4309
v  -24.8861 39.1622 21.4309
v  20.2846 39.1622 21.4309
v  20.2846 39.1622 20.0854
v  -24.8861 39.1622 20.0854
v  -24.6544 0.0000 20.1742
v  -24.6544 0.0000 -29.3614
v  20.8556 0.0000 -29.3614
v  20.8556 0.0000 20.1742
v  -24.6544 8.7861 20.1742
v  20.8556 8.7861 20.1742
v  20.8556 8.7861 -29.3614
v  -24.6544 8.7861 -29.3614
v  -36.3158 46.0214 21.3673
v  -36.3158 46.0214 25.1168
v  -20.0463 52.7604 25.1168
v  -20.0463 52.7604 21.3673
v  -20.0463 49.4516 25.1168
v  -33.9762 43.6817 25.1168
v  -20.0463 49.4516 21.3673
v  -33.9762 43.6817 21.3673
v  -3.7768 46.0214 25.1168
v  -3.7768 46.0214 21.3673
v  -6.1164 43.6817 25.1168
v  -6.1164 43.6817 21.3673
v  2.9623 29.7518 25.1168
v  2.9623 29.7518 21.3673
v  -0.3465 29.7518 25.1168
v  -0.3465 29.7518 21.3673
v  -3.7768 13.4823 25.1168
v  -3.7768 13.4823 21.3673
v  -6.1164 15.8220 25.1168
v  -6.1164 15.8220 21.3673
v  -20.0463 6.7432 25.1168
v  -20.0463 6.7432 21.3673
v  -20.0463 10.0520 25.1168
v  -20.0463 10.0520 21.3673
v  -36.3158 13.4823 25.1168
v  -36.3158 13.4823 21.3673
v  -33.9762 15.8220 25.1168
v  -33.9762 15.8220 21.3673
v  -43.0549 29.7518 25.1168
v  -43.0549 29.7518 21.3673
v  -39.7461 29.7518 25.1168
v  -39.7461 29.7518 21.3673
v  -33.2354 13.6351 21.7304
v  -35.5007 15.9004 21.7304
v  -6.2858 45.1153 21.7304
v  -4.0205 42.8500 21.7304
v  -33.2354 13.6351 24.9341
v  -4.0205 42.8500 24.9341
v  -6.2858 45.1153 24.9341
v  -35.5007 15.9004 24.9341
v  -35.5007 42.8500 21.7304
v  -33.2353 45.1153 21.7304
v  -4.0205 15.9004 21.7304
v  -6.2858 13.6351 21.7304
v  -35.5007 42.8500 24.9341
v  -6.2858 13.6351 24.9341
v  -4.0205 15.9004 24.9341
v  -33.2353 45.1153 24.9341
v  -20.7387 13.5744 21.6250
v  -37.0013 29.8370 21.6250
v  -19.7821 47.0562 21.6250
v  -3.5195 30.7937 21.6250
v  -20.7387 13.5744 25.3130
v  -3.5195 30.7937 25.3130
v  -19.7821 47.0562 25.3130
v  -37.0013 29.8370 25.3130
v  20.3266 4.2542 11.1921
v  20.3266 6.0836 8.0235
v  20.3266 2.4248 8.0235
v  20.3266 0.5954 11.1921
v  20.3266 6.0836 14.3607
v  20.3266 7.9130 11.1921
v  20.3266 2.4248 14.3607
v  30.2311 2.1155 7.4877
v  30.2311 -0.0233 11.1921
v  30.2311 6.3929 7.4877
v  30.2311 8.5317 11.1921
v  30.2311 6.3929 14.8965
v  30.2311 2.1155 14.8965
v  33.6421 2.6007 8.3282
v  33.6421 0.9472 11.1921
v  33.6421 5.9077 8.3282
v  33.6421 7.5612 11.1921
v  33.6421 5.9077 14.0560
v  33.6421 2.6007 14.0560
v  33.6421 4.2542 11.1921
v  20.3266 4.2542 -3.1565
v  20.3266 6.0836 -6.3251
v  20.3266 2.4248 -6.3251
v  20.3266 0.5954 -3.1565
v  20.3266 6.0836 0.0121
v  20.3266 7.9130 -3.1565
v  20.3266 2.4248 0.0121
v  30.2311 2.1155 -6.8609
v  30.2311 -0.0233 -3.1565
v  30.2311 6.3929 -6.8609
v  30.2311 8.5317 -3.1565
v  30.2311 6.3929 0.5479
v  30.2311 2.1155 0.5479
v  33.6421 2.6007 -6.0204
v  33.6421 0.9472 -3.1565
v  33.6421 5.9077 -6.0204
v  33.6421 7.5612 -3.1565
v  33.6421 5.9077 -0.2926
v  33.6421 2.6007 -0.2926
v  33.6421 4.2542 -3.1565
v  20.3266 4.2542 -18.0396
v  20.3266 6.0836 -21.2082
v  20.3266 2.4248 -21.2082
v  20.3266 0.5954 -18.0396
v  20.3266 6.0836 -14.8710
v  20.3266 7.9130 -18.0396
v  20.3266 2.4248 -14.8710
v  30.2311 2.1155 -21.7440
v  30.2311 -0.0233 -18.0396
v  30.2311 6.3929 -21.7440
v  30.2311 8.5317 -18.0396
v  30.2311 6.3929 -14.3352
v  30.2311 2.1155 -14.3352
v  33.6421 2.6007 -20.9035
v  33.6421 0.9472 -18.0396
v  33.6421 5.9077 -20.9035
v  33.6421 7.5612 -18.0396
v  33.6421 5.9077 -15.1757
v  33.6421 2.6007 -15.1757
v  33.6421 4.2542 -18.0396
# 151 vertices

vn 0.0000 1.0000 -0.0000
vn -0.0000 0.9426 -0.3338
vn -0.2146 0.9426 -0.2557
vn -0.3288 0.9426 -0.0580
vn -0.2891 0.9426 0.1669
vn -0.1142 0.9426 0.3137
vn 0.1142 0.9426 0.3137
vn 0.2891 0.9426 0.1669
vn 0.3288 0.9426 -0.0580
vn 0.2146 0.9426 -0.2557
vn -0.2745 0.5966 -0.7541
vn 0.0000 0.6204 -0.7843
vn -0.6950 0.5966 -0.4013
vn -0.7904 0.5966 0.1394
vn -0.7903 0.5966 0.1394
vn -0.5159 0.5966 0.6148
vn 0.0000 0.5966 0.8025
vn 0.5159 0.5966 0.6148
vn 0.7904 0.5966 0.1394
vn 0.7903 0.5966 0.1394
vn 0.6950 0.5966 -0.4013
vn 0.2745 0.5966 -0.7541
vn 0.0000 -1.0000 -0.0000
vn 0.0000 0.0000 1.0000
vn 1.0000 0.0000 -0.0000
vn 0.0000 0.0000 -1.0000
vn -1.0000 0.0000 -0.0000
vn -0.3827 0.9239 -0.0000
vn -0.0000 1.0000 -0.0000
vn -0.0000 0.0000 1.0000
vn 0.3827 -0.9239 -0.0000
vn -0.0000 -1.0000 -0.0000
vn 0.3827 0.9239 -0.0000
vn -0.3827 -0.9239 -0.0000
vn 0.0000 -0.0000 -1.0000
vn 0.9239 0.3827 -0.0000
vn 1.0000 0.0000 0.0000
vn 1.0000 -0.0000 -0.0000
vn -0.9239 -0.3827 0.0000
vn -0.9239 -0.3827 -0.0000
vn 0.9239 -0.3827 0.0000
vn 0.9239 -0.3827 -0.0000
vn -0.9239 0.3827 -0.0000
vn -1.0000 0.0000 0.0000
vn -0.0000 -0.0000 -1.0000
vn 0.7071 -0.7071 -0.0000
vn 0.7071 0.7071 -0.0000
vn -0.7071 0.7071 -0.0000
vn -0.7071 -0.7071 -0.0000
vn -0.0540 -0.8648 -0.4993
vn 0.0883 -0.8626 -0.4980
vn 0.1019 -0.9948 0.0000
vn -0.0540 0.0000 -0.9985
vn 0.0883 -0.0000 -0.9961
vn -0.0540 -0.0000 -0.9985
vn -0.0540 0.8648 -0.4993
vn 0.1019 0.9948 0.0000
vn -0.0540 0.8648 0.4993
vn 0.0883 0.8626 0.4980
vn -0.0540 0.0000 0.9985
vn 0.0883 0.0000 0.9961
vn -0.0540 -0.8648 0.4993
vn 0.2392 -0.8409 -0.4855
vn 0.2737 -0.9618 0.0000
vn 0.2392 0.0000 -0.9710
vn 0.2392 0.8409 -0.4855
vn 0.2737 0.9618 0.0000
vn 0.2392 0.8409 0.4855
vn 0.2392 0.0000 0.9710
vn 0.2392 -0.8409 0.4855
vn 0.2392 -0.0000 -0.9710
# 71 vertex normals

vt 0.1838 0.2023 0.0000
vt 0.1838 0.1405 0.0000
vt 0.2235 0.1549 0.0000
vt 0.2446 0.1915 0.0000
vt 0.2373 0.2331 0.0000
vt 0.2049 0.2603 0.0000
vt 0.1626 0.2603 0.0000
vt 0.1303 0.2331 0.0000
vt 0.1229 0.1915 0.0000
vt 0.1440 0.1549 0.0000
vt 0.1826 0.1569 0.0000
vt 0.1826 0.1984 0.0000
vt 0.1217 0.1984 0.0000
vt 0.1429 0.1569 0.0000
vt 0.1990 0.1625 0.0000
vt 0.2102 0.2143 0.0000
vt 0.1455 0.2143 0.0000
vt 0.1567 0.1625 0.0000
vt 0.2158 0.1701 0.0000
vt 0.2215 0.2117 0.0000
vt 0.1577 0.2117 0.0000
vt 0.1742 0.1701 0.0000
vt 0.1964 0.1631 0.0000
vt 0.2076 0.2149 0.0000
vt 0.1429 0.2149 0.0000
vt 0.1541 0.1631 0.0000
vt 0.2115 0.1912 0.0000
vt 0.2227 0.2328 0.0000
vt 0.1580 0.2328 0.0000
vt 0.1692 0.1912 0.0000
vt 0.2185 0.1812 0.0000
vt 0.2298 0.2329 0.0000
vt 0.1650 0.2329 0.0000
vt 0.1763 0.1812 0.0000
vt 0.1825 0.1974 0.0000
vt 0.1989 0.2389 0.0000
vt 0.1352 0.2389 0.0000
vt 0.1409 0.1974 0.0000
vt 0.2047 0.1696 0.0000
vt 0.2159 0.2214 0.0000
vt 0.1512 0.2214 0.0000
vt 0.1624 0.1696 0.0000
vt 0.2223 0.1569 0.0000
vt 0.2434 0.1984 0.0000
vt 0.0355 0.5648 0.0000
vt 0.0671 0.5648 0.0000
vt 0.0671 0.7184 0.0000
vt 0.0355 0.7184 0.0000
vt 0.0731 0.5613 0.0000
vt 0.0731 0.7205 0.0000
vt 0.0377 0.7205 0.0000
vt 0.0377 0.5613 0.0000
vt -0.4550 0.4145 0.0000
vt -0.0378 0.4145 0.0000
vt -0.0378 0.9488 0.0000
vt -0.4550 0.9488 0.0000
vt 0.0666 0.7077 0.0000
vt 0.0349 0.7077 0.0000
vt 0.0349 0.5745 0.0000
vt 0.0666 0.5745 0.0000
vt 0.6738 0.3315 0.0000
vt 0.3357 0.3315 0.0000
vt 0.3357 0.0251 0.0000
vt 0.6738 0.0251 0.0000
vt 0.0727 0.7125 0.0000
vt 0.0411 0.7125 0.0000
vt 0.0411 0.5793 0.0000
vt 0.0727 0.5793 0.0000
vt -0.3426 0.2746 0.0000
vt -0.6039 0.2746 0.0000
vt -0.6039 0.0345 0.0000
vt -0.3426 0.0345 0.0000
vt -0.6661 0.3354 0.0000
vt -0.6661 0.0294 0.0000
vt -0.3331 0.0294 0.0000
vt -0.3331 0.3354 0.0000
vt 0.5843 0.3337 0.0000
vt 0.3442 0.3337 0.0000
vt 0.3442 0.2874 0.0000
vt 0.5843 0.2874 0.0000
vt -0.4002 0.3281 0.0000
vt -0.6616 0.3281 0.0000
vt -0.6616 0.2817 0.0000
vt -0.4002 0.2817 0.0000
vt -0.4139 0.2818 0.0000
vt -0.6540 0.2818 0.0000
vt -0.6540 0.2355 0.0000
vt -0.4139 0.2355 0.0000
vt -0.3888 0.2406 0.0000
vt -0.6502 0.2406 0.0000
vt -0.6502 0.1943 0.0000
vt -0.3888 0.1943 0.0000
vt 0.0416 0.5645 0.0000
vt 0.0614 0.5645 0.0000
vt 0.0614 0.6503 0.0000
vt 0.0416 0.6503 0.0000
vt -0.5255 0.7763 0.0000
vt -0.5560 0.5606 0.0000
vt -0.5237 0.5443 0.0000
vt -0.5576 0.7593 0.0000
vt 0.0500 0.5730 0.0000
vt 0.0697 0.6465 0.0000
vt 0.0500 0.6465 0.0000
vt 0.0697 0.5730 0.0000
vt -0.5565 0.7601 0.0000
vt -0.6568 0.9414 0.0000
vt -0.6698 0.9006 0.0000
vt -0.5245 0.7774 0.0000
vt 0.0614 0.7362 0.0000
vt 0.0416 0.7362 0.0000
vt -0.6671 0.4188 0.0000
vt -0.6535 0.3787 0.0000
vt 0.0697 0.7200 0.0000
vt 0.0500 0.7200 0.0000
vt -0.8422 0.9392 0.0000
vt -0.8286 0.8986 0.0000
vt 0.0416 0.5613 0.0000
vt 0.0614 0.6472 0.0000
vt 0.0416 0.6472 0.0000
vt 0.0614 0.5613 0.0000
vt -0.8259 0.4169 0.0000
vt -0.8389 0.3764 0.0000
vt 0.0480 0.5831 0.0000
vt 0.0678 0.6566 0.0000
vt 0.0480 0.6566 0.0000
vt 0.0678 0.5831 0.0000
vt -0.9720 0.7718 0.0000
vt -0.9397 0.7554 0.0000
vt 0.0614 0.7330 0.0000
vt 0.0416 0.7330 0.0000
vt -0.9392 0.5559 0.0000
vt -0.9712 0.5389 0.0000
vt 0.0678 0.7301 0.0000
vt 0.0480 0.7301 0.0000
vt -0.9702 0.5375 0.0000
vt -0.9381 0.5548 0.0000
vt 0.0651 0.7371 0.0000
vt 0.0453 0.6513 0.0000
vt 0.0651 0.6513 0.0000
vt 0.0453 0.7371 0.0000
vt -0.9407 0.7546 0.0000
vt -0.9731 0.7708 0.0000
vt 0.0716 0.7207 0.0000
vt 0.0518 0.6472 0.0000
vt 0.0716 0.6472 0.0000
vt 0.0518 0.7207 0.0000
vt -0.8378 0.3735 0.0000
vt -0.8248 0.4143 0.0000
vt 0.0453 0.5654 0.0000
vt 0.0651 0.5654 0.0000
vt -0.8296 0.8964 0.0000
vt -0.8433 0.9365 0.0000
vt 0.0518 0.5737 0.0000
vt 0.0716 0.5737 0.0000
vt -0.6524 0.3758 0.0000
vt -0.6661 0.4163 0.0000
vt 0.0664 0.7305 0.0000
vt 0.0467 0.6446 0.0000
vt 0.0664 0.6446 0.0000
vt 0.0467 0.7305 0.0000
vt -0.6709 0.8983 0.0000
vt -0.6579 0.9388 0.0000
vt 0.0676 0.7285 0.0000
vt 0.0479 0.6549 0.0000
vt 0.0676 0.6549 0.0000
vt 0.0479 0.7285 0.0000
vt -0.5226 0.5431 0.0000
vt -0.5550 0.5595 0.0000
vt 0.0467 0.5588 0.0000
vt 0.0664 0.5588 0.0000
vt 0.0479 0.5814 0.0000
vt 0.0676 0.5814 0.0000
vt 0.0534 0.5663 0.0000
vt 0.0703 0.5665 0.0000
vt 0.0660 0.7243 0.0000
vt 0.0491 0.7241 0.0000
vt 0.0472 0.7343 0.0000
vt 0.0530 0.5653 0.0000
vt 0.0759 0.5655 0.0000
vt 0.0701 0.7346 0.0000
vt 0.0656 0.5774 0.0000
vt 0.0656 0.7316 0.0000
vt 0.0487 0.7316 0.0000
vt 0.0487 0.5774 0.0000
vt -0.1432 0.1870 0.0000
vt -0.1312 0.1870 0.0000
vt -0.1312 0.2039 0.0000
vt -0.1432 0.2039 0.0000
vt 0.0491 0.7316 0.0000
vt 0.0491 0.5774 0.0000
vt 0.0660 0.5774 0.0000
vt 0.0660 0.7316 0.0000
vt 0.0656 0.5654 0.0000
vt 0.0487 0.5654 0.0000
vt 0.0523 0.5722 0.0000
vt 0.0752 0.5724 0.0000
vt 0.0694 0.7208 0.0000
vt 0.0465 0.7206 0.0000
vt 0.0479 0.7308 0.0000
vt 0.0529 0.5655 0.0000
vt 0.0728 0.5657 0.0000
vt 0.0678 0.7310 0.0000
vt 0.0684 0.5789 0.0000
vt 0.0684 0.7331 0.0000
vt 0.0515 0.7331 0.0000
vt 0.0515 0.5789 0.0000
vt -0.2063 0.1983 0.0000
vt -0.2063 0.1864 0.0000
vt -0.1894 0.1864 0.0000
vt -0.1894 0.1983 0.0000
vt 0.0530 0.7327 0.0000
vt 0.0530 0.5786 0.0000
vt 0.0699 0.5786 0.0000
vt 0.0699 0.7327 0.0000
vt 0.0684 0.5670 0.0000
vt 0.0515 0.5670 0.0000
vt -0.5896 0.6347 0.0000
vt -0.7617 0.8429 0.0000
vt -0.9326 0.6483 0.0000
vt -0.7574 0.4498 0.0000
vt -0.9326 0.6511 0.0000
vt -0.7602 0.4453 0.0000
vt -0.5903 0.6368 0.0000
vt -0.7598 0.8428 0.0000
vt 0.0670 0.6175 0.0000
vt 0.0670 0.7083 0.0000
vt 0.0476 0.7083 0.0000
vt 0.0476 0.6175 0.0000
vt 0.0509 0.7116 0.0000
vt 0.0509 0.6258 0.0000
vt 0.0703 0.6258 0.0000
vt 0.0703 0.7116 0.0000
vt 0.0461 0.7056 0.0000
vt 0.0461 0.6148 0.0000
vt 0.0656 0.6148 0.0000
vt 0.0656 0.7056 0.0000
vt 0.0553 0.6175 0.0000
vt 0.0553 0.7033 0.0000
vt 0.0358 0.7033 0.0000
vt 0.0358 0.6175 0.0000
vt -0.1993 0.0831 0.0000
vt -0.1896 0.0998 0.0000
vt -0.2089 0.0998 0.0000
vt -0.2186 0.0831 0.0000
vt -0.1896 0.0664 0.0000
vt -0.1800 0.0831 0.0000
vt -0.2089 0.0664 0.0000
vt 0.7224 0.1850 0.0000
vt 0.8697 0.0520 0.0000
vt 0.8930 0.1194 0.0000
vt 0.7025 0.1274 0.0000
vt 0.7471 0.2424 0.0000
vt 0.8864 0.1086 0.0000
vt 0.9127 0.1851 0.0000
vt 0.7245 0.1770 0.0000
vt 0.7410 0.2467 0.0000
vt 0.8918 0.1235 0.0000
vt 0.9150 0.1908 0.0000
vt 0.7212 0.1890 0.0000
vt 0.8685 0.0561 0.0000
vt 0.7013 0.1314 0.0000
vt 0.7321 0.1778 0.0000
vt 0.8737 0.0561 0.0000
vt 0.8991 0.1241 0.0000
vt 0.7105 0.1196 0.0000
vt 0.7422 0.2426 0.0000
vt 0.9162 0.1868 0.0000
vt 0.9337 0.0447 0.0000
vt 0.9517 0.0968 0.0000
vt 0.9458 0.0957 0.0000
vt 0.9661 0.1548 0.0000
vt 0.9505 0.1009 0.0000
vt 0.9685 0.1530 0.0000
vt 0.9326 0.0488 0.0000
vt 0.9335 0.0436 0.0000
vt 0.9531 0.0962 0.0000
vt 0.9697 0.1489 0.0000
vt -0.1085 0.1265 0.0000
vt -0.1259 0.1265 0.0000
vt -0.1172 0.1114 0.0000
vt -0.0997 0.1114 0.0000
vt -0.0910 0.1265 0.0000
vt -0.0997 0.1416 0.0000
vt -0.1172 0.1416 0.0000
vt -0.0803 0.0779 0.0000
vt -0.0707 0.0946 0.0000
vt -0.0900 0.0946 0.0000
vt -0.0996 0.0779 0.0000
vt -0.0707 0.0612 0.0000
vt -0.0610 0.0779 0.0000
vt -0.0900 0.0612 0.0000
vt 0.7237 0.1858 0.0000
vt 0.8711 0.0529 0.0000
vt 0.8943 0.1203 0.0000
vt 0.7038 0.1282 0.0000
vt 0.7482 0.2424 0.0000
vt 0.8875 0.1086 0.0000
vt 0.9139 0.1851 0.0000
vt 0.7256 0.1769 0.0000
vt 0.7417 0.2498 0.0000
vt 0.8924 0.1266 0.0000
vt 0.9157 0.1940 0.0000
vt 0.7219 0.1921 0.0000
vt 0.8692 0.0592 0.0000
vt 0.7020 0.1345 0.0000
vt 0.7327 0.1792 0.0000
vt 0.8744 0.0575 0.0000
vt 0.8997 0.1255 0.0000
vt 0.7111 0.1210 0.0000
vt 0.7436 0.2435 0.0000
vt 0.9175 0.1877 0.0000
vt 0.9351 0.0456 0.0000
vt 0.9530 0.0977 0.0000
vt 0.9469 0.0956 0.0000
vt 0.9673 0.1548 0.0000
vt 0.9512 0.1040 0.0000
vt 0.9691 0.1561 0.0000
vt 0.9332 0.0519 0.0000
vt 0.9341 0.0451 0.0000
vt 0.9537 0.0976 0.0000
vt 0.9710 0.1498 0.0000
vt -0.1543 0.1605 0.0000
vt -0.1718 0.1605 0.0000
vt -0.1631 0.1454 0.0000
vt -0.1456 0.1454 0.0000
vt -0.1369 0.1605 0.0000
vt -0.1456 0.1756 0.0000
vt -0.1631 0.1756 0.0000
vt -0.2139 0.1394 0.0000
vt -0.2042 0.1561 0.0000
vt -0.2236 0.1561 0.0000
vt -0.2332 0.1394 0.0000
vt -0.2042 0.1227 0.0000
vt -0.1946 0.1394 0.0000
vt -0.2236 0.1227 0.0000
vt 0.7201 0.1895 0.0000
vt 0.8674 0.0565 0.0000
vt 0.8907 0.1239 0.0000
vt 0.7002 0.1319 0.0000
vt 0.7482 0.2391 0.0000
vt 0.8875 0.1053 0.0000
vt 0.9138 0.1818 0.0000
vt 0.7256 0.1736 0.0000
vt 0.7399 0.2470 0.0000
vt 0.8906 0.1238 0.0000
vt 0.9138 0.1911 0.0000
vt 0.7200 0.1893 0.0000
vt 0.8674 0.0564 0.0000
vt 0.7002 0.1317 0.0000
vt 0.7306 0.1805 0.0000
vt 0.8723 0.0589 0.0000
vt 0.8976 0.1269 0.0000
vt 0.7090 0.1224 0.0000
vt 0.7399 0.2471 0.0000
vt 0.9139 0.1913 0.0000
vt 0.9315 0.0492 0.0000
vt 0.9494 0.1013 0.0000
vt 0.9468 0.0923 0.0000
vt 0.9672 0.1515 0.0000
vt 0.9494 0.1012 0.0000
vt 0.9673 0.1533 0.0000
vt 0.9314 0.0491 0.0000
vt 0.9320 0.0464 0.0000
vt 0.9516 0.0990 0.0000
vt 0.9674 0.1534 0.0000
vt -0.1368 0.0342 0.0000
vt -0.1368 0.0168 0.0000
vt -0.1217 0.0255 0.0000
vt -0.1217 0.0429 0.0000
vt -0.1368 0.0517 0.0000
vt -0.1519 0.0429 0.0000
vt -0.1519 0.0255 0.0000
# 372 texture coords

g Sphere01
usemtl Material__29
s 1
f 1/1/1 2/2/2 3/3/3 
f 1/1/1 3/3/3 4/4/4 
f 1/1/1 4/4/4 5/5/5 
f 1/1/1 5/5/5 6/6/6 
f 1/1/1 6/6/6 7/7/7 
f 1/1/1 7/7/7 8/8/8 
f 1/1/1 8/8/8 9/9/9 
f 1/1/1 9/9/9 10/10/10 
f 1/1/1 10/10/10 2/2/2 
f 2/11/11 11/12/12 12/13/11 
f 2/11/11 12/13/11 3/14/11 
f 3/15/13 12/16/13 13/17/13 
f 3/15/13 13/17/13 4/18/13 
f 4/19/14 13/20/14 14/21/14 
f 4/19/15 14/21/14 5/22/15 
f 5/23/16 14/24/16 15/25/16 
f 5/23/16 15/25/16 6/26/16 
f 6/27/17 15/28/17 16/29/17 
f 6/27/17 16/29/17 7/30/17 
f 7/31/18 16/32/18 17/33/18 
f 7/31/18 17/33/18 8/34/18 
f 8/35/19 17/36/19 18/37/19 
f 8/35/20 18/37/19 9/38/20 
f 9/39/21 18/40/21 19/41/21 
f 9/39/21 19/41/21 10/42/21 
f 10/43/22 19/44/22 11/12/12 
f 10/43/22 11/12/12 2/11/22 
s 2
f 20/45/23 21/46/23 22/47/23 23/48/23 
s 4
f 24/49/1 25/50/1 26/51/1 27/52/1 
s 8
f 20/53/24 23/54/24 25/55/24 
f 25/55/24 24/56/24 20/53/24 
s 16
f 23/57/25 22/58/25 26/59/25 
f 26/59/25 25/60/25 23/57/25 
s 32
f 22/61/26 21/62/26 27/63/26 
f 27/63/26 26/64/26 22/61/26 
s 64
f 21/65/27 20/66/27 24/67/27 
f 24/67/27 27/68/27 21/65/27 
s 2
f 28/69/23 29/70/23 30/71/23 31/72/23 
s 4
f 32/73/1 33/74/1 34/75/1 35/76/1 
s 8
f 28/77/24 31/78/24 33/79/24 
f 33/79/24 32/80/24 28/77/24 
s 16
f 31/81/25 30/82/25 34/83/25 
f 34/83/25 33/84/25 31/81/25 
s 32
f 30/85/26 29/86/26 35/87/26 
f 35/87/26 34/88/26 30/85/26 
s 64
f 29/89/27 28/90/27 32/91/27 
f 32/91/27 35/92/27 29/89/27 
s 2
f 36/93/28 37/94/28 38/95/1 39/96/29 
s 4
f 37/97/24 40/98/30 38/99/24 
f 37/97/24 41/100/24 40/98/30 
s 2
f 41/101/31 42/102/32 40/103/31 
f 41/101/31 43/104/31 42/102/32 
s 4
f 43/105/26 39/106/26 42/107/26 
f 43/105/26 36/108/26 39/106/26 
s 2
f 39/96/29 38/95/1 44/109/33 45/110/33 
s 4
f 38/99/30 46/111/30 44/112/30 
f 38/99/30 40/98/30 46/111/30 
s 2
f 40/103/34 47/113/34 46/114/34 
f 40/103/34 42/102/32 47/113/34 
s 4
f 42/107/35 45/115/35 47/116/35 
f 42/107/26 39/106/26 45/115/26 
s 2
f 45/117/36 48/118/37 49/119/38 
f 45/117/36 44/120/36 48/118/37 
s 4
f 44/112/24 50/121/24 48/122/24 
f 44/112/24 46/111/30 50/121/24 
s 2
f 46/123/39 51/124/27 50/125/39 
f 46/123/40 47/126/40 51/124/27 
s 4
f 47/116/26 49/127/26 51/128/26 
f 47/116/26 45/115/26 49/127/26 
s 2
f 49/119/38 48/118/37 52/129/41 53/130/42 
s 4
f 48/122/24 54/131/24 52/132/24 
f 48/122/24 50/121/24 54/131/24 
s 2
f 50/125/43 55/133/43 54/134/43 
f 50/125/43 51/124/27 55/133/43 
s 4
f 51/128/26 53/135/26 55/136/26 
f 51/128/26 49/127/26 53/135/26 
s 2
f 53/137/31 56/138/32 57/139/32 
f 53/137/31 52/140/31 56/138/32 
s 4
f 52/132/24 58/141/24 56/142/24 
f 52/132/24 54/131/24 58/141/24 
s 2
f 54/143/28 59/144/1 58/145/28 
f 54/143/28 55/146/28 59/144/1 
s 4
f 55/136/26 57/147/26 59/148/26 
f 55/136/26 53/135/26 57/147/26 
s 2
f 57/139/32 56/138/32 60/149/34 61/150/34 
s 4
f 56/142/24 62/151/30 60/152/24 
f 56/142/24 58/141/24 62/151/30 
s 2
f 58/145/33 63/153/33 62/154/33 
f 58/145/33 59/144/1 63/153/33 
s 4
f 59/148/26 61/155/26 63/156/26 
f 59/148/26 57/147/26 61/155/26 
s 2
f 61/157/39 64/158/27 65/159/44 
f 61/157/40 60/160/40 64/158/27 
s 4
f 60/152/24 66/161/30 64/162/24 
f 60/152/30 62/151/30 66/161/30 
s 2
f 62/163/36 67/164/38 66/165/36 
f 62/163/36 63/166/36 67/164/38 
s 4
f 63/156/45 65/167/45 67/168/45 
f 63/156/35 61/155/35 65/167/35 
s 2
f 65/159/44 37/169/43 36/170/43 
f 65/159/44 64/158/27 37/169/43 
s 4
f 64/162/24 41/100/24 37/97/24 
f 64/162/24 66/161/30 41/100/24 
s 2
f 66/165/42 43/171/42 41/172/42 
f 66/165/42 67/164/38 43/171/42 
s 4
f 67/168/26 36/108/26 43/105/26 
f 67/168/26 65/167/26 36/108/26 
s 2
f 68/173/26 69/174/26 70/175/26 71/176/26 
s 4
f 72/177/24 73/178/24 74/179/24 75/180/24 
s 8
f 68/181/46 71/182/46 73/183/46 
f 73/183/46 72/184/46 68/181/46 
s 16
f 71/185/47 70/186/47 74/187/47 
f 74/187/47 73/188/47 71/185/47 
s 32
f 70/189/48 69/190/48 75/191/48 
f 75/191/48 74/192/48 70/189/48 
s 64
f 69/193/49 68/181/49 72/184/49 
f 72/184/49 75/194/49 69/193/49 
s 2
f 76/195/35 77/196/35 78/197/35 79/198/35 
s 4
f 80/199/30 81/200/30 82/201/30 83/202/30 
s 8
f 76/203/49 79/204/49 81/205/49 
f 81/205/49 80/206/49 76/203/49 
s 16
f 79/207/46 78/208/46 82/209/46 
f 82/209/46 81/210/46 79/207/46 
s 32
f 78/211/47 77/212/47 83/213/47 
f 83/213/47 82/214/47 78/211/47 
s 64
f 77/215/48 76/203/48 80/206/48 
f 80/206/48 83/216/48 77/215/48 
s 2
f 84/217/35 85/218/35 86/219/35 87/220/35 
s 4
f 88/221/30 89/222/30 90/223/30 91/224/30 
s 8
f 84/225/46 87/226/46 89/227/46 
f 89/227/46 88/228/46 84/225/46 
s 16
f 87/229/47 86/230/47 90/231/47 
f 90/231/47 89/232/47 87/229/47 
s 32
f 86/233/48 85/234/48 91/235/48 
f 91/235/48 90/236/48 86/233/48 
s 64
f 85/237/49 84/238/49 88/239/49 
f 88/239/49 91/240/49 85/237/49 
s 1
f 92/241/44 93/242/44 94/243/27 95/244/27 
f 92/241/44 96/245/27 97/246/44 93/242/44 
f 92/241/44 95/244/27 98/247/44 96/245/27 
s 8
f 95/248/50 99/249/51 100/250/52 
f 95/248/50 94/251/50 99/249/51 
f 94/252/53 101/253/54 99/254/53 
f 94/252/55 93/255/55 101/253/54 
f 93/256/56 102/257/57 101/258/56 
f 93/256/56 97/259/56 102/257/57 
f 97/259/58 103/260/59 102/257/57 
f 97/259/58 96/261/58 103/260/59 
f 96/262/60 104/263/61 103/264/60 
f 96/262/60 98/265/60 104/263/61 
f 98/266/62 100/250/52 104/267/62 
f 98/266/62 95/248/62 100/250/52 
f 100/250/52 99/249/51 105/268/63 106/269/64 
f 99/254/65 107/270/65 105/271/65 
f 99/254/65 101/253/54 107/270/65 
f 101/258/66 108/272/67 107/273/66 
f 101/258/66 102/257/57 108/272/67 
f 102/257/57 103/260/59 109/274/68 108/272/67 
f 103/264/69 110/275/69 109/276/69 
f 103/264/69 104/263/61 110/275/69 
f 104/267/70 106/269/64 110/277/70 
f 104/267/70 100/250/52 106/269/64 
s 1
f 111/278/25 106/279/25 105/280/25 
f 111/278/25 105/280/25 107/281/25 
f 111/278/25 107/281/25 108/282/25 
f 111/278/25 108/282/25 109/283/25 
f 111/278/25 109/283/25 110/284/25 
f 111/278/25 110/284/25 106/279/25 
f 112/285/44 113/286/44 114/287/27 115/288/27 
f 112/285/44 116/289/27 117/290/44 113/286/44 
f 112/285/44 115/288/27 118/291/44 116/289/27 
s 8
f 115/292/50 119/293/51 120/294/52 
f 115/292/50 114/295/50 119/293/51 
f 114/296/55 121/297/54 119/298/55 
f 114/296/53 113/299/53 121/297/54 
f 113/300/56 122/301/57 121/302/56 
f 113/300/56 117/303/56 122/301/57 
f 117/303/58 123/304/59 122/301/57 
f 117/303/58 116/305/58 123/304/59 
f 116/306/60 124/307/61 123/308/60 
f 116/306/60 118/309/60 124/307/61 
f 118/310/62 120/294/52 124/311/62 
f 118/310/62 115/292/62 120/294/52 
f 120/294/52 119/293/51 125/312/63 126/313/64 
f 119/298/65 127/314/71 125/315/65 
f 119/298/71 121/297/54 127/314/71 
f 121/302/66 128/316/67 127/317/66 
f 121/302/66 122/301/57 128/316/67 
f 122/301/57 123/304/59 129/318/68 128/316/67 
f 123/308/69 130/319/69 129/320/69 
f 123/308/69 124/307/61 130/319/69 
f 124/311/70 126/313/64 130/321/70 
f 124/311/70 120/294/52 126/313/64 
s 1
f 131/322/25 126/323/25 125/324/25 
f 131/322/25 125/324/25 127/325/25 
f 131/322/25 127/325/25 128/326/25 
f 131/322/25 128/326/25 129/327/25 
f 131/322/25 129/327/25 130/328/25 
f 131/322/25 130/328/25 126/323/25 
f 132/329/27 133/330/44 134/331/27 135/332/27 
f 132/329/27 136/333/27 137/334/44 133/330/44 
f 132/329/27 135/332/27 138/335/44 136/333/27 
s 8
f 135/336/50 139/337/51 140/338/52 
f 135/336/50 134/339/50 139/337/51 
f 134/340/53 141/341/54 139/342/53 
f 134/340/55 133/343/55 141/341/54 
f 133/344/56 142/345/57 141/346/56 
f 133/344/56 137/347/56 142/345/57 
f 137/347/58 143/348/59 142/345/57 
f 137/347/58 136/349/58 143/348/59 
f 136/350/60 144/351/61 143/352/60 
f 136/350/60 138/353/60 144/351/61 
f 138/354/62 140/338/52 144/355/62 
f 138/354/62 135/336/62 140/338/52 
f 140/338/52 139/337/51 145/356/63 146/357/64 
f 139/342/65 147/358/65 145/359/65 
f 139/342/65 141/341/54 147/358/65 
f 141/346/66 148/360/67 147/361/66 
f 141/346/66 142/345/57 148/360/67 
f 142/345/57 143/348/59 149/362/68 148/360/67 
f 143/352/69 150/363/69 149/364/69 
f 143/352/69 144/351/61 150/363/69 
f 144/355/70 146/357/64 150/365/70 
f 144/355/70 140/338/52 146/357/64 
s 1
f 151/366/25 146/367/25 145/368/25 
f 151/366/25 145/368/25 147/369/25 
f 151/366/25 147/369/25 148/370/25 
f 151/366/25 148/370/25 149/371/25 
f 151/366/25 149/371/25 150/372/25 
f 151/366/25 150/372/25 146/367/25 
# 29 polygons - 201 triangles

