# Max2Obj Version 4.0 Mar 10th, 2001
#
mtllib ./capsback.mtl
g
# object capsback to come ...
#
v  -3.451409 4.659101 0.506085
v  -1.020020 4.513411 2.617744
v  3.530229 4.421213 -0.516891
v  -5.560557 -2.422812 2.708769
v  3.281849 -2.066680 4.858019
v  -4.635054 -4.622346 2.319890
v  2.747509 -4.867372 3.710829
v  -6.427787 -2.422812 -0.000000
v  6.518392 -2.422812 -0.000000
v  -5.359108 -4.821940 -0.000000
v  5.449713 -4.821940 -0.000000
v  1.032343 4.567347 -2.714858
v  -5.560557 -2.422812 -2.708769
v  0.045304 -1.630754 -5.648765
v  5.651164 -2.422812 -2.708767
v  -4.635054 -4.622346 -2.319890
v  2.747509 -4.867372 -3.710828
v  -4.655389 6.645646 -0.318916
v  -2.491403 6.578313 2.424888
v  0.368967 5.832346 3.438572
v  4.745456 6.374510 0.318916
v  2.581521 6.537617 -2.424888
v  -0.340466 6.321731 -3.525959
v  -0.557624 5.074670 -1.479355
v  -0.929446 5.152573 -0.205653
v  0.169281 5.198236 0.540907
v  1.220154 5.148552 -0.271396
v  0.770902 5.072186 -1.519987
v  0.134653 5.129244 -0.587097
v  1.419067 4.951630 -0.045295
v  0.397548 5.018349 -0.893048
v  -0.726873 4.962742 -0.186490
v  -0.400284 4.861655 1.097939
v  0.925980 4.854787 1.185203
v  0.323087 4.929833 0.231662
v  -2.285445 5.013842 -0.156007
v  -2.331932 5.007836 1.172315
v  -1.093401 5.167849 1.627369
v  -0.281459 5.272749 0.580285
v  -1.018183 5.177567 -0.521903
v  -1.402084 5.127968 0.540412
v  3.004052 4.847186 -0.466685
v  2.224886 4.951123 -1.538476
v  0.964170 5.025488 -1.124108
v  0.964170 4.967512 0.203777
v  2.224887 4.857315 0.610086
v  1.876433 4.929725 -0.463081
# 47 vertices

vt  0.136147 0.942877 0.085798
vt  0.242842 0.936078 0.286778
vt  0.442516 0.931776 -0.011566
vt  0.056513 0.606873 0.295442
vt  0.431617 0.629029 0.500000
vt  0.097126 0.504236 0.258430
vt  0.356489 0.431894 0.390814
vt  0.018457 0.606873 0.037630
vt  0.558878 0.619793 0.037630
vt  0.065353 0.494922 0.037630
vt  0.511982 0.507842 0.037630
vt  0.332904 0.938595 -0.220761
vt  0.056513 0.606873 -0.220181
vt  0.289590 0.649371 -0.500000
vt  0.520822 0.619793 -0.220181
vt  0.097126 0.504236 -0.183169
vt  0.356489 0.431894 -0.315554
vt  0.078515 0.995201 0.007277
vt  0.174028 0.995039 0.268423
vt  0.300277 0.993241 0.364902
vt  0.493444 0.994548 0.067984
vt  0.397933 0.994941 -0.193162
vt  0.268964 0.994421 -0.297959
vt  0.136147 0.942877 0.085798
vt  0.242842 0.936078 0.286778
vt  0.442516 0.931776 -0.011566
vt  0.332904 0.938595 -0.220761
vt  0.007951 0.351413 0.500000
vt  0.020134 0.042554 -0.112434
vt  0.451949 0.022438 -0.500000
vt  0.441081 0.341992 0.114294
vt  0.994463 0.250831 -0.500000
vt  0.823995 0.494278 -0.500000
vt  0.548173 0.401289 -0.500000
vt  0.548173 0.100371 -0.500000
vt  0.823995 0.007383 -0.500000
vt  0.994463 0.250831 0.500000
vt  0.823995 0.494278 0.500000
vt  0.548173 0.401289 0.500000
vt  0.548173 0.100371 0.500000
vt  0.823995 0.007383 0.500000
vt  0.747760 0.250830 0.500000
vt  0.994463 0.250831 -0.500000
vt  0.823995 0.494278 -0.500000
vt  0.548173 0.401289 -0.500000
vt  0.548173 0.100371 -0.500000
vt  0.823995 0.007383 -0.500000
vt  0.994463 0.250831 0.500000
vt  0.823995 0.494278 0.500000
vt  0.548173 0.401289 0.500000
vt  0.548173 0.100371 0.500000
vt  0.823995 0.007383 0.500000
vt  0.747760 0.250830 0.500000
vt  0.994463 0.250831 -0.500000
vt  0.823995 0.494278 -0.500000
vt  0.548173 0.401289 -0.500000
vt  0.548173 0.100371 -0.500000
vt  0.823995 0.007383 -0.500000
vt  0.994463 0.250831 0.500000
vt  0.823995 0.494278 0.500000
vt  0.548173 0.401289 0.500000
vt  0.548173 0.100371 0.500000
vt  0.823995 0.007383 0.500000
vt  0.747760 0.250830 0.500000
vt  0.994463 0.250831 -0.500000
vt  0.823995 0.494278 -0.500000
vt  0.548173 0.401289 -0.500000
vt  0.548173 0.100371 -0.500000
vt  0.823995 0.007383 -0.500000
vt  0.994463 0.250831 0.500000
vt  0.823995 0.494278 0.500000
vt  0.548173 0.401289 0.500000
vt  0.548173 0.100371 0.500000
vt  0.823995 0.007383 0.500000
vt  0.747760 0.250830 0.500000
# 75 texture vertices

vn  -1.125257 0.244270 0.057315
vn  -0.183329 0.257137 1.070167
vn  1.127465 0.232663 -0.078980
vn  -0.829877 -0.033476 0.789192
vn  0.457557 0.006692 1.035296
vn  -0.509972 -0.675053 0.631836
vn  0.268253 -0.711090 0.711550
vn  -1.164954 -0.013518 -0.005640
vn  1.154937 -0.005988 0.148082
vn  -0.720141 -0.755372 0.013370
vn  0.773405 -0.716764 0.062438
vn  0.191755 0.264475 -1.066327
vn  -0.904614 0.005891 -0.709424
vn  -0.033739 0.027788 -1.124832
vn  0.917677 -0.026874 -0.692902
vn  -0.568734 -0.682465 -0.571164
vn  0.296010 -0.720530 -0.687848
vn  -1.001876 -0.466692 -0.176979
vn  -0.734125 -0.228315 0.832256
vn  0.205472 -0.512113 0.931699
vn  1.013167 -0.464412 0.113987
vn  0.702542 -0.212520 -0.862884
vn  -0.265989 -0.445160 -0.964042
vn  -0.000000 0.958566 -0.080453
vn  -0.000001 0.958566 -0.080453
vn  0.000000 0.958566 -0.080453
vn  0.000001 0.958566 -0.080453
vn  0.000000 0.958566 -0.080453
vn  0.000000 0.958566 -0.080453
vn  0.000000 0.956965 0.103351
vn  0.000000 0.956965 0.103351
vn  0.000000 0.956965 0.103351
vn  0.000000 0.956965 0.103351
vn  0.000000 0.956965 0.103351
vn  0.000000 0.956965 0.103351
vn  -0.180287 0.949448 0.000000
vn  -0.180287 0.949448 -0.000000
vn  -0.180288 0.949448 -0.000000
vn  -0.180289 0.949448 0.000000
vn  -0.180288 0.949448 0.000000
vn  -0.180288 0.949448 0.000000
vn  0.103045 0.956008 0.057278
vn  0.103045 0.956007 0.057278
vn  0.103046 0.956007 0.057278
vn  0.103046 0.956007 0.057278
vn  0.103045 0.956008 0.057278
vn  0.103046 0.956008 0.057278
# 47 vertex normals

g capsback
usemtl Material__39
s 1
f 5/5/5 3/3/3 2/2/2
s 3
f 1/1/1 8/8/8 4/4/4
f 4/4/4 2/2/2 1/1/1
f 2/2/2 4/4/4 5/5/5
f 8/8/8 10/10/10 6/6/6
f 7/7/7 5/5/5 4/4/4
f 4/4/4 6/6/6 7/7/7
s 1
f 11/11/11 9/9/9 5/5/5
s 5
f 7/7/7 17/17/17 11/11/11
f 17/17/17 6/6/6 10/10/10
s 1
f 3/3/3 5/5/5 9/9/9
s 3
f 6/6/6 4/4/4 8/8/8
s 1
f 5/5/5 7/7/7 11/11/11
s 5
f 7/7/7 6/6/6 17/17/17
s 3
f 8/8/8 1/1/1 13/13/13
f 13/13/13 1/1/1 12/12/12
f 14/14/14 12/12/12 3/3/3
f 12/12/12 14/14/14 13/13/13
f 3/3/3 15/15/15 14/14/14
f 10/10/10 8/8/8 16/16/16
f 14/14/14 16/16/16 13/13/13
f 16/16/16 14/14/14 17/17/17
f 15/15/15 17/17/17 14/14/14
f 9/9/9 11/11/11 15/15/15
f 15/15/15 3/3/3 9/9/9
f 13/13/13 16/16/16 8/8/8
f 17/17/17 15/15/15 11/11/11
s 5
f 10/10/10 16/16/16 17/17/17
f 12/31/12 1/28/1 2/29/2
f 2/29/2 3/30/3 12/31/12
s 3
f 19/19/19 18/18/18 1/24/1
f 1/24/1 2/25/2 19/19/19
s 9
f 2/25/2 3/26/3 20/20/20
s 3
f 20/20/20 19/19/19 2/25/2
s 9
f 21/21/21 20/20/20 3/26/3
s 3
f 22/22/22 21/21/21 3/26/3
f 3/26/3 12/27/12 22/22/22
s 1
f 12/27/12 1/24/1 23/23/23
s 3
f 23/23/23 22/22/22 12/27/12
s 1
f 18/18/18 23/23/23 1/24/1
f 29/42/29 24/37/24 25/38/25
f 29/42/29 25/38/25 26/39/26
f 29/42/29 26/39/26 27/40/27
f 29/42/29 27/40/27 28/41/28
f 29/42/29 28/41/28 24/37/24
f 35/53/35 30/48/30 31/49/31
f 35/53/35 31/49/31 32/50/32
f 35/53/35 32/50/32 33/51/33
f 35/53/35 33/51/33 34/52/34
f 35/53/35 34/52/34 30/48/30
f 41/64/41 36/59/36 37/60/37
f 41/64/41 37/60/37 38/61/38
f 41/64/41 38/61/38 39/62/39
f 41/64/41 39/62/39 40/63/40
f 41/64/41 40/63/40 36/59/36
f 47/75/47 42/70/42 43/71/43
f 47/75/47 43/71/43 44/72/44
f 47/75/47 44/72/44 45/73/45
f 47/75/47 45/73/45 46/74/46
f 47/75/47 46/74/46 42/70/42
# 60 faces

g
