# 3ds Max Wavefront OBJ Exporter v0.97b - (c)2007 guruware
# File Created: 22.06.2011 21:30:00

mtllib Rocket_Explosive.mtl

#
# object Cylinder04
#

v  24.1309 -30.8469 -15.0317
v  21.0181 -30.8469 -22.5466
v  21.0181 115.9056 -22.5466
v  27.2436 -30.8469 -7.5169
v  27.2436 115.9056 -7.5169
v  13.5033 -30.8469 -25.6593
v  5.9884 -30.8469 -28.7721
v  5.9884 115.9056 -28.7721
v  -1.5264 -30.8469 -25.6593
v  -9.0413 -30.8469 -22.5466
v  -9.0413 115.9056 -22.5466
v  -12.1540 -30.8469 -15.0317
v  -15.2668 -30.8469 -7.5169
v  -15.2668 115.9056 -7.5169
v  -12.1540 -30.8469 -0.0020
v  -9.0413 -30.8469 7.5128
v  -9.0413 115.9056 7.5128
v  -1.5264 -30.8469 10.6256
v  5.9884 -30.8469 13.7383
v  5.9884 115.9056 13.7383
v  13.5033 -30.8469 10.6256
v  21.0181 -30.8469 7.5128
v  21.0181 115.9056 7.5128
v  24.1308 -30.8469 -0.0020
v  16.4887 144.3899 -18.0172
v  20.8380 144.3899 -7.5169
v  5.9884 144.3899 -22.3665
v  -4.5119 144.3899 -18.0172
v  -8.8612 144.3899 -7.5169
v  -4.5118 144.3899 2.9834
v  5.9884 144.3899 7.3327
v  16.4887 144.3899 2.9834
v  5.9884 153.4696 -7.5169
v  6.0382 -30.8469 13.9715
v  6.0219 -30.8469 35.7030
v  6.0219 -9.2727 41.2462
v  6.0382 23.2294 13.9715
v  6.0382 74.1844 13.9715
v  6.0219 74.1844 21.1472
v  6.0219 95.1329 21.0044
v  6.0382 112.0607 13.9715
v  6.0563 -30.8469 -27.7975
v  6.0115 -30.8469 -49.5289
v  5.9959 -9.2727 -55.0721
v  6.0563 23.2294 -27.7975
v  6.0319 74.1844 -28.5979
v  6.0280 74.1844 -35.7736
v  6.0284 95.1329 -35.6309
v  6.0319 112.0607 -28.5979
v  -14.0175 -30.8469 -7.4998
v  -35.7475 -30.8469 -7.2493
v  -41.2903 -9.2727 -7.1813
v  -14.0175 23.2294 -7.4998
v  -15.0148 74.1844 -7.2101
v  -22.1902 74.1844 -7.1383
v  -22.0474 95.1329 -7.1400
v  -15.0148 112.0607 -7.2101
v  26.9542 -30.8469 -7.3329
v  48.6835 -30.8469 -7.6445
v  54.2260 -9.2727 -7.7282
v  26.9542 23.2294 -7.3329
v  26.9859 74.1844 -7.4044
v  34.1610 74.1844 -7.4963
v  34.0183 95.1329 -7.4942
v  26.9859 112.0607 -7.4044
v  5.9884 -17.4660 -7.5169
# 66 vertices

vn 0.9239 0.0000 -0.3827
vn 0.7071 0.0000 -0.7071
vn 1.0000 0.0000 0.0000
vn 1.0000 0.0000 -0.0000
vn 0.3827 0.0000 -0.9239
vn 0.0000 0.0000 -1.0000
vn -0.0000 0.0000 -1.0000
vn -0.3827 0.0000 -0.9239
vn -0.7071 0.0000 -0.7071
vn -0.9239 0.0000 -0.3827
vn -1.0000 0.0000 0.0000
vn -0.9239 0.0000 0.3827
vn -0.7071 -0.0000 0.7071
vn -0.7071 0.0000 0.7071
vn -0.3827 -0.0000 0.9239
vn -0.0000 -0.0000 1.0000
vn 0.0000 -0.0000 1.0000
vn 0.3827 -0.0000 0.9239
vn 0.7071 0.0000 0.7071
vn 0.7071 -0.0000 0.7071
vn 0.9239 0.0000 0.3827
vn 0.9046 0.2034 -0.3747
vn 0.3747 0.2034 -0.9046
vn -0.3747 0.2034 -0.9046
vn -0.9046 0.2034 -0.3747
vn -0.9046 0.2034 0.3747
vn -0.3747 0.2034 0.9046
vn 0.3747 0.2034 0.9046
vn 0.9046 0.2034 0.3747
vn 0.5099 0.8339 -0.2112
vn 0.2112 0.8339 -0.5099
vn -0.2112 0.8339 -0.5099
vn -0.5099 0.8339 -0.2112
vn -0.5099 0.8339 0.2112
vn -0.2112 0.8339 0.5099
vn 0.2112 0.8339 0.5099
vn 0.5099 0.8339 0.2112
vn -1.0000 0.0001 -0.0007
vn -1.0000 0.0002 -0.0007
vn -1.0000 0.0001 -0.0006
vn -1.0000 0.0000 -0.0006
vn -1.0000 -0.0000 -0.0023
vn -1.0000 0.0000 -0.0023
vn 1.0000 0.0001 -0.0022
vn 1.0000 0.0002 -0.0021
vn 1.0000 0.0000 -0.0022
vn 1.0000 -0.0000 -0.0005
vn 1.0000 0.0000 -0.0005
vn -0.0116 0.0001 -0.9999
vn -0.0115 0.0002 -0.9999
vn -0.0117 0.0000 -0.9999
vn -0.0100 -0.0000 -1.0000
vn -0.0100 -0.0000 -0.9999
vn -0.0100 0.0000 -1.0000
vn 0.0144 0.0001 0.9999
vn 0.0143 0.0002 0.9999
vn 0.0145 0.0000 0.9999
vn 0.0128 -0.0000 0.9999
vn 0.0128 0.0000 0.9999
vn -0.1684 -0.8980 -0.4065
vn 0.0000 -1.0000 -0.0000
vn 0.1684 -0.8980 -0.4065
vn 0.4065 -0.8980 -0.1684
vn 0.4065 -0.8980 0.1684
vn 0.1684 -0.8980 0.4065
vn -0.1684 -0.8980 0.4065
vn -0.4065 -0.8980 0.1684
vn -0.4065 -0.8980 -0.1684
# 68 vertex normals

vt 0.0545 0.0170 0.0000
vt 0.0955 0.0170 0.0000
vt 0.0955 0.6922 0.0000
vt 0.0135 0.0170 0.0000
vt 0.0135 0.6922 0.0000
vt 0.1245 0.0170 0.0000
vt 0.1535 0.0170 0.0000
vt 0.1535 0.6922 0.0000
vt 0.1937 0.0160 0.0000
vt 0.2347 0.0160 0.0000
vt 0.2347 0.6912 0.0000
vt 0.1527 0.0160 0.0000
vt 0.1527 0.6912 0.0000
vt 0.2637 0.0160 0.0000
vt 0.2927 0.0160 0.0000
vt 0.2927 0.6912 0.0000
vt 0.3385 0.0138 0.0000
vt 0.3795 0.0138 0.0000
vt 0.3795 0.6891 0.0000
vt 0.2975 0.0138 0.0000
vt 0.2975 0.6891 0.0000
vt 0.4085 0.0138 0.0000
vt 0.4375 0.0138 0.0000
vt 0.4375 0.6891 0.0000
vt 0.4805 0.0125 0.0000
vt 0.5216 0.0125 0.0000
vt 0.5216 0.6877 0.0000
vt 0.4395 0.0125 0.0000
vt 0.4395 0.6877 0.0000
vt 0.5506 0.0125 0.0000
vt 0.5796 0.0125 0.0000
vt 0.5796 0.6877 0.0000
vt 0.0831 0.8728 0.0000
vt 0.0258 0.8728 0.0000
vt 0.0143 0.6938 0.0000
vt 0.0928 0.6938 0.0000
vt 0.0810 0.8672 0.0000
vt 0.0261 0.8672 0.0000
vt 0.2224 0.8718 0.0000
vt 0.1650 0.8718 0.0000
vt 0.0152 0.6928 0.0000
vt 0.0938 0.6928 0.0000
vt 0.0819 0.8662 0.0000
vt 0.0271 0.8662 0.0000
vt 0.3672 0.8696 0.0000
vt 0.3099 0.8696 0.0000
vt 0.0163 0.6951 0.0000
vt 0.0948 0.6951 0.0000
vt 0.0830 0.8685 0.0000
vt 0.0281 0.8685 0.0000
vt 0.5092 0.8683 0.0000
vt 0.4519 0.8683 0.0000
vt 0.0150 0.6943 0.0000
vt 0.0936 0.6943 0.0000
vt 0.0817 0.8677 0.0000
vt 0.0269 0.8677 0.0000
vt 0.0545 0.9860 0.0000
vt 0.0535 0.9823 0.0000
vt 0.1937 0.9849 0.0000
vt 0.0545 0.9814 0.0000
vt 0.3385 0.9828 0.0000
vt 0.0555 0.9837 0.0000
vt 0.4805 0.9815 0.0000
vt 0.0543 0.9829 0.0000
vt 0.6923 0.4123 0.0000
vt 0.8341 0.4138 0.0000
vt 0.8758 0.5759 0.0000
vt 0.6985 0.7756 0.0000
vt 0.9773 0.9618 0.0000
vt 0.8908 0.9618 0.0000
vt 0.8925 0.7093 0.0000
vt 0.9773 0.5053 0.0000
vt 0.6929 0.4133 0.0000
vt 0.8347 0.4148 0.0000
vt 0.8763 0.5768 0.0000
vt 0.6990 0.7766 0.0000
vt 0.9767 0.9572 0.0000
vt 0.8902 0.9572 0.0000
vt 0.8920 0.7047 0.0000
vt 0.9767 0.5007 0.0000
vt 0.6920 0.4132 0.0000
vt 0.8338 0.4147 0.0000
vt 0.8754 0.5767 0.0000
vt 0.6981 0.7765 0.0000
vt 0.9767 0.9618 0.0000
vt 0.8902 0.9618 0.0000
vt 0.8919 0.7093 0.0000
vt 0.9767 0.5053 0.0000
vt 0.6920 0.4149 0.0000
vt 0.8337 0.4164 0.0000
vt 0.8754 0.5784 0.0000
vt 0.6981 0.7782 0.0000
vt 0.9760 0.9618 0.0000
vt 0.8896 0.9618 0.0000
vt 0.8913 0.7093 0.0000
vt 0.9760 0.5053 0.0000
vt 0.7217 0.2713 0.0000
vt 0.6788 0.2275 0.0000
vt 0.6794 0.1662 0.0000
vt 0.8274 0.1677 0.0000
vt 0.6800 0.1049 0.0000
vt 0.7238 0.0620 0.0000
vt 0.7675 0.0191 0.0000
vt 0.8288 0.0197 0.0000
vt 0.8901 0.0203 0.0000
vt 0.9330 0.0641 0.0000
vt 0.9759 0.1078 0.0000
vt 0.9753 0.1691 0.0000
vt 0.9747 0.2304 0.0000
vt 0.9309 0.2733 0.0000
vt 0.8872 0.3162 0.0000
vt 0.8259 0.3156 0.0000
vt 0.7646 0.3150 0.0000
# 113 texture coords

g Cylinder04
usemtl wire_148177026
s 8
f 1/1/1 2/2/2 3/3/2 4/4/3 
f 4/4/3 3/3/2 5/5/4 
f 6/6/5 7/7/6 8/8/7 2/2/2 
f 2/2/2 8/8/7 3/3/2 
f 9/9/8 10/10/9 11/11/9 7/12/6 
f 7/12/6 11/11/9 8/13/7 
f 12/14/10 13/15/11 14/16/11 10/10/9 
f 10/10/9 14/16/11 11/11/9 
f 15/17/12 16/18/13 17/19/14 13/20/11 
f 13/20/11 17/19/14 14/21/11 
f 18/22/15 19/23/16 20/24/17 16/18/13 
f 16/18/13 20/24/17 17/19/14 
f 21/25/18 22/26/19 23/27/20 19/28/16 
f 19/28/16 23/27/20 20/29/17 
f 24/30/21 4/31/3 5/32/4 22/26/19 
f 22/26/19 5/32/4 23/27/20 
s off
f 5/5/22 3/3/22 25/33/22 26/34/22 
f 3/35/23 8/36/23 27/37/23 25/38/23 
f 8/13/24 11/11/24 28/39/24 27/40/24 
f 11/41/25 14/42/25 29/43/25 28/44/25 
f 14/21/26 17/19/26 30/45/26 29/46/26 
f 17/47/27 20/48/27 31/49/27 30/50/27 
f 20/29/28 23/27/28 32/51/28 31/52/28 
f 23/53/29 5/54/29 26/55/29 32/56/29 
f 26/34/30 25/33/30 33/57/30 
f 25/38/31 27/37/31 33/58/31 
f 27/40/32 28/39/32 33/59/32 
f 28/44/33 29/43/33 33/60/33 
f 29/46/34 30/45/34 33/61/34 
f 30/50/35 31/49/35 33/62/35 
f 31/52/36 32/51/36 33/63/36 
f 32/56/37 26/55/37 33/64/37 
s 8
f 34/65/38 35/66/39 36/67/40 37/68/41 
f 38/69/42 39/70/42 40/71/42 41/72/43 
f 42/73/44 43/74/45 44/75/44 45/76/46 
f 46/77/47 47/78/47 48/79/47 49/80/48 
f 50/81/49 51/82/50 52/83/49 53/84/51 
f 54/85/52 55/86/53 56/87/52 57/88/54 
f 58/89/55 59/90/56 60/91/55 61/92/57 
f 62/93/58 63/94/58 64/95/58 65/96/59 
s 1
f 21/97/60 19/98/61 18/99/62 66/100/61 
f 18/99/62 16/101/61 15/102/63 66/100/61 
f 15/102/63 13/103/61 12/104/64 66/100/61 
f 12/104/64 10/105/61 9/106/65 66/100/61 
f 9/106/65 7/107/61 6/108/66 66/100/61 
f 6/108/66 2/109/61 1/110/67 66/100/61 
f 1/110/67 4/111/61 24/112/68 66/100/61 
f 24/112/68 22/113/61 21/97/60 66/100/61 
# 32 polygons - 16 triangles

