# 3ds Max Wavefront OBJ Exporter v0.97b - (c)2007 guruware
# File Created: 04.05.2011 21:25:02

mtllib switch.mtl

#
# object cylinder1
#

v  12.3049 0.0000 -15.6065
v  6.1525 10.6564 -15.6065
v  -6.1525 -10.6564 -15.6065
v  6.1525 -10.6564 -15.6065
v  -6.1525 10.6564 -15.6065
v  -12.3049 0.0000 -15.6065
v  12.3049 0.0000 -31.6845
v  6.1525 10.6564 -31.6845
v  -6.1525 10.6564 -31.6845
v  -12.3049 -0.0000 -31.6845
v  -6.1525 -10.6564 -31.6845
v  6.1525 -10.6564 -31.6845
v  11.0375 -19.1175 -32.4974
v  22.0750 0.0000 -32.4974
v  -11.0375 -19.1175 -32.4974
v  -22.0750 -0.0000 -32.4974
v  -11.0375 19.1175 -32.4974
v  11.0375 19.1175 -32.4974
v  11.0375 -19.1175 -183.4206
v  22.0750 -0.0000 -183.4206
v  -11.0375 -19.1175 -183.4206
v  -22.0750 -0.0000 -183.4206
v  -11.0375 19.1175 -183.4206
v  11.0375 19.1175 -183.4206
v  13.5487 -23.4670 -183.8336
v  27.0974 -0.0000 -183.8336
v  -13.5487 -23.4670 -183.8336
v  -27.0974 -0.0000 -183.8336
v  -13.5487 23.4670 -183.8336
v  13.5487 23.4670 -183.8336
v  13.5487 -23.4670 -231.1794
v  27.0974 -0.0000 -231.1794
v  -13.5487 -23.4670 -231.1794
v  -27.0974 -0.0000 -231.1794
v  -13.5487 23.4670 -231.1794
v  13.5487 23.4670 -231.1794
v  0.0000 -0.0000 -230.2691
v  11.0375 -19.1175 -32.8163
v  13.5487 -23.4670 -33.2293
v  27.0974 -0.0000 -33.2293
v  22.0750 -0.0000 -32.8163
v  -11.0375 -19.1175 -32.8163
v  -13.5487 -23.4670 -33.2293
v  -22.0750 -0.0000 -32.8163
v  -27.0974 -0.0000 -33.2293
v  -11.0375 19.1175 -32.8163
v  -13.5487 23.4670 -33.2293
v  11.0375 19.1175 -32.8163
v  13.5487 23.4670 -33.2293
v  13.5487 -23.4670 -80.5751
v  27.0974 -0.0000 -80.5751
v  -13.5487 -23.4670 -80.5751
v  -27.0974 -0.0000 -80.5751
v  -13.5487 23.4670 -80.5751
v  13.5487 23.4670 -80.5751
v  0.0000 -0.0000 -79.6649
# 56 vertices

vn 0.0000 0.0000 1.0000
vn 0.8660 0.5000 -0.0000
vn 0.0000 1.0000 -0.0000
vn -0.8660 0.5000 -0.0000
vn -0.8660 -0.5000 0.0000
vn -0.8660 -0.5000 -0.0000
vn 0.0000 -1.0000 -0.0000
vn 0.8660 -0.5000 -0.0000
vn 0.0415 -0.0718 0.9966
vn 0.0828 -0.0478 0.9954
vn -0.0415 -0.0718 0.9966
vn -0.0829 0.0000 0.9966
vn -0.0415 0.0718 0.9966
vn 0.0415 0.0718 0.9966
vn 0.0828 0.0478 0.9954
vn 0.5000 -0.8660 -0.0000
vn 0.5000 -0.8660 0.0000
vn 0.8660 -0.5000 0.0000
vn -1.0000 0.0000 0.0000
vn -1.0000 -0.0000 -0.0000
vn 0.5000 0.8660 -0.0000
vn 0.0410 -0.0710 0.9966
vn 0.0820 0.0000 0.9966
vn -0.0410 -0.0710 0.9966
vn -0.0819 -0.0473 0.9955
vn -0.0410 0.0710 0.9966
vn -0.0819 0.0473 0.9955
vn 0.0410 0.0710 0.9966
vn -0.0168 0.0291 -0.9994
vn 0.0000 0.0000 -1.0000
vn -0.0336 0.0000 -0.9994
vn 0.0168 0.0291 -0.9994
vn 0.0336 -0.0000 -0.9994
vn 0.0168 -0.0291 -0.9994
vn -0.0168 -0.0291 -0.9994
vn -1.0000 0.0000 -0.0000
# 36 vertex normals

vt 0.3179 0.2754 0.0000
vt 0.3299 0.2605 0.0000
vt 0.2956 0.3258 0.0000
vt 0.3062 0.2969 0.0000
vt 0.3384 0.2727 0.0000
vt 0.3171 0.3058 0.0000
vt 0.3812 0.3045 0.0000
vt 0.3438 0.3565 0.0000
vt 0.3040 0.3279 0.0000
vt 0.3413 0.2758 0.0000
vt 0.3801 0.3043 0.0000
vt 0.3427 0.3564 0.0000
vt 0.3029 0.3278 0.0000
vt 0.3403 0.2757 0.0000
vt 0.3811 0.3043 0.0000
vt 0.3437 0.3564 0.0000
vt 0.3039 0.3278 0.0000
vt 0.3413 0.2757 0.0000
vt 0.3802 0.3040 0.0000
vt 0.3428 0.3561 0.0000
vt 0.3029 0.3275 0.0000
vt 0.3403 0.2754 0.0000
vt 0.3809 0.3047 0.0000
vt 0.3435 0.3568 0.0000
vt 0.3037 0.3282 0.0000
vt 0.3410 0.2761 0.0000
vt 0.3812 0.3041 0.0000
vt 0.3438 0.3562 0.0000
vt 0.3040 0.3276 0.0000
vt 0.3413 0.2755 0.0000
vt 0.3424 0.3662 0.0000
vt 0.3394 0.3810 0.0000
vt 0.3250 0.3768 0.0000
vt 0.3244 0.3521 0.0000
vt 0.3728 0.3377 0.0000
vt 0.3819 0.3449 0.0000
vt 0.3817 0.3246 0.0000
vt 0.3963 0.3279 0.0000
vt 0.3865 0.3077 0.0000
vt 0.4003 0.3084 0.0000
vt 0.3909 0.2898 0.0000
vt 0.4057 0.2925 0.0000
vt 0.4056 0.2753 0.0000
vt 0.3899 0.2733 0.0000
vt 0.7011 0.4873 0.0000
vt 0.3969 0.3451 0.0000
vt 0.3493 0.3858 0.0000
vt 0.6443 0.5477 0.0000
vt 0.7041 0.4453 0.0000
vt 0.4020 0.2847 0.0000
vt 0.6827 0.5181 0.0000
vt 0.3966 0.3475 0.0000
vt 0.4142 0.2767 0.0000
vt 0.7036 0.4390 0.0000
vt 0.6499 0.5475 0.0000
vt 0.3477 0.3872 0.0000
vt 0.6838 0.5176 0.0000
vt 0.3956 0.3473 0.0000
vt 0.4097 0.2772 0.0000
vt 0.7037 0.4423 0.0000
vt 0.6462 0.5471 0.0000
vt 0.3508 0.3853 0.0000
vt 0.7115 0.4879 0.0000
vt 0.7302 0.5042 0.0000
vt 0.7229 0.5362 0.0000
vt 0.7039 0.5124 0.0000
vt 0.7141 0.4689 0.0000
vt 0.7345 0.4801 0.0000
vt 0.7126 0.4457 0.0000
vt 0.7303 0.4499 0.0000
vt 0.6771 0.5393 0.0000
vt 0.6803 0.5689 0.0000
vt 0.6577 0.5646 0.0000
vt 0.6606 0.5456 0.0000
vt 0.6904 0.5279 0.0000
vt 0.6987 0.5569 0.0000
vt 0.8364 0.5940 0.0000
vt 0.7329 0.5324 0.0000
vt 0.7435 0.4637 0.0000
vt 0.8474 0.5359 0.0000
vt 0.7871 0.6164 0.0000
vt 0.6871 0.5734 0.0000
vt 0.8361 0.5928 0.0000
vt 0.7313 0.5334 0.0000
vt 0.7455 0.4647 0.0000
vt 0.8465 0.5345 0.0000
vt 0.7875 0.6151 0.0000
vt 0.6859 0.5728 0.0000
vt 0.8388 0.5898 0.0000
vt 0.7359 0.5271 0.0000
vt 0.6809 0.5688 0.0000
vt 0.7937 0.6254 0.0000
vt 0.8353 0.5349 0.0000
vt 0.7491 0.4685 0.0000
vt 0.7753 0.5602 0.0000
vt 0.7808 0.5830 0.0000
vt 0.7580 0.5763 0.0000
vt 0.7979 0.5669 0.0000
vt 0.8036 0.5898 0.0000
vt 0.7863 0.6059 0.0000
vt 0.7638 0.5992 0.0000
# 101 texture coords

g cylinder1
usemtl Material__25
s 1
f 1/1/1 2/2/1 3/3/1 4/4/1 
f 2/2/1 5/5/1 6/6/1 3/3/1 
f 1/7/2 7/8/2 8/9/2 2/10/2 
f 2/11/3 8/12/3 9/13/3 5/14/3 
f 5/15/4 9/16/4 10/17/4 6/18/4 
f 6/19/5 10/20/5 11/21/5 3/22/6 
f 3/23/7 11/24/7 12/25/7 4/26/7 
f 4/27/8 12/28/8 7/29/8 1/30/8 
f 12/31/9 13/32/9 14/33/10 7/34/10 
f 11/35/11 15/36/11 13/32/9 12/31/9 
f 10/37/12 16/38/12 15/36/11 11/35/11 
f 9/39/13 17/40/13 16/38/12 10/37/12 
f 8/41/14 18/42/14 17/40/13 9/39/13 
f 14/43/15 18/42/14 8/41/14 7/44/15 
f 13/45/16 19/46/17 20/47/18 14/48/18 
f 15/49/7 21/50/7 19/46/17 13/45/16 
f 16/51/19 22/52/20 21/53/6 15/54/5 
f 17/55/4 23/56/4 22/52/20 16/51/19 
f 18/57/21 24/58/21 23/59/3 17/60/3 
f 14/61/2 20/62/2 24/58/21 18/57/21 
f 19/63/22 25/64/22 26/65/23 20/66/23 
f 21/67/24 27/68/24 25/64/22 19/63/22 
f 22/69/25 28/70/25 27/68/24 21/67/24 
f 23/71/26 29/72/26 28/73/27 22/74/27 
f 24/75/28 30/76/28 29/72/26 23/71/26 
f 20/66/23 26/65/23 30/76/28 24/75/28 
f 25/77/16 31/78/17 32/79/18 26/80/18 
f 27/81/7 33/82/7 31/78/17 25/77/16 
f 28/83/19 34/84/20 33/85/6 27/86/5 
f 29/87/4 35/88/4 34/84/20 28/83/19 
f 30/89/21 36/90/21 35/91/3 29/92/3 
f 26/93/2 32/94/2 36/90/21 30/89/21 
f 31/95/29 37/96/30 32/97/31 
f 33/98/32 37/96/30 31/95/29 
f 34/99/33 37/96/30 33/98/32 
f 35/100/34 37/96/30 34/99/33 
f 36/101/35 37/96/30 35/100/34 
f 32/97/31 37/96/30 36/101/35 
f 38/63/22 39/64/22 40/65/23 41/66/23 
f 42/67/24 43/68/24 39/64/22 38/63/22 
f 44/69/25 45/70/25 43/68/24 42/67/24 
f 46/71/26 47/72/26 45/73/27 44/74/27 
f 48/75/28 49/76/28 47/72/26 46/71/26 
f 41/66/23 40/65/23 49/76/28 48/75/28 
f 39/77/16 50/78/17 51/79/18 40/80/18 
f 43/81/7 52/82/7 50/78/17 39/77/16 
f 45/83/36 53/84/20 52/85/6 43/86/6 
f 47/87/4 54/88/4 53/84/20 45/83/36 
f 49/89/21 55/90/21 54/91/3 47/92/3 
f 40/93/2 51/94/2 55/90/21 49/89/21 
f 50/95/29 56/96/30 51/97/31 
f 52/98/32 56/96/30 50/95/29 
f 53/99/33 56/96/30 52/98/32 
f 54/100/34 56/96/30 53/99/33 
f 55/101/35 56/96/30 54/100/34 
f 51/97/31 56/96/30 55/101/35 
# 44 polygons - 12 triangles

