# 3ds Max Wavefront OBJ Exporter v0.97b - (c)2007 guruware
# File Created: 27.05.2011 16:50:50

mtllib 45mmammo.mtl

#
# object Box01
#

v  -20.0313 -0.3767 4.8175
v  -20.0313 40.6508 3.6279
v  19.8932 40.6508 3.6279
v  19.8932 -0.3767 4.8175
v  -20.0313 -0.1232 32.2069
v  19.8932 -0.1232 32.2069
v  19.8932 40.9043 31.0174
v  -20.0313 40.9043 31.0174
# 8 vertices

vn 0.0000 -0.0290 -0.9996
vn 0.0000 0.0290 0.9996
vn 0.0000 -1.0000 0.0093
vn 1.0000 0.0000 -0.0000
vn 0.0000 1.0000 -0.0093
vn -1.0000 0.0000 -0.0000
# 6 vertex normals

vt 0.3795 0.5351 0.0000
vt 0.8539 0.5255 0.0000
vt 0.8632 0.9866 0.0000
vt 0.3888 0.9961 0.0000
vt 0.3865 0.9832 0.0000
vt 0.3865 0.5128 0.0000
vt 0.8733 0.5128 0.0000
vt 0.8733 0.9832 0.0000
vt 0.3576 0.7516 0.0000
vt 0.0168 0.7516 0.0000
vt 0.0168 0.6427 0.0000
vt 0.3576 0.6427 0.0000
vt 0.3553 0.7786 0.0000
vt 0.3409 1.0630 0.0000
vt 0.0111 1.0646 0.0000
vt 0.0255 0.7801 0.0000
vt 0.9853 0.6496 0.0000
vt 0.9769 0.9903 0.0000
vt 0.8680 0.9876 0.0000
vt 0.8763 0.6469 0.0000
vt 0.0119 1.0666 0.0000
vt 0.0113 0.7687 0.0000
vt 0.3527 0.7723 0.0000
vt 0.3475 1.0674 0.0000
# 24 texture coords

g Box01
usemtl Material__28
s 2
f 1/1/1 2/2/1 3/3/1 4/4/1 
s 4
f 5/5/2 6/6/2 7/7/2 8/8/2 
s 8
f 1/9/3 4/10/3 6/11/3 5/12/3 
s 16
f 4/13/4 3/14/4 7/15/4 6/16/4 
s 32
f 3/17/5 2/18/5 8/19/5 7/20/5 
s 64
f 2/21/6 1/22/6 5/23/6 8/24/6 
# 6 polygons

