# Max2Obj Version 4.0 Mar 10th, 2001
#
mtllib ./bug.mtl
g
# object Bug to come ...
#
v  -11.116631 -0.307694 29.805374
v  22.029446 -0.307693 19.987423
v  12.321186 23.130127 19.987429
v  -11.116632 32.838383 19.987427
v  -34.554447 23.130127 19.987429
v  -44.262707 -0.307696 19.987423
v  -34.554443 -23.745510 19.987419
v  -11.116631 -33.453770 19.987421
v  12.321182 -23.745510 19.987419
v  22.029446 -0.307693 9.493629
v  12.321186 23.130127 9.493630
v  -11.116632 32.838383 9.493631
v  -34.554447 23.130127 9.493630
v  -44.262707 -0.307696 9.493629
v  -34.554443 -23.745510 9.493629
v  -11.116631 -33.453770 9.493628
v  12.321182 -23.745510 9.493629
v  -11.116631 -0.307693 0.037863
v  17.049328 -11.738912 19.212589
v  13.895933 -19.458910 14.755441
v  17.049328 -11.738910 10.298298
v  62.583237 -14.265581 16.393936
v  62.583237 -17.103521 14.755447
v  62.583237 -14.265580 13.116961
v  67.283951 -12.385775 18.310596
v  67.283951 -19.316683 14.755451
v  67.283951 -12.385774 11.200307
v  59.107925 -15.584487 14.755447
# 28 vertices

vt  0.550781 0.550781 0.000000
vt  0.988281 0.550781 0.000000
vt  0.863281 0.863281 0.000000
vt  0.550781 0.988281 0.000000
vt  0.238281 0.863281 0.000000
vt  0.113281 0.550781 0.000000
vt  0.238281 0.238281 0.000000
vt  0.550781 0.113281 0.000000
vt  0.863281 0.238281 0.000000
vt  0.011719 0.097656 0.000000
vt  0.128906 0.097656 0.000000
vt  0.253906 0.097656 0.000000
vt  0.378906 0.097656 0.000000
vt  0.496094 0.097656 0.000000
vt  0.613281 0.097656 0.000000
vt  0.730469 0.097656 0.000000
vt  0.855469 0.097656 0.000000
vt  0.980469 0.097656 0.000000
vt  0.011719 0.011719 0.000000
vt  0.128906 0.011719 0.000000
vt  0.253906 0.011719 0.000000
vt  0.378906 0.011719 0.000000
vt  0.496094 0.011719 0.000000
vt  0.613281 0.011719 0.000000
vt  0.730469 0.011719 0.000000
vt  0.855469 0.011719 0.000000
vt  0.980469 0.011719 0.000000
vt  0.988281 0.550781 0.000000
vt  0.863281 0.863281 0.000000
vt  0.550781 0.988281 0.000000
vt  0.238281 0.863281 0.000000
vt  0.113281 0.550781 0.000000
vt  0.238281 0.238281 0.000000
vt  0.550781 0.113281 0.000000
vt  0.863281 0.238281 0.000000
vt  0.550781 0.550781 0.000000
vt  0.097656 0.128906 1.000000
vt  0.011719 0.128906 1.000000
vt  0.097656 0.128906 1.000000
vt  0.097656 0.808594 1.000000
vt  0.011719 0.808594 1.000000
vt  0.097656 0.808594 1.000000
vt  0.011719 0.832031 0.000000
vt  0.011719 0.832031 0.000000
vt  0.011719 0.988281 0.000000
vt  0.011719 0.128906 1.000000
vt  0.011719 0.808594 1.000000
vt  0.011719 0.988281 1.000000
vt  0.917969 0.238281 0.250000
vt  0.980469 0.128906 0.250000
vt  0.855469 0.128906 0.250000
vt  0.207031 0.910156 0.000000
vt  0.011719 0.988281 0.000000
vt  0.207031 0.910156 0.000000
vt  0.011719 0.832031 1.000000
vt  0.207031 0.910156 1.000000
vt  0.011719 0.128906 1.000000
vt  0.097656 0.128906 1.000000
vt  0.011719 0.808594 1.000000
vt  0.097656 0.808594 1.000000
# 60 texture vertices

vn  0.000000 -0.000000 1.000000
vn  0.843658 -0.000000 0.536881
vn  0.596556 0.596556 0.536881
vn  -0.000000 0.843658 0.536881
vn  -0.596556 0.596556 0.536881
vn  -0.843658 -0.000000 0.536881
vn  -0.596556 -0.596556 0.536881
vn  0.000000 -0.843658 0.536881
vn  0.596556 -0.596556 0.536881
vn  0.841470 -0.000000 -0.540304
vn  0.595009 0.595009 -0.540304
vn  -0.000000 0.841470 -0.540304
vn  -0.595009 0.595009 -0.540304
vn  -0.841470 -0.000000 -0.540304
vn  -0.595009 -0.595009 -0.540304
vn  -0.000000 -0.841470 -0.540304
vn  0.595009 -0.595009 -0.540304
vn  -0.000000 0.000000 -1.000000
vn  0.076329 0.342823 0.936294
vn  0.048877 -0.998805 -0.000131
vn  0.076967 0.342460 -0.936375
vn  0.080912 0.489652 0.868155
vn  0.049791 -0.998760 -0.000548
vn  0.079422 0.489232 -0.868530
vn  -0.652293 0.622196 0.940308
vn  -0.486376 -1.065490 -0.000000
vn  -0.652292 0.622197 -0.940308
vn  -0.995477 -0.095006 -0.000001
# 28 vertex normals

g Bug
usemtl Material__26
s 1
f 2/10/2 10/19/10 11/20/11 3/11/3
f 3/11/3 11/20/11 12/21/12 4/12/4
f 4/12/4 12/21/12 13/22/13 5/13/5
f 5/13/5 13/22/13 14/23/14 6/14/6
f 6/14/6 14/23/14 15/24/15 7/15/7
f 7/15/7 15/24/15 16/25/16 8/16/8
f 8/16/8 16/25/16 17/26/17 9/17/9
f 9/17/9 17/26/17 10/27/10 2/18/2
s 8
f 23/41/23 22/40/22 19/37/19 20/38/20
f 24/60/24 23/59/23 20/57/20 21/58/21
f 22/47/22 24/42/24 21/39/21 19/46/19
s 1
f 1/1/1 2/2/2 3/3/3
f 1/1/1 3/3/3 4/4/4
f 1/1/1 4/4/4 5/5/5
f 1/1/1 5/5/5 6/6/6
f 1/1/1 6/6/6 7/7/7
f 1/1/1 7/7/7 8/8/8
f 1/1/1 8/8/8 9/9/9
f 9/9/9 2/2/2 1/1/1
f 10/28/10 18/36/18 11/29/11
f 11/29/11 18/36/18 12/30/12
f 12/30/12 18/36/18 13/31/13
f 13/31/13 18/36/18 14/32/14
f 14/32/14 18/36/18 15/33/15
f 15/33/15 18/36/18 16/34/16
f 16/34/16 18/36/18 17/35/17
f 17/35/17 18/36/18 10/28/10
s 8
f 28/54/28 26/53/26 25/43/25
f 28/52/28 27/45/27 26/44/26
f 28/56/28 25/48/25 27/55/27
s 1
f 25/49/25 26/50/26 27/51/27
# 31 faces

g
