# 3ds Max Wavefront OBJ Exporter v0.97b - (c)2007 guruware
# File Created: 26.05.2011 23:48:06

mtllib rock.mtl

#
# object Box01
#

v  -0.1976 0.1350 0.0455
v  -0.1328 0.1279 0.0751
v  -0.2736 0.0176 0.0928
v  -0.3797 0.0250 0.1204
v  -0.0950 0.0045 0.1948
v  -0.2851 -0.0669 0.1409
v  -0.3377 -0.0490 0.1958
v  -0.1992 0.3002 0.1814
v  -0.2410 0.2917 0.2007
v  -0.1676 0.2467 0.2734
v  -0.3703 0.2444 0.2062
v  -0.3298 0.2207 0.2969
v  -0.4051 0.1703 0.2534
v  -0.2145 0.1724 0.3520
v  -0.1165 0.1725 0.3289
v  -0.3101 0.1382 0.3428
v  -0.3327 -0.0019 0.3417
v  -0.1448 0.1788 0.3294
v  -0.2122 0.1896 0.0767
v  -0.3808 0.1437 0.0761
v  -0.1252 0.2002 0.0909
v  -0.2332 0.2684 0.1231
v  -0.1608 0.2614 0.1519
v  -0.4100 0.0803 0.1751
v  -0.3306 -0.0529 0.3011
v  -0.3901 0.1352 0.2194
v  -0.2607 -0.0552 0.3241
v  -0.1626 -0.0303 0.3265
v  -0.0955 0.1285 0.2123
# 29 vertices

vn 0.1785 0.0431 -0.9830
vn 0.6304 -0.1280 -0.7656
vn -0.0663 -0.4595 -0.8857
vn -0.6551 -0.5104 -0.5571
vn 0.8548 -0.4962 -0.1516
vn -0.1758 -0.8175 -0.5485
vn -0.6428 -0.7458 -0.1749
vn 0.0611 0.9236 -0.3786
vn -0.1531 0.9835 0.0964
vn 0.4459 0.7700 0.4563
vn -0.6812 0.7277 -0.0804
vn -0.3625 0.6018 0.7117
vn -0.9661 0.1463 0.2127
vn -0.0232 0.4155 0.9093
vn 0.6250 -0.2181 0.7495
vn -0.4364 0.2354 0.8684
vn -0.5315 -0.2492 0.8096
vn 0.2718 -0.9585 0.0860
vn -0.0433 0.5060 -0.8615
vn -0.6312 0.2310 -0.7405
vn 0.7362 0.4235 -0.5279
vn -0.1600 0.7476 -0.6446
vn 0.6473 0.7223 -0.2435
vn -0.9973 -0.0692 0.0229
vn -0.5530 -0.7586 0.3444
vn -1.0000 0.0032 0.0039
vn 0.0516 -0.8009 0.5966
vn 0.5209 -0.5889 0.6180
vn 0.9855 0.1318 -0.1070
# 29 vertex normals

vt 0.6667 0.0000 0.0000
vt 0.6667 0.3333 0.0000
vt 0.3333 0.3333 0.0000
vt 0.3333 0.0000 0.0000
vt -0.0000 0.3333 0.0000
vt 0.6667 0.6667 0.0000
vt 0.3333 0.6667 0.0000
vt -0.0000 0.6667 0.0000
vt 0.0000 0.0000 0.0000
vt 1.0000 0.3333 0.0000
vt 0.0000 0.6667 0.0000
vt 0.0000 0.3333 0.0000
vt 1.0000 0.6667 0.0000
vt 0.3333 1.0000 0.0000
vt 0.0000 1.0000 0.0000
vt 0.6667 1.0000 0.0000
vt 1.0000 0.0000 0.0000
vt 1.0000 1.0000 0.0000
vt -0.0000 0.0000 0.0000
vt 1.0587 0.3136 0.0000
# 20 texture coords

g Box01
usemtl Material__0
s 1
f 1/1/1 2/2/2 3/3/3 
f 1/4/1 3/3/3 4/5/4 
f 2/2/2 5/6/5 6/7/6 
f 3/3/3 6/7/6 7/8/7 
f 8/9/8 9/4/9 10/3/10 
f 9/4/9 11/1/11 12/2/12 
f 13/10/13 12/2/12 11/1/11 
f 14/7/14 15/11/15 10/12/10 
f 10/3/10 12/2/12 16/6/16 
f 12/2/12 13/10/13 17/13/17 
f 14/14/14 18/15/18 15/11/15 
f 2/9/2 1/4/1 19/3/19 
f 20/2/20 19/3/19 1/4/1 
f 21/12/21 19/3/19 22/7/22 
f 19/3/19 20/2/20 11/6/11 
f 23/11/23 22/7/22 9/14/9 
f 11/16/11 9/14/9 22/7/22 
f 20/9/20 4/4/4 24/3/24 
f 4/4/4 7/1/7 24/2/24 
f 7/1/7 6/17/6 25/10/25 
f 20/12/20 24/3/24 26/7/26 
f 24/2/24 25/10/25 17/13/17 
f 26/7/26 24/6/24 17/16/17 
f 27/3/27 25/12/25 6/9/6 
f 6/4/6 5/1/5 28/2/28 
f 25/12/25 27/3/27 17/7/17 
f 28/6/28 17/7/17 27/3/27 
f 17/7/17 28/6/28 14/16/14 
f 18/18/18 14/16/14 28/6/28 
f 5/4/5 2/1/2 21/2/21 
f 28/12/28 5/3/5 29/7/29 
f 5/3/5 21/2/21 23/6/23 
f 18/11/18 29/7/29 15/14/15 
f 29/7/29 23/6/23 10/16/10 
f 8/18/8 10/16/10 23/6/23 
f 4/5/4 20/19/20 1/4/1 
f 6/7/6 3/3/3 2/2/2 
f 7/8/7 4/5/4 3/3/3 
f 12/2/12 10/3/10 9/4/9 
f 11/1/11 26/20/26 13/10/13 
f 16/6/16 14/7/14 10/3/10 
f 17/13/17 16/6/16 12/2/12 
f 19/3/19 21/12/21 2/9/2 
f 22/7/22 23/11/23 21/12/21 
f 11/6/11 22/7/22 19/3/19 
f 9/14/9 8/15/8 23/11/23 
f 25/10/25 24/2/24 7/1/7 
f 26/7/26 11/11/11 20/12/20 
f 17/16/17 13/14/13 26/7/26 
f 28/2/28 27/3/27 6/4/6 
f 14/16/14 16/14/16 17/7/17 
f 29/7/29 18/11/18 28/12/28 
f 23/6/23 29/7/29 5/3/5 
f 10/16/10 15/14/15 29/7/29 
# 0 polygons - 54 triangles

