# 3ds Max Wavefront OBJ Exporter v0.97b - (c)2007 guruware
# File Created: 17.07.2011 17:35:41

mtllib flower.mtl

#
# object Plane
#

v  1.7969 16.6504 5.3570
v  1.4279 15.9562 3.3446
v  -1.0362 16.2769 4.1546
v  0.2537 16.8678 6.0258
v  -0.7640 14.2524 5.7848
v  0.4394 15.6170 6.8013
v  1.7001 13.9316 4.9748
v  1.9803 15.3228 6.3359
v  5.9899 22.4165 -0.0528
v  -4.1274 23.1042 4.1541
v  4.8027 27.1267 -2.5171
v  -4.3681 27.8531 0.5356
v  1.8787 32.3031 1.1650
v  -0.9403 31.9957 1.3196
v  8.4831 18.5167 -0.6363
v  9.1563 8.4940 5.1246
v  13.5279 8.6466 2.5065
v  13.8707 16.6723 -1.9705
v  17.1396 9.1432 -1.5393
v  16.4704 11.0844 -3.5675
v  -4.0679 9.0762 9.2373
v  5.1692 7.3883 6.3057
v  -3.6831 5.5704 14.8535
v  4.1353 4.4060 11.8128
v  -4.0521 1.3333 15.6410
v  -1.9718 0.4502 14.9500
v  -8.0141 19.0360 5.5175
v  -7.8362 11.0342 8.8900
v  -15.0508 16.9066 4.7827
v  -13.8898 9.5374 7.7311
v  -23.6472 12.5274 4.3619
v  -22.5318 9.3992 6.3315
v  0.9185 15.5602 3.9117
v  -0.4004 15.7319 4.3452
v  -0.2546 14.6483 5.2177
v  1.0643 14.4766 4.7842
v  1.1485 14.5881 -16.2747
v  1.2783 13.6229 -15.4976
v  0.1036 13.7758 -15.1115
v  -0.0262 14.7410 -15.8886
v  -0.0251 13.7802 -16.5320
v  -4.9888 15.2026 -9.5280
v  -5.0546 15.2048 -10.2542
v  0.1513 14.6892 -16.7642
v  -4.9644 15.6695 -10.3729
v  -5.0552 15.6960 -9.9253
v  1.2411 13.4065 -16.7698
v  7.9270 15.9374 -3.5737
v  7.9126 15.8533 -4.0680
v  7.8730 16.2951 -4.3898
v  1.1392 14.5436 -17.5981
v  7.8766 16.3124 -3.8756
v  12.9632 15.0175 -47.7621
v  13.8030 14.7697 -47.9198
v  13.7354 15.5238 -48.4692
v  13.0802 15.6204 -47.9161
# 56 vertices

vn 0.0150 0.9444 -0.3285
vn 0.0030 0.9530 -0.3029
vn -0.7734 0.2472 0.5837
vn -0.8296 0.2782 0.4841
vn 0.0782 -0.7052 0.7047
vn 0.1506 -0.6725 0.7246
vn 0.9835 0.0023 -0.1811
vn 0.9826 -0.0169 -0.1850
vn 0.3996 0.5252 0.7513
vn 0.3346 0.5888 0.7358
vn 0.3878 0.1994 0.8999
vn 0.3261 0.1477 0.9337
vn 0.3088 0.5009 0.8086
vn 0.3461 0.5796 0.7377
vn 0.1044 -0.5366 0.8373
vn 0.2638 -0.3856 0.8842
vn 0.1948 0.6309 0.7510
vn 0.3382 0.4859 0.8059
vn 0.4558 0.4187 0.7855
vn 0.3626 0.4826 0.7972
vn 0.4824 0.7069 0.5174
vn 0.8309 0.2436 0.5003
vn 0.3414 0.3610 0.8679
vn 0.3333 0.3544 0.8737
vn 0.3112 0.8156 0.4878
vn 0.3061 0.8119 0.4971
vn 0.3649 0.1393 0.9206
vn 0.3772 0.1433 0.9150
vn 0.3181 0.3742 0.8711
vn 0.0530 0.6306 0.7743
vn -0.1981 0.3370 0.9204
vn -0.2621 0.3699 0.8914
vn -0.2677 0.4432 0.8555
vn -0.1554 0.3458 0.9254
vn 0.3166 0.6204 0.7176
vn -0.3166 -0.6204 -0.7176
vn 0.9906 0.1370 0.0047
vn -0.1159 -0.9924 0.0405
vn -0.9898 -0.1422 -0.0113
vn 0.1139 0.9924 -0.0465
vn -0.2497 -0.9681 0.0197
vn 0.1557 0.9874 -0.0268
vn 0.1558 0.9874 -0.0268
vn 0.6986 0.5034 0.5085
vn -0.9941 -0.0613 0.0899
vn -0.9694 0.1359 -0.2045
vn -0.7813 -0.0078 -0.6241
vn -0.0448 0.9851 -0.1662
vn -0.1931 0.9807 -0.0316
vn -0.8675 0.2360 0.4379
vn 0.9942 0.0970 -0.0455
vn 0.9966 0.0822 -0.0097
vn 0.8797 -0.2260 -0.4185
vn 0.1175 0.9925 -0.0342
vn 0.1178 0.9924 -0.0348
vn -0.1264 -0.9919 0.0084
vn -0.2495 -0.9534 0.1694
vn -0.3075 -0.9371 -0.1650
vn 0.2545 0.9577 0.1343
vn 0.8659 0.3429 0.3642
vn -0.9214 0.0818 -0.3800
vn -0.2368 -0.1970 -0.9514
vn -0.5987 -0.5060 -0.6209
# 63 vertex normals

vt 0.6908 0.9572 0.0000
vt 0.6556 0.9644 0.0000
vt 0.6541 0.9209 0.0000
vt 0.6923 0.9290 0.0000
vt 0.7347 0.9644 0.0000
vt 0.7007 0.9576 0.0000
vt 0.6999 0.9330 0.0000
vt 0.7370 0.9212 0.0000
vt 0.7967 0.9232 0.0000
vt 0.8263 0.9252 0.0000
vt 0.8267 0.9514 0.0000
vt 0.7954 0.9644 0.0000
vt 0.7878 0.9315 0.0000
vt 0.7770 0.9644 0.0000
vt 0.7495 0.9639 0.0000
vt 0.7446 0.9325 0.0000
vt 0.7861 0.8587 0.0000
vt 0.7579 0.8576 0.0000
vt 0.7592 0.8329 0.0000
vt 0.7863 0.8311 0.0000
vt 0.4190 0.1334 0.0000
vt 0.3665 0.0888 0.0000
vt 0.5301 0.0877 0.0000
vt 0.4593 0.1326 0.0000
vt 0.5240 0.0634 0.0000
vt 0.5347 0.0215 0.0000
vt 0.6926 0.0209 0.0000
vt 0.7024 0.0667 0.0000
vt 0.5240 0.1231 0.0000
vt 0.5868 0.0808 0.0000
vt 0.6308 0.0866 0.0000
vt 0.6727 0.1232 0.0000
vt 0.1693 0.1072 0.0000
vt 0.0509 0.0732 0.0000
vt 0.0547 0.0530 0.0000
vt 0.1833 0.0189 0.0000
vt 0.2597 0.0322 0.0000
vt 0.2622 0.1022 0.0000
vt 0.2293 0.0496 0.0000
vt 0.2701 0.0121 0.0000
vt 0.3171 0.0129 0.0000
vt 0.3674 0.0463 0.0000
vt 0.3952 0.1001 0.0000
vt 0.2805 0.1012 0.0000
vt 0.3515 0.0328 0.0000
vt 0.4160 0.0824 0.0000
vt 0.5174 0.0283 0.0000
vt 0.5386 0.0771 0.0000
vt 0.4083 0.0721 0.0000
vt 0.3665 0.0279 0.0000
vt 0.1869 0.1103 0.0000
vt 0.1265 0.0948 0.0000
vt 0.1366 0.0772 0.0000
vt 0.2546 0.0532 0.0000
vt 0.3758 0.0983 0.0000
vt 0.2679 0.1276 0.0000
vt 0.2355 0.0621 0.0000
vt 0.3662 0.0795 0.0000
vt 0.1635 0.1271 0.0000
vt 0.1496 0.0653 0.0000
vt 0.0299 0.1127 0.0000
vt 0.0288 0.0836 0.0000
vt 0.7933 0.8091 0.0000
vt 0.8033 0.8193 0.0000
vt 0.7598 0.8188 0.0000
vt 0.7700 0.8088 0.0000
vt 0.7249 0.9006 0.0000
vt 0.7352 0.8906 0.0000
vt 0.7585 0.8909 0.0000
vt 0.7685 0.9011 0.0000
vt 0.6757 0.8926 0.0000
vt 0.7174 0.8930 0.0000
vt 0.7059 0.9011 0.0000
vt 0.6836 0.9009 0.0000
vt 0.7087 0.8188 0.0000
vt 0.7189 0.8088 0.0000
vt 0.7422 0.8091 0.0000
vt 0.7522 0.8193 0.0000
vt 0.9595 0.5317 0.0000
vt 0.9535 0.8671 0.0000
vt 0.9425 0.5434 0.0000
vt 0.9344 0.8802 0.0000
vt 0.9908 0.9504 0.0000
vt 0.9809 0.9638 0.0000
vt 0.9137 0.6696 0.0000
vt 0.9226 0.6576 0.0000
vt 0.9253 0.3267 0.0000
vt 0.9440 0.3403 0.0000
vt 0.9401 0.6768 0.0000
vt 0.9235 0.6646 0.0000
vt 0.8870 0.9869 0.0000
vt 0.8758 0.9716 0.0000
vt 0.9554 0.6495 0.0000
vt 0.9654 0.6631 0.0000
vt 0.9077 0.6496 0.0000
vt 0.8886 0.7744 0.0000
vt 0.8855 0.7642 0.0000
vt 0.9672 0.6480 0.0000
vt 0.9913 0.7815 0.0000
vt 0.9904 0.7893 0.0000
vt 0.9219 0.4741 0.0000
vt 0.9417 0.4678 0.0000
vt 0.9401 0.5987 0.0000
vt 0.9300 0.6019 0.0000
vt 0.9152 0.9725 0.0000
vt 0.9152 0.9893 0.0000
vt 0.8974 0.9799 0.0000
vt 0.8987 0.9693 0.0000
vt 0.9487 0.8099 0.0000
vt 0.9810 0.8161 0.0000
vt 0.9360 0.4068 0.0000
vt 0.9145 0.3799 0.0000
vt 0.9127 0.0550 0.0000
vt 0.9210 0.0655 0.0000
vt 0.9148 0.7464 0.0000
vt 0.9138 0.4174 0.0000
vt 0.9233 0.7563 0.0000
vt 0.9356 0.4430 0.0000
vt 0.9825 0.6509 0.0000
vt 0.9820 0.9752 0.0000
vt 0.9715 0.6439 0.0000
vt 0.9535 0.9571 0.0000
vt 0.8720 0.3174 0.0000
vt 0.8682 0.3247 0.0000
vt 0.8640 0.3176 0.0000
vt 0.8591 0.3245 0.0000
vt 0.9210 0.4517 0.0000
vt 0.9426 0.4425 0.0000
vt 0.9158 0.6940 0.0000
vt 0.9242 0.6904 0.0000
vt 0.9609 0.6284 0.0000
vt 0.9179 0.6405 0.0000
vt 0.9111 0.1088 0.0000
vt 0.9179 0.1027 0.0000
vt 0.9647 0.0352 0.0000
vt 0.9688 0.0482 0.0000
vt 0.8899 0.0569 0.0000
vt 0.9220 0.0358 0.0000
vt 0.9163 0.9578 0.0000
vt 0.8950 0.9717 0.0000
vt 0.9584 0.0552 0.0000
vt 0.9799 0.0593 0.0000
vt 0.8411 0.8193 0.0000
vt 0.8341 0.8065 0.0000
vt 0.8411 0.8011 0.0000
vt 0.8265 0.8058 0.0000
vt 0.8138 0.8193 0.0000
vt 0.8109 0.8053 0.0000
# 148 texture coords

g Plane
usemtl 02___Default
s off
f 1/1/1 2/2/1 3/3/1 
f 1/1/2 3/3/2 4/4/2 
f 5/5/3 6/6/3 4/7/3 
f 5/5/4 4/7/4 3/8/4 
f 7/9/5 8/10/5 6/11/5 
f 7/9/6 6/11/6 5/12/6 
f 2/13/7 1/14/7 8/15/7 
f 2/13/8 8/15/8 7/16/8 
f 1/17/9 4/18/9 6/19/9 
f 1/17/10 6/19/10 8/20/10 
f 2/21/11 9/22/11 10/23/11 
f 2/21/12 10/23/12 3/24/12 
f 9/25/13 11/26/13 12/27/13 
f 9/25/14 12/27/14 10/28/14 
f 11/29/15 13/30/15 14/31/15 
f 11/29/16 14/31/16 12/32/16 
f 15/33/17 2/34/17 7/35/17 
f 15/33/18 7/35/18 16/36/18 
f 16/36/19 17/37/19 18/38/19 
f 16/36/20 18/38/20 15/33/20 
f 17/39/21 19/40/21 20/41/21 
f 17/39/22 20/41/22 18/42/22 
f 5/43/23 21/44/23 22/45/23 
f 5/43/24 22/45/24 7/46/24 
f 21/47/25 23/48/25 24/49/25 
f 21/47/26 24/49/26 22/50/26 
f 23/51/27 25/52/27 26/53/27 
f 23/51/28 26/53/28 24/54/28 
f 3/55/29 27/56/29 28/57/29 
f 3/55/30 28/57/30 5/58/30 
f 27/56/31 29/59/31 30/60/31 
f 27/56/32 30/60/32 28/57/32 
f 29/59/33 31/61/33 32/62/33 
f 29/59/34 32/62/34 30/60/34 
f 33/63/35 2/64/35 3/65/35 
f 33/63/35 3/65/35 34/66/35 
f 5/67/35 35/68/35 34/69/35 
f 5/67/35 34/69/35 3/70/35 
f 7/71/36 5/72/36 35/73/36 
f 7/71/36 35/73/36 36/74/36 
f 2/75/35 33/76/35 36/77/35 
f 2/75/35 36/77/35 7/78/35 
f 37/79/37 33/80/37 38/81/37 
f 38/81/37 33/80/37 36/82/37 
f 36/83/38 35/84/38 39/85/38 
f 36/83/38 39/85/38 38/86/38 
f 35/87/39 34/88/39 40/89/39 
f 35/87/39 40/89/39 39/90/39 
f 34/91/40 33/92/40 37/93/40 
f 34/91/40 37/93/40 40/94/40 
f 41/95/41 39/85/41 42/96/41 
f 41/95/41 42/96/41 43/97/41 
f 44/98/42 45/99/42 46/100/42 
f 44/98/43 46/100/43 40/94/43 
f 39/101/44 40/102/44 46/103/44 
f 39/101/44 46/103/44 42/104/44 
f 43/105/45 42/106/45 46/107/45 
f 43/105/46 46/107/46 45/108/46 
f 44/109/47 41/110/47 43/105/47 
f 44/109/47 43/105/47 45/108/47 
f 47/111/48 38/112/48 48/113/48 
f 47/111/48 48/113/48 49/114/48 
f 50/115/49 51/116/49 52/117/49 
f 52/117/49 51/116/49 37/118/49 
f 52/119/50 37/120/50 48/121/50 
f 48/121/50 37/120/50 38/122/50 
f 48/123/51 49/124/51 52/125/51 
f 52/125/52 49/124/52 50/126/52 
f 47/127/53 51/128/53 49/129/53 
f 49/129/53 51/128/53 50/130/53 
f 37/93/54 51/131/54 44/98/54 
f 37/93/55 44/98/55 40/94/55 
f 38/86/56 39/85/56 41/95/56 
f 38/86/57 41/95/57 47/132/57 
f 47/132/58 41/95/58 53/133/58 
f 47/132/58 53/133/58 54/134/58 
f 44/98/59 51/131/59 55/135/59 
f 44/98/59 55/135/59 56/136/59 
f 51/137/60 47/138/60 54/139/60 
f 51/137/60 54/139/60 55/140/60 
f 41/110/61 44/109/61 56/141/61 
f 41/110/61 56/141/61 53/142/61 
f 54/143/62 53/144/62 56/145/62 
f 54/146/63 56/147/63 55/148/63 
# 0 polygons - 84 triangles

