# 3ds Max Wavefront OBJ Exporter v0.97b - (c)2007 guruware
# File Created: 22.08.2011 22:11:53

mtllib hydropart.mtl

#
# object Sphere02
#

v  -1.4452 42.9209 -24.4433
v  -1.4452 40.5313 -30.2123
v  -5.5245 40.5313 -28.5226
v  -7.2142 40.5313 -24.4433
v  -5.5245 40.5313 -20.3639
v  -1.4452 40.5313 -18.6742
v  2.6341 40.5313 -20.3639
v  4.3238 40.5313 -24.4433
v  2.6341 40.5313 -28.5226
v  -1.4452 34.7622 -32.6019
v  -7.2142 34.7622 -30.2123
v  -9.6038 34.7622 -24.4433
v  -7.2142 34.7622 -18.6742
v  -1.4452 34.7622 -16.2846
v  4.3238 34.7622 -18.6742
v  6.7134 34.7622 -24.4433
v  4.3238 34.7622 -30.2123
v  4.3016 0.0000 -30.1184
v  -9.4858 0.0000 -24.4075
v  -7.1202 0.0000 -30.1184
v  -1.4093 0.0000 -32.4839
v  -1.4093 0.0000 -16.3310
v  -7.1202 0.0000 -18.6966
v  6.6671 0.0000 -24.4075
v  4.3016 0.0000 -18.6966
v  4.3016 34.8138 -30.1184
v  6.6671 34.8138 -24.4075
v  -1.4093 34.8138 -32.4839
v  -7.1202 34.8138 -30.1184
v  -9.4858 34.8138 -24.4075
v  -7.1202 34.8138 -18.6966
v  -1.4093 34.8138 -16.3310
v  4.3016 34.8138 -18.6966
v  -1.4452 42.9209 2.0543
v  -1.4452 40.5313 -3.7147
v  -5.5245 40.5313 -2.0250
v  -7.2142 40.5313 2.0543
v  -5.5245 40.5313 6.1336
v  -1.4452 40.5313 7.8233
v  2.6341 40.5313 6.1336
v  4.3238 40.5313 2.0543
v  2.6341 40.5313 -2.0250
v  -1.4452 34.7622 -6.1043
v  -7.2142 34.7622 -3.7147
v  -9.6038 34.7622 2.0543
v  -7.2142 34.7622 7.8233
v  -1.4452 34.7622 10.2129
v  4.3238 34.7622 7.8233
v  6.7134 34.7622 2.0543
v  4.3238 34.7622 -3.7147
v  4.3016 0.0000 -3.6208
v  -9.4858 0.0000 2.0901
v  -7.1202 0.0000 -3.6208
v  -1.4093 0.0000 -5.9863
v  -1.4093 0.0000 10.1665
v  -7.1202 0.0000 7.8010
v  6.6671 0.0000 2.0901
v  4.3016 0.0000 7.8010
v  4.3016 34.8138 -3.6208
v  6.6671 34.8138 2.0901
v  -1.4093 34.8138 -5.9863
v  -7.1202 34.8138 -3.6208
v  -9.4858 34.8138 2.0901
v  -7.1202 34.8138 7.8010
v  -1.4093 34.8138 10.1665
v  4.3016 34.8138 7.8010
v  8.9589 -3.0604 -10.2899
v  -39.3044 -3.0604 -22.3166
v  -20.4987 -3.0604 -37.3137
v  7.7788 -3.0604 -31.9613
v  -20.4987 -3.0604 16.7340
v  -39.3044 -3.0604 1.7369
v  7.5108 -3.0604 11.3816
v  7.7788 1.2078 -31.9613
v  8.9589 1.2078 -10.2899
v  -20.4987 1.2078 -37.3137
v  -39.3044 1.2078 -22.3166
v  -39.3044 1.2078 1.7369
v  -20.4987 1.2078 16.7340
v  7.5108 1.2078 11.3816
v  -39.9355 0.0000 1.5805
v  -37.7139 0.0000 -1.2634
v  -25.6277 0.0000 8.1780
v  -27.8493 0.0000 11.0219
v  -39.9355 2.8211 1.5805
v  -27.8493 2.6226 11.0219
v  -25.6277 6.9705 8.1780
v  -37.7139 6.9705 -1.2634
v  -26.3173 0.0000 -31.7292
v  -24.1084 0.0000 -28.8755
v  -36.2364 0.0000 -19.4879
v  -38.4454 0.0000 -22.3417
v  -26.3173 2.8211 -31.7292
v  -38.4454 2.6226 -22.3417
v  -36.2364 6.9705 -19.4879
v  -24.1084 6.9705 -28.8755
v  -22.0593 35.2641 -10.6933
v  -22.0593 30.0390 -23.3078
v  -30.9791 30.0390 -19.6131
v  -34.6739 30.0390 -10.6933
v  -30.9791 30.0390 -1.7735
v  -22.0593 30.0390 1.9212
v  -13.1395 30.0390 -1.7735
v  -9.4448 30.0390 -10.6933
v  -13.1395 30.0390 -19.6131
v  -22.0593 17.4245 -28.5329
v  -34.6739 17.4245 -23.3078
v  -39.8990 17.4245 -10.6933
v  -34.6738 17.4245 1.9212
v  -22.0593 17.4245 7.1463
v  -9.4448 17.4245 1.9212
v  -4.2197 17.4245 -10.6933
v  -9.4448 17.4245 -23.3078
v  -22.0593 4.8100 -23.3078
v  -30.9791 4.8100 -19.6131
v  -34.6739 4.8100 -10.6933
v  -30.9791 4.8100 -1.7735
v  -22.0593 4.8100 1.9212
v  -13.1395 4.8100 -1.7735
v  -9.4448 4.8100 -10.6933
v  -13.1395 4.8100 -19.6131
v  -22.0593 -0.4151 -10.6933
v  -25.7377 10.8205 5.4605
v  -25.1415 19.3985 12.2752
v  -25.5671 19.3985 7.4109
v  -25.8324 15.5810 4.3781
v  -24.9709 10.8206 14.2256
v  -24.8762 15.5810 15.3080
v  -25.3543 8.7020 9.8431
v  -8.3184 10.8205 3.9365
v  -7.9349 8.7020 8.3191
v  -8.4130 15.5810 2.8541
v  -8.1477 19.3985 5.8869
v  -7.7221 19.3985 10.7512
v  -7.4568 15.5810 13.7840
v  -7.5515 10.8205 12.7016
# 136 vertices

vn -0.0000 1.0000 -0.0000
vn 0.0000 0.6630 -0.7486
vn -0.5294 0.6630 -0.5294
vn -0.7486 0.6630 -0.0000
vn -0.5294 0.6630 0.5294
vn -0.0000 0.6630 0.7486
vn 0.5294 0.6630 0.5294
vn 0.7486 0.6630 0.0000
vn 0.5294 0.6630 -0.5294
vn 0.0000 0.3827 -0.9239
vn -0.6533 0.3827 -0.6533
vn -0.9239 0.3827 0.0000
vn -0.6533 0.3827 0.6533
vn 0.0000 0.3827 0.9239
vn 0.6533 0.3827 0.6533
vn 0.9239 0.3827 0.0000
vn 0.6533 0.3827 -0.6533
vn 0.0000 -1.0000 -0.0000
vn 1.0000 0.0000 0.0000
vn 0.7071 0.0000 -0.7071
vn -0.0000 0.0000 -1.0000
vn 0.0000 0.0000 -1.0000
vn -0.7071 0.0000 -0.7071
vn -1.0000 0.0000 0.0000
vn -0.7071 0.0000 0.7071
vn 0.0000 0.0000 1.0000
vn -0.0000 0.0000 1.0000
vn 0.7071 0.0000 0.7071
vn 0.0000 1.0000 -0.0000
vn 1.0000 0.0000 0.0062
vn 0.7524 0.0000 -0.6587
vn -0.2407 0.0000 -0.9706
vn -0.9010 0.0000 -0.4339
vn -0.9010 0.0000 0.4339
vn -0.2398 0.0000 0.9708
vn 0.7489 0.0000 0.6627
vn -0.0000 1.0000 0.0000
vn -0.4651 0.6523 0.5984
vn -0.4672 0.6386 0.6115
vn -0.4666 0.6425 0.6078
vn -0.4645 0.6562 0.5946
vn -0.6156 0.0000 0.7881
vn 0.7881 0.0000 0.6156
vn 0.6156 0.0000 -0.7881
vn -0.7881 0.0000 -0.6156
vn -0.4654 0.6523 -0.5982
vn -0.4775 0.6386 -0.6034
vn -0.4741 0.6425 -0.6020
vn -0.4619 0.6562 -0.5967
vn -0.6121 0.0000 -0.7908
vn -0.7908 0.0000 0.6121
vn 0.6121 0.0000 0.7908
vn 0.7908 0.0000 -0.6121
vn -0.7486 0.6630 0.0000
vn 0.0000 0.6630 0.7486
vn -0.7071 -0.0000 -0.7071
vn 0.7071 -0.0000 -0.7071
vn 0.0000 -0.6630 -0.7486
vn -0.5294 -0.6630 -0.5294
vn -0.7486 -0.6630 0.0000
vn -0.5294 -0.6630 0.5294
vn 0.0000 -0.6630 0.7486
vn 0.5294 -0.6630 0.5294
vn 0.7486 -0.6630 0.0000
vn 0.5294 -0.6630 -0.5294
vn -0.9962 0.0000 0.0872
vn -0.9962 -0.0000 0.0872
vn -0.0000 -1.0000 -0.0000
vn -0.0681 -0.6235 -0.7789
vn -0.0850 0.2225 -0.9712
vn -0.0378 0.9010 -0.4322
vn 0.0378 0.9010 0.4322
vn 0.0850 0.2225 0.9712
vn 0.0681 -0.6235 0.7789
vn 0.9962 0.0000 -0.0872
vn 0.9962 -0.0000 -0.0872
# 76 vertex normals

vt -0.2270 0.8451 0.0000
vt -0.2270 0.7989 0.0000
vt -0.1164 0.7989 0.0000
vt 1.8758 1.6773 0.0000
vt 1.8726 1.8397 0.0000
vt 1.7587 1.7899 0.0000
vt 1.7134 1.6742 0.0000
vt -0.2315 0.8432 0.0000
vt -0.3469 0.7969 0.0000
vt -0.2315 0.7969 0.0000
vt -0.1161 0.7969 0.0000
vt 1.7677 1.5649 0.0000
vt 1.7645 1.7273 0.0000
vt 1.6507 1.6775 0.0000
vt 1.6054 1.5617 0.0000
vt -0.3376 0.7989 0.0000
vt -0.2270 0.6872 0.0000
vt -0.0705 0.6872 0.0000
vt 1.8898 1.6519 0.0000
vt 1.9270 1.8237 0.0000
vt 1.7516 1.8352 0.0000
vt 1.7658 1.6600 0.0000
vt 1.6246 1.7991 0.0000
vt 1.6761 1.6345 0.0000
vt -0.3947 0.6853 0.0000
vt -0.2315 0.6853 0.0000
vt -0.0683 0.6853 0.0000
vt 1.7497 1.5967 0.0000
vt 1.9176 1.5448 0.0000
vt 1.9444 1.7185 0.0000
vt 1.7687 1.7196 0.0000
vt 1.9195 1.8481 0.0000
vt 1.7510 1.8112 0.0000
vt -0.3834 0.6872 0.0000
vt 0.2058 0.2802 0.0000
vt 0.1881 0.2362 0.0000
vt 0.2244 0.2365 0.0000
vt 0.2498 0.2625 0.0000
vt 0.1618 0.2979 0.0000
vt 0.1622 0.2616 0.0000
vt 0.2235 0.3242 0.0000
vt 0.1872 0.3238 0.0000
vt -0.2175 1.0248 0.0000
vt -0.0500 1.0248 0.0000
vt -0.0500 1.6779 0.0000
vt -0.2175 1.6779 0.0000
vt -0.3828 0.0145 0.0000
vt -0.2280 0.0145 0.0000
vt -0.2280 0.6882 0.0000
vt -0.3828 0.6882 0.0000
vt -0.0731 0.0145 0.0000
vt -0.0731 0.6882 0.0000
vt -0.3904 1.0114 0.0000
vt -0.2213 1.0114 0.0000
vt -0.2213 1.6712 0.0000
vt -0.3904 1.6712 0.0000
vt -0.0521 1.0114 0.0000
vt -0.0521 1.6712 0.0000
vt -0.3920 0.0125 0.0000
vt -0.2305 0.0125 0.0000
vt -0.2305 0.6863 0.0000
vt -0.3920 0.6863 0.0000
vt -0.0689 0.0125 0.0000
vt -0.0689 0.6863 0.0000
vt -0.3850 1.0248 0.0000
vt -0.3850 1.6779 0.0000
vt 0.2028 0.1979 0.0000
vt 0.1842 0.2416 0.0000
vt 0.1588 0.2156 0.0000
vt 0.1592 0.1793 0.0000
vt 0.1851 0.1539 0.0000
vt 0.2214 0.1543 0.0000
vt 0.2468 0.1802 0.0000
vt 0.2465 0.2165 0.0000
vt -0.2191 0.8377 0.0000
vt -0.2191 0.7925 0.0000
vt -0.1443 0.7925 0.0000
vt -0.1133 0.7925 0.0000
vt -0.2324 0.8465 0.0000
vt -0.3394 0.8006 0.0000
vt -0.3081 0.8006 0.0000
vt -0.2324 0.8006 0.0000
vt -0.2257 0.8425 0.0000
vt -0.2257 0.7966 0.0000
vt -0.1500 0.7966 0.0000
vt -0.1187 0.7966 0.0000
vt -0.2293 0.8338 0.0000
vt -0.3351 0.7886 0.0000
vt -0.3041 0.7886 0.0000
vt -0.2293 0.7886 0.0000
vt -0.2191 0.6834 0.0000
vt -0.1133 0.6834 0.0000
vt -0.0695 0.6834 0.0000
vt -0.3838 0.6897 0.0000
vt -0.3394 0.6897 0.0000
vt -0.2324 0.6897 0.0000
vt -0.2257 0.6857 0.0000
vt -0.1187 0.6857 0.0000
vt -0.0743 0.6857 0.0000
vt -0.3789 0.6795 0.0000
vt -0.3351 0.6795 0.0000
vt -0.2293 0.6795 0.0000
vt 0.1946 0.2207 0.0000
vt 0.1769 0.1767 0.0000
vt 0.2132 0.1770 0.0000
vt 0.2386 0.2029 0.0000
vt 0.1506 0.2384 0.0000
vt 0.1510 0.2021 0.0000
vt 0.2123 0.2646 0.0000
vt 0.1760 0.2643 0.0000
vt -0.3781 0.0222 0.0000
vt -0.3347 0.0222 0.0000
vt -0.3347 0.6805 0.0000
vt -0.3781 0.6805 0.0000
vt -0.2300 0.0222 0.0000
vt -0.2300 0.6805 0.0000
vt -0.2198 0.0261 0.0000
vt -0.1151 0.0261 0.0000
vt -0.1151 0.6844 0.0000
vt -0.2198 0.6844 0.0000
vt -0.0717 0.0261 0.0000
vt -0.0717 0.6844 0.0000
vt -0.3816 0.0218 0.0000
vt -0.3377 0.0218 0.0000
vt -0.3377 0.6907 0.0000
vt -0.3816 0.6907 0.0000
vt -0.2318 0.0218 0.0000
vt -0.2318 0.6907 0.0000
vt -0.2250 0.0178 0.0000
vt -0.1191 0.0178 0.0000
vt -0.1191 0.6867 0.0000
vt -0.2250 0.6867 0.0000
vt -0.0752 0.0178 0.0000
vt -0.0752 0.6867 0.0000
vt 0.1424 0.2585 0.0000
vt 0.1239 0.3022 0.0000
vt 0.0984 0.2762 0.0000
vt 0.0988 0.2399 0.0000
vt 0.1247 0.2145 0.0000
vt 0.1610 0.2149 0.0000
vt 0.1864 0.2408 0.0000
vt 0.1861 0.2771 0.0000
vt 0.1753 0.2329 0.0000
vt 0.1213 0.4388 0.0000
vt 0.0540 0.2837 0.0000
vt 0.0781 0.0506 0.0000
vt 0.2966 0.2837 0.0000
vt 0.2293 0.4388 0.0000
vt 0.2726 0.0528 0.0000
vt 0.1628 0.2345 0.0000
vt 0.0355 0.2345 0.0000
vt 0.0355 0.2095 0.0000
vt 0.1628 0.2095 0.0000
vt 0.2906 0.2262 0.0000
vt 0.1246 0.2262 0.0000
vt 0.1246 0.2011 0.0000
vt 0.2906 0.2011 0.0000
vt 0.0141 0.2262 0.0000
vt 0.0141 0.2011 0.0000
vt 0.2347 0.3086 0.0000
vt 0.0934 0.3086 0.0000
vt 0.0934 0.2836 0.0000
vt 0.2347 0.2836 0.0000
vt 0.3018 0.1844 0.0000
vt 0.1914 0.1844 0.0000
vt 0.1914 0.1593 0.0000
vt 0.3018 0.1593 0.0000
vt 0.0269 0.1844 0.0000
vt 0.0269 0.1593 0.0000
vt 0.2901 0.2345 0.0000
vt 0.2901 0.2095 0.0000
vt 0.1665 0.2376 0.0000
vt 0.2708 0.0553 0.0000
vt 0.2966 0.2885 0.0000
vt 0.2244 0.4435 0.0000
vt 0.1086 0.4435 0.0000
vt 0.0364 0.2885 0.0000
vt 0.0622 0.0575 0.0000
vt 0.1457 0.2891 0.0000
vt 0.1451 0.2679 0.0000
vt 0.2352 0.2655 0.0000
vt 0.2357 0.2867 0.0000
vt 0.1172 0.2388 0.0000
vt 0.0271 0.2403 0.0000
vt 0.0269 0.2072 0.0000
vt 0.1170 0.2065 0.0000
vt 0.1172 0.2516 0.0000
vt 0.0271 0.2522 0.0000
vt 0.1288 0.2338 0.0000
vt 0.1288 0.2126 0.0000
vt 0.1698 0.2126 0.0000
vt 0.1442 0.2338 0.0000
vt 0.2451 0.2625 0.0000
vt 0.1550 0.2625 0.0000
vt 0.1550 0.2215 0.0000
vt 0.2451 0.2215 0.0000
vt 0.1288 0.3304 0.0000
vt 0.1288 0.3092 0.0000
vt 0.1454 0.3092 0.0000
vt 0.1698 0.3304 0.0000
vt 0.3080 0.2323 0.0000
vt 0.3065 0.2535 0.0000
vt 0.2167 0.2472 0.0000
vt 0.2181 0.2261 0.0000
vt 0.2297 0.2388 0.0000
vt 0.1396 0.2403 0.0000
vt 0.1394 0.2072 0.0000
vt 0.2295 0.2065 0.0000
vt 0.1209 0.2546 0.0000
vt 0.0496 0.2546 0.0000
vt 0.0496 0.2391 0.0000
vt 0.1209 0.2380 0.0000
vt 0.1323 0.2971 0.0000
vt 0.1323 0.2804 0.0000
vt 0.1732 0.2804 0.0000
vt 0.1477 0.2971 0.0000
vt 0.0937 0.2492 0.0000
vt 0.0225 0.2492 0.0000
vt 0.0225 0.2083 0.0000
vt 0.0937 0.2083 0.0000
vt 0.1852 0.2176 0.0000
vt 0.1852 0.2009 0.0000
vt 0.2018 0.2009 0.0000
vt 0.2262 0.2176 0.0000
vt 1.3317 0.3755 0.0000
vt 1.3608 0.3464 0.0000
vt 1.3807 0.4697 0.0000
vt 1.3890 0.5207 0.0000
vt 1.3349 0.3694 0.0000
vt 1.3357 0.1741 0.0000
vt 1.3434 0.2231 0.0000
vt 1.3621 0.3415 0.0000
vt 1.3808 0.4598 0.0000
vt 1.3885 0.5088 0.0000
vt 1.3325 0.1721 0.0000
vt 1.3408 0.2232 0.0000
vt 1.4309 0.2762 0.0000
vt 1.4591 0.4505 0.0000
vt 1.4708 0.5227 0.0000
vt 1.3903 0.0374 0.0000
vt 1.4013 0.1067 0.0000
vt 1.4277 0.2741 0.0000
vt 1.4541 0.4414 0.0000
vt 1.4651 0.5107 0.0000
vt 1.3910 0.0297 0.0000
vt 1.4026 0.1019 0.0000
vt 1.5010 0.2060 0.0000
vt 1.5210 0.3293 0.0000
vt 1.5292 0.3803 0.0000
vt 1.4669 0.0393 0.0000
vt 1.4747 0.0883 0.0000
vt 1.4933 0.2067 0.0000
vt 1.5120 0.3250 0.0000
vt 1.5198 0.3740 0.0000
vt 1.4728 0.0317 0.0000
vt 1.4810 0.0827 0.0000
vt 1.5300 0.1769 0.0000
vt 1.5205 0.1787 0.0000
vt 0.6246 0.1482 0.0000
vt 0.6284 0.2616 0.0000
vt 0.6208 0.2616 0.0000
vt 0.6160 0.1762 0.0000
vt 0.6315 0.0697 0.0000
vt 0.6332 0.1762 0.0000
vt 0.6246 0.0223 0.0000
vt 0.9378 0.2705 0.0000
vt 0.9447 0.3179 0.0000
vt 0.6315 0.3179 0.0000
vt 0.6246 0.2705 0.0000
vt 0.9464 0.4244 0.0000
vt 0.6332 0.4244 0.0000
vt 0.9417 0.5098 0.0000
vt 0.6284 0.5098 0.0000
vt 0.9417 0.2616 0.0000
vt 0.9340 0.2616 0.0000
vt 0.9464 0.1762 0.0000
vt 0.9447 0.0697 0.0000
vt 0.9378 0.0223 0.0000
vt 0.6246 0.3964 0.0000
vt 0.6208 0.5098 0.0000
vt 0.6160 0.4244 0.0000
vt 0.6177 0.3179 0.0000
# 282 texture coords

g Sphere02
usemtl Material__26
s 1
f 1/1/1 2/2/2 3/3/3 
f 1/4/1 3/5/3 4/6/4 
f 1/4/1 4/6/4 5/7/5 
f 1/8/1 5/9/5 6/10/6 
f 1/8/1 6/10/6 7/11/7 
f 1/12/1 7/13/7 8/14/8 
f 1/12/1 8/14/8 9/15/9 
f 1/1/1 9/16/9 2/2/2 
f 2/2/2 10/17/10 11/18/11 3/3/3 
f 3/19/3 11/20/11 12/21/12 4/22/4 
f 4/22/4 12/21/12 13/23/13 5/24/5 
f 5/9/5 13/25/13 14/26/14 6/10/6 
f 6/10/6 14/26/14 15/27/15 7/11/7 
f 7/28/7 15/29/15 16/30/16 8/31/8 
f 8/31/8 16/30/16 17/32/17 9/33/9 
f 9/16/9 17/34/17 10/17/10 2/2/2 
f 18/35/18 19/36/18 20/37/18 21/38/18 
f 18/35/18 22/39/18 23/40/18 19/36/18 
f 18/35/18 24/41/18 25/42/18 22/39/18 
s 8
f 24/43/19 18/44/20 26/45/20 27/46/19 
f 18/47/20 21/48/21 28/49/22 26/50/20 
f 21/48/21 20/51/23 29/52/23 28/49/22 
f 20/53/23 19/54/24 30/55/24 29/56/23 
f 19/54/24 23/57/25 31/58/25 30/55/24 
f 23/59/25 22/60/26 32/61/27 31/62/25 
f 22/60/26 25/63/28 33/64/28 32/61/27 
f 25/65/28 24/43/19 27/46/19 33/66/28 
s 1
f 27/67/29 26/68/29 28/69/29 29/70/29 
f 27/67/29 29/70/29 30/71/29 31/72/29 
f 27/67/29 31/72/29 32/73/29 33/74/29 
f 34/75/1 35/76/2 36/77/3 
f 34/75/1 36/77/3 37/78/4 
f 34/79/1 37/80/4 38/81/5 
f 34/79/1 38/81/5 39/82/6 
f 34/83/1 39/84/6 40/85/7 
f 34/83/1 40/85/7 41/86/8 
f 34/87/1 41/88/8 42/89/9 
f 34/87/1 42/89/9 35/90/2 
f 35/76/2 43/91/10 44/92/11 36/77/3 
f 36/77/3 44/92/11 45/93/12 37/78/4 
f 37/80/4 45/94/12 46/95/13 38/81/5 
f 38/81/5 46/95/13 47/96/14 39/82/6 
f 39/84/6 47/97/14 48/98/15 40/85/7 
f 40/85/7 48/98/15 49/99/16 41/86/8 
f 41/88/8 49/100/16 50/101/17 42/89/9 
f 42/89/9 50/101/17 43/102/10 35/90/2 
f 51/103/18 52/104/18 53/105/18 54/106/18 
f 51/103/18 55/107/18 56/108/18 52/104/18 
f 51/103/18 57/109/18 58/110/18 55/107/18 
s 8
f 57/111/19 51/112/20 59/113/20 60/114/19 
f 51/112/20 54/115/21 61/116/22 59/113/20 
f 54/117/21 53/118/23 62/119/23 61/120/22 
f 53/118/23 52/121/24 63/122/24 62/119/23 
f 52/123/24 56/124/25 64/125/25 63/126/24 
f 56/124/25 55/127/26 65/128/27 64/125/25 
f 55/129/26 58/130/28 66/131/28 65/132/27 
f 58/130/28 57/133/19 60/134/19 66/131/28 
s 1
f 60/135/29 59/136/29 61/137/29 62/138/29 
f 60/135/29 62/138/29 63/139/29 64/140/29 
f 60/135/29 64/140/29 65/141/29 66/142/29 
f 67/143/18 68/144/18 69/145/18 70/146/18 
f 67/143/18 71/147/18 72/148/18 68/144/18 
f 67/143/18 73/149/18 71/147/18 
s 8
f 67/150/30 70/151/31 74/152/31 75/153/30 
f 70/154/31 69/155/32 76/156/32 74/157/31 
f 69/155/32 68/158/33 77/159/33 76/156/32 
f 68/160/33 72/161/34 78/162/34 77/163/33 
f 72/164/34 71/165/35 79/166/35 78/167/34 
f 71/165/35 73/168/36 80/169/36 79/166/35 
f 73/170/36 67/150/30 75/153/30 80/171/36 
s 1
f 75/172/1 74/173/37 76/174/1 77/175/1 
f 75/172/1 77/175/1 78/176/37 79/177/37 
f 75/172/1 79/177/37 80/178/1 
s 2
f 81/179/18 82/180/18 83/181/18 84/182/18 
s 4
f 85/183/38 86/184/39 87/185/40 88/186/41 
s 8
f 81/187/42 84/188/42 86/184/42 85/183/42 
s 16
f 84/189/43 83/190/43 87/191/43 86/192/43 
s 32
f 83/193/44 82/194/44 88/195/44 87/196/44 
s 64
f 82/197/45 81/198/45 85/199/45 88/200/45 
s 2
f 89/201/18 90/202/18 91/203/18 92/204/18 
s 4
f 93/205/46 94/206/47 95/207/48 96/208/49 
s 8
f 89/209/50 92/210/50 94/211/50 93/212/50 
s 16
f 92/213/51 91/214/51 95/215/51 94/216/51 
s 32
f 91/217/52 90/218/52 96/219/52 95/220/52 
s 64
f 90/221/53 89/222/53 93/223/53 96/224/53 
s 1
f 97/225/1 98/226/2 99/227/3 
f 97/225/1 99/227/3 100/228/54 
f 97/229/1 100/230/54 101/231/5 
f 97/229/1 101/231/5 102/232/55 
f 97/229/1 102/232/55 103/233/7 
f 97/229/1 103/233/7 104/234/8 
f 97/225/1 104/235/8 105/236/9 
f 97/225/1 105/236/9 98/226/2 
f 98/226/2 106/237/22 107/238/56 99/227/3 
f 99/227/3 107/238/56 108/239/24 100/228/54 
f 100/230/54 108/240/24 109/241/25 101/231/5 
f 101/231/5 109/241/25 110/242/26 102/232/55 
f 102/232/55 110/242/26 111/243/28 103/233/7 
f 103/233/7 111/243/28 112/244/19 104/234/8 
f 104/235/8 112/245/19 113/246/57 105/236/9 
f 105/236/9 113/246/57 106/237/22 98/226/2 
f 106/237/22 114/247/58 115/248/59 107/238/56 
f 107/238/56 115/248/59 116/249/60 108/239/24 
f 108/240/24 116/250/60 117/251/61 109/241/25 
f 109/241/25 117/251/61 118/252/62 110/242/26 
f 110/242/26 118/252/62 119/253/63 111/243/28 
f 111/243/28 119/253/63 120/254/64 112/244/19 
f 112/245/19 120/255/64 121/256/65 113/246/57 
f 113/246/57 121/256/65 114/247/58 106/237/22 
f 122/257/18 115/248/59 114/247/58 
f 122/257/18 116/249/60 115/248/59 
f 122/258/18 117/251/61 116/250/60 
f 122/258/18 118/252/62 117/251/61 
f 122/258/18 119/253/63 118/252/62 
f 122/258/18 120/254/64 119/253/63 
f 122/257/18 121/256/65 120/255/64 
f 122/257/18 114/247/58 121/256/65 
f 123/259/66 124/260/66 125/261/66 126/262/66 
f 123/259/66 127/263/66 128/264/66 124/260/66 
f 123/259/66 129/265/67 127/263/66 
s 8
f 129/266/68 123/267/69 130/268/69 131/269/68 
f 123/267/69 126/270/70 132/271/70 130/268/69 
f 126/270/70 125/272/71 133/273/71 132/271/70 
f 125/261/71 124/260/72 134/274/72 133/275/71 
f 124/260/72 128/264/73 135/276/73 134/274/72 
f 128/264/73 127/263/74 136/277/74 135/276/73 
f 127/263/74 129/265/68 131/278/68 136/277/74 
s 1
f 131/279/75 130/268/75 132/271/75 133/273/75 
f 131/279/75 133/273/75 134/280/76 135/281/76 
f 131/279/75 135/281/76 136/282/76 
# 94 polygons - 36 triangles

