# 3ds Max Wavefront OBJ Exporter v0.97b - (c)2007 guruware
# File Created: 26.05.2011 21:23:39

mtllib chemjournals.mtl

#
# object Box02
#

v  -0.2364 20.5216 6.9653
v  -0.2364 10.8227 0.2911
v  2.3497 10.8227 0.2911
v  2.3497 20.5216 6.9653
v  -0.2364 18.6573 -9.4356
v  2.3497 18.6573 -9.4356
v  -0.2364 20.9463 6.3723
v  2.3497 20.9463 6.3723
v  2.3497 11.4342 -0.1065
v  -0.2364 11.4342 -0.1065
v  2.3497 19.0343 -8.8112
v  -0.2364 19.0343 -8.8112
v  1.8741 -3.3815 9.4930
v  1.8741 -3.3815 -8.8858
v  2.5343 11.2607 -8.8858
v  2.5343 11.2607 9.4930
v  -1.0174 -3.0745 9.4930
v  -0.3572 11.5677 9.4930
v  -0.3572 11.5677 -8.8858
v  -1.0174 -3.0745 -8.8858
v  -8.6770 7.4185 7.1635
v  13.9469 7.4185 9.3251
v  13.9469 10.8866 9.3251
v  -8.6770 10.8866 7.1635
v  13.9469 7.4082 9.3251
v  15.4604 7.4082 -6.5154
v  15.4604 10.8763 -6.5154
v  13.9469 10.8763 9.3251
v  -8.6770 7.3334 7.1635
v  -7.1635 7.3334 -8.6770
v  15.4604 7.3334 -6.5154
v  13.9469 7.3334 9.3251
v  15.4604 10.8866 -6.5154
v  -7.1635 10.8866 -8.6770
v  -7.1635 10.8763 -8.6770
v  -7.1635 7.4082 -8.6770
v  -7.1635 7.4185 -8.6770
v  -10.1607 2.1846 4.8339
v  11.2551 2.1846 12.4418
v  11.2551 7.3419 12.4418
v  -10.1607 7.3419 4.8339
v  16.5819 2.1846 -2.5528
v  16.5819 7.3419 -2.5528
v  -4.8339 2.1846 -10.1607
v  -4.8339 7.3419 -10.1607
v  -7.9563 -3.0005 7.9563
v  14.7706 -3.0005 7.9563
v  14.7706 2.1568 7.9563
v  -7.9563 2.1568 7.9563
v  14.7706 -3.0005 -7.9563
v  14.7706 2.1568 -7.9563
v  -7.9563 -3.0005 -7.9563
v  -7.9563 2.1568 -7.9563
# 53 vertices

vn 0.0000 -0.5669 0.8238
vn 0.0000 -0.9895 0.1445
vn 0.0000 -0.7788 -0.6273
vn 0.0000 0.5629 -0.8265
vn 0.0000 0.9919 -0.1272
vn 0.0000 0.7533 0.6577
vn 0.0000 0.8130 0.5823
vn 1.0000 0.0000 -0.0000
vn 0.0000 0.8561 -0.5169
vn -1.0000 0.0000 -0.0000
vn 0.9990 -0.0450 0.0000
vn 0.9990 -0.0450 -0.0000
vn -0.9990 0.0450 0.0000
vn 0.0000 0.0000 1.0000
vn 0.1056 0.9944 0.0000
vn 0.1056 0.9944 -0.0000
vn 0.0000 0.0000 -1.0000
vn -0.1056 -0.9944 0.0000
vn -0.0951 -0.0000 0.9955
vn -0.0951 0.0000 0.9955
vn 0.9955 -0.0000 0.0951
vn 0.9955 0.0000 0.0951
vn 0.0000 -1.0000 -0.0000
vn 0.0000 1.0000 -0.0000
vn 0.0951 0.0000 -0.9955
vn 0.0951 -0.0000 -0.9955
vn -0.9955 -0.0000 -0.0951
vn -0.3347 0.0000 0.9423
vn 0.9423 0.0000 0.3347
vn 0.3347 0.0000 -0.9423
vn -0.9423 0.0000 -0.3347
# 31 vertex normals

vt 0.9849 0.0000 0.0000
vt 0.9849 0.0207 0.0000
vt 0.0000 0.0207 0.0000
vt 0.0000 0.0000 0.0000
vt 0.9849 0.0414 0.0000
vt 0.0000 0.0414 0.0000
vt 0.4925 0.0000 0.0000
vt 0.4925 0.0414 0.0000
vt 0.9925 0.0019 0.0000
vt 0.9925 0.0490 0.0000
vt -0.0019 0.0490 0.0000
vt -0.0019 0.0019 0.0000
vt 1.9675 0.0740 0.0000
vt 1.9750 0.9463 0.0000
vt 1.8310 0.9525 0.0000
vt 1.8234 0.0802 0.0000
vt 1.9572 0.0843 0.0000
vt 1.9669 0.9392 0.0000
vt 1.8475 0.9465 0.0000
vt 1.8378 0.0916 0.0000
vt 1.5986 -0.8921 0.0000
vt 1.5986 -0.0730 0.0000
vt 1.0847 -0.0730 0.0000
vt 1.0847 -0.8921 0.0000
vt 1.6101 0.9427 0.0000
vt 1.0242 0.9488 0.0000
vt 1.0070 0.0771 0.0000
vt 1.5929 0.0711 0.0000
vt 1.6294 0.9336 0.0000
vt 1.6299 0.0887 0.0000
vt 1.7986 0.0889 0.0000
vt 1.7982 0.9337 0.0000
vt 1.8437 0.9385 0.0000
vt 1.8437 0.0863 0.0000
vt 1.9589 0.0863 0.0000
vt 1.9589 0.9385 0.0000
vt 1.9435 -0.9078 0.0000
vt 1.9493 -0.0860 0.0000
vt 1.8364 -0.0837 0.0000
vt 1.8305 -0.9055 0.0000
vt 1.9617 -0.9084 0.0000
vt 1.9547 -0.0706 0.0000
vt 1.8221 -0.0755 0.0000
vt 1.8291 -0.9134 0.0000
vt 1.0976 0.9127 0.0000
vt 1.1027 0.0780 0.0000
vt 1.5899 0.0960 0.0000
vt 1.5848 0.9307 0.0000
vt 1.6071 -0.0563 0.0000
vt 1.0147 -0.0479 0.0000
vt 1.0031 -0.9123 0.0000
vt 1.5954 -0.9206 0.0000
vt 1.6267 -0.0662 0.0000
vt 1.6383 -0.9200 0.0000
vt 1.7767 -0.9160 0.0000
vt 1.7650 -0.0623 0.0000
vt 1.8364 -0.0863 0.0000
vt 1.8395 -0.9054 0.0000
vt 1.9576 -0.9030 0.0000
vt 1.9545 -0.0839 0.0000
vt 0.9669 0.0851 0.0000
vt 0.9639 0.9446 0.0000
vt 0.8172 0.9437 0.0000
vt 0.8202 0.0842 0.0000
vt 0.9668 0.0885 0.0000
vt 0.9605 0.9281 0.0000
vt 0.8357 0.9237 0.0000
vt 0.8419 0.0841 0.0000
vt 0.5823 0.0859 0.0000
vt 0.5829 0.8950 0.0000
vt 0.1064 0.8973 0.0000
vt 0.1058 0.0881 0.0000
vt 0.6213 0.9392 0.0000
vt 0.0205 0.9399 0.0000
vt 0.0186 0.0768 0.0000
vt 0.6194 0.0761 0.0000
vt 0.6449 0.9296 0.0000
vt 0.6460 0.0821 0.0000
vt 0.7690 0.0825 0.0000
vt 0.7679 0.9300 0.0000
vt 0.8401 0.9293 0.0000
vt 0.8324 0.0908 0.0000
vt 0.9485 0.0849 0.0000
vt 0.9563 0.9233 0.0000
# 84 texture coords

g Box02
usemtl Material__56
s 2
f 1/1/1 2/2/2 3/3/2 4/4/1 
f 2/2/2 5/5/3 6/6/3 3/3/2 
s 4
f 7/4/4 8/1/4 9/2/5 10/3/5 
f 10/3/5 9/2/5 11/5/6 12/6/6 
s 8
f 1/4/7 4/1/7 8/5/7 7/6/7 
s 16
f 4/4/8 3/7/8 9/8/8 8/6/8 
f 3/7/8 6/1/8 11/5/8 9/8/8 
s 32
f 6/4/9 5/1/9 12/5/9 11/6/9 
s 64
f 5/4/10 2/7/10 10/8/10 12/6/10 
f 2/7/10 1/1/10 7/5/10 10/8/10 
usemtl Material__55
s 2
f 13/9/11 14/10/12 15/11/12 16/12/11 
s 4
f 17/12/13 18/9/13 19/10/13 20/11/13 
s 8
f 13/12/14 16/9/14 18/10/14 17/11/14 
s 16
f 16/12/15 15/9/16 19/10/16 18/11/15 
s 32
f 15/12/17 14/9/17 20/10/17 19/11/17 
s 64
f 14/12/18 13/9/18 17/10/18 20/11/18 
usemtl Material__53
s 1
f 21/13/19 22/14/20 23/15/19 24/16/19 
f 25/17/21 26/18/22 27/19/21 28/20/21 
f 29/21/23 30/22/23 31/23/23 32/24/23 
f 23/25/24 33/26/24 34/27/24 24/28/24 
f 35/29/25 27/30/26 26/31/26 36/32/25 
f 24/33/27 34/34/27 37/35/27 21/36/27 
f 38/37/28 39/38/28 40/39/28 41/40/28 
f 39/41/29 42/42/29 43/43/29 40/44/29 
f 38/45/23 44/46/23 42/47/23 39/48/23 
f 40/49/24 43/50/24 45/51/24 41/52/24 
f 45/53/30 43/54/30 42/55/30 44/56/30 
f 41/57/31 45/58/31 44/59/31 38/60/31 
f 46/61/14 47/62/14 48/63/14 49/64/14 
f 47/65/8 50/66/8 51/67/8 48/68/8 
f 46/69/23 52/70/23 50/71/23 47/72/23 
f 48/73/24 51/74/24 53/75/24 49/76/24 
f 53/77/17 51/78/17 50/79/17 52/80/17 
f 49/81/10 53/82/10 52/83/10 46/84/10 
# 34 polygons

