# 3ds Max Wavefront OBJ Exporter v0.97b - (c)2007 guruware
# File Created: 14.10.2011 06:23:18

mtllib speed_loader.mtl

#
# object Cylinder01
#

v  0.4885 1.2289 0.0394
v  -0.3458 1.2289 1.4844
v  -0.3458 0.2210 1.4844
v  0.4885 0.2210 0.0394
v  -2.0143 1.2289 1.4844
v  -2.0143 0.2210 1.4844
v  -2.8486 1.2289 0.0394
v  -2.8486 0.2210 0.0394
v  -2.0143 1.2289 -1.4056
v  -2.0143 0.2210 -1.4056
v  -0.3458 1.2289 -1.4056
v  -0.3458 0.2210 -1.4056
v  -0.9279 1.2289 -0.0031
v  -1.3768 1.2289 -0.2623
v  -1.3768 2.3870 -0.2623
v  -0.9279 2.3870 -0.0031
v  -1.3768 2.3822 0.2561
v  -1.3768 2.3870 0.0066
v  -1.3768 1.6576 0.2561
v  -1.3768 1.2289 0.2561
v  -0.9542 2.3870 0.0121
v  -0.7494 2.4026 -0.8095
v  -2.1566 2.3866 0.0146
v  -2.1567 2.9104 0.0246
v  -0.7495 2.9264 -0.7996
v  -0.7391 2.3717 0.8210
v  -0.7392 2.8954 0.8309
# 27 vertices

vn 1.0000 0.0000 -0.0000
vn 0.5000 0.0000 0.8660
vn -0.5000 0.0000 0.8660
vn -1.0000 0.0000 -0.0000
vn -0.5000 0.0000 -0.8660
vn 0.5000 0.0000 -0.8660
vn 0.0000 -1.0000 -0.0000
vn -0.5044 0.0000 0.8635
vn -1.0000 0.0000 0.0000
vn -0.5000 -0.0000 0.8660
vn 0.0000 1.0000 -0.0000
vn -0.0000 1.0000 -0.0000
vn -0.0000 1.0000 0.0000
vn 0.0000 1.0000 0.0000
vn 0.4945 0.0166 -0.8690
vn -1.0000 -0.0004 0.0063
vn 0.5055 -0.0163 0.8627
vn -0.0002 0.9998 0.0190
vn 0.0002 -0.9998 -0.0190
# 19 vertex normals

vt 0.6528 0.5391 0.0000
vt 0.6532 0.2239 0.0000
vt 0.8727 0.2239 0.0000
vt 0.8730 0.5384 0.0000
vt 0.6525 0.8512 0.0000
vt 0.8720 0.8512 0.0000
vt 0.0131 0.5976 0.0000
vt 0.0131 0.2343 0.0000
vt 0.3277 0.0526 0.0000
vt 0.6424 0.5976 0.0000
vt 0.6424 0.2343 0.0000
vt 0.3277 0.7792 0.0000
vt 0.9732 0.5249 0.0000
vt 0.8755 0.5249 0.0000
vt 0.8752 0.2728 0.0000
vt 0.9726 0.2736 0.0000
vt 0.3749 0.3743 0.0000
vt 0.3185 0.4721 0.0000
vt 0.2621 0.3743 0.0000
vt 0.9925 0.5283 0.0000
vt 0.9934 0.8354 0.0000
vt 0.8759 0.8361 0.0000
vt 0.8749 0.5284 0.0000
vt 0.0101 0.6378 0.0000
vt 0.3187 0.8134 0.0000
vt 0.0123 0.9928 0.0000
vt 0.1477 0.8697 0.0000
vt 0.1477 0.7635 0.0000
vt 0.1006 0.8426 0.0000
# 29 texture coords

g Cylinder01
usemtl Material__38
s 8
f 1/1/1 2/2/2 3/3/2 4/4/1 
f 2/5/2 5/1/3 6/4/3 3/6/2 
f 5/5/3 7/1/4 8/4/4 6/6/3 
f 7/1/4 9/2/5 10/3/5 8/4/4 
f 9/5/5 11/1/6 12/4/6 10/6/5 
f 11/5/6 1/1/1 4/4/1 12/6/6 
s 1
f 3/7/7 6/8/7 8/9/7 12/10/7 
f 8/9/7 10/11/7 12/10/7 
f 4/12/7 3/7/7 12/10/7 
s 8
f 13/13/1 14/14/5 15/15/5 16/16/1 
f 17/15/8 18/16/9 15/16/5 19/14/10 
f 20/14/3 19/14/10 15/16/5 14/13/5 
f 16/15/1 21/15/2 17/16/8 19/13/10 
f 16/15/1 19/13/10 20/13/3 13/14/1 
s 1
f 20/17/11 7/9/12 5/11/13 2/10/14 
f 13/18/14 20/17/11 2/10/14 1/12/11 
f 1/12/11 11/7/11 9/8/14 13/18/14 
f 14/19/13 13/18/14 9/8/14 7/9/12 
f 20/17/11 14/19/13 7/9/12 
s 8
f 22/20/15 23/21/16 24/22/16 25/23/15 
f 23/20/16 26/21/17 27/22/17 24/23/16 
f 26/20/17 22/21/15 25/22/15 27/23/17 
s 1
f 25/24/18 24/25/18 27/26/18 
s 2
f 17/27/19 21/28/19 22/24/19 26/25/19 
f 17/27/19 26/25/19 23/26/19 18/29/19 
f 18/29/19 23/26/19 22/24/19 21/28/19 
# 22 polygons - 4 triangles

