# 3ds Max Wavefront OBJ Exporter v0.97b - (c)2007 guruware
# File Created: 26.05.2011 23:54:25

mtllib technical_manual.mtl

#
# object tmanual
#

v  -0.0751 -0.1582 -0.0195
v  0.0901 -0.1582 -0.0195
v  -0.0751 -0.1582 0.0155
v  0.0901 -0.1582 0.0155
v  0.0901 0.1686 -0.0195
v  0.0901 0.1686 0.0155
v  -0.0751 0.1686 -0.0195
v  -0.0751 0.1686 0.0155
# 8 vertices

vn 0.0000 -1.0000 -0.0000
vn 1.0000 0.0000 -0.0000
vn 0.0000 1.0000 -0.0000
vn -1.0000 0.0000 -0.0000
vn 0.0000 0.0000 -1.0000
vn 0.0000 0.0000 1.0000
# 6 vertex normals

vt 0.1320 0.7064 0.0000
vt 0.1320 0.9705 0.0000
vt 0.0269 0.7064 0.0000
vt 0.0269 0.9705 0.0000
vt 0.2996 0.0233 0.0000
vt 0.2996 0.9737 0.0000
vt 0.1646 0.0233 0.0000
vt 0.1646 0.9737 0.0000
vt 0.0272 0.5981 0.0000
vt 0.0272 0.3340 0.0000
vt 0.1323 0.5981 0.0000
vt 0.1323 0.3340 0.0000
vt 0.1647 0.9737 0.0000
vt 0.1647 0.0233 0.0000
vt 0.2997 0.9737 0.0000
vt 0.2997 0.0233 0.0000
vt 0.9780 0.0233 0.0000
vt 0.9164 0.9737 0.0000
vt 0.9164 0.0233 0.0000
vt 0.9780 0.9737 0.0000
vt 0.3273 0.0233 0.0000
vt 0.9783 0.0233 0.0000
vt 0.9783 0.9737 0.0000
vt 0.3273 0.9737 0.0000
# 24 texture coords

g tmanual
usemtl Material__27
s 1
f 1/1/1 2/2/1 3/3/1 
f 3/3/1 2/2/1 4/4/1 
f 2/5/2 5/6/2 4/7/2 
f 4/7/2 5/6/2 6/8/2 
f 5/9/3 7/10/3 6/11/3 
f 6/11/3 7/10/3 8/12/3 
f 7/13/4 1/14/4 8/15/4 
f 8/15/4 1/14/4 3/16/4 
s 2
f 1/17/5 5/18/5 2/19/5 
f 5/18/5 1/17/5 7/20/5 
f 3/21/6 4/22/6 6/23/6 
f 6/23/6 8/24/6 3/21/6 
# 0 polygons - 12 triangles

