# 3ds Max Wavefront OBJ Exporter v0.97b - (c)2007 guruware
# File Created: 21.06.2011 19:48:09

mtllib 762ammo.mtl

#
# object Cube
#

v  -0.8207 -0.4798 1.4759
v  -0.8183 -0.4798 -1.4773
v  0.8207 -0.4798 -1.4759
v  0.8183 -0.4798 1.4773
v  -0.8207 0.4798 1.4759
v  0.8183 0.4798 1.4773
v  0.8207 0.4798 -1.4759
v  -0.8183 0.4798 -1.4773
# 8 vertices

vn 0.0000 -1.0000 -0.0000
vn 0.0000 1.0000 -0.0000
vn -1.0000 0.0000 -0.0008
vn 0.0008 -0.0000 -1.0000
vn 1.0000 -0.0000 0.0008
vn -0.0008 0.0000 1.0000
# 6 vertex normals

vt 0.7218 0.4292 0.0000
vt 0.0183 0.4261 0.0000
vt 0.0199 0.0067 0.0000
vt 0.7235 0.0098 0.0000
vt 0.0133 0.9945 0.0000
vt 0.0122 0.5238 0.0000
vt 0.9893 0.5220 0.0000
vt 0.9905 0.9927 0.0000
vt 0.0195 0.4216 0.0000
vt 0.0195 0.0065 0.0000
vt 0.7306 0.0065 0.0000
vt 0.7306 0.4216 0.0000
vt 0.9866 0.5190 0.0000
vt 0.9899 0.9850 0.0000
vt 0.0241 0.9919 0.0000
vt 0.0208 0.5258 0.0000
vt 0.0085 0.4376 0.0000
vt 0.0085 0.0129 0.0000
vt 0.7290 0.0129 0.0000
vt 0.7290 0.4376 0.0000
vt 0.0257 0.9922 0.0000
vt 0.0213 0.5135 0.0000
vt 0.9871 0.5046 0.0000
vt 0.9915 0.9834 0.0000
# 24 texture coords

g Cube
usemtl Material__25
s off
f 1/1/1 2/2/1 3/3/1 4/4/1 
f 5/5/2 6/6/2 7/7/2 8/8/2 
f 1/9/3 5/10/3 8/11/3 2/12/3 
f 2/13/4 8/14/4 7/15/4 3/16/4 
f 3/17/5 7/18/5 6/19/5 4/20/5 
f 5/21/6 1/22/6 4/23/6 6/24/6 
# 6 polygons

