# 3ds Max Wavefront OBJ Exporter v0.97b - (c)2007 guruware
# File Created: 08.07.2011 12:09:50

mtllib motor.mtl

#
# object Box06
#

v  -0.1651 5.5174 17.0178
v  -0.2907 5.3701 -14.1303
v  -8.5644 20.2452 -14.1673
v  -8.4389 20.3925 16.9809
v  -3.8046 3.5120 17.0420
v  -12.0784 18.3871 17.0050
v  -12.2040 18.2398 -14.1431
v  -3.9302 3.3648 -14.1061
v  14.0378 22.6420 -28.1507
v  -3.4408 20.8529 -28.2209
v  0.4137 33.7362 -28.2550
v  12.2490 40.1206 -28.2280
v  15.8266 5.1634 -28.0735
v  2.9435 9.0176 -28.1457
v  31.5165 24.4311 -28.0805
v  27.6620 11.5478 -28.0464
v  25.1322 36.2664 -28.1557
v  -3.6745 36.9798 -20.1253
v  11.5960 45.2174 -20.0904
v  -8.6478 20.3572 -20.0814
v  -0.4105 5.0867 -19.9843
v  16.2121 0.1138 -19.8911
v  31.4826 8.3513 -19.8562
v  36.4559 24.9740 -19.9002
v  28.2186 40.2444 -19.9972
v  -3.6700 37.1655 22.3231
v  11.6005 45.4031 22.3580
v  -8.6433 20.5429 22.3671
v  -0.4060 5.2725 22.4641
v  16.2165 0.2995 22.5574
v  31.4871 8.5371 22.5922
v  36.4603 25.1597 22.5483
v  28.2231 40.4301 22.4513
v  1.1903 33.1254 30.8930
v  12.1237 39.0234 30.9180
v  -2.3705 21.2238 30.9245
v  3.5273 10.2904 30.9939
v  15.4288 6.7298 31.0607
v  26.3623 12.6278 31.0857
v  29.9230 24.5294 31.0542
v  24.0253 35.4628 30.9847
v  13.7763 22.8766 30.9893
v  -1.6577 22.7225 -13.8995
v  -1.1737 19.3697 -13.7727
v  1.8412 19.8043 -13.7869
v  1.3572 23.1571 -13.9137
v  -1.7353 22.5841 -34.6135
v  1.2796 23.0187 -34.6277
v  1.7635 19.6659 -34.5009
v  -1.2514 19.2313 -34.4867
v  14.5353 23.0592 -26.5162
v  10.8669 13.8859 -26.3794
v  20.6463 15.2957 -26.4255
v  24.3147 24.4690 -26.5623
v  8.4244 30.8228 -26.6068
v  4.7560 21.6495 -26.4701
v  18.2037 32.2325 -26.6529
v  20.6334 15.2301 -31.1722
v  24.3017 24.4034 -31.3089
v  10.8540 13.8203 -31.1261
v  4.7431 21.5839 -31.2168
v  8.4114 30.7572 -31.3535
v  18.1908 32.1669 -31.3996
v  14.5224 22.9936 -31.2629
v  16.6962 10.6867 -13.9166
v  13.3399 10.2209 -13.8175
v  13.7590 7.2038 -13.8049
v  17.1153 7.6696 -13.9040
v  16.7512 10.6080 -34.6310
v  17.1703 7.5909 -34.6184
v  13.8140 7.1251 -34.5193
v  13.3949 10.1422 -34.5319
v  13.1311 25.2219 47.0035
v  13.6138 21.8695 46.8641
v  16.6287 22.3041 46.8499
v  16.1461 25.6565 46.9893
v  12.7996 24.3890 -48.8116
v  15.8145 24.8236 -48.8258
v  16.2971 21.4712 -48.9652
v  13.2822 21.0365 -48.9510
v  25.9090 25.6259 -14.0244
v  26.3929 22.2722 -13.9271
v  29.4078 22.7068 -13.9413
v  28.9239 26.0605 -14.0386
v  25.8055 25.6664 -34.7387
v  28.8205 26.1010 -34.7529
v  29.3044 22.7473 -34.6557
v  26.2895 22.3127 -34.6414
v  13.9346 38.2680 -14.0359
v  10.5793 37.8025 -13.9073
v  10.9984 34.7854 -13.8947
v  14.3537 35.2509 -14.0233
v  13.8106 38.1644 -34.7499
v  14.2297 35.1473 -34.7373
v  10.8744 34.6818 -34.6087
v  10.4553 37.6989 -34.6212
# 96 vertices

vn 0.8739 0.4861 -0.0058
vn -0.8739 -0.4861 0.0058
vn 0.0040 0.0047 1.0000
vn -0.4826 0.8758 -0.0022
vn -0.0040 -0.0047 -1.0000
vn 0.4826 -0.8758 0.0022
vn 0.0044 -0.0040 -1.0000
vn -0.0814 0.8417 -0.5337
vn -0.6515 0.5327 -0.5402
vn -0.7482 0.6078 -0.2661
vn -0.0986 0.9596 -0.2636
vn -0.8367 -0.0880 -0.5406
vn -0.9592 -0.0993 -0.2647
vn -0.5297 -0.6584 -0.5348
vn -0.6093 -0.7490 -0.2601
vn 0.0913 -0.8455 -0.5261
vn 0.0980 -0.9619 -0.2551
vn 0.6636 -0.5382 -0.5196
vn 0.7496 -0.6118 -0.2525
vn 0.8505 0.0847 -0.5192
vn 0.9623 0.0974 -0.2539
vn 0.5413 0.6568 -0.5250
vn 0.6103 0.7488 -0.2585
vn -0.7414 0.6050 0.2902
vn -0.0972 0.9514 0.2923
vn -0.9516 -0.0961 0.2918
vn -0.6037 -0.7401 0.2962
vn 0.0972 -0.9488 0.3007
vn 0.7397 -0.6010 0.3027
vn 0.9485 0.0984 0.3011
vn 0.6024 0.7410 0.2967
vn -0.6250 0.5071 0.5935
vn -0.0861 0.7963 0.5987
vn -0.8010 -0.0793 0.5934
vn -0.5098 -0.6179 0.5986
vn 0.0764 -0.7919 0.6059
vn 0.6129 -0.5009 0.6111
vn 0.7871 0.0833 0.6111
vn 0.4983 0.6201 0.6060
vn -0.0044 0.0040 1.0000
vn -0.0007 0.0377 0.9993
vn 0.0007 -0.0377 -0.9993
vn -0.1427 0.9897 -0.0061
vn 0.9898 0.1427 -0.0047
vn 0.1427 -0.9897 0.0061
vn -0.9898 -0.1427 0.0047
vn 0.0027 0.0138 0.9999
vn 0.6185 -0.7857 0.0092
vn -0.3713 -0.9284 0.0138
vn -0.6185 0.7857 -0.0092
vn 0.3713 0.9284 -0.0138
vn -0.0027 -0.0138 -0.9999
vn 0.0284 0.0081 0.9996
vn -0.0284 -0.0081 -0.9996
vn 0.9905 0.1376 0.0021
vn 0.1376 -0.9905 0.0041
vn -0.9905 -0.1376 -0.0021
vn -0.1376 0.9905 -0.0041
vn 0.0105 -0.0400 0.9991
vn -0.0105 0.0400 -0.9991
vn -0.1427 0.9897 -0.0081
vn 0.1427 -0.9897 0.0081
vn 0.0005 0.0291 0.9996
vn -0.0005 -0.0291 -0.9996
vn -0.1427 0.9898 0.0026
vn 0.1427 -0.9898 -0.0026
vn 0.0370 0.0093 0.9993
vn -0.0370 -0.0093 -0.9993
vn 0.9905 0.1376 -0.0066
vn -0.9905 -0.1376 0.0066
# 70 vertex normals

vt 0.1173 0.7877 0.0000
vt 0.1173 0.9840 0.0000
vt 0.0100 0.9840 0.0000
vt 0.0100 0.7877 0.0000
vt -0.7899 1.5723 0.0000
vt -0.8971 1.5723 0.0000
vt -0.8971 1.3761 0.0000
vt -0.7899 1.3761 0.0000
vt -0.6503 1.4582 0.0000
vt -0.6507 1.5655 0.0000
vt -0.6769 1.5655 0.0000
vt -0.6765 1.4582 0.0000
vt -0.7428 1.3715 0.0000
vt -0.7428 1.5678 0.0000
vt -0.7690 1.5678 0.0000
vt -0.7690 1.3715 0.0000
vt -0.6024 1.4512 0.0000
vt -0.6019 1.5585 0.0000
vt -0.6281 1.5585 0.0000
vt -0.6285 1.4512 0.0000
vt -0.6960 1.3769 0.0000
vt -0.6960 1.5731 0.0000
vt -0.7221 1.5731 0.0000
vt -0.7221 1.3769 0.0000
vt 0.2434 0.1899 0.0000
vt 0.1512 0.0942 0.0000
vt 0.2458 0.0570 0.0000
vt 0.3390 0.0977 0.0000
vt 0.1477 0.2821 0.0000
vt 0.1105 0.1874 0.0000
vt 0.3356 0.2855 0.0000
vt 0.2409 0.3227 0.0000
vt 0.3762 0.1923 0.0000
vt -0.9987 0.9859 0.0000
vt -0.9996 0.8985 0.0000
vt -0.9148 0.8849 0.0000
vt -0.9136 0.9977 0.0000
vt -0.3868 0.5178 0.0000
vt -0.3834 0.6024 0.0000
vt -0.4426 0.6173 0.0000
vt -0.4469 0.5080 0.0000
vt -0.9993 0.7911 0.0000
vt -0.9989 0.7064 0.0000
vt -0.9138 0.6948 0.0000
vt -0.9143 0.8041 0.0000
vt -0.3991 0.5158 0.0000
vt -0.4000 0.6005 0.0000
vt -0.4596 0.6117 0.0000
vt -0.4585 0.5024 0.0000
vt -1.0005 0.5955 0.0000
vt -1.0009 0.5108 0.0000
vt -0.9148 0.4992 0.0000
vt -0.9144 0.6085 0.0000
vt 0.8103 0.5429 0.0000
vt 0.8086 0.4722 0.0000
vt 0.8645 0.4611 0.0000
vt 0.8667 0.5523 0.0000
vt -1.0033 0.5996 0.0000
vt -1.0025 0.5107 0.0000
vt -0.9155 0.4981 0.0000
vt -0.9166 0.6129 0.0000
vt -0.3972 0.5173 0.0000
vt -0.3973 0.6020 0.0000
vt -0.4566 0.6148 0.0000
vt -0.4564 0.5055 0.0000
vt -0.4717 0.8829 0.0000
vt -0.4704 0.9956 0.0000
vt -0.9152 0.8045 0.0000
vt -0.4721 0.8024 0.0000
vt -0.4693 0.6951 0.0000
vt -0.4699 0.8044 0.0000
vt -0.9124 0.6168 0.0000
vt -0.4680 0.6171 0.0000
vt -0.4676 0.4974 0.0000
vt -0.4672 0.6067 0.0000
vt -0.9156 0.4212 0.0000
vt -0.4684 0.4194 0.0000
vt -0.4658 0.5003 0.0000
vt -0.4669 0.6150 0.0000
vt -0.9157 0.4162 0.0000
vt -0.4660 0.4184 0.0000
vt -0.3822 0.8973 0.0000
vt -0.3814 0.9781 0.0000
vt 0.9685 0.4670 0.0000
vt 0.9721 0.5581 0.0000
vt 0.9097 0.5472 0.0000
vt 0.9070 0.4820 0.0000
vt -0.3796 0.7107 0.0000
vt -0.3800 0.7890 0.0000
vt 0.9777 0.6091 0.0000
vt 0.9798 0.7002 0.0000
vt 0.9174 0.6879 0.0000
vt 0.9159 0.6227 0.0000
vt -0.3779 0.5130 0.0000
vt -0.3776 0.5913 0.0000
vt -0.4521 0.6116 0.0000
vt -0.4536 0.5023 0.0000
vt -0.3875 0.5172 0.0000
vt -0.3865 0.5955 0.0000
vt -0.3760 0.5163 0.0000
vt -0.3768 0.5985 0.0000
vt -0.4519 0.6202 0.0000
vt -0.4564 0.5109 0.0000
vt -0.3830 0.5235 0.0000
vt -0.3798 0.6017 0.0000
vt 0.2446 0.1904 0.0000
vt 0.3304 0.2880 0.0000
vt 0.2363 0.3200 0.0000
vt 0.1471 0.2762 0.0000
vt 0.1150 0.1821 0.0000
vt 0.1589 0.0929 0.0000
vt 0.2530 0.0608 0.0000
vt 0.3422 0.1046 0.0000
vt 0.3743 0.1987 0.0000
vt 0.9612 0.4140 0.0000
vt 0.9625 0.3927 0.0000
vt 0.9816 0.3939 0.0000
vt 0.9803 0.4152 0.0000
vt 0.9017 0.3897 0.0000
vt 0.9006 0.4089 0.0000
vt 0.8793 0.4077 0.0000
vt 0.8803 0.3885 0.0000
vt 0.8432 0.8289 0.0000
vt 0.8603 0.8289 0.0000
vt 0.8602 0.9377 0.0000
vt 0.8431 0.9377 0.0000
vt 0.9332 0.7125 0.0000
vt 0.9522 0.7119 0.0000
vt 0.9524 0.8207 0.0000
vt 0.9334 0.8213 0.0000
vt 0.8258 0.9252 0.0000
vt 0.8087 0.9252 0.0000
vt 0.8086 0.8164 0.0000
vt 0.8257 0.8164 0.0000
vt 0.8621 0.6811 0.0000
vt 0.8431 0.6806 0.0000
vt 0.8434 0.5717 0.0000
vt 0.8624 0.5723 0.0000
vt 0.5579 0.2049 0.0000
vt 0.5577 0.1426 0.0000
vt 0.6117 0.1736 0.0000
vt 0.6118 0.2359 0.0000
vt 0.5040 0.2361 0.0000
vt 0.5039 0.1739 0.0000
vt 0.5580 0.2671 0.0000
vt 0.7060 1.8353 0.0000
vt 0.7055 1.7872 0.0000
vt 0.7354 1.7871 0.0000
vt 0.7359 1.8352 0.0000
vt 0.7055 1.7289 0.0000
vt 0.7354 1.7288 0.0000
vt 0.7380 1.9651 0.0000
vt 0.6765 1.9646 0.0000
vt 0.6768 1.9347 0.0000
vt 0.7382 1.9352 0.0000
vt 0.7944 1.7959 0.0000
vt 0.7939 1.8441 0.0000
vt 0.7640 1.8440 0.0000
vt 0.7645 1.7958 0.0000
vt 0.7939 1.9023 0.0000
vt 0.7640 1.9022 0.0000
vt 0.6823 1.8690 0.0000
vt 0.7437 1.8685 0.0000
vt 0.7439 1.8984 0.0000
vt 0.6825 1.8989 0.0000
vt 0.5555 1.2041 0.0000
vt 0.6101 1.2340 0.0000
vt 0.5569 1.2663 0.0000
vt 0.5023 1.2364 0.0000
vt 0.5009 1.1742 0.0000
vt 0.5542 1.1418 0.0000
vt 0.6088 1.1717 0.0000
vt 0.9243 0.9579 0.0000
vt 0.9231 0.9739 0.0000
vt 0.9035 0.9731 0.0000
vt 0.9048 0.9571 0.0000
vt 0.9309 0.4139 0.0000
vt 0.9321 0.3948 0.0000
vt 0.9534 0.3960 0.0000
vt 0.9522 0.4152 0.0000
vt 0.8431 0.7006 0.0000
vt 0.8602 0.7006 0.0000
vt 0.8605 0.8094 0.0000
vt 0.8434 0.8094 0.0000
vt 0.8276 0.6806 0.0000
vt 0.8086 0.6810 0.0000
vt 0.8094 0.5722 0.0000
vt 0.8284 0.5717 0.0000
vt 0.9016 0.6806 0.0000
vt 0.8845 0.6806 0.0000
vt 0.8848 0.5717 0.0000
vt 0.9019 0.5717 0.0000
vt 0.9179 0.8289 0.0000
vt 0.9369 0.8294 0.0000
vt 0.9377 0.9382 0.0000
vt 0.9187 0.9378 0.0000
vt 0.9246 0.5879 0.0000
vt 0.9260 0.5719 0.0000
vt 0.9455 0.5728 0.0000
vt 0.9442 0.5888 0.0000
vt 0.8528 0.4218 0.0000
vt 0.8517 0.4410 0.0000
vt 0.8304 0.4398 0.0000
vt 0.8315 0.4206 0.0000
vt 0.7768 0.3571 0.0000
vt 0.7938 0.3571 0.0000
vt 0.7930 0.8605 0.0000
vt 0.7760 0.8605 0.0000
vt 0.6567 0.3571 0.0000
vt 0.6757 0.3579 0.0000
vt 0.6778 0.8613 0.0000
vt 0.6589 0.8605 0.0000
vt 0.7612 0.8605 0.0000
vt 0.7441 0.8605 0.0000
vt 0.7433 0.3571 0.0000
vt 0.7604 0.3571 0.0000
vt 0.7190 0.8605 0.0000
vt 0.7000 0.8613 0.0000
vt 0.7022 0.3579 0.0000
vt 0.7211 0.3571 0.0000
vt 0.9535 0.5879 0.0000
vt 0.9548 0.5719 0.0000
vt 0.9744 0.5728 0.0000
vt 0.9730 0.5888 0.0000
vt 0.8956 0.9580 0.0000
vt 0.8945 0.9723 0.0000
vt 0.8728 0.9715 0.0000
vt 0.8738 0.9571 0.0000
vt 0.7433 0.8734 0.0000
vt 0.7604 0.8734 0.0000
vt 0.7607 0.9823 0.0000
vt 0.7436 0.9823 0.0000
vt 0.6575 0.8812 0.0000
vt 0.6765 0.8807 0.0000
vt 0.6757 0.9896 0.0000
vt 0.6567 0.9900 0.0000
vt 0.7930 0.9823 0.0000
vt 0.7760 0.9823 0.0000
vt 0.7763 0.8734 0.0000
vt 0.7933 0.8734 0.0000
vt 0.7198 0.9900 0.0000
vt 0.7008 0.9896 0.0000
vt 0.7000 0.8807 0.0000
vt 0.7190 0.8812 0.0000
vt 0.8311 0.9694 0.0000
vt 0.8299 0.9853 0.0000
vt 0.8103 0.9845 0.0000
vt 0.8116 0.9685 0.0000
vt 0.8586 0.9854 0.0000
vt 0.8391 0.9845 0.0000
vt 0.8404 0.9685 0.0000
vt 0.8599 0.9694 0.0000
vt 0.8846 0.7000 0.0000
vt 0.9016 0.7000 0.0000
vt 0.9016 0.8088 0.0000
vt 0.8845 0.8088 0.0000
vt 0.8278 0.8028 0.0000
vt 0.8089 0.8034 0.0000
vt 0.8086 0.6946 0.0000
vt 0.8276 0.6940 0.0000
vt 0.9016 0.9371 0.0000
vt 0.8846 0.9371 0.0000
vt 0.8845 0.8283 0.0000
vt 0.9016 0.8283 0.0000
vt 0.9527 0.8289 0.0000
vt 0.9716 0.8295 0.0000
vt 0.9714 0.9384 0.0000
vt 0.9525 0.9378 0.0000
# 268 texture coords

g Box06
usemtl Material__38
s 2
f 1/1/1 2/2/1 3/3/1 4/4/1 
s 4
f 5/5/2 6/6/2 7/7/2 8/8/2 
s 8
f 1/9/3 4/10/3 6/11/3 5/12/3 
s 16
f 4/13/4 3/14/4 7/15/4 6/16/4 
s 32
f 3/17/5 2/18/5 8/19/5 7/20/5 
s 64
f 2/21/6 1/22/6 5/23/6 8/24/6 
s 1
f 9/25/7 10/26/7 11/27/7 12/28/7 
f 9/25/7 13/29/7 14/30/7 10/26/7 
f 9/25/7 15/31/7 16/32/7 13/29/7 
f 9/25/7 12/28/7 17/33/7 15/31/7 
s 8
f 12/34/8 11/35/9 18/36/10 19/37/11 
f 11/38/9 10/39/12 20/40/13 18/41/10 
f 10/42/12 14/43/14 21/44/15 20/45/13 
f 14/46/14 13/47/16 22/48/17 21/49/15 
f 13/50/16 16/51/18 23/52/19 22/53/17 
f 16/54/18 15/55/20 24/56/21 23/57/19 
f 15/58/20 17/59/22 25/60/23 24/61/21 
f 17/62/22 12/63/8 19/64/11 25/65/23 
f 19/37/11 18/36/10 26/66/24 27/67/25 
f 18/36/10 20/68/13 28/69/26 26/66/24 
f 20/45/13 21/44/15 29/70/27 28/71/26 
f 21/44/15 22/72/17 30/73/28 29/70/27 
f 22/53/17 23/52/19 31/74/29 30/75/28 
f 23/52/19 24/76/21 32/77/30 31/74/29 
f 24/61/21 25/60/23 33/78/31 32/79/30 
f 25/60/23 19/80/11 27/81/25 33/78/31 
f 27/67/25 26/66/24 34/82/32 35/83/33 
f 26/84/24 28/85/26 36/86/34 34/87/32 
f 28/71/26 29/70/27 37/88/35 36/89/34 
f 29/90/27 30/91/28 38/92/36 37/93/35 
f 30/75/28 31/74/29 39/94/37 38/95/36 
f 31/96/29 32/97/30 40/98/38 39/99/37 
f 32/79/30 33/78/31 41/100/39 40/101/38 
f 33/102/31 27/103/25 35/104/33 41/105/39 
s 1
f 42/106/40 41/107/40 35/108/40 34/109/40 
f 42/106/40 34/109/40 36/110/40 37/111/40 
f 42/106/40 37/111/40 38/112/40 39/113/40 
f 42/106/40 39/113/40 40/114/40 41/107/40 
s 2
f 43/115/41 44/116/41 45/117/41 46/118/41 
s 4
f 47/119/42 48/120/42 49/121/42 50/122/42 
s 8
f 43/123/43 46/124/43 48/125/43 47/126/43 
s 16
f 46/127/44 45/128/44 49/129/44 48/130/44 
s 32
f 45/131/45 44/132/45 50/133/45 49/134/45 
s 64
f 44/135/46 43/136/46 47/137/46 50/138/46 
s 1
f 51/139/47 52/140/47 53/141/47 54/142/47 
f 51/139/47 55/143/47 56/144/47 52/140/47 
f 51/139/47 54/142/47 57/145/47 55/143/47 
s 8
f 54/146/44 53/147/48 58/148/48 59/149/44 
f 53/147/48 52/150/49 60/151/49 58/148/48 
f 52/152/49 56/153/46 61/154/46 60/155/49 
f 56/156/46 55/157/50 62/158/50 61/159/46 
f 55/157/50 57/160/51 63/161/51 62/158/50 
f 57/162/51 54/163/44 59/164/44 63/165/51 
s 1
f 64/166/52 63/167/52 59/168/52 58/169/52 
f 64/166/52 58/169/52 60/170/52 61/171/52 
f 64/166/52 61/171/52 62/172/52 63/167/52 
s 2
f 65/173/53 66/174/53 67/175/53 68/176/53 
s 4
f 69/177/54 70/178/54 71/179/54 72/180/54 
s 8
f 65/181/55 68/182/55 70/183/55 69/184/55 
s 16
f 68/185/56 67/186/56 71/187/56 70/188/56 
s 32
f 67/189/57 66/190/57 72/191/57 71/192/57 
s 64
f 66/193/58 65/194/58 69/195/58 72/196/58 
s 2
f 73/197/59 74/198/59 75/199/59 76/200/59 
s 4
f 77/201/60 78/202/60 79/203/60 80/204/60 
s 8
f 73/205/61 76/206/61 78/207/61 77/208/61 
s 16
f 76/209/44 75/210/44 79/211/44 78/212/44 
s 32
f 75/213/62 74/214/62 80/215/62 79/216/62 
s 64
f 74/217/46 73/218/46 77/219/46 80/220/46 
s 2
f 81/221/63 82/222/63 83/223/63 84/224/63 
s 4
f 85/225/64 86/226/64 87/227/64 88/228/64 
s 8
f 81/229/65 84/230/65 86/231/65 85/232/65 
s 16
f 84/233/44 83/234/44 87/235/44 86/236/44 
s 32
f 83/237/66 82/238/66 88/239/66 87/240/66 
s 64
f 82/241/46 81/242/46 85/243/46 88/244/46 
s 2
f 89/245/67 90/246/67 91/247/67 92/248/67 
s 4
f 93/249/68 94/250/68 95/251/68 96/252/68 
s 8
f 89/253/69 92/254/69 94/255/69 93/256/69 
s 16
f 92/257/56 91/258/56 95/259/56 94/260/56 
s 32
f 91/261/70 90/262/70 96/263/70 95/264/70 
s 64
f 90/265/58 89/266/58 93/267/58 96/268/58 
# 80 polygons

