# 3ds Max Wavefront OBJ Exporter v0.97b - (c)2007 guruware
# File Created: 21.07.2011 12:07:34

mtllib hexogen.mtl

#
# object Circle_001
#

v  -6.5101 0.1764 -1.9849
v  -7.1870 0.2061 0.9859
v  -7.1564 42.1923 0.5726
v  -6.4795 42.1626 -2.3982
v  -4.6833 0.1510 -4.4235
v  -4.6527 42.1372 -4.8369
v  -2.0224 0.1345 -5.9083
v  -1.9919 42.1207 -6.3216
v  1.0123 0.1296 -6.1825
v  1.0429 42.1157 -6.5959
v  3.8962 0.1372 -5.1988
v  3.9268 42.1233 -5.6121
v  6.1306 0.1559 -3.1271
v  6.1612 42.1421 -3.5404
v  7.3293 0.1826 -0.3258
v  7.3599 42.1688 -0.7391
v  7.2848 0.2127 2.7209
v  7.3154 42.1988 2.3075
v  6.0049 0.2408 5.4860
v  6.0355 42.2270 5.0726
v  3.7110 0.2622 7.4915
v  3.7416 42.2484 7.0782
v  0.7996 0.2732 8.3907
v  0.8302 42.2594 7.9773
v  -2.2258 0.2718 8.0280
v  -2.1953 42.2580 7.6146
v  -4.8422 0.2584 6.4661
v  -4.8116 42.2445 6.0528
v  -6.5971 0.2351 3.9752
v  -6.5665 42.2213 3.5619
v  0.1401 0.2018 1.0929
v  0.1706 42.1880 0.6796
# 32 vertices

vn -0.9750 -0.0015 -0.2222
vn -0.8004 -0.0053 -0.5995
vn -0.4873 -0.0082 -0.8732
vn -0.0900 -0.0097 -0.9959
vn 0.3229 -0.0096 -0.9464
vn 0.6799 -0.0077 -0.7333
vn 0.9194 -0.0045 -0.3933
vn 0.9999 -0.0006 0.0146
vn 0.9075 0.0035 0.4200
vn 0.6582 0.0069 0.7528
vn 0.2951 0.0092 0.9554
vn -0.1190 0.0099 0.9928
vn -0.5126 0.0088 0.8586
vn -0.8175 0.0063 0.5759
vn -0.9811 0.0026 0.1936
vn -0.0007 -1.0000 0.0098
vn 0.0007 1.0000 -0.0098
# 17 vertex normals

vt 0.0023 0.2196 0.0000
vt 0.0020 0.1060 0.0000
vt 0.9998 0.1041 0.0000
vt 1.0002 0.2184 0.0000
vt 0.0016 0.3337 0.0000
vt 0.9992 0.3323 0.0000
vt 0.0012 0.4861 0.0000
vt 0.0016 0.3348 0.0000
vt 1.0002 0.3355 0.0000
vt 1.0063 0.4833 0.0000
vt 0.0000 0.6598 0.0000
vt 1.0018 0.4855 0.0000
vt 1.0040 0.6592 0.0000
vt 0.0004 0.8259 0.0000
vt 1.0028 0.6626 0.0000
vt 1.0011 0.8243 0.0000
vt 0.0029 0.9309 0.0000
vt 0.0016 0.8225 0.0000
vt 0.9988 0.8276 0.0000
vt 1.0046 0.9281 0.0000
vt 0.0017 1.0015 0.0000
vt 0.0017 0.9297 0.0000
vt 0.9990 0.9270 0.0000
vt 1.0001 1.0021 0.0000
vt -0.9976 1.2208 0.0000
vt -1.0016 1.1000 0.0000
vt -0.0014 1.1027 0.0000
vt -0.0027 1.2192 0.0000
vt -0.9963 1.3109 0.0000
vt -0.9965 1.2208 0.0000
vt -0.0006 1.2213 0.0000
vt -0.0004 1.3041 0.0000
vt -0.9956 1.4163 0.0000
vt -0.9974 1.3109 0.0000
vt -0.0014 1.3051 0.0000
vt -0.0007 1.4179 0.0000
vt -0.9947 1.5622 0.0000
vt -0.9935 1.4163 0.0000
vt -0.0039 1.4200 0.0000
vt -0.0019 1.5744 0.0000
vt -0.9976 1.7158 0.0000
vt -0.9979 1.5633 0.0000
vt -0.0027 1.7301 0.0000
vt -0.9976 1.8583 0.0000
vt -0.9976 1.7169 0.0000
vt -0.0027 1.7343 0.0000
vt -0.0016 1.8705 0.0000
vt -0.9945 1.9430 0.0000
vt -0.9997 1.8594 0.0000
vt -0.0006 1.8705 0.0000
vt -0.0017 1.9636 0.0000
vt -0.9965 1.9979 0.0000
vt -0.9945 1.9452 0.0000
vt -0.0017 1.9647 0.0000
vt -0.0006 2.0006 0.0000
vt 1.7687 0.5274 0.0000
vt 1.7577 0.4839 0.0000
vt 1.8749 0.4755 0.0000
vt 1.7980 0.5619 0.0000
vt 1.8407 0.5814 0.0000
vt 1.8892 0.5827 0.0000
vt 1.9353 0.5654 0.0000
vt 1.9709 0.5326 0.0000
vt 1.9900 0.4899 0.0000
vt 1.9891 0.4447 0.0000
vt 1.9685 0.4048 0.0000
vt 1.9318 0.3772 0.0000
vt 1.8851 0.3666 0.0000
vt 1.8368 0.3748 0.0000
vt 1.7950 0.4004 0.0000
vt 1.7670 0.4390 0.0000
vt 1.7599 1.5195 0.0000
vt 1.7488 1.4711 0.0000
vt 1.8720 1.4739 0.0000
vt 1.7904 1.5600 0.0000
vt 1.8350 1.5857 0.0000
vt 1.8860 1.5920 0.0000
vt 1.9346 1.5779 0.0000
vt 1.9723 1.5459 0.0000
vt 1.9928 1.5014 0.0000
vt 1.9923 1.4521 0.0000
vt 1.9711 1.4066 0.0000
vt 1.9327 1.3728 0.0000
vt 1.8838 1.3565 0.0000
vt 1.8329 1.3604 0.0000
vt 1.7887 1.3840 0.0000
vt 1.7590 1.4232 0.0000
# 87 texture coords

g Circle_001
usemtl Material__25
s off
f 1/1/1 2/2/1 3/3/1 4/4/1 
f 5/5/2 1/1/2 4/4/2 6/6/2 
f 7/7/3 5/8/3 6/9/3 8/10/3 
f 9/11/4 7/7/4 8/12/4 10/13/4 
f 11/14/5 9/11/5 10/15/5 12/16/5 
f 13/17/6 11/18/6 12/19/6 14/20/6 
f 15/21/7 13/22/7 14/23/7 16/24/7 
f 17/25/8 15/26/8 16/27/8 18/28/8 
f 19/29/9 17/30/9 18/31/9 20/32/9 
f 21/33/10 19/34/10 20/35/10 22/36/10 
f 23/37/11 21/38/11 22/39/11 24/40/11 
f 25/41/12 23/42/12 24/40/12 26/43/12 
f 27/44/13 25/45/13 26/46/13 28/47/13 
f 29/48/14 27/49/14 28/50/14 30/51/14 
f 2/52/15 29/53/15 30/54/15 3/55/15 
f 29/56/16 2/57/16 31/58/16 
f 27/59/16 29/56/16 31/58/16 
f 25/60/16 27/59/16 31/58/16 
f 23/61/16 25/60/16 31/58/16 
f 21/62/16 23/61/16 31/58/16 
f 19/63/16 21/62/16 31/58/16 
f 17/64/16 19/63/16 31/58/16 
f 15/65/16 17/64/16 31/58/16 
f 13/66/16 15/65/16 31/58/16 
f 11/67/16 13/66/16 31/58/16 
f 9/68/16 11/67/16 31/58/16 
f 7/69/16 9/68/16 31/58/16 
f 5/70/16 7/69/16 31/58/16 
f 1/71/16 5/70/16 31/58/16 
f 2/57/16 1/71/16 31/58/16 
f 4/72/17 3/73/17 32/74/17 
f 6/75/17 4/72/17 32/74/17 
f 8/76/17 6/75/17 32/74/17 
f 10/77/17 8/76/17 32/74/17 
f 12/78/17 10/77/17 32/74/17 
f 14/79/17 12/78/17 32/74/17 
f 16/80/17 14/79/17 32/74/17 
f 18/81/17 16/80/17 32/74/17 
f 20/82/17 18/81/17 32/74/17 
f 22/83/17 20/82/17 32/74/17 
f 24/84/17 22/83/17 32/74/17 
f 26/85/17 24/84/17 32/74/17 
f 28/86/17 26/85/17 32/74/17 
f 30/87/17 28/86/17 32/74/17 
f 3/73/17 30/87/17 32/74/17 
# 15 polygons - 30 triangles

