# 3ds Max Wavefront OBJ Exporter v0.97b - (c)2007 guruware
# File Created: 26.05.2011 23:18:05

mtllib docbag.mtl

#
# object Box02
#

v  -8.3070 20.7956 25.1953
v  -11.4763 20.5244 25.8235
v  -10.8277 20.7956 21.6892
v  -8.1643 20.7956 21.6398
v  -9.3285 35.8551 7.3384
v  -8.6163 35.3745 11.0189
v  -4.7231 35.8665 10.9588
v  -4.6072 35.3745 9.1400
v  1.5462 20.5244 25.9301
v  0.8615 20.7956 21.5019
v  0.9632 28.6126 25.9254
v  -2.9628 20.7956 7.8214
v  -7.6658 20.7956 7.8665
v  -10.8962 28.6126 7.3255
v  1.1148 28.6126 7.4239
v  -11.3248 20.5244 7.3220
v  -10.7489 20.7956 12.0587
v  -11.0477 28.6126 25.8270
v  -0.0111 35.8551 7.4147
v  -0.9948 35.3745 10.8965
v  -9.4800 35.8551 25.8398
v  -8.7154 35.3745 23.1178
v  -0.1626 35.8551 25.9161
v  -5.2558 35.3745 24.6395
v  -7.8270 20.7956 12.0518
v  1.6977 20.5244 7.4287
v  0.9390 20.7956 12.0409
v  -2.7988 20.7956 12.0492
v  -2.4711 20.7956 21.5627
v  -2.3164 20.7956 25.2444
v  -5.1593 35.8665 22.9453
v  -1.0918 35.3745 22.7431
v  -4.4398 38.5442 18.8511
v  -4.4071 38.5442 14.8562
v  -4.6280 37.9742 15.4777
v  -4.6261 37.9598 18.2889
v  -4.6274 35.6027 18.4373
v  -4.4448 35.6029 19.4674
v  -4.4025 35.6029 14.2967
v  -4.6272 35.6171 15.3712
v  -5.2243 38.5442 18.8447
v  -5.1916 38.5442 14.8498
v  -5.4126 37.9742 15.4712
v  -5.4107 37.9598 18.2825
v  -5.4119 35.6027 18.4309
v  -5.2294 35.6029 19.4610
v  -5.1870 35.6029 14.2902
v  -5.4117 35.6171 15.3648
# 48 vertices

vn 0.0255 -0.9995 -0.0184
vn 0.0746 -0.9958 -0.0536
vn 0.0177 -0.9998 -0.0127
vn -0.0000 -1.0000 -0.0000
vn -0.0274 0.9991 0.0318
vn -0.1249 0.9892 0.0772
vn 0.0489 0.9954 -0.0827
vn 0.1183 0.9779 -0.1724
vn 0.9864 0.0710 -0.1482
vn 0.9988 0.0134 -0.0466
vn 0.9990 0.0117 -0.0437
vn -0.0293 -0.0421 -0.9987
vn 0.0518 -0.0476 -0.9975
vn 0.0424 -0.0464 -0.9980
vn -0.0230 -0.0388 -0.9990
vn -0.9917 0.0525 0.1176
vn -0.9994 0.0021 0.0345
vn -0.9994 0.0028 0.0357
vn 0.1953 -0.0108 0.9807
vn 0.0751 -0.0541 0.9957
vn 0.0415 -0.0660 0.9970
vn 0.9463 0.1475 0.2877
vn 0.1159 0.1555 -0.9810
vn -0.3459 -0.0550 -0.9367
vn -0.9329 0.2025 -0.2978
vn -0.0082 0.0000 1.0000
vn -0.0081 0.1797 0.9837
vn 0.0001 -0.9996 0.0295
vn 0.0079 -0.9999 0.0088
vn 0.0445 -0.9987 0.0244
vn 0.0375 -0.9993 0.0014
vn -0.0312 -0.9991 0.0282
vn 0.0001 -0.9995 0.0309
vn -0.0075 -0.9999 0.0077
vn -0.0291 -0.9996 0.0011
vn -0.0158 -0.9998 -0.0134
vn 0.0000 -1.0000 -0.0000
vn -0.0608 -0.9968 -0.0516
vn -0.0192 -0.9997 -0.0163
vn -0.0496 0.9984 -0.0276
vn -0.0526 0.9942 0.0943
vn 0.0681 0.9856 -0.1549
vn -0.1029 0.9762 0.1910
vn 0.0342 0.9980 -0.0536
vn 0.1160 0.9889 -0.0928
vn 0.0532 0.9985 0.0139
vn -0.0585 0.9910 0.1203
vn -0.9982 0.0035 -0.0597
vn -0.9986 -0.0000 -0.0531
vn -0.9871 0.0524 -0.1514
vn -0.0730 -0.0561 0.9958
vn -0.0566 -0.0630 0.9964
vn -0.1756 -0.0121 0.9844
vn -0.9463 0.3233 -0.0077
vn -0.9553 0.2064 0.2118
vn 0.9981 0.0128 0.0597
vn 0.9849 0.0711 0.1578
vn 0.9981 0.0128 0.0596
vn 0.9432 0.1462 -0.2984
vn 0.9557 0.2941 0.0078
vn -0.0844 -0.0067 -0.9964
vn 0.1477 -0.0074 -0.9890
vn -0.9497 0.3133 0.0001
vn -0.9351 0.3542 -0.0077
vn -0.9366 0.3503 -0.0069
vn -0.9533 0.3019 0.0022
vn -0.9762 0.0321 0.2144
vn -0.9691 0.0298 -0.2449
# 68 vertex normals

vt 0.9804 0.7673 0.0000
vt 0.9881 0.8482 0.0000
vt 0.8913 0.8336 0.0000
vt 0.8897 0.7648 0.0000
vt 0.0124 0.5231 0.0000
vt 0.1238 0.5371 0.0000
vt 0.1210 0.6636 0.0000
vt 0.0659 0.6666 0.0000
vt 0.0168 0.0027 0.0000
vt 0.1500 0.0118 0.0000
vt 0.0168 0.2546 0.0000
vt 0.7461 0.0137 0.0000
vt 0.8886 0.0137 0.0000
vt 0.9960 0.2720 0.0000
vt 0.6184 0.2677 0.0000
vt 0.0185 0.0046 0.0000
vt 0.1610 0.0136 0.0000
vt 0.0185 0.2565 0.0000
vt 0.6053 0.0098 0.0000
vt 0.7012 0.0189 0.0000
vt 0.6140 0.2729 0.0000
vt 0.5843 0.2546 0.0000
vt 0.5885 0.4800 0.0000
vt 0.4717 0.4706 0.0000
vt 0.9587 0.4838 0.0000
vt 0.7967 0.4824 0.0000
vt 0.6619 0.4844 0.0000
vt 0.5859 0.2565 0.0000
vt 0.5902 0.4819 0.0000
vt 0.4718 0.4702 0.0000
vt 0.9917 0.2772 0.0000
vt 0.9611 0.4817 0.0000
vt 0.7953 0.4823 0.0000
vt 0.6636 0.4830 0.0000
vt 0.6833 0.8336 0.0000
vt 0.6781 0.7591 0.0000
vt 0.5822 0.8482 0.0000
vt 0.5858 0.7563 0.0000
vt 0.5744 0.5376 0.0000
vt 0.6797 0.5557 0.0000
vt 0.6772 0.6482 0.0000
vt 0.5839 0.6526 0.0000
vt 0.8850 0.5579 0.0000
vt 0.8870 0.6392 0.0000
vt 0.9982 0.5487 0.0000
vt 0.9804 0.6352 0.0000
vt 0.4903 0.5379 0.0000
vt 0.4842 0.6533 0.0000
vt 0.5875 0.5187 0.0000
vt 0.5494 0.6495 0.0000
vt 0.5730 0.8054 0.0000
vt 0.4762 0.7816 0.0000
vt 0.1182 0.7825 0.0000
vt 0.0124 0.8054 0.0000
vt 0.4536 0.0111 0.0000
vt 0.5893 0.0080 0.0000
vt 0.8827 0.0189 0.0000
vt 0.9990 0.0115 0.0000
vt 0.1298 0.4725 0.0000
vt 0.0176 0.4930 0.0000
vt 0.4375 0.0092 0.0000
vt 0.5877 0.0061 0.0000
vt 0.1273 0.4715 0.0000
vt 0.0160 0.4912 0.0000
vt 0.6050 0.0047 0.0000
vt 0.9987 0.0064 0.0000
vt 0.3588 0.9762 0.0000
vt 0.1510 0.9743 0.0000
vt 0.1841 0.9422 0.0000
vt 0.3220 0.9429 0.0000
vt 0.3229 0.8512 0.0000
vt 0.3602 0.8521 0.0000
vt 0.1478 0.8508 0.0000
vt 0.1803 0.8500 0.0000
vt 0.3599 0.9758 0.0000
vt 0.1521 0.9738 0.0000
vt 0.1852 0.9429 0.0000
vt 0.3231 0.9434 0.0000
vt 0.3241 0.8477 0.0000
vt 0.3613 0.8467 0.0000
vt 0.1489 0.8451 0.0000
vt 0.1815 0.8466 0.0000
# 82 texture coords

g Box02
usemtl wire_088199225
s 2
f 1/1/1 2/2/2 3/3/3 4/4/4 
s 4
f 5/5/5 6/6/6 7/7/7 8/8/8 
s 8
f 9/9/9 10/10/10 11/11/11 
s 16
f 12/12/12 13/13/13 14/14/14 15/15/15 
s 32
f 16/16/16 17/17/17 14/18/18 
s 64
f 2/19/19 1/20/20 18/21/21 
s off
f 15/22/22 19/23/22 20/24/22 
f 15/15/23 14/14/23 5/25/23 8/26/23 
f 15/15/24 8/26/24 19/27/24 
f 18/28/25 21/29/25 22/30/25 
f 18/21/26 11/31/26 11/31/26 23/32/26 
f 18/21/27 23/32/27 24/33/27 21/34/27 
s 2
f 17/35/28 25/36/29 4/4/4 3/3/3 
f 16/37/30 13/38/31 25/36/29 17/35/28 
f 26/39/32 27/40/33 28/41/34 12/42/35 
f 27/40/33 10/43/36 29/44/37 28/41/34 
f 10/43/36 9/45/38 30/46/39 29/44/37 
f 1/1/1 4/4/4 29/44/37 30/46/39 
f 29/44/37 4/4/4 25/36/29 28/41/34 
f 25/36/29 13/38/31 12/42/35 28/41/34 
s 4
f 6/6/6 22/47/40 31/48/41 7/7/7 
f 22/47/40 21/49/42 24/50/43 31/48/41 
f 23/51/44 32/52/45 31/48/41 24/50/43 
f 32/52/45 20/53/46 7/7/7 31/48/41 
f 20/53/46 19/54/47 8/8/8 7/7/7 
s 32
f 3/55/48 18/28/49 14/18/18 17/17/17 
f 3/55/48 2/56/50 18/28/49 
s 64
f 30/57/51 11/31/52 18/21/21 1/20/20 
f 30/57/51 9/58/53 11/31/52 
s off
f 6/59/54 14/18/54 18/28/54 22/30/54 
f 6/59/55 5/60/55 14/18/55 
s 8
f 27/61/56 26/62/57 15/22/58 
s off
f 32/63/59 23/64/59 11/11/59 
f 32/63/60 11/11/60 11/11/60 15/22/60 
f 20/24/60 32/63/60 15/22/60 
s 8
f 10/10/10 27/61/56 15/22/58 11/11/11 
s 16
f 15/15/15 26/65/61 12/12/12 
f 13/13/13 16/66/62 14/14/14 
s 4
f 33/67/63 34/68/64 35/69/65 36/70/66 
s off
f 33/67/67 36/70/67 37/71/67 38/72/67 
f 35/69/68 34/68/68 39/73/68 40/74/68 
s 4
f 41/75/63 42/76/64 43/77/65 44/78/66 
s off
f 41/75/67 44/78/67 45/79/67 46/80/67 
f 43/77/68 42/76/68 47/81/68 48/82/68 
# 30 polygons - 14 triangles

