# 3ds Max Wavefront OBJ Exporter v0.97b - (c)2007 guruware
# File Created: 07.11.2011 21:59:52

mtllib taperecorder.mtl

#
# object Box03
#

v  57.4649 59.2500 -31.7922
v  53.1511 67.6017 -27.8534
v  53.1511 67.6017 35.8123
v  57.4648 59.2500 39.7512
v  -46.9885 59.2500 -31.7922
v  -46.9885 59.2500 39.7512
v  -42.6747 67.6017 35.8123
v  -42.6747 67.6017 -27.8534
v  -46.7933 11.9945 -34.3152
v  -46.7933 61.4410 -34.3152
v  58.2726 61.4410 -34.3152
v  58.2726 11.9945 -34.3152
v  -46.7934 11.9945 40.2236
v  -45.4142 11.9945 40.2236
v  -41.6012 18.5626 40.2236
v  -46.7934 61.4410 40.2236
v  58.2725 61.4410 40.2236
v  58.2725 11.9945 40.2236
v  -46.7934 15.7195 33.4701
v  -46.7934 11.9945 34.5083
v  -46.5822 99.0466 -81.4870
v  -46.5822 106.1236 -73.9591
v  58.0296 106.1236 -73.9591
v  58.0296 99.0466 -81.4870
v  -46.5822 54.5440 -41.0404
v  58.0296 54.5440 -41.0404
v  58.0296 61.6210 -33.5125
v  -46.5822 61.6209 -33.5125
v  -46.7934 11.9945 37.5938
v  -40.7255 11.9945 40.2236
v  -37.2728 11.9945 38.2066
v  -41.4984 18.6067 40.2236
v  -41.1181 11.9945 30.2923
v  -41.2376 11.9945 30.2663
v  -42.1142 63.6612 32.2331
v  -42.1142 63.6612 -24.2718
v  6.4994 63.6612 -24.2718
v  6.4994 63.6612 32.2331
v  -40.5011 69.5652 29.4419
v  4.8863 69.5652 29.4419
v  4.8863 69.5652 -21.4806
v  -40.5011 69.5652 -21.4806
v  3.1176 69.6180 5.0428
v  -2.9241 69.6180 -9.5433
v  -2.9241 73.3080 -9.5433
v  3.1176 73.3080 5.0428
v  -17.5103 69.6180 -15.5851
v  -17.5103 73.3080 -15.5851
v  -32.0964 69.6179 -9.5433
v  -32.0964 73.3080 -9.5433
v  -38.1382 69.6179 5.0428
v  -38.1382 73.3080 5.0428
v  -32.0964 69.6180 19.6290
v  -32.0964 73.3080 19.6290
v  -17.5103 69.6180 25.6708
v  -17.5103 73.3080 25.6708
v  -2.9241 69.6180 19.6290
v  -2.9241 73.3080 19.6290
v  47.8379 65.6848 5.0428
v  41.7962 65.6848 -9.5433
v  41.7962 69.3748 -9.5433
v  47.8379 69.3748 5.0428
v  27.2100 65.6848 -15.5851
v  27.2100 69.3748 -15.5851
v  12.6238 65.6848 -9.5433
v  12.6238 69.3748 -9.5433
v  6.5821 65.6848 5.0428
v  6.5821 69.3748 5.0428
v  12.6238 65.6848 19.6290
v  12.6238 69.3748 19.6290
v  27.2100 65.6848 25.6708
v  27.2100 69.3748 25.6708
v  41.7961 65.6848 19.6290
v  41.7961 69.3748 19.6290
v  58.5809 -0.6179 37.9248
v  55.4573 0.7460 42.7174
v  48.9683 11.9945 38.1801
v  52.9408 11.9945 30.3276
v  59.1357 4.7402 44.6680
v  57.1642 11.9945 40.2236
v  53.2884 18.5262 40.2236
v  62.2593 3.3764 39.8754
v  52.4755 11.9945 40.2236
v  58.5433 11.9945 34.5083
v  58.5434 15.9960 33.2958
v  58.5434 11.9945 37.5938
v  -46.8309 -0.6179 37.9248
v  -41.1908 11.9945 30.3276
v  -37.2183 11.9945 38.1801
v  -43.7073 0.7460 42.7174
v  -47.3857 4.7402 44.6680
v  -41.5384 18.5261 40.2236
v  -50.5093 3.3764 39.8754
v  -46.7934 15.9960 33.2958
v  58.5809 -0.6179 -31.8858
v  52.9408 11.9945 -24.2886
v  48.9683 11.9945 -32.1411
v  55.4573 0.7460 -36.6785
v  59.1357 4.7402 -38.6290
v  53.2884 18.5261 -34.1846
v  57.1642 11.9945 -34.1846
v  62.2593 3.3764 -33.8364
v  52.4755 11.9945 -34.1846
v  58.5434 15.9960 -27.2568
v  58.5434 11.9945 -28.4693
v  58.5434 11.9945 -31.5548
v  -46.8309 -0.6179 -31.8858
v  -43.7073 0.7460 -36.6785
v  -37.2183 11.9945 -32.1411
v  -41.1908 11.9945 -24.2886
v  -47.3857 4.7402 -38.6290
v  -45.4142 11.9945 -34.1846
v  -41.5384 18.5261 -34.1846
v  -50.5093 3.3764 -33.8364
v  -40.7255 11.9945 -34.1846
v  -46.7933 11.9945 -28.4693
v  -46.7934 15.9960 -27.2568
v  -46.7933 11.9945 -31.5548
v  17.7507 69.6382 35.0023
v  17.7507 62.8542 35.0023
v  17.7507 62.8542 22.9997
v  17.7507 69.6382 22.9997
v  2.6170 69.6382 35.0023
v  2.6170 69.6382 22.9997
v  2.6170 62.8542 22.9997
v  2.6170 62.8542 35.0023
# 126 vertices

vn 0.8885 0.4589 0.0000
vn -0.8885 0.4589 -0.0000
vn 0.0000 -1.0000 0.0000
vn -0.0000 0.4266 0.9045
vn -0.0000 1.0000 -0.0000
vn 0.0000 0.4266 -0.9045
vn 0.0000 -0.0000 -1.0000
vn -0.0000 0.0000 1.0000
vn 1.0000 -0.0000 0.0000
vn 1.0000 0.0000 0.0000
vn -0.0000 1.0000 0.0000
vn -1.0000 0.0000 0.0000
vn -1.0000 0.0000 -0.0000
vn -1.0000 -0.0000 -0.0000
vn 0.0000 0.7286 -0.6850
vn -0.0000 -0.7286 0.6850
vn 0.0000 -0.6726 -0.7400
vn 1.0000 -0.0000 -0.0000
vn -0.0000 0.6726 0.7400
vn 0.0000 -1.0000 -0.0000
vn -0.0000 -1.0000 -0.0000
vn -0.0000 -1.0000 0.0000
vn -0.0000 0.4274 0.9041
vn 0.9646 0.2635 0.0000
vn 0.0000 0.4274 -0.9041
vn -0.9646 0.2635 -0.0000
vn -0.9646 0.2635 0.0000
vn 0.9239 0.0000 -0.3827
vn 1.0000 0.0000 -0.0000
vn 0.3827 -0.0000 -0.9239
vn 0.3827 0.0000 -0.9239
vn -0.3827 -0.0000 -0.9239
vn -0.9239 -0.0000 -0.3827
vn -0.9239 -0.0000 0.3827
vn -0.3827 0.0000 0.9239
vn 0.0000 0.0000 1.0000
vn 0.3827 0.0000 0.9239
vn 0.9239 0.0000 0.3827
vn -1.0000 -0.0000 0.0000
vn -0.7496 -0.5643 -0.3459
vn -0.7540 -0.5680 -0.3298
vn -0.7441 -0.5597 -0.3647
vn -0.7410 -0.5572 -0.3749
vn 0.7968 0.4580 0.3942
vn 0.7880 0.4598 0.4095
vn 0.7838 0.4651 0.4115
vn 0.4881 -0.7025 0.5180
vn -0.5129 0.0540 0.8567
vn -0.5052 0.0599 0.8609
vn -0.5026 0.0580 0.8626
vn 0.5788 -0.2365 -0.7805
vn 0.5849 -0.2243 -0.7795
vn 0.7992 0.4567 0.3909
vn 0.7906 0.4506 0.4146
vn 0.7889 0.4507 0.4177
vn 0.7878 0.4508 0.4197
vn -0.5056 0.0629 0.8604
vn 0.5847 -0.2105 -0.7835
vn 0.6217 -0.2031 -0.7565
vn 0.7496 -0.5643 -0.3459
vn 0.7410 -0.5572 -0.3749
vn 0.7441 -0.5597 -0.3647
vn 0.7540 -0.5680 -0.3298
vn -0.7968 0.4580 0.3942
vn -0.7838 0.4651 0.4115
vn -0.7880 0.4598 0.4095
vn -0.4881 -0.7025 0.5180
vn 0.5026 0.0580 0.8626
vn 0.5052 0.0599 0.8609
vn 0.5129 0.0540 0.8567
vn -0.5788 -0.2365 -0.7805
vn -0.5849 -0.2243 -0.7795
vn -0.7889 0.4507 0.4177
vn -0.7906 0.4506 0.4146
vn -0.7992 0.4567 0.3909
vn -0.7878 0.4508 0.4197
vn 0.5056 0.0629 0.8604
vn -0.6217 -0.2031 -0.7565
vn -0.5847 -0.2105 -0.7835
vn -0.7496 -0.5643 0.3459
vn -0.7410 -0.5572 0.3749
vn -0.7441 -0.5597 0.3647
vn -0.7540 -0.5680 0.3298
vn 0.7968 0.4580 -0.3942
vn 0.7838 0.4651 -0.4115
vn 0.7880 0.4598 -0.4095
vn 0.4881 -0.7025 -0.5180
vn -0.5026 0.0580 -0.8626
vn -0.5052 0.0599 -0.8609
vn -0.5129 0.0540 -0.8567
vn 0.5788 -0.2365 0.7805
vn 0.5849 -0.2243 0.7795
vn 0.7889 0.4507 -0.4177
vn 0.7906 0.4506 -0.4146
vn 0.7992 0.4567 -0.3909
vn 0.7878 0.4508 -0.4197
vn -0.5056 0.0629 -0.8604
vn 0.6217 -0.2031 0.7565
vn 0.5847 -0.2105 0.7835
vn 0.7496 -0.5643 0.3459
vn 0.7540 -0.5680 0.3298
vn 0.7441 -0.5597 0.3647
vn 0.7410 -0.5572 0.3749
vn -0.7968 0.4580 -0.3942
vn -0.7880 0.4598 -0.4095
vn -0.7838 0.4651 -0.4115
vn -0.4881 -0.7025 -0.5180
vn 0.5129 0.0540 -0.8567
vn 0.5052 0.0599 -0.8609
vn 0.5026 0.0580 -0.8626
vn -0.5788 -0.2365 0.7805
vn -0.5849 -0.2243 0.7795
vn -0.7992 0.4567 -0.3909
vn -0.7906 0.4506 -0.4146
vn -0.7889 0.4507 -0.4177
vn -0.7878 0.4508 -0.4197
vn 0.5056 0.0629 -0.8604
vn -0.5847 -0.2105 0.7835
vn -0.6217 -0.2031 0.7565
# 119 vertex normals

vt 1.5462 0.7946 0.0000
vt 1.5237 0.8151 0.0000
vt 1.3145 0.6795 0.0000
vt 1.3108 0.6394 0.0000
vt 1.1506 0.7443 0.0000
vt 1.3116 0.6477 0.0000
vt 1.3139 0.6801 0.0000
vt 1.1659 0.7671 0.0000
vt 0.5132 0.3669 0.0000
vt 0.2618 0.3669 0.0000
vt 0.2618 0.0000 0.0000
vt 0.5132 0.0000 0.0000
vt 1.5469 0.7945 0.0000
vt 1.5230 0.8143 0.0000
vt 1.3149 0.6797 0.0000
vt 1.3123 0.6402 0.0000
vt 0.7639 0.2377 0.0000
vt 0.6627 0.2377 0.0000
vt 0.6627 0.0018 0.0000
vt 0.7639 0.0018 0.0000
vt 1.3130 0.6795 0.0000
vt 1.3113 0.6410 0.0000
vt 1.5475 0.7946 0.0000
vt 1.5240 0.8149 0.0000
vt 1.5655 0.7380 0.0000
vt 1.5750 0.5211 0.0000
vt 1.9723 0.5229 0.0000
vt 1.9710 0.7371 0.0000
vt 1.5736 0.5167 0.0000
vt 1.5760 0.5183 0.0000
vt 1.5639 0.5277 0.0000
vt 1.5656 0.7378 0.0000
vt 1.2933 1.5314 0.0000
vt 1.2961 1.6474 0.0000
vt 1.1483 1.7390 0.0000
vt 1.1534 1.6363 0.0000
vt 1.6640 1.0950 0.0000
vt 1.6640 1.0324 0.0000
vt 1.7460 1.0324 0.0000
vt 1.7460 1.0950 0.0000
vt 1.2701 1.5489 0.0000
vt 1.1485 1.7392 0.0000
vt 1.1543 1.6344 0.0000
vt 1.2737 1.5358 0.0000
vt 0.6036 0.5468 0.0000
vt 0.6267 0.5468 0.0000
vt 0.6267 0.6586 0.0000
vt 0.6036 0.6586 0.0000
vt 0.8990 0.0000 0.0000
vt 0.8990 0.3675 0.0000
vt 0.8725 0.3675 0.0000
vt 0.8725 0.0000 0.0000
vt 0.9705 0.5484 0.0000
vt 0.9705 0.6994 0.0000
vt 0.9178 0.6994 0.0000
vt 0.9178 0.5484 0.0000
vt 0.6083 0.5473 0.0000
vt 0.6309 0.5468 0.0000
vt 0.6321 0.6545 0.0000
vt 0.6095 0.6550 0.0000
vt 1.2684 0.4966 0.0000
vt 1.0021 0.4074 0.0000
vt 1.1410 0.2209 0.0000
vt 1.3841 0.3632 0.0000
vt 0.6302 0.6596 0.0000
vt 0.6100 0.6598 0.0000
vt 0.6067 0.5513 0.0000
vt 0.6269 0.5511 0.0000
vt 0.4903 0.3762 0.0000
vt 0.4855 0.3762 0.0000
vt 0.4855 0.3669 0.0000
vt 0.0000 0.7382 0.0000
vt 0.0000 0.3904 0.0000
vt 0.0071 0.4025 0.0000
vt 1.5641 0.5279 0.0000
vt 1.9711 0.7377 0.0000
vt 1.5842 0.5238 0.0000
vt 1.9722 0.5227 0.0000
vt 1.2938 1.5356 0.0000
vt 1.2954 1.6476 0.0000
vt 1.2845 1.5357 0.0000
vt 0.0349 0.3890 0.0000
vt 0.2618 0.7382 0.0000
vt 0.2618 0.3691 0.0000
vt 0.0350 0.3886 0.0000
vt 0.0201 0.3691 0.0000
vt 0.0512 0.0434 0.0000
vt 0.0512 0.0719 0.0000
vt 0.0094 0.0719 0.0000
vt 0.0094 0.0434 0.0000
vt 0.0485 0.0975 0.0000
vt 0.0094 0.0975 0.0000
vt 0.0485 0.0719 0.0000
vt 0.0563 0.0719 0.0000
vt 0.0563 0.0963 0.0000
vt 0.0512 0.0955 0.0000
vt 0.0512 0.0727 0.0000
vt 0.0614 0.0434 0.0000
vt 0.0614 0.0719 0.0000
vt 0.0563 0.0705 0.0000
vt 0.0563 0.0448 0.0000
vt 0.0614 0.0963 0.0000
vt 0.0563 0.0955 0.0000
vt 0.0563 0.0727 0.0000
vt 0.0563 0.0434 0.0000
vt 0.0512 0.0705 0.0000
vt 0.0512 0.0448 0.0000
vt 0.9192 0.5789 0.0000
vt 0.9192 0.7387 0.0000
vt 0.8787 0.7387 0.0000
vt 0.8787 0.5789 0.0000
vt 0.9596 0.4192 0.0000
vt 0.9596 0.5789 0.0000
vt 0.9192 0.4192 0.0000
vt 0.9596 0.7387 0.0000
vt 0.8787 0.4192 0.0000
vt 0.8383 0.5789 0.0000
vt 0.8383 0.4192 0.0000
vt 0.8383 0.7387 0.0000
vt 1.0000 0.4192 0.0000
vt 1.0000 0.5789 0.0000
vt 1.0000 0.7387 0.0000
vt -0.5071 1.5288 0.0000
vt -0.5054 1.3558 0.0000
vt -0.3819 1.2348 0.0000
vt -0.2090 1.2365 0.0000
vt -0.0879 1.3599 0.0000
vt -0.0896 1.5329 0.0000
vt -0.2131 1.6539 0.0000
vt -0.3860 1.6522 0.0000
vt 0.8435 1.2311 0.0000
vt 0.7787 1.1661 0.0000
vt 0.7796 1.0750 0.0000
vt 0.8457 1.0112 0.0000
vt 0.9382 1.0121 0.0000
vt 1.0030 1.0772 0.0000
vt 1.0021 1.1682 0.0000
vt 0.9360 1.2320 0.0000
vt 0.9192 0.1598 0.0000
vt 0.9192 0.3195 0.0000
vt 0.8787 0.3195 0.0000
vt 0.8787 0.1598 0.0000
vt 0.9596 0.0000 0.0000
vt 0.9596 0.1598 0.0000
vt 0.9192 0.0000 0.0000
vt 0.9596 0.3195 0.0000
vt 0.8787 0.0000 0.0000
vt 0.8383 0.1598 0.0000
vt 0.8383 0.0000 0.0000
vt 0.8383 0.3195 0.0000
vt 1.0000 0.0000 0.0000
vt 1.0000 0.1598 0.0000
vt 1.0000 0.3195 0.0000
vt 0.0967 0.9869 0.0000
vt 0.0950 1.1598 0.0000
vt -0.0285 1.2809 0.0000
vt -0.2014 1.2792 0.0000
vt -0.3224 1.1557 0.0000
vt -0.3208 0.9828 0.0000
vt -0.1973 0.8617 0.0000
vt -0.0244 0.8634 0.0000
vt 0.5764 1.0175 0.0000
vt 0.6393 1.0817 0.0000
vt 0.6384 1.1715 0.0000
vt 0.5743 1.2344 0.0000
vt 0.4845 1.2335 0.0000
vt 0.4216 1.1694 0.0000
vt 0.4225 1.0796 0.0000
vt 0.4866 1.0167 0.0000
vt 0.9037 -0.4840 0.0000
vt 0.9011 -0.4846 0.0000
vt 0.9004 -0.4775 0.0000
vt 0.9040 -0.4753 0.0000
vt 0.9076 -0.4768 0.0000
vt 0.9087 -0.4817 0.0000
vt 0.9076 -0.4854 0.0000
vt 0.9071 -0.4754 0.0000
vt 0.9040 -0.4750 0.0000
vt 0.9040 -0.4715 0.0000
vt 0.9071 -0.4719 0.0000
vt 0.8975 -0.4737 0.0000
vt 0.9002 -0.4750 0.0000
vt 0.8985 -0.4805 0.0000
vt 0.8968 -0.4814 0.0000
vt 0.9144 -0.4840 0.0000
vt 0.9143 -0.4785 0.0000
vt 0.9151 -0.4763 0.0000
vt 0.9103 -0.4769 0.0000
vt 0.9100 -0.4822 0.0000
vt 0.9116 -0.4852 0.0000
vt 0.9004 -0.4839 0.0000
vt 0.9118 -0.4854 0.0000
vt 0.9116 -0.4772 0.0000
vt 0.9041 -0.4932 0.0000
vt 0.9040 -0.4845 0.0000
vt 0.9076 -0.4869 0.0000
vt 0.9066 -0.4940 0.0000
vt 0.9113 -0.4682 0.0000
vt 0.9115 -0.4768 0.0000
vt 0.9103 -0.4732 0.0000
vt 0.8964 -0.4703 0.0000
vt 0.8963 -0.4737 0.0000
vt 0.8932 -0.4740 0.0000
vt 0.8934 -0.4705 0.0000
vt 0.8964 -0.4840 0.0000
vt 0.8968 -0.4917 0.0000
vt 0.8952 -0.4907 0.0000
vt 0.8937 -0.4851 0.0000
vt 0.9125 -0.4750 0.0000
vt 0.9116 -0.4673 0.0000
vt 0.9124 -0.4694 0.0000
vt 0.9090 -0.4737 0.0000
vt 0.9086 -0.4684 0.0000
vt 0.8932 -0.4940 0.0000
vt 0.9152 -0.4763 0.0000
vt 0.9151 -0.4681 0.0000
vt 0.9039 -0.4665 0.0000
vt 0.9039 -0.4753 0.0000
vt 0.9004 -0.4729 0.0000
vt 0.9013 -0.4658 0.0000
vt 0.9118 -0.4940 0.0000
vt 0.9116 -0.4854 0.0000
vt 0.9127 -0.4891 0.0000
vt 0.8968 -0.4737 0.0000
vt 0.8969 -0.4702 0.0000
vt 0.9000 -0.4700 0.0000
vt 0.8999 -0.4735 0.0000
vt 0.8937 -0.4840 0.0000
vt 0.8932 -0.4763 0.0000
vt 0.8949 -0.4772 0.0000
vt 0.8964 -0.4828 0.0000
vt 0.9178 -0.4777 0.0000
vt 0.9187 -0.4854 0.0000
vt 0.9178 -0.4832 0.0000
vt 0.9141 -0.4885 0.0000
vt 0.9145 -0.4938 0.0000
vt 0.9155 -0.4854 0.0000
vt 0.8968 -0.4740 0.0000
vt 0.9151 -0.4764 0.0000
vt 0.9151 -0.4846 0.0000
vt 0.9007 -0.4853 0.0000
vt 0.9033 -0.4846 0.0000
vt 0.9040 -0.4918 0.0000
vt 0.9004 -0.4940 0.0000
vt 0.9116 -0.4940 0.0000
vt 0.9105 -0.4891 0.0000
vt 0.9115 -0.4854 0.0000
vt 0.9155 -0.4902 0.0000
vt 0.9185 -0.4905 0.0000
vt 0.9185 -0.4940 0.0000
vt 0.9155 -0.4937 0.0000
vt 0.8997 -0.4940 0.0000
vt 0.8970 -0.4927 0.0000
vt 0.8987 -0.4872 0.0000
vt 0.9004 -0.4863 0.0000
vt 0.9047 -0.4767 0.0000
vt 0.9048 -0.4823 0.0000
vt 0.9089 -0.4939 0.0000
vt 0.9091 -0.4886 0.0000
vt 0.9076 -0.4856 0.0000
vt 0.8968 -0.4839 0.0000
vt 0.9073 -0.4754 0.0000
vt 0.9076 -0.4835 0.0000
vt 0.1960 0.0500 0.0000
vt 0.1766 0.0500 0.0000
vt 0.1766 0.0267 0.0000
vt 0.1960 0.0267 0.0000
vt 0.1766 0.0732 0.0000
vt 0.1960 0.0732 0.0000
vt 0.1229 0.0560 0.0000
vt 0.1572 0.0560 0.0000
vt 0.1572 0.0853 0.0000
vt 0.1229 0.0853 0.0000
vt 0.1766 0.0560 0.0000
vt 0.1766 0.0853 0.0000
vt 1.0811 0.0288 0.0000
vt 1.3245 0.0288 0.0000
vt 1.3245 0.1397 0.0000
vt 1.0811 0.1397 0.0000
vt 0.1572 0.0267 0.0000
# 280 texture coords

g Box03
usemtl Material__87
s 2
f 1/1/1 2/2/1 3/3/1 4/4/1 
s 4
f 5/5/2 6/6/2 7/7/2 8/8/2 
s 8
f 1/9/3 4/10/3 6/11/3 
f 6/11/3 5/12/3 1/9/3 
s 16
f 4/13/4 3/14/4 7/15/4 
f 7/15/4 6/16/4 4/13/4 
s 32
f 3/17/5 2/18/5 8/19/5 
f 8/19/5 7/20/5 3/17/5 
s 64
f 2/21/6 1/22/6 5/23/6 
f 5/23/6 8/24/6 2/21/6 
s 2
f 9/25/7 10/26/7 11/27/7 12/28/7 
s 4
f 13/29/8 14/30/8 15/31/8 16/32/8 
s 16
f 12/33/9 11/34/9 17/35/10 
f 17/35/10 18/36/10 12/33/10 
s 32
f 11/37/11 10/38/11 16/39/11 
f 16/39/11 17/40/11 11/37/11 
s 64
f 19/41/12 10/42/13 9/43/13 
f 9/43/14 20/44/14 19/41/12 
s 2
f 21/45/15 22/46/15 23/47/15 24/48/15 
s 4
f 25/49/16 26/50/16 27/51/16 28/52/16 
s 8
f 21/53/17 24/54/17 26/55/17 
f 26/55/17 25/56/17 21/53/17 
s 16
f 24/57/18 23/58/18 27/59/18 
f 27/59/18 26/60/18 24/57/18 
s 32
f 23/61/19 22/62/19 28/63/19 
f 28/63/19 27/64/19 23/61/19 
s 64
f 22/65/12 21/66/12 25/67/12 
f 25/67/12 28/68/12 22/65/12 
s 8
f 14/69/20 13/70/20 29/71/20 
f 18/72/21 30/73/21 31/74/21 
s 4
f 32/75/8 17/76/8 16/32/8 15/31/8 
f 32/75/8 30/77/8 18/78/8 
f 18/78/8 17/76/8 32/75/8 
s 64
f 13/79/14 16/80/14 10/42/14 
f 10/42/12 19/41/12 13/79/12 
f 19/41/12 29/81/14 13/79/14 
s 8
f 18/72/22 31/74/21 33/82/3 
f 33/82/3 12/83/22 18/72/22 
f 9/84/22 12/83/22 33/82/3 
f 33/82/3 34/85/3 9/84/3 
f 34/85/3 20/86/3 9/84/3 
s 2
f 35/87/3 36/88/3 37/89/3 38/90/21 
s 4
f 39/91/5 40/92/5 41/89/5 42/93/5 
s 8
f 35/94/23 38/95/23 40/96/23 
f 40/96/23 39/97/23 35/94/23 
s 16
f 38/98/24 37/99/24 41/100/24 
f 41/100/24 40/101/24 38/98/24 
s 32
f 37/99/25 36/102/25 42/103/25 
f 42/103/25 41/104/25 37/99/25 
s 64
f 36/105/26 35/94/26 39/106/26 
f 39/106/27 42/107/27 36/105/27 
s 8
f 43/108/10 44/109/28 45/110/28 46/111/29 
f 44/112/30 47/113/7 48/108/7 
f 48/108/7 45/114/31 44/112/31 
f 47/113/7 49/115/32 50/109/32 48/108/7 
f 49/116/33 51/111/14 52/117/14 
f 52/117/14 50/118/33 49/116/33 
f 51/111/14 53/110/34 54/119/34 52/117/14 
f 53/120/35 55/121/36 56/113/36 
f 56/113/36 54/112/35 53/120/35 
f 55/121/36 57/122/37 58/115/37 56/113/36 
f 57/114/38 43/108/10 46/111/29 
f 46/111/29 58/116/38 57/114/38 
s 1
f 55/123/20 53/124/20 51/125/20 
f 51/125/20 49/126/20 47/127/20 
f 47/127/20 44/128/20 43/129/20 
f 51/125/20 47/127/20 43/129/20 
f 55/123/20 51/125/20 43/129/20 
f 57/130/20 55/123/20 43/129/20 
f 45/131/5 48/132/5 50/133/5 
f 50/133/5 52/134/5 54/135/5 
f 54/135/5 56/136/5 58/137/5 
f 50/133/5 54/135/5 58/137/5 
f 45/131/5 50/133/5 58/137/5 
f 46/138/5 45/131/5 58/137/5 
s 8
f 59/139/10 60/140/28 61/141/28 62/142/10 
f 60/143/30 63/144/7 64/139/7 
f 64/139/7 61/145/30 60/143/30 
f 63/144/7 65/146/32 66/140/32 64/139/7 
f 65/147/33 67/142/39 68/148/39 
f 68/148/39 66/149/33 65/147/33 
f 67/142/39 69/141/34 70/150/34 68/148/39 
f 69/151/35 71/152/8 72/144/8 
f 72/144/8 70/143/35 69/151/35 
f 71/152/8 73/153/37 74/146/37 72/144/8 
f 73/145/38 59/139/10 62/142/10 
f 62/142/10 74/147/38 73/145/38 
s 1
f 71/154/20 69/155/20 67/156/20 
f 67/156/20 65/157/20 63/158/20 
f 63/158/20 60/159/20 59/160/20 
f 67/156/20 63/158/20 59/160/20 
f 71/154/20 67/156/20 59/160/20 
f 73/161/20 71/154/20 59/160/20 
f 61/162/5 64/163/5 66/164/5 
f 66/164/5 68/165/5 70/166/5 
f 70/166/5 72/167/5 74/168/5 
f 66/164/5 70/166/5 74/168/5 
f 61/162/5 66/164/5 74/168/5 
f 62/169/5 61/162/5 74/168/5 
s 2
f 75/170/40 76/171/41 77/172/42 78/173/43 
s 4
f 79/174/44 80/175/45 81/176/46 
s 64
f 75/177/47 82/178/47 79/179/47 
f 79/179/47 76/180/47 75/177/47 
s 8
f 76/181/48 79/182/48 83/183/49 
f 83/183/49 77/184/50 76/181/50 
s 32
f 82/185/51 84/186/52 85/187/51 
s 4
f 80/175/45 79/174/44 82/188/53 
f 82/188/54 86/189/55 80/175/45 
f 86/189/55 82/188/56 85/190/56 
s 8
f 83/183/49 79/182/57 81/191/57 
s 32
f 75/192/58 78/193/58 84/186/52 
f 84/186/52 82/185/59 75/192/59 
s 2
f 87/194/60 88/195/61 89/196/62 90/197/63 
s 4
f 91/198/64 92/199/65 14/200/66 
s 64
f 87/201/67 90/202/67 91/203/67 
f 91/203/67 93/204/67 87/201/67 
s 8
f 90/205/68 89/206/68 30/207/69 
f 30/207/69 91/208/70 90/205/70 
s 32
f 93/209/71 94/210/71 20/211/72 
s 4
f 14/200/66 29/212/73 93/213/74 
f 93/213/75 91/198/64 14/200/66 
f 29/212/73 94/174/76 93/213/76 
s 8
f 30/207/69 92/214/77 91/208/77 
s 32
f 87/215/78 93/209/78 20/211/72 
f 20/211/72 88/216/79 87/215/79 
s 2
f 95/217/80 96/218/81 97/219/82 98/220/83 
s 4
f 99/221/84 100/222/85 101/223/86 
s 64
f 95/224/87 98/225/87 99/226/87 
f 99/226/87 102/227/87 95/224/87 
s 8
f 98/228/88 97/229/88 103/230/89 
f 103/230/89 99/231/90 98/228/90 
s 32
f 102/232/91 104/233/91 105/234/92 
s 4
f 101/223/86 106/235/93 102/236/94 
f 102/236/95 99/221/84 101/223/86 
f 106/235/93 104/237/96 102/236/96 
s 8
f 103/230/89 100/238/97 99/231/97 
s 32
f 95/239/98 102/232/98 105/234/92 
f 105/234/92 96/240/99 95/239/99 
s 2
f 107/241/100 108/242/101 109/243/102 110/244/103 
s 4
f 111/245/104 112/246/105 113/247/106 
s 64
f 107/248/107 114/249/107 111/250/107 
f 111/250/107 108/251/107 107/248/107 
s 8
f 108/252/108 111/253/108 115/254/109 
f 115/254/109 109/255/110 108/252/110 
s 32
f 114/256/111 116/257/112 117/195/111 
s 4
f 112/246/105 111/245/104 114/258/113 
f 114/258/114 118/259/115 112/246/105 
f 118/259/115 114/258/116 117/260/116 
s 8
f 115/254/109 111/253/117 113/261/117 
s 32
f 107/262/118 110/263/118 116/257/112 
f 116/257/112 114/256/119 107/262/119 
s 2
f 119/264/9 120/265/9 121/266/9 122/267/9 
s 4
f 123/268/14 124/265/14 125/264/14 126/269/14 
s 8
f 126/270/3 125/271/3 121/272/3 
f 121/272/20 120/273/20 126/270/20 
s 16
f 123/271/8 126/274/8 120/275/8 
f 120/275/8 119/272/8 123/271/8 
s 32
f 124/276/5 123/277/5 119/278/5 
f 119/278/5 122/279/5 124/276/5 
s 64
f 125/280/7 124/266/7 122/274/7 
f 122/274/7 121/271/7 125/280/7 
# 23 polygons - 138 triangles

