# 3ds Max Wavefront OBJ Exporter v0.97b - (c)2007 guruware
# File Created: 22.08.2011 14:12:39

mtllib tobacco.mtl

#
# object Cylinder02
#

#
# object Cylinder04
#

v  2.0947 5.8661 -2.8164
v  6.5305 5.6573 -1.4487
v  5.0848 5.6562 0.7341
v  2.6897 5.7218 1.7897
v  5.1852 5.8368 -6.2861
v  6.5680 5.7246 -4.0657
v  0.2266 6.0506 -7.0668
v  2.8212 5.9584 -7.4049
v  -2.5478 6.0486 -2.8780
v  -1.7749 6.0842 -5.3793
v  0.1057 5.8332 1.3828
v  -1.8467 5.9551 -0.3572
v  5.2730 10.4850 0.8610
v  3.1879 18.5055 2.1256
v  6.7187 10.4860 -1.3218
v  7.0948 19.2444 -3.7104
v  5.3733 10.6656 -6.1592
v  3.3985 20.7720 -7.0156
v  0.8039 20.8642 -6.6775
v  -1.5867 10.9130 -5.2524
v  -2.0844 17.9411 -2.5655
v  -1.6585 10.7838 -0.2303
v  0.2939 10.6620 1.5097
v  3.0856 31.2919 -2.1482
v  1.1676 -21.0356 -3.3509
v  3.9642 -21.1479 -3.2249
v  3.2271 -21.1657 -1.4559
v  1.5264 -21.1226 -0.5737
v  1.7801 -20.9877 -6.0844
v  3.3928 -21.0776 -5.0528
v  -1.4162 -20.9067 -4.4263
v  -0.1191 -20.9201 -5.8370
v  -0.3422 -21.0388 -0.9909
v  -1.5044 -20.9535 -2.5124
v  5.7409 0.7081 0.6466
v  2.5579 -2.1321 2.1621
v  7.0712 0.7401 -2.5459
v  6.0399 0.8670 -5.8447
v  3.0158 -1.8886 -7.7832
v  -0.4117 -1.7667 -7.3366
v  -2.7527 -1.7424 -4.7907
v  -2.9117 -1.8270 -1.3367
v  -0.8144 -1.9809 1.4091
v  7.3558 23.7832 1.9110
v  3.0318 6.8083 3.3605
v  8.2254 5.4441 -2.3775
v  7.6226 21.6751 -5.8874
v  3.8150 13.1875 -8.3349
v  0.1208 23.3814 -7.5384
v  -3.2440 8.6767 -4.8908
v  -2.8396 23.8170 -0.3729
v  -0.9882 6.9885 2.4629
v  2.4973 13.0844 -2.4542
# 53 vertices

vn -0.0389 -0.9989 -0.0263
vn 0.1280 -0.0310 0.9913
vn 0.6435 -0.0452 0.7641
vn 0.5775 -0.0439 0.8152
vn 0.9546 -0.0449 0.2943
vn 0.9762 -0.0436 0.2124
vn 0.9627 -0.0305 -0.2689
vn 0.6651 -0.0063 -0.7467
vn 0.6637 -0.0062 -0.7480
vn 0.1563 0.0199 -0.9875
vn -0.0511 0.0282 -0.9983
vn -0.4021 0.0397 -0.9148
vn -0.2043 0.0337 -0.9783
vn -0.8328 0.0470 -0.5516
vn -0.8300 0.0470 -0.5558
vn -0.9991 0.0393 -0.0133
vn -0.8483 0.0191 0.5292
vn -0.8886 0.0226 0.4582
vn -0.4281 -0.0071 0.9037
vn -0.3512 -0.0109 0.9362
vn 0.0398 0.9960 0.0795
vn -0.6567 0.2169 0.7223
vn 0.1336 0.3151 0.9396
vn 0.8331 0.1640 0.5282
vn 0.8067 0.1634 0.5679
vn 0.9111 0.3344 -0.2410
vn 0.6735 0.2124 -0.7080
vn 0.7081 0.3137 -0.6326
vn -0.8227 0.3682 -0.4331
vn -0.8326 0.2650 -0.4864
vn -0.9325 0.3612 -0.0040
vn -0.6359 0.2164 0.7408
vn 0.1277 -0.1413 0.9817
vn 0.7273 -0.1480 0.6702
vn 0.7300 -0.1345 0.6701
vn 0.1691 -0.1381 0.9759
vn 0.9890 -0.1417 0.0421
vn 0.9873 -0.1577 0.0171
vn 0.7881 -0.1238 -0.6029
vn 0.8080 -0.0887 -0.5824
vn 0.2125 -0.1002 -0.9720
vn 0.2448 -0.0714 -0.9669
vn -0.4607 -0.0763 -0.8843
vn -0.4537 -0.0469 -0.8899
vn -0.9205 -0.0715 -0.3843
vn -0.9252 -0.0466 -0.3767
vn -0.9517 -0.0881 0.2941
vn -0.9564 -0.0603 0.2859
vn -0.5398 -0.1183 0.8335
vn -0.5399 -0.1133 0.8341
vn 0.7224 -0.0974 0.6846
vn 0.4514 -0.1420 0.8809
vn 0.9765 -0.1644 -0.1395
vn 0.7247 -0.0671 -0.6858
vn 0.1875 -0.0394 -0.9815
vn -0.4004 -0.0063 -0.9163
vn -0.9508 -0.0245 -0.3087
vn -0.9594 -0.0175 0.2816
vn -0.6950 -0.0620 0.7163
vn 0.0292 0.8771 0.4794
vn 0.1681 0.5589 0.8120
vn -0.4512 0.5855 0.6735
vn -0.6155 0.5208 -0.5915
vn 0.7998 0.5998 0.0231
vn -0.5446 0.5706 0.6147
vn 0.0781 0.9963 0.0350
vn 0.3402 0.4783 0.8096
vn -0.5327 0.8167 -0.2220
vn 0.8530 0.4687 -0.2294
# 69 vertex normals

vt -0.6977 0.2773 0.0000
vt -0.7539 0.2517 0.0000
vt -0.7311 0.2254 0.0000
vt -0.6977 0.2157 0.0000
vt -0.7444 0.3177 0.0000
vt -0.7588 0.2861 0.0000
vt -0.6804 0.3365 0.0000
vt -0.7151 0.3365 0.0000
vt -0.6367 0.2861 0.0000
vt -0.6511 0.3177 0.0000
vt -0.6644 0.2254 0.0000
vt -0.6416 0.2517 0.0000
vt 0.1042 0.4695 0.0000
vt 0.1987 0.4695 0.0000
vt 0.1987 0.5919 0.0000
vt 0.1042 0.7936 0.0000
vt 1.1720 0.5088 0.0000
vt 1.1996 0.5058 0.0000
vt 1.2047 0.6002 0.0000
vt 1.1772 0.6032 0.0000
vt 1.2356 0.5019 0.0000
vt 1.2500 0.7662 0.0000
vt 1.2687 0.4984 0.0000
vt 1.2739 0.5928 0.0000
vt 1.0091 0.4609 0.0000
vt 1.0522 0.4609 0.0000
vt 1.0522 0.7747 0.0000
vt 1.0091 0.5632 0.0000
vt 1.1034 0.4609 0.0000
vt 1.1034 0.7747 0.0000
vt 1.1464 0.4609 0.0000
vt 1.1464 0.5632 0.0000
vt 0.0349 0.5759 0.0000
vt 0.0665 0.5771 0.0000
vt 0.0603 0.7350 0.0000
vt 0.0324 0.6400 0.0000
vt 0.1009 0.5784 0.0000
vt 0.0984 0.6426 0.0000
vt 0.1271 0.5795 0.0000
vt 0.1246 0.6436 0.0000
vt 0.0096 0.4695 0.0000
vt 0.0096 0.5919 0.0000
vt 0.0620 0.9151 0.0000
vt 0.1302 0.7496 0.0000
vt 0.1540 0.6557 0.0000
vt 0.4467 0.8272 0.0000
vt 0.1689 0.8663 0.0000
vt 0.1661 0.8321 0.0000
vt 0.2803 0.7932 0.0000
vt 0.0396 0.9244 0.0000
vt 0.2023 0.9030 0.0000
vt 0.3163 0.9226 0.0000
vt 0.1880 0.9614 0.0000
vt 0.2964 0.5477 0.0000
vt 0.4246 0.6246 0.0000
vt 0.4234 0.6330 0.0000
vt 0.4806 0.7542 0.0000
vt 0.3692 0.8875 0.0000
vt 0.0886 0.8891 0.0000
vt 0.1821 0.8535 0.0000
vt 0.0962 0.8469 0.0000
vt 0.3315 0.1893 0.0000
vt 0.3251 0.2259 0.0000
vt 0.3030 0.2132 0.0000
vt 0.2943 0.1893 0.0000
vt 0.3665 0.2020 0.0000
vt 0.3501 0.2215 0.0000
vt 0.3501 0.1571 0.0000
vt 0.3665 0.1766 0.0000
vt 0.3030 0.1654 0.0000
vt 0.3251 0.1527 0.0000
vt -0.4754 0.0302 0.0000
vt -0.4203 0.0313 0.0000
vt -0.3866 0.2173 0.0000
vt -0.4859 0.2152 0.0000
vt -0.2256 0.0211 0.0000
vt -0.1844 0.0203 0.0000
vt -0.1773 0.1672 0.0000
vt -0.2515 0.1687 0.0000
vt -0.1377 0.0194 0.0000
vt -0.0929 0.1655 0.0000
vt -0.4004 0.0288 0.0000
vt -0.3671 0.0317 0.0000
vt -0.4137 0.2175 0.0000
vt -0.4738 0.2124 0.0000
vt -0.3236 0.0354 0.0000
vt -0.3352 0.2242 0.0000
vt -0.2903 0.0382 0.0000
vt -0.2751 0.2293 0.0000
vt -0.6659 0.0221 0.0000
vt -0.6341 0.0210 0.0000
vt -0.6146 0.1958 0.0000
vt -0.6719 0.1978 0.0000
vt -0.6062 0.0200 0.0000
vt -0.5642 0.1940 0.0000
vt -0.5304 0.0290 0.0000
vt -0.5852 0.2131 0.0000
vt -0.3953 0.5982 0.0000
vt -0.5034 0.3698 0.0000
vt -0.1771 0.2312 0.0000
vt -0.2485 0.4808 0.0000
vt -0.0615 0.4460 0.0000
vt -0.0371 0.1248 0.0000
vt -0.0039 0.3276 0.0000
vt -0.3863 0.5941 0.0000
vt -0.4533 0.4189 0.0000
vt -0.2757 0.3551 0.0000
vt -0.5974 0.5518 0.0000
vt -0.6753 0.3150 0.0000
vt -0.5479 0.2885 0.0000
vt -0.4932 0.3148 0.0000
vt -0.6116 0.3123 0.0000
vt -0.5385 0.7195 0.0000
vt -0.6340 0.6760 0.0000
vt -0.6245 0.6450 0.0000
vt -0.3912 0.6420 0.0000
vt -0.8857 0.7608 0.0000
vt -0.7361 0.8338 0.0000
vt -0.9864 0.8377 0.0000
vt -0.7875 0.8056 0.0000
vt -0.8836 0.8598 0.0000
vt -0.7944 0.7985 0.0000
vt -0.8836 0.7798 0.0000
vt -0.7405 0.7985 0.0000
vt -0.4661 0.9050 0.0000
vt -0.5771 0.9565 0.0000
vt -0.4066 0.9767 0.0000
vt -0.6094 0.9782 0.0000
vt -0.9031 0.8669 0.0000
vt -0.7586 0.9391 0.0000
vt -0.9864 0.9444 0.0000
# 131 texture coords

g Cylinder04
usemtl Material__26
s 1
f 1/1/1 2/2/1 3/3/1 4/4/1 
f 1/1/1 5/5/1 6/6/1 2/2/1 
f 1/1/1 7/7/1 8/8/1 5/5/1 
f 1/1/1 9/9/1 10/10/1 7/7/1 
f 1/1/1 11/11/1 12/12/1 9/9/1 
f 1/1/1 4/4/1 11/11/1 
s 8
f 4/13/2 3/14/3 13/15/4 14/16/2 
f 3/17/3 2/18/5 15/19/6 13/20/4 
f 2/18/5 6/21/7 16/22/7 15/19/6 
f 6/21/7 5/23/8 17/24/9 16/22/7 
f 5/25/8 8/26/10 18/27/11 17/28/9 
f 8/26/10 7/29/12 19/30/13 18/27/11 
f 7/29/12 10/31/14 20/32/15 19/30/13 
f 10/33/14 9/34/16 21/35/16 20/36/15 
f 9/34/16 12/37/17 22/38/18 21/35/16 
f 12/37/17 11/39/19 23/40/20 22/38/18 
f 11/41/19 4/13/2 14/16/2 23/42/20 
s 1
f 24/43/21 23/40/22 14/44/23 13/45/24 
f 24/46/21 13/47/24 15/48/25 16/49/26 
f 24/50/21 16/51/26 17/52/27 18/53/28 
f 24/54/21 18/55/28 19/56/29 20/57/30 
f 24/58/21 20/59/30 21/60/31 22/61/32 
f 24/43/21 22/38/32 23/40/22 
f 25/62/1 26/63/1 27/64/1 28/65/1 
f 25/62/1 29/66/1 30/67/1 26/63/1 
f 25/62/1 31/68/1 32/69/1 29/66/1 
f 25/62/1 33/70/1 34/71/1 31/68/1 
f 25/62/1 28/65/1 33/70/1 
s 8
f 28/72/33 27/73/34 35/74/35 36/75/36 
f 27/76/34 26/77/37 37/78/38 35/79/35 
f 26/77/37 30/80/39 38/81/40 37/78/38 
f 30/82/39 29/83/41 39/84/42 38/85/40 
f 29/83/41 32/86/43 40/87/44 39/84/42 
f 32/86/43 31/88/45 41/89/46 40/87/44 
f 31/90/45 34/91/47 42/92/48 41/93/46 
f 34/91/47 33/94/49 43/95/50 42/92/48 
f 33/96/49 28/72/33 36/75/36 43/97/50 
f 36/75/36 35/74/35 44/98/51 45/99/52 
f 35/79/35 37/78/38 46/100/53 44/101/51 
f 37/78/38 38/81/40 47/102/54 46/100/53 
f 38/81/40 39/103/42 48/104/55 47/102/54 
f 39/84/42 40/87/44 49/105/56 48/106/55 
f 40/87/44 41/89/46 50/107/57 49/105/56 
f 41/93/46 42/92/48 51/108/58 50/109/57 
f 42/92/48 43/95/50 52/110/59 51/108/58 
f 43/97/50 36/75/36 45/111/52 52/112/59 
s 1
f 53/113/60 52/114/61 45/115/62 44/116/63 
f 53/117/60 44/118/63 46/119/64 47/120/65 
f 53/121/60 47/122/65 48/123/66 49/124/67 
f 53/125/60 49/126/67 50/127/68 51/128/69 
f 53/129/60 51/130/69 52/131/61 
# 47 polygons - 4 triangles

