# 3ds Max Wavefront OBJ Exporter v0.97b - (c)2007 guruware
# File Created: 19.10.2011 05:46:47

mtllib robot_parts.mtl

#
# object Cylinder01
#

v  -6.9638 1.8903 2.6385
v  -6.9634 6.0967 2.4811
v  -7.3504 6.8045 2.0281
v  -7.4133 1.8903 2.3795
v  -8.0233 1.8903 2.0281
v  -7.4888 1.2449 2.0285
v  -7.4266 1.8903 1.6942
v  -5.5112 6.7122 2.3245
v  -5.7096 6.6280 1.7394
v  -6.9596 6.0977 1.6326
v  -6.9638 1.8903 1.4352
v  -6.9638 0.0000 4.9342
v  -6.9638 0.0000 -5.4491
v  15.7596 0.0000 -5.4491
v  15.7596 0.0000 4.9342
v  15.7596 6.0959 -5.4491
v  15.7596 6.0959 4.9342
v  -6.9638 6.0959 -5.4491
v  14.4537 10.3207 3.8051
v  -5.6578 10.3207 3.8051
v  -6.9638 7.7202 4.8064
v  3.2973 7.7006 4.7865
v  5.2020 7.7006 4.7865
v  15.7596 7.7202 4.8064
v  14.4537 8.6964 -5.2716
v  -5.6578 8.6964 -5.2716
v  5.2020 6.0847 4.9439
v  14.0711 6.8123 3.8842
v  5.2020 6.8123 3.8842
v  -6.9638 6.0959 4.9342
v  -5.2752 6.8123 3.8842
v  3.2973 6.8123 3.8842
v  3.2973 6.0867 4.9439
v  6.3372 9.4767 -0.9109
v  7.8016 9.3277 -1.7437
v  0.8837 9.3278 -1.7431
v  2.3485 9.4766 -0.9114
v  7.8008 9.6257 -0.0785
v  0.8838 9.6256 -0.0790
v  0.8798 13.0504 -2.5554
v  2.3482 11.8129 -1.4228
v  0.8797 13.4103 -0.9114
v  7.7980 13.4106 -0.9113
v  7.8011 13.0622 -2.5618
v  6.3372 11.8129 -1.4228
# 45 vertices

vn -0.5179 0.0652 0.8530
vn -0.5366 0.2268 0.8128
vn -0.6699 0.7423 -0.0176
vn -0.4980 0.0682 0.8645
vn -0.9936 0.1133 0.0014
vn -0.4614 -0.3816 0.8009
vn -0.7702 -0.6378 -0.0038
vn -0.7702 -0.6377 0.0120
vn -0.4526 -0.3753 -0.8089
vn 0.4477 -0.8941 -0.0087
vn 0.4322 -0.9017 -0.0084
vn 0.9942 -0.1058 -0.0192
vn 0.0179 0.9807 0.1947
vn 0.0327 0.9247 -0.3794
vn -0.4357 0.2329 -0.8695
vn -0.4879 0.0414 -0.8719
vn 0.0000 -1.0000 -0.0000
vn 1.0000 0.0000 -0.0000
vn -0.0000 0.0000 -1.0000
vn -0.0000 0.0282 -0.9996
vn 0.0008 0.3533 0.9355
vn -0.0021 0.3571 0.9341
vn 0.8958 0.4382 -0.0736
vn -0.0000 0.0681 -0.9977
vn -0.8958 0.4382 -0.0736
vn -0.0000 0.8245 0.5658
vn 0.2566 0.9392 0.2281
vn 0.4021 0.0870 0.9115
vn 0.0000 0.0879 0.9961
vn 0.9841 0.0138 0.1770
vn 0.2683 -0.8851 0.3802
vn -0.3906 0.9206 0.0000
vn -1.0000 0.0004 0.0002
vn -1.0000 0.0000 0.0000
vn -1.0000 0.0000 -0.0001
vn -0.3721 -0.9153 0.1540
vn -0.4309 -0.8913 0.1412
vn -0.3904 0.9207 0.0001
vn 0.0000 -0.7126 0.7016
vn 0.0001 0.0912 0.9958
vn 0.0000 0.0885 0.9961
vn 0.0002 0.8259 0.5638
vn 0.0000 0.8252 0.5648
vn 0.0001 0.0971 0.9953
vn -1.0000 -0.0000 -0.0000
vn 1.0000 -0.0000 -0.0000
vn 0.0000 0.9844 -0.1762
vn -0.0000 0.9844 -0.1762
vn 0.4986 -0.1847 -0.8469
vn -1.0000 -0.0010 0.0002
vn -0.0009 0.9777 -0.2102
vn 0.0000 -0.3049 0.9524
vn 1.0000 0.0007 0.0011
vn -0.5000 -0.1854 -0.8460
vn 0.0003 -0.6744 -0.7383
vn 0.4987 0.1862 0.8465
vn -0.4997 0.1856 0.8461
vn -0.0008 -0.0032 1.0000
vn 0.0000 0.0000 1.0000
vn 0.0009 0.0000 1.0000
# 60 vertex normals

vt 0.8277 0.4846 0.0000
vt 0.8272 0.5784 0.0000
vt 0.8397 0.5947 0.0000
vt 0.8392 0.4848 0.0000
vt 0.8548 0.4852 0.0000
vt 0.8418 0.4616 0.0000
vt 0.8503 0.4748 0.0000
vt 0.8316 0.4746 0.0000
vt 0.8023 0.4767 0.0000
vt 0.8103 0.4637 0.0000
vt 0.8210 0.4759 0.0000
vt 0.8180 0.4542 0.0000
vt 0.8333 0.4542 0.0000
vt 0.8254 0.4687 0.0000
vt 0.8252 0.5874 0.0000
vt 0.8354 0.5944 0.0000
vt 0.8321 0.6280 0.0000
vt 0.8191 0.6235 0.0000
vt 0.8165 0.5946 0.0000
vt 0.8231 0.5776 0.0000
vt 0.8238 0.4837 0.0000
vt 0.8120 0.4839 0.0000
vt 0.7968 0.4841 0.0000
vt 0.8113 0.5937 0.0000
vt 0.1742 0.4113 0.0000
vt 0.1708 0.1798 0.0000
vt 0.6775 0.1725 0.0000
vt 0.6808 0.4040 0.0000
vt 0.8367 0.3993 0.0000
vt 0.7008 0.3993 0.0000
vt 0.7008 0.1678 0.0000
vt 0.8367 0.1678 0.0000
vt 0.1850 0.5570 0.0000
vt 0.1850 0.4211 0.0000
vt 0.6918 0.4211 0.0000
vt 0.6918 0.5570 0.0000
vt 0.2753 0.6852 0.0000
vt 0.7238 0.6852 0.0000
vt 0.7529 0.6231 0.0000
vt 0.5241 0.6228 0.0000
vt 0.4816 0.6228 0.0000
vt 0.2462 0.6231 0.0000
vt 0.7424 0.9081 0.0000
vt 0.7365 0.7025 0.0000
vt 0.8037 0.6888 0.0000
vt 0.8062 0.9204 0.0000
vt 0.2643 0.9298 0.0000
vt 0.7127 0.9298 0.0000
vt 0.7418 0.9880 0.0000
vt 0.2351 0.9880 0.0000
vt 0.2468 0.7084 0.0000
vt 0.2436 0.9140 0.0000
vt 0.1799 0.9271 0.0000
vt 0.1794 0.6956 0.0000
vt 0.9447 0.7370 0.0000
vt 0.9513 0.5017 0.0000
vt 0.9786 0.5401 0.0000
vt 0.9734 0.7378 0.0000
vt 0.9731 0.9769 0.0000
vt 0.9850 0.7457 0.0000
vt 0.9427 0.7670 0.0000
vt 0.9853 0.1879 0.0000
vt 0.9556 0.1941 0.0000
vt 0.9654 0.0313 0.0000
vt 0.9338 0.7696 0.0000
vt 0.8935 0.7452 0.0000
vt 0.8874 0.9766 0.0000
vt 0.0571 0.2577 0.0000
vt 0.1507 0.2509 0.0000
vt 0.1548 0.4087 0.0000
vt 0.0189 0.4123 0.0000
vt 0.0129 0.1808 0.0000
vt 0.0564 0.2309 0.0000
vt 0.1488 0.1773 0.0000
vt 0.1502 0.2320 0.0000
vt 0.9096 0.1984 0.0000
vt 0.9047 0.2333 0.0000
vt 0.9467 0.2553 0.0000
vt 0.9132 0.1851 0.0000
vt 0.9387 0.0239 0.0000
vt 0.9895 0.2011 0.0000
vt 0.9943 0.2556 0.0000
vt 0.9515 0.2359 0.0000
vt 0.9541 0.2007 0.0000
vt 0.9438 0.2670 0.0000
vt 0.9384 0.4957 0.0000
vt 0.9106 0.4573 0.0000
vt 0.9156 0.2662 0.0000
vt 0.9777 0.4614 0.0000
vt 0.9484 0.4983 0.0000
vt 0.9540 0.2696 0.0000
vt 0.9827 0.2703 0.0000
vt 0.5222 0.6042 0.0000
vt 0.4797 0.6042 0.0000
vt 0.4797 0.5680 0.0000
vt 0.5222 0.5680 0.0000
vt 0.4752 0.6036 0.0000
vt 0.4530 0.5860 0.0000
vt 0.4748 0.5674 0.0000
vt 0.9320 0.7390 0.0000
vt 0.9038 0.7382 0.0000
vt 0.9090 0.5405 0.0000
vt 0.9388 0.5036 0.0000
vt 0.5276 0.5687 0.0000
vt 0.5491 0.5876 0.0000
vt 0.5268 0.6049 0.0000
vt 0.5332 0.8096 0.0000
vt 0.5658 0.8285 0.0000
vt 0.4116 0.8285 0.0000
vt 0.4442 0.8097 0.0000
vt 0.5658 0.7908 0.0000
vt 0.7141 0.7028 0.0000
vt 0.7141 0.9084 0.0000
vt 0.2657 0.9084 0.0000
vt 0.4116 0.7908 0.0000
vt 0.2657 0.7028 0.0000
vt 0.0120 0.5929 0.0000
vt 0.0126 0.6779 0.0000
vt 0.0501 0.6452 0.0000
vt 0.0497 0.5919 0.0000
vt 0.0695 0.8745 0.0000
vt 0.1072 0.8754 0.0000
vt 0.1017 0.9616 0.0000
vt 0.0642 0.9593 0.0000
vt 0.1059 0.8479 0.0000
vt 0.0684 0.8481 0.0000
vt 0.0677 0.6938 0.0000
vt 0.1053 0.6936 0.0000
vt 0.1584 0.7259 0.0000
vt 0.1584 0.8148 0.0000
vt 0.1210 0.8474 0.0000
vt 0.1210 0.6931 0.0000
vt 0.0635 0.6709 0.0000
vt 0.0615 0.5857 0.0000
vt 0.0992 0.5851 0.0000
vt 0.1013 0.6715 0.0000
vt 0.0168 0.9461 0.0000
vt 0.0545 0.9454 0.0000
vt 0.0524 0.8921 0.0000
vt 0.0135 0.8609 0.0000
vt 0.0520 0.8546 0.0000
vt 0.0524 0.7003 0.0000
vt 0.0147 0.7329 0.0000
vt 0.0146 0.8218 0.0000
vt 0.1228 0.8858 0.0000
vt 0.1639 0.8579 0.0000
vt 0.1542 0.9437 0.0000
vt 0.1168 0.9388 0.0000
vt 0.1571 0.6091 0.0000
vt 0.1552 0.6955 0.0000
vt 0.1183 0.6623 0.0000
vt 0.1194 0.6090 0.0000
vt 0.4453 0.1510 0.0000
vt 0.4029 0.1510 0.0000
vt 0.1740 0.1512 0.0000
vt 0.6807 0.0153 0.0000
vt 0.1740 0.0153 0.0000
vt 0.6807 0.1512 0.0000
vt 0.8377 0.4433 0.0000
vt 0.8224 0.4438 0.0000
vt 0.8166 0.4336 0.0000
vt 0.8434 0.4332 0.0000
# 162 texture coords

g Cylinder01
usemtl Material__40
s 16777216
f 1/1/1 2/2/2 3/3/3 4/4/4 
f 5/5/5 4/4/4 3/3/3 
s 33554432
f 4/6/6 5/7/7 6/8/8 
f 5/9/7 7/10/9 6/11/8 
s 67108864
f 7/12/10 4/13/11 6/14/12 
s 16777216
f 3/15/3 2/16/2 8/17/13 9/18/14 
f 10/19/15 3/15/3 9/18/14 
f 10/20/15 11/21/16 7/22/16 5/23/5 
f 10/20/15 5/23/5 3/24/3 
s off
f 12/25/17 13/26/17 14/27/17 15/28/17 
f 14/29/18 16/30/18 17/31/18 15/32/18 
s 1
f 13/33/19 18/34/20 16/35/20 14/36/19 
s off
f 19/37/21 20/38/21 21/39/21 22/40/21 
f 19/37/22 22/40/22 23/41/22 24/42/22 
f 25/43/23 19/44/23 24/45/23 16/46/23 
s 1
f 26/47/24 25/48/24 16/49/20 18/50/20 
s off
f 20/51/25 26/52/25 18/53/25 21/54/25 
s 2097152
f 27/55/26 17/56/27 28/57/28 29/58/29 
f 16/59/30 24/60/31 28/61/28 
s off
f 10/62/32 9/63/32 18/64/32 
s 2097152
f 28/65/28 17/66/27 16/67/30 
s off
f 11/68/33 10/69/33 18/70/33 13/71/33 
f 11/68/34 13/71/34 12/72/34 1/73/34 
f 1/73/35 12/72/35 30/74/35 2/75/35 
f 8/76/36 31/77/36 21/78/36 9/79/36 
f 21/78/37 18/80/37 9/79/37 
f 2/81/38 30/82/38 31/83/38 8/84/38 
s 2097152
f 22/85/39 21/86/39 31/87/40 32/88/41 
f 31/89/40 30/90/42 33/91/43 32/92/41 
s off
f 33/93/44 27/94/44 23/95/44 22/96/44 
f 22/97/45 32/98/45 33/99/45 
s 2097152
f 23/100/39 29/101/29 28/102/28 24/103/31 
s off
f 27/104/46 29/105/46 23/106/46 
f 34/107/47 35/108/47 36/109/47 37/110/47 
f 38/111/47 37/110/47 19/112/47 25/113/47 
f 35/108/47 38/111/47 25/113/47 36/109/47 
f 36/109/48 25/113/48 26/114/48 39/115/48 
f 39/115/48 26/114/48 20/116/48 37/110/48 
f 37/110/48 20/116/48 19/112/48 
f 34/107/47 37/110/47 38/111/47 
f 36/117/49 40/118/49 41/119/49 37/120/49 
f 36/121/50 39/122/50 42/123/50 40/124/50 
f 40/125/51 42/126/51 43/127/51 44/128/51 
f 41/129/52 45/130/52 43/131/52 42/132/52 
f 35/133/53 44/134/53 43/135/53 38/136/53 
f 35/137/54 34/138/54 45/139/54 44/140/54 
f 40/141/55 44/142/55 45/143/55 41/144/55 
f 41/145/56 42/146/56 39/147/56 37/148/56 
f 38/149/57 43/150/57 45/151/57 34/152/57 
f 27/153/58 33/154/58 30/155/58 15/156/58 
f 30/155/59 12/157/59 15/156/59 
f 27/153/60 15/156/60 17/158/60 
s 67108864
f 4/159/11 7/160/10 11/161/17 1/162/17 
# 37 polygons - 16 triangles

