# 3ds Max Wavefront OBJ Exporter v0.97b - (c)2007 guruware
# File Created: 23.06.2011 14:00:00

mtllib scheme.mtl

#
# object Cylinder01
#

v  -5.4936 0.0000 -5.0473
v  -3.7436 9.0868 -4.9992
v  2.7009 4.2982 -5.1489
v  2.9747 -3.7270 -5.2222
v  -14.7408 -0.3169 -4.8939
v  -11.5059 7.0329 -4.8857
v  -3.1283 -8.9457 -5.1638
v  -11.0124 -7.4281 -5.0177
v  0.0466 2.3811 25.0398
v  0.2148 -2.5462 24.9948
v  -3.9101 5.3212 25.1317
v  -8.6759 4.0601 25.2014
v  -10.6621 -0.4525 25.1963
v  -8.3730 -4.8185 25.1203
v  -3.5323 -5.7503 25.0306
v  3.5244 3.6804 55.1524
v  3.7918 -4.1543 55.0809
v  -2.7670 8.3553 55.2987
v  -10.3450 6.3501 55.4095
v  -13.5031 -0.8252 55.4014
v  -9.8633 -7.7675 55.2806
v  -2.1663 -9.2491 55.1379
v  -4.4755 -0.5158 55.2516
# 23 vertices

vn -0.0169 0.0086 -0.9998
vn 0.9107 -0.4010 0.0989
vn 0.8814 0.4602 0.1067
vn 0.8856 0.4644 -0.0073
vn 0.9152 -0.4028 -0.0152
vn 0.1898 0.9741 0.1228
vn 0.1892 0.9819 0.0089
vn -0.6432 0.7537 0.1350
vn -0.6496 0.7600 0.0212
vn -0.9904 -0.0350 0.1341
vn -0.9992 -0.0343 0.0203
vn -0.5902 -0.7981 0.1208
vn -0.5963 -0.8027 0.0069
vn 0.2558 -0.9610 0.1051
vn 0.2557 -0.9667 -0.0089
vn 0.8782 0.4626 -0.1214
vn 0.9076 -0.3993 -0.1293
vn 0.1861 0.9769 -0.1053
vn -0.6476 0.7563 -0.0931
vn -0.9950 -0.0331 -0.0940
vn -0.5946 -0.7968 -0.1073
vn 0.2522 -0.9598 -0.1230
vn 0.0169 -0.0086 0.9998
# 23 vertex normals

vt 0.4742 0.1060 0.0000
vt 0.4330 0.1653 0.0000
vt 0.4001 0.1101 0.0000
vt 0.4139 0.0546 0.0000
vt 0.5155 0.1343 0.0000
vt 0.4817 0.1754 0.0000
vt 0.4651 0.0296 0.0000
vt 0.5134 0.0711 0.0000
vt 0.1518 0.1939 0.0000
vt 0.2865 0.1916 0.0000
vt 0.2900 0.5959 0.0000
vt 0.1555 0.5968 0.0000
vt 0.5619 0.9770 0.0000
vt 0.4225 0.9758 0.0000
vt 0.4252 0.5966 0.0000
vt 0.5616 0.5918 0.0000
vt 0.2928 0.9758 0.0000
vt 0.2929 0.5956 0.0000
vt 0.9818 0.9780 0.0000
vt 0.8305 0.9773 0.0000
vt 0.8298 0.5880 0.0000
vt 0.9823 0.5904 0.0000
vt 0.8289 0.9761 0.0000
vt 0.7180 0.9768 0.0000
vt 0.6976 0.5912 0.0000
vt 0.8288 0.5877 0.0000
vt 0.5626 0.9782 0.0000
vt 0.5611 0.5932 0.0000
vt 0.0215 0.1945 0.0000
vt 0.0225 0.6003 0.0000
vt 0.2901 0.9749 0.0000
vt 0.1597 0.9759 0.0000
vt 0.4311 0.1950 0.0000
vt 0.5604 0.1936 0.0000
vt 0.2875 0.1929 0.0000
vt 0.8183 0.1943 0.0000
vt 0.9827 0.1940 0.0000
vt 0.6999 0.1944 0.0000
vt 0.8180 0.1932 0.0000
vt 0.5606 0.1931 0.0000
vt 0.0199 0.9759 0.0000
vt 0.4742 0.1032 0.0000
vt 0.4010 0.1096 0.0000
vt 0.4146 0.0551 0.0000
vt 0.4645 0.0293 0.0000
vt 0.5147 0.0715 0.0000
vt 0.5170 0.1326 0.0000
vt 0.4817 0.1752 0.0000
vt 0.4326 0.1648 0.0000
# 49 texture coords

g Cylinder01
usemtl 02___Default
s 1
f 1/1/1 2/2/1 3/3/1 4/4/1 
f 1/1/1 5/5/1 6/6/1 2/2/1 
f 1/1/1 7/7/1 8/8/1 5/5/1 
f 1/1/1 4/4/1 7/7/1 
s 8
f 4/9/2 3/10/3 9/11/4 10/12/5 
f 3/13/3 2/14/6 11/15/7 9/16/4 
f 2/14/6 6/17/8 12/18/9 11/15/7 
f 6/19/8 5/20/10 13/21/11 12/22/9 
f 5/23/10 8/24/12 14/25/13 13/26/11 
f 8/24/12 7/27/14 15/28/15 14/25/13 
f 7/29/14 4/9/2 10/12/5 15/30/15 
f 10/12/5 9/11/4 16/31/16 17/32/17 
f 9/16/4 11/15/7 18/33/18 16/34/16 
f 11/15/7 12/18/9 19/35/19 18/33/18 
f 12/22/9 13/21/11 20/36/20 19/37/19 
f 13/26/11 14/25/13 21/38/21 20/39/20 
f 14/25/13 15/28/15 22/40/22 21/38/21 
f 15/30/15 10/12/5 17/32/17 22/41/22 
s 1
f 23/42/23 22/43/23 17/44/23 16/45/23 
f 23/42/23 16/45/23 18/46/23 19/47/23 
f 23/42/23 19/47/23 20/48/23 21/49/23 
f 23/42/23 21/49/23 22/43/23 
# 20 polygons - 2 triangles

