# 3ds Max Wavefront OBJ Exporter v0.97b - (c)2007 guruware
# File Created: 05.07.2011 20:46:45

mtllib Good metal parts.mtl

#
# object Box03
#

v  8.8149 5.5223 -13.3370
v  7.3064 3.6897 5.6593
v  -14.2004 1.9762 3.7860
v  -12.6918 3.8088 -15.2103
v  -13.1515 9.0643 -14.7398
v  0.2946 9.0025 -14.3442
v  7.4896 8.7049 -12.9930
v  8.3561 10.3455 -12.0124
v  -14.6601 7.2317 4.2565
v  6.8467 8.9453 6.1298
v  0.6996 7.9813 6.6752
v  6.3233 1.7515 -13.9897
v  -15.2920 1.7515 -12.6618
v  -14.1182 1.7515 6.4462
v  7.4972 1.7515 5.1184
v  6.3233 3.3706 -13.9897
v  -15.2920 3.3706 -12.6618
v  -14.7791 3.0960 3.6657
v  -14.1182 3.3706 6.4462
v  7.4972 3.3706 5.1184
v  4.9808 10.5091 13.4112
v  -12.2419 3.1978 -6.5376
v  -11.1290 3.9970 -7.7413
v  6.0937 11.3083 12.2074
v  4.4718 11.8890 13.4539
v  -12.7509 4.5777 -6.4948
v  -11.6380 5.3769 -7.6986
v  5.5847 12.6882 12.2502
v  -13.6700 9.5994 -0.1205
v  -14.0323 9.5812 2.5145
v  -11.8932 9.5246 4.2067
v  -9.2480 9.7199 -1.7731
v  -9.2098 9.5042 4.7034
v  -7.4713 9.6463 2.6988
v  -7.1635 9.6597 0.0388
v  -11.9859 9.7367 -2.1501
v  -11.9631 3.9349 -2.3163
v  -13.6472 3.7977 -0.2867
v  -14.0094 3.7795 2.3483
v  -11.8703 3.7229 4.0405
v  -9.1870 3.7025 4.5372
v  -7.4484 3.8446 2.5326
v  -7.1406 3.8579 -0.1274
v  -9.2252 3.9181 -1.9393
v  -10.8077 7.2876 6.4183
v  -7.4955 8.0242 3.0016
v  -7.1224 9.4506 3.6707
v  -10.4346 8.7139 7.0874
v  -6.2606 7.1112 4.2593
v  -5.8876 8.5375 4.9284
v  -4.5041 7.4679 2.5195
v  -4.1310 8.8943 3.1887
v  -5.7263 8.3717 1.2747
v  -5.3533 9.7980 1.9439
v  -0.6570 9.1245 -3.1560
v  -0.2840 10.5508 -2.4868
v  -10.4406 3.2194 -8.9999
v  -5.9441 3.6931 -7.3433
v  -6.1131 5.3034 -7.3451
v  -10.6096 4.8297 -9.0016
v  -6.7911 3.6061 -5.5502
v  -6.9601 5.2164 -5.5520
v  -4.4785 3.8498 -4.6382
v  -4.6475 5.4601 -4.6399
v  -3.6401 3.9359 -6.4130
v  -3.8091 5.5461 -6.4147
v  2.4458 4.5777 -3.5069
v  2.2768 6.1879 -3.5086
v  -5.0088 3.8598 -3.6332
v  -1.2257 3.9630 -0.6558
v  -0.2290 4.0802 -1.9263
v  -4.0121 3.9771 -4.9037
v  -1.4909 5.9300 -0.6824
v  -0.4942 6.0472 -1.9529
v  0.4675 6.0397 0.8642
v  1.4643 6.1570 -0.4063
v  0.7300 4.0928 0.8905
v  1.7268 4.2100 -0.3800
v  5.9914 4.8589 5.0888
v  6.9882 4.9761 3.8183
v  -0.4022 5.0378 -7.9650
v  -0.8539 4.8641 -6.6588
v  -1.2399 5.9902 -5.8688
v  -0.3806 7.3253 -8.9046
v  -1.4534 7.3915 -5.6855
v  -1.2452 8.2784 -6.7375
v  -0.7839 8.4239 -8.0538
v  -0.1843 5.8965 -9.0271
v  -9.1164 4.0582 -11.1768
v  -9.5681 3.8846 -9.8706
v  -9.9541 5.0107 -9.0806
v  -10.1677 6.4119 -8.8974
v  -9.9595 7.2989 -9.9493
v  -9.4981 7.4443 -11.2656
v  -9.0949 6.3458 -12.1164
v  -8.8986 4.9170 -12.2389
v  -8.6046 12.5933 9.7872
v  1.7383 4.9678 -7.6445
v  3.1604 5.3128 -6.9516
v  -7.1825 12.9383 10.4801
v  9.3797 11.2129 -19.2487
v  3.3124 4.1321 0.2970
v  1.7692 4.4672 -0.0606
v  7.8365 11.5480 -19.6063
v  0.5327 5.4055 2.6272
v  -0.5014 5.2318 1.7101
v  -1.0836 6.3579 1.0513
v  1.3925 7.6930 3.0066
v  -1.1712 7.7592 0.7838
v  -0.2789 8.6461 1.3787
v  0.7608 8.7916 2.3085
v  1.4306 6.2642 3.2348
v  6.8341 4.4259 -4.1953
v  5.8000 4.2523 -5.1124
v  5.2178 5.3784 -5.7713
v  5.1302 6.7796 -6.0387
v  6.0225 7.6666 -5.4438
v  7.0622 7.8120 -4.5140
v  7.6939 6.7135 -3.8159
v  7.7320 5.2847 -3.5877
v  2.8679 7.4705 -7.2576
v  1.5135 7.4304 -6.9349
v  0.5204 7.5487 -7.9547
v  3.5008 7.7145 -9.6358
v  0.1223 7.7017 -9.3185
v  1.0779 7.7912 -10.3256
v  2.4481 7.8295 -10.6211
v  3.8393 7.5581 -8.2376
v  3.0146 4.0416 -7.8011
v  1.6602 4.0014 -7.4785
v  0.6671 4.1198 -8.4982
v  0.2690 4.2728 -9.8620
v  1.2246 4.3623 -10.8691
v  2.5948 4.4005 -11.1647
v  3.6475 4.2856 -10.1794
v  3.9860 4.1292 -8.7811
# 136 vertices

vn 0.0868 -0.9923 -0.0888
vn 0.2070 0.1359 -0.9689
vn 0.0788 0.0957 -0.9923
vn 0.0737 0.0630 -0.9953
vn 0.0464 -0.1712 -0.9841
vn 0.3264 0.2349 -0.9156
vn 0.4422 0.2764 -0.8533
vn -0.9931 -0.0791 -0.0865
vn -0.1221 -0.1414 0.9824
vn -0.0788 -0.0957 0.9923
vn -0.0401 -0.2076 0.9774
vn 0.1439 -0.6957 0.7037
vn -0.1499 -0.1012 0.9835
vn 0.9935 0.0720 0.0878
vn 0.9936 0.0703 0.0881
vn 0.9932 0.0777 0.0868
vn 0.9931 0.0791 0.0865
vn 0.0000 1.0000 -0.0000
vn 0.0613 0.0000 0.9981
vn 0.9832 0.1766 -0.0454
vn 0.9729 0.0000 -0.2313
vn -0.0613 0.0000 -0.9981
vn -0.9981 0.0000 0.0613
vn 0.4962 -0.8609 -0.1129
vn -0.6773 -0.2710 0.6840
vn 0.6773 0.2710 -0.6840
vn -0.0074 0.9995 0.0297
vn 0.0189 0.9998 0.0095
vn -0.0087 0.9995 0.0297
vn -0.0080 0.9995 0.0291
vn -0.0047 0.9978 0.0666
vn -0.0082 0.9995 0.0297
vn 0.0223 0.9997 0.0076
vn -0.0028 0.9979 0.0651
vn -0.7700 0.0152 -0.6379
vn -0.6206 -0.0249 0.7837
vn 0.7559 -0.0158 0.6545
vn 0.6562 0.0242 -0.7542
vn -0.9907 -0.0000 -0.1362
vn -0.1821 -0.0289 0.9828
vn 0.9934 0.0006 0.1150
vn 0.1365 0.0289 -0.9902
vn 0.6883 -0.4478 0.5707
vn -0.7483 -0.1111 0.6540
vn 0.6726 -0.4511 0.5866
vn 0.7483 0.1111 -0.6540
vn 0.6221 -0.4600 0.6336
vn -0.3422 -0.0349 0.9390
vn -0.8983 -0.0947 -0.4290
vn -0.3632 -0.0371 0.9310
vn 0.8983 0.0947 0.4290
vn -0.4267 -0.0438 0.9033
vn -0.0616 0.9971 0.0437
vn -0.7766 -0.1131 -0.6197
vn -0.0793 0.9964 0.0297
vn 0.7766 0.1131 0.6197
vn -0.1336 0.9909 -0.0134
vn -0.9423 -0.1119 -0.3155
vn -0.9380 -0.0860 -0.3358
vn -0.9421 -0.1132 -0.3155
vn -0.9420 -0.1125 -0.3161
vn -0.9537 -0.1087 -0.2804
vn -0.9422 -0.1127 -0.3155
vn -0.9376 -0.0827 -0.3377
vn -0.9535 -0.1068 -0.2820
vn -0.1412 0.9865 0.0823
vn 0.2131 0.6090 -0.7640
vn 0.3238 0.1710 -0.9306
vn 0.2989 -0.7579 -0.5798
vn 0.1341 -0.9890 -0.0623
vn -0.1995 -0.6447 0.7379
vn -0.3306 -0.1256 0.9354
vn -0.2945 0.7718 0.5636
vn 0.0208 -0.9114 0.4110
vn -0.1146 -0.9221 -0.3696
vn 0.6520 -0.1119 -0.7499
vn 0.6691 -0.0860 -0.7382
vn 0.6520 -0.1132 -0.7498
vn 0.6524 -0.1125 -0.7495
vn 0.6240 -0.1087 -0.7738
vn 0.6520 -0.1127 -0.7498
vn 0.6707 -0.0826 -0.7371
vn 0.6253 -0.1068 -0.7730
vn -0.0220 0.9865 -0.1620
vn 0.6243 0.6090 0.4892
vn 0.7359 0.1710 0.6551
vn 0.4214 -0.7579 0.4980
vn 0.0062 -0.9890 0.1477
vn -0.6055 -0.6447 -0.4666
vn -0.7377 -0.1256 -0.6633
vn -0.4081 0.7718 -0.4877
vn -0.0049 -0.9943 -0.1064
vn 0.0016 -0.9931 -0.1169
vn -0.0048 -0.9944 -0.1060
vn -0.0046 -0.9943 -0.1063
vn -0.0186 -0.9942 -0.1061
vn -0.0049 -0.9943 -0.1062
vn 0.0022 -0.9930 -0.1182
vn -0.0182 -0.9941 -0.1068
vn -0.2334 0.1425 -0.9619
vn 0.7175 0.1389 -0.6826
vn 0.9590 0.0839 -0.2705
vn 0.7266 -0.0771 0.6827
vn 0.2125 -0.1441 0.9665
vn -0.6846 -0.1426 0.7148
vn -0.9710 -0.0774 0.2264
vn -0.7115 0.0802 -0.6981
# 107 vertex normals

vt 0.0319 0.4781 0.0000
vt 0.0231 0.0266 0.0000
vt 0.5839 0.0214 0.0000
vt 0.5928 0.4729 0.0000
vt 0.9865 0.5076 0.0000
vt 0.5236 0.5007 0.0000
vt 0.5194 0.5896 0.0000
vt 0.7454 0.5943 0.0000
vt 0.8686 0.5913 0.0000
vt 0.9776 0.5910 0.0000
vt 0.0068 0.5023 0.0000
vt 0.6053 0.5020 0.0000
vt 0.6022 0.6024 0.0000
vt 0.0026 0.5949 0.0000
vt 0.6221 0.5038 0.0000
vt 0.9867 0.5049 0.0000
vt 0.9858 0.5940 0.0000
vt 0.8812 0.5857 0.0000
vt 0.6212 0.5929 0.0000
vt 0.8374 0.5059 0.0000
vt 0.8208 0.5888 0.0000
vt 0.5038 0.5887 0.0000
vt 0.5041 0.5056 0.0000
vt 0.9807 0.0100 0.0000
vt 0.9828 0.4832 0.0000
vt 0.6839 0.4833 0.0000
vt 0.6861 0.0093 0.0000
vt 0.6609 0.0205 0.0000
vt 0.6609 0.4719 0.0000
vt 0.6129 0.4719 0.0000
vt 0.6129 0.0205 0.0000
vt 0.6202 0.4616 0.0000
vt 0.6202 0.0243 0.0000
vt 0.6608 0.0243 0.0000
vt 0.6539 0.3981 0.0000
vt 0.6608 0.4616 0.0000
vt 0.6568 0.0205 0.0000
vt 0.6568 0.4812 0.0000
vt 0.6219 0.4812 0.0000
vt 0.6219 0.0205 0.0000
vt 0.6176 0.4689 0.0000
vt 0.6176 0.0203 0.0000
vt 0.6600 0.0203 0.0000
vt 0.6600 0.4689 0.0000
vt 0.9603 0.9799 0.0000
vt 0.3039 0.9735 0.0000
vt 0.2996 0.9082 0.0000
vt 0.9560 0.9146 0.0000
vt 0.9575 0.9807 0.0000
vt 0.3078 0.9673 0.0000
vt 0.3093 0.9029 0.0000
vt 0.9591 0.9163 0.0000
vt 0.9568 0.9673 0.0000
vt 0.3028 0.9823 0.0000
vt 0.3042 0.9175 0.0000
vt 0.9582 0.9025 0.0000
vt 0.0083 0.8376 0.0000
vt 0.0554 0.7551 0.0000
vt 0.1515 0.7544 0.0000
vt 0.0955 0.9819 0.0000
vt 0.2369 0.7995 0.0000
vt 0.2418 0.8946 0.0000
vt 0.1927 0.9766 0.0000
vt 0.0112 0.9322 0.0000
vt 0.7910 0.6569 0.0000
vt 0.7966 0.6849 0.0000
vt 0.5617 0.6872 0.0000
vt 0.5562 0.6592 0.0000
vt 0.7927 0.7236 0.0000
vt 0.7950 0.7532 0.0000
vt 0.5602 0.7529 0.0000
vt 0.5579 0.7234 0.0000
vt 0.8024 0.7996 0.0000
vt 0.7966 0.8273 0.0000
vt 0.5618 0.8250 0.0000
vt 0.5675 0.7973 0.0000
vt 0.8036 0.8672 0.0000
vt 0.8011 0.8961 0.0000
vt 0.5663 0.8963 0.0000
vt 0.5687 0.8675 0.0000
vt 0.7903 0.6207 0.0000
vt 0.5554 0.6230 0.0000
vt 0.7919 0.6868 0.0000
vt 0.5571 0.6865 0.0000
vt 0.8029 0.7631 0.0000
vt 0.5681 0.7608 0.0000
vt 0.8042 0.8297 0.0000
vt 0.5694 0.8300 0.0000
vt 0.3114 0.6093 0.0000
vt 0.5050 0.6136 0.0000
vt 0.5037 0.6890 0.0000
vt 0.3102 0.6848 0.0000
vt 0.2503 0.6539 0.0000
vt 0.2458 0.7072 0.0000
vt 0.1869 0.7011 0.0000
vt 0.1915 0.6477 0.0000
vt 0.3378 0.8332 0.0000
vt 0.3431 0.7453 0.0000
vt 0.4385 0.7567 0.0000
vt 0.4333 0.8446 0.0000
vt 0.3521 0.7535 0.0000
vt 0.4374 0.7516 0.0000
vt 0.4231 0.8320 0.0000
vt 0.3378 0.8339 0.0000
vt 0.3165 0.6894 0.0000
vt 0.3152 0.6269 0.0000
vt 0.5025 0.6197 0.0000
vt 0.5038 0.6821 0.0000
vt 0.3124 0.6181 0.0000
vt 0.5195 0.6232 0.0000
vt 0.5174 0.6890 0.0000
vt 0.3103 0.6838 0.0000
vt 0.4111 0.9049 0.0000
vt 0.4111 0.9696 0.0000
vt 0.3355 0.9731 0.0000
vt 0.3355 0.9084 0.0000
vt 0.0239 0.6998 0.0000
vt 0.0257 0.6200 0.0000
vt 0.1187 0.6232 0.0000
vt 0.1169 0.7031 0.0000
vt 0.4439 0.7485 0.0000
vt 0.4439 0.8384 0.0000
vt 0.3452 0.8336 0.0000
vt 0.3452 0.7437 0.0000
vt 0.8760 0.6590 0.0000
vt 0.9488 0.6600 0.0000
vt 0.9432 0.8827 0.0000
vt 0.8704 0.8818 0.0000
vt 0.5077 0.6931 0.0000
vt 0.3163 0.6796 0.0000
vt 0.3210 0.6168 0.0000
vt 0.5124 0.6303 0.0000
vt 0.3467 0.8346 0.0000
vt 0.3402 0.7480 0.0000
vt 0.4497 0.7497 0.0000
vt 0.4562 0.8362 0.0000
vt 0.4048 0.9162 0.0000
vt 0.4019 0.9740 0.0000
vt 0.3419 0.9677 0.0000
vt 0.3448 0.9099 0.0000
vt 0.4434 0.7461 0.0000
vt 0.4378 0.8374 0.0000
vt 0.3449 0.8391 0.0000
vt 0.3504 0.7478 0.0000
vt 0.5127 0.6340 0.0000
vt 0.5090 0.6923 0.0000
vt 0.2975 0.6764 0.0000
vt 0.3012 0.6181 0.0000
vt 0.2919 0.6608 0.0000
vt 0.2928 0.7172 0.0000
vt 0.2413 0.7453 0.0000
vt 0.1998 0.6097 0.0000
vt 0.1811 0.7463 0.0000
vt 0.1487 0.6972 0.0000
vt 0.1491 0.6406 0.0000
vt 0.2608 0.6115 0.0000
vt 0.3009 0.6779 0.0000
vt 0.3041 0.6416 0.0000
vt 0.5256 0.6610 0.0000
vt 0.5223 0.6973 0.0000
vt 0.3113 0.6408 0.0000
vt 0.3072 0.6086 0.0000
vt 0.5386 0.6280 0.0000
vt 0.5427 0.6602 0.0000
vt 0.3097 0.6795 0.0000
vt 0.5411 0.6989 0.0000
vt 0.5279 0.6636 0.0000
vt 0.5310 0.6944 0.0000
vt 0.3074 0.6846 0.0000
vt 0.3043 0.6537 0.0000
vt 0.5286 0.6231 0.0000
vt 0.3050 0.6133 0.0000
vt 0.5327 0.6614 0.0000
vt 0.5248 0.6929 0.0000
vt 0.3024 0.6843 0.0000
vt 0.3102 0.6527 0.0000
vt 0.5348 0.6210 0.0000
vt 0.3124 0.6124 0.0000
vt 0.3101 0.6137 0.0000
vt 0.5315 0.6331 0.0000
vt 0.9778 0.6312 0.0000
vt 0.6942 0.6359 0.0000
vt 0.6922 0.6018 0.0000
vt 0.9757 0.5970 0.0000
vt 0.6320 0.6391 0.0000
vt 0.2865 0.6444 0.0000
vt 0.2841 0.6178 0.0000
vt 0.6296 0.6124 0.0000
# 188 texture coords

g Box03
usemtl wire_006134113
s 2
f 1/1/1 2/2/1 3/3/1 4/4/1 
s 8
f 1/5/2 4/6/3 5/7/4 6/8/5 
f 1/5/2 6/8/5 7/9/6 8/10/7 
s 16
f 4/11/8 3/12/8 9/13/8 5/14/8 
s 32
f 3/15/9 2/16/10 10/17/11 11/18/12 
f 3/15/9 11/18/12 9/19/13 
s 64
f 1/20/14 8/21/15 10/22/16 2/23/17 
s 4
f 12/24/18 13/25/18 14/26/18 15/27/18 
s off
f 13/28/19 12/29/19 16/30/19 17/31/19 
f 14/32/20 13/33/20 17/34/20 18/35/20 
f 14/32/21 18/35/21 19/36/21 
f 15/37/22 14/38/22 19/39/22 20/40/22 
f 12/41/23 15/42/23 20/43/23 16/44/23 
s 8
f 21/45/24 22/46/24 23/47/24 24/48/24 
s off
f 22/49/25 21/50/25 25/51/25 26/52/25 
f 24/53/26 23/54/26 27/55/26 28/56/26 
s 8
f 29/57/27 30/58/28 31/59/29 32/60/30 
f 31/59/29 33/61/31 34/62/32 32/60/30 
f 34/62/32 35/63/33 32/60/30 
f 29/57/27 32/60/30 36/64/34 
s off
f 29/65/35 36/66/35 37/67/35 38/68/35 
f 31/69/36 30/70/36 39/71/36 40/72/36 
f 34/73/37 33/74/37 41/75/37 42/76/37 
f 32/77/38 35/78/38 43/79/38 44/80/38 
f 30/81/39 29/65/39 38/68/39 39/82/39 
f 33/83/40 31/69/40 40/72/40 41/84/40 
f 35/85/41 34/73/41 42/76/41 43/86/41 
f 36/87/42 32/77/42 44/80/42 37/88/42 
f 45/89/43 46/90/43 47/91/43 48/92/43 
f 47/93/44 46/94/44 49/95/44 50/96/44 
f 50/97/45 49/98/45 51/99/45 52/100/45 
f 52/101/46 51/102/46 53/103/46 54/104/46 
f 54/105/47 53/106/47 55/107/47 56/108/47 
f 57/109/48 58/110/48 59/111/48 60/112/48 
f 59/113/49 58/114/49 61/115/49 62/116/49 
f 62/117/50 61/118/50 63/119/50 64/120/50 
f 64/121/51 63/122/51 65/123/51 66/124/51 
f 66/125/52 65/126/52 67/127/52 68/128/52 
f 69/129/53 70/130/53 71/131/53 72/132/53 
f 71/133/54 70/134/54 73/135/54 74/136/54 
f 74/137/55 73/138/55 75/139/55 76/140/55 
f 76/141/56 75/142/56 77/143/56 78/144/56 
f 78/145/57 77/146/57 79/147/57 80/148/57 
s 8
f 81/149/58 82/150/59 83/151/60 84/152/61 
f 83/151/60 85/153/62 86/154/63 84/152/61 
f 86/154/63 87/155/64 84/152/61 
f 81/149/58 84/152/61 88/156/65 
s off
f 82/157/66 81/158/66 89/159/66 90/160/66 
f 83/161/67 82/162/67 90/163/67 91/164/67 
f 85/165/68 83/161/68 91/164/68 92/166/68 
f 86/167/69 85/168/69 92/169/69 93/170/69 
f 87/171/70 86/167/70 93/170/70 94/172/70 
f 84/173/71 87/174/71 94/175/71 95/176/71 
f 88/177/72 84/173/72 95/176/72 96/178/72 
f 81/158/73 88/179/73 96/180/73 89/159/73 
f 97/181/74 98/182/74 99/183/74 100/184/74 
f 101/185/75 102/186/75 103/187/75 104/188/75 
s 8
f 105/149/76 106/150/77 107/151/78 108/152/79 
f 107/151/78 109/153/80 110/154/81 108/152/79 
f 110/154/81 111/155/82 108/152/79 
f 105/149/76 108/152/79 112/156/83 
s off
f 106/157/84 105/158/84 113/159/84 114/160/84 
f 107/161/85 106/162/85 114/163/85 115/164/85 
f 109/165/86 107/161/86 115/164/86 116/166/86 
f 110/167/87 109/168/87 116/169/87 117/170/87 
f 111/171/88 110/167/88 117/170/88 118/172/88 
f 108/173/89 111/174/89 118/175/89 119/176/89 
f 112/177/90 108/173/90 119/176/90 120/178/90 
f 105/158/91 112/179/91 120/180/91 113/159/91 
s 8
f 121/149/92 122/150/93 123/151/94 124/152/95 
f 123/151/94 125/153/96 126/154/97 124/152/95 
f 126/154/97 127/155/98 124/152/95 
f 121/149/92 124/152/95 128/156/99 
s off
f 122/157/100 121/158/100 129/159/100 130/160/100 
f 123/161/101 122/162/101 130/163/101 131/164/101 
f 125/165/102 123/161/102 131/164/102 132/166/102 
f 126/167/103 125/168/103 132/169/103 133/170/103 
f 127/171/104 126/167/104 133/170/104 134/172/104 
f 124/173/105 127/174/105 134/175/105 135/176/105 
f 128/177/106 124/173/106 135/176/106 136/178/106 
f 121/158/107 128/179/107 136/180/107 129/159/107 
# 71 polygons - 10 triangles

