# 3ds Max Wavefront OBJ Exporter v0.97b - (c)2007 guruware
# File Created: 20.07.2011 19:44:57

mtllib envelope.mtl

#
# object Plane
#

v  -19.3436 -0.5830 14.9743
v  -19.3028 -0.5130 -22.6877
v  62.4637 -0.8313 -22.3527
v  62.4229 -0.9013 15.3093
v  -19.2988 0.8425 -22.6852
v  -19.3395 0.7725 14.9768
v  62.4677 0.5242 -22.3502
v  62.4269 0.4542 15.3118
# 8 vertices

vn -0.0039 -1.0000 -0.0019
vn -1.0000 0.0030 -0.0011
vn 0.0041 0.0018 -1.0000
vn 1.0000 -0.0030 0.0011
vn -0.0041 -0.0018 1.0000
vn 0.0039 1.0000 0.0019
# 6 vertex normals

vt -0.9996 0.5008 0.0000
vt -0.9996 -0.0005 0.0000
vt 0.0025 0.0007 0.0000
vt 0.0047 0.5020 0.0000
vt -0.8990 0.7329 0.0000
vt -0.9007 0.7170 0.0000
vt -0.4867 0.7054 0.0000
vt -0.4850 0.7213 0.0000
vt -0.1138 0.6069 0.0000
vt -0.1162 0.6194 0.0000
vt -0.9007 0.6030 0.0000
vt -0.8983 0.5905 0.0000
vt -0.0444 0.7054 0.0000
vt -0.0455 0.7213 0.0000
vt -0.4597 0.7252 0.0000
vt -0.4586 0.7092 0.0000
vt -0.8988 0.6657 0.0000
vt -0.9007 0.6531 0.0000
vt -0.1162 0.6675 0.0000
vt -0.1142 0.6801 0.0000
vt -0.0015 1.0008 0.0000
vt -0.9998 1.0008 0.0000
vt -0.9983 0.5018 0.0000
vt -0.0014 0.5018 0.0000
# 24 texture coords

g Plane
usemtl Material__37
s off
f 1/1/1 2/2/1 3/3/1 4/4/1 
f 5/5/2 2/6/2 1/7/2 6/8/2 
f 2/9/3 5/10/3 7/11/3 3/12/3 
f 8/13/4 4/14/4 3/15/4 7/16/4 
f 6/17/5 1/18/5 4/19/5 8/20/5 
f 6/21/6 8/22/6 7/23/6 5/24/6 
# 6 polygons

