# 3ds Max Wavefront OBJ Exporter v0.97b - (c)2007 guruware
# File Created: 26.05.2011 23:05:47

mtllib backpack_traveller_type.mtl

#
# object Sphere01
#

v  -1.1835 28.9944 -17.6733
v  -7.3684 40.3897 -16.5846
v  5.7001 40.3897 -17.7859
v  5.7001 28.9944 -19.6945
v  -5.8817 28.9944 -14.6796
v  -2.1219 40.3897 -14.5174
v  -8.1675 28.9164 -9.6305
v  -1.7904 37.1414 -6.8669
v  -5.1873 28.9164 -3.5272
v  -0.0190 35.0005 -3.8769
v  -0.1486 29.4709 0.5983
v  3.5681 32.2090 -1.5106
v  11.2371 29.4750 0.5983
v  7.8321 32.2090 -1.5106
v  16.1917 28.9164 -2.9116
v  11.4192 35.0005 -3.8769
v  13.1905 37.1414 -6.8669
v  19.8051 28.9164 -10.1573
v  17.2818 28.9944 -14.6796
v  13.5221 40.3897 -14.5174
v  12.5837 28.9944 -17.6733
v  18.7892 40.3897 -16.5846
v  -1.7904 12.8737 -18.6175
v  5.7001 12.8737 -20.8169
v  -6.9027 13.4521 -14.9776
v  -8.0137 14.2970 -10.6937
v  -0.5959 16.8317 2.0897
v  -4.7706 15.9926 -3.5307
v  16.1708 15.9926 -3.5307
v  11.6811 16.8317 2.0897
v  18.3028 13.4521 -14.9776
v  19.4138 14.2970 -10.6937
v  13.1905 12.8737 -18.6175
v  -0.0190 2.3679 -15.8613
v  5.7001 2.3679 -17.5406
v  -3.9224 2.3679 -13.7849
v  -4.7706 2.3679 -10.1917
v  1.0502 2.3679 -0.9185
v  -2.2945 2.3679 -4.1411
v  13.6947 2.3679 -4.1411
v  10.5000 2.3679 -0.9185
v  15.3225 2.3679 -13.7849
v  16.1708 2.3679 -10.1917
v  11.4192 2.3679 -15.8613
v  5.7001 -0.4821 -9.3904
v  -7.2107 41.0690 -13.7913
v  5.7001 42.9297 -13.9890
v  18.6315 41.0690 -13.7913
v  -2.7838 38.4372 -5.6654
v  5.7001 40.2083 -4.2459
v  14.1840 38.4372 -5.6654
v  1.4278 32.8079 -1.6863
v  5.7001 33.3701 -0.6247
v  9.9723 32.8079 -1.6863
v  -10.5434 14.1410 -8.9088
v  -7.3004 2.2120 -8.4068
v  -4.8243 2.2120 -2.3561
v  -7.3004 15.8367 -1.7458
v  -0.5959 16.8154 5.1897
v  1.0502 1.6329 1.5596
v  10.5000 1.6329 1.5596
v  11.6811 16.8154 5.1897
v  16.6374 15.8367 -1.1171
v  16.2462 2.2120 -0.5781
v  20.5557 2.2120 -8.8184
v  21.8660 14.1410 -10.2375
v  -9.4377 26.6076 -6.6499
v  -11.4517 14.8329 -2.3890
v  -8.5921 4.5074 -2.4432
v  5.7001 28.1653 3.7372
v  5.7001 16.7991 6.3679
v  5.7001 4.1413 4.5741
v  20.8379 26.6076 -6.6499
v  22.8519 14.8329 -2.3890
v  19.9923 4.5074 -2.4432
# 75 vertices

vn -0.3659 0.0287 -0.9302
vn -0.9784 0.1240 -0.1654
vn -0.0347 0.1264 -0.9914
vn -0.0249 0.0912 -0.9955
vn -0.8070 0.0591 -0.5876
vn -0.7273 0.3469 0.5923
vn -0.9439 0.3087 -0.1175
vn -0.7388 0.5254 0.4221
vn -0.7072 0.3554 0.6112
vn -0.4411 0.5511 0.7083
vn -0.4251 0.4444 0.7885
vn -0.0090 0.6179 0.7862
vn 0.4655 0.5523 0.6916
vn 0.1449 0.6060 0.7822
vn 0.6258 0.3417 0.7012
vn 0.4235 0.4564 0.7825
vn 0.8139 0.4884 0.3148
vn 0.8713 0.4343 -0.2286
vn 0.7555 0.2522 -0.6047
vn 0.8491 0.0144 0.5280
vn 0.4432 0.0348 -0.8958
vn 0.9309 -0.3627 -0.0442
vn -0.4324 -0.1065 -0.8954
vn 0.0000 -0.1125 -0.9937
vn -0.8295 -0.1031 -0.5490
vn -0.9638 -0.0804 -0.2542
vn -0.7682 -0.0895 0.6339
vn -0.7796 -0.1189 0.6150
vn 0.7508 -0.0605 0.6577
vn 0.7742 -0.0247 0.6324
vn 0.8197 -0.1336 -0.5569
vn 0.9653 -0.1278 -0.2279
vn 0.4387 -0.1217 -0.8903
vn -0.2783 -0.6796 -0.6788
vn 0.0000 -0.6568 -0.7541
vn -0.6000 -0.6611 -0.4506
vn -0.5981 -0.7970 -0.0842
vn -0.4176 -0.7534 0.5080
vn -0.4758 -0.7663 0.4316
vn 0.4831 -0.7751 0.4072
vn 0.4129 -0.7552 0.5090
vn 0.6003 -0.6466 -0.4706
vn 0.5999 -0.7952 -0.0875
vn 0.2948 -0.6699 -0.6814
vn -0.0001 -0.9999 -0.0139
vn -0.0876 0.8959 -0.4355
vn 0.0875 0.8959 -0.4355
vn -0.1763 0.9301 0.3223
vn 0.1761 0.9301 0.3225
vn -0.2485 0.4416 0.8621
vn 0.2485 0.4416 0.8621
vn -0.5779 0.0531 -0.8144
vn -0.5588 -0.1859 -0.8082
vn 0.0478 -0.9987 -0.0195
vn 0.5724 0.0674 0.8172
vn 0.5757 0.0183 0.8175
vn -0.9994 0.0354 0.0002
vn -0.9941 -0.1072 -0.0144
vn -0.0000 -0.9587 -0.2843
vn 0.9970 -0.0771 -0.0104
vn 0.9994 0.0351 0.0002
vn -0.9819 -0.0075 0.1893
vn -0.8869 0.0921 0.4527
vn -0.0336 -0.9993 -0.0159
vn 0.2511 -0.1252 -0.9598
vn 0.1847 0.0311 -0.9823
vn -0.6164 0.7277 0.3010
vn -0.9717 0.1228 -0.2019
vn -0.9585 -0.2650 -0.1055
vn -0.5122 -0.8329 0.2096
vn -0.0998 -0.0498 0.9938
vn -0.4828 0.2817 0.8292
vn -0.0003 0.9231 0.3846
vn -0.2943 0.2802 0.9137
vn -0.3106 -0.1994 0.9294
vn 0.0000 -0.7687 0.6396
vn 0.3162 -0.1943 0.9286
vn 0.3087 0.2790 0.9093
vn 0.6085 0.7332 0.3035
vn 0.4678 0.2526 0.8470
vn 0.3029 -0.0218 0.9528
vn 0.6052 -0.7305 0.3165
vn 0.9830 -0.1836 0.0094
vn 0.9797 0.1258 -0.1562
# 84 vertex normals

vt 0.4260 0.4293 0.0000
vt 0.5096 0.6049 0.0000
vt 0.3353 0.6064 0.0000
vt 0.3342 0.4301 0.0000
vt 0.4889 0.4281 0.0000
vt 0.5610 0.6074 0.0000
vt 0.5076 0.6060 0.0000
vt 0.4265 0.4294 0.0000
vt 0.5849 0.4273 0.0000
vt 0.6289 0.5515 0.0000
vt 0.6303 0.3961 0.0000
vt 0.6739 0.5029 0.0000
vt 0.7194 0.3742 0.0000
vt 0.7670 0.4254 0.0000
vt 0.6900 0.4451 0.0000
vt 0.6564 0.3715 0.0000
vt 0.8889 0.3739 0.0000
vt 0.8371 0.4250 0.0000
vt 0.9701 0.3699 0.0000
vt 0.9178 0.4483 0.0000
vt 0.0682 0.5713 0.0000
vt 0.0154 0.5251 0.0000
vt 0.0486 0.4185 0.0000
vt 0.1050 0.4411 0.0000
vt 0.1723 0.4297 0.0000
vt 0.1121 0.6047 0.0000
vt 0.2409 0.4311 0.0000
vt 0.1560 0.6070 0.0000
vt 0.1555 0.6068 0.0000
vt 0.2423 0.4309 0.0000
vt 0.4325 0.1799 0.0000
vt 0.3326 0.1807 0.0000
vt 0.5008 0.1883 0.0000
vt 0.4887 0.4288 0.0000
vt 0.5581 0.2027 0.0000
vt 0.4989 0.1876 0.0000
vt 0.6780 0.2037 0.0000
vt 0.6559 0.3717 0.0000
vt 0.6065 0.1919 0.0000
vt 0.9926 0.1881 0.0000
vt 0.9706 0.3689 0.0000
vt 0.8893 0.3745 0.0000
vt 0.9214 0.2046 0.0000
vt 0.1630 0.1873 0.0000
vt 0.0996 0.2148 0.0000
vt 0.2327 0.1816 0.0000
vt 0.1708 0.4288 0.0000
vt 0.1645 0.1911 0.0000
vt 0.4079 0.0176 0.0000
vt 0.3316 0.0182 0.0000
vt 0.4599 0.0171 0.0000
vt 0.5544 0.0180 0.0000
vt 0.4601 0.0180 0.0000
vt 0.6410 0.0099 0.0000
vt 0.5999 0.0096 0.0000
vt 0.9936 0.0069 0.0000
vt 0.9948 0.1893 0.0000
vt 0.9239 0.2044 0.0000
vt 0.9526 0.0091 0.0000
vt 0.2024 0.0196 0.0000
vt 0.0828 0.0312 0.0000
vt 0.2553 0.0189 0.0000
vt 0.2032 0.0193 0.0000
vt 0.8046 0.5189 0.0000
vt 0.7410 0.4499 0.0000
vt 0.8028 0.4304 0.0000
vt 0.6990 0.4734 0.0000
vt 0.6906 0.5126 0.0000
vt 0.7189 0.5778 0.0000
vt 0.7560 0.6121 0.0000
vt 0.8587 0.6099 0.0000
vt 0.8927 0.5742 0.0000
vt 0.9182 0.5079 0.0000
vt 0.9082 0.4690 0.0000
vt 0.8653 0.4473 0.0000
vt 0.8281 0.9957 0.0000
vt 0.6595 0.9798 0.0000
vt 0.6614 0.9421 0.0000
vt 0.8280 0.9444 0.0000
vt 0.9969 0.9791 0.0000
vt 0.9948 0.9413 0.0000
vt 0.7183 0.8320 0.0000
vt 0.8277 0.8126 0.0000
vt 0.9372 0.8315 0.0000
vt 0.8284 0.8096 0.0000
vt 0.7194 0.8336 0.0000
vt 0.7728 0.7040 0.0000
vt 0.8262 0.6640 0.0000
vt 0.9366 0.8310 0.0000
vt 0.8809 0.7054 0.0000
vt 0.2569 0.6296 0.0000
vt 0.3058 0.8140 0.0000
vt 0.2709 0.8117 0.0000
vt 0.3234 0.9902 0.0000
vt 0.2696 0.9871 0.0000
vt 0.6918 0.5978 0.0000
vt 0.6636 0.5326 0.0000
vt 0.0135 0.9850 0.0000
vt 0.0306 0.8034 0.0000
vt 0.0816 0.8078 0.0000
vt 0.0821 0.9850 0.0000
vt 0.0866 0.6296 0.0000
vt 0.7203 0.2028 0.0000
vt 0.7188 0.0117 0.0000
vt 0.8592 0.6369 0.0000
vt 0.7566 0.6390 0.0000
vt 0.8854 0.2005 0.0000
vt 0.8911 0.0063 0.0000
vt 0.8881 0.3712 0.0000
vt 0.3930 0.9858 0.0000
vt 0.3333 0.7981 0.0000
vt 0.3929 0.7977 0.0000
vt 0.3068 0.6315 0.0000
vt 0.3837 0.6356 0.0000
vt 0.9662 0.5218 0.0000
vt 0.9212 0.6123 0.0000
vt 0.6372 0.6246 0.0000
vt 0.6096 0.7982 0.0000
vt 0.5665 0.7990 0.0000
vt 0.5605 0.6318 0.0000
vt 0.5668 0.9834 0.0000
vt 0.0850 0.6301 0.0000
vt 0.2567 0.6299 0.0000
vt 0.1766 0.6857 0.0000
vt 0.1714 0.8118 0.0000
vt 0.1757 0.6847 0.0000
vt 0.1731 0.9865 0.0000
vt 0.1729 0.8114 0.0000
vt 0.2689 0.8110 0.0000
vt 0.2683 0.9838 0.0000
vt 0.6509 0.5977 0.0000
vt 0.1728 0.8123 0.0000
vt 0.1735 0.9860 0.0000
vt 0.1759 0.6843 0.0000
vt 0.8909 0.3736 0.0000
vt 0.8020 0.3469 0.0000
vt 0.7212 0.2016 0.0000
vt 0.8002 0.2009 0.0000
vt 0.8011 0.3480 0.0000
vt 0.7204 0.2017 0.0000
vt 0.7182 0.0106 0.0000
vt 0.8022 0.0092 0.0000
vt 0.8022 0.1994 0.0000
vt 0.8078 0.6707 0.0000
vt 0.8866 0.2006 0.0000
vt 0.8852 0.1998 0.0000
vt 0.8891 0.3733 0.0000
vt 0.8020 0.3472 0.0000
vt 0.8012 0.2006 0.0000
vt 0.5675 0.9857 0.0000
vt 0.3899 0.9859 0.0000
vt 0.4728 0.9487 0.0000
vt 0.3931 0.9850 0.0000
vt 0.3938 0.7987 0.0000
vt 0.4729 0.7988 0.0000
vt 0.4738 0.9493 0.0000
vt 0.3861 0.6369 0.0000
vt 0.4808 0.6376 0.0000
vt 0.9615 0.5912 0.0000
vt 0.5605 0.6309 0.0000
vt 0.5670 0.7970 0.0000
vt 0.4740 0.7973 0.0000
vt 0.4809 0.6384 0.0000
vt 0.5669 0.9858 0.0000
vt 0.4749 0.9500 0.0000
# 165 texture coords

g Sphere01
usemtl wire_166229229
s 1
f 1/1/1 2/2/2 3/3/3 4/4/4 
f 5/5/5 6/6/6 2/7/2 1/8/1 
f 7/9/7 8/10/8 6/6/6 5/5/5 
f 9/11/9 10/12/10 8/10/8 7/9/7 
f 11/13/11 12/14/12 10/15/10 9/16/9 
f 13/17/13 14/18/14 12/14/12 11/13/11 
f 15/19/15 16/20/16 14/18/14 13/17/13 
f 17/21/17 16/22/16 15/23/15 18/24/18 
f 19/25/19 20/26/20 17/21/17 18/24/18 
f 21/27/21 22/28/22 20/26/20 19/25/19 
f 4/4/4 3/3/3 22/29/22 21/30/21 
f 23/31/23 1/1/1 4/4/4 24/32/24 
f 25/33/25 5/34/5 1/1/1 23/31/23 
f 26/35/26 7/9/7 5/5/5 25/36/25 
f 27/37/27 11/13/11 9/38/9 28/39/28 
f 29/40/29 15/41/15 13/42/13 30/43/30 
f 31/44/31 19/25/19 18/24/18 32/45/32 
f 33/46/33 21/30/21 19/47/19 31/48/31 
f 24/32/24 4/4/4 21/30/21 33/46/33 
f 34/49/34 23/31/23 24/32/24 35/50/35 
f 36/51/36 25/33/25 23/31/23 34/49/34 
f 37/52/37 26/35/26 25/36/25 36/53/36 
f 38/54/38 27/37/27 28/39/28 39/55/39 
f 40/56/40 29/57/29 30/58/30 41/59/41 
f 42/60/42 31/44/31 32/45/32 43/61/43 
f 44/62/44 33/46/33 31/48/31 42/63/42 
f 35/50/35 24/32/24 33/46/33 44/62/44 
f 45/64/45 34/65/34 35/66/35 
f 45/64/45 36/67/36 34/65/34 
f 45/64/45 37/68/37 36/67/36 
f 45/64/45 39/69/39 37/68/37 
f 45/64/45 38/70/38 39/69/39 
f 45/64/45 41/71/41 38/70/38 
f 45/64/45 40/72/40 41/71/41 
f 45/64/45 43/73/43 40/72/40 
f 45/64/45 42/74/42 43/73/43 
f 45/64/45 44/75/44 42/74/42 
f 45/64/45 35/66/35 44/75/44 
s off
f 3/76/46 2/77/46 46/78/46 47/79/46 
f 22/80/47 3/76/47 47/79/47 48/81/47 
f 47/79/48 46/78/48 49/82/48 50/83/48 
f 48/81/49 47/79/49 50/83/49 51/84/49 
f 50/85/50 49/86/50 52/87/50 53/88/50 
f 51/89/51 50/85/51 53/88/51 54/90/51 
f 7/91/52 26/92/52 55/93/52 
f 26/92/53 37/94/53 56/95/53 55/93/53 
f 37/68/54 39/69/54 57/96/54 56/97/54 
f 39/98/55 28/99/55 58/100/55 57/101/55 
f 28/99/56 9/102/56 58/100/56 
f 11/13/57 27/37/57 59/103/57 
f 27/37/58 38/54/58 60/104/58 59/103/58 
f 38/70/59 41/71/59 61/105/59 60/106/59 
f 41/59/60 30/58/60 62/107/60 61/108/60 
f 30/58/61 13/109/61 62/107/61 
f 15/110/62 29/111/62 63/112/62 
f 29/111/63 40/113/63 64/114/63 63/112/63 
f 40/72/64 43/73/64 65/115/64 64/116/64 
f 43/117/65 32/118/65 66/119/65 65/120/65 
f 32/118/66 18/121/66 66/119/66 
f 9/122/67 7/123/67 67/124/67 
f 7/91/68 55/93/68 68/125/68 67/126/68 
f 55/127/69 56/128/69 69/129/69 68/130/69 
f 56/97/70 57/96/70 69/131/70 
f 57/101/71 58/100/71 68/132/71 69/133/71 
f 58/100/72 9/102/72 67/134/72 68/132/72 
f 13/135/73 11/13/73 70/136/73 
f 11/13/74 59/137/74 71/138/74 70/139/74 
f 59/140/75 60/141/75 72/142/75 71/143/75 
f 60/106/76 61/105/76 72/144/76 
f 61/108/77 62/145/77 71/143/77 72/142/77 
f 62/146/78 13/147/78 70/148/78 71/149/78 
f 18/150/79 15/151/79 73/152/79 
f 15/153/80 63/154/80 74/155/80 73/156/80 
f 63/154/81 64/157/81 75/158/81 74/155/81 
f 64/116/82 65/115/82 75/159/82 
f 65/160/83 66/161/83 74/162/83 75/163/83 
f 66/161/84 18/164/84 73/165/84 74/162/84 
# 54 polygons - 23 triangles

