# 3ds Max Wavefront OBJ Exporter v0.97b - (c)2007 guruware
# File Created: 07.11.2011 21:55:45

mtllib capaciator.mtl

#
# object turboplas
#

v  0.8017 1.3637 -1.2088
v  0.7579 1.2695 -1.1766
v  1.0082 1.2695 -0.8369
v  1.0520 1.3637 -0.8692
v  1.1396 1.3637 -0.9337
v  0.8892 1.3637 -1.2734
v  0.9330 1.2695 -1.3056
v  1.1834 1.2695 -0.9660
v  0.8892 1.1753 -1.2734
v  1.1396 1.1753 -0.9337
v  0.8017 1.1753 -1.2088
v  1.0520 1.1753 -0.8692
v  1.8383 1.1800 0.2354
v  1.4590 1.1064 -0.1254
v  1.4523 1.0897 -0.1055
v  1.4401 1.0660 -0.0805
v  1.4109 1.0073 -0.0424
v  0.9807 0.9355 -0.5005
v  0.7408 0.9040 -0.7708
v  0.8770 1.0082 -0.7932
v  1.0357 1.0192 -0.5973
v  0.8000 1.1602 -1.1636
v  0.8347 1.2362 -1.2495
v  1.0819 1.2362 -0.9140
v  1.0279 1.1602 -0.8543
v  1.0371 1.1115 -0.7568
v  0.7392 1.0731 -1.0937
v  0.8847 1.0603 -0.8740
v  1.0460 1.0666 -0.6661
v  0.8655 1.0230 -0.7848
v  1.0242 1.0340 -0.5888
v  1.4516 1.0512 -0.0889
v  1.0705 1.2510 -0.9056
v  0.8232 1.2510 -1.2411
v  0.7885 1.1750 -1.1552
v  1.0165 1.1750 -0.8459
v  0.7277 1.0879 -1.0853
v  1.0256 1.1263 -0.7483
v  1.0346 1.0814 -0.6577
v  0.8732 1.0751 -0.8655
v  1.4637 1.0749 -0.1139
v  1.4705 1.0916 -0.1339
v  1.8931 1.3658 0.1950
v  1.5956 1.4826 -0.2261
v  1.6027 1.5066 -0.2163
v  1.6104 1.5407 -0.2060
v  1.6100 1.6147 -0.1892
v  1.2398 1.7182 -0.6915
v  1.0262 1.7636 -0.9812
v  1.0552 1.6028 -0.9246
v  1.2047 1.5869 -0.7218
v  0.8512 1.3837 -1.2014
v  0.8224 1.2742 -1.2405
v  1.0697 1.2742 -0.9050
v  1.0792 1.3837 -0.8921
v  1.1290 1.4539 -0.8245
v  0.8632 1.5093 -1.1851
v  1.0194 1.5277 -0.9733
v  1.1754 1.5186 -0.7615
v  1.0718 1.6028 -0.9368
v  1.2212 1.5869 -0.7340
v  1.5938 1.5407 -0.1938
v  1.0862 1.2742 -0.9172
v  0.8389 1.2742 -1.2527
v  0.8678 1.3837 -1.2136
v  1.0957 1.3837 -0.9043
v  0.8797 1.5093 -1.1973
v  1.1455 1.4539 -0.8367
v  1.1920 1.5186 -0.7737
v  1.0359 1.5277 -0.9854
v  1.5862 1.5066 -0.2042
v  1.5790 1.4826 -0.2139
v  1.9487 1.1800 0.1540
v  1.8099 1.0073 -0.3365
v  1.7649 1.0660 -0.3198
v  1.7374 1.0897 -0.3156
v  1.7163 1.1064 -0.3151
v  1.4996 0.9355 -0.8830
v  1.3910 1.0192 -0.8591
v  1.2508 1.0082 -1.0687
v  1.3125 0.9040 -1.1922
v  1.0747 1.2362 -0.9087
v  0.8274 1.2362 -1.2442
v  0.9198 1.1602 -1.2519
v  1.1477 1.1602 -0.9426
v  1.0045 1.0731 -1.2893
v  1.2382 1.1115 -0.9050
v  1.3221 1.0666 -0.8696
v  1.1713 1.0603 -1.0853
v  1.2622 1.0230 -1.0771
v  1.4024 1.0340 -0.8676
v  1.7534 1.0512 -0.3114
v  0.9312 1.1750 -1.2603
v  0.8389 1.2510 -1.2527
v  1.0862 1.2510 -0.9172
v  1.1592 1.1750 -0.9511
v  1.2497 1.1263 -0.9135
v  1.0160 1.0879 -1.2977
v  1.1828 1.0751 -1.0937
v  1.3336 1.0814 -0.8781
v  1.7259 1.0749 -0.3071
v  1.7048 1.0916 -0.3066
v  0.3041 1.2560 -0.2177
v  0.3863 1.1137 -0.2177
v  0.3863 1.1137 -1.4050
v  0.3041 1.2560 -1.4050
v  0.1397 1.2560 -0.2177
v  0.1397 1.2560 -1.4050
v  0.0575 1.1137 -1.4050
v  0.0575 1.1137 -0.2177
v  0.1397 0.9713 -0.2177
v  0.1397 0.9713 -1.4050
v  0.3041 0.9713 -0.2177
v  0.3041 0.9713 -1.4050
v  0.2219 1.1137 -1.4854
v  0.2219 1.1137 -0.1373
v  0.1445 1.4163 -0.2177
v  0.1434 1.2520 -0.2177
v  0.1434 1.2520 -1.4050
v  0.1445 1.4163 -1.4050
v  0.0027 1.4995 -0.2177
v  0.0027 1.4995 -1.4050
v  -0.1402 1.4183 -0.2177
v  -0.1402 1.4183 -1.4050
v  -0.1413 1.2539 -0.2177
v  -0.1413 1.2539 -1.4050
v  0.0016 1.3351 -1.4854
v  0.0005 1.1707 -1.4050
v  0.0016 1.3351 -0.1373
v  0.0005 1.1707 -0.2177
v  -0.1385 1.2560 -0.2177
v  -0.0563 1.1137 -0.2177
v  -0.0563 1.1137 -1.4050
v  -0.1385 1.2560 -1.4050
v  -0.3028 1.2560 -1.4050
v  -0.3028 1.2560 -0.2177
v  -0.3850 1.1137 -0.2177
v  -0.3850 1.1137 -1.4050
v  -0.3028 0.9713 -0.2177
v  -0.3028 0.9713 -1.4050
v  -0.1385 0.9713 -0.2177
v  -0.1385 0.9713 -1.4050
v  -0.2206 1.1137 -1.4854
v  -0.2206 1.1137 -0.1373
v  0.1839 1.0056 0.1564
v  0.1798 1.0056 0.2088
v  0.5285 1.0056 0.4998
v  0.5326 1.0056 0.4474
v  0.6295 1.0056 0.6400
v  0.6794 1.0056 0.6236
v  0.5472 1.0056 0.8201
v  0.5848 1.0056 0.8569
v  -0.1188 1.0056 0.8484
v  -0.1285 1.0056 0.9001
v  -0.2364 1.0056 0.4813
v  -0.2849 1.0056 0.5015
v  -0.1919 1.1320 -0.1526
v  -0.2445 1.1320 -0.1526
v  0.3958 1.0174 0.2068
v  0.3917 1.0174 0.2592
v  0.6715 1.0174 0.2812
v  0.6756 1.0174 0.2288
v  0.7725 1.0174 0.4213
v  0.8224 1.0174 0.4049
v  0.6903 1.0174 0.6015
v  0.7278 1.0174 0.6383
v  0.0975 1.0174 0.5382
v  0.0878 1.0174 0.5899
v  -0.0200 1.0174 0.1711
v  -0.0686 1.0174 0.1913
v  0.0244 1.3289 -0.1526
v  -0.0282 1.3289 -0.1526
v  -0.1767 1.0063 0.1494
v  -0.1808 1.0063 0.2018
v  0.4881 1.0063 0.1421
v  0.4923 1.0063 0.0898
v  0.5892 1.0063 0.2823
v  0.6391 1.0063 0.2659
v  0.6039 1.0063 0.5440
v  0.6414 1.0063 0.5808
v  0.1171 1.0063 0.7593
v  0.1074 1.0063 0.8109
v  -0.0005 1.0063 0.3921
v  -0.0490 1.0063 0.4123
v  0.2390 1.1389 -0.1526
v  0.1864 1.1389 -0.1526
# 186 vertices

vn -0.6971 0.5000 0.5138
vn -0.8050 -0.0000 0.5933
vn -0.0000 1.0000 -0.0000
vn 0.4025 0.8660 -0.2966
vn 0.6400 0.6065 -0.4717
vn 0.0000 1.0000 -0.0000
vn 0.8050 -0.0000 -0.5933
vn 0.4025 -0.8660 -0.2966
vn -0.4025 -0.8660 0.2966
vn 0.5933 0.0000 0.8050
vn 0.5933 -0.0000 0.8050
vn -0.5681 0.6734 0.4731
vn -0.5524 0.7225 0.4158
vn -0.5505 0.7230 0.4174
vn -0.5791 0.6718 0.4618
vn -0.6040 0.6231 0.4969
vn 0.5201 -0.7691 -0.3715
vn 0.5234 -0.7650 -0.3753
vn 0.5413 -0.7427 -0.3943
vn 0.5379 -0.7465 -0.3916
vn 0.5586 -0.7201 -0.4117
vn -0.5911 0.6720 0.4462
vn -0.5983 0.6650 0.4469
vn -0.5788 0.6930 0.4297
vn -0.5654 0.7113 0.4177
vn 0.5361 -0.7524 -0.3827
vn 0.4802 -0.8077 -0.3421
vn 0.5215 -0.7693 -0.3691
vn -0.5586 0.7201 0.4117
vn 0.5665 -0.7172 -0.4059
vn 0.5647 -0.7177 -0.4075
vn -0.6177 0.6207 0.4828
vn -0.5979 0.6652 0.4473
vn 0.5743 -0.7137 -0.4010
vn 0.5734 -0.7151 -0.3997
vn 0.5189 -0.8001 -0.3010
vn 0.8285 0.0642 -0.5562
vn 0.8091 -0.0035 -0.5876
vn 0.8105 -0.0042 -0.5857
vn 0.8196 0.0668 -0.5690
vn 0.8222 0.1301 -0.5542
vn -0.7971 0.0734 0.5993
vn -0.7981 0.0670 0.5987
vn -0.8024 0.0331 0.5959
vn -0.8021 0.0389 0.5960
vn -0.8050 0.0000 0.5933
vn 0.8082 0.0670 -0.5851
vn 0.8055 0.0763 -0.5877
vn 0.8059 0.0383 -0.5908
vn 0.8054 0.0127 -0.5926
vn -0.7981 0.0478 0.6006
vn -0.7918 0.1359 0.5955
vn -0.7955 0.0738 0.6015
vn 0.8050 0.0000 -0.5933
vn -0.7994 -0.0042 0.6008
vn -0.8008 -0.0035 0.5989
vn 0.8107 0.1336 -0.5700
vn 0.8058 0.0762 -0.5872
vn -0.7942 -0.0090 0.6076
vn -0.7939 -0.0070 0.6080
vn -0.7580 0.1257 0.6401
vn 0.6201 0.6734 -0.4026
vn 0.6535 0.6231 -0.4298
vn 0.6125 0.6718 -0.4164
vn 0.5617 0.7230 -0.4023
vn 0.5606 0.7225 -0.4045
vn -0.5088 -0.7691 0.3869
vn -0.5333 -0.7465 0.3979
vn -0.5369 -0.7427 0.4003
vn -0.5134 -0.7650 0.3889
vn -0.5586 -0.7201 0.4117
vn 0.5663 0.7113 -0.4164
vn 0.5818 0.6930 -0.4257
vn 0.6040 0.6650 -0.4392
vn 0.6012 0.6720 -0.4325
vn -0.5069 -0.7693 0.3888
vn -0.4689 -0.8077 0.3575
vn -0.5242 -0.7524 0.3988
vn 0.5586 0.7201 -0.4117
vn -0.5554 -0.7172 0.4210
vn -0.5564 -0.7176 0.4188
vn 0.6043 0.6652 -0.4387
vn 0.6440 0.6207 -0.4471
vn -0.4411 -0.8001 0.4066
vn -0.5531 -0.7137 0.4298
vn -0.5515 -0.7151 0.4294
vn 0.5000 0.8660 -0.0000
vn 1.0000 -0.0000 -0.0000
vn 0.0000 1.0000 0.0000
vn -0.8660 0.5000 0.0000
vn -1.0000 -0.0000 0.0000
vn -0.9000 -0.4359 0.0000
vn -0.8660 0.5000 -0.0000
vn -0.8660 -0.5000 0.0000
vn 0.8660 -0.5000 0.0000
vn 0.3497 -0.6056 -0.7148
vn 0.0000 -0.0000 -1.0000
vn -0.4259 -0.2459 0.8707
vn 0.0000 -0.0000 1.0000
vn -0.3497 0.6056 0.7148
vn 0.4259 0.2459 -0.8707
vn 0.4259 -0.2459 0.8707
vn -0.0000 -0.4918 0.8707
vn 0.4259 0.2459 0.8707
vn -0.4259 -0.2459 -0.8707
vn -0.4259 0.2459 -0.8707
vn 0.0000 0.4918 -0.8707
vn 0.8694 0.4942 -0.0000
vn 1.0000 -0.0067 -0.0000
vn 1.0000 -0.0067 0.0000
vn 0.8694 0.4942 0.0000
vn 0.0067 1.0000 0.0000
vn -0.8626 0.5058 0.0000
vn -0.8626 0.5058 -0.0000
vn -1.0000 0.0067 -0.0000
vn -0.0047 -0.6993 -0.7148
vn -0.0000 0.0000 -1.0000
vn -0.4918 0.0033 0.8707
vn 0.0000 0.0000 1.0000
vn 0.0047 0.6993 0.7148
vn 0.4918 -0.0033 -0.8707
vn -0.0030 -0.4394 0.8983
vn -0.2488 -0.4242 0.8707
vn 0.2430 -0.4276 0.8707
vn 0.4918 -0.0033 0.8707
vn -0.4918 0.0033 -0.8707
vn -0.2430 0.4276 -0.8707
vn 0.2488 0.4242 -0.8707
vn 0.8660 0.5000 0.0000
vn 1.0000 0.0000 0.0000
vn 1.0000 0.0000 -0.0000
vn 0.8660 0.5000 -0.0000
vn -0.0000 1.0000 0.0000
vn -0.5000 0.8660 0.0000
vn -0.8275 0.5615 0.0000
vn -1.0000 0.0000 0.0000
vn -1.0000 -0.0000 -0.0000
vn -0.8660 -0.5000 -0.0000
vn 0.8660 -0.5000 -0.0000
vn 0.0000 -0.4918 0.8707
vn 0.0484 0.9920 0.1163
vn 0.0323 0.9960 0.0832
vn 0.0039 0.9817 0.1903
vn -0.0000 0.9818 0.1898
vn 0.1764 0.8884 0.4239
vn 0.1215 0.9393 0.3210
vn 0.0200 0.7383 0.6742
vn -0.0000 0.7411 0.6714
vn 0.0731 0.9817 0.1758
vn 0.0363 0.9949 0.0945
vn 0.0058 0.9729 0.2312
vn -0.0000 0.9736 0.2284
# 152 vertex normals

vt 0.7404 0.0171 0.0000
vt 0.7075 0.0171 0.0000
vt 0.7075 0.2958 0.0000
vt 0.7404 0.2958 0.0000
vt 0.5534 0.2958 0.0000
vt 0.5810 0.2958 0.0000
vt 0.5810 0.0171 0.0000
vt 0.5534 0.0171 0.0000
vt 0.6139 0.0171 0.0000
vt 0.6139 0.2958 0.0000
vt 0.6469 0.0171 0.0000
vt 0.6469 0.2958 0.0000
vt 0.6745 0.0171 0.0000
vt 0.6745 0.2958 0.0000
vt 0.6888 0.3208 0.0000
vt 0.6580 0.3030 0.0000
vt 0.6273 0.3208 0.0000
vt 0.6273 0.3563 0.0000
vt 0.6580 0.3741 0.0000
vt 0.6888 0.3563 0.0000
vt 0.1195 0.7495 0.0000
vt 0.1604 0.6233 0.0000
vt 0.1753 0.6288 0.0000
vt 0.1884 0.6319 0.0000
vt 0.2178 0.6351 0.0000
vt 0.2585 0.4856 0.0000
vt 0.2765 0.3994 0.0000
vt 0.2129 0.4144 0.0000
vt 0.2066 0.4748 0.0000
vt 0.1266 0.3320 0.0000
vt 0.0834 0.3203 0.0000
vt 0.0833 0.4202 0.0000
vt 0.1265 0.4240 0.0000
vt 0.1541 0.4442 0.0000
vt 0.1761 0.3368 0.0000
vt 0.1833 0.3999 0.0000
vt 0.1796 0.4629 0.0000
vt 0.2130 0.4143 0.0000
vt 0.2766 0.3993 0.0000
vt 0.2586 0.4855 0.0000
vt 0.2068 0.4747 0.0000
vt 0.1883 0.6319 0.0000
vt 0.2176 0.6351 0.0000
vt 0.0834 0.4202 0.0000
vt 0.0833 0.3203 0.0000
vt 0.1266 0.3319 0.0000
vt 0.1266 0.4240 0.0000
vt 0.1543 0.4441 0.0000
vt 0.1797 0.4629 0.0000
vt 0.1834 0.3998 0.0000
vt 0.1751 0.6289 0.0000
vt 0.1194 0.7495 0.0000
vt 0.1604 0.6234 0.0000
vt 0.1752 0.6290 0.0000
vt 0.1884 0.6320 0.0000
vt 0.2177 0.6353 0.0000
vt 0.2587 0.4853 0.0000
vt 0.2767 0.3990 0.0000
vt 0.2131 0.4139 0.0000
vt 0.2068 0.4744 0.0000
vt 0.1267 0.3316 0.0000
vt 0.0834 0.3200 0.0000
vt 0.0835 0.4198 0.0000
vt 0.1266 0.4237 0.0000
vt 0.1543 0.4438 0.0000
vt 0.1762 0.3365 0.0000
vt 0.1835 0.3995 0.0000
vt 0.1798 0.4627 0.0000
vt 0.2130 0.4148 0.0000
vt 0.2765 0.3996 0.0000
vt 0.2586 0.4858 0.0000
vt 0.2067 0.4750 0.0000
vt 0.1884 0.6318 0.0000
vt 0.2178 0.6349 0.0000
vt 0.0833 0.4206 0.0000
vt 0.0833 0.3205 0.0000
vt 0.1265 0.3322 0.0000
vt 0.1265 0.4243 0.0000
vt 0.1761 0.3370 0.0000
vt 0.1542 0.4445 0.0000
vt 0.1797 0.4631 0.0000
vt 0.1833 0.4002 0.0000
vt 0.1752 0.6287 0.0000
vt 0.1605 0.6231 0.0000
vt 0.1195 0.7494 0.0000
vt 0.1196 0.7494 0.0000
vt 0.2180 0.6350 0.0000
vt 0.1885 0.6319 0.0000
vt 0.1754 0.6288 0.0000
vt 0.1605 0.6233 0.0000
vt 0.2582 0.4856 0.0000
vt 0.2062 0.4747 0.0000
vt 0.2126 0.4144 0.0000
vt 0.2764 0.3994 0.0000
vt 0.0830 0.4201 0.0000
vt 0.0834 0.3202 0.0000
vt 0.1265 0.3319 0.0000
vt 0.1263 0.4240 0.0000
vt 0.1760 0.3368 0.0000
vt 0.1539 0.4441 0.0000
vt 0.1795 0.4629 0.0000
vt 0.1831 0.3999 0.0000
vt 0.2129 0.4141 0.0000
vt 0.2068 0.4745 0.0000
vt 0.2586 0.4854 0.0000
vt 0.2764 0.3991 0.0000
vt 0.2172 0.6351 0.0000
vt 0.1882 0.6319 0.0000
vt 0.1264 0.3318 0.0000
vt 0.0832 0.3202 0.0000
vt 0.0834 0.4201 0.0000
vt 0.1266 0.4239 0.0000
vt 0.1543 0.4440 0.0000
vt 0.1759 0.3366 0.0000
vt 0.1832 0.3997 0.0000
vt 0.1797 0.4628 0.0000
vt 0.1749 0.6288 0.0000
vt 0.1603 0.6233 0.0000
vt 0.1193 0.7494 0.0000
vt 0.2905 -0.7868 0.0000
vt 0.2621 -0.7868 0.0000
vt 0.2621 -0.9445 0.0000
vt 0.2905 -0.9445 0.0000
vt 0.3047 -0.7868 0.0000
vt 0.3047 -0.9445 0.0000
vt -0.7372 -0.9148 0.0000
vt -0.7403 -0.9144 0.0000
vt -0.7403 -0.8209 0.0000
vt -0.7372 -0.8214 0.0000
vt -0.7425 -0.8212 0.0000
vt -0.7425 -0.9146 0.0000
vt 0.2479 -0.7868 0.0000
vt 0.2479 -0.9445 0.0000
vt 0.1378 -0.9053 0.0000
vt 0.1716 -0.8742 0.0000
vt 0.2132 -0.8880 0.0000
vt 0.1814 -0.9190 0.0000
vt 0.1279 -0.8605 0.0000
vt 0.2053 -0.8432 0.0000
vt 0.1617 -0.8294 0.0000
vt 1.2576 -0.9464 0.0000
vt 1.2430 -0.9464 0.0000
vt 1.2430 -0.7853 0.0000
vt 1.2576 -0.7853 0.0000
vt 1.2701 -0.9461 0.0000
vt 1.2701 -0.7849 0.0000
vt 1.2903 -0.9453 0.0000
vt 1.2903 -0.7841 0.0000
vt 1.3060 -0.9464 0.0000
vt 1.3060 -0.7853 0.0000
vt 0.1616 -0.8296 0.0000
vt 0.1717 -0.8743 0.0000
vt 0.1379 -0.9052 0.0000
vt 0.1279 -0.8606 0.0000
vt 0.2054 -0.8433 0.0000
vt 0.1817 -0.9189 0.0000
vt 0.2135 -0.8880 0.0000
vt -0.7564 -0.8212 0.0000
vt -0.7518 -0.8212 0.0000
vt -0.7518 -0.9146 0.0000
vt -0.7564 -0.9146 0.0000
vt 0.2473 -0.9468 0.0000
vt 0.2660 -0.9468 0.0000
vt 0.2660 -0.7848 0.0000
vt 0.2473 -0.7848 0.0000
vt 0.2875 -0.7848 0.0000
vt 0.2875 -0.9468 0.0000
vt 0.3061 -0.7848 0.0000
vt 0.3061 -0.9468 0.0000
vt -0.7472 -0.8212 0.0000
vt -0.7472 -0.9146 0.0000
vt 0.1374 -0.9056 0.0000
vt 0.1712 -0.8745 0.0000
vt 0.2128 -0.8883 0.0000
vt 0.1810 -0.9193 0.0000
vt 0.1276 -0.8608 0.0000
vt 0.2049 -0.8435 0.0000
vt 0.1613 -0.8297 0.0000
vt 0.4091 0.3170 0.0000
vt 0.4070 0.3157 0.0000
vt 0.4077 0.2963 0.0000
vt 0.4099 0.2977 0.0000
vt 0.4058 0.2891 0.0000
vt 0.4081 0.2880 0.0000
vt 0.3961 0.2866 0.0000
vt 0.3959 0.2844 0.0000
vt 0.3721 0.3070 0.0000
vt 0.3698 0.3059 0.0000
vt 0.3822 0.3212 0.0000
vt 0.3798 0.3221 0.0000
vt 0.4081 0.3378 0.0000
vt 0.4063 0.3394 0.0000
vt 0.4348 0.3056 0.0000
vt 0.4323 0.3047 0.0000
vt 0.4382 0.2938 0.0000
vt 0.4407 0.2947 0.0000
vt 0.4344 0.2871 0.0000
vt 0.4364 0.2856 0.0000
vt 0.4242 0.2865 0.0000
vt 0.4235 0.2844 0.0000
vt 0.4125 0.3100 0.0000
vt 0.4099 0.3093 0.0000
vt 0.4262 0.3219 0.0000
vt 0.4241 0.3233 0.0000
vt 0.4419 0.3269 0.0000
vt 0.4406 0.3288 0.0000
vt 0.4119 0.3608 0.0000
vt 0.4105 0.3588 0.0000
vt 0.4428 0.3485 0.0000
vt 0.4441 0.3504 0.0000
vt 0.4442 0.3412 0.0000
vt 0.4469 0.3409 0.0000
vt 0.4389 0.3309 0.0000
vt 0.4398 0.3288 0.0000
vt 0.4115 0.3319 0.0000
vt 0.4099 0.3301 0.0000
vt 0.4145 0.3482 0.0000
vt 0.4118 0.3483 0.0000
vt 0.4380 0.3645 0.0000
vt 0.4356 0.3654 0.0000
# 220 texture coords

g turboplas
usemtl Material__25
s 8
f 1/1/1 2/2/2 3/3/2 4/4/1 
f 4/5/3 5/6/4 6/7/5 
f 6/7/6 1/8/6 4/5/6 
f 7/9/7 6/7/5 5/6/4 8/10/7 
f 9/11/8 7/9/7 8/10/7 10/12/8 
f 11/13/9 9/11/8 10/12/8 12/14/9 
f 2/2/2 11/13/9 12/14/9 3/3/2 
s 1
f 10/15/10 8/16/10 5/17/10 
f 5/17/11 4/18/11 3/19/11 
f 10/15/10 5/17/10 3/19/10 
f 12/20/10 10/15/10 3/19/10 
s 2
f 13/21/12 14/22/13 15/23/14 16/24/15 
f 13/21/12 16/24/15 17/25/16 
s 4
f 18/26/17 19/27/18 20/28/19 21/29/20 
f 22/30/21 23/31/21 24/32/21 25/33/21 
f 25/33/21 26/34/21 27/35/21 22/30/21 
f 21/29/20 20/28/19 28/36/21 29/37/21 
f 26/34/21 29/37/21 28/36/21 27/35/21 
s 2
f 30/38/22 19/39/22 18/40/22 
f 18/40/23 31/41/24 30/38/25 
s 4
f 21/29/20 32/42/26 17/43/27 
f 17/43/28 18/26/17 21/29/20 
s 2
f 33/44/29 34/45/29 35/46/29 36/47/29 
f 37/35/29 38/48/29 36/47/29 35/46/29 
f 31/41/24 39/49/29 40/50/29 30/38/25 
s 4
f 32/42/26 21/29/20 29/37/21 41/51/30 
s 2
f 38/48/29 37/35/29 40/50/29 39/49/29 
s 4
f 42/22/31 41/51/30 29/37/21 26/34/21 
s 2
f 18/40/32 17/25/16 16/24/15 
f 16/24/15 31/41/24 18/40/33 
f 16/24/15 15/23/14 39/49/29 31/41/24 
f 14/22/13 38/48/29 39/49/29 15/23/14 
s 4
f 41/51/30 42/22/31 13/52/34 
f 32/42/26 41/51/30 13/52/35 
f 32/42/36 13/52/36 17/43/36 
s 2
f 43/21/37 44/53/38 45/54/39 46/55/40 
f 43/21/37 46/55/40 47/56/41 
s 4
f 48/57/42 49/58/43 50/59/44 51/60/45 
f 52/61/46 53/62/2 54/63/46 55/64/2 
f 55/64/2 56/65/2 57/66/46 52/61/46 
f 51/60/45 50/59/44 58/67/2 59/68/2 
f 56/65/2 59/68/2 58/67/2 57/66/46 
s 2
f 60/69/47 49/70/47 48/71/47 
f 48/71/48 61/72/49 60/69/50 
s 4
f 51/60/45 62/73/51 47/74/52 
f 47/74/53 48/57/42 51/60/45 
s 2
f 63/75/54 64/76/7 65/77/54 66/78/54 
f 67/79/54 68/80/7 66/78/54 65/77/54 
f 61/72/49 69/81/54 70/82/54 60/69/50 
s 4
f 62/73/51 51/60/45 59/68/2 71/83/55 
s 2
f 68/80/7 67/79/54 70/82/54 69/81/54 
s 4
f 72/84/56 71/83/55 59/68/2 56/65/2 
s 2
f 48/71/57 47/56/41 46/55/40 
f 46/55/40 61/72/49 48/71/58 
f 46/55/40 45/54/39 69/81/54 61/72/49 
f 44/53/38 68/80/7 69/81/54 45/54/39 
s 4
f 71/83/55 72/84/56 43/85/59 
f 62/73/51 71/83/55 43/85/60 
f 62/73/61 43/85/61 47/74/61 
s 2
f 73/86/62 74/87/63 75/88/64 76/89/65 
f 73/86/62 76/89/65 77/90/66 
s 4
f 78/91/67 79/92/68 80/93/69 81/94/70 
f 82/95/71 83/96/71 84/97/71 85/98/71 
f 86/99/71 87/100/71 85/98/71 84/97/71 
f 79/92/68 88/101/71 89/102/71 80/93/69 
f 87/100/71 86/99/71 89/102/71 88/101/71 
s 2
f 90/103/72 91/104/73 78/105/74 
f 78/105/75 81/106/75 90/103/75 
s 4
f 79/92/68 78/91/67 74/107/76 
f 74/107/77 92/108/78 79/92/68 
s 2
f 93/109/79 94/110/79 95/111/79 96/112/79 
f 96/112/79 97/113/79 98/114/79 93/109/79 
f 91/104/73 90/103/72 99/115/79 100/116/79 
s 4
f 92/108/78 101/117/80 88/101/71 79/92/68 
s 2
f 97/113/79 100/116/79 99/115/79 98/114/79 
s 4
f 102/118/81 87/100/71 88/101/71 101/117/80 
s 2
f 78/105/82 91/104/73 75/88/64 
f 75/88/64 74/87/63 78/105/83 
f 75/88/64 91/104/73 100/116/79 76/89/65 
f 77/90/66 76/89/65 100/116/79 97/113/79 
s 4
f 92/108/84 74/107/84 73/119/84 
f 73/119/85 102/118/81 101/117/80 
f 92/108/78 73/119/86 101/117/80 
s 8
f 103/120/87 104/121/88 105/122/88 106/123/87 
f 107/124/3 103/120/87 106/123/87 108/125/89 
f 108/126/90 109/127/91 110/128/92 
f 110/128/93 107/129/93 108/126/93 
f 111/130/94 110/128/92 109/127/91 112/131/94 
f 104/121/88 113/132/95 114/133/95 105/122/88 
s 1
f 112/134/96 115/135/96 105/136/96 
f 105/136/97 114/137/97 112/134/97 
f 116/135/98 110/138/98 111/134/98 
f 103/139/99 107/140/99 110/138/99 
f 110/138/100 116/135/100 103/139/100 
f 106/139/101 105/136/101 115/135/101 
f 113/137/102 104/136/102 116/135/102 
f 116/135/103 111/134/103 113/137/103 
f 116/135/104 104/136/104 103/139/104 
f 112/134/105 109/138/105 115/135/105 
f 115/135/106 109/138/106 108/140/106 
f 108/140/107 106/139/107 115/135/107 
s 8
f 117/141/108 118/142/109 119/143/110 120/144/111 
f 121/145/112 117/141/108 120/144/111 122/146/112 
f 123/147/113 121/145/112 122/146/112 124/148/114 
f 125/149/115 123/147/113 124/148/114 126/150/115 
s 1
f 126/151/116 127/152/116 119/153/116 
f 119/153/117 128/154/117 126/151/117 
f 129/152/118 123/155/118 125/151/118 
f 117/156/119 121/157/119 123/155/119 
f 123/155/120 129/152/120 117/156/120 
f 120/156/121 119/153/121 127/152/121 
f 129/152/122 125/151/123 130/154/122 118/153/124 
f 129/152/125 118/153/125 117/156/125 
f 126/151/126 124/155/126 127/152/126 
f 127/152/127 124/155/127 122/157/127 
f 122/157/128 120/156/128 127/152/128 
s 8
f 131/158/129 132/159/130 133/160/131 134/161/132 
f 134/162/133 135/163/134 136/164/135 
f 136/164/133 131/165/133 134/162/133 
f 137/166/136 136/164/135 135/163/134 138/167/137 
f 139/168/94 137/166/136 138/167/137 140/169/138 
f 132/159/130 141/170/139 142/171/95 133/160/131 
s 1
f 140/172/96 143/173/96 133/174/96 
f 133/174/97 142/175/97 140/172/97 
f 144/173/98 137/176/98 139/172/98 
f 131/177/99 136/178/99 137/176/99 
f 137/176/100 144/173/100 131/177/100 
f 134/177/101 133/174/101 143/173/101 
f 141/175/102 132/174/102 144/173/102 
f 144/173/140 139/172/140 141/175/140 
f 144/173/104 132/174/104 131/177/104 
f 140/172/105 138/176/105 143/173/105 
f 143/173/106 138/176/106 135/178/106 
f 135/178/107 134/177/107 143/173/107 
usemtl Material__26
f 145/179/89 146/180/89 147/181/89 148/182/89 
f 148/182/89 147/181/89 149/183/3 150/184/3 
f 149/183/3 151/185/6 152/186/6 150/184/3 
f 151/185/6 153/187/89 154/188/89 152/186/6 
f 154/188/89 153/187/89 155/189/141 156/190/142 
f 156/190/142 155/189/141 157/191/143 158/192/144 
f 159/193/89 160/194/89 161/195/89 162/196/89 
f 162/196/89 161/195/89 163/197/3 164/198/3 
f 163/197/3 165/199/6 166/200/6 164/198/3 
f 165/199/6 167/201/89 168/202/89 166/200/6 
f 168/202/89 167/201/89 169/203/145 170/204/146 
f 170/204/146 169/203/145 171/205/147 172/206/148 
f 173/207/3 174/208/3 175/209/89 176/210/89 
f 176/210/89 175/209/89 177/211/133 178/212/133 
f 177/211/133 179/213/133 180/214/133 178/212/133 
f 179/213/133 181/215/133 182/216/133 180/214/133 
f 182/216/133 181/215/133 183/217/149 184/218/150 
f 184/218/150 183/217/149 185/219/151 186/220/152 
# 78 polygons - 74 triangles

