# Exported from Wings 3D 1.4
mtllib antidote.mtl
o cube1
#32 vertices, 26 faces
v 0.99952365 -1.00248006 0.99324948
v 0.99522318 0.99749395 1.00249490
v 1.00861291 1.00676797 -0.99743877
v 1.01291338 -0.99320604 -1.00668419
v -1.00042690 -1.00671849 0.97983999
v -1.00472737 0.99325551 0.98908541
v -0.99133765 1.00252954 -1.01084827
v -0.98703718 -0.99744447 -1.02009369
v 0.48850189 1.54956269 0.49268859
v 0.49507683 1.55411664 -0.48936499
v -0.48698504 1.55203539 -0.49594962
v -0.49355997 1.54748144 0.48610395
v 0.48687444 2.43269318 0.49618740
v 0.49344937 2.43269318 -0.48586618
v -0.48861249 2.43269318 -0.49245082
v -0.49518743 2.43269318 0.48960276
v 0.32585422 2.43269318 0.33427203
v 0.33026399 2.43269318 -0.32438521
v -0.32839882 2.43269318 -0.32880149
v -0.33280858 2.43269318 0.32985575
v 0.35334212 2.93977762 0.36516062
v 0.35813535 2.94309751 -0.35077117
v -0.35780248 2.94158025 -0.35557147
v -0.36259571 2.93826036 0.36036032
v -5.4548965e-3 2.93844542 0.48644907
v -4.2390398e-3 2.43269318 0.44585740
v -0.48388873 2.93965817 1.5650996e-3
v -0.44439817 2.43269318 -2.3585119e-4
v 9.9453930e-4 2.94291245 -0.47685991
v 1.6944411e-3 2.43269318 -0.44038686
v 0.47942838 2.94169970 8.0240567e-3
v 0.44185357 2.43269318 5.7063893e-3
vt 5.7690290e-2 0.33797129
vt 6.1567261e-2 0.34443531
vt 0.10786669 0.16796400
vt 0.22103947 0.70048887
vt 0.22154582 0.69985390
vt 0.22229626 0.70009303
vt 0.25867689 0.62750908
vt 0.26606143 0.50200751
vt 0.26804752 0.56984016
vt 0.26808798 0.56869485
vt 0.26926048 0.56781801
vt 0.28954239 0.61251399
vt 0.31170074 0.59881781
vt 0.31400497 0.60356079
vt 0.31805913 0.23082903
vt 0.32541994 0.22166262
vt 0.32955279 0.22418114
vt 0.32997433 5.2274028e-2
vt 0.33092792 0.22008984
vt 0.33097075 5.1166896e-2
vt 0.33257121 5.1157127e-2
vt 0.33577292 0.54230486
vt 0.35363960 0.57908117
vt 0.35544221 0.58279162
vt 0.37330889 0.61956794
vt 0.39507684 0.55831201
vt 0.39738108 0.56305499
vt 0.41953942 0.54935880
vt 0.44866543 0.19583005
vt 0.44990281 0.19540185
vt 0.45002166 0.19369230
vt 0.45040492 0.53436372
vt 0.45145859 0.19481868
vt 0.45461639 0.11976386
vt 0.45527904 0.12131710
vt 0.45548093 0.12190974
vt 0.46609081 0.58881388
vt 0.46722237 0.58724110
vt 0.46791307 0.58685701
vt 0.46992232 0.46208246
vt 0.46995976 0.46551132
vt 0.47110494 0.46292722
vt 0.47754029 0.42058001
vt 0.50222728 0.27664875
vt 0.55178034 7.6237774e-2
vt 0.55268069 7.5153435e-2
vt 0.55401414 7.6275221e-2
vt 0.58559822 0.12344850
vt 0.58610457 0.12453284
vt 0.58769852 0.12190666
vt 0.59138898 0.12637537
vt 0.63297100 0.20733878
vt 0.64174207 0.12402175
vt 0.64842843 0.12609906
vt 0.64916976 7.2918032e-2
vt 0.65007407 0.12733350
vt 0.65056519 0.12906091
vt 0.65121248 7.0164142e-2
vt 0.65482896 6.6234429e-2
vt 0.65513558 6.6407762e-2
vt 0.65654227 7.0561653e-2
vt 0.65654227 0.13350819
vt 0.65857872 6.4964142e-2
vt 0.65859542 6.3373333e-2
vt 0.65939935 0.12923425
vt 0.65971714 0.13253350
vt 0.66114154 6.4424725e-2
vt 0.66188287 0.13459237
vt 0.67342465 0.69735181
vt 0.69250925 0.64211929
vt 0.69250925 0.75258434
vt 0.69349510 0.13684572
vt 0.69678255 6.1119980e-2
vt 0.69960966 6.2171385e-2
vt 0.70103406 0.13478684
vt 0.70308519 0.13304757
vt 0.70386227 6.7614993e-2
vt 0.70386227 0.13056153
vt 0.70390582 6.1150816e-2
vt 0.70557558 6.9181088e-2
vt 0.70620821 7.5171385e-2
vt 0.70734896 7.0221088e-2
vt 0.70953872 7.2417482e-2
vt 0.70983934 0.13200757
vt 0.71232277 0.12384572
vt 0.71241047 0.12352017
vt 0.71363590 0.12176840
vt 0.74774177 0.62303470
vt 0.74774177 0.77166893
vt 0.80297429 0.64211929
vt 0.80297429 0.75258434
vt 0.82205888 0.69735181
vn 0.57471215 -0.57879642 0.57853319
vn 0.61350011 0.48260958 0.62506449
vn 0.62178431 0.48834741 -0.61229166
vn 0.58244272 -0.57344206 -0.57612906
vn -0.57995984 -0.58124348 0.57079121
vn -0.62386649 0.47998727 0.61676805
vn -0.61558228 0.48572510 -0.62058810
vn -0.57222928 -0.57588911 -0.58387103
vn 0.61346036 0.48271147 0.62502482
vn 0.62188693 0.48808898 -0.61239350
vn -0.61561831 0.48563203 -0.62062519
vn -0.62376305 0.48025199 0.61666659
vn 0.40579428 0.81620539 0.41126605
vn 0.41017959 0.81728617 -0.40471722
vn -0.40521014 0.81679350 -0.41067398
vn -0.41176827 0.81570803 0.40628476
vn 0.48848016 0.71869179 0.49484265
vn 0.49351047 0.72059441 -0.48702271
vn -0.48750126 0.71972796 -0.49430170
vn -0.49564220 0.71781391 0.48896013
vn 0.63270449 0.42950823 0.64436613
vn 0.64147742 0.43514669 -0.63178641
vn -0.63480385 0.43257434 -0.64023707
vn -0.64312490 0.42691909 0.63571255
vn -7.0508651e-3 0.40975218 0.91216963
vn -6.0250943e-3 0.41059585 0.91179753
vn -0.91120422 0.41193505 -4.0485283e-3
vn -0.91101491 0.41232550 -6.2862391e-3
vn 5.1458897e-3 0.41776594 -0.90854012
vn 6.1716785e-3 0.41692290 -0.90892090
vn 0.90951210 0.41559750 8.1522678e-3
vn 0.90970314 0.41521707 5.9146087e-3
g cube1_cube1_auv
usemtl cube1_auv
s 1
f 1/4/1 4/11/4 3/40/3 2/37/2
f 1/42/1 5/39/5 8/6/8 4/10/4
f 2/18/2 6/15/6 5/1/5 1/3/1
f 2/18/2 9/36/9 12/29/12 6/15/6
f 3/20/3 10/34/10 9/31/9 2/16/2
f 4/5/4 8/9/8 7/41/7 3/38/3
f 6/17/6 7/43/7 8/8/8 5/2/5
f 6/17/6 12/33/12 11/44/11 7/43/7
f 7/21/7 11/35/11 10/30/10 3/19/3
f 9/36/9 13/47/13 16/50/16 12/29/12
f 10/34/10 14/46/14 13/48/13 9/31/9
f 11/35/11 15/45/15 14/49/14 10/30/10
f 12/33/12 16/51/16 15/52/15 11/44/11
f 13/22/13 17/23/17 26/13/26 20/12/20 16/7/16
f 14/32/14 18/28/18 32/26/32 17/23/17 13/22/13
f 15/25/15 19/24/19 30/27/30 18/28/18 14/32/14
f 16/7/16 20/12/20 28/14/28 19/24/19 15/25/15
f 17/81/17 21/72/21 25/53/25 26/64/26
f 17/67/17 32/83/32 31/75/31 21/54/21
f 18/82/18 22/76/22 31/56/31 32/63/32
f 18/59/18 30/77/30 29/78/29 22/57/22
f 19/80/19 23/84/23 29/62/29 30/61/30
f 19/60/19 28/79/28 27/86/27 23/65/23
f 20/74/20 24/85/24 27/66/27 28/58/28
f 20/55/20 26/73/26 25/87/25 24/68/24
f 22/90/22 29/92/29 23/91/23 27/89/27 24/71/24 25/69/25 21/70/21 31/88/31
