# 3ds Max Wavefront OBJ Exporter v0.97b - (c)2007 guruware
# File Created: 06.07.2011 17:44:49

mtllib v13flask.mtl

#
# object Cylinder01
#

v  -7.1741 0.0000 -5.8377
v  -0.1332 0.0000 -19.2912
v  -2.1046 0.0000 -14.1524
v  -3.3592 0.0000 -5.8377
v  -9.3141 0.0000 -14.1524
v  -4.7144 0.0000 -19.2912
v  -9.3141 0.0000 2.4770
v  -12.0157 0.0000 -5.8377
v  -0.1198 0.0000 7.6158
v  -4.7144 0.0000 7.6158
v  -2.1046 0.0000 2.4770
v  -2.1046 29.6595 -14.1524
v  -3.3592 29.6595 -5.8377
v  -0.1332 29.6595 -19.2912
v  -4.7144 29.6595 -19.2912
v  -9.3141 29.6595 -14.1524
v  -12.0157 29.6595 -5.8377
v  -9.3141 29.6595 2.4770
v  -4.7144 29.6595 7.6158
v  -0.1198 29.6595 7.6158
v  -2.1046 29.6595 2.4770
v  -7.1741 29.6595 -5.8377
v  -6.6637 29.3521 -6.1451
v  -8.7842 29.3521 -7.6858
v  -5.8538 29.3521 -8.6379
v  -4.0427 29.3521 -6.1451
v  -5.8538 29.3521 -3.6523
v  -8.7842 29.3521 -4.6045
v  -5.8538 34.1493 -8.6379
v  -4.0427 34.1493 -6.1451
v  -8.7842 34.1493 -7.6858
v  -8.7842 34.1493 -4.6045
v  -5.8538 34.1493 -3.6523
v  -6.6637 34.1493 -6.1451
# 34 vertices

vn 0.0000 -1.0000 -0.0000
vn 1.0000 0.0000 -0.0000
vn 0.9669 0.0000 0.2552
vn 0.8241 0.0000 -0.5665
vn -0.4081 0.0000 -0.9129
vn -0.8668 0.0000 -0.4987
vn -1.0000 0.0000 0.0000
vn -1.0000 -0.0000 0.0000
vn -0.8668 0.0000 0.4987
vn -0.8668 -0.0000 0.4987
vn -0.4081 0.0000 0.9129
vn 0.8247 -0.0000 0.5656
vn 0.9666 0.0000 -0.2563
vn 0.9666 -0.0000 -0.2563
vn 0.0000 1.0000 -0.0000
vn 0.3090 0.0000 -0.9511
vn -0.8090 0.0000 -0.5878
vn -0.8090 0.0000 0.5878
vn 0.3090 0.0000 0.9511
# 19 vertex normals

vt 0.1076 0.2751 0.0000
vt 0.1989 0.0568 0.0000
vt 0.1745 0.1395 0.0000
vt 0.1633 0.2715 0.0000
vt 0.0691 0.1462 0.0000
vt 0.1319 0.0611 0.0000
vt 0.0834 0.4079 0.0000
vt 0.0368 0.2796 0.0000
vt 0.2223 0.4802 0.0000
vt 0.1551 0.4845 0.0000
vt 0.1888 0.4012 0.0000
vt 0.3377 -0.4453 0.0000
vt 0.4238 -0.4452 0.0000
vt 0.4235 -0.0093 0.0000
vt 0.3375 -0.0094 0.0000
vt 0.4770 -0.4451 0.0000
vt 0.4767 -0.0093 0.0000
vt 0.4953 -0.4477 0.0000
vt 0.5670 -0.4478 0.0000
vt 0.5677 -0.0014 0.0000
vt 0.4960 -0.0013 0.0000
vt 0.5869 -0.4526 0.0000
vt 0.6638 -0.4526 0.0000
vt 0.6640 -0.0029 0.0000
vt 0.5870 -0.0029 0.0000
vt 0.7883 -0.4526 0.0000
vt 0.7885 -0.0029 0.0000
vt 0.9128 -0.4526 0.0000
vt 0.9129 -0.0029 0.0000
vt 0.9897 -0.4526 0.0000
vt 0.9899 -0.0029 0.0000
vt 0.5023 -0.4442 0.0000
vt 0.5638 -0.4439 0.0000
vt 0.5623 -0.0051 0.0000
vt 0.5007 -0.0053 0.0000
vt 0.1985 -0.4455 0.0000
vt 0.2517 -0.4454 0.0000
vt 0.2514 -0.0095 0.0000
vt 0.1982 -0.0096 0.0000
vt 0.6036 -0.7056 0.0000
vt 0.4126 -0.8216 0.0000
vt 0.6036 -0.7929 0.0000
vt 0.7946 -0.8216 0.0000
vt 0.9127 -0.8667 0.0000
vt 0.9127 -0.7619 0.0000
vt 0.7946 -0.6567 0.0000
vt 0.6036 -0.5949 0.0000
vt 0.4126 -0.6567 0.0000
vt 0.2945 -0.7619 0.0000
vt 0.2945 -0.8670 0.0000
vt 0.0850 0.8633 0.0000
vt 0.0604 0.8972 0.0000
vt 0.0452 0.8504 0.0000
vt 0.0850 0.8214 0.0000
vt 0.1248 0.8504 0.0000
vt 0.1096 0.8972 0.0000
vt 0.1848 0.8621 0.0000
vt 0.1841 0.9091 0.0000
vt 0.1415 0.9084 0.0000
vt 0.1421 0.8615 0.0000
vt 0.1883 0.8133 0.0000
vt 0.1885 0.8600 0.0000
vt 0.1403 0.8602 0.0000
vt 0.1401 0.8135 0.0000
vt 0.1865 0.8133 0.0000
vt 0.1886 0.8594 0.0000
vt 0.1424 0.8616 0.0000
vt 0.1402 0.8155 0.0000
vt 0.1870 0.8152 0.0000
vt 0.1861 0.8608 0.0000
vt 0.1405 0.8606 0.0000
vt 0.1414 0.8150 0.0000
vt 0.1854 0.8152 0.0000
vt 0.1428 0.8145 0.0000
vt 0.0849 0.8666 0.0000
vt 0.0451 0.8537 0.0000
vt 0.0849 0.8248 0.0000
vt 0.1247 0.8537 0.0000
vt 0.1095 0.9005 0.0000
vt 0.0603 0.9005 0.0000
# 80 texture coords

g Cylinder01
usemtl Material__33
s 1
f 1/1/1 2/2/1 3/3/1 4/4/1 
f 1/1/1 5/5/1 6/6/1 2/2/1 
f 1/1/1 7/7/1 8/8/1 5/5/1 
f 1/1/1 9/9/1 10/10/1 7/7/1 
f 1/1/1 4/4/1 11/11/1 9/9/1 
s 8
f 4/12/2 3/13/3 12/14/3 13/15/2 
f 3/13/3 2/16/4 14/17/4 12/14/3 
f 2/18/4 6/19/5 15/20/5 14/21/4 
f 6/22/5 5/23/6 16/24/6 15/25/5 
f 5/23/6 8/26/7 17/27/8 16/24/6 
f 8/26/7 7/28/9 18/29/10 17/27/8 
f 7/28/9 10/30/11 19/31/11 18/29/10 
f 10/32/11 9/33/12 20/34/12 19/35/11 
f 9/36/12 11/37/13 21/38/14 20/39/12 
f 11/37/13 4/12/2 13/15/2 21/38/14 
s 1
f 22/40/15 21/41/15 13/42/15 12/43/15 
f 22/40/15 12/43/15 14/44/15 15/45/15 
f 22/40/15 15/45/15 16/46/15 17/47/15 
f 22/40/15 17/47/15 18/48/15 19/49/15 
f 22/40/15 19/49/15 20/50/15 21/41/15 
f 23/51/1 24/52/1 25/53/1 26/54/1 
f 23/51/1 27/55/1 28/56/1 24/52/1 
f 23/51/1 26/54/1 27/55/1 
s 8
f 26/57/2 25/58/16 29/59/16 30/60/2 
f 25/61/16 24/62/17 31/63/17 29/64/16 
f 24/65/17 28/66/18 32/67/18 31/68/17 
f 28/69/18 27/70/19 33/71/19 32/72/18 
f 27/73/19 26/57/2 30/60/2 33/74/19 
s 1
f 34/75/15 33/76/15 30/77/15 29/78/15 
f 34/75/15 29/78/15 31/79/15 32/80/15 
f 34/75/15 32/80/15 33/76/15 
# 29 polygons - 2 triangles

