# 3ds Max Wavefront OBJ Exporter v0.97b - (c)2007 guruware
# File Created: 26.05.2011 23:52:56

mtllib superstimpak.mtl

#
# object Box01
#

v  -30.8117 1.0536 -1.4468
v  -30.8117 1.0768 -0.1805
v  -33.8947 1.0768 -0.1805
v  -33.8947 1.0536 -1.4468
v  -30.8117 2.1658 -1.4468
v  -33.8947 2.1658 -1.4468
v  -33.8947 2.1890 -0.1805
v  -30.8117 2.1890 -0.1805
v  -28.1330 2.1658 -1.4468
v  -28.1330 2.1890 -0.1805
v  -28.1330 1.0768 -0.1805
v  -28.1330 1.0536 -1.4468
v  -33.9101 3.3116 0.8595
v  -33.9101 3.3116 -2.2814
v  -33.9101 0.0000 -2.2814
v  -33.9101 0.0000 0.8595
v  -33.9742 1.6415 -2.4887
v  -31.5345 1.6415 -3.8297
v  -31.8838 1.5322 -4.4652
v  -34.3235 1.5322 -3.1241
v  -32.2634 1.8967 2.1771
v  -33.9733 1.6549 1.0108
v  -34.1674 1.6567 1.2809
v  -32.3843 1.6567 2.4868
v  -35.7563 3.3116 2.4135
v  -34.5207 3.3116 1.8118
v  -34.5732 0.0000 1.8660
v  -35.7563 0.0000 2.4135
v  -34.5694 0.0000 -3.3800
v  -34.5726 3.3116 -3.3824
v  -36.7960 1.3800 -3.6174
v  -37.5169 0.6861 -3.6174
v  -35.7563 0.0000 -3.7047
v  -36.7960 1.9305 2.2646
v  -37.5169 2.6446 2.2646
v  -36.8321 3.3116 2.0863
v  -36.8321 0.0000 2.0863
v  -37.5169 0.6854 2.2646
v  -36.7960 1.3918 2.2646
v  -36.8321 0.0000 -3.3989
v  -35.7563 3.3116 -3.7047
v  -36.8321 3.3116 -3.3989
v  -37.5169 2.6453 -3.6174
v  -36.7960 1.9321 -3.6174
v  -38.3042 1.9305 2.3183
v  -38.3042 2.6446 2.3183
v  -38.3042 0.6854 2.3183
v  -38.3042 1.3918 2.3183
v  -38.3042 1.3800 -3.7797
v  -38.3042 0.6861 -3.7797
v  -38.3042 2.6453 -3.7797
v  -38.3042 1.9321 -3.7797
v  -29.4877 1.0536 -2.3567
v  -29.4877 1.0768 0.7295
v  -29.4877 2.1658 -2.3567
v  -29.4877 2.1890 0.7295
v  -31.0078 1.6567 2.5220
v  -31.1048 1.8967 2.1532
v  -30.1115 1.6567 1.9886
v  -30.3333 1.8967 1.7409
v  -29.4805 1.6567 0.7205
v  -29.7895 1.6549 0.5120
v  -30.6244 1.4164 -3.2616
v  -30.5018 1.5322 -3.4422
v  -30.3824 1.4164 -2.4384
v  -30.1125 1.5322 -2.3052
v  -31.6409 1.6415 -1.4478
v  -31.2294 1.5322 -1.4484
v  -33.9213 1.5630 -0.9705
v  -35.6523 1.5630 -0.8507
v  -35.6523 1.5862 -0.7422
v  -33.9213 1.5862 -0.6085
# 72 vertices

vn 0.0000 -0.9998 0.0183
vn 0.0000 0.9998 -0.0183
vn 0.0000 0.0000 1.0000
vn 1.0000 0.0000 -0.0000
vn 0.0000 -0.0000 -1.0000
vn -1.0000 0.0000 -0.0000
vn -0.0718 0.9888 -0.1306
vn -0.3166 0.8357 0.4488
vn -0.0914 0.9932 -0.0720
vn -0.1234 0.9923 -0.0036
vn -0.3333 0.8038 0.4928
vn -0.4292 -0.0040 -0.9032
vn -0.8571 -0.0002 0.5151
vn 0.0353 -0.0366 0.9987
vn 0.0610 0.0615 -0.9962
vn 0.2545 -0.4851 -0.8366
vn 0.2561 0.4750 -0.8419
vn 0.1418 0.0000 -0.9899
vn 0.0603 -0.0615 -0.9963
vn 0.2366 0.5012 0.8324
vn 0.2348 -0.5122 0.8261
vn 0.0837 0.0000 0.9965
vn 0.0358 0.0362 0.9987
vn -0.0467 -0.0236 -0.9986
vn -0.0467 0.0238 -0.9986
vn -0.1397 0.0726 0.9875
vn -0.1397 -0.0706 0.9877
vn -0.2633 0.0002 0.9647
vn -0.8383 0.0022 -0.5452
vn -0.0000 -0.9999 0.0106
vn -0.5664 -0.0000 -0.8241
vn 0.0000 0.9999 -0.0106
vn -0.5664 0.0000 0.8241
vn 0.0000 -0.9999 0.0106
vn 0.5576 -0.0000 -0.8301
vn -0.0000 0.9999 -0.0106
vn 0.5576 0.0000 0.8301
vn -0.0026 0.8164 0.5775
vn 0.2807 0.8223 0.4951
vn 0.3533 0.9324 0.0760
vn 0.1141 0.9932 -0.0238
vn -0.4877 0.8588 0.1570
vn 0.0113 0.9942 -0.1066
vn 0.0041 0.9975 -0.0700
vn -0.0144 0.9779 -0.2086
vn -0.0120 0.9816 -0.1905
vn 0.0049 0.9979 -0.0639
# 47 vertex normals

vt 0.4750 0.0047 0.0000
vt 0.4738 0.2485 0.0000
vt 0.0173 0.2445 0.0000
vt 0.0186 0.0006 0.0000
vt 0.4768 0.2383 0.0000
vt 0.0208 0.2519 0.0000
vt 0.0164 0.0198 0.0000
vt 0.4723 0.0062 0.0000
vt 0.2843 0.1320 0.0000
vt 0.0208 0.1327 0.0000
vt 0.0205 0.0068 0.0000
vt 0.2840 0.0061 0.0000
vt 0.1554 0.0409 0.0000
vt 0.3497 0.0370 0.0000
vt 0.3497 0.2209 0.0000
vt 0.1554 0.2247 0.0000
vt 0.5136 0.2724 0.0000
vt 0.2501 0.2731 0.0000
vt 0.2498 0.1472 0.0000
vt 0.5133 0.1465 0.0000
vt 0.0395 0.0898 0.0000
vt 0.1352 0.0915 0.0000
vt 0.1352 0.1756 0.0000
vt 0.0395 0.1738 0.0000
vt 0.9253 -0.0147 0.0000
vt 0.5387 -0.0170 0.0000
vt 0.5413 -0.3922 0.0000
vt 0.9279 -0.3899 0.0000
vt 0.3932 0.3859 0.0000
vt 0.0085 0.3886 0.0000
vt 0.0068 0.2794 0.0000
vt 0.3916 0.2767 0.0000
vt 0.6115 0.5078 0.0000
vt 0.8055 0.5090 0.0000
vt 0.8038 0.6038 0.0000
vt 0.6049 0.6048 0.0000
vt 0.2911 -0.3929 0.0000
vt 0.4048 -0.3920 0.0000
vt 0.3973 -0.0174 0.0000
vt 0.3079 -0.0175 0.0000
vt 0.4091 -0.3930 0.0000
vt 0.4062 -0.0177 0.0000
vt 0.1676 -0.2393 0.0000
vt 0.1079 -0.3133 0.0000
vt 0.2882 -0.3925 0.0000
vt 0.1688 -0.2393 0.0000
vt 0.1102 -0.3140 0.0000
vt 0.2918 -0.3935 0.0000
vt 0.1671 -0.3778 0.0000
vt 0.1806 -0.0209 0.0000
vt 0.0946 -0.0831 0.0000
vt 0.1664 -0.2397 0.0000
vt 0.1697 -0.1647 0.0000
vt 0.1690 -0.3792 0.0000
vt 0.3069 -0.0171 0.0000
vt 0.1814 -0.0188 0.0000
vt 0.0938 -0.0832 0.0000
vt 0.1684 -0.2368 0.0000
vt 0.2934 -0.3913 0.0000
vt 0.1698 -0.1653 0.0000
vt 0.0227 -0.2342 0.0000
vt 0.0194 -0.3129 0.0000
vt 0.0146 -0.0823 0.0000
vt 0.0121 -0.1614 0.0000
vt 0.0202 -0.2377 0.0000
vt 0.0184 -0.3136 0.0000
vt 0.0146 -0.0815 0.0000
vt 0.0126 -0.1627 0.0000
vt 0.4051 -0.3909 0.0000
vt 0.4021 -0.0153 0.0000
vt 0.5328 -0.0148 0.0000
vt 0.4089 -0.0143 0.0000
vt 0.4139 -0.3896 0.0000
vt 0.5311 -0.3900 0.0000
vt 0.9581 0.2354 0.0000
vt 0.4580 0.2354 0.0000
vt 0.6055 0.0079 0.0000
vt 0.8106 0.0079 0.0000
vt 0.1369 0.2734 0.0000
vt 0.1366 0.1475 0.0000
vt 0.9581 0.2384 0.0000
vt 0.4580 0.2384 0.0000
vt 0.6055 0.0110 0.0000
vt 0.8106 0.0110 0.0000
vt 0.3972 0.0058 0.0000
vt 0.3975 0.1317 0.0000
vt 0.8106 0.4681 0.0000
vt 0.6055 0.4681 0.0000
vt 0.0211 0.2737 0.0000
vt 0.0208 0.1479 0.0000
vt 0.8106 0.4712 0.0000
vt 0.6055 0.4712 0.0000
vt 0.5130 0.0055 0.0000
vt 0.5133 0.1313 0.0000
vt 0.4476 0.6024 0.0000
vt 0.4480 0.5062 0.0000
vt 0.2715 0.6055 0.0000
vt 0.2748 0.5074 0.0000
vt 0.0027 0.6086 0.0000
vt 0.0024 0.5056 0.0000
vt 0.7534 0.6007 0.0000
vt 0.7633 0.5088 0.0000
vt 0.9798 0.5085 0.0000
vt 0.9809 0.6007 0.0000
vt 0.5627 0.6034 0.0000
vt 0.5731 0.5056 0.0000
vt 0.3881 0.6079 0.0000
vt 0.3877 0.5034 0.0000
vt 0.3908 0.4812 0.0000
vt 0.0216 0.4715 0.0000
vt 0.0208 0.4528 0.0000
vt 0.3880 0.4189 0.0000
# 112 texture coords

g Box01
usemtl wire_088088225
s 2
f 1/1/1 2/2/1 3/3/1 4/4/1 
s 4
f 5/5/2 6/6/2 7/7/2 8/8/2 
s 8
f 8/9/3 7/10/3 3/11/3 2/12/3 
s 16
f 9/13/4 10/14/4 11/15/4 12/16/4 
s 32
f 6/17/5 5/18/5 1/19/5 4/20/5 
s 64
f 7/21/6 6/22/6 4/23/6 3/24/6 
f 13/25/6 14/26/6 15/27/6 16/28/6 
s 32
f 17/29/7 18/30/7 19/31/7 20/32/7 
s 8
f 21/33/8 22/34/9 23/35/10 24/36/11 
s off
f 25/37/12 26/38/12 27/39/12 28/40/12 
f 29/41/13 15/27/13 14/26/13 30/42/13 
f 31/43/14 32/44/14 33/45/14 
f 34/46/15 35/47/15 25/48/15 
f 35/47/16 36/49/16 25/48/16 
f 28/40/17 37/50/17 38/51/17 
f 34/52/18 25/37/18 25/37/18 28/40/18 
f 34/52/18 28/40/18 39/53/18 
f 28/40/19 38/51/19 39/53/19 
f 32/44/20 40/54/20 33/45/20 
f 41/55/21 42/56/21 43/57/21 
f 31/58/22 33/59/22 33/59/22 41/55/22 
f 31/58/22 41/55/22 44/60/22 
f 41/55/23 43/57/23 44/60/23 
f 45/61/24 46/62/24 35/47/24 34/46/24 
f 47/63/25 48/64/25 39/53/25 38/51/25 
f 49/65/26 50/66/26 32/44/26 31/43/26 
f 51/67/27 52/68/27 44/60/27 43/57/27 
f 29/69/28 30/70/28 41/55/28 33/59/28 
f 16/71/29 27/72/29 26/73/29 13/74/29 
f 53/75/30 54/76/30 2/77/30 1/78/30 
f 55/79/31 53/80/31 1/19/31 5/18/31 
f 56/81/32 55/82/32 5/83/32 8/84/32 
f 54/85/33 56/86/33 8/9/33 2/12/33 
f 12/87/34 11/88/34 54/76/34 53/75/34 
f 9/89/35 12/90/35 53/80/35 55/79/35 
f 10/91/36 9/92/36 55/82/36 56/81/36 
f 11/93/37 10/94/37 56/86/37 54/85/37 
f 57/95/38 58/96/38 21/33/38 24/36/38 
f 59/97/39 60/98/39 58/96/39 57/95/39 
f 61/99/40 62/100/40 60/98/40 59/97/40 
f 63/101/41 64/102/41 19/103/41 18/104/41 
f 65/105/42 66/106/42 64/102/42 63/101/42 
f 66/106/43 65/105/43 67/107/43 68/108/43 
s 4
f 69/109/44 70/110/45 71/111/46 72/112/47 
# 34 polygons - 10 triangles

