# 3ds Max Wavefront OBJ Exporter v0.97b - (c)2007 guruware
# File Created: 26.05.2011 23:31:56

mtllib mjerky.mtl

#
# object Cube
#

v  -0.8128 0.2656 0.1386
v  -0.8409 0.0445 0.3485
v  -0.7495 0.1712 0.3966
v  -0.5962 0.3490 0.2913
v  -0.1287 0.4505 0.2814
v  -0.1025 0.4423 0.1666
v  -0.7790 0.0957 0.1951
v  0.3467 0.0470 0.9547
v  0.1346 -0.3886 1.0069
v  0.3874 0.0378 0.8531
v  0.1585 -0.3428 1.0531
v  -0.5376 0.7016 -0.6329
v  -1.1051 0.1161 -0.2482
v  -0.8337 0.4370 0.0728
v  1.1030 -0.7109 0.7197
v  0.6681 -0.5207 1.0185
v  0.3967 -0.8416 0.6976
v  -0.4806 0.7929 -0.1275
v  1.0212 -0.1648 0.8182
v  0.3105 0.8026 -0.4136
v  0.8181 0.0914 0.5062
v  -0.1026 0.5115 -0.9317
v  -0.4557 0.1555 -0.7314
v  0.3151 -0.4538 0.4090
v  0.8212 -0.4236 0.3485
v  0.2854 0.6364 -0.7712
v  0.9305 -0.2944 0.4777
v  0.2485 0.1722 -0.3420
v  0.3842 0.3326 -0.1815
v  0.2888 0.2556 0.0638
v  0.4303 0.1518 -0.4424
v  0.9860 -0.2135 0.1692
v  0.5660 0.3122 -0.2819
# 33 vertices

vn -0.8153 0.4498 0.3647
vn -0.5621 0.7226 0.4024
vn -0.2113 0.9522 -0.2206
vn -0.2352 0.9643 -0.1219
vn 0.1105 -0.2936 -0.9495
vn 0.8507 -0.3694 0.3739
vn -0.8394 -0.3143 -0.4434
vn 0.8975 -0.4402 -0.0268
vn -0.1575 -0.9159 -0.3692
vn -0.6269 -0.3672 0.6872
vn 0.5245 0.8409 0.1336
vn 0.5724 0.8167 0.0728
vn -0.1596 0.7930 0.5879
vn -0.5524 0.0836 0.8294
vn -0.2817 0.6568 0.6994
vn -0.3809 0.3951 0.8360
vn 0.5007 -0.5407 -0.6760
vn 0.2960 -0.6361 -0.7126
vn -0.7347 0.6762 -0.0548
vn 0.1185 -0.7505 0.6502
vn -0.7214 0.6912 -0.0436
vn 0.5441 -0.0693 0.8362
vn -0.0733 0.9828 -0.1694
vn 0.8889 0.2069 -0.4087
vn -0.5441 0.0693 -0.8362
vn -0.0241 -0.7994 -0.6003
vn -0.5982 0.0546 -0.7995
vn 0.1315 -0.5738 -0.8084
vn -0.2049 -0.9141 -0.3499
vn 0.1449 -0.5708 -0.8082
vn 0.3575 -0.7015 -0.6165
vn 0.1661 0.8124 0.5589
vn -0.1330 0.5830 0.8015
vn -0.6189 -0.2283 0.7516
vn 0.0010 0.9068 -0.4216
vn -0.0302 0.8227 -0.5676
vn 0.7815 -0.0380 -0.6228
vn 0.9414 0.2872 -0.1769
vn -0.0305 -0.7691 -0.6384
vn 0.8336 0.3440 0.4321
vn 0.4214 0.8054 0.4168
vn 0.6654 0.2458 -0.7049
vn 0.9885 0.0981 -0.1150
vn 0.8579 -0.3840 -0.3415
vn 0.4618 -0.6217 -0.6326
vn 0.5842 0.6770 -0.4477
vn 0.2574 0.6296 0.7331
vn -0.3362 -0.8328 -0.4398
vn 0.7758 -0.6304 -0.0257
vn 0.7485 0.0295 -0.6624
vn 0.2293 -0.7297 -0.6442
vn 0.5377 0.7869 0.3028
vn 0.3783 0.7580 0.5313
vn -0.2335 0.7792 -0.5816
# 54 vertex normals

vt -0.1259 0.8057 0.2215
vt -0.1568 0.9624 0.3014
vt -0.1019 0.8811 0.3330
vt -0.0963 0.7150 0.3250
vt -0.1983 0.4712 0.4387
vt -0.2531 0.4360 0.4072
vt -0.1872 1.3940 0.2215
vt -0.3144 1.0243 0.4072
vt -0.2673 1.4658 0.2620
vt -0.3195 0.6039 0.8235
vt -0.4616 0.8923 0.8164
vt -0.3747 0.5662 0.8004
vt -0.2180 1.5507 0.3014
vt -0.4282 0.8737 0.8352
vt -0.5228 1.4806 0.8164
vt -0.4360 1.1545 0.8004
vt 0.8621 0.6490 0.0005
vt 0.8673 0.9237 0.0229
vt 0.9322 0.8413 0.1811
vt 0.6059 0.7589 0.9995
vt 0.7206 0.8413 0.9718
vt 0.6557 0.9237 0.8135
vt 0.9322 0.6764 0.1811
vt 0.7206 0.6764 0.9718
vt 0.8157 0.4841 0.2934
vt 0.7491 0.6301 0.7930
vt 0.0747 1.5265 0.0005
vt 0.3122 1.6567 0.0282
vt 0.3489 1.3988 0.0282
vt 0.6705 1.3574 0.9995
vt 0.4835 1.2462 0.6656
vt 0.5825 1.4252 0.7774
vt 0.1242 1.0967 0.0229
vt 0.5962 1.0989 0.8135
vt 0.7469 0.4821 0.1770
vt 0.2944 1.7888 0.1770
vt 0.6410 0.7153 0.7774
vt 0.6672 0.6821 0.8411
vt 0.3831 1.5553 0.3469
vt 0.7546 0.5903 0.4260
vt 0.7807 0.6526 0.4897
vt -0.5882 0.7863 0.4897
vt -0.8560 0.8966 0.8411
vt -0.6740 0.6909 0.4260
vt -0.6735 0.7633 0.7930
vt 0.7221 0.6315 0.3469
vt -0.9085 0.9682 0.7774
vt -0.7392 0.7798 0.3469
vt -0.8397 0.7216 0.3626
vt -0.9483 0.8026 0.7450
vt -0.7745 0.6327 0.4417
# 51 texture coords

g Cube
usemtl Material__26
s off
f 1/1/1 2/2/1 3/3/1 
f 1/1/2 3/3/2 4/4/2 
f 1/1/3 4/4/3 5/5/3 
f 1/1/4 5/5/4 6/6/4 
f 1/7/5 6/8/5 7/9/5 
f 8/10/6 9/11/6 10/12/6 
f 7/9/7 2/13/7 1/7/7 
f 8/10/8 11/14/8 9/11/8 
f 9/15/9 2/13/9 7/9/9 
f 11/14/10 2/2/10 9/11/10 
f 5/5/11 8/10/11 10/12/11 
f 5/5/12 10/12/12 6/6/12 
f 4/4/13 8/10/13 5/5/13 
f 2/2/14 11/14/14 3/3/14 
f 3/3/15 8/10/15 4/4/15 
f 3/3/16 11/14/16 8/10/16 
f 6/8/17 10/16/17 9/15/17 
f 6/8/18 9/15/18 7/9/18 
f 12/17/19 13/18/19 14/19/19 
f 15/20/20 16/21/20 17/22/20 
f 12/17/21 14/19/21 18/23/21 
f 15/20/22 19/24/22 16/21/22 
f 12/17/23 18/23/23 20/25/23 
f 15/20/24 21/26/24 19/24/24 
f 12/27/25 22/28/25 23/29/25 
f 15/30/26 24/31/26 25/32/26 
f 23/29/27 13/33/27 12/27/27 
f 15/30/28 17/34/28 24/31/28 
f 24/31/29 13/33/29 23/29/29 
f 17/34/30 13/33/30 24/31/30 
f 22/28/31 24/31/31 23/29/31 
f 18/23/32 19/24/32 21/26/32 
f 14/19/33 16/21/33 19/24/33 
f 14/19/33 19/24/33 18/23/33 
f 13/18/34 17/22/34 14/19/34 
f 17/22/34 16/21/34 14/19/34 
f 20/25/35 26/35/35 12/17/35 
f 26/36/36 22/28/36 12/27/36 
f 25/37/37 27/38/37 15/20/37 
f 27/38/38 21/26/38 15/20/38 
f 22/28/31 28/39/31 24/31/31 
f 28/39/39 25/32/39 24/31/39 
f 29/40/40 20/25/40 30/41/40 
f 30/42/41 27/43/41 29/44/41 
f 27/43/42 30/42/42 21/45/42 
f 26/35/43 20/25/43 29/40/43 
f 29/40/44 28/46/44 26/35/44 
f 22/28/45 26/36/45 28/39/45 
f 21/26/46 30/41/46 18/23/46 
f 30/41/47 20/25/47 18/23/47 
f 25/47/48 28/48/48 31/49/48 
f 27/43/49 25/47/49 32/50/49 
f 33/51/50 32/50/50 31/49/50 
f 31/49/51 32/50/51 25/47/51 
f 29/44/52 27/43/52 32/50/52 
f 29/44/53 32/50/53 33/51/53 
f 28/48/54 29/44/54 31/49/54 
f 29/44/54 33/51/54 31/49/54 
# 0 polygons - 58 triangles

