# 3ds Max Wavefront OBJ Exporter v0.97b - (c)2007 guruware
# File Created: 22.08.2011 21:18:55

mtllib fcc.mtl

#
# object Cylinder03
#

v  -8.1022 29.4960 16.9474
v  -8.1022 29.4960 10.1239
v  -8.1022 33.5068 11.4271
v  -8.1022 33.5068 15.6442
v  -8.1022 27.0172 13.5357
v  -17.0653 26.4814 16.9474
v  -15.1664 24.8881 13.5357
v  -20.1377 29.0595 15.6442
v  -20.1377 29.0595 11.4271
v  -17.0653 26.4814 10.1239
v  -22.0713 19.2006 16.9474
v  -19.5925 19.2006 13.5357
v  -26.0821 19.2007 15.6442
v  -26.0821 19.2007 11.4271
v  -22.0713 19.2007 10.1239
v  -22.1381 12.2025 16.9474
v  -19.8088 13.0503 13.5357
v  -25.9070 10.8307 15.6442
v  -25.9070 10.8307 11.4271
v  -22.1381 12.2025 10.1239
v  -15.3331 6.5462 16.9474
v  -14.0937 8.6929 13.5357
v  -17.3385 3.0728 15.6442
v  -17.3385 3.0728 11.4271
v  -15.3331 6.5462 10.1239
v  -3.4142 3.1341 16.9474
v  -3.4142 5.6129 13.5357
v  -3.4142 -0.8767 15.6442
v  -3.4142 -0.8767 11.4271
v  -3.4142 3.1341 10.1239
v  -9.2721 0.0000 23.4093
v  -9.2721 0.0000 -10.9861
v  6.1056 0.0000 -10.9861
v  6.1056 0.0000 23.4093
v  -9.2721 35.4578 23.4093
v  6.1056 35.4578 23.4093
v  6.1056 35.4578 -10.9861
v  -9.2721 35.4578 -10.9861
v  0.1478 33.8574 21.7183
v  0.1478 27.0338 21.7183
v  -3.8629 28.3370 21.7183
v  -3.8629 32.5542 21.7183
v  2.6267 30.4456 21.7183
v  3.1624 33.8574 30.6814
v  4.7558 30.4456 28.7825
v  0.5843 32.5542 33.7538
v  0.5843 28.3370 33.7538
v  3.1624 27.0338 30.6814
v  10.4432 33.8574 35.6873
v  10.4432 30.4456 33.2085
v  10.4432 32.5542 39.6981
v  10.4432 28.3370 39.6981
v  10.4432 27.0338 35.6873
v  25.1485 33.8574 35.7542
v  24.3007 30.4456 33.4249
v  26.5203 32.5542 39.5231
v  26.5203 28.3370 39.5231
v  25.1485 27.0338 35.7542
v  30.8048 33.8574 28.9492
v  28.6581 30.4456 27.7098
v  34.2782 32.5542 30.9545
v  34.2782 28.3370 30.9545
v  30.8048 27.0338 28.9492
v  34.2170 33.8574 17.0302
v  31.7381 30.4456 17.0302
v  38.2277 32.5542 17.0302
v  38.2277 28.3370 17.0302
v  34.2170 27.0338 17.0302
v  -9.4094 0.0000 23.7887
v  -9.4094 0.0000 -10.9861
v  29.0251 0.0000 -10.9861
v  29.0251 0.0000 23.7887
v  -9.4094 26.1974 23.7887
v  29.0251 26.1974 23.7887
v  29.0251 26.1974 -10.9861
v  -9.4094 26.1974 -10.9861
v  29.0623 0.0000 21.0752
v  29.0623 0.0000 -9.0315
v  44.6025 -0.0000 -9.0315
v  44.6025 -0.0000 21.0752
v  29.0623 26.0224 21.0752
v  44.6025 26.0224 21.0752
v  44.6025 26.0224 -9.0315
v  29.0623 26.0224 -9.0315
v  42.8690 26.4252 -6.3270
v  28.8170 26.4252 -6.3270
v  35.6913 35.1423 -6.3270
v  35.6913 35.1423 17.1017
v  42.8690 26.4252 17.1017
v  28.8170 26.4252 17.1017
v  28.1042 -0.0794 -9.4301
v  23.2006 -4.9135 -9.4301
v  20.7487 -1.3229 -9.4301
v  13.3933 -0.0794 -9.4301
v  15.8451 -4.9135 -9.4301
v  8.4897 -4.9135 -9.4301
v  6.0379 -1.3229 -9.4301
v  -1.3175 -0.0794 -9.4301
v  1.1343 -4.9135 -9.4301
v  -6.2211 -4.9135 -9.4301
v  -8.6730 -0.0794 -9.4301
v  28.1042 -0.0794 21.8331
v  13.3933 -0.0794 21.8331
v  20.7487 -1.3229 21.8331
v  23.2006 -4.9135 21.8331
v  15.8451 -4.9135 21.8331
v  -1.3175 -0.0794 21.8331
v  6.0379 -1.3229 21.8331
v  8.4897 -4.9135 21.8331
v  1.1343 -4.9135 21.8331
v  -8.6730 0.1491 21.8331
v  -6.2211 -4.9135 21.8331
# 112 vertices

vn 1.0000 0.0000 0.0000
vn 1.0000 -0.0000 0.0000
vn 0.3000 -0.9539 -0.0093
vn 0.0574 -0.1890 0.9803
vn 0.1229 -0.1395 0.9826
vn 0.5509 -0.8345 -0.0134
vn -0.2984 0.8076 0.5087
vn -0.5413 0.6488 0.5349
vn -0.2952 0.8097 -0.5072
vn -0.5413 0.6516 -0.5314
vn 0.0572 -0.1991 -0.9783
vn 0.1300 -0.1533 -0.9796
vn 0.1892 -0.0382 0.9812
vn 0.9298 -0.3678 -0.0155
vn -0.8131 0.2133 0.5417
vn -0.8152 0.2127 -0.5387
vn 0.2027 -0.0462 -0.9781
vn 0.1357 0.0535 0.9893
vn 0.8967 0.4426 0.0044
vn -0.7747 -0.3494 0.5270
vn -0.7733 -0.3521 -0.5273
vn 0.1345 0.0492 -0.9897
vn 0.1096 0.2142 0.9706
vn 0.4524 0.8918 0.0052
vn -0.4035 -0.7321 0.5488
vn -0.4052 -0.7301 -0.5502
vn 0.1081 0.2077 -0.9722
vn 0.0604 0.2085 0.9762
vn 0.2764 0.9611 -0.0006
vn -0.2319 -0.8164 0.5289
vn -0.2316 -0.8165 -0.5288
vn 0.0604 0.2092 -0.9760
vn -0.0000 -1.0000 -0.0000
vn 0.0000 1.0000 -0.0000
vn 0.0000 0.0000 1.0000
vn 1.0000 0.0000 -0.0000
vn -0.0000 -0.0000 -1.0000
vn -1.0000 -0.0000 0.0000
vn 0.0000 -0.0000 -1.0000
vn 0.9539 -0.0093 -0.3000
vn 0.1890 0.9803 -0.0574
vn 0.1395 0.9826 -0.1229
vn 0.8345 -0.0134 -0.5509
vn -0.8076 0.5087 0.2984
vn -0.6488 0.5349 0.5413
vn -0.8097 -0.5072 0.2952
vn -0.6516 -0.5314 0.5413
vn 0.1991 -0.9783 -0.0572
vn 0.1533 -0.9796 -0.1300
vn 0.0366 0.9813 -0.1891
vn 0.3609 -0.0141 -0.9325
vn -0.2172 0.5423 0.8116
vn -0.2160 -0.5399 0.8135
vn 0.0436 -0.9787 -0.2006
vn -0.0555 0.9890 -0.1374
vn -0.4505 0.0066 -0.8928
vn 0.3463 0.5259 0.7768
vn 0.3485 -0.5267 0.7753
vn -0.0507 -0.9897 -0.1341
vn -0.2142 0.9706 -0.1096
vn -0.8918 0.0052 -0.4524
vn 0.7321 0.5488 0.4035
vn 0.7301 -0.5502 0.4052
vn -0.2077 -0.9722 -0.1081
vn -0.2085 0.9762 -0.0604
vn -0.9611 -0.0006 -0.2764
vn 0.8164 0.5289 0.2319
vn 0.8165 -0.5288 0.2316
vn -0.2092 -0.9760 -0.0604
vn 0.0000 0.0000 -1.0000
vn 0.0000 1.0000 0.0000
vn 0.0000 -0.0000 1.0000
vn 1.0000 -0.0000 -0.0000
vn -0.0000 0.0000 1.0000
vn -0.0000 0.0000 -1.0000
vn -1.0000 -0.0000 -0.0000
vn -1.0000 0.0000 -0.0000
vn 0.7720 0.6356 0.0000
vn -0.0106 0.9999 -0.0000
vn -0.0106 0.9999 0.0000
vn -0.7852 0.6192 -0.0000
vn -0.7852 0.6192 0.0000
vn -0.0000 -0.0000 1.0000
vn -0.0000 1.0000 -0.0000
vn 0.0023 1.0000 -0.0031
vn 0.0155 0.9999 -0.0000
vn -0.0000 1.0000 -0.0073
vn 0.0265 0.9996 -0.0011
vn -0.8928 -0.4505 0.0004
vn -0.1609 -0.9870 0.0000
vn -0.1689 -0.9856 0.0024
vn -0.9000 -0.4359 0.0032
vn 0.7020 -0.7121 -0.0000
vn -0.8918 -0.4523 0.0000
vn -0.2325 -0.9726 0.0000
vn -0.1690 -0.9856 0.0000
vn -0.1690 -0.9856 -0.0000
vn -0.0966 -0.9953 0.0000
vn -0.0966 -0.9953 -0.0000
vn 0.7020 -0.7121 0.0000
vn -0.8918 -0.4523 -0.0000
vn -0.2325 -0.9726 -0.0000
# 102 vertex normals

vt -0.4307 0.0786 0.0000
vt -0.3977 0.0786 0.0000
vt -0.4040 0.0980 0.0000
vt -0.4244 0.0980 0.0000
vt -0.4142 0.0666 0.0000
vt -0.3341 0.0238 0.0000
vt -0.1839 0.0501 0.0000
vt -0.2200 0.1481 0.0000
vt -0.3430 0.1264 0.0000
vt -0.4604 0.1321 0.0000
vt -0.4725 0.0135 0.0000
vt -0.3313 0.0240 0.0000
vt -0.3422 0.1305 0.0000
vt -0.4743 0.1373 0.0000
vt -0.4714 0.0112 0.0000
vt -0.3392 0.0213 0.0000
vt -0.3421 0.1243 0.0000
vt -0.0312 0.3514 0.0000
vt -0.1549 0.3499 0.0000
vt -0.1294 0.2453 0.0000
vt -0.0217 0.2280 0.0000
vt -0.4748 0.0095 0.0000
vt -0.4640 0.1315 0.0000
vt -0.4659 0.1340 0.0000
vt -0.4672 0.0137 0.0000
vt -0.3307 0.0224 0.0000
vt -0.3345 0.1241 0.0000
vt -0.1796 0.0441 0.0000
vt -0.2202 0.1436 0.0000
vt -0.1838 0.0555 0.0000
vt -0.2186 0.1440 0.0000
vt -0.3358 0.1266 0.0000
vt -0.3344 0.0207 0.0000
vt -0.1614 0.1899 0.0000
vt -0.0752 0.1113 0.0000
vt -0.3365 0.0199 0.0000
vt -0.3448 0.1285 0.0000
vt -0.4661 0.1314 0.0000
vt -0.4650 0.0118 0.0000
vt -0.3359 0.0238 0.0000
vt -0.1789 0.0524 0.0000
vt -0.2214 0.1478 0.0000
vt -0.3351 0.1272 0.0000
vt -0.0789 0.1085 0.0000
vt -0.1591 0.1930 0.0000
vt -0.4633 0.1353 0.0000
vt -0.4662 0.0091 0.0000
vt -0.2270 0.1470 0.0000
vt -0.1836 0.0465 0.0000
vt -0.4690 0.0175 0.0000
vt -0.4626 0.1353 0.0000
vt -0.4739 0.1315 0.0000
vt -0.4684 0.0085 0.0000
vt -0.3390 0.0214 0.0000
vt -0.3461 0.1276 0.0000
vt -0.0164 0.2275 0.0000
vt -0.1249 0.2524 0.0000
vt -0.1823 0.0537 0.0000
vt -0.2200 0.1494 0.0000
vt -0.3353 0.1292 0.0000
vt -0.3382 0.0189 0.0000
vt -0.3418 0.1293 0.0000
vt -0.3378 0.0174 0.0000
vt -0.4648 0.0150 0.0000
vt -0.4641 0.1361 0.0000
vt -0.3402 0.1238 0.0000
vt -0.3363 0.0258 0.0000
vt -0.3365 0.0234 0.0000
vt -0.1784 0.0431 0.0000
vt -0.2187 0.1462 0.0000
vt -0.3345 0.1251 0.0000
vt -0.0246 0.3513 0.0000
vt -0.1598 0.3530 0.0000
vt -0.4621 0.1364 0.0000
vt -0.4694 0.0160 0.0000
vt -0.4661 0.1394 0.0000
vt -0.4712 0.0110 0.0000
vt -0.4708 0.0113 0.0000
vt -0.4648 0.1315 0.0000
vt 0.1346 0.1210 0.0000
vt 0.1226 0.1375 0.0000
vt 0.1032 0.1312 0.0000
vt 0.1032 0.1108 0.0000
vt 0.1226 0.1045 0.0000
vt 0.1432 0.1067 0.0000
vt 0.3097 0.1067 0.0000
vt 0.3097 0.1811 0.0000
vt 0.1432 0.1811 0.0000
vt 0.0560 0.0399 0.0000
vt 0.2408 0.0386 0.0000
vt 0.1991 0.1881 0.0000
vt 0.0449 0.1920 0.0000
vt 0.2237 0.1635 0.0000
vt 0.2237 0.2379 0.0000
vt 0.0521 0.2379 0.0000
vt 0.0521 0.1635 0.0000
vt 0.0294 0.2572 0.0000
vt 0.0294 0.0908 0.0000
vt 0.2010 0.0908 0.0000
vt 0.2010 0.2572 0.0000
vt 0.0722 0.1949 0.0000
vt 0.0722 0.1205 0.0000
vt 0.2438 0.1205 0.0000
vt 0.2438 0.1949 0.0000
vt 0.0663 0.2448 0.0000
vt 0.0663 0.0783 0.0000
vt 0.2379 0.0783 0.0000
vt 0.2379 0.2448 0.0000
vt 0.1753 0.2050 0.0000
vt 0.1753 0.2380 0.0000
vt 0.1559 0.2317 0.0000
vt 0.1559 0.2113 0.0000
vt 0.1873 0.2215 0.0000
vt -0.3405 0.1210 0.0000
vt -0.4566 0.1268 0.0000
vt -0.4701 0.0110 0.0000
vt -0.3361 0.0205 0.0000
vt -0.4697 0.1365 0.0000
vt -0.4759 0.0087 0.0000
vt -0.3362 0.0205 0.0000
vt -0.3399 0.1259 0.0000
vt -0.4677 0.1390 0.0000
vt -0.4652 0.0114 0.0000
vt -0.3366 0.0260 0.0000
vt -0.3384 0.1261 0.0000
vt -0.0292 0.3531 0.0000
vt -0.1545 0.3456 0.0000
vt -0.1276 0.2449 0.0000
vt -0.0165 0.2291 0.0000
vt -0.2174 0.1503 0.0000
vt -0.1835 0.0485 0.0000
vt -0.4585 0.1265 0.0000
vt -0.4626 0.0157 0.0000
vt -0.3355 0.0250 0.0000
vt -0.3422 0.1250 0.0000
vt -0.1837 0.0442 0.0000
vt -0.2203 0.1488 0.0000
vt -0.1792 0.0480 0.0000
vt -0.2136 0.1441 0.0000
vt -0.3395 0.1296 0.0000
vt -0.3337 0.0194 0.0000
vt -0.1556 0.1866 0.0000
vt -0.0761 0.1084 0.0000
vt -0.1771 0.0505 0.0000
vt -0.2172 0.1415 0.0000
vt -0.3378 0.1210 0.0000
vt -0.3316 0.0238 0.0000
vt -0.1756 0.0463 0.0000
vt -0.2187 0.1484 0.0000
vt -0.0771 0.1116 0.0000
vt -0.1549 0.1936 0.0000
vt -0.4666 0.1339 0.0000
vt -0.4724 0.0107 0.0000
vt -0.2206 0.1451 0.0000
vt -0.1818 0.0454 0.0000
vt -0.4678 0.1293 0.0000
vt -0.4663 0.0107 0.0000
vt -0.4685 0.1265 0.0000
vt -0.4713 0.0153 0.0000
vt -0.3333 0.0196 0.0000
vt -0.3354 0.1327 0.0000
vt -0.0184 0.2281 0.0000
vt -0.1281 0.2487 0.0000
vt -0.4594 0.1370 0.0000
vt -0.4652 0.0166 0.0000
vt -0.3368 0.0224 0.0000
vt -0.3339 0.1254 0.0000
vt -0.3411 0.1292 0.0000
vt -0.3341 0.0188 0.0000
vt -0.1816 0.0459 0.0000
vt -0.2177 0.1503 0.0000
vt -0.3417 0.1277 0.0000
vt -0.3337 0.0210 0.0000
vt -0.1793 0.0507 0.0000
vt -0.2192 0.1472 0.0000
vt -0.0307 0.3539 0.0000
vt -0.1513 0.3507 0.0000
vt -0.1825 0.0514 0.0000
vt -0.2158 0.1515 0.0000
vt -0.4619 0.1332 0.0000
vt -0.4683 0.0069 0.0000
vt -0.4645 0.1338 0.0000
vt -0.4666 0.0142 0.0000
vt 0.1625 0.2876 0.0000
vt 0.1745 0.2710 0.0000
vt 0.1939 0.2774 0.0000
vt 0.1939 0.2978 0.0000
vt 0.1818 0.2673 0.0000
vt 0.2107 0.0931 0.0000
vt 0.2107 0.2596 0.0000
vt 0.0247 0.2596 0.0000
vt 0.0247 0.0931 0.0000
vt -0.9754 0.2685 0.0000
vt -0.9754 0.0320 0.0000
vt -0.6603 0.0320 0.0000
vt -0.6603 0.2685 0.0000
vt -0.8938 0.3885 0.0000
vt -0.4792 0.3939 0.0000
vt -0.4308 0.5609 0.0000
vt -0.8803 0.5796 0.0000
vt 0.0712 0.0929 0.0000
vt 0.2377 0.0929 0.0000
vt 0.2377 0.2197 0.0000
vt 0.0712 0.2197 0.0000
vt 0.0931 0.1225 0.0000
vt 0.2791 0.1225 0.0000
vt 0.2791 0.2493 0.0000
vt 0.0931 0.2493 0.0000
vt -0.6687 0.0408 0.0000
vt -0.6687 0.2760 0.0000
vt -0.9626 0.2760 0.0000
vt -0.9626 0.0408 0.0000
vt 0.0906 0.1006 0.0000
vt 0.2362 0.1006 0.0000
vt 0.2362 0.1758 0.0000
vt 0.0906 0.1758 0.0000
vt 0.2682 0.0945 0.0000
vt 0.2682 0.1697 0.0000
vt 0.1225 0.1697 0.0000
vt 0.1225 0.0945 0.0000
vt -0.7002 0.2583 0.0000
vt -0.8109 0.2693 0.0000
vt -0.8695 0.0496 0.0000
vt -0.7825 0.0485 0.0000
vt 0.1274 0.0323 0.0000
vt 0.2731 0.0323 0.0000
vt 0.2731 0.1583 0.0000
vt 0.1274 0.1583 0.0000
vt 0.1139 0.2000 0.0000
vt 0.1139 0.1248 0.0000
vt 0.2398 0.1248 0.0000
vt 0.2398 0.2000 0.0000
vt 0.0310 0.1323 0.0000
vt 0.1767 0.1323 0.0000
vt 0.1767 0.2582 0.0000
vt 0.0310 0.2582 0.0000
vt 0.2816 0.0822 0.0000
vt 0.3496 0.0822 0.0000
vt 0.3163 0.1244 0.0000
vt -0.6669 0.0278 0.0000
vt -0.6612 0.2280 0.0000
vt -0.9652 0.2655 0.0000
vt -0.9490 0.0523 0.0000
vt -0.9666 0.2596 0.0000
vt -0.9484 0.0580 0.0000
vt -0.6659 0.0259 0.0000
vt -0.6658 0.2305 0.0000
vt 0.1117 0.2214 0.0000
vt 0.1464 0.1792 0.0000
vt 0.1797 0.2214 0.0000
vt 0.1723 0.2288 0.0000
vt 0.1489 0.2051 0.0000
vt 0.1663 0.1932 0.0000
vt 0.1723 0.1576 0.0000
vt 0.1489 0.1695 0.0000
vt 0.2055 0.2526 0.0000
vt 0.2292 0.2292 0.0000
vt 0.2410 0.2465 0.0000
vt 0.2766 0.2526 0.0000
vt 0.2648 0.2292 0.0000
vt 0.1762 0.0752 0.0000
vt 0.1528 0.0515 0.0000
vt 0.1762 0.0396 0.0000
vt 0.2312 0.1297 0.0000
vt 0.3024 0.1297 0.0000
vt 0.2668 0.1357 0.0000
vt 0.2550 0.1530 0.0000
vt 0.2906 0.1530 0.0000
vt 0.1032 0.2380 0.0000
vt 0.1032 0.1668 0.0000
vt 0.1092 0.2024 0.0000
vt 0.1266 0.2143 0.0000
vt 0.1266 0.1787 0.0000
vt 0.1911 0.1373 0.0000
vt 0.1639 0.1375 0.0000
vt 0.1743 0.1059 0.0000
vt 0.0724 0.2480 0.0000
vt 0.0724 0.1768 0.0000
vt 0.2237 0.1768 0.0000
vt 0.2237 0.2480 0.0000
vt 0.0375 0.1245 0.0000
vt 0.0375 0.0534 0.0000
vt 0.1888 0.0534 0.0000
vt 0.1888 0.1245 0.0000
vt 0.0906 0.2334 0.0000
vt 0.0906 0.1978 0.0000
vt 0.2418 0.1978 0.0000
vt 0.2418 0.2334 0.0000
vt 0.0635 0.1139 0.0000
vt 0.0635 0.0905 0.0000
vt 0.2147 0.0905 0.0000
vt 0.2147 0.1150 0.0000
vt 0.2321 0.0840 0.0000
vt 0.2321 0.1173 0.0000
vt 0.0809 0.1173 0.0000
vt 0.0809 0.0840 0.0000
vt 0.0635 0.2134 0.0000
vt 0.0635 0.1900 0.0000
vt 0.2147 0.1900 0.0000
vt 0.2147 0.2134 0.0000
vt 0.1972 0.0333 0.0000
vt 0.1972 0.0570 0.0000
vt 0.0459 0.0570 0.0000
vt 0.0459 0.0333 0.0000
vt 0.0459 0.0963 0.0000
vt 0.0459 0.0790 0.0000
vt 0.1972 0.0790 0.0000
vt 0.1972 0.0963 0.0000
vt 0.2346 0.1393 0.0000
vt 0.2346 0.1630 0.0000
vt 0.0833 0.1630 0.0000
vt 0.0833 0.1393 0.0000
vt 0.0506 0.1530 0.0000
vt 0.0506 0.1297 0.0000
vt 0.2019 0.1297 0.0000
vt 0.2019 0.1530 0.0000
vt 0.2147 0.1443 0.0000
vt 0.2147 0.1680 0.0000
vt 0.0635 0.1680 0.0000
vt 0.0635 0.1443 0.0000
vt 0.0635 0.2601 0.0000
vt 0.0635 0.2427 0.0000
vt 0.2147 0.2427 0.0000
vt 0.2147 0.2601 0.0000
vt 0.2176 0.2073 0.0000
vt 0.2176 0.2311 0.0000
vt 0.0663 0.2311 0.0000
vt 0.0663 0.2073 0.0000
# 328 texture coords

g Cylinder03
usemtl Material__34
s 1
f 1/1/1 2/2/2 3/3/2 4/4/1 
f 1/1/1 5/5/1 2/2/2 
s 8
f 5/6/3 1/7/4 6/8/5 7/9/6 
f 1/10/4 4/11/7 8/12/8 6/13/5 
f 4/14/7 3/15/9 9/16/10 8/17/8 
f 3/18/9 2/19/11 10/20/12 9/21/10 
f 2/22/11 5/6/3 7/9/6 10/23/12 
f 7/24/6 6/25/5 11/26/13 12/27/14 
f 6/13/5 8/12/8 13/28/15 11/29/13 
f 8/30/8 9/31/10 14/32/16 13/33/15 
f 9/21/10 10/20/12 15/34/17 14/35/16 
f 10/36/12 7/37/6 12/38/14 15/39/17 
f 12/40/14 11/41/13 16/42/18 17/43/19 
f 11/29/13 13/28/15 18/44/20 16/45/18 
f 13/33/15 14/32/16 19/46/21 18/47/20 
f 14/35/16 15/34/17 20/48/22 19/49/21 
f 15/50/17 12/40/14 17/43/19 20/51/22 
f 17/52/19 16/53/18 21/54/23 22/55/24 
f 16/45/18 18/44/20 23/56/25 21/57/23 
f 18/58/20 19/59/21 24/60/26 23/61/25 
f 19/49/21 20/48/22 25/62/27 24/63/26 
f 20/64/22 17/65/19 22/66/24 25/67/27 
f 22/68/24 21/69/23 26/70/28 27/71/29 
f 21/57/23 23/56/25 28/72/30 26/73/28 
f 23/61/25 24/60/26 29/74/31 28/75/30 
f 24/63/26 25/62/27 30/76/32 29/77/31 
f 25/78/27 22/68/24 27/71/29 30/79/32 
s 1
f 27/80/2 26/81/2 28/82/2 29/83/2 
f 27/80/2 29/83/2 30/84/2 
s 2
f 31/85/33 32/86/33 33/87/33 34/88/33 
s 4
f 35/89/34 36/90/34 37/91/34 38/92/34 
s 8
f 31/93/35 34/94/35 36/95/35 35/96/35 
s 16
f 34/97/36 33/98/36 37/99/36 36/100/36 
s 32
f 33/101/37 32/102/37 38/103/37 37/104/37 
s 64
f 32/105/38 31/106/38 35/107/38 38/108/38 
s 1
f 39/109/39 40/110/39 41/111/39 42/112/39 
f 39/109/39 43/113/39 40/110/39 
s 8
f 43/114/40 39/115/41 44/116/42 45/117/43 
f 39/118/41 42/119/44 46/120/45 44/121/42 
f 42/122/44 41/123/46 47/124/47 46/125/45 
f 41/126/46 40/127/48 48/128/49 47/129/47 
f 40/130/48 43/114/40 45/117/43 48/131/49 
f 45/132/43 44/133/42 49/134/50 50/135/51 
f 44/121/42 46/120/45 51/136/52 49/137/50 
f 46/138/45 47/139/47 52/140/53 51/141/52 
f 47/129/47 48/128/49 53/142/54 52/143/53 
f 48/144/49 45/145/43 50/146/51 53/147/54 
f 50/135/51 49/134/50 54/148/55 55/149/56 
f 49/137/50 51/136/52 56/150/57 54/151/55 
f 51/141/52 52/140/53 57/152/58 56/153/57 
f 52/143/53 53/142/54 58/154/59 57/155/58 
f 53/147/54 50/146/51 55/156/56 58/157/59 
f 55/158/56 54/159/55 59/160/60 60/161/61 
f 54/151/55 56/150/57 61/162/62 59/163/60 
f 56/164/57 57/165/58 62/166/63 61/167/62 
f 57/155/58 58/154/59 63/168/64 62/169/63 
f 58/170/59 55/171/56 60/172/61 63/173/64 
f 60/161/61 59/160/60 64/174/65 65/175/66 
f 59/163/60 61/162/62 66/176/67 64/177/65 
f 61/167/62 62/166/63 67/178/68 66/179/67 
f 62/169/63 63/168/64 68/180/69 67/181/68 
f 63/173/64 60/172/61 65/182/66 68/183/69 
s 1
f 65/184/70 64/185/70 66/186/70 67/187/70 
f 65/184/70 67/187/70 68/188/70 
s 2
f 69/189/33 70/190/33 71/191/33 72/192/33 
s 4
f 73/193/71 74/194/71 75/195/71 76/196/71 
s 8
f 69/197/35 72/198/72 74/199/35 73/200/35 
s 16
f 72/201/1 71/202/1 75/203/1 74/204/73 
s 32
f 71/205/37 70/206/37 76/207/37 75/208/37 
s 64
f 70/209/38 69/210/38 73/211/38 76/212/38 
s 2
f 77/213/33 78/214/33 79/215/33 80/216/33 
s 4
f 81/217/34 82/218/34 83/219/34 84/220/34 
s 8
f 77/221/74 80/222/74 82/223/74 81/224/74 
s 16
f 80/225/1 79/226/1 83/227/1 82/228/73 
s 32
f 79/229/37 78/230/75 84/231/37 83/232/37 
s 64
f 78/233/76 77/234/38 81/235/76 84/236/77 
s 1
f 85/237/39 86/238/39 87/239/39 
s 8
f 85/240/78 87/241/79 88/242/80 89/243/78 
f 87/244/79 86/245/81 90/246/82 88/247/80 
s 1
f 89/248/72 88/249/72 90/250/72 
s 2
f 91/251/37 92/252/37 93/253/37 94/254/39 
f 94/254/39 93/253/37 95/255/39 
f 94/256/39 96/257/39 97/258/39 98/259/37 
f 98/259/37 97/258/39 99/260/39 
f 98/261/37 100/262/37 101/263/37 
s 4
f 102/264/83 103/265/72 104/266/83 105/267/83 
f 106/268/35 104/266/83 103/265/72 
f 103/269/72 107/270/72 108/271/74 109/272/74 
f 110/273/74 108/271/74 107/270/72 
f 111/274/72 112/275/72 107/276/72 
s 8
f 91/277/84 94/278/84 103/279/84 102/280/34 
f 94/281/84 98/282/85 107/283/86 103/284/84 
f 98/285/85 101/286/87 111/287/88 107/288/86 
s 32
f 101/289/89 100/290/90 112/291/91 111/292/92 
f 100/293/90 98/294/93 107/295/93 
f 107/295/93 112/296/91 100/293/90 
f 98/297/94 99/298/95 110/299/95 
f 110/299/95 107/300/94 98/297/94 
f 99/301/95 97/302/96 108/303/97 110/304/95 
f 97/305/96 96/306/98 109/307/99 108/308/97 
f 96/309/98 94/310/100 103/311/100 
f 103/311/93 109/312/99 96/309/98 
f 94/313/101 95/314/102 106/315/95 
f 106/315/95 103/316/94 94/313/94 
f 95/317/102 93/318/97 104/319/97 106/320/95 
f 93/321/97 92/322/99 105/323/99 104/324/97 
f 92/325/99 91/326/93 102/327/100 105/328/99 
# 87 polygons - 20 triangles

