# 3ds Max Wavefront OBJ Exporter v0.97b - (c)2007 guruware
# File Created: 26.05.2011 23:09:09

mtllib radioset_backpack.mtl

#
# object Box03
#

v  -9.2422 8.9649 -21.8945
v  -9.2422 36.3369 -21.8451
v  -0.4273 38.9016 -21.8451
v  -0.4273 8.9649 -21.8945
v  -9.2422 8.9147 7.8710
v  -0.4273 8.9147 7.8710
v  -0.4273 38.8515 7.9174
v  -9.2422 36.2867 7.9174
v  -6.6093 -0.0499 -20.0437
v  -0.4194 0.0800 -20.0437
v  -0.4194 0.0332 6.1194
v  -6.6093 -0.0967 6.1194
v  -0.4273 7.6296 -20.0280
v  -6.3704 7.6296 -20.0280
v  -0.4273 7.5828 6.1351
v  -6.3704 7.5828 6.1351
v  -4.8141 19.8227 -24.6001
v  -4.8141 27.4779 -24.5118
v  -4.8141 28.9562 -25.8895
v  -4.8141 18.6902 -25.9854
v  -4.8141 29.3161 -19.4501
v  -4.8141 27.7044 -19.5393
v  -4.8141 18.1470 -19.3542
v  -4.8141 19.3376 -19.3353
v  -11.1187 27.2663 0.9051
v  -11.0434 26.4304 4.9159
v  -11.0434 32.9865 4.9159
v  -11.1187 32.9865 0.9051
v  -9.3060 26.3664 0.1252
v  -9.2307 25.5305 5.3928
v  -9.2307 33.7251 5.3928
v  -9.3060 33.7251 0.1252
v  -4.8564 70.4183 3.9292
v  -4.8564 37.2535 2.5353
v  -5.7039 37.2535 3.1944
v  -5.7039 70.4183 4.5883
v  -4.8564 37.2535 3.9105
v  -4.8564 70.4183 5.3043
v  -6.4866 119.9370 13.4230
v  -5.6391 119.9370 13.0195
v  -5.6391 119.9370 13.8061
v  -9.9751 18.2659 1.8162
v  -10.7792 7.8780 -1.0323
v  -9.9751 6.9437 -0.2804
v  -10.7792 17.5336 2.8905
v  -10.7792 5.5345 -6.7664
v  -9.9751 6.6200 -6.6859
v  -10.7792 26.5147 3.3858
v  -10.7792 26.7255 2.2138
v  -9.9751 8.3801 -12.7218
v  -10.7792 9.3310 -12.1580
v  -9.9751 15.0194 -14.4039
v  -10.7792 14.4983 -15.4853
v  -10.7792 33.5418 -16.6117
v  -10.7792 33.4395 -17.7723
v  -8.1602 33.5418 -16.6117
v  -8.1602 33.4395 -17.7723
v  -2.1582 38.4705 -19.5241
v  -7.1965 42.2657 -19.5241
v  -7.1965 42.2155 -7.9821
v  -2.1582 38.4204 -7.9821
v  -4.8141 19.4668 12.2781
v  -4.8141 28.7909 11.9940
v  -4.8141 27.4667 10.9887
v  -4.8141 20.5669 11.1009
v  -4.8141 29.6995 7.8203
v  -4.8141 28.2017 7.6136
v  -4.8141 19.7175 7.4877
v  -4.8141 18.5582 7.5805
# 69 vertices

vn -0.0001 0.0017 -1.0000
vn -0.0005 0.0018 -1.0000
vn -0.0004 0.0018 -1.0000
vn 0.0000 0.0016 -1.0000
vn 0.0001 -0.0016 1.0000
vn 0.0000 -0.0015 1.0000
vn 0.0004 -0.0017 1.0000
vn 0.0005 -0.0017 1.0000
vn 0.0210 -0.9998 -0.0018
vn 1.0000 0.0000 0.0000
vn -0.2794 0.9602 0.0016
vn -1.0000 -0.0000 -0.0000
vn 0.0000 -0.8133 -0.5818
vn -0.0000 -0.7934 0.6087
vn -0.4211 -0.9070 -0.0016
vn -0.0000 0.0021 -1.0000
vn 1.0000 0.0010 0.0000
vn 0.0000 -0.0021 1.0000
vn -0.9995 0.0311 0.0001
vn -1.0000 0.0000 -0.0000
vn -0.9998 -0.0000 0.0188
vn -0.9998 0.0000 0.0188
vn -0.4496 -0.8803 -0.1513
vn -0.2544 -0.0000 0.9671
vn -0.3769 0.9262 0.0061
vn -0.3952 -0.0000 -0.9186
vn -0.6136 0.0332 -0.7889
vn -0.6451 -0.0321 0.7635
vn -0.5257 0.1434 -0.8385
vn -0.5376 -0.1536 0.8291
vn -0.8741 0.0884 -0.4777
vn -0.7492 -0.1206 0.6513
vn -0.8239 -0.1032 0.5573
vn -0.8285 0.1020 -0.5506
vn -1.0000 -0.0000 0.0000
vn -0.9377 -0.0255 -0.3464
vn -1.0000 0.0000 0.0000
vn -0.9428 0.0197 0.3327
vn 0.0000 0.9961 -0.0878
vn 0.6017 0.7987 0.0035
# 40 vertex normals

vt 0.6086 0.0332 0.0000
vt 0.6069 0.5591 0.0000
vt 0.8051 0.5620 0.0000
vt 0.8014 0.0348 0.0000
vt 0.6073 0.0342 0.0000
vt 0.8008 0.0345 0.0000
vt 0.8057 0.5613 0.0000
vt 0.6061 0.5601 0.0000
vt 0.3318 0.7586 0.0000
vt 0.3324 0.8271 0.0000
vt 0.0604 0.8300 0.0000
vt 0.0598 0.7615 0.0000
vt 0.0394 0.3050 0.0000
vt 0.0403 0.0271 0.0000
vt 0.5804 0.0276 0.0000
vt 0.5795 0.3054 0.0000
vt 0.0286 0.5500 0.0000
vt 0.0286 0.7450 0.0000
vt 0.6078 0.7441 0.0000
vt 0.6078 0.5491 0.0000
vt 0.0275 0.5510 0.0000
vt 0.0249 0.0150 0.0000
vt 0.5866 0.0125 0.0000
vt 0.5891 0.5485 0.0000
vt 0.5823 0.0208 0.0000
vt 0.5836 0.1436 0.0000
vt 0.5488 0.1438 0.0000
vt 0.5480 0.0610 0.0000
vt 0.1373 0.7701 0.0000
vt 0.4233 0.7706 0.0000
vt 0.4066 0.7834 0.0000
vt 0.1552 0.7829 0.0000
vt 0.0290 0.1469 0.0000
vt 0.0277 0.0241 0.0000
vt 0.0605 0.0639 0.0000
vt 0.0613 0.1467 0.0000
vt 0.5283 0.7639 0.0000
vt 0.5854 0.7639 0.0000
vt 0.5855 0.8365 0.0000
vt 0.5260 0.8377 0.0000
vt 0.0281 0.8197 0.0000
vt 0.5510 0.8207 0.0000
vt 0.5507 0.9881 0.0000
vt 0.0278 0.9871 0.0000
vt 0.5277 0.7682 0.0000
vt 0.5848 0.7682 0.0000
vt 0.5871 0.8420 0.0000
vt 0.5276 0.8407 0.0000
vt 0.5515 0.9875 0.0000
vt 0.0207 0.9948 0.0000
vt 0.0189 0.8112 0.0000
vt 0.5497 0.8039 0.0000
vt 0.9852 0.3570 0.0000
vt 0.9862 0.4307 0.0000
vt 0.9180 0.4337 0.0000
vt 0.9206 0.3574 0.0000
vt 0.9180 0.4904 0.0000
vt 0.9849 0.4870 0.0000
vt 0.9233 0.3002 0.0000
vt 0.9830 0.2987 0.0000
vt 0.6607 0.6426 0.0000
vt 0.7714 0.6202 0.0000
vt 0.7709 0.7980 0.0000
vt 0.6603 0.7977 0.0000
vt 0.6358 0.5521 0.0000
vt 0.7933 0.5505 0.0000
vt 0.7706 0.6086 0.0000
vt 0.6577 0.6315 0.0000
vt 0.7985 0.8349 0.0000
vt 0.8007 0.5656 0.0000
vt 0.7725 0.6184 0.0000
vt 0.7680 0.8006 0.0000
vt 0.7984 0.8369 0.0000
vt 0.6331 0.8286 0.0000
vt 0.6616 0.7971 0.0000
vt 0.7657 0.7988 0.0000
vt 0.6337 0.5693 0.0000
vt 0.6348 0.8306 0.0000
vt 0.6575 0.8008 0.0000
vt 0.6609 0.6422 0.0000
vt 0.9211 0.5092 0.0000
vt 0.9137 0.0227 0.0000
vt 0.9424 0.0216 0.0000
vt 0.9516 0.5098 0.0000
vt 0.9519 0.5081 0.0000
vt 0.9435 0.0216 0.0000
vt 0.9765 0.0196 0.0000
vt 0.9866 0.5087 0.0000
vt 0.9493 0.9847 0.0000
vt 0.9194 0.9850 0.0000
vt 0.9876 0.9844 0.0000
vt 0.9511 0.9847 0.0000
vt 0.9122 0.2454 0.0000
vt 0.9099 0.4869 0.0000
vt 0.8256 0.4851 0.0000
vt 0.8257 0.2453 0.0000
vt 0.8253 0.5508 0.0000
vt 0.9096 0.5482 0.0000
vt 0.8242 0.0256 0.0000
vt 0.9093 0.0281 0.0000
vt 0.8272 0.6430 0.0000
vt 0.9091 0.6425 0.0000
vt 0.9087 0.7262 0.0000
vt 0.8257 0.7259 0.0000
vt 0.9082 0.8629 0.0000
vt 0.8235 0.8628 0.0000
vt 0.9039 0.9873 0.0000
vt 0.8242 0.9847 0.0000
vt 0.8199 0.8833 0.0000
vt 0.9048 0.8798 0.0000
vt 0.5781 0.9789 0.0000
vt 0.5797 0.8603 0.0000
vt 0.8042 0.8617 0.0000
vt 0.8043 0.9803 0.0000
vt 0.9252 0.2039 0.0000
vt 0.9210 0.1332 0.0000
vt 0.9778 0.1331 0.0000
vt 0.9793 0.2028 0.0000
vt 0.9183 0.0679 0.0000
vt 0.9794 0.0652 0.0000
vt 0.9798 0.2401 0.0000
vt 0.9249 0.2401 0.0000
# 122 texture coords

g Box03
usemtl wire_140088225
s 2
f 1/1/1 2/2/2 3/3/3 4/4/4 
s 4
f 5/5/5 6/6/6 7/7/7 8/8/8 
s 8
f 9/9/9 10/10/9 11/11/9 12/12/9 
s 16
f 4/13/10 3/14/10 7/15/10 6/16/10 
s 32
f 3/17/11 2/18/11 8/19/11 7/20/11 
s 64
f 2/21/12 1/22/12 5/23/12 8/24/12 
s off
f 1/25/13 4/26/13 13/27/13 14/28/13 
f 4/29/10 6/30/10 15/31/10 13/32/10 
f 6/33/14 5/34/14 16/35/14 15/36/14 
f 5/34/15 1/25/15 14/28/15 16/35/15 
f 14/37/16 13/38/16 10/39/16 9/40/16 
f 13/41/17 15/42/17 11/43/17 10/44/17 
f 15/45/18 16/46/18 12/47/18 11/48/18 
f 16/49/19 14/50/19 9/51/19 12/52/19 
s 64
f 17/53/20 18/54/20 19/55/20 20/56/20 
s off
f 21/57/20 19/55/20 18/54/20 22/58/20 
f 17/53/12 20/56/12 23/59/12 24/60/12 
s 8
f 25/61/21 26/62/21 27/63/22 28/64/22 
s off
f 29/65/23 30/66/23 26/67/23 25/68/23 
f 30/69/24 31/70/24 27/71/24 26/72/24 
f 31/73/25 32/74/25 28/75/25 27/76/25 
f 32/77/26 29/78/26 25/79/26 28/80/26 
f 33/81/27 34/82/27 35/83/27 36/84/27 
f 36/85/28 35/86/28 37/87/28 38/88/28 
f 33/81/29 36/84/29 39/89/29 40/90/29 
f 36/85/30 38/88/30 41/91/30 39/92/30 
s 64
f 42/93/31 43/94/32 44/95/33 45/96/34 
s off
f 46/97/35 44/95/35 43/94/35 47/98/35 
f 42/93/36 45/96/36 48/99/36 49/100/36 
f 50/101/37 46/97/37 47/98/37 51/102/37 
f 50/101/37 51/102/37 52/103/37 53/104/37 
f 53/104/38 52/103/38 54/105/38 55/106/38 
f 55/107/39 54/108/39 56/109/39 57/110/39 
s 32
f 58/111/40 59/112/40 60/113/40 61/114/40 
s 64
f 62/115/20 63/116/20 64/117/20 65/118/20 
s off
f 64/117/35 63/116/35 66/119/35 67/120/35 
f 68/121/37 69/122/37 62/115/37 65/118/37 
# 37 polygons

