# 3ds Max Wavefront OBJ Exporter v0.97b - (c)2007 guruware
# File Created: 10.07.2011 23:08:53

mtllib knife2.mtl

#
# object Box01
#

v  1.2917 0.6737 114.3901
v  -10.3391 -0.2412 91.1193
v  14.1014 -0.2412 91.1193
v  2.4706 0.6737 114.3901
v  -16.1633 -0.6993 55.8494
v  19.9256 -0.6993 55.8494
v  -14.9590 -0.6046 16.7548
v  18.7213 -0.6046 16.7548
v  -12.8483 -0.4386 -6.5160
v  16.6106 -0.4386 -6.5160
v  -6.4965 0.0611 -38.4948
v  10.2588 0.0611 -38.4948
v  1.2917 0.7664 114.3901
v  2.4706 0.7664 114.3901
v  14.1014 1.6813 91.1193
v  -10.3391 1.6813 91.1193
v  19.9256 2.1394 55.8494
v  -16.1633 2.1394 55.8494
v  18.7213 2.0447 16.7548
v  -14.9590 2.0447 16.7548
v  16.6106 1.8786 -6.5160
v  -12.8483 1.8786 -6.5160
v  10.2588 1.3790 -38.4948
v  -6.4965 1.3790 -38.4948
v  -6.6449 1.2218 -30.6461
v  -6.6449 1.2218 -42.0204
v  -15.8088 1.1980 -38.9453
v  -15.8088 1.1980 -32.8927
v  -25.5401 1.1726 -35.3434
v  -25.5401 1.1726 -22.5695
v  -35.2715 1.1473 -34.0233
v  -35.2715 1.1473 -22.6489
v  -6.6371 0.1135 -30.6461
v  -15.8010 0.0896 -32.8927
v  -15.8010 0.0896 -38.9453
v  -6.6371 0.1135 -42.0204
v  -25.5324 0.0643 -22.5695
v  -25.5324 0.0643 -35.3434
v  -35.2637 0.0389 -22.6489
v  -35.2637 0.0389 -34.0233
v  9.4774 0.1414 -30.6461
v  9.4774 0.1414 -42.0204
v  18.6413 0.1414 -38.9453
v  18.6413 0.1414 -32.8927
v  28.3727 0.1414 -35.3434
v  28.3727 0.1414 -22.7441
v  38.1041 0.1414 -34.0233
v  38.1041 0.1414 -22.6489
v  9.4774 1.1159 -30.6461
v  18.6413 1.1159 -32.8927
v  18.6413 1.1159 -38.9453
v  9.4774 1.1159 -42.0204
v  28.3727 1.1159 -22.7441
v  28.3727 1.1159 -35.3434
v  38.1041 1.1159 -22.6489
v  38.1041 1.1159 -34.0233
v  1.8053 0.0582 -118.2645
v  -2.7932 2.2007 -118.2892
v  6.4038 2.2007 -118.2892
v  11.0023 0.0582 -118.2645
v  -2.7932 -1.7014 -118.2397
v  -7.3917 0.0582 -118.2645
v  6.4038 -1.7014 -118.2397
v  8.8508 3.3646 -91.8985
v  15.8963 0.0821 -91.8606
v  -5.2402 3.3646 -91.8985
v  -12.2857 0.0821 -91.8606
v  -5.2402 -2.6138 -91.8227
v  8.8508 -2.6138 -91.8227
v  8.8508 3.4467 -65.4947
v  15.8963 0.1642 -65.4567
v  -5.2402 3.4467 -65.4947
v  -12.2857 0.1642 -65.4567
v  -5.2402 -2.5317 -65.4188
v  8.8508 -2.5317 -65.4188
v  6.1565 2.3376 -39.0763
v  10.5078 0.3104 -39.0528
v  -2.5459 2.3376 -39.0763
v  -6.8971 0.3104 -39.0528
v  -2.5459 -1.3546 -39.0294
v  6.1565 -1.3546 -39.0294
v  1.8053 0.3104 -39.0528
# 82 vertices

vn 0.0000 -0.9992 0.0393
vn 0.0000 -0.9997 0.0232
vn 0.0000 -1.0000 0.0049
vn 0.0000 -1.0000 -0.0047
vn 0.0000 -0.9999 -0.0110
vn 0.0000 -0.9999 -0.0156
vn 0.0000 0.9992 0.0393
vn 0.0000 0.9997 0.0232
vn 0.0000 1.0000 0.0049
vn 0.0000 1.0000 -0.0047
vn 0.0000 0.9999 -0.0110
vn 0.0000 0.9999 -0.0156
vn 0.0000 0.0000 1.0000
vn 0.8945 0.0000 0.4471
vn 0.9520 0.0000 0.3062
vn 0.9978 0.0000 0.0661
vn 0.9982 0.0000 -0.0605
vn 0.9898 0.0000 -0.1424
vn 0.9808 0.0000 -0.1948
vn 0.0000 0.0000 -1.0000
vn -0.9808 0.0000 -0.1948
vn -0.9898 0.0000 -0.1424
vn -0.9982 0.0000 -0.0605
vn -0.9978 0.0000 0.0661
vn -0.9520 0.0000 0.3062
vn -0.8945 0.0000 0.4471
vn -0.0026 1.0000 -0.0000
vn -0.0026 1.0000 0.0000
vn 0.0026 -1.0000 -0.0000
vn -0.2381 -0.0017 0.9712
vn 0.2846 0.0020 0.9586
vn 0.2820 0.0020 0.9594
vn 0.3916 0.0027 0.9201
vn 0.3935 0.0028 0.9193
vn -0.0082 -0.0001 1.0000
vn -1.0000 -0.0070 -0.0000
vn -0.1344 -0.0009 -0.9909
vn -0.2419 -0.0017 -0.9703
vn -0.2425 -0.0017 -0.9701
vn -0.3327 -0.0023 -0.9430
vn -0.3326 -0.0023 -0.9431
vn -0.3181 -0.0022 -0.9480
vn 1.0000 0.0070 -0.0000
vn -0.0000 -1.0000 -0.0000
vn 0.0000 -1.0000 -0.0000
vn 0.0000 1.0000 -0.0000
vn 0.2381 0.0000 0.9712
vn -0.2792 0.0000 0.9602
vn -0.3968 0.0000 0.9179
vn -0.0098 0.0000 1.0000
vn 1.0000 0.0000 -0.0000
vn 0.1344 0.0000 -0.9909
vn 0.2422 0.0000 -0.9702
vn 0.3327 0.0000 -0.9430
vn 0.3181 0.0000 -0.9480
vn -1.0000 0.0000 -0.0000
vn 0.0000 -0.0128 -0.9999
vn 0.0000 -0.0116 -0.9999
vn 0.0000 -0.0127 -0.9999
vn 0.0000 -0.0141 -0.9999
vn 0.9827 -0.0334 -0.1821
vn 0.2047 0.9769 -0.0621
vn 0.2216 0.9746 -0.0334
vn 0.9956 -0.0345 -0.0868
vn -0.2047 0.9769 -0.0621
vn -0.2216 0.9746 -0.0334
vn -0.9827 -0.0334 -0.1821
vn -0.9956 -0.0345 -0.0868
vn -0.1719 -0.9838 -0.0499
vn -0.1863 -0.9822 -0.0241
vn 0.1719 -0.9838 -0.0499
vn 0.1863 -0.9822 -0.0241
vn 0.2220 0.9746 0.0303
vn 0.9949 -0.0336 0.0951
vn -0.2220 0.9746 0.0303
vn -0.9949 -0.0336 0.0951
vn -0.1869 -0.9818 0.0331
vn 0.1869 -0.9818 0.0331
vn 0.2038 0.9771 0.0618
vn 0.9789 -0.0418 0.2000
vn -0.2038 0.9771 0.0618
vn -0.9789 -0.0418 0.2000
vn -0.1707 -0.9834 0.0613
vn 0.1707 -0.9834 0.0613
vn -0.0000 0.0128 0.9999
vn 0.0000 0.0141 0.9999
vn 0.0000 0.0127 0.9999
vn 0.0000 0.0116 0.9999
vn -0.0000 0.0116 0.9999
vn -0.0000 0.0127 0.9999
vn -0.0000 0.0141 0.9999
# 91 vertex normals

vt -0.9985 0.2139 0.0000
vt -0.8677 0.2172 0.0000
vt -0.9276 0.3201 0.0000
vt -1.0014 0.2188 0.0000
vt -0.7088 0.2846 0.0000
vt -0.7814 0.4112 0.0000
vt -0.5321 0.3747 0.0000
vt -0.6121 0.5068 0.0000
vt -0.4375 0.4310 0.0000
vt -0.5047 0.5502 0.0000
vt -0.3076 0.5247 0.0000
vt -0.3486 0.5953 0.0000
vt -1.0046 0.2174 0.0000
vt -1.0017 0.2126 0.0000
vt -0.8713 0.2180 0.0000
vt -0.9309 0.3183 0.0000
vt -0.7029 0.2827 0.0000
vt -0.7825 0.4096 0.0000
vt -0.5363 0.3761 0.0000
vt -0.6160 0.5069 0.0000
vt -0.4370 0.4305 0.0000
vt -0.5088 0.5514 0.0000
vt -0.3122 0.5296 0.0000
vt -0.3531 0.5983 0.0000
vt 0.1627 0.3214 0.0000
vt 0.1678 0.3186 0.0000
vt 0.1682 0.3188 0.0000
vt 0.1630 0.3216 0.0000
vt 0.2405 0.2635 0.0000
vt 0.3158 0.3046 0.0000
vt 0.3119 0.3103 0.0000
vt 0.2403 0.2638 0.0000
vt 0.4286 0.3691 0.0000
vt 0.4219 0.3786 0.0000
vt 0.5514 0.4436 0.0000
vt 0.5460 0.4513 0.0000
vt 0.6246 0.4879 0.0000
vt 0.6199 0.4946 0.0000
vt 0.7246 0.5495 0.0000
vt 0.7219 0.5534 0.0000
vt 0.2667 0.3172 0.0000
vt 0.2667 0.4173 0.0000
vt 0.2588 0.4173 0.0000
vt 0.2588 0.3172 0.0000
vt 0.2427 0.2579 0.0000
vt 0.3406 0.3160 0.0000
vt 0.3353 0.3217 0.0000
vt 0.2397 0.2612 0.0000
vt 0.4113 0.3587 0.0000
vt 0.4053 0.3653 0.0000
vt 0.5302 0.4304 0.0000
vt 0.5228 0.4385 0.0000
vt 0.6353 0.4975 0.0000
vt 0.6310 0.5023 0.0000
vt 0.7036 0.5429 0.0000
vt 0.7034 0.5432 0.0000
vt -0.2441 0.5572 0.0000
vt -0.3010 0.5879 0.0000
vt -0.2615 0.4707 0.0000
vt -0.2473 0.5583 0.0000
vt -0.2136 0.4783 0.0000
vt -0.2249 0.5321 0.0000
vt -0.1831 0.4784 0.0000
vt -0.1907 0.5289 0.0000
vt -0.2860 0.5611 0.0000
vt -0.2654 0.4690 0.0000
vt -0.2423 0.5603 0.0000
vt -0.2991 0.5924 0.0000
vt -0.2118 0.4682 0.0000
vt -0.2210 0.5297 0.0000
vt -0.1853 0.4793 0.0000
vt -0.1897 0.5309 0.0000
vt 0.4999 0.5009 0.0000
vt 0.5000 0.4445 0.0000
vt 0.5066 0.4445 0.0000
vt 0.5065 0.5009 0.0000
vt 0.6022 0.5802 0.0000
vt 0.6024 0.5185 0.0000
vt 0.6090 0.5185 0.0000
vt 0.6088 0.5802 0.0000
vt 0.3382 0.4776 0.0000
vt 0.3384 0.4195 0.0000
vt 0.3450 0.4195 0.0000
vt 0.3449 0.4777 0.0000
vt 0.6175 0.5865 0.0000
vt 0.6175 0.5185 0.0000
vt 0.6241 0.5185 0.0000
vt 0.6241 0.5865 0.0000
vt 0.5683 0.5719 0.0000
vt 0.5223 0.5363 0.0000
vt 0.5264 0.5311 0.0000
vt 0.5724 0.5666 0.0000
vt 0.4763 0.5008 0.0000
vt 0.4803 0.4955 0.0000
vt 0.4330 0.4673 0.0000
vt 0.4370 0.4620 0.0000
vt 0.3384 0.4109 0.0000
vt 0.3384 0.3430 0.0000
vt 0.3450 0.3430 0.0000
vt 0.3450 0.4109 0.0000
vt -0.1852 0.4812 0.0000
vt -0.1881 0.5338 0.0000
vt -0.2226 0.5315 0.0000
vt -0.2131 0.4739 0.0000
vt -0.2428 0.5638 0.0000
vt -0.2665 0.4725 0.0000
vt -0.3019 0.5963 0.0000
vt -0.2888 0.5655 0.0000
vt -0.4327 0.6403 0.0000
vt -0.3922 0.6292 0.0000
vt -0.3763 0.6649 0.0000
vt -0.4321 0.6674 0.0000
vt -0.3754 0.6131 0.0000
vt -0.3365 0.6410 0.0000
vt -0.3386 0.5839 0.0000
vt -0.3191 0.5995 0.0000
vt 0.3781 0.4136 0.0000
vt 0.4214 0.4472 0.0000
vt 0.4178 0.4518 0.0000
vt 0.3745 0.4182 0.0000
vt 0.3299 0.3430 0.0000
vt 0.3299 0.4036 0.0000
vt 0.3241 0.4036 0.0000
vt 0.3241 0.3430 0.0000
vt 0.3297 0.4195 0.0000
vt 0.3297 0.4776 0.0000
vt 0.3239 0.4776 0.0000
vt 0.3239 0.4195 0.0000
vt 0.5210 0.4445 0.0000
vt 0.5210 0.5125 0.0000
vt 0.5151 0.5125 0.0000
vt 0.5151 0.4445 0.0000
vt 0.0303 0.2502 0.0000
vt 0.0882 0.2440 0.0000
vt 0.0888 0.2498 0.0000
vt 0.0310 0.2560 0.0000
vt 0.1460 0.2377 0.0000
vt 0.1466 0.2435 0.0000
vt 0.2004 0.2319 0.0000
vt 0.2011 0.2377 0.0000
vt 0.2503 0.3172 0.0000
vt 0.2503 0.3851 0.0000
vt 0.2445 0.3851 0.0000
vt 0.2445 0.3172 0.0000
vt 0.8854 0.7040 0.0000
vt 0.8726 0.7314 0.0000
vt 0.8726 0.6765 0.0000
vt 0.8854 0.6490 0.0000
vt 0.8959 0.7314 0.0000
vt 0.8854 0.7589 0.0000
vt 0.8959 0.6765 0.0000
vt -0.3302 0.6279 0.0000
vt -0.2983 0.5964 0.0000
vt -0.2158 0.6481 0.0000
vt -0.2675 0.6711 0.0000
vt -0.2798 0.5792 0.0000
vt -0.1863 0.6158 0.0000
vt -0.2392 0.5573 0.0000
vt -0.1537 0.5816 0.0000
vt -0.0009 0.7134 0.0000
vt -0.0100 0.7273 0.0000
vt -0.1005 0.6597 0.0000
vt -0.0660 0.6262 0.0000
vt -0.0302 0.7419 0.0000
vt -0.1314 0.6887 0.0000
vt -0.0735 0.7546 0.0000
vt -0.1780 0.7212 0.0000
vt -0.1288 0.6900 0.0000
vt -0.1770 0.7222 0.0000
vt -0.1016 0.6610 0.0000
vt -0.0698 0.6254 0.0000
vt -0.1874 0.6160 0.0000
vt -0.1529 0.5826 0.0000
vt -0.2184 0.6451 0.0000
vt -0.2649 0.6719 0.0000
vt -0.0318 0.7398 0.0000
vt -0.0739 0.7525 0.0000
vt -0.0095 0.7253 0.0000
vt -0.0025 0.7061 0.0000
vt -0.2802 0.5779 0.0000
vt -0.2372 0.5578 0.0000
vt -0.2993 0.5959 0.0000
vt -0.3311 0.6283 0.0000
vt 0.5416 0.4965 0.0000
vt 0.5516 0.5225 0.0000
vt 0.5416 0.5485 0.0000
vt 0.5295 0.5225 0.0000
vt 0.5295 0.4705 0.0000
vt 0.5416 0.4445 0.0000
vt 0.5516 0.4705 0.0000
# 190 texture coords

g Box01
usemtl Material__34
s 2
f 1/1/1 2/2/2 3/3/2 4/4/1 
f 2/2/2 5/5/3 6/6/3 3/3/2 
f 5/5/3 7/7/4 8/8/4 6/6/3 
f 7/7/4 9/9/5 10/10/5 8/8/4 
f 9/9/5 11/11/6 12/12/6 10/10/5 
s 4
f 13/13/7 14/14/7 15/15/8 16/16/8 
f 16/16/8 15/15/8 17/17/9 18/18/9 
f 18/18/9 17/17/9 19/19/10 20/20/10 
f 20/20/10 19/19/10 21/21/11 22/22/11 
f 22/22/11 21/21/11 23/23/12 24/24/12 
s 8
f 1/25/13 4/26/13 14/27/13 13/28/13 
s 16
f 4/29/14 3/30/15 15/31/15 14/32/14 
f 3/30/15 6/33/16 17/34/16 15/31/15 
f 6/33/16 8/35/17 19/36/17 17/34/16 
f 8/35/17 10/37/18 21/38/18 19/36/17 
f 10/37/18 12/39/19 23/40/19 21/38/18 
s 32
f 12/41/20 11/42/20 24/43/20 23/44/20 
s 64
f 11/45/21 9/46/22 22/47/22 24/48/21 
f 9/46/22 7/49/23 20/50/23 22/47/22 
f 7/49/23 5/51/24 18/52/24 20/50/23 
f 5/51/24 2/53/25 16/54/25 18/52/24 
f 2/53/25 1/55/26 13/56/26 16/54/25 
s 2
f 25/57/27 26/58/27 27/59/27 28/60/28 
f 28/60/28 27/59/27 29/61/28 30/62/28 
f 30/62/28 29/61/28 31/63/28 32/64/27 
s 4
f 33/65/29 34/66/29 35/67/29 36/68/29 
f 34/66/29 37/69/29 38/70/29 35/67/29 
f 37/69/29 39/71/29 40/72/29 38/70/29 
s 8
f 25/73/30 28/74/31 34/75/32 33/76/30 
f 28/77/31 30/78/33 37/79/34 34/80/32 
f 30/81/33 32/82/35 39/83/35 37/84/34 
s 16
f 32/85/36 31/86/36 40/87/36 39/88/36 
s 32
f 31/89/37 29/90/38 38/91/39 40/92/37 
f 29/90/38 27/93/40 35/94/41 38/91/39 
f 27/93/40 26/95/42 36/96/42 35/94/41 
s 64
f 26/97/43 25/98/43 33/99/43 36/100/43 
s 2
f 41/101/44 42/102/44 43/103/44 44/104/45 
f 44/104/45 43/103/44 45/105/45 46/106/45 
f 46/106/45 45/105/45 47/107/45 48/108/45 
s 4
f 49/109/46 50/110/46 51/111/46 52/112/46 
f 50/110/46 53/113/46 54/114/46 51/111/46 
f 53/113/46 55/115/46 56/116/46 54/114/46 
s 8
f 41/117/47 44/118/48 50/119/48 49/120/47 
f 44/121/48 46/122/49 53/123/49 50/124/48 
f 46/125/49 48/126/50 55/127/50 53/128/49 
s 16
f 48/129/51 47/130/51 56/131/51 55/132/51 
s 32
f 47/133/52 45/134/53 54/135/53 56/136/52 
f 45/134/53 43/137/54 51/138/54 54/135/53 
f 43/137/54 42/139/55 52/140/55 51/138/54 
s 64
f 42/141/56 41/142/56 49/143/56 52/144/56 
s 1
f 57/145/57 58/146/58 59/147/58 60/148/59 
f 57/145/57 61/149/60 62/150/59 58/146/58 
f 57/145/57 60/148/59 63/151/60 61/149/60 
s 8
f 60/152/61 59/153/62 64/154/63 65/155/64 
f 59/153/62 58/156/65 66/157/66 64/154/63 
f 58/156/65 62/158/67 67/159/68 66/157/66 
f 62/160/67 61/161/69 68/162/70 67/163/68 
f 61/161/69 63/164/71 69/165/72 68/162/70 
f 63/164/71 60/166/61 65/167/64 69/165/72 
f 65/155/64 64/154/63 70/168/73 71/169/74 
f 64/154/63 66/157/66 72/170/75 70/168/73 
f 66/157/66 67/159/68 73/171/76 72/170/75 
f 67/163/68 68/162/70 74/172/77 73/173/76 
f 68/162/70 69/165/72 75/174/78 74/172/77 
f 69/165/72 65/167/64 71/175/74 75/174/78 
f 71/169/74 70/168/73 76/176/79 77/177/80 
f 70/168/73 72/170/75 78/178/81 76/176/79 
f 72/170/75 73/171/76 79/179/82 78/178/81 
f 73/173/76 74/172/77 80/180/83 79/181/82 
f 74/172/77 75/174/78 81/182/84 80/180/83 
f 75/174/78 71/175/74 77/183/80 81/182/84 
s 1
f 82/184/85 81/185/86 77/186/87 76/187/88 
f 82/184/85 76/187/88 78/188/89 79/189/90 
f 82/184/85 79/189/90 80/190/91 81/185/86 
# 74 polygons

