# 3ds Max Wavefront OBJ Exporter v0.97b - (c)2007 guruware
# File Created: 26.05.2011 23:16:38

mtllib cookie.mtl

#
# object Cube_2_
#

v  0.0305 0.1069 0.0092
v  -0.1891 0.0347 0.0092
v  0.0668 0.0496 0.0092
v  -0.1609 0.1308 0.0092
v  0.0157 0.1957 0.0092
v  -0.0957 0.1847 0.0092
v  -0.1698 -0.0676 0.0092
v  -0.0770 -0.1443 0.0092
v  0.0455 -0.1653 0.0092
v  0.1463 -0.0825 0.0092
v  0.1439 0.0495 0.0092
v  0.1770 -0.0137 0.0092
v  0.0668 0.0496 -0.0092
v  -0.1891 0.0347 -0.0092
v  -0.1609 0.1308 -0.0092
v  0.0305 0.1069 -0.0092
v  -0.0957 0.1847 -0.0092
v  0.0157 0.1957 -0.0092
v  -0.1698 -0.0676 -0.0092
v  -0.0770 -0.1443 -0.0092
v  0.0455 -0.1653 -0.0092
v  0.1463 -0.0825 -0.0092
v  0.1439 0.0495 -0.0092
v  0.1770 -0.0137 -0.0092
# 24 vertices

vn 0.0000 0.0000 1.0000
vn -0.0681 0.6889 0.7216
vn 0.3594 -0.4379 0.8241
vn 0.5981 -0.4563 0.6588
vn 0.0005 0.3544 -0.9351
vn 0.0000 0.0000 -1.0000
vn -0.2929 0.7040 -0.6470
vn -0.0681 0.6889 -0.7216
vn 0.3594 -0.4379 -0.8241
vn 0.5981 -0.4563 -0.6588
vn 0.0008 0.6074 -0.7944
vn 0.5244 -0.2340 -0.8187
vn 0.0013 1.0000 -0.0000
vn 0.8859 0.4639 -0.0000
vn 0.9132 -0.4075 -0.0000
vn -0.4171 -0.9089 -0.0000
vn -0.1687 -0.9857 -0.0000
vn -0.8612 -0.5083 -0.0000
vn -0.9988 0.0492 -0.0000
vn -0.8348 0.5505 -0.0000
vn -0.3841 0.9233 -0.0000
vn 0.8440 0.5364 -0.0000
vn 0.9339 0.3576 -0.0000
vn 0.9864 0.1644 -0.0000
# 24 vertex normals

vt 0.5919 0.7462 0.0000
vt 0.0003 0.5518 0.0000
vt 0.6900 0.5919 0.0000
vt 0.0761 0.8108 0.0000
vt 0.5520 0.9856 0.0000
vt 0.2520 0.9559 0.0000
vt 0.0523 0.2759 0.0000
vt 0.3022 0.0693 0.0000
vt 0.6324 0.0128 0.0000
vt 0.9041 0.2357 0.0000
vt 0.8977 0.5917 0.0000
vt 0.9869 0.4213 0.0000
# 12 texture coords

g Cube_2_
usemtl Material__28
s 1
f 1/1/1 2/2/1 3/3/1 
f 2/2/1 1/1/1 4/4/1 
f 5/5/2 6/6/1 4/4/1 1/1/1 
f 2/2/1 7/7/1 8/8/1 3/3/1 
f 8/8/1 9/9/3 3/3/1 
f 9/9/3 10/10/4 3/3/1 
f 10/10/4 11/11/1 3/3/1 
f 10/10/4 12/12/1 11/11/1 
f 13/3/5 14/2/6 15/4/6 16/1/6 
s 5
f 16/1/6 17/6/7 5/5/2 18/5/8 
s 1
f 17/6/7 16/1/6 15/4/6 
f 13/3/5 19/7/6 14/2/6 
f 19/7/6 13/3/5 20/8/6 
f 13/3/5 21/9/9 20/8/6 
s 3
f 13/3/5 22/10/10 9/9/3 21/9/9 
s 1
f 13/3/5 23/11/11 22/10/10 
s 3
f 23/11/11 24/12/12 10/10/4 22/10/10 
s 2
f 3/3/13 11/11/13 13/3/5 
f 11/11/13 23/11/11 13/3/5 
s 4
f 11/11/14 12/12/14 23/11/14 
f 12/12/14 24/12/14 23/11/14 
s 2
f 12/12/15 10/10/4 24/12/12 
f 10/10/4 9/9/3 22/10/10 
s 4
f 8/8/16 21/9/17 9/9/17 
f 21/9/17 8/8/16 7/7/18 20/8/16 
f 20/8/16 7/7/18 2/2/19 19/7/18 
f 19/7/18 2/2/19 4/4/20 14/2/19 
f 14/2/19 4/4/20 6/6/21 15/4/20 
f 15/4/20 6/6/21 17/6/7 
f 6/6/21 5/5/2 17/6/7 
s 8
f 3/3/22 16/1/23 18/5/24 1/1/23 
f 16/1/23 3/3/22 13/3/22 
f 1/1/23 18/5/24 5/5/24 
# 11 polygons - 22 triangles

