# 3ds Max Wavefront OBJ Exporter v0.97b - (c)2007 guruware
# File Created: 26.05.2011 23:29:30

mtllib jet.mtl

#
# object Cylinder02
#

v  -35.9081 83.8447 26.5333
v  -35.9923 95.8250 15.3360
v  3.2233 74.3453 -7.9405
v  3.3075 62.3650 3.2569
v  -27.1115 109.3928 17.7777
v  12.1041 87.9131 -5.4988
v  -18.1465 110.9803 31.4167
v  21.0691 89.5006 8.1403
v  -18.0623 99.0000 42.6141
v  21.1533 77.5203 19.3376
v  -26.9430 85.4322 40.1724
v  12.2725 63.9525 16.8959
v  -33.6536 104.1983 42.1181
v  -33.6945 110.0178 36.6789
v  -38.0492 109.2466 30.0537
v  -42.3222 96.8366 34.3068
v  -42.3631 102.6560 28.8677
v  -37.9674 97.6077 40.9320
v  42.0127 56.4667 -21.1377
v  46.2910 63.0028 -19.9614
v  50.6098 63.7676 -13.3909
v  46.3721 51.4600 -9.1729
v  50.6504 57.9962 -7.9967
v  42.0533 50.6953 -15.7434
v  26.8578 62.8248 -14.2954
v  26.8987 57.0054 -8.8563
v  28.0620 73.0353 -9.1867
v  32.4168 73.8064 -2.5615
v  32.4577 67.9870 2.8776
v  28.1439 61.3964 1.6916
v  15.1825 49.0248 -22.4256
v  16.8636 51.6507 -26.7344
v  21.6085 48.9995 -29.9459
v  16.8899 44.7967 -20.3650
v  23.3421 44.8929 -28.0002
v  21.6567 42.0798 -23.4793
v  37.1426 72.8485 -19.0879
v  32.6985 58.9359 -23.2905
v  45.0933 74.2564 -6.9919
v  45.1680 63.6315 2.9386
v  37.2919 51.5987 0.7732
v  32.7732 48.3110 -13.3599
# 42 vertices

vn -0.5416 -0.8274 -0.1489
vn -0.5467 -0.0968 -0.8317
vn -0.0051 0.7306 -0.6828
vn 0.5416 0.8274 0.1489
vn 0.5467 0.0968 0.8317
vn 0.0051 -0.7306 0.6828
vn -0.7780 0.4261 0.4618
vn 0.7780 -0.4261 -0.4618
vn -0.4681 -0.6051 -0.6439
vn -0.0310 0.3144 -0.9488
vn 0.5532 0.7038 -0.4456
vn 0.8533 0.3592 0.3779
vn 0.5616 -0.4879 0.6683
vn -0.0221 -0.9683 0.2487
vn -0.9155 -0.2781 -0.2907
vn -0.6326 -0.6031 0.4860
vn -0.0745 -0.1292 0.9888
vn 0.2005 0.6697 0.7150
vn -0.0824 0.9947 -0.0616
vn -0.6405 0.5208 -0.5644
vn -0.6512 -0.5180 -0.5547
vn -0.6480 -0.5224 -0.5542
vn -0.6764 0.3977 -0.6199
vn -0.0617 0.9953 -0.0753
vn 0.2249 0.6662 0.7111
vn -0.0537 -0.1427 0.9883
vn -0.6703 -0.6497 0.3587
vn -0.0122 -0.6828 -0.7305
vn 0.1843 0.1758 -0.9670
vn 0.6209 0.6195 -0.4802
vn 0.9069 0.2911 0.3046
vn 0.6289 -0.5163 0.5813
vn 0.1923 -0.9753 0.1088
vn -0.7598 0.0100 0.6501
vn -0.3470 0.7576 -0.5529
vn -0.0240 0.7532 -0.6573
vn 0.6266 -0.7447 -0.2298
vn -0.1783 -0.6559 0.7334
vn 0.5918 -0.1273 -0.7960
vn -0.7820 0.6191 0.0722
vn -0.7956 0.4107 0.4454
vn 0.8112 -0.3962 -0.4301
# 42 vertex normals

vt -0.6747 0.0867 0.0000
vt -0.4975 0.0857 0.0000
vt -0.6472 0.4613 0.0000
vt -0.6611 0.4816 0.0000
vt -0.4961 0.0850 0.0000
vt -0.3434 0.0853 0.0000
vt -0.3195 0.4293 0.0000
vt -0.5323 0.4460 0.0000
vt -0.1892 0.0855 0.0000
vt -0.2021 0.4744 0.0000
vt -0.1878 0.0863 0.0000
vt -0.0106 0.0853 0.0000
vt -0.0890 0.4581 0.0000
vt -0.1077 0.4712 0.0000
vt -0.9865 0.0903 0.0000
vt -0.8338 0.0895 0.0000
vt -0.8092 0.3919 0.0000
vt -0.9755 0.4431 0.0000
vt -0.6796 0.0888 0.0000
vt -0.7087 0.4837 0.0000
vt -0.0364 0.0065 0.0000
vt -0.0184 0.0240 0.0000
vt -0.0267 0.0384 0.0000
vt -0.0519 0.0241 0.0000
vt -0.0435 0.0385 0.0000
vt -0.0436 0.0097 0.0000
vt -0.6545 0.5932 0.0000
vt -0.5403 0.7848 0.0000
vt -0.6513 0.9783 0.0000
vt -0.9904 0.7885 0.0000
vt -0.8763 0.9801 0.0000
vt -0.8795 0.5950 0.0000
vt -0.4950 0.4810 0.0000
vt -0.6240 0.4819 0.0000
vt -0.3470 0.4730 0.0000
vt -0.4431 0.4757 0.0000
vt -0.2560 0.4732 0.0000
vt -0.0272 0.4813 0.0000
vt -0.1494 0.4738 0.0000
vt -0.8165 0.4935 0.0000
vt -0.9130 0.4875 0.0000
vt -0.7077 0.4890 0.0000
vt -0.6301 0.0028 0.0000
vt -0.5440 0.0023 0.0000
vt -0.8344 0.0059 0.0000
vt -0.7595 0.0055 0.0000
vt -0.9086 0.0063 0.0000
vt -0.1432 0.0024 0.0000
vt -0.0572 0.0019 0.0000
vt -0.3422 0.0016 0.0000
vt -0.2673 0.0017 0.0000
vt -0.4164 0.0015 0.0000
vt -0.9435 0.5201 0.0000
vt -0.9511 0.5371 0.0000
vt -0.9713 0.5370 0.0000
vt -0.9499 0.5038 0.0000
vt -0.9778 0.5213 0.0000
vt -0.9701 0.5033 0.0000
vt -0.4111 0.6062 0.0000
vt -0.5389 0.5449 0.0000
vt -0.2633 0.7357 0.0000
vt -0.7959 0.8165 0.0000
vt -0.1150 0.5338 0.0000
vt -0.0385 0.7630 0.0000
vt -0.3048 0.5419 0.0000
vt -0.1402 0.5370 0.0000
vt -0.0645 0.7555 0.0000
vt -0.3650 0.7644 0.0000
vt -0.3644 0.5148 0.0000
vt -0.2480 0.5103 0.0000
vt -0.2415 0.7151 0.0000
vt -0.4539 0.7233 0.0000
vt -0.0897 0.6052 0.0000
vt -0.3251 0.8100 0.0000
vt -0.9858 0.9077 0.0000
vt -0.9847 0.6740 0.0000
vt -0.7423 0.7274 0.0000
vt -0.7429 0.8544 0.0000
vt -0.2866 0.9528 0.0000
vt -0.7083 0.9642 0.0000
vt -0.1645 0.9676 0.0000
vt -0.1235 0.9779 0.0000
vt -0.2867 0.9828 0.0000
vt -0.2332 0.9198 0.0000
vt -0.3485 0.9243 0.0000
vt -0.4175 0.9414 0.0000
vt -0.3594 0.5236 0.0000
vt -0.2246 0.9691 0.0000
vt -0.4000 0.9699 0.0000
vt -0.3605 0.5248 0.0000
vt -0.1692 0.5527 0.0000
vt -0.1419 0.8255 0.0000
vt -0.2525 0.8403 0.0000
vt -0.3667 0.5359 0.0000
vt -0.1216 0.9791 0.0000
vt -0.2367 0.9792 0.0000
vt -0.2750 0.5565 0.0000
vt -0.0407 0.5176 0.0000
vt -0.1491 0.8434 0.0000
vt -0.2869 0.8346 0.0000
vt -0.3339 0.9793 0.0000
vt -0.6927 0.5363 0.0000
vt -0.0493 0.5229 0.0000
vt -0.0357 0.9682 0.0000
vt -0.3919 0.5102 0.0000
# 105 texture coords

g Cylinder02
usemtl Material__14
s 8
f 1/1/1 2/2/2 3/3/2 4/4/1 
f 2/5/2 5/6/3 6/7/3 3/8/2 
f 5/6/3 7/9/4 8/10/4 6/7/3 
f 7/11/4 9/12/5 10/13/5 8/14/4 
f 9/15/5 11/16/6 12/17/6 10/18/5 
f 11/16/6 1/19/1 4/20/1 12/17/6 
s 1
f 13/21/7 14/22/7 15/23/7 16/24/7 
f 15/23/7 17/25/7 16/24/7 
f 18/26/7 13/21/7 16/24/7 
f 19/27/8 20/28/8 21/29/8 22/30/8 
f 21/29/8 23/31/8 22/30/8 
f 24/32/8 19/27/8 22/30/8 
s off
f 4/4/9 3/3/9 25/33/9 26/34/9 
f 3/8/10 6/7/10 27/35/10 25/36/10 
f 6/7/11 8/10/11 28/37/11 27/35/11 
f 8/14/12 10/13/12 29/38/12 28/39/12 
f 10/18/13 12/17/13 30/40/13 29/41/13 
f 12/17/14 4/20/14 26/42/14 30/40/14 
f 2/2/15 1/1/15 16/43/15 17/44/15 
f 1/19/16 11/16/16 18/45/16 16/46/16 
f 11/16/17 9/15/17 13/47/17 18/45/17 
f 9/12/18 7/11/18 14/48/18 13/49/18 
f 7/9/19 5/6/19 15/50/19 14/51/19 
f 5/6/20 2/5/20 17/52/20 15/50/20 
f 31/53/21 32/54/21 33/55/21 34/56/21 
f 34/56/22 33/55/22 35/57/22 36/58/22 
f 25/59/23 27/60/23 37/61/23 38/62/23 
f 27/60/24 28/63/24 39/64/24 37/61/24 
f 28/65/25 29/66/25 40/67/25 39/68/25 
f 29/69/26 30/70/26 41/71/26 40/72/26 
f 30/70/27 26/73/27 42/74/27 41/71/27 
f 42/75/28 38/76/28 19/77/28 24/78/28 
f 38/62/29 37/61/29 20/79/29 19/80/29 
f 37/61/30 39/64/30 21/81/30 20/79/30 
f 39/68/31 40/67/31 23/82/31 21/83/31 
f 40/72/32 41/71/32 22/84/32 23/85/32 
f 41/71/33 42/74/33 24/86/33 22/84/33 
f 26/87/34 31/88/34 34/89/34 
f 25/90/35 38/91/35 38/91/35 33/92/35 
f 25/90/36 33/92/36 32/93/36 
f 42/94/37 36/95/37 35/96/37 
f 42/97/38 26/98/38 34/99/38 36/100/38 
f 35/96/39 33/101/39 38/102/39 
f 25/103/40 32/104/40 31/88/40 
f 26/87/41 25/103/41 31/88/41 
f 38/102/42 38/105/42 42/94/42 35/96/42 
# 36 polygons - 10 triangles

