# 3ds Max Wavefront OBJ Exporter v0.97b - (c)2007 guruware
# File Created: 07.11.2011 21:34:31

mtllib Eye1.mtl

#
# object Cylinder01
#

v  32.2573 29.4342 23.4275
v  36.3041 31.9482 21.4285
v  31.1698 47.6382 2.6728
v  28.0955 45.0607 5.9283
v  35.6420 26.9202 20.4414
v  31.4105 42.4831 2.9182
v  16.8782 50.7192 -1.1225
v  17.0501 48.1417 3.3519
v  17.2220 45.5641 -1.1225
v  -20.4622 43.0985 0.0000
v  -15.7613 43.7145 -13.0261
v  -14.6734 35.4124 -9.9786
v  -14.0946 30.9950 -2.2620
v  -14.2956 32.5292 6.5130
v  -15.1825 39.2970 12.2405
v  -16.3401 48.1319 12.2405
v  -17.2270 54.8998 6.5130
v  -17.4280 56.4339 -2.2620
v  -16.8492 52.0165 -9.9786
v  -2.1914 32.5548 -15.2880
v  -3.8582 45.2742 -19.9571
v  -1.3046 25.7869 -3.4655
v  -1.6126 28.1373 9.9786
v  -2.9713 38.5063 18.7536
v  -4.7450 52.0421 18.7536
v  -6.1037 62.4111 9.9786
v  -6.4117 64.7616 -3.4655
v  -5.5249 57.9937 -15.2880
v  11.1433 35.8626 -13.4441
v  9.6776 47.0479 -17.5500
v  11.9232 29.9110 -3.0475
v  11.6523 31.9780 8.7750
v  10.4575 41.0963 16.4916
v  8.8977 52.9995 16.4916
v  7.7029 62.1178 8.7750
v  7.4321 64.1848 -3.0475
v  8.2119 58.2332 -13.4441
v  19.7242 48.3644 -0.0000
# 38 vertices

vn -0.1109 0.7443 0.6586
vn -0.1358 0.7413 0.6573
vn 0.0118 0.7706 0.6372
vn 0.0472 0.7736 0.6319
vn 0.9542 -0.0685 -0.2912
vn 0.9699 0.0249 -0.2423
vn 0.9708 0.0340 -0.2373
vn -0.7364 -0.5821 -0.3447
vn -0.7479 -0.5757 -0.3307
vn 0.0910 0.8423 0.5312
vn 0.1257 0.8617 0.4916
vn 0.2670 -0.0334 -0.9631
vn 0.2615 0.0077 -0.9652
vn 0.2601 0.0173 -0.9654
vn -0.3295 -0.8652 0.3780
vn -0.3123 -0.8283 0.4652
vn 0.5421 -0.2301 0.8082
vn -0.9978 -0.0665 0.0000
vn -0.9915 -0.1299 -0.0000
vn -0.9317 -0.1221 -0.3420
vn -0.9032 -0.3401 -0.2620
vn -0.8880 -0.4561 -0.0594
vn -0.8932 -0.4158 0.1710
vn -0.9165 -0.2381 0.3214
vn -0.9469 -0.0061 0.3214
vn -0.9702 0.1716 0.1710
vn -0.9755 0.2119 -0.0594
vn -0.9603 0.0959 -0.2620
vn -0.1074 -0.3550 -0.9287
vn -0.4338 -0.3600 -0.8260
vn -0.1608 -0.0211 -0.9868
vn -0.0345 -0.9846 -0.1714
vn -0.3739 -0.8167 -0.4395
vn -0.0248 -0.9849 0.1716
vn -0.3604 -0.9202 0.1526
vn -0.3994 -0.6222 0.6733
vn -0.0743 0.2329 0.9697
vn -0.4728 -0.0620 0.8790
vn -0.5462 0.4982 0.6733
vn -0.2870 0.9425 -0.1714
vn -0.5853 0.7963 0.1526
vn -0.2625 0.8288 -0.4941
vn -0.5717 0.6928 -0.4395
vn -0.5119 0.2361 -0.8260
vn 0.2059 -0.3133 -0.9271
vn 0.1722 0.0226 -0.9848
vn 0.2982 -0.9391 -0.1710
vn 0.2731 -0.8259 -0.4933
vn 0.2883 -0.9421 0.1713
vn 0.2159 -0.3114 0.9254
vn 0.2445 -0.6075 0.7557
vn 0.1284 0.3565 0.9254
vn 0.1621 0.0212 0.9865
vn 0.0797 0.6500 0.7557
vn 0.0462 0.9842 -0.1710
vn 0.0358 0.9846 0.1713
vn 0.0511 0.8684 -0.4933
vn 0.1182 0.3558 -0.9271
vn 0.9915 0.1299 0.0000
vn 0.8681 -0.0668 -0.4919
vn 0.9037 -0.3388 -0.2617
vn 0.9118 -0.4005 0.0909
vn 0.8885 -0.2229 0.4010
vn 0.8448 0.1107 0.5235
vn 0.8011 0.4443 0.4010
vn 0.7778 0.6219 0.0909
vn 0.7859 0.5602 -0.2617
vn 0.8215 0.2882 -0.4919
# 68 vertex normals

vt 0.2097 -0.2361 0.0000
vt 0.2246 -0.2383 0.0000
vt 0.2467 -0.1790 0.0000
vt 0.2320 -0.1819 0.0000
vt 0.2665 -0.2304 0.0000
vt 0.2816 -0.2383 0.0000
vt 0.2787 -0.1624 0.0000
vt 0.2659 -0.1512 0.0000
vt 0.2528 -0.2375 0.0000
vt 0.2659 -0.2383 0.0000
vt 0.2599 -0.1625 0.0000
vt 0.2467 -0.1618 0.0000
vt 0.2148 -0.1423 0.0000
vt 0.2067 -0.1545 0.0000
vt 0.2816 -0.2337 0.0000
vt 0.2982 -0.2383 0.0000
vt 0.2990 -0.1913 0.0000
vt 0.2824 -0.1864 0.0000
vt 0.2839 -0.1864 0.0000
vt 0.2963 -0.1781 0.0000
vt 0.2963 -0.1414 0.0000
vt 0.2816 -0.1386 0.0000
vt 0.3104 -0.1862 0.0000
vt 0.3019 -0.1719 0.0000
vt 0.2963 -0.1864 0.0000
vt 0.2467 -0.1534 0.0000
vt 0.2616 -0.1618 0.0000
vt 0.2616 -0.1451 0.0000
vt 1.1806 -0.8098 0.0000
vt 1.0731 -0.8734 0.0000
vt 1.1575 -0.9774 0.0000
vt 1.2527 -1.0030 0.0000
vt 1.3141 -0.9381 0.0000
vt 1.3131 -0.8133 0.0000
vt 1.2500 -0.6867 0.0000
vt 1.1545 -0.6178 0.0000
vt 1.0711 -0.6387 0.0000
vt 1.0390 -0.7396 0.0000
vt 1.3926 1.4471 0.0000
vt 1.2685 1.3117 0.0000
vt 1.3393 1.2198 0.0000
vt 1.4802 1.3506 0.0000
vt 1.3260 1.5086 0.0000
vt 1.1959 1.3703 0.0000
vt 1.2706 1.3130 0.0000
vt 1.3920 1.4490 0.0000
vt 1.2546 1.5928 0.0000
vt 1.1171 1.4047 0.0000
vt 1.5366 -0.6832 0.0000
vt 1.3159 -0.8118 0.0000
vt 1.3156 -0.9394 0.0000
vt 1.6453 -0.8451 0.0000
vt 1.4058 -0.5465 0.0000
vt 1.2453 -0.6797 0.0000
vt 1.3145 -0.8123 0.0000
vt 1.5339 -0.6862 0.0000
vt 1.3098 -0.4456 0.0000
vt 1.1498 -0.6212 0.0000
vt 1.2515 -0.6841 0.0000
vt 1.4098 -0.5417 0.0000
vt 1.1626 -0.3787 0.0000
vt 1.0696 -0.6398 0.0000
vt 1.1542 -0.6150 0.0000
vt 1.3077 -0.4420 0.0000
vt 1.0288 -0.3388 0.0000
vt 1.0411 -0.7359 0.0000
vt 1.3582 1.0367 0.0000
vt 1.6664 1.1743 0.0000
vt 1.7275 1.7139 0.0000
vt 1.7663 1.5468 0.0000
vt 1.6588 1.8256 0.0000
vt 1.7241 1.7192 0.0000
vt 1.5612 1.9010 0.0000
vt 1.7557 -0.4022 0.0000
vt 1.6436 -0.8451 0.0000
vt 1.7797 -0.5815 0.0000
vt 1.7036 -0.2391 0.0000
vt 1.5910 -0.1072 0.0000
vt 1.3056 -0.4446 0.0000
vt 1.4527 -0.0343 0.0000
vt 1.5929 -0.1058 0.0000
vt 1.2964 -0.0327 0.0000
vt 1.7755 1.4180 0.0000
vt 0.2232 0.7008 0.0000
vt 0.2903 0.6413 0.0000
vt 0.3108 0.7008 0.0000
vt 0.2384 0.6096 0.0000
vt 0.1794 0.6206 0.0000
vt 0.1409 0.6691 0.0000
vt 0.1409 0.7324 0.0000
vt 0.1794 0.7810 0.0000
vt 0.2384 0.7920 0.0000
vt 0.2903 0.7603 0.0000
# 93 texture coords

g Cylinder01
usemtl Material__27
s 8
f 1/1/1 2/2/2 3/3/3 4/4/4 
f 2/5/5 5/6/5 6/7/6 
f 6/7/6 3/8/7 2/5/7 
f 5/9/8 1/10/8 4/11/8 
f 4/11/9 6/12/9 5/9/9 
f 4/4/4 3/3/3 7/13/10 8/14/11 
f 3/15/12 6/16/12 9/17/13 
f 9/17/13 7/18/14 3/15/14 
f 6/19/15 4/20/15 8/21/15 
f 8/21/16 9/22/16 6/19/16 
s 1
f 5/23/17 2/24/17 1/25/17 
f 8/26/18 7/27/18 9/28/18 
usemtl Material__26
f 10/29/19 11/30/20 12/31/21 
f 10/29/19 12/31/21 13/32/22 
f 10/29/19 13/32/22 14/33/23 
f 10/29/19 14/33/23 15/34/24 
f 10/29/19 15/34/24 16/35/25 
f 10/29/19 16/35/25 17/36/26 
f 10/29/19 17/36/26 18/37/27 
f 10/29/19 18/37/27 19/38/28 
f 10/29/19 19/38/28 11/30/20 
f 20/39/29 12/40/30 11/41/30 
f 11/41/30 21/42/31 20/39/29 
f 22/43/32 13/44/33 12/45/33 
f 12/45/33 20/46/33 22/43/32 
f 23/47/34 14/48/35 13/44/35 
f 13/44/35 22/43/32 23/47/34 
f 24/49/36 15/50/36 14/51/36 
f 14/51/36 23/52/36 24/49/36 
f 25/53/37 16/54/38 15/55/38 
f 15/55/38 24/56/38 25/53/37 
f 26/57/39 17/58/39 16/59/39 
f 16/59/39 25/60/39 26/57/39 
f 27/61/40 18/62/41 17/63/41 
f 17/63/41 26/64/41 27/61/40 
f 28/65/42 19/66/43 18/62/43 
f 18/62/43 27/61/40 28/65/42 
f 21/42/31 11/41/44 19/67/44 
f 19/67/44 28/68/44 21/42/31 
f 29/69/45 20/39/29 21/42/31 30/70/46 
f 31/71/47 22/43/32 20/46/48 
f 20/46/48 29/72/48 31/71/47 
f 32/73/49 23/47/34 22/43/32 31/71/47 
f 33/74/50 24/56/51 23/75/51 
f 23/75/51 32/76/51 33/74/50 
f 34/77/52 25/53/37 24/56/53 
f 24/56/53 33/74/50 34/77/52 
f 35/78/54 26/79/54 25/53/37 34/77/52 
f 36/80/55 27/61/40 26/64/56 
f 26/64/56 35/81/56 36/80/55 
f 37/82/57 28/65/42 27/61/40 36/80/55 
f 30/70/46 21/42/31 28/68/58 
f 28/68/58 37/83/58 30/70/46 
f 38/84/59 29/85/60 30/86/60 
f 38/84/59 31/87/61 29/85/61 
f 38/84/59 32/88/62 31/87/62 
f 38/84/59 33/89/63 32/88/63 
f 38/84/59 34/90/64 33/89/64 
f 38/84/59 35/91/65 34/90/65 
f 38/84/59 36/92/66 35/91/66 
f 38/84/59 37/93/67 36/92/67 
f 38/84/59 30/86/68 37/93/68 
# 6 polygons - 56 triangles

