# 3ds Max Wavefront OBJ Exporter v0.97b - (c)2007 guruware
# File Created: 16.07.2011 14:45:30

mtllib false_citizenship.mtl

#
# object Plane
#

v  9.1266 2.4323 -8.5501
v  -2.2581 2.4535 -8.5447
v  -2.2498 2.7138 8.0487
v  9.1350 2.6927 8.0433
# 4 vertices

vn 0.0018 0.9999 -0.0157
# 1 vertex normals

vt 0.9978 0.1530 11.5648
vt 0.9989 0.8468 10.5648
vt 0.0120 0.8502 10.5648
vt 0.0124 0.1537 11.5648
# 4 texture coords

g Plane
usemtl Material__25
s off
f 1/1/1 2/2/1 3/3/1 4/4/1 
# 1 polygons

