# 3ds Max Wavefront OBJ Exporter v0.97b - (c)2007 guruware
# File Created: 26.05.2011 23:13:37

mtllib bottle.mtl

#
# object Cylinder03
#

v  30.5063 -0.4631 4.1845
v  27.5972 -0.4631 -1.8562
v  29.6480 3.3441 -4.4278
v  33.7955 3.3441 4.1845
v  21.0606 -0.4631 -3.3481
v  20.3287 3.3441 -6.5548
v  15.8187 -0.4631 0.8322
v  12.8552 3.3441 -0.5949
v  15.8187 -0.4631 7.5369
v  12.8552 3.3441 8.9640
v  21.0606 -0.4631 11.7172
v  20.3287 3.3441 14.9239
v  27.5972 -0.4631 10.2252
v  29.6480 3.3441 12.7968
v  29.6480 34.9742 -4.4278
v  33.7955 34.9742 4.1845
v  20.3287 34.9742 -6.5548
v  12.8552 34.9742 -0.5949
v  12.8552 34.9742 8.9640
v  20.3287 34.9742 14.9239
v  29.6480 34.9742 12.7968
v  25.2516 49.5419 1.0851
v  26.7442 49.5419 4.1845
v  21.8978 49.5419 0.3196
v  19.2082 49.5419 2.4645
v  19.2082 49.5419 5.9046
v  21.8978 49.5419 8.0494
v  25.2516 49.5419 7.2839
v  24.6550 54.7818 1.8332
v  25.7874 54.7818 4.1845
v  22.1107 54.7818 1.2524
v  20.0702 54.7818 2.8796
v  20.0702 54.7818 5.4894
v  22.1107 54.7818 7.1166
v  24.6550 54.7818 6.5359
v  22.6503 28.5486 21.7969
v  22.6503 27.3683 24.3797
v  22.6503 50.4191 14.7100
v  22.6503 48.2113 13.6501
v  22.6503 24.3449 14.8018
v  22.6503 22.2334 14.8260
v  22.6503 49.2429 7.0338
v  22.6503 47.2923 7.7866
# 43 vertices

vn 0.7567 -0.6538 0.0000
vn 0.4718 -0.6538 -0.5916
vn 0.5905 -0.3207 -0.7405
vn 0.9472 -0.3207 0.0000
vn -0.1684 -0.6538 -0.7377
vn -0.2108 -0.3207 -0.9234
vn -0.6818 -0.6538 -0.3283
vn -0.8534 -0.3207 -0.4110
vn -0.6818 -0.6538 0.3283
vn -0.8534 -0.3207 0.4110
vn -0.1684 -0.6538 0.7377
vn -0.2108 -0.3207 0.9234
vn 0.4718 -0.6538 0.5916
vn 0.5905 -0.3207 0.7405
vn 0.6094 0.2111 -0.7642
vn 0.9775 0.2111 0.0000
vn -0.2175 0.2111 -0.9530
vn -0.8807 0.2111 -0.4241
vn -0.8807 0.2111 0.4241
vn -0.2175 0.2111 0.9530
vn 0.6094 0.2111 0.7642
vn 0.5903 0.3221 -0.7402
vn 0.9467 0.3221 0.0000
vn -0.2107 0.3221 -0.9230
vn -0.8530 0.3221 -0.4108
vn -0.8530 0.3221 0.4108
vn -0.2107 0.3221 0.9230
vn 0.5903 0.3221 0.7402
vn 0.6133 0.1796 -0.7691
vn 0.9837 0.1796 0.0000
vn -0.2189 0.1796 -0.9591
vn -0.8863 0.1796 -0.4268
vn -0.8863 0.1796 0.4268
vn -0.2189 0.1796 0.9591
vn 0.6133 0.1796 0.7691
vn 0.0000 -1.0000 -0.0000
vn -1.0000 0.0000 0.0000
vn -1.0000 -0.0000 0.0000
vn -1.0000 0.0000 -0.0000
# 39 vertex normals

vt 0.7952 0.0174 0.0000
vt 0.9410 0.0185 0.0000
vt 0.9911 0.0901 0.0000
vt 0.7954 0.0846 0.0000
vt 0.6460 0.0196 0.0000
vt 0.7953 0.0170 0.0000
vt 0.7971 0.0870 0.0000
vt 0.6038 0.0869 0.0000
vt 0.6437 0.0216 0.0000
vt 0.7982 0.0165 0.0000
vt 0.7968 0.0857 0.0000
vt 0.6020 0.0890 0.0000
vt 0.6400 0.0217 0.0000
vt 0.7965 0.0161 0.0000
vt 0.7912 0.0927 0.0000
vt 0.6016 0.0916 0.0000
vt 0.7969 0.0157 0.0000
vt 0.9405 0.0181 0.0000
vt 0.9927 0.0909 0.0000
vt 0.7975 0.0865 0.0000
vt 0.7953 0.0168 0.0000
vt 0.9418 0.0187 0.0000
vt 0.9941 0.0913 0.0000
vt 0.8001 0.0859 0.0000
vt 0.6464 0.0206 0.0000
vt 0.6012 0.0881 0.0000
vt 0.9872 0.6471 0.0000
vt 0.7973 0.6433 0.0000
vt 0.7979 0.6446 0.0000
vt 0.6034 0.6456 0.0000
vt 0.9931 0.0915 0.0000
vt 0.9897 0.6450 0.0000
vt 0.7963 0.6469 0.0000
vt 0.6053 0.6461 0.0000
vt 0.6047 0.0903 0.0000
vt 0.7952 0.6492 0.0000
vt 0.6023 0.6463 0.0000
vt 0.9917 0.6473 0.0000
vt 0.6046 0.6453 0.0000
vt 0.8708 0.9005 0.0000
vt 0.7982 0.9006 0.0000
vt 0.8016 0.9025 0.0000
vt 0.7330 0.9024 0.0000
vt 0.8744 0.9027 0.0000
vt 0.7995 0.9019 0.0000
vt 0.7311 0.9042 0.0000
vt 0.8019 0.9029 0.0000
vt 0.7329 0.9060 0.0000
vt 0.8730 0.9031 0.0000
vt 0.7290 0.9023 0.0000
vt 0.8579 0.9931 0.0000
vt 0.7985 0.9932 0.0000
vt 0.7969 0.9953 0.0000
vt 0.7483 0.9943 0.0000
vt 0.8564 0.9954 0.0000
vt 0.7981 0.9952 0.0000
vt 0.7503 0.9952 0.0000
vt 0.8009 0.9939 0.0000
vt 0.7475 0.9933 0.0000
vt 0.8566 0.9973 0.0000
vt 0.7483 0.9933 0.0000
vt 0.9626 0.2257 0.0000
vt 0.8753 0.3297 0.0000
vt 0.7352 0.3297 0.0000
vt 0.8053 0.0384 0.0000
vt 0.6479 0.2257 0.0000
vt 0.6791 0.0961 0.0000
vt 0.9315 0.0961 0.0000
vt 0.3655 0.8256 0.0000
vt 0.2572 0.8248 0.0000
vt 0.2557 0.3817 0.0000
vt 0.3655 0.3815 0.0000
vt 0.3654 0.9808 0.0000
vt 0.2606 0.9858 0.0000
vt 0.2561 0.1910 0.0000
vt 0.3654 0.1936 0.0000
# 76 texture coords

g Cylinder03
usemtl wire_228153184
s 8
f 1/1/1 2/2/2 3/3/3 4/4/4 
f 2/5/2 5/6/5 6/7/6 3/8/3 
f 5/9/5 7/10/7 8/11/8 6/12/6 
f 7/13/7 9/14/9 10/15/10 8/16/8 
f 9/17/9 11/18/11 12/19/12 10/20/10 
f 11/21/11 13/22/13 14/23/14 12/24/12 
f 13/25/13 1/1/1 4/4/4 14/26/14 
f 4/4/4 3/3/3 15/27/15 16/28/16 
f 3/8/3 6/7/6 17/29/17 15/30/15 
f 6/7/6 8/31/8 18/32/18 17/29/17 
f 8/16/8 10/15/10 19/33/19 18/34/18 
f 10/35/10 12/24/12 20/36/20 19/37/19 
f 12/24/12 14/23/14 21/38/21 20/36/20 
f 14/26/14 4/4/4 16/28/16 21/39/21 
f 16/28/16 15/27/15 22/40/22 23/41/23 
f 15/30/15 17/29/17 24/42/24 22/43/22 
f 17/29/17 18/32/18 25/44/25 24/42/24 
f 18/34/18 19/33/19 26/45/26 25/46/25 
f 19/37/19 20/36/20 27/47/27 26/48/26 
f 20/36/20 21/38/21 28/49/28 27/47/27 
f 21/39/21 16/28/16 23/41/23 28/50/28 
f 23/41/23 22/40/22 29/51/29 30/52/30 
f 22/43/22 24/42/24 31/53/31 29/54/29 
f 24/42/24 25/44/25 32/55/32 31/53/31 
f 25/46/25 26/45/26 33/56/33 32/57/32 
f 26/48/26 27/47/27 34/58/34 33/59/33 
f 27/47/27 28/49/28 35/60/35 34/58/34 
f 28/50/28 23/41/23 30/52/30 35/61/35 
s 1
f 11/62/36 9/63/36 7/64/36 1/65/36 
f 7/64/36 5/66/36 2/67/36 1/65/36 
f 13/68/36 11/62/36 1/65/36 
s 8
f 36/69/37 37/70/37 38/71/37 39/72/37 
s off
f 37/70/38 36/69/38 40/73/38 41/74/38 
f 39/72/39 38/71/39 42/75/39 43/76/39 
# 33 polygons - 1 triangles

