# 3ds Max Wavefront OBJ Exporter v0.97b - (c)2007 guruware
# File Created: 07.11.2011 21:50:01

mtllib capaciator.mtl

#
# object Box01
#

v  -38.8940 -8.6619 -58.9499
v  -38.8940 52.1150 -58.9499
v  31.6434 52.1150 -58.9499
v  31.6434 -8.6619 -58.9499
v  -38.8940 -8.6619 59.5036
v  31.6434 -8.6619 59.5036
v  31.6434 52.1150 59.5036
v  -38.8940 52.1150 59.5036
v  51.6441 33.7831 -32.0284
v  44.1646 44.0777 -32.0284
v  44.1646 44.0777 33.7247
v  51.6441 33.7831 33.7247
v  32.0625 40.1455 -32.0284
v  32.0625 40.1455 33.7247
v  32.0625 27.4206 -32.0284
v  32.0625 27.4206 33.7247
v  44.1646 23.4884 -32.0284
v  44.1646 23.4884 33.7247
v  51.6441 8.2141 -32.0284
v  44.1646 18.5088 -32.0284
v  44.1646 18.5088 33.7247
v  51.6441 8.2141 33.7247
v  32.0625 14.5765 -32.0284
v  32.0625 14.5765 33.7247
v  32.0625 1.8516 -32.0284
v  32.0625 1.8516 33.7247
v  44.1646 -2.0806 -32.0284
v  44.1646 -2.0806 33.7247
v  -2.8094 32.6045 66.3202
v  11.4110 32.6045 73.5346
v  11.4110 35.1740 73.5346
v  -2.8094 35.1740 66.3202
v  31.8606 32.6045 76.4111
v  31.8606 35.1740 76.4111
v  40.8127 32.5878 62.6096
v  40.8127 35.1573 62.6096
v  42.4608 32.5878 33.8273
v  42.4608 35.1573 33.8273
v  -2.8094 9.1046 66.3202
v  11.4110 8.3671 73.5346
v  11.4110 10.9366 73.5346
v  -2.8094 11.6740 66.3202
v  31.8606 7.5843 76.4111
v  31.8606 10.1538 76.4111
v  40.5518 7.1152 62.6096
v  40.5518 9.6847 62.6096
v  42.1999 7.1152 33.8273
v  42.1999 9.6847 33.8273
v  -6.9228 31.8749 48.6680
v  -6.9228 35.7888 48.6680
v  -2.4871 35.7888 48.6680
v  -2.4871 31.8749 48.6680
v  -6.9228 31.8749 69.0201
v  -2.4871 31.8749 69.0201
v  -2.4871 35.7888 69.0201
v  -6.9228 35.7888 69.0201
v  -6.9228 8.6360 48.6680
v  -6.9228 12.5499 48.6680
v  -2.4871 12.5499 48.6680
v  -2.4871 8.6360 48.6680
v  -6.9228 8.6360 69.0201
v  -2.4871 8.6360 69.0201
v  -2.4871 12.5499 69.0201
v  -6.9228 12.5499 69.0201
v  31.9727 -8.3990 -18.2785
v  31.9726 -8.3990 -5.5638
v  51.5217 1.2033 -7.4610
v  51.5217 1.2033 -20.1758
v  51.8315 41.1363 -7.4610
v  51.8315 41.1363 -20.1758
v  31.7049 52.1201 -4.2746
v  31.7049 52.1201 -16.9894
v  31.9726 -8.3990 2.6359
v  31.9726 -8.3990 16.7058
v  51.5217 1.2033 19.2714
v  51.5217 1.2033 5.2015
v  51.8315 41.1363 19.2714
v  51.8315 41.1363 5.2015
v  31.7049 52.1201 17.6259
v  31.7049 52.1201 3.5560
# 80 vertices

vn 0.0000 0.0000 -1.0000
vn 0.0000 0.0000 1.0000
vn 0.0000 -1.0000 -0.0000
vn 1.0000 0.0000 -0.0000
vn 0.0000 1.0000 -0.0000
vn -1.0000 0.0000 -0.0000
vn 0.8090 0.5878 -0.0000
vn 0.8090 0.5878 0.0000
vn 1.0000 0.0000 0.0000
vn -0.3090 0.9511 -0.0000
vn -0.3090 -0.9511 0.0000
vn 0.8090 -0.5878 -0.0000
vn 0.8090 -0.5878 0.0000
vn -0.0000 -0.0000 -1.0000
vn -0.4524 0.0000 0.8918
vn -0.2999 0.0000 0.9540
vn 0.4151 0.0000 0.9098
vn 0.4147 0.0000 0.9100
vn 0.9504 0.0000 0.3110
vn 0.9504 0.0000 0.3111
vn 0.9984 0.0000 0.0572
vn -0.2957 0.0000 0.9553
vn -0.3042 0.0000 0.9526
vn 0.4334 0.0000 0.9012
vn 0.4085 0.0000 0.9127
vn 0.9532 0.0000 0.3024
vn 0.9517 0.0000 0.3069
vn -0.4409 0.8976 0.0000
vn -0.4409 0.8976 -0.0000
vn -1.0000 0.0078 -0.0000
vn -0.8756 -0.4831 -0.0000
vn -0.4790 -0.8778 -0.0000
# 32 vertex normals

vt 0.0236 0.6194 0.0000
vt 0.2303 0.5457 0.0000
vt 0.2325 0.7984 0.0000
vt 0.0187 0.8763 0.0000
vt 0.0155 0.6293 0.0000
vt 0.2264 0.5387 0.0000
vt 0.2340 0.7902 0.0000
vt 0.0089 0.8739 0.0000
vt 0.3197 0.9847 0.0000
vt 0.5123 0.9292 0.0000
vt 0.2304 0.7901 0.0000
vt 0.0192 0.8795 0.0000
vt 0.5050 0.7640 0.0000
vt 0.5133 0.9236 0.0000
vt 0.2319 0.7899 0.0000
vt 0.2243 0.5384 0.0000
vt 0.5149 0.9245 0.0000
vt 0.3207 0.9910 0.0000
vt 0.0135 0.8728 0.0000
vt 0.2335 0.7908 0.0000
vt 0.3215 0.9911 0.0000
vt 0.5113 0.9273 0.0000
vt 0.2320 0.7883 0.0000
vt 0.0151 0.8751 0.0000
vt 0.3118 -0.1558 0.0000
vt 0.3092 -0.1471 0.0000
vt 0.2398 -0.1874 0.0000
vt 0.2424 -0.1961 0.0000
vt 0.3204 -0.1851 0.0000
vt 0.3174 -0.1748 0.0000
vt 0.2479 -0.2151 0.0000
vt 0.2509 -0.2254 0.0000
vt 1.2870 -0.1726 0.0000
vt 1.2749 -0.1726 0.0000
vt 1.2749 -0.2191 0.0000
vt 1.2870 -0.2191 0.0000
vt 0.3143 -0.1646 0.0000
vt 0.2449 -0.2049 0.0000
vt 0.3232 0.9137 0.0000
vt 0.2859 0.9261 0.0000
vt 0.2629 0.8936 0.0000
vt 0.3232 0.8735 0.0000
vt 0.2859 0.8611 0.0000
vt 0.3246 0.8724 0.0000
vt 0.3246 0.9126 0.0000
vt 0.2874 0.9250 0.0000
vt 0.2874 0.8600 0.0000
vt 0.2644 0.8925 0.0000
vt 1.2650 -0.1726 0.0000
vt 1.2552 -0.1726 0.0000
vt 1.2552 -0.2191 0.0000
vt 1.2650 -0.2191 0.0000
vt 1.2986 -0.1726 0.0000
vt 1.2986 -0.2191 0.0000
vt 1.1307 0.7988 0.0000
vt 1.1214 0.7730 0.0000
vt 1.2346 0.7137 0.0000
vt 1.2439 0.7395 0.0000
vt 1.1395 0.8233 0.0000
vt 1.2526 0.7641 0.0000
vt 0.3255 0.9127 0.0000
vt 0.2882 0.9251 0.0000
vt 0.2652 0.8926 0.0000
vt 0.3255 0.8725 0.0000
vt 0.2882 0.8601 0.0000
vt 0.3254 0.8737 0.0000
vt 0.3254 0.9139 0.0000
vt 0.2882 0.9264 0.0000
vt 0.2882 0.8613 0.0000
vt 0.2652 0.8938 0.0000
vt 0.2543 0.7868 0.0000
vt 0.2590 0.7868 0.0000
vt 0.2590 0.8094 0.0000
vt 0.2543 0.8094 0.0000
vt 0.2638 0.7868 0.0000
vt 0.2638 0.8094 0.0000
vt 0.2686 0.7868 0.0000
vt 0.2686 0.8094 0.0000
vt 0.2734 0.7868 0.0000
vt 0.2734 0.8094 0.0000
vt 0.2809 0.7766 0.0000
vt 0.2809 0.8198 0.0000
vt 0.2410 0.8198 0.0000
vt 0.2410 0.7766 0.0000
vt 0.2958 0.9092 0.0000
vt 0.2991 0.9097 0.0000
vt 0.2990 0.8999 0.0000
vt 0.2958 0.8995 0.0000
vt 0.2921 0.9028 0.0000
vt 0.2880 0.8982 0.0000
vt 0.2889 0.9207 0.0000
vt 0.2921 0.9207 0.0000
vt 0.2953 0.9200 0.0000
vt 0.2955 0.9097 0.0000
vt 0.2923 0.9103 0.0000
vt 0.2958 0.9001 0.0000
vt 0.2922 0.9009 0.0000
vt 0.2921 0.9097 0.0000
vt 0.2957 0.9090 0.0000
vt 0.2853 0.9207 0.0000
vt 0.2874 0.8983 0.0000
vt 0.2991 0.9117 0.0000
vt 0.2955 0.9112 0.0000
vt 0.2955 0.9202 0.0000
vt 0.2991 0.9207 0.0000
# 105 texture coords

g Box01
usemtl Material__104
s 2
f 1/1/1 2/2/1 3/3/1 4/4/1 
s 4
f 5/5/2 6/6/2 7/7/2 8/8/2 
s 8
f 1/9/3 4/10/3 6/11/3 
f 6/11/3 5/12/3 1/9/3 
s 16
f 4/13/4 3/14/4 7/15/4 
f 7/15/4 6/16/4 4/13/4 
s 32
f 3/17/5 2/18/5 8/19/5 
f 8/19/5 7/20/5 3/17/5 
s 64
f 2/21/6 1/22/6 5/23/6 
f 5/23/6 8/24/6 2/21/6 
s 8
f 9/25/4 10/26/7 11/27/8 12/28/9 
f 10/29/10 13/30/10 14/31/10 
f 14/31/10 11/32/10 10/29/10 
f 13/33/6 15/34/6 16/35/6 
f 16/35/6 14/36/6 13/33/6 
f 15/30/11 17/37/11 18/38/11 
f 18/38/11 16/31/11 15/30/11 
f 17/37/12 9/25/4 12/28/9 
f 12/28/9 18/38/13 17/37/13 
s 1
f 13/39/14 10/40/14 9/41/14 
f 15/42/1 13/39/1 9/41/1 
f 17/43/1 15/42/1 9/41/1 
f 14/44/2 16/45/2 18/46/2 
f 11/47/2 14/44/2 18/46/2 
f 12/48/2 11/47/2 18/46/2 
s 8
f 19/49/4 20/50/7 21/51/7 22/52/9 
f 20/53/10 23/33/10 24/36/10 
f 24/36/10 21/54/10 20/53/10 
f 23/55/6 25/56/6 26/57/6 
f 26/57/6 24/58/6 23/55/6 
f 25/59/11 27/55/11 28/58/11 
f 28/58/11 26/60/11 25/59/11 
f 27/34/12 19/49/4 22/52/9 
f 22/52/9 28/35/13 27/34/13 
s 1
f 23/61/1 20/62/1 19/63/1 
f 25/64/1 23/61/1 19/63/1 
f 27/65/1 25/64/1 19/63/1 
f 24/66/2 26/67/2 28/68/2 
f 21/69/2 24/66/2 28/68/2 
f 22/70/2 21/69/2 28/68/2 
f 29/71/15 30/72/16 31/73/16 32/74/15 
f 30/72/16 33/75/17 34/76/18 31/73/16 
f 33/75/17 35/77/19 36/78/20 34/76/18 
f 35/77/19 37/79/21 38/80/21 36/78/20 
f 39/71/15 40/72/22 41/73/23 42/74/15 
f 40/72/22 43/75/24 44/76/25 41/73/23 
f 43/75/24 45/77/26 46/78/27 44/76/25 
f 45/77/26 47/79/21 48/80/21 46/78/27 
s 2
f 49/81/1 50/82/1 51/83/1 52/84/1 
s 4
f 53/84/2 54/81/2 55/82/2 56/83/2 
s 8
f 49/84/3 52/81/3 54/82/3 
f 54/82/3 53/83/3 49/84/3 
s 16
f 52/84/4 51/81/4 55/82/4 54/83/4 
s 32
f 51/84/5 50/81/5 56/82/5 
f 56/82/5 55/83/5 51/84/5 
s 64
f 50/84/6 49/81/6 53/82/6 
f 53/82/6 56/83/6 50/84/6 
s 2
f 57/81/1 58/82/1 59/83/1 60/84/1 
s 4
f 61/84/2 62/81/2 63/82/2 64/83/2 
s 8
f 57/84/3 60/81/3 62/82/3 
f 62/82/3 61/83/3 57/84/3 
s 16
f 60/84/4 59/81/4 63/82/4 62/83/4 
s 32
f 59/84/5 58/81/5 64/82/5 
f 64/82/5 63/83/5 59/84/5 
s 64
f 58/84/6 57/81/6 61/82/6 
f 61/82/6 64/83/6 58/84/6 
s 1
f 65/85/28 66/86/28 67/87/29 68/88/29 
f 68/89/30 67/90/30 69/91/30 
f 69/91/30 70/92/31 68/89/30 
f 70/92/31 69/93/32 71/94/32 72/95/32 
f 73/96/29 74/97/29 75/98/29 76/99/29 
f 76/100/30 75/91/30 77/90/30 
f 77/90/30 78/101/30 76/100/30 
f 78/102/32 77/103/32 79/104/32 
f 79/104/32 80/105/32 78/102/32 
# 21 polygons - 54 triangles

