# Exported from Wings 3D 1.4
mtllib chemicals.mtl
o cylinder1
#24 vertices, 20 faces
v 0.95981200 0.98976012 -8.6619600e-19
v 0.47990600 0.98976012 0.83122157
v -0.47990600 0.98976012 0.83122157
v -0.95981200 0.98976012 1.1667687e-16
v -0.47990600 0.98976012 -0.83122157
v 0.47990600 0.98976012 -0.83122157
v 0.95981200 -0.81422388 -8.6619600e-19
v 0.47990600 -0.81422388 0.83122157
v -0.47990600 -0.81422388 0.83122157
v -0.95981200 -0.81422388 1.1667687e-16
v -0.47990600 -0.81422388 -0.83122157
v 0.47990600 -0.81422388 -0.83122157
v 0.29570800 1.42202355 0.51218128
v 0.59141600 1.42202355 1.6098234e-18
v 0.29570800 1.42202355 -0.51218128
v -0.29570800 1.42202355 -0.51218128
v -0.59141600 1.42202355 7.4037395e-17
v -0.29570800 1.42202355 0.51218128
v 0.29570800 1.98452020 0.51218128
v 0.59141600 1.98452020 1.6098234e-18
v 0.29570800 1.98452020 -0.51218128
v -0.29570800 1.98452020 -0.51218128
v -0.59141600 1.98452020 7.4037395e-17
v -0.29570800 1.98452020 0.51218128
vt -0.11417685 -0.51794230
vt -2.9103403e-2 -0.66529382
vt -2.9103403e-2 -0.37059077
vt 9.1305479e-2 0.41177679
vt 9.4913890e-2 0.16161869
vt 0.10800485 0.46929098
vt 0.11136830 0.53238067
vt 0.13201079 0.53314954
vt 0.14104349 -0.66529382
vt 0.14104349 -0.37059077
vt 0.16399129 0.14459299
vt 0.16600149 0.39367592
vt 0.16681345 0.55604249
vt 0.17085087 0.51447752
vt 0.17807057 0.44877159
vt 0.17920192 0.50251743
vt 0.22611693 -0.51794230
vt 0.24379521 0.44830397
vt 0.24568668 0.38984708
vt 0.24604540 0.49796159
vt 0.25008804 0.14660452
vt 0.26468068 0.55439082
vt 0.26945217 0.51172474
vt 0.29911630 0.53058027
vt 0.30800189 0.47115819
vt 0.30818199 0.51394110
vt 0.33219403 0.17162281
vt 0.33410015 0.40355136
vt 0.53676185 0.39611234
vt 0.54048754 0.16248682
vt 0.56572244 0.51382049
vt 0.56608303 0.45753362
vt 0.61644529 0.37588540
vt 0.61701635 0.12822461
vt 0.62484007 0.43941943
vt 0.63053216 0.48801539
vt 0.69603004 0.48685978
vt 0.69871704 0.43481401
vt 0.70225832 0.37418337
vt 0.70330823 0.12907887
vt 0.76248825 0.50823648
vt 0.76471592 0.46247045
vt 0.78420369 0.17211193
vt 0.78857470 0.40535656
vn 0.93478979 0.35520142 -1.8262033e-16
vn 0.46739489 0.35520142 0.80955170
vn -0.46739489 0.35520142 0.80955170
vn -0.93478979 0.35520142 2.3242587e-16
vn -0.46739489 0.35520142 -0.80955170
vn 0.46739489 0.35520142 -0.80955170
vn 0.86602540 -0.50000000 -1.1102230e-16
vn 0.43301270 -0.50000000 0.75000000
vn -0.43301270 -0.50000000 0.75000000
vn -0.86602540 -0.50000000 1.9428903e-16
vn -0.43301270 -0.50000000 -0.75000000
vn 0.43301270 -0.50000000 -0.75000000
vn 0.46739489 0.35520142 0.80955170
vn 0.93478979 0.35520142 -2.3242587e-16
vn 0.46739489 0.35520142 -0.80955170
vn -0.46739489 0.35520142 -0.80955170
vn -0.93478979 0.35520142 2.8223142e-16
vn -0.46739489 0.35520142 0.80955170
vn 0.43301270 0.50000000 0.75000000
vn 0.86602540 0.50000000 -3.8857806e-16
vn 0.43301270 0.50000000 -0.75000000
vn -0.43301270 0.50000000 -0.75000000
vn -0.86602540 0.50000000 1.1102230e-16
vn -0.43301270 0.50000000 0.75000000
g cylinder1_cylinder1_auv
usemtl cylinder1_auv
s 1
f 1/19/1 7/21/7 12/27/12 6/28/6
f 1/19/1 14/18/14 13/15/13 2/12/2
f 2/12/2 8/11/8 7/21/7 1/19/1
f 2/12/2 13/15/13 18/6/18 3/4/3
f 3/4/3 9/5/9 8/11/8 2/12/2
f 3/44/3 18/42/18 17/38/17 4/39/4
f 4/39/4 10/40/10 9/43/9 3/44/3
f 4/39/4 17/38/17 16/35/16 5/33/5
f 5/33/5 11/34/11 10/40/10 4/39/4
f 5/33/5 16/35/16 15/32/15 6/29/6
f 6/29/6 12/30/12 11/34/11 5/33/5
f 6/28/6 15/25/15 14/18/14 1/19/1
f 8/2/8 9/9/9 10/17/10 11/10/11 12/3/12 7/1/7
f 13/15/13 19/16/19 24/7/24 18/6/18
f 14/18/14 20/20/20 19/16/19 13/15/13
f 15/25/15 21/26/21 20/20/20 14/18/14
f 16/35/16 22/36/22 21/31/21 15/32/15
f 17/38/17 23/37/23 22/36/22 16/35/16
f 18/42/18 24/41/24 23/37/23 17/38/17
f 20/24/20 21/22/21 22/13/22 23/8/23 24/14/24 19/23/19
