# 3ds Max Wavefront OBJ Exporter v0.97b - (c)2007 guruware
# File Created: 26.05.2011 23:28:08

mtllib iguana-on-a-stick.mtl

#
# object Cube
#

v  -8.3579 -1.6360 -3.3968
v  -8.3579 -1.6360 3.3161
v  -22.4219 3.2266 -0.0403
v  -14.4664 0.1059 -4.9051
v  -14.4664 0.1059 4.8245
v  5.8068 -2.4182 18.6346
v  5.7487 -4.9580 20.0305
v  10.4217 -0.7091 16.2832
v  8.5903 -2.7179 15.6171
v  9.5054 2.8111 -6.4886
v  -10.3398 8.9351 -4.3941
v  14.6714 7.8534 -0.0403
v  17.0927 2.8399 -5.3612
v  17.0927 2.8399 5.2805
v  -10.3398 8.9351 4.3134
v  9.5054 2.8111 6.4080
v  22.1316 7.9457 -0.0403
v  28.5885 7.1576 3.6249
v  28.5885 11.3893 -0.0403
v  28.5885 7.1576 -3.7055
v  0.4906 5.7677 -39.2803
v  2.4262 2.4152 -39.2803
v  0.4906 3.5327 50.0641
v  -1.4449 2.4152 -39.2803
v  10.6887 -2.2085 2.3676
v  -26.9898 0.7511 -9.0241
v  -28.1940 0.9873 -12.2407
v  -28.0078 -2.3945 -10.8111
v  17.3078 -0.9756 -1.6776
v  21.1833 -8.3658 -12.0515
v  -21.4933 7.3586 3.1617
v  -8.5730 4.5138 7.3093
v  -19.6958 -2.2573 10.8418
v  -20.9722 -1.2182 -9.4414
v  -8.5730 4.5138 -7.3899
v  10.6887 -2.2085 -2.4482
v  -14.4664 4.6920 -7.2794
v  -21.1505 0.7537 -12.6105
v  -30.5323 1.7651 -7.4361
v  -20.8575 1.6331 -9.3457
v  -14.4664 4.6920 7.1987
v  -19.3274 1.7332 11.1489
v  -29.7392 4.3213 17.1494
v  -17.1334 1.4303 13.7205
v  -21.4933 7.3586 -3.2423
v  -53.4426 -1.0333 -0.0403
v  22.5624 -10.0452 -10.2879
v  28.5885 3.7317 -0.0403
v  37.8682 4.3006 -0.0403
v  38.6558 8.8273 -0.0403
v  23.2638 -14.8696 -12.0200
v  24.7884 -14.4664 -13.0012
v  -28.4511 1.5626 16.5922
v  -22.9567 3.0480 22.6062
v  -23.3508 3.9847 19.5983
# 55 vertices

vn -0.3188 -0.9471 0.0362
vn -0.2992 -0.9469 -0.1181
vn -0.1525 0.9174 0.3675
vn 0.1370 0.7241 -0.6760
vn 0.1370 0.7241 0.6760
vn -0.4706 0.8824 -0.0000
vn -0.1253 0.7725 -0.6226
vn -0.1253 0.7725 0.6226
vn 0.0000 -0.9997 -0.0250
vn -0.1823 0.9207 0.3451
vn -0.9818 -0.1031 -0.1595
vn -0.9295 0.0990 0.3553
vn 0.6147 0.5575 -0.5580
vn -0.0137 0.9999 -0.0000
vn 0.3741 -0.7816 0.4991
vn 0.2775 -0.7259 -0.6294
vn -0.0016 -0.8701 -0.4929
vn -0.0062 -0.9064 0.4224
vn 0.1831 -0.9831 -0.0000
vn 0.4115 -0.1226 -0.9031
vn -0.1716 0.9550 -0.2419
vn 0.0336 0.9955 0.0886
vn 0.6087 -0.0428 0.7922
vn -0.2391 0.6278 -0.7408
vn -0.1663 0.9228 -0.3476
vn -0.7023 -0.6002 -0.3827
vn 0.4163 -0.4874 0.7675
vn 0.2138 -0.5339 0.8180
vn 0.3928 -0.9135 0.1060
vn 0.7928 -0.5238 0.3117
vn -0.8660 0.5000 0.0125
vn 0.8660 0.5000 0.0125
vn 0.3105 -0.7825 0.5397
vn 0.3571 -0.6601 -0.6609
vn 0.0612 -0.9981 -0.0000
vn 0.2466 0.9691 -0.0000
vn 0.9852 -0.1714 -0.0000
vn 0.0722 0.5791 0.8121
vn 0.0722 0.5791 -0.8121
vn -0.7107 -0.3262 -0.6232
vn 0.7158 -0.6894 0.1110
vn 0.9162 0.2944 0.2719
vn 0.2087 -0.4918 0.8453
vn -0.3513 -0.7409 -0.5725
vn -0.0095 -0.5448 0.8385
vn -0.0095 -0.5448 -0.8385
vn -0.5125 0.0400 -0.8578
vn 0.0960 -0.3247 0.9409
vn -0.0819 -0.5989 0.7966
vn -0.4121 0.2434 0.8780
vn -0.5772 -0.3955 -0.7144
vn -0.2022 -0.8917 0.4050
vn 0.2022 0.8917 -0.4050
vn -0.7425 0.2287 -0.6296
vn -0.5085 0.2594 0.8211
vn -0.5026 -0.1649 -0.8487
vn -0.8668 -0.2753 0.4157
vn -0.7476 0.4941 -0.4438
# 58 vertex normals

vt 0.7726 0.6110 0.4377
vt 0.8918 0.6131 0.4377
vt 0.8372 0.4090 0.6229
vt 0.7479 0.5224 0.5040
vt 0.9208 0.5254 0.5040
vt 0.0831 0.5449 0.4079
vt 0.0808 0.4654 0.3112
vt 0.2623 0.6788 0.4730
vt 0.1912 0.7167 0.3965
vt 0.4113 0.8689 0.6071
vt 0.4551 0.5985 0.8403
vt 0.5294 0.9398 0.7991
vt 0.4302 0.9725 0.6082
vt 0.6273 0.9733 0.6082
vt 0.6164 0.5991 0.8403
vt 0.6501 0.8699 0.6071
vt 0.8266 0.1161 0.8026
vt 0.7366 0.1336 0.7726
vt 0.7537 0.0939 0.9337
vt 0.7707 0.0542 0.7726
vt 0.9083 0.0758 0.6082
vt 0.9109 0.1417 0.7991
vt 0.8588 0.1911 0.6082
vt 0.0370 0.0843 0.7196
vt 0.0012 0.0875 0.5920
vt 0.0272 0.4446 0.6345
vt 0.0728 0.0812 0.5920
vt 0.2744 0.1225 0.6071
vt 0.1128 0.0922 0.3965
vt 0.1266 0.0819 0.4730
vt 0.3944 0.0946 0.6082
vt 0.3557 0.1325 0.4159
vt 0.6407 0.1180 0.5286
vt 0.5838 0.1090 0.5376
vt 0.6086 0.1069 0.4088
vt 0.0423 0.9020 0.6071
vt 0.1164 0.8859 0.6082
vt 0.1325 0.4124 0.4628
vt 0.1564 0.9813 0.1814
vt 0.5979 0.4469 0.7802
vt 0.9742 0.3454 0.4377
vt 0.9151 0.3808 0.6719
vt 0.7606 0.2426 0.4140
vt 0.8955 0.2653 0.5040
vt 0.9669 0.3198 0.4377
vt 0.8690 0.2911 0.5040
vt 0.7348 0.3079 0.4536
vt 0.9233 0.3824 0.6719
vt 0.7113 0.8680 0.6071
vt 0.7827 0.8863 0.4159
vt 0.8682 0.8878 0.4159
vt 0.9404 0.8719 0.6071
vt 0.7940 0.9821 0.4628
vt 0.8448 0.3295 0.6787
vt 0.7001 0.3576 0.5287
vt 0.6260 0.1925 0.5672
vt 0.7374 0.3073 0.5622
vt 0.8616 0.2884 0.6787
vt 0.7596 0.2513 0.5660
vt 0.5765 0.1481 0.6646
vt 0.7434 0.3103 0.5545
vt 0.4792 0.4465 0.7802
vt 0.5388 0.4340 0.6229
vt 0.5467 0.0111 0.4606
vt 0.4027 0.5420 0.6787
vt 0.1698 0.9562 0.1175
vt 0.0538 0.8444 0.4159
vt 0.6632 0.0498 0.5672
vt 0.8888 0.1149 0.4628
vt 0.7537 0.0939 0.6421
vt 0.6488 0.0620 0.6638
vt 0.6399 0.0593 0.8362
vt 0.6709 0.5431 0.6787
vt 0.6714 0.6234 0.6719
vt 0.3991 0.6224 0.6719
vt 0.0666 0.6254 0.1814
vt 0.1197 0.5003 0.1175
vt 0.1466 0.6232 -0.0663
vt 0.2053 0.6927 -0.0509
vt 0.5965 0.1627 0.5595
vt 0.6577 0.2489 0.5286
vt 0.9629 0.6112 0.6719
vt 0.7017 0.6067 0.6719
vt 0.6435 0.2267 0.5622
vt 0.6417 0.2251 0.4536
vt 0.6269 0.5429 0.5040
vt 0.4467 0.5422 0.5040
vt 0.5619 0.3062 0.6161
vt 0.6012 0.2709 0.6517
vt 0.7286 0.3220 0.5040
vt 0.6877 0.3310 0.6787
# 91 texture coords

g Cube
usemtl Material__31
s off
f 1/1/1 2/2/1 3/3/1 4/4/1 
f 5/5/2 3/3/2 2/2/2 
f 6/6/3 7/7/3 8/8/3 9/9/3 
f 10/10/4 11/11/4 12/12/4 13/13/4 
f 14/14/5 12/12/5 15/15/5 16/16/5 
f 17/17/6 18/18/6 19/19/6 20/20/6 
f 13/21/7 12/22/7 17/17/7 20/20/7 
f 18/18/8 17/17/8 12/22/8 14/23/8 
f 21/24/9 22/25/9 23/26/9 24/27/9 
f 16/28/10 9/29/10 8/30/10 14/31/10 
f 16/28/11 25/32/11 9/29/11 
f 26/33/12 27/34/12 28/35/12 
f 10/36/13 13/37/13 29/38/13 30/39/13 
f 11/11/14 31/40/14 15/15/14 12/12/14 
f 2/41/15 32/42/15 33/43/15 5/44/15 
f 1/45/16 4/46/16 34/47/16 35/48/16 
f 1/1/17 10/49/17 36/50/17 25/51/17 
f 1/1/18 25/51/18 16/52/18 2/2/18 
f 36/50/19 29/53/19 25/51/19 
f 37/54/20 35/48/20 34/47/20 38/55/20 
f 37/54/21 38/55/21 39/56/21 40/57/21 
f 41/58/22 42/59/22 43/60/22 44/61/22 
f 41/58/23 44/61/23 33/43/23 32/42/23 
f 45/62/24 3/63/24 46/64/24 31/40/24 
f 11/11/25 37/65/25 45/62/25 31/40/25 
f 10/36/26 30/39/26 47/66/26 36/67/26 
f 29/38/27 36/67/27 47/66/27 30/39/27 
f 39/68/28 28/35/28 26/33/28 
f 25/32/29 29/38/29 8/30/29 9/29/29 
f 29/38/30 14/31/30 8/30/30 
f 24/27/31 23/26/31 21/24/31 
f 21/24/32 23/26/32 22/25/32 
f 18/18/33 14/23/33 29/69/33 48/70/33 
f 29/69/34 13/21/34 20/20/34 48/70/34 
f 18/18/35 48/70/35 20/20/35 49/71/35 
f 50/72/36 20/20/36 19/19/36 18/18/36 
f 50/72/37 18/18/37 49/71/37 20/20/37 
f 16/16/38 15/15/38 41/73/38 32/74/38 
f 11/11/39 10/10/39 35/75/39 37/65/39 
f 6/6/40 9/9/40 7/7/40 
f 9/9/41 8/8/41 7/7/41 
f 30/76/42 47/77/42 51/78/42 52/79/42 
f 33/43/43 44/61/43 43/60/43 53/80/43 
f 38/55/44 34/47/44 26/81/44 39/56/44 
f 16/52/45 32/82/45 2/2/45 
f 1/1/46 35/83/46 10/49/46 
f 53/80/47 43/60/47 42/59/47 33/43/47 
f 40/84/48 39/68/48 26/33/48 34/85/48 
f 3/63/49 5/86/49 31/40/49 46/64/49 
f 31/40/50 5/86/50 41/73/50 15/15/50 
f 4/87/51 3/63/51 45/62/51 37/65/51 
f 54/88/52 43/60/52 53/80/52 55/89/52 
f 53/80/53 43/60/53 54/88/53 55/89/53 
f 42/59/54 41/58/54 5/44/54 33/43/54 
f 4/90/55 37/91/55 40/84/55 34/85/55 
f 30/76/56 52/79/56 51/78/56 
f 30/76/57 51/78/57 47/77/57 
f 39/68/58 26/33/58 27/34/58 28/35/58 
# 44 polygons - 14 triangles

