# 3ds Max Wavefront OBJ Exporter v0.97b - (c)2007 guruware
# File Created: 22.08.2011 20:06:01

mtllib 14mmammo.mtl

#
# object Box01
#

v  0.0385 0.0000 19.8064
v  0.0385 0.0000 -2.4244
v  10.1936 0.0000 -2.4244
v  10.1936 0.0000 19.8064
v  0.0385 40.1970 19.8064
v  10.1936 40.1970 19.8064
v  10.1936 40.1970 -2.4244
v  0.0385 40.1970 -2.4244
v  -2.3794 40.2943 -2.3458
v  -2.3794 40.2943 19.8391
v  10.1542 40.2943 19.8391
v  10.1542 40.2943 -2.3458
# 12 vertices

vn 0.0000 -1.0000 -0.0000
vn 0.0000 1.0000 -0.0000
vn 0.0000 0.0000 1.0000
vn 1.0000 0.0000 -0.0000
vn 0.0000 0.0000 -1.0000
vn -1.0000 0.0000 -0.0000
# 6 vertex normals

vt -0.3139 0.8617 0.0000
vt -0.8109 0.9502 0.0000
vt -0.9724 0.8907 0.0000
vt -0.4660 0.7702 0.0000
vt 0.9364 0.6857 0.0000
vt 0.7403 0.6857 0.0000
vt 0.7403 0.3564 0.0000
vt 0.9364 0.3564 0.0000
vt -0.4702 0.0311 0.0000
vt -0.3766 0.0932 0.0000
vt -0.3408 0.8385 0.0000
vt -0.4608 0.7688 0.0000
vt -0.2725 0.6926 0.0000
vt -0.2725 0.3435 0.0000
vt -0.0470 0.3435 0.0000
vt -0.0470 0.6926 0.0000
vt -0.4758 0.0282 0.0000
vt -0.3804 0.0941 0.0000
vt -0.3408 0.8356 0.0000
vt -0.4627 0.7753 0.0000
vt -0.8936 0.1867 0.0000
vt -0.4711 0.0322 0.0000
vt -0.4673 0.7719 0.0000
vt -0.9162 0.8585 0.0000
vt -0.3154 0.8625 0.0000
vt -0.8087 0.9511 0.0000
vt -0.9659 0.8994 0.0000
vt -0.4613 0.7675 0.0000
# 28 texture coords

g Box01
usemtl Material__25
s 2
f 1/1/1 2/2/1 3/3/1 4/4/1 
s 4
f 5/5/2 6/6/2 7/7/2 8/8/2 
s 8
f 1/9/3 4/10/3 6/11/3 5/12/3 
s 16
f 4/13/4 3/14/4 7/15/4 6/16/4 
s 32
f 3/17/5 2/18/5 8/19/5 7/20/5 
s 64
f 2/21/6 1/22/6 5/23/6 8/24/6 
s 1
f 9/25/2 10/26/2 11/27/2 12/28/2 
# 7 polygons

