# Wavefront OBJ
# Created by fragMOTION
# http://www.fragmosoft.com

mtllib Hair_female_bob.mtl
# 198 vertices
v -5.48833 84.551 7.91476
v -6.84533 88.9691 8.35089
v -6.38932 86.7059 7.13865
v 3.86272 86.7059 7.13865
v 4.31873 88.9691 8.35089
v 2.96172 84.551 7.91476
v -5.48833 84.551 7.91476
v -6.38932 86.7059 7.13865
v -6.32861 86.2579 5.64655
v 3.802 86.2579 5.64655
v 3.86272 86.7059 7.13865
v 2.96172 84.551 7.91476
v -5.82101 83.0021 2.84667
v -5.48833 84.551 7.91476
v -6.32861 86.2579 5.64655
v 3.802 86.2579 5.64655
v 2.96172 84.551 7.91476
v 3.2944 83.0021 2.84667
v -6.00062 87.821 2.82628
v -5.82101 83.0021 2.84667
v -6.32861 86.2579 5.64655
v 3.802 86.2579 5.64655
v 3.2944 83.0021 2.84667
v 3.47401 87.821 2.82628
v -6.35981 90.377 2.47003
v -6.00062 87.821 2.82628
v -6.32861 86.2579 5.64655
v 3.802 86.2579 5.64655
v 3.47401 87.821 2.82628
v 3.8332 90.377 2.47003
v -6.99655 89.2751 5.32075
v -6.35981 90.377 2.47003
v -6.32861 86.2579 5.64655
v 3.802 86.2579 5.64655
v 3.8332 90.377 2.47003
v 4.46994 89.2751 5.32075
v -1.2633 91.0342 12.6715
v -1.2633 94.3515 11.4569
v -3.76246 93.7637 10.7635
v 1.23586 93.7637 10.7635
v -1.2633 94.3515 11.4569
v -1.2633 91.0342 12.6715
v -3.76246 93.7637 10.7635
v -4.27251 90.4674 12.0379
v -1.2633 91.0342 12.6715
v -1.2633 91.0342 12.6715
v 1.74591 90.4674 12.0379
v 1.23586 93.7637 10.7635
v -1.2633 96.6259 4.1894
v -1.2633 94.8336 0.639933
v -3.12742 94.5116 1.68515
v 0.600815 94.5116 1.68515
v -1.2633 94.8336 0.639933
v -1.2633 96.6259 4.1894
v -3.12742 94.5116 1.68515
v -3.10388 96.1316 4.2348
v -1.2633 96.6259 4.1894
v -1.2633 96.6259 4.1894
v 0.577271 96.1316 4.2348
v 0.600815 94.5116 1.68515
v -3.38085 86.5869 10.9299
v -4.27251 90.4674 12.0379
v -6.84533 88.9691 8.35089
v 4.31873 88.9691 8.35089
v 1.74591 90.4674 12.0379
v 0.854239 86.5869 10.9299
v -6.84533 88.9691 8.35089
v -5.48833 84.551 7.91476
v -3.38085 86.5869 10.9299
v 0.854239 86.5869 10.9299
v 2.96172 84.551 7.91476
v 4.31873 88.9691 8.35089
v -4.27251 90.4674 12.0379
v -3.76246 93.7637 10.7635
v -6.53139 93.6202 8.30481
v 4.00478 93.6202 8.30481
v 1.23586 93.7637 10.7635
v 1.74591 90.4674 12.0379
v -6.53139 93.6202 8.30481
v -6.84533 88.9691 8.35089
v -4.27251 90.4674 12.0379
v 1.74591 90.4674 12.0379
v 4.31873 88.9691 8.35089
v 4.00478 93.6202 8.30481
v -1.2633 96.4831 8.82012
v -3.40522 96.1508 8.52615
v -3.76246 93.7637 10.7635
v 1.23586 93.7637 10.7635
v 0.878617 96.1508 8.52615
v -1.2633 96.4831 8.82012
v -3.76246 93.7637 10.7635
v -1.2633 94.3515 11.4569
v -1.2633 96.4831 8.82012
v -1.2633 96.4831 8.82012
v -1.2633 94.3515 11.4569
v 1.23586 93.7637 10.7635
v -1.2633 96.6259 4.1894
v -3.10388 96.1316 4.2348
v -3.40522 96.1508 8.52615
v 0.878617 96.1508 8.52615
v 0.577271 96.1316 4.2348
v -1.2633 96.6259 4.1894
v -3.40522 96.1508 8.52615
v -1.2633 96.4831 8.82012
v -1.2633 96.6259 4.1894
v -1.2633 96.6259 4.1894
v -1.2633 96.4831 8.82012
v 0.878617 96.1508 8.52615
v -3.12742 94.5116 1.68515
v -6.20561 93.4296 4.20088
v -3.10388 96.1316 4.2348
v 0.577271 96.1316 4.2348
v 3.679 93.4296 4.20088
v 0.600815 94.5116 1.68515
v -6.53139 93.6202 8.30481
v -6.35981 90.377 2.47003
v -6.99655 89.2751 5.32075
v 4.46994 89.2751 5.32075
v 3.8332 90.377 2.47003
v 4.00478 93.6202 8.30481
v -6.53139 93.6202 8.30481
v -6.20561 93.4296 4.20088
v -6.35981 90.377 2.47003
v 3.8332 90.377 2.47003
v 3.679 93.4296 4.20088
v 4.00478 93.6202 8.30481
v -6.53139 93.6202 8.30481
v -3.76246 93.7637 10.7635
v -3.40522 96.1508 8.52615
v 0.878617 96.1508 8.52615
v 1.23586 93.7637 10.7635
v 4.00478 93.6202 8.30481
v -3.40522 96.1508 8.52615
v -3.10388 96.1316 4.2348
v -6.20561 93.4296 4.20088
v 3.679 93.4296 4.20088
v 0.577271 96.1316 4.2348
v 0.878617 96.1508 8.52615
v -6.20561 93.4296 4.20088
v -6.53139 93.6202 8.30481
v -3.40522 96.1508 8.52615
v 0.878617 96.1508 8.52615
v 4.00478 93.6202 8.30481
v 3.679 93.4296 4.20088
v -4.27251 90.4674 12.0379
v -3.38085 86.5869 10.9299
v -1.2633 87.5813 11.9159
v -1.2633 87.5813 11.9159
v 0.854239 86.5869 10.9299
v 1.74591 90.4674 12.0379
v -1.2633 87.5813 11.9159
v -1.2633 91.0342 12.6715
v -4.27251 90.4674 12.0379
v 1.74591 90.4674 12.0379
v -1.2633 91.0342 12.6715
v -1.2633 87.5813 11.9159
v -6.20561 93.4296 4.20088
v -3.12742 94.5116 1.68515
v -3.81892 91.1685 -0.0634103
v 1.29231 91.1685 -0.0634103
v 0.600815 94.5116 1.68515
v 3.679 93.4296 4.20088
v -3.81892 91.1685 -0.0634103
v -6.35981 90.377 2.47003
v -6.20561 93.4296 4.20088
v 3.679 93.4296 4.20088
v 3.8332 90.377 2.47003
v 1.29231 91.1685 -0.0634103
v -1.2633 94.8336 0.639933
v -1.2633 91.1802 -0.65792
v -3.81892 91.1685 -0.0634103
v 1.29231 91.1685 -0.0634103
v -1.2633 91.1802 -0.65792
v -1.2633 94.8336 0.639933
v -3.12742 94.5116 1.68515
v -1.2633 94.8336 0.639933
v -3.81892 91.1685 -0.0634103
v 1.29231 91.1685 -0.0634103
v -1.2633 94.8336 0.639933
v 0.600815 94.5116 1.68515
v -6.38932 86.7059 7.13865
v -6.84533 88.9691 8.35089
v -6.99655 89.2751 5.32075
v 4.46994 89.2751 5.32075
v 3.86272 86.7059 7.13865
v 3.802 86.2579 5.64655
v 4.31873 88.9691 8.35089
v 4.46994 89.2751 5.32075
v 4.00478 93.6202 8.30481
v 4.46994 89.2751 5.32075
v 4.31873 88.9691 8.35089
v 3.86272 86.7059 7.13865
v -6.38932 86.7059 7.13865
v -6.99655 89.2751 5.32075
v -6.32861 86.2579 5.64655
v -6.99655 89.2751 5.32075
v -6.84533 88.9691 8.35089
v -6.53139 93.6202 8.30481
# 33 texture vertices
vt 0.316674 -0.89295
vt 0.353304 -0.81679
vt 0.296089 -0.736807
vt 0.423727 -0.832625
vt 0.555873 -0.947689
vt 0.556835 -0.777383
vt 0.573649 -0.687051
vt 0.439104 -0.725995
vt 0.00493853 -0.665002
vt 0.182221 -0.567358
vt 0.0622651 -0.547765
vt 0.122075 -0.683856
vt 0.751726 -0.0260756
vt 0.663671 -0.243439
vt 0.751726 -0.280097
vt 0.83978 -0.243439
vt 0.664783 -0.0460439
vt 0.838668 -0.0460439
vt 0.161403 -0.8375
vt 0.298264 -0.572432
vt 0.272765 -0.355732
vt 0.287818 -0.482995
vt 0.491321 -0.350688
vt 0.490357 -0.483677
vt 0.518269 -0.168988
vt 0.985182 -0.168988
vt 0.491958 -0.579168
vt 0.0406021 -0.787034
vt 0.631007 -0.479012
vt 0.872444 -0.479012
vt 0.510985 -0.390653
vt 0.992466 -0.390653
vt 0.751726 -0.507557
# 198 normals
vn -0.887406 -0.312361 0.339029
vn -0.930313 -0.133799 0.34149
vn -0.952228 -0.287927 0.101787
vn 0.952228 -0.287927 0.101787
vn 0.930313 -0.1338 0.34149
vn 0.887406 -0.312361 0.339029
vn -0.887406 -0.312361 0.339029
vn -0.952228 -0.287927 0.101787
vn -0.975832 -0.218039 -0.0145514
vn 0.975832 -0.218039 -0.0145512
vn 0.952228 -0.287927 0.101787
vn 0.887406 -0.312361 0.339029
vn -0.989805 -0.141787 -0.0134846
vn -0.887406 -0.312361 0.339029
vn -0.975832 -0.218039 -0.0145514
vn 0.975832 -0.218039 -0.0145512
vn 0.887406 -0.312361 0.339029
vn 0.989805 -0.141786 -0.0134846
vn -0.97823 -0.122039 -0.167849
vn -0.989805 -0.141787 -0.0134846
vn -0.975832 -0.218039 -0.0145514
vn 0.975832 -0.218039 -0.0145512
vn 0.989805 -0.141786 -0.0134846
vn 0.97823 -0.122039 -0.167849
vn -0.985804 -0.00298591 -0.167873
vn -0.97823 -0.122039 -0.167849
vn -0.975832 -0.218039 -0.0145514
vn 0.975832 -0.218039 -0.0145512
vn 0.97823 -0.122039 -0.167849
vn 0.985804 -0.00298613 -0.167873
vn -0.991837 -0.0530489 -0.11595
vn -0.985804 -0.00298591 -0.167873
vn -0.975832 -0.218039 -0.0145514
vn 0.975832 -0.218039 -0.0145512
vn 0.985804 -0.00298613 -0.167873
vn 0.991837 -0.0530489 -0.11595
vn 8.83731e-008 0.119634 0.992818
vn 4.3491e-008 0.607883 0.794027
vn -0.463547 0.531024 0.709322
vn 0.463547 0.531024 0.709322
vn 4.3491e-008 0.607883 0.794027
vn 8.83731e-008 0.119634 0.992818
vn -0.463547 0.531024 0.709322
vn -0.544908 0.0089925 0.838448
vn 8.83731e-008 0.119634 0.992818
vn 8.83731e-008 0.119634 0.992818
vn 0.544908 0.0089925 0.838448
vn 0.463547 0.531024 0.709322
vn -1.69211e-009 0.879002 -0.476818
vn 3.75264e-008 0.69975 -0.714388
vn -0.530209 0.651922 -0.542104
vn 0.530209 0.651922 -0.542104
vn 3.75264e-008 0.69975 -0.714388
vn -1.69211e-009 0.879002 -0.476818
vn -0.530209 0.651922 -0.542104
vn -0.397024 0.792691 -0.462615
vn -1.69211e-009 0.879002 -0.476818
vn -1.69211e-009 0.879002 -0.476818
vn 0.397024 0.792691 -0.462615
vn 0.530209 0.651922 -0.542104
vn -0.576857 -0.338969 0.743193
vn -0.544908 0.0089925 0.838448
vn -0.930313 -0.133799 0.34149
vn 0.930313 -0.1338 0.34149
vn 0.544908 0.0089925 0.838448
vn 0.576857 -0.338969 0.743193
vn -0.930313 -0.133799 0.34149
vn -0.887406 -0.312361 0.339029
vn -0.576857 -0.338969 0.743193
vn 0.576857 -0.338969 0.743193
vn 0.887406 -0.312361 0.339029
vn 0.930313 -0.1338 0.34149
vn -0.544908 0.0089925 0.838448
vn -0.463547 0.531024 0.709322
vn -0.853088 0.456664 0.252387
vn 0.853088 0.456663 0.252387
vn 0.463547 0.531024 0.709322
vn 0.544908 0.0089925 0.838448
vn -0.853088 0.456664 0.252387
vn -0.930313 -0.133799 0.34149
vn -0.544908 0.0089925 0.838448
vn 0.544908 0.0089925 0.838448
vn 0.930313 -0.1338 0.34149
vn 0.853088 0.456663 0.252387
vn -2.44758e-008 0.927094 0.374828
vn -0.411124 0.860738 0.300179
vn -0.463547 0.531024 0.709322
vn 0.463547 0.531024 0.709322
vn 0.411124 0.860738 0.300179
vn -2.44758e-008 0.927094 0.374828
vn -0.463547 0.531024 0.709322
vn 4.3491e-008 0.607883 0.794027
vn -2.44758e-008 0.927094 0.374828
vn -2.44758e-008 0.927094 0.374828
vn 4.3491e-008 0.607883 0.794027
vn 0.463547 0.531024 0.709322
vn 1.31875e-008 0.999973 -0.00733112
vn -0.461929 0.886277 -0.0336961
vn -0.411124 0.860738 0.300179
vn 0.411124 0.860738 0.300179
vn 0.461929 0.886277 -0.0336962
vn 1.31875e-008 0.999973 -0.00733112
vn -0.411124 0.860738 0.300179
vn -2.44758e-008 0.927094 0.374828
vn 1.31875e-008 0.999973 -0.00733112
vn 1.31875e-008 0.999973 -0.00733112
vn -2.44758e-008 0.927094 0.374828
vn 0.411124 0.860738 0.300179
vn -0.530209 0.651922 -0.542104
vn -0.674259 0.524547 -0.519831
vn -0.397024 0.792691 -0.462615
vn 0.397024 0.792691 -0.462615
vn 0.674259 0.524547 -0.519831
vn 0.530209 0.651922 -0.542104
vn -0.853088 0.456664 0.252387
vn -0.985804 -0.00298591 -0.167873
vn -0.991837 -0.0530489 -0.11595
vn 0.991837 -0.0530489 -0.11595
vn 0.985804 -0.00298613 -0.167873
vn 0.853088 0.456663 0.252387
vn -0.853088 0.456664 0.252387
vn -0.908935 0.410008 -0.0756985
vn -0.985804 -0.00298591 -0.167873
vn 0.985804 -0.00298613 -0.167873
vn 0.908935 0.410008 -0.0756985
vn 0.853088 0.456663 0.252387
vn -0.853088 0.456664 0.252387
vn -0.463547 0.531024 0.709322
vn -0.411124 0.860738 0.300179
vn 0.411124 0.860738 0.300179
vn 0.463547 0.531024 0.709322
vn 0.853088 0.456663 0.252387
vn -0.411124 0.860738 0.300179
vn -0.461929 0.886277 -0.0336961
vn -0.908935 0.410008 -0.0756985
vn 0.908935 0.410008 -0.0756985
vn 0.461929 0.886277 -0.0336962
vn 0.411124 0.860738 0.300179
vn -0.908935 0.410008 -0.0756985
vn -0.853088 0.456664 0.252387
vn -0.411124 0.860738 0.300179
vn 0.411124 0.860738 0.300179
vn 0.853088 0.456663 0.252387
vn 0.908935 0.410008 -0.0756985
vn -0.544908 0.0089925 0.838448
vn -0.576857 -0.338969 0.743193
vn -7.93887e-008 -0.306875 0.95175
vn -7.93887e-008 -0.306875 0.95175
vn 0.576857 -0.338969 0.743193
vn 0.544908 0.0089925 0.838448
vn -7.93887e-008 -0.306875 0.95175
vn 8.83731e-008 0.119634 0.992818
vn -0.544908 0.0089925 0.838448
vn 0.544908 0.0089925 0.838448
vn 8.83731e-008 0.119634 0.992818
vn -7.93887e-008 -0.306875 0.95175
vn -0.674259 0.524547 -0.519831
vn -0.530209 0.651922 -0.542104
vn -0.527558 0.429196 -0.733126
vn 0.527558 0.429196 -0.733126
vn 0.530209 0.651922 -0.542104
vn 0.674259 0.524547 -0.519831
vn -0.527558 0.429196 -0.733126
vn -0.729563 0.383758 -0.566099
vn -0.674259 0.524547 -0.519831
vn 0.674259 0.524547 -0.519831
vn 0.729563 0.383758 -0.566099
vn 0.527558 0.429196 -0.733126
vn 3.75264e-008 0.69975 -0.714388
vn 7.48086e-008 0.358422 -0.93356
vn -0.527558 0.429196 -0.733126
vn 0.527558 0.429196 -0.733126
vn 7.48086e-008 0.358422 -0.93356
vn 3.75264e-008 0.69975 -0.714388
vn -0.530209 0.651922 -0.542104
vn 3.75264e-008 0.69975 -0.714388
vn -0.527558 0.429196 -0.733126
vn 0.527558 0.429196 -0.733126
vn 3.75264e-008 0.69975 -0.714388
vn 0.530209 0.651922 -0.542104
vn -0.952228 -0.287927 0.101787
vn -0.930313 -0.133799 0.34149
vn -0.991837 -0.0530489 -0.11595
vn 0.991837 -0.0530489 -0.11595
vn 0.952228 -0.287927 0.101787
vn 0.975832 -0.218039 -0.0145512
vn 0.930313 -0.1338 0.34149
vn 0.991837 -0.0530489 -0.11595
vn 0.853088 0.456663 0.252387
vn 0.991837 -0.0530489 -0.11595
vn 0.930313 -0.1338 0.34149
vn 0.952228 -0.287927 0.101787
vn -0.952228 -0.287927 0.101787
vn -0.991837 -0.0530489 -0.11595
vn -0.975832 -0.218039 -0.0145514
vn -0.991837 -0.0530489 -0.11595
vn -0.930313 -0.133799 0.34149
vn -0.853088 0.456664 0.252387
usemtl orig_01_-_Default
g Hair
s off
f 1/1/1 2/3/2 3/2/3
f 4/2/4 5/3/5 6/1/6
f 7/1/7 8/2/8 9/4/9
f 10/4/10 11/2/11 12/1/12
f 13/5/13 14/1/14 15/4/15
f 16/4/16 17/1/17 18/5/18
f 19/6/19 20/5/20 21/4/21
f 22/4/22 23/5/23 24/6/24
f 25/7/25 26/6/26 27/4/27
f 28/4/28 29/6/29 30/7/30
f 31/8/31 32/7/32 33/4/33
f 34/4/34 35/7/35 36/8/36
f 37/9/37 38/11/38 39/10/39
f 40/10/40 41/11/41 42/9/42
f 43/10/43 44/12/44 45/9/45
f 46/9/46 47/12/47 48/10/48
f 49/13/49 50/15/50 51/14/51
f 52/16/52 53/15/53 54/13/54
f 55/14/55 56/17/56 57/13/57
f 58/13/58 59/18/59 60/16/60
f 61/19/61 62/12/62 63/3/63
f 64/3/64 65/12/65 66/19/66
f 67/3/67 68/1/68 69/19/69
f 70/19/70 71/1/71 72/3/72
f 73/12/73 74/10/74 75/20/75
f 76/20/76 77/10/77 78/12/78
f 79/20/79 80/3/80 81/12/81
f 82/12/82 83/3/83 84/20/84
f 85/21/85 86/22/86 87/10/87
f 88/10/88 89/22/89 90/21/90
f 91/10/91 92/11/92 93/21/93
f 94/21/94 95/11/95 96/10/96
f 97/23/97 98/24/98 99/22/99
f 100/22/100 101/24/101 102/23/102
f 103/22/103 104/21/104 105/23/105
f 106/23/106 107/21/107 108/22/108
f 109/14/109 110/25/110 111/17/111
f 112/18/112 113/26/113 114/16/114
f 115/20/115 116/7/116 117/8/117
f 118/8/118 119/7/119 120/20/120
f 121/20/121 122/27/122 123/7/123
f 124/7/124 125/27/125 126/20/126
f 127/20/127 128/10/128 129/22/129
f 130/22/130 131/10/131 132/20/132
f 133/22/133 134/24/134 135/27/135
f 136/27/136 137/24/137 138/22/138
f 139/27/139 140/20/140 141/22/141
f 142/22/142 143/20/143 144/27/144
f 145/12/145 146/19/146 147/28/147
f 148/28/148 149/19/149 150/12/150
f 151/28/151 152/9/152 153/12/153
f 154/12/154 155/9/155 156/28/156
f 157/25/157 158/14/158 159/29/159
f 160/30/160 161/16/161 162/26/162
f 163/29/163 164/31/164 165/25/165
f 166/26/166 167/32/167 168/30/168
f 169/15/169 170/33/170 171/29/171
f 172/30/172 173/33/173 174/15/174
f 175/14/175 176/15/176 177/29/177
f 178/30/178 179/15/179 180/16/180
f 181/2/181 182/3/182 183/8/183
f 184/8/184 185/2/185 186/4/186
f 187/3/187 188/8/188 189/20/189
f 190/8/190 191/3/191 192/2/192
f 193/2/193 194/8/194 195/4/195
f 196/8/196 197/3/197 198/20/198
