# Exported from Wings 3D 1.4
mtllib rot gut.mtl
o cylinder1
#36 vertices, 32 faces
v 1.24400000 1.41069600 0.0000000e+0
v 0.62200000 1.41069600 1.07733560
v -0.62200000 1.41069600 1.07733560
v -1.24400000 1.41069600 1.5234606e-16
v -0.62200000 1.41069600 -1.07733560
v 0.62200000 1.41069600 -1.07733560
v 1.24400000 -1.41069600 0.0000000e+0
v 0.62200000 -1.41069600 1.07733560
v -0.62200000 -1.41069600 1.07733560
v -1.24400000 -1.41069600 1.5234606e-16
v -0.62200000 -1.41069600 -1.07733560
v 0.62200000 -1.41069600 -1.07733560
v 0.33836800 2.35944858 0.58607057
v 0.67673600 2.35944858 0.0000000e+0
v 0.33836800 2.35944858 -0.58607057
v -0.33836800 2.35944858 -0.58607057
v -0.67673600 2.35944858 8.2876258e-17
v -0.33836800 2.35944858 0.58607057
v 0.33836800 4.04611983 0.58607057
v 0.67673600 4.04611983 0.0000000e+0
v 0.33836800 4.04611983 -0.58607057
v -0.33836800 4.04611983 -0.58607057
v -0.67673600 4.04611983 8.2876258e-17
v -0.33836800 4.04611983 0.58607057
v 0.25174579 4.04611983 0.43603650
v 0.50349158 4.04611983 2.7761879e-17
v 0.25174579 4.04611983 -0.43603650
v -0.25174579 4.04611983 -0.43603650
v -0.50349158 4.04611983 3.8457251e-17
v -0.25174579 4.04611983 0.43603650
v 0.29353559 4.45021815 0.50841856
v 0.58707119 4.45021815 3.3906159e-17
v 0.29353559 4.45021815 -0.50841856
v -0.29353559 4.45021815 -0.50841856
v -0.58707119 4.45021815 4.6376964e-17
v -0.29353559 4.45021815 0.50841856
vt 0.18560040 0.73526844
vt 0.18713597 0.73207031
vt 0.18714183 0.73244341
vt 0.18910968 0.72951231
vt 0.18958018 0.72796888
vt 0.19004416 0.72645223
vt 0.19565020 0.73982651
vt 0.20228124 0.76850305
vt 0.20910951 0.78668225
vt 0.21087634 0.78744674
vt 0.21277074 0.78808958
vt 0.21309339 0.78966679
vt 0.21488051 0.78920350
vt 0.21674329 0.79023446
vt 0.21716929 0.71974558
vt 0.22783294 0.70531343
vt 0.23043138 0.77709867
vt 0.23111973 0.70511515
vt 0.23194369 0.70612501
vt 0.23490769 0.70535799
vt 0.23535125 0.68137201
vt 0.23630880 0.70566806
vt 0.23757121 0.70590791
vt 0.24149876 0.68883170
vt 0.24531943 0.72834120
vt 0.24581256 0.71132383
vt 0.25195047 0.75701774
vt 0.25481679 0.71256616
vt 0.25737896 0.71467635
vt 0.25980141 0.77613611
vt 0.26009208 0.74111082
vt 0.26114012 0.77501925
vt 0.26221004 0.77328251
vt 0.26249649 0.77365908
vt 0.26346304 0.77129742
vt 0.26414554 0.76940380
vt 0.26633493 0.71467635
vt 0.26830906 0.74271791
vt 0.26958854 0.76661596
vt 0.27129895 0.76469276
vt 0.27487109 0.68437908
vt 0.27487109 0.74497362
vt 0.27934908 0.69213518
vt 0.27934908 0.73721752
vt 0.30537738 0.69213518
vt 0.30537738 0.73721752
vt 0.30985537 0.68437908
vt 0.30985537 0.74497362
vt 0.31839153 0.71467635
vt 0.32734751 0.71467635
vt 0.40785146 0.61754022
vt 0.41361258 0.61131472
vt 0.41469001 0.63484770
vt 0.42312101 0.65799821
vt 0.42362494 0.64192662
vt 0.43583549 0.66332593
vt 0.45206747 0.67939107
vt 0.45309208 0.67936252
vt 0.46008632 0.50746865
vt 0.46040298 0.50678251
vt 0.48350757 0.51219308
vt 0.50362325 0.52760771
vt 0.52358344 0.58696168
vt 0.52379132 0.58714055
vt 0.52636158 0.53798071
vt 0.54145539 0.64515778
vt 0.54186932 0.64380187
vt 0.55289589 0.70410944
vt 0.55335905 0.70366450
vt 0.56427575 0.52069506
vt 0.70130052 0.41190030
vt 0.71017431 0.42443400
vt 0.71883681 0.39013217
vt 0.72696845 0.39268167
vt 0.76838323 0.41706783
vt 0.76976719 0.41662625
vt 0.82296055 0.51713307
vt 0.82313644 0.51820286
vt 0.82444091 0.58116916
vt 0.82553887 0.57823548
vn 0.96265833 0.27071931 -1.7975421e-16
vn 0.48132916 0.27071931 0.83368657
vn -0.48132916 0.27071931 0.83368657
vn -0.96265833 0.27071931 2.4511938e-16
vn -0.48132916 0.27071931 -0.83368657
vn 0.48132916 0.27071931 -0.83368657
vn 0.86602540 -0.50000000 -1.6653345e-16
vn 0.43301270 -0.50000000 0.75000000
vn -0.43301270 -0.50000000 0.75000000
vn -0.86602540 -0.50000000 2.7755576e-16
vn -0.43301270 -0.50000000 -0.75000000
vn 0.43301270 -0.50000000 -0.75000000
vn 0.48132916 0.27071931 0.83368657
vn 0.96265833 0.27071931 -2.1243680e-16
vn 0.48132916 0.27071931 -0.83368657
vn -0.48132916 0.27071931 -0.83368657
vn -0.96265833 0.27071931 2.2877809e-16
vn -0.48132916 0.27071931 0.83368657
vn 0.32732684 0.75592895 0.56694671
vn 0.65465367 0.75592895 -1.6784994e-16
vn 0.32732684 0.75592895 -0.56694671
vn -0.32732684 0.75592895 -0.56694671
vn -0.65465367 0.75592895 1.8883119e-16
vn -0.32732684 0.75592895 0.56694671
vn 0.35956939 0.69486648 0.62279245
vn 0.71913878 0.69486648 -1.6390336e-16
vn 0.35956939 0.69486648 -0.62279245
vn -0.35956939 0.69486648 -0.62279245
vn -0.71913878 0.69486648 1.6390336e-16
vn -0.35956939 0.69486648 0.62279245
vn 0.46743692 0.35498012 0.80962450
vn 0.93487385 0.35498012 -9.1316947e-17
vn 0.46743692 0.35498012 -0.80962450
vn -0.46743692 0.35498012 -0.80962450
vn -0.93487385 0.35498012 3.3482881e-16
vn -0.46743692 0.35498012 0.80962450
g cylinder1_cylinder1_auv
usemtl cylinder1_auv
s 1
f 1/60/1 7/73/7 12/75/12 6/64/6
f 1/59/1 14/52/14 13/53/13 2/63/2
f 2/63/2 8/76/8 7/74/7 1/59/1
f 2/63/2 13/53/13 18/54/18 3/66/3
f 3/66/3 9/77/9 8/76/8 2/63/2
f 3/66/3 18/54/18 17/57/17 4/68/4
f 4/68/4 10/79/10 9/77/9 3/66/3
f 4/69/4 17/58/17 16/56/16 5/67/5
f 5/67/5 11/78/11 10/80/10 4/69/4
f 5/67/5 16/56/16 15/55/15 6/64/6
f 6/64/6 12/75/12 11/78/11 5/67/5
f 6/64/6 15/55/15 14/51/14 1/60/1
f 8/61/8 9/71/9 10/72/10 11/70/11 12/65/12 7/62/7
f 13/53/13 19/26/19 24/31/24 18/54/18
f 14/52/14 20/21/20 19/26/19 13/53/13
f 15/55/15 21/28/21 20/24/20 14/51/14
f 16/56/16 22/38/22 21/28/21 15/55/15
f 17/58/17 23/40/23 22/38/22 16/56/16
f 18/54/18 24/31/24 23/39/23 17/57/17
f 19/47/19 25/45/25 30/43/30 24/41/24
f 20/50/20 26/49/26 25/45/25 19/47/19
f 21/48/21 27/46/27 26/49/26 20/50/20
f 22/42/22 28/44/28 27/46/27 21/48/21
f 23/29/23 29/37/29 28/44/28 22/42/22
f 24/41/24 30/43/30 29/37/29 23/29/23
f 25/5/25 31/22/31 36/32/36 30/10/30
f 26/6/26 32/23/32 31/30/31 25/9/25
f 27/1/27 33/16/33 32/36/32 26/14/26
f 28/2/28 34/19/34 33/33/33 27/12/27
f 29/3/29 35/18/35 34/35/34 28/13/28
f 30/4/30 36/20/36 35/34/35 29/11/29
f 32/27/32 33/17/33 34/8/34 35/7/35 36/15/36 31/25/31
