# Exported from Wings 3D 1.4
mtllib MFC.mtl
o cube1
#26 vertices, 22 faces
v -1.00000000 -1.00000000 0.84400000
v -1.00000000 1.55910400 0.84400000
v 1.00000000 1.55910400 0.84400000
v 1.00000000 -1.00000000 0.84400000
v -1.00000000 -1.00000000 -0.84400000
v -1.00000000 1.55910400 -0.84400000
v 1.00000000 1.55910400 -0.84400000
v 1.00000000 -1.00000000 -0.84400000
v 0.0000000e+0 1.55910400 -0.84400000
v 0.0000000e+0 1.55910400 0.84400000
v 0.64749200 1.55910400 0.20826000
v 0.64749200 1.55910400 -0.20826000
v 0.35250800 1.55910400 -0.20826000
v 0.35250800 1.55910400 0.20826000
v -0.64749200 1.55910400 0.20826000
v -0.35250800 1.55910400 0.20826000
v -0.35250800 1.55910400 -0.20826000
v -0.64749200 1.55910400 -0.20826000
v -0.64749200 2.02114853 0.20826000
v -0.35250800 2.02114853 0.20826000
v -0.35250800 2.02114853 -0.20826000
v -0.64749200 2.02114853 -0.20826000
v 0.64749200 2.02114853 0.20826000
v 0.64749200 2.02114853 -0.20826000
v 0.35250800 2.02114853 -0.20826000
v 0.35250800 2.02114853 0.20826000
vt 4.9557826e-2 8.1156160e-2
vt 4.9930169e-2 0.23826808
vt 7.0772343e-2 0.19455514
vt 9.5156884e-2 0.21724639
vt 9.9619185e-2 0.20590076
vt 0.11169550 0.15057818
vt 0.11283623 8.7605558e-2
vt 0.11283623 8.7605558e-2
vt 0.11615780 0.13923255
vt 0.13608004 0.17326944
vt 0.13722077 0.11029682
vt 0.13722077 0.11029682
vt 0.13850727 0.12176565
vt 0.14296957 0.11042002
vt 0.15375939 4.3628604e-2
vt 0.15375939 4.3628604e-2
vt 0.15762612 0.12928520
vt 0.15762612 0.12928520
vt 0.16289181 0.14445691
vt 0.16492688 0.18461507
vt 0.17814393 6.6319862e-2
vt 0.17814393 6.6319862e-2
vt 0.17943043 7.7788695e-2
vt 0.18201066 0.15197646
vt 0.18201066 0.15197646
vt 0.19173865 0.15580253
vt 0.19854928 8.5308249e-2
vt 0.19854928 8.5308249e-2
vt 0.20381497 0.10047995
vt 0.20827727 8.9134324e-2
vt 0.22293382 0.10799951
vt 0.22293382 0.10799951
vt 0.24293214 0.16975700
vt 0.25075134 1.4134447e-2
vt 0.32086739 0.45190362
vt 0.34767608 0.15041193
vt 0.42928335 0.45302065
vt 0.52652902 8.8230674e-2
vt 0.53472056 0.44185036
vt 0.58661574 0.42991811
vt 0.61099538 9.8804948e-2
vt 0.66790251 0.42938811
vt 0.69948416 0.50201491
vt 0.69970040 0.49168300
vt 0.70000573 0.47709424
vt 0.70022196 0.46676232
vt 0.70052729 0.45217357
vt 0.70207152 0.45231360
vt 0.70207152 0.50055159
vt 0.73623420 0.45231360
vt 0.73623420 0.50055159
vt 0.73680277 0.50216179
vt 0.73701901 0.49182987
vt 0.73732434 0.47724112
vt 0.73754058 0.46690920
vt 0.73784591 0.45232045
vt 0.80058702 0.45191963
vt 0.80058702 0.50210077
vt 0.80148677 0.50343411
vt 0.80154581 0.48738124
vt 0.80158763 0.47601241
vt 0.80164668 0.45995954
vt 0.80168850 0.44859072
vt 0.82785943 3.9103551e-2
vt 0.83018061 3.9928618e-2
vt 0.83286404 3.8641774e-2
vt 0.83901575 0.50346519
vt 0.83907479 0.48741232
vt 0.83911661 0.47604349
vt 0.83917566 0.45999062
vt 0.83921747 0.44862179
vt 0.83927875 0.45175369
vt 0.84010846 0.50193483
vt 0.85048522 0.42451758
vt 0.85439275 0.42382319
vt 0.85691179 0.42289521
vt 0.90602168 0.14994920
vt 0.90827572 0.15061119
vt 0.92642638 0.44343291
vt 0.93027040 0.44223993
vn -0.57735027 -0.57735027 0.57735027
vn -0.40824829 0.81649658 0.40824829
vn 0.40824829 0.81649658 0.40824829
vn 0.57735027 -0.57735027 0.57735027
vn -0.57735027 -0.57735027 -0.57735027
vn -0.40824829 0.81649658 -0.40824829
vn 0.40824829 0.81649658 -0.40824829
vn 0.57735027 -0.57735027 -0.57735027
vn 0.0000000e+0 0.94868330 -0.31622777
vn 0.0000000e+0 0.94868330 0.31622777
vn 0.40824829 0.81649658 0.40824829
vn 0.40824829 0.81649658 -0.40824829
vn -0.40824829 0.81649658 -0.40824829
vn -0.40824829 0.81649658 0.40824829
vn -0.40824829 0.81649658 0.40824829
vn 0.40824829 0.81649658 0.40824829
vn 0.40824829 0.81649658 -0.40824829
vn -0.40824829 0.81649658 -0.40824829
vn -0.57735027 0.57735027 0.57735027
vn 0.57735027 0.57735027 0.57735027
vn 0.57735027 0.57735027 -0.57735027
vn -0.57735027 0.57735027 -0.57735027
vn 0.57735027 0.57735027 0.57735027
vn 0.57735027 0.57735027 -0.57735027
vn -0.57735027 0.57735027 -0.57735027
vn -0.57735027 0.57735027 0.57735027
g cube1_cube1_auv
usemtl cube1_auv
s 1
f 1/41/1 4/64/4 3/74/3 10/42/10 2/40/2
f 1/34/1 5/33/5 8/2/8 4/1/4
f 2/80/2 6/76/6 5/66/5 1/78/1
f 2/23/2 15/19/15 18/10/18 6/3/6
f 3/31/3 11/18/11 14/12/14 10/16/10
f 4/65/4 8/77/8 7/79/7 3/75/3
f 6/39/6 9/37/9 7/35/7 8/36/8 5/38/5
f 6/7/6 18/21/18 17/28/17 9/25/9
f 7/4/7 12/6/12 11/13/11 3/29/3
f 9/8/9 13/22/13 12/27/12 7/24/7
f 10/32/10 16/17/16 15/11/15 2/15/2
f 11/70/11 23/62/23 26/63/26 14/71/14
f 12/69/12 24/61/24 23/62/23 11/70/11
f 13/20/13 9/5/9 17/9/17 16/14/16 10/30/10 14/26/14
f 13/68/13 25/60/25 24/61/24 12/69/12
f 14/67/14 26/59/26 25/60/25 13/68/13
f 15/47/15 19/56/19 22/55/22 18/46/18
f 16/44/16 20/53/20 19/52/19 15/43/15
f 17/45/17 21/54/21 20/53/20 16/44/16
f 18/46/18 22/55/22 21/54/21 17/45/17
f 20/50/20 21/51/21 22/49/22 19/48/19
f 24/73/24 25/58/25 26/57/26 23/72/23
