# 3ds Max Wavefront OBJ Exporter v0.97b - (c)2007 guruware
# File Created: 15.10.2011 12:54:25

mtllib dice_v2.mtl

#
# object Box02
#

v  -4.8251 1.0086 -4.1036
v  -4.5745 6.2829 -2.6561
v  0.7365 5.7019 -1.4586
v  0.4859 0.4277 -2.9061
v  -6.1322 -0.3406 1.0390
v  -0.8213 -0.9216 2.2365
v  -0.5707 4.3526 3.6840
v  -5.8817 4.9336 2.4865
v  1.3368 5.4620 3.7314
v  1.1414 -0.0066 3.5532
v  6.6114 -0.1973 3.4091
v  6.8067 5.2713 3.5873
v  1.1991 5.6452 -1.7388
v  6.6691 5.4545 -1.8829
v  6.4737 -0.0141 -2.0611
v  1.0037 0.1765 -1.9170
# 16 vertices

vn -0.4486 -0.3526 -0.8212
vn -0.3958 0.7597 -0.5159
vn 0.7243 0.6372 -0.2634
vn 0.6715 -0.4752 -0.5687
vn -0.7243 -0.6372 0.2634
vn 0.3958 -0.7597 0.5159
vn 0.4486 0.3526 0.8212
vn -0.6715 0.4752 0.5687
vn -0.5417 0.5775 0.6108
vn -0.5829 -0.5759 0.5732
vn 0.5707 -0.6161 0.5429
vn 0.6119 0.5373 0.5804
vn -0.5707 0.6161 -0.5429
vn 0.5829 0.5759 -0.5732
vn 0.5417 -0.5775 -0.6108
vn -0.6119 -0.5373 -0.5804
# 16 vertex normals

vt 0.3443 0.6483 0.0000
vt 0.3443 0.3369 0.0000
vt 0.6557 0.3369 0.0000
vt 0.6557 0.6483 0.0000
vt 0.0100 0.0100 0.0000
vt 0.3214 0.0100 0.0000
vt 0.3214 0.3214 0.0000
vt 0.0100 0.3214 0.0000
vt 0.3443 0.0100 0.0000
vt 0.6557 0.0100 0.0000
vt 0.6557 0.3214 0.0000
vt 0.3443 0.3214 0.0000
vt 0.9900 0.3214 0.0000
vt 0.6786 0.3214 0.0000
vt 0.6786 0.0100 0.0000
vt 0.9900 0.0100 0.0000
vt 0.0100 0.3443 0.0000
vt 0.3214 0.3443 0.0000
vt 0.3214 0.6557 0.0000
vt 0.0100 0.6557 0.0000
vt 0.3214 0.9900 0.0000
vt 0.0100 0.9900 0.0000
vt 0.0100 0.6786 0.0000
vt 0.3214 0.6786 0.0000
# 24 texture coords

g Box02
usemtl Material__71
s 1
f 1/1/1 2/2/2 3/3/3 4/4/4 
f 5/5/5 6/6/6 7/7/7 8/8/8 
f 8/9/8 7/10/7 3/11/3 2/12/2 
f 5/13/5 8/14/8 2/15/2 1/16/1 
f 6/17/6 5/18/5 1/19/1 4/20/4 
f 7/21/7 6/22/6 4/23/4 3/24/3 
f 9/1/9 10/2/10 11/3/11 12/4/12 
f 13/5/13 14/6/14 15/7/15 16/8/16 
f 16/9/16 15/10/15 11/11/11 10/12/10 
f 13/13/13 16/14/16 10/15/10 9/16/9 
f 14/17/14 13/18/13 9/19/9 12/20/12 
f 15/21/15 14/22/14 12/23/12 11/24/11 
# 12 polygons

