# 3ds Max Wavefront OBJ Exporter v0.97b - (c)2007 guruware
# File Created: 16.07.2011 15:26:13

mtllib kokoweefscrip.mtl

#
# object Plane
#

v  -9.7557 0.0493 -7.5718
v  10.1285 0.1164 -7.5201
v  10.0899 -0.0655 7.5593
v  -9.7943 -0.1326 7.5077
v  10.1276 0.3653 -7.5171
v  -9.7566 0.2982 -7.5688
v  10.0890 0.1835 7.5623
v  -9.7951 0.1163 7.5107
# 8 vertices

vn 0.0034 -0.9999 -0.0121
vn 0.0026 0.0121 -0.9999
vn 1.0000 0.0034 0.0026
vn -0.0026 -0.0121 0.9999
vn -1.0000 -0.0034 -0.0026
vn -0.0034 0.9999 0.0121
# 6 vertex normals

vt 0.0381 0.4285 0.0000
vt 0.2330 0.4323 0.0000
vt 0.2298 0.5957 0.0000
vt 0.0053 0.5737 0.0000
vt 0.9099 0.2133 0.0000
vt 0.9096 0.2199 0.0000
vt 0.4196 0.2330 0.0000
vt 0.4199 0.2264 0.0000
vt 0.4545 0.2606 0.0000
vt 0.4553 0.2541 0.0000
vt 0.8219 0.2607 0.0000
vt 0.8211 0.2672 0.0000
vt 0.9098 0.2541 0.0000
vt 0.9103 0.2607 0.0000
vt 0.4202 0.2659 0.0000
vt 0.4196 0.2593 0.0000
vt 0.8030 0.2411 0.0000
vt 0.8038 0.2476 0.0000
vt 0.4371 0.2535 0.0000
vt 0.4363 0.2470 0.0000
vt 0.0076 0.8821 0.0000
vt 0.0059 0.1391 0.0000
vt 1.0010 0.1368 0.0000
vt 1.0002 0.8823 0.0000
# 24 texture coords

g Plane
usemtl Material__27
s off
f 1/1/1 2/2/1 3/3/1 4/4/1 
f 5/5/2 2/6/2 1/7/2 6/8/2 
f 2/9/3 5/10/3 7/11/3 3/12/3 
f 8/13/4 4/14/4 3/15/4 7/16/4 
f 6/17/5 1/18/5 4/19/5 8/20/5 
f 6/21/6 8/22/6 7/23/6 5/24/6 
# 6 polygons

