# 3ds Max Wavefront OBJ Exporter v0.97b - (c)2007 guruware
# File Created: 22.05.2011 14:00:30

mtllib lavender.mtl

#
# object Box01
#

v  -13.4032 -4.7022 40.1897
v  -13.4032 -4.7022 -30.4746
v  26.9074 13.6599 -30.4746
v  26.9074 13.6599 40.1897
v  -15.9755 0.9449 40.1897
v  24.3351 19.3069 40.1897
v  24.3351 19.3069 -30.4746
v  -15.9755 0.9449 -30.4746
# 8 vertices

vn 0.4145 -0.9100 -0.0000
vn -0.4145 0.9100 -0.0000
vn 0.0000 0.0000 1.0000
vn 0.9100 0.4145 -0.0000
vn 0.0000 0.0000 -1.0000
vn -0.9100 -0.4145 -0.0000
# 6 vertex normals

vt 0.7866 0.0589 0.0000
vt 0.7910 0.9324 0.0000
vt 0.6295 0.9379 0.0000
vt 0.6250 0.0643 0.0000
vt 0.0070 0.0705 0.0000
vt 0.6208 0.0659 0.0000
vt 0.6239 0.9557 0.0000
vt 0.0096 0.9540 0.0000
vt 0.9583 0.0674 0.0000
vt 0.9461 0.9464 0.0000
vt 0.8087 0.9437 0.0000
vt 0.8209 0.0647 0.0000
vt 0.9547 0.0609 0.0000
vt 0.9520 0.9464 0.0000
vt 0.8076 0.9463 0.0000
vt 0.8104 0.0608 0.0000
vt 0.9599 0.0635 0.0000
vt 0.9590 0.9478 0.0000
vt 0.8061 0.9477 0.0000
vt 0.8070 0.0633 0.0000
vt 0.7922 0.0645 0.0000
vt 0.7922 0.9406 0.0000
vt 0.6274 0.9406 0.0000
vt 0.6275 0.0645 0.0000
# 24 texture coords

g Box01
usemtl Material__27
s 2
f 1/1/1 2/2/1 3/3/1 4/4/1 
s 4
f 5/5/2 6/6/2 7/7/2 8/8/2 
s 8
f 1/9/3 4/10/3 6/11/3 5/12/3 
s 16
f 4/13/4 3/14/4 7/15/4 6/16/4 
s 32
f 3/17/5 2/18/5 8/19/5 7/20/5 
s 64
f 2/21/6 1/22/6 5/23/6 8/24/6 
# 6 polygons

