# 3ds Max Wavefront OBJ Exporter v0.97b - (c)2007 guruware
# File Created: 07.11.2011 21:53:41

mtllib Minescrptex.mtl

#
# object Cylinder01
#

v  -0.1844 53.7578 0.0000
v  -19.6847 36.5034 -6.4430
v  -26.9171 55.1284 -1.7243
v  -18.4898 72.9506 4.0044
v  18.1210 34.5650 -4.0044
v  -1.0293 27.9857 -7.3874
v  19.3159 71.0122 6.4430
v  26.5483 52.3872 1.7243
v  0.6605 79.5299 7.3874
v  -27.2529 53.9220 2.5229
v  -18.8257 71.7442 8.2517
v  -20.0205 35.2969 -2.1957
v  -1.3651 26.7793 -3.1402
v  17.7852 33.3585 0.2429
v  26.2125 51.1807 5.9716
v  18.9801 69.8058 10.6903
v  0.3247 78.3234 11.6347
v  -0.5202 52.5513 4.2473
# 18 vertices

vn 0.0758 0.2725 -0.9592
vn -0.9087 0.4149 0.0460
vn -0.6824 0.7155 0.1493
vn -0.9328 -0.3205 -0.1648
vn -0.7270 -0.6433 -0.2402
vn -0.4105 -0.8681 -0.2790
vn 0.3523 -0.9072 -0.2298
vn 0.6824 -0.7155 -0.1493
vn 0.9087 -0.4149 -0.0460
vn 0.9328 0.3205 0.1648
vn 0.7270 0.6433 0.2402
vn 0.4105 0.8681 0.2790
vn -0.3523 0.9072 0.2298
vn -0.0758 -0.2725 0.9592
# 14 vertex normals

vt 0.5332 1.5434 0.0000
vt 0.7855 1.2954 0.0000
vt 0.9443 1.5734 0.0000
vt 0.8432 1.9062 0.0000
vt 0.0798 1.1465 0.0000
vt 0.4544 1.1399 0.0000
vt 0.2266 1.8215 0.0000
vt 0.0417 1.5171 0.0000
vt 0.5642 2.0010 0.0000
vt 0.7033 1.1417 0.0000
vt 0.7043 1.1574 0.0000
vt 0.6682 1.1329 0.0000
vt 0.7394 1.1662 0.0000
vt 0.6300 1.0770 0.0000
vt 0.6310 1.0927 0.0000
vt 0.5949 1.0682 0.0000
vt 0.6662 1.1015 0.0000
vt 0.6672 1.1172 0.0000
vt 0.7023 1.1260 0.0000
vt 0.5959 1.0839 0.0000
vt 0.5597 1.0594 0.0000
vt 0.6320 1.1084 0.0000
vt 0.7385 1.1505 0.0000
vt 0.7746 1.1750 0.0000
vt 0.5278 1.6818 0.0000
vt 0.2295 1.8269 0.0000
vt 0.0422 1.5247 0.0000
vt 0.0770 1.1471 0.0000
vt 0.4531 1.1383 0.0000
vt 0.7843 1.2942 0.0000
vt 0.9460 1.5775 0.0000
vt 0.8423 1.9050 0.0000
vt 0.5670 1.9932 0.0000
# 33 texture coords

g Cylinder01
usemtl Material__28
s 1
f 1/1/1 2/2/1 3/3/1 4/4/1 
f 1/1/1 5/5/1 6/6/1 2/2/1 
f 1/1/1 7/7/1 8/8/1 5/5/1 
f 1/1/1 4/4/1 9/9/1 7/7/1 
s 8
f 4/10/2 10/11/2 11/12/3 
f 4/10/2 3/13/2 10/11/2 
f 3/14/4 12/15/5 10/16/4 
f 3/14/4 2/17/4 12/15/5 
f 2/17/6 13/18/6 12/15/5 
f 2/17/6 6/19/6 13/18/6 
f 6/16/7 14/20/8 13/21/7 
f 6/16/7 5/15/7 14/20/8 
f 5/15/9 15/22/9 14/20/8 
f 5/15/9 8/18/9 15/22/9 
f 8/19/10 16/10/11 15/18/10 
f 8/19/10 7/23/10 16/10/11 
f 7/23/12 17/13/12 16/10/11 
f 7/23/12 9/24/12 17/13/12 
f 9/18/13 11/12/3 17/22/13 
f 9/18/13 4/10/13 11/12/3 
s 1
f 18/25/14 11/26/14 10/27/14 
f 18/25/14 10/27/14 12/28/14 
f 18/25/14 12/28/14 13/29/14 
f 18/25/14 13/29/14 14/30/14 
f 18/25/14 14/30/14 15/31/14 
f 18/25/14 15/31/14 16/32/14 
f 18/25/14 16/32/14 17/33/14 
f 18/25/14 17/33/14 11/26/14 
# 4 polygons - 24 triangles

