# 3ds Max Wavefront OBJ Exporter v0.97b - (c)2007 guruware
# File Created: 26.05.2011 23:14:50

mtllib buffout.mtl

#
# object Plane01
#

v  6.4160 -2.5404 2.0344
v  8.1245 -1.8022 0.6780
v  18.2575 -0.1746 0.6780
v  15.3451 -0.2904 18.2990
v  8.3233 -1.7943 18.2990
v  6.4160 -2.5404 16.3457
v  22.5304 -0.0047 0.6780
v  25.6755 -0.8285 0.6780
v  27.3989 -0.7599 18.2990
v  18.9478 -0.1472 18.2990
v  37.2371 -0.3687 0.6780
v  39.2134 -1.0529 2.5479
v  39.2134 -1.0529 16.5310
v  36.4858 -0.3986 18.2990
v  6.4192 -2.6213 2.0344
v  8.1278 -1.8831 0.6780
v  18.2608 -0.2555 0.6780
v  15.3484 -0.3713 18.2990
v  8.3265 -1.8752 18.2990
v  6.4192 -2.6213 16.3457
v  22.5336 -0.0856 0.6780
v  25.6787 -0.9094 0.6780
v  27.4021 -0.8408 18.2990
v  18.9511 -0.2281 18.2990
v  37.2403 -0.4496 0.6780
v  39.2166 -1.1338 2.5479
v  39.2166 -1.1338 16.5310
v  36.4890 -0.4795 18.2990
# 28 vertices

vn 0.2004 -0.9777 -0.0625
vn 0.1503 -0.9355 -0.3199
vn 0.1099 -0.9939 -0.0011
vn 0.1315 -0.9912 0.0126
vn 0.2546 -0.9669 0.0145
vn 0.3643 -0.9313 -0.0000
vn -0.0993 -0.9950 0.0085
vn -0.1170 -0.9930 0.0153
vn -0.0436 -0.9990 0.0012
vn -0.0092 -0.9999 -0.0099
vn -0.0883 -0.9960 -0.0105
vn -0.3272 -0.9450 -0.0000
vn -0.0351 -0.9978 0.0554
vn 0.0365 -0.9176 0.3959
# 14 vertex normals

vt 0.4799 0.0126 0.0000
vt 0.5037 0.0633 0.0000
vt 0.5044 0.3266 0.0000
vt 0.0354 0.2415 0.0000
vt 0.0361 0.0583 0.0000
vt 0.1015 0.0112 0.0000
vt 0.5047 0.4373 0.0000
vt 0.5040 0.5178 0.0000
vt 0.0366 0.5533 0.0000
vt 0.0350 0.3353 0.0000
vt 0.5034 0.8174 0.0000
vt 0.4504 0.8633 0.0000
vt 0.0802 0.8635 0.0000
vt 0.0353 0.7887 0.0000
vt 0.9554 0.0129 0.0000
vt 0.9896 0.0612 0.0000
vt 0.9904 0.3316 0.0000
vt 0.5264 0.2548 0.0000
vt 0.5268 0.0653 0.0000
vt 0.5785 0.0120 0.0000
vt 0.9903 0.4427 0.0000
vt 0.9904 0.5192 0.0000
vt 0.5263 0.5628 0.0000
vt 0.5263 0.3485 0.0000
vt 0.9902 0.8198 0.0000
vt 0.9410 0.8667 0.0000
vt 0.5728 0.8658 0.0000
vt 0.5261 0.7991 0.0000
# 28 texture coords

g Plane01
usemtl wire_177026088
s 1
f 1/1/1 2/2/2 3/3/3 4/4/4 
f 1/1/1 4/4/4 5/5/5 6/6/6 
f 7/7/7 8/8/8 9/9/9 10/10/10 
f 10/10/10 4/4/4 3/3/3 7/7/7 
f 11/11/11 12/12/12 13/13/13 9/9/9 
f 13/13/13 14/14/14 9/9/9 
f 8/8/8 11/11/11 9/9/9 
f 15/15/1 16/16/2 17/17/3 18/18/4 
f 15/15/1 18/18/4 19/19/5 20/20/6 
f 21/21/7 22/22/8 23/23/9 24/24/10 
f 24/24/10 18/18/4 17/17/3 21/21/7 
f 25/25/11 26/26/12 27/27/13 23/23/9 
f 27/27/13 28/28/14 23/23/9 
f 22/22/8 25/25/11 23/23/9 
# 10 polygons - 4 triangles

