# 3ds Max Wavefront OBJ Exporter v0.97b - (c)2007 guruware
# File Created: 26.05.2011 23:12:40

mtllib biomedgel_v1.mtl

#
# object Cylinder02
#

v  105.5784 105.1150 35.5196
v  124.0673 108.4453 35.1655
v  111.6778 176.6732 29.9286
v  93.1889 173.3430 30.2827
v  137.0727 109.7710 21.6689
v  124.6832 177.9989 16.4320
v  136.9761 108.3156 2.9358
v  124.5866 176.5435 -2.3010
v  123.8342 104.9316 -10.0601
v  111.4447 173.1595 -15.2970
v  105.3453 101.6014 -9.7061
v  92.9558 169.8293 -14.9429
v  92.3399 100.2757 3.7906
v  79.9504 168.5036 -1.4463
v  92.4365 101.7311 22.5236
v  80.0470 169.9590 17.2867
# 16 vertices

vn -0.3718 0.0037 0.9283
vn 0.3813 0.1394 0.9139
vn 0.9111 0.1934 0.3641
vn 0.9071 0.1341 -0.3989
vn 0.3718 -0.0037 -0.9283
vn -0.3813 -0.1394 -0.9139
vn -0.9111 -0.1934 -0.3641
vn -0.9071 -0.1341 0.3989
vn 0.1782 -0.9811 0.0753
vn -0.1782 0.9811 -0.0753
# 10 vertex normals

vt 0.2078 0.0091 0.0000
vt 0.3820 0.0091 0.0000
vt 0.3820 0.6980 0.0000
vt 0.2078 0.6980 0.0000
vt 0.3832 0.0104 0.0000
vt 0.5575 0.0104 0.0000
vt 0.5575 0.6993 0.0000
vt 0.3832 0.6993 0.0000
vt 0.7317 0.0104 0.0000
vt 0.7317 0.6993 0.0000
vt 0.0341 0.0093 0.0000
vt 0.2083 0.0093 0.0000
vt 0.2083 0.6982 0.0000
vt 0.0341 0.6982 0.0000
vt 0.3826 0.0093 0.0000
vt 0.3826 0.6982 0.0000
vt 0.0331 0.0096 0.0000
vt 0.2073 0.0096 0.0000
vt 0.2073 0.6985 0.0000
vt 0.0331 0.6985 0.0000
vt 0.3816 0.0096 0.0000
vt 0.3816 0.6985 0.0000
vt 0.0335 0.0091 0.0000
vt 0.0335 0.6980 0.0000
vt 0.6515 0.8981 0.0000
vt 0.6525 0.7886 0.0000
vt 0.7284 0.7120 0.0000
vt 0.8321 0.9773 0.0000
vt 0.8346 0.7131 0.0000
vt 0.9090 0.7912 0.0000
vt 0.9080 0.9006 0.0000
vt 0.7259 0.9762 0.0000
vt 0.2893 0.9788 0.0000
vt 0.2121 0.9008 0.0000
vt 0.2132 0.7915 0.0000
vt 0.4785 0.9034 0.0000
vt 0.2920 0.7150 0.0000
vt 0.4023 0.7161 0.0000
vt 0.4796 0.7941 0.0000
vt 0.3997 0.9799 0.0000
# 40 texture coords

g Cylinder02
usemtl 14___Default
s 8
f 1/1/1 2/2/2 3/3/2 4/4/1 
f 2/5/2 5/6/3 6/7/3 3/8/2 
f 5/6/3 7/9/4 8/10/4 6/7/3 
f 7/11/4 9/12/5 10/13/5 8/14/4 
f 9/12/5 11/15/6 12/16/6 10/13/5 
f 11/17/6 13/18/7 14/19/7 12/20/6 
f 13/18/7 15/21/8 16/22/8 14/19/7 
f 15/23/8 1/1/1 4/4/1 16/24/8 
s 1
f 13/25/9 11/26/9 9/27/9 1/28/9 
f 9/27/9 7/29/9 5/30/9 1/28/9 
f 5/30/9 2/31/9 1/28/9 
f 15/32/9 13/25/9 1/28/9 
f 3/33/10 6/34/10 8/35/10 16/36/10 
f 8/35/10 10/37/10 12/38/10 16/36/10 
f 12/38/10 14/39/10 16/36/10 
f 4/40/10 3/33/10 16/36/10 
# 12 polygons - 4 triangles

