# 3ds Max Wavefront OBJ Exporter v0.97b - (c)2007 guruware
# File Created: 20.06.2011 15:14:56

mtllib emptyjet.mtl

#
# object Cylinder01
#

v  -20.1897 -0.4450 9.5906
v  -21.7855 2.1296 2.5988
v  -15.7183 2.1296 3.9836
v  -13.0181 1.9573 9.5906
v  -26.6510 2.1296 12.7022
v  -26.6510 2.1296 6.4789
v  -15.7183 2.1296 15.1975
v  -21.7855 2.1296 16.5824
v  -13.7283 8.0982 1.4882
v  -9.8264 8.0982 9.5906
v  -22.4957 8.0982 -0.5129
v  -29.5267 8.0982 5.0941
v  -29.5267 8.0982 14.0870
v  -22.4957 8.0982 19.6940
v  -13.7283 8.0982 17.6929
v  -13.7283 22.4396 1.4882
v  -9.8264 22.4396 9.5906
v  -22.4957 22.4396 -0.5129
v  -29.5267 22.4396 5.0941
v  -29.5267 22.4396 14.0870
v  -22.4957 22.4396 19.6940
v  -13.7283 22.4396 17.6929
v  -13.7283 36.8745 1.4882
v  -9.8264 36.8745 9.5906
v  -22.4957 36.8745 -0.5129
v  -29.5267 36.8745 5.0941
v  -29.5267 36.8745 14.0870
v  -22.4957 36.8745 19.6940
v  -13.7283 36.8745 17.6929
v  -16.8308 48.8468 5.1240
v  -14.8025 48.8468 9.5906
v  -21.3884 48.8468 4.0208
v  -25.0434 48.8468 7.1118
v  -25.0434 48.8468 12.0694
v  -21.3884 48.8468 15.1604
v  -16.8308 48.8468 14.0572
v  -20.1606 53.8511 9.1727
v  -29.9686 55.7242 9.4638
v  -25.0726 64.2045 9.4638
v  -25.0726 59.9644 2.1197
v  -25.0726 51.4841 2.1197
v  -23.2059 48.8689 9.7693
v  -25.0726 51.4841 16.8079
v  -25.0726 59.9643 16.8079
v  -15.2804 64.2045 9.4638
v  -15.2804 59.9644 2.1197
v  -15.2804 51.4841 2.1197
v  -17.1929 48.8689 9.7693
v  -15.2804 51.4841 16.8079
v  -15.2804 59.9643 16.8079
v  -10.3844 55.7242 9.4638
v  -20.5514 55.2454 1.2208
v  -24.5138 54.3428 1.2653
v  -23.7275 57.7807 1.2608
v  -20.5496 59.3095 1.2261
v  -18.7899 51.5830 1.1957
v  -22.3163 51.5846 1.2364
v  -17.3730 57.7779 1.1874
v  -16.5899 54.3393 1.1739
v  -24.4125 58.5109 24.4624
v  -20.2815 60.4982 24.4173
v  -25.4347 54.0419 24.4683
v  -22.5781 50.4564 24.4307
v  -17.9940 50.4543 24.3778
v  -15.1343 54.0373 24.3495
v  -16.1523 58.5072 24.3671
v  -20.2839 55.2152 24.4104
# 67 vertices

vn -0.0060 -1.0000 0.0000
vn -0.0752 -0.9412 -0.3294
vn 0.1991 -0.9411 -0.2734
vn 0.3176 -0.9482 0.0000
vn -0.3044 -0.9412 0.1466
vn -0.3044 -0.9412 -0.1466
vn 0.1991 -0.9411 0.2734
vn -0.0752 -0.9412 0.3294
vn 0.8857 -0.4642 0.0041
vn 0.5473 -0.4716 -0.6915
vn 0.6063 -0.2273 -0.7621
vn 0.9744 -0.2248 0.0011
vn -0.1962 -0.4716 -0.8597
vn -0.2166 -0.2286 -0.9491
vn -0.7945 -0.4716 -0.3826
vn -0.8771 -0.2286 -0.4224
vn -0.7945 -0.4716 0.3826
vn -0.8771 -0.2286 0.4224
vn -0.1962 -0.4716 0.8597
vn -0.2166 -0.2286 0.9491
vn 0.5517 -0.4685 0.6900
vn 0.6070 -0.2286 0.7611
vn 0.6235 0.0000 -0.7818
vn 1.0000 -0.0000 0.0000
vn -0.2225 0.0000 -0.9749
vn -0.9010 0.0000 -0.4339
vn -0.9010 0.0000 0.4339
vn -0.2225 0.0000 0.9749
vn 0.6235 -0.0000 0.7818
vn 0.6149 0.1789 -0.7680
vn 0.9828 0.1846 0.0010
vn -0.2208 0.1780 -0.9589
vn -0.8860 0.1841 -0.4255
vn -0.8869 0.1823 0.4245
vn -0.2190 0.1769 0.9595
vn 0.6150 0.1812 0.7674
vn 0.5857 0.3753 -0.7184
vn 0.9253 0.3792 0.0048
vn -0.2161 0.3659 -0.9052
vn -0.8382 0.3739 -0.3971
vn -0.8386 0.3798 0.3905
vn -0.2071 0.3692 0.9060
vn 0.5891 0.3680 0.7194
vn 0.0029 0.9992 -0.0391
vn 0.4049 0.7623 0.5049
vn 0.6822 0.7311 0.0080
vn 0.4398 0.7233 -0.5323
vn -0.1583 0.7269 -0.6683
vn -0.6244 0.7269 -0.2857
vn -0.5966 0.7490 0.2883
vn -0.1427 0.7737 0.6173
vn -0.9969 -0.0789 -0.0003
vn -0.4413 0.8973 0.0000
vn -0.4413 0.4487 -0.7771
vn -0.4526 -0.5393 -0.7101
vn -0.3120 -0.9500 0.0108
vn -0.4555 -0.5324 0.7135
vn -0.4413 0.4487 0.7771
vn 0.4413 0.8973 0.0000
vn 0.4413 0.4487 -0.7771
vn 0.4530 -0.5398 -0.7095
vn 0.3096 -0.9508 0.0108
vn 0.4560 -0.5330 0.7127
vn 0.4413 0.4487 0.7771
vn 0.9968 -0.0799 -0.0003
vn -0.0115 0.0013 -0.9999
vn -0.0001 0.9987 -0.0512
vn -0.7810 0.6230 -0.0427
vn -0.9742 -0.2217 -0.0415
vn -0.4343 -0.8995 -0.0487
vn 0.4322 -0.8998 -0.0586
vn 0.9728 -0.2226 -0.0640
vn 0.7804 0.6224 -0.0607
vn 0.0115 -0.0013 0.9999
# 74 vertex normals

vt 0.5947 0.0516 0.0000
vt 0.5443 0.0615 0.0000
vt 0.5542 0.0239 0.0000
vt 0.5947 0.0071 0.0000
vt 0.6172 0.0917 0.0000
vt 0.5723 0.0917 0.0000
vt 0.6352 0.0239 0.0000
vt 0.6452 0.0615 0.0000
vt -0.5283 -0.9659 0.0000
vt -0.4678 -0.9636 0.0000
vt -0.4409 -0.8881 0.0000
vt -0.5283 -0.8882 0.0000
vt 0.4157 0.0690 0.0000
vt 0.4835 0.0690 0.0000
vt 0.4930 0.1418 0.0000
vt 0.3935 0.1418 0.0000
vt 0.4863 0.0714 0.0000
vt 0.5558 0.0724 0.0000
vt 0.5703 0.1535 0.0000
vt 0.4698 0.1520 0.0000
vt -0.5779 0.0918 0.0000
vt -0.4536 0.0868 0.0000
vt -0.4257 0.1540 0.0000
vt -0.6053 0.1612 0.0000
vt -0.5984 1.0620 0.0000
vt -0.5193 1.0626 0.0000
vt -0.5023 1.1425 0.0000
vt -0.6166 1.1417 0.0000
vt -0.5185 1.0623 0.0000
vt -0.4413 1.0628 0.0000
vt -0.4166 1.1349 0.0000
vt -0.5280 1.1342 0.0000
vt -0.5888 -0.9638 0.0000
vt -0.6158 -0.8883 0.0000
vt -0.4411 -0.7066 0.0000
vt -0.5285 -0.7067 0.0000
vt 0.4930 0.3168 0.0000
vt 0.3934 0.3168 0.0000
vt 0.5715 0.1418 0.0000
vt 0.5715 0.3169 0.0000
vt -0.4250 0.3181 0.0000
vt -0.6046 0.3253 0.0000
vt -0.6174 1.1336 0.0000
vt -0.5292 1.3069 0.0000
vt -0.6186 1.3063 0.0000
vt -0.4178 1.3076 0.0000
vt -0.6159 -0.7068 0.0000
vt -0.4412 -0.5240 0.0000
vt -0.5286 -0.5241 0.0000
vt 0.4914 0.4930 0.0000
vt 0.3934 0.4930 0.0000
vt 0.5699 0.4930 0.0000
vt -0.4243 0.4832 0.0000
vt -0.6039 0.4904 0.0000
vt -0.5305 1.4808 0.0000
vt -0.6198 1.4802 0.0000
vt -0.4190 1.4815 0.0000
vt -0.6161 -0.5242 0.0000
vt -0.4806 -0.3725 0.0000
vt -0.5288 -0.3726 0.0000
vt 0.4790 0.6391 0.0000
vt 0.4281 0.6391 0.0000
vt 0.5198 0.6392 0.0000
vt -0.4641 0.6218 0.0000
vt -0.5630 0.6258 0.0000
vt -0.5174 1.6251 0.0000
vt -0.5639 1.6248 0.0000
vt -0.4595 1.6254 0.0000
vt -0.5770 -0.3726 0.0000
vt 0.3628 0.0575 0.0000
vt 0.3221 0.0273 0.0000
vt 0.3628 0.0090 0.0000
vt 0.4035 0.0273 0.0000
vt 0.4136 0.0683 0.0000
vt 0.3854 0.1012 0.0000
vt 0.3402 0.1012 0.0000
vt 0.3121 0.0683 0.0000
vt 0.4009 0.8061 0.0000
vt 0.4714 0.8061 0.0000
vt 0.4361 0.8671 0.0000
vt 0.3657 0.8671 0.0000
vt 0.3304 0.8061 0.0000
vt 0.3657 0.7450 0.0000
vt 0.4361 0.7450 0.0000
vt 0.4654 0.8964 0.0000
vt 0.4654 0.7107 0.0000
vt 0.6105 0.7107 0.0000
vt 0.6105 0.8964 0.0000
vt 0.3231 0.7078 0.0000
vt 0.4682 0.7078 0.0000
vt 0.4682 0.8970 0.0000
vt 0.3231 0.8970 0.0000
vt 0.3187 0.7698 0.0000
vt 0.3187 0.7159 0.0000
vt 0.4609 0.7159 0.0000
vt 0.4609 0.7698 0.0000
vt 0.6031 0.7159 0.0000
vt 0.6031 0.7698 0.0000
vt 0.6145 0.8961 0.0000
vt 0.4738 0.8961 0.0000
vt 0.4738 0.7097 0.0000
vt 0.6145 0.7097 0.0000
vt 0.3203 0.8964 0.0000
vt 0.3203 0.7107 0.0000
vt 0.5458 0.8075 0.0000
vt 0.5810 0.7465 0.0000
vt 0.6162 0.8075 0.0000
vt 0.5105 0.7465 0.0000
vt 0.4753 0.8075 0.0000
vt 0.5105 0.8686 0.0000
vt 0.5810 0.8686 0.0000
vt 0.4003 0.8012 0.0000
vt 0.3333 0.8149 0.0000
vt 0.3466 0.7625 0.0000
vt 0.4003 0.7392 0.0000
vt 0.4301 0.8570 0.0000
vt 0.3705 0.8570 0.0000
vt 0.4540 0.7625 0.0000
vt 0.4673 0.8150 0.0000
vt 0.5130 0.9301 0.0000
vt 0.5128 0.9565 0.0000
vt 0.3200 0.9543 0.0000
vt 0.3203 0.9279 0.0000
vt 0.5072 0.9073 0.0000
vt 0.5072 0.9359 0.0000
vt 0.3144 0.9361 0.0000
vt 0.3145 0.9076 0.0000
vt 0.5074 0.9588 0.0000
vt 0.3147 0.9591 0.0000
vt 0.3241 0.9519 0.0000
vt 0.3238 0.9226 0.0000
vt 0.5165 0.9203 0.0000
vt 0.5168 0.9496 0.0000
vt 0.4540 0.9573 0.0000
vt 0.4539 0.9344 0.0000
vt 0.5998 0.9347 0.0000
vt 0.6000 0.9576 0.0000
vt 0.4539 0.9059 0.0000
vt 0.5999 0.9061 0.0000
vt 0.5134 0.9037 0.0000
vt 0.3206 0.9015 0.0000
vt 0.2424 0.8190 0.0000
vt 0.1980 0.7747 0.0000
vt 0.2424 0.7479 0.0000
vt 0.2868 0.7746 0.0000
vt 0.2978 0.8348 0.0000
vt 0.2671 0.8831 0.0000
vt 0.2178 0.8831 0.0000
vt 0.1870 0.8348 0.0000
# 149 texture coords

g Cylinder01
usemtl Material__3
s 1
f 1/1/1 2/2/2 3/3/3 4/4/4 
f 1/1/1 5/5/5 6/6/6 2/2/2 
f 1/1/1 7/7/7 8/8/8 5/5/5 
f 1/1/1 4/4/4 7/7/7 
s 8
f 4/9/9 3/10/10 9/11/11 10/12/12 
f 3/13/10 2/14/13 11/15/14 9/16/11 
f 2/17/13 6/18/15 12/19/16 11/20/14 
f 6/21/15 5/22/17 13/23/18 12/24/16 
f 5/25/17 8/26/19 14/27/20 13/28/18 
f 8/29/19 7/30/21 15/31/22 14/32/20 
f 7/33/21 4/9/9 10/12/12 15/34/22 
f 10/12/12 9/11/11 16/35/23 17/36/24 
f 9/16/11 11/15/14 18/37/25 16/38/23 
f 11/15/14 12/39/16 19/40/26 18/37/25 
f 12/24/16 13/23/18 20/41/27 19/42/26 
f 13/43/18 14/32/20 21/44/28 20/45/27 
f 14/32/20 15/31/22 22/46/29 21/44/28 
f 15/34/22 10/12/12 17/36/24 22/47/29 
f 17/36/24 16/35/23 23/48/30 24/49/31 
f 16/38/23 18/37/25 25/50/32 23/51/30 
f 18/37/25 19/40/26 26/52/33 25/50/32 
f 19/42/26 20/41/27 27/53/34 26/54/33 
f 20/45/27 21/44/28 28/55/35 27/56/34 
f 21/44/28 22/46/29 29/57/36 28/55/35 
f 22/47/29 17/36/24 24/49/31 29/58/36 
f 24/49/31 23/48/30 30/59/37 31/60/38 
f 23/51/30 25/50/32 32/61/39 30/62/37 
f 25/50/32 26/52/33 33/63/40 32/61/39 
f 26/54/33 27/53/34 34/64/41 33/65/40 
f 27/56/34 28/55/35 35/66/42 34/67/41 
f 28/55/35 29/57/36 36/68/43 35/66/42 
f 29/58/36 24/49/31 31/60/38 36/69/43 
s 1
f 37/70/44 36/71/45 31/72/46 30/73/47 
f 37/70/44 30/73/47 32/74/48 33/75/49 
f 37/70/44 33/75/49 34/76/50 35/77/51 
f 37/70/44 35/77/51 36/71/45 
f 38/78/52 39/79/53 40/80/54 
f 38/78/52 40/80/54 41/81/55 
f 38/78/52 41/81/55 42/82/56 
f 38/78/52 42/82/56 43/83/57 
f 38/78/52 43/83/57 44/84/58 
f 38/78/52 44/84/58 39/79/53 
f 39/85/53 45/86/59 46/87/60 40/88/54 
f 40/89/54 46/90/60 47/91/61 41/92/55 
f 41/93/55 47/94/61 48/95/62 42/96/56 
f 42/96/56 48/95/62 49/97/63 43/98/57 
f 43/99/57 49/100/63 50/101/64 44/102/58 
f 44/103/58 50/104/64 45/86/59 39/85/53 
f 51/105/65 46/106/60 45/107/59 
f 51/105/65 47/108/61 46/106/60 
f 51/105/65 48/109/62 47/108/61 
f 51/105/65 49/110/63 48/109/62 
f 51/105/65 50/111/64 49/110/63 
f 51/105/65 45/107/59 50/111/64 
f 52/112/66 53/113/66 54/114/66 55/115/66 
f 52/112/66 56/116/66 57/117/66 53/113/66 
f 52/112/66 58/118/66 59/119/66 56/116/66 
f 52/112/66 55/115/66 58/118/66 
s 8
f 55/120/67 54/121/68 60/122/68 61/123/67 
f 54/124/68 53/125/69 62/126/69 60/127/68 
f 53/125/69 57/128/70 63/129/70 62/126/69 
f 57/130/70 56/131/71 64/132/71 63/133/70 
f 56/134/71 59/135/72 65/136/72 64/137/71 
f 59/135/72 58/138/73 66/139/73 65/136/72 
f 58/140/73 55/120/67 61/123/67 66/141/73 
s 1
f 67/142/74 66/143/74 61/144/74 60/145/74 
f 67/142/74 60/145/74 62/146/74 63/147/74 
f 67/142/74 63/147/74 64/148/74 65/149/74 
f 67/142/74 65/149/74 66/143/74 
# 53 polygons - 16 triangles

