# 3ds Max Wavefront OBJ Exporter v0.97b - (c)2007 guruware
# File Created: 26.05.2011 23:58:08

mtllib trau_pack.mtl

#
# object Box02
#

#
# object Box01
#

v  45.8158 0.0000 -71.3598
v  50.1406 0.9256 -70.2704
v  50.9637 0.0000 -66.7291
v  45.0014 14.5716 -26.3858
v  49.7409 13.6846 -27.8469
v  50.9637 14.5716 -31.6482
v  50.9600 9.6677 -26.3858
v  50.9637 3.3507 -71.3598
v  18.2797 0.9449 -69.3186
v  17.3129 0.0000 -66.3452
v  17.3129 3.1898 -71.3598
v  21.3797 14.5716 -70.0189
v  18.0761 13.6330 -66.2683
v  17.3129 14.5716 -56.5430
v  17.3129 10.4948 -71.3598
v  17.3390 14.5716 -30.5229
v  18.0784 13.6361 -27.7422
v  21.2532 14.5716 -26.3858
v  17.3129 10.4500 -26.3858
v  17.3129 3.8001 -26.3858
v  18.1539 0.8040 -27.7422
v  22.0274 0.0000 -26.3858
v  50.9637 14.5716 -57.3872
v  45.0313 14.5285 -70.0189
v  50.1154 13.6842 -66.6366
v  50.9637 9.6723 -71.3598
v  50.1577 3.8274 -64.7174
v  55.4952 1.1385 -64.7175
v  55.4533 1.1385 -39.3025
v  50.1577 3.8274 -39.3025
v  52.4499 8.3437 -67.1199
v  55.4846 10.1769 -66.9653
v  58.0293 8.7938 -67.1081
v  52.2906 5.1334 -67.1862
v  55.4466 3.5427 -67.1571
v  58.4874 5.2323 -67.1867
v  50.7184 9.9548 -39.2723
v  55.5080 12.7764 -39.2356
v  55.4318 12.4993 -64.4055
v  50.4384 9.4810 -64.5890
v  55.4141 3.4667 -36.7900
v  58.4990 5.1665 -36.7962
v  58.0509 8.8853 -36.7789
v  52.3474 5.0239 -36.7963
v  55.5139 10.3639 -36.7484
v  52.6835 8.6965 -36.7792
v  59.9825 10.1685 -39.2723
v  59.9490 10.0421 -64.5766
v  47.4597 0.0000 -26.3858
v  50.2609 0.8262 -27.7422
v  50.9637 3.7762 -26.3858
v  50.9637 0.0000 -31.9323
v  22.0770 0.0000 -71.3598
v  17.3129 0.0000 -30.7328
v  38.4583 20.8502 -27.8939
v  43.1978 19.9632 -29.3550
v  44.4206 20.8502 -33.1563
v  46.3049 14.4885 -26.9946
v  23.9536 18.6357 -41.9095
v  26.3686 17.8258 -46.3045
v  22.0322 14.0542 -48.6268
v  23.9797 20.8502 -32.0310
v  24.7191 19.9147 -29.2503
v  27.8939 20.8502 -27.8939
v  21.9958 14.4256 -26.9751
v  44.4206 18.6357 -42.7537
v  41.0302 17.8299 -46.4887
v  46.2490 14.0067 -48.6874
v  60.7210 4.0408 -39.3025
v  60.7210 4.0408 -64.7175
v  49.9202 4.4978 -30.4180
v  49.9352 2.9738 -33.4431
v  57.9529 2.9738 -33.3608
v  57.9380 4.4978 -30.3594
v  57.9567 7.9708 -30.6771
v  57.9910 9.5700 -33.3917
v  50.1118 9.4130 -33.4063
v  49.9938 7.7022 -30.5767
v  57.9677 4.6188 -36.3465
v  57.9828 8.0919 -35.9279
v  50.0275 8.0202 -35.9671
v  49.9499 4.6188 -36.4050
v  58.6173 7.7781 -14.9703
v  60.7842 6.2212 -16.2057
v  57.2791 6.2210 -31.4321
v  55.0330 6.2249 -31.3634
v  58.6173 7.7781 -9.0575
v  60.7358 6.2212 -8.7895
v  55.5981 7.7781 -6.3975
v  56.4487 6.2212 -4.6475
v  52.4997 7.7781 -7.6734
v  50.8493 6.2212 -6.8375
v  51.7291 7.7781 -15.9579
v  49.9697 6.2212 -16.8657
v  51.9098 6.2212 -30.5375
v  53.8534 6.2249 -30.4173
# 96 vertices

vn 0.0492 -0.9973 -0.0546
vn 0.2716 -0.9138 -0.3020
vn 0.0609 -0.9958 -0.0677
vn 0.0424 0.9979 0.0481
vn 0.2638 0.9171 0.2988
vn 0.0536 0.9967 0.0607
vn 0.0791 0.0961 0.9922
vn 0.3379 0.4106 0.8469
vn 0.0659 0.0801 0.9946
vn 0.9940 0.0796 0.0744
vn 0.8466 0.3890 0.3631
vn 0.9945 0.0760 0.0715
vn 0.3092 -0.4750 -0.8239
vn 0.0459 -0.0705 -0.9965
vn 0.0396 -0.0818 -0.9959
vn -0.6369 -0.6505 -0.4138
vn -0.9943 -0.0902 -0.0574
vn -0.9916 -0.1090 -0.0693
vn -0.0795 0.9965 -0.0248
vn -0.3939 0.9114 -0.1189
vn -0.0302 0.9995 -0.0091
vn -0.9998 0.0214 -0.0059
vn -0.9100 0.3997 -0.1100
vn -0.9982 0.0584 -0.0160
vn -0.1667 0.3052 -0.9376
vn -0.6025 0.7166 -0.3514
vn -0.2220 0.4973 -0.8387
vn -0.0824 0.9935 0.0780
vn -0.4088 0.8266 0.3868
vn -0.0721 0.9951 0.0682
vn -0.1028 0.0983 0.9898
vn -0.4593 0.4391 0.7722
vn -0.1021 0.0976 0.9900
vn -0.9967 0.0587 0.0559
vn -0.8658 0.3572 0.3504
vn -0.9954 0.0707 0.0645
vn -0.0958 -0.1188 0.9883
vn -0.3770 -0.4677 0.7994
vn -0.0732 -0.0908 0.9932
vn 0.9969 -0.0635 -0.0459
vn 0.8497 -0.4272 -0.3091
vn 0.9933 -0.0935 -0.0676
vn 0.0282 0.9995 -0.0145
vn 0.0533 0.9982 -0.0284
vn 0.2362 0.9650 -0.1142
vn 0.1090 0.2846 -0.9524
vn 0.4662 0.7138 -0.5226
vn -0.0303 0.2315 -0.9724
vn 0.9981 0.0577 -0.0202
vn 0.9343 0.3364 -0.1180
vn 0.9995 0.0285 -0.0100
vn -0.4503 -0.8929 -0.0006
vn 0.0206 -0.9998 0.0000
vn 0.0169 -0.9999 0.0000
vn -0.4527 -0.8916 -0.0000
vn -0.0008 0.0362 -0.9993
vn -0.0054 0.0928 -0.9957
vn -0.0040 0.0352 -0.9994
vn 0.0060 0.0119 -0.9999
vn 0.0023 0.0082 -1.0000
vn -0.0205 0.0194 -0.9996
vn -0.5089 0.8608 -0.0083
vn -0.5075 0.8616 -0.0079
vn -0.5157 0.8567 -0.0100
vn -0.5170 0.8559 -0.0103
vn -0.0006 -0.0018 1.0000
vn 0.0043 -0.0041 1.0000
vn 0.0007 -0.0074 1.0000
vn -0.0013 -0.0026 1.0000
vn 0.0006 -0.0195 0.9998
vn 0.0002 -0.0080 1.0000
vn 0.4810 0.8767 -0.0058
vn 0.5035 0.8640 -0.0110
vn 0.8330 0.5533 -0.0068
vn 0.8312 0.5560 -0.0029
vn 0.1168 -0.1084 0.9872
vn 0.4932 -0.4576 0.7398
vn 0.1106 -0.1026 0.9886
vn 0.9966 -0.0681 0.0467
vn 0.9221 -0.3198 0.2177
vn 0.9984 -0.0470 0.0320
vn 0.0560 -0.9978 0.0354
vn 0.3797 -0.8935 0.2399
vn 0.0858 -0.9948 0.0542
vn -0.0777 -0.9942 -0.0738
vn -0.4163 -0.8187 -0.3955
vn -0.0600 -0.9966 -0.0570
vn -0.0738 -0.1129 -0.9909
vn -0.4664 -0.6966 -0.5452
vn -0.1485 -0.2217 -0.9637
vn -0.0480 -0.9975 0.0521
vn -0.3001 -0.8967 0.3254
vn -0.0630 -0.9957 0.0683
vn -0.9955 -0.0717 0.0627
vn -0.8511 -0.3953 0.3456
vn -0.9955 -0.0714 0.0624
vn 0.0317 0.9972 -0.0678
vn -0.1062 0.9870 -0.1203
vn 0.1397 0.3056 0.9418
vn 0.3389 0.5280 0.7787
vn 0.0703 0.2241 0.9720
vn 0.9199 0.3825 0.0865
vn 0.7310 0.5740 0.3691
vn 0.9124 0.3901 0.1238
vn -0.7770 0.6009 -0.1876
vn -0.4685 0.7865 -0.4024
vn -0.7374 0.6295 -0.2451
vn -0.0785 0.9963 -0.0362
vn -0.1143 0.2426 0.9634
vn -0.4605 0.5251 0.7157
vn -0.1490 0.2727 0.9505
vn -0.9280 0.3606 0.0941
vn -0.7561 0.5327 0.3802
vn -0.9189 0.3832 0.0933
vn -0.0217 0.9818 -0.1888
vn -0.0029 0.9780 -0.2084
vn -0.0138 0.9777 -0.2095
vn -0.0703 0.9734 -0.2180
vn 0.7065 0.6371 -0.3082
vn 0.3645 0.7853 -0.5003
vn 0.7634 0.6020 -0.2344
vn -0.0021 0.5007 -0.8656
vn -0.0012 0.4973 -0.8676
vn -0.0080 0.5231 -0.8522
vn -0.0108 0.5332 -0.8459
vn 0.9927 0.1208 -0.0016
vn 0.9918 0.1276 -0.0000
vn 0.4851 -0.8745 0.0007
vn 0.4826 -0.8759 -0.0000
vn -0.0043 -0.8927 0.4506
vn 0.0002 -0.9998 -0.0217
vn 0.0001 -0.9999 -0.0161
vn -0.0033 -0.8916 0.4527
vn -0.0058 0.5450 0.8384
vn -0.0181 0.8616 0.5073
vn -0.0213 0.8573 0.5144
vn -0.0139 0.5000 0.8659
vn 1.0000 -0.0032 0.0052
vn 1.0000 -0.0046 0.0024
vn 1.0000 -0.0064 0.0045
vn 1.0000 -0.0037 0.0056
vn 0.9999 -0.0135 0.0047
vn 1.0000 -0.0069 0.0048
vn -0.0079 0.8754 -0.4834
vn -0.0163 0.8639 -0.5034
vn -0.0057 0.5555 -0.8315
vn 0.0006 0.5546 -0.8321
vn 0.0047 0.1217 -0.9926
vn 0.0072 0.1275 -0.9918
vn -0.0073 0.0496 0.9987
vn 0.0054 0.0810 0.9967
vn 0.0046 -0.8746 -0.4848
vn 0.0035 -0.8759 -0.4826
vn 0.3735 -0.6770 0.6342
vn 0.7648 0.0891 0.6381
vn 0.3910 0.6603 0.6412
vn -0.3937 0.6586 0.6413
vn -0.7669 0.0671 0.6382
vn -0.3504 -0.6892 0.6342
vn -0.3384 -0.6760 -0.6546
vn -0.7697 0.0522 -0.6363
vn -0.3863 0.6825 -0.6205
vn 0.3532 0.7002 -0.6205
vn 0.7637 0.1128 -0.6356
vn 0.3653 -0.6618 -0.6546
vn 0.4837 0.8668 -0.1213
vn 0.5321 0.8378 -0.1225
vn 0.0509 0.9939 -0.0981
vn -0.0011 0.9956 -0.0941
vn 0.5881 0.8088 0.0021
vn 0.4529 0.7471 0.4865
vn -0.2797 0.6549 0.7021
vn -0.6738 0.7364 0.0607
vn -0.3618 0.9265 -0.1034
# 174 vertex normals

vt 0.4656 0.3015 0.0000
vt 0.4544 0.3458 0.0000
vt 0.4182 0.3542 0.0000
vt 0.0040 0.5645 0.0000
vt 0.0189 0.5160 0.0000
vt 0.0578 0.5035 0.0000
vt 0.4742 0.8989 0.0000
vt 0.4855 0.8617 0.0000
vt 0.5294 0.8535 0.0000
vt 0.0575 0.5030 0.0000
vt 0.0186 0.4939 0.0000
vt 0.0037 0.4528 0.0000
vt 0.5913 0.5124 0.0000
vt 0.6007 0.5566 0.0000
vt 0.5665 0.5040 0.0000
vt 0.4445 0.0198 0.0000
vt 0.4133 0.0094 0.0000
vt 0.4704 0.0090 0.0000
vt 0.4504 0.8061 0.0000
vt 0.4120 0.8399 0.0000
vt 0.3125 0.8477 0.0000
vt 0.3164 0.8474 0.0000
vt 0.4158 0.8570 0.0000
vt 0.4679 0.8891 0.0000
vt 0.4641 0.8477 0.0000
vt 0.0463 0.8475 0.0000
vt 0.0179 0.8399 0.0000
vt 0.0040 0.8074 0.0000
vt 0.7493 0.8535 0.0000
vt 0.7787 0.8622 0.0000
vt 0.7858 0.8917 0.0000
vt 0.0079 0.8896 0.0000
vt 0.0217 0.8570 0.0000
vt 0.0502 0.8474 0.0000
vt 0.7858 0.9533 0.0000
vt 0.7780 0.9810 0.0000
vt 0.7422 0.9885 0.0000
vt 0.4164 0.3539 0.0000
vt 0.4526 0.3634 0.0000
vt 0.4637 0.3882 0.0000
vt 0.3211 0.5035 0.0000
vt 0.4504 0.5642 0.0000
vt 0.4158 0.5122 0.0000
vt 0.4641 0.5035 0.0000
vt 0.4637 0.4529 0.0000
vt 0.4154 0.4939 0.0000
vt 0.3208 0.5030 0.0000
vt 0.8784 0.0827 0.0000
vt 0.8784 0.1576 0.0000
vt 0.5216 0.1570 0.0000
vt 0.5216 0.0827 0.0000
vt 0.9550 0.9553 0.0000
vt 0.8796 0.9587 0.0000
vt 0.8473 0.8910 0.0000
vt 0.9907 0.8969 0.0000
vt 0.9479 0.8351 0.0000
vt 0.8792 0.8357 0.0000
vt 0.5184 0.0843 0.0000
vt 0.5162 0.0060 0.0000
vt 0.8752 0.0067 0.0000
vt 0.8751 0.0833 0.0000
vt 0.9553 0.9561 0.0000
vt 0.8798 0.9591 0.0000
vt 0.8481 0.8903 0.0000
vt 0.9915 0.8984 0.0000
vt 0.8785 0.8357 0.0000
vt 0.9484 0.8354 0.0000
vt 0.8741 0.3790 0.0000
vt 0.5183 0.3786 0.0000
vt 0.5185 0.3150 0.0000
vt 0.8737 0.3160 0.0000
vt 0.5067 0.9885 0.0000
vt 0.4807 0.9808 0.0000
vt 0.4742 0.9535 0.0000
vt 0.0037 0.3925 0.0000
vt 0.0175 0.3624 0.0000
vt 0.0604 0.3539 0.0000
vt 0.0622 0.3542 0.0000
vt 0.0194 0.3470 0.0000
vt 0.0055 0.3184 0.0000
vt 0.4143 0.0100 0.0000
vt 0.4447 0.0199 0.0000
vt 0.4656 0.0587 0.0000
vt 0.4654 0.0587 0.0000
vt 0.0055 0.0582 0.0000
vt 0.0194 0.0186 0.0000
vt 0.0500 0.0100 0.0000
vt 0.0523 0.9965 0.0000
vt 0.0217 0.9883 0.0000
vt 0.0079 0.9576 0.0000
vt 0.4934 0.8482 0.0000
vt 0.4517 0.8066 0.0000
vt 0.4521 0.5647 0.0000
vt 0.6007 0.7995 0.0000
vt 0.5018 0.5040 0.0000
vt 0.5681 0.8482 0.0000
vt 0.4679 0.9639 0.0000
vt 0.4166 0.9965 0.0000
vt 0.7383 0.7720 0.0000
vt 0.6673 0.7502 0.0000
vt 0.6490 0.6933 0.0000
vt 0.6123 0.8071 0.0000
vt 0.6672 0.7501 0.0000
vt 0.7402 0.7720 0.0000
vt 0.6120 0.8080 0.0000
vt 0.9554 0.6064 0.0000
vt 0.9200 0.5383 0.0000
vt 0.9947 0.5009 0.0000
vt 0.9550 0.7101 0.0000
vt 0.9439 0.7517 0.0000
vt 0.8964 0.7720 0.0000
vt 0.8954 0.7718 0.0000
vt 0.9438 0.7517 0.0000
vt 0.9943 0.8084 0.0000
vt 0.9549 0.7096 0.0000
vt 0.6490 0.5938 0.0000
vt 0.6998 0.5379 0.0000
vt 0.6138 0.5005 0.0000
vt 0.6499 0.6914 0.0000
vt 0.6119 0.8076 0.0000
vt 0.6139 0.5003 0.0000
vt 0.6485 0.5918 0.0000
vt 0.6992 0.5381 0.0000
vt 0.6142 0.5009 0.0000
vt 0.9951 0.5008 0.0000
vt 0.9200 0.5380 0.0000
vt 0.6118 0.8078 0.0000
vt 0.7398 0.7722 0.0000
vt 0.8973 0.7722 0.0000
vt 0.9944 0.8088 0.0000
vt 0.9548 0.7094 0.0000
vt 0.9552 0.6062 0.0000
vt 0.9949 0.5004 0.0000
vt 0.9945 0.8084 0.0000
vt 0.5210 0.2314 0.0000
vt 0.8778 0.2314 0.0000
vt 0.8758 0.3156 0.0000
vt 0.5202 0.3149 0.0000
vt 0.8771 0.2310 0.0000
vt 0.5203 0.2310 0.0000
vt 0.8010 0.4867 0.0000
vt 0.7661 0.4866 0.0000
vt 0.7670 0.3978 0.0000
vt 0.8017 0.3979 0.0000
vt 0.7325 0.4849 0.0000
vt 0.6961 0.4854 0.0000
vt 0.6967 0.3982 0.0000
vt 0.7349 0.3967 0.0000
vt 0.5485 0.4670 0.0000
vt 0.5121 0.4682 0.0000
vt 0.4969 0.4340 0.0000
vt 0.5677 0.4366 0.0000
vt 0.5122 0.4066 0.0000
vt 0.5458 0.4064 0.0000
vt 0.8975 0.3989 0.0000
vt 0.9003 0.4861 0.0000
vt 0.8802 0.4866 0.0000
vt 0.8777 0.3986 0.0000
vt 0.8023 0.4865 0.0000
vt 0.8023 0.3977 0.0000
vt 0.8416 0.3986 0.0000
vt 0.8424 0.4867 0.0000
vt 0.8778 0.4861 0.0000
vt 0.8408 0.4870 0.0000
vt 0.8408 0.3982 0.0000
vt 0.8809 0.3980 0.0000
vt 0.7319 0.4864 0.0000
vt 0.7325 0.3976 0.0000
vt 0.5207 0.1570 0.0000
vt 0.5212 0.2318 0.0000
vt 0.4874 0.2107 0.0000
vt 0.4872 0.1572 0.0000
vt 0.4882 0.2985 0.0000
vt 0.4912 0.2476 0.0000
vt 0.4886 0.3722 0.0000
vt 0.4892 0.3310 0.0000
vt 0.4871 0.0696 0.0000
vt 0.4857 0.0233 0.0000
vt 0.5215 0.2311 0.0000
vt 0.5219 0.3148 0.0000
vt 0.4896 0.2985 0.0000
vt 0.4903 0.2483 0.0000
vt 0.5216 0.0825 0.0000
vt 0.4873 0.1031 0.0000
vt 0.8771 0.1573 0.0000
vt 0.8768 0.0823 0.0000
vt 0.9185 0.1070 0.0000
vt 0.9180 0.1576 0.0000
vt 0.8785 0.3153 0.0000
vt 0.8798 0.2322 0.0000
vt 0.9186 0.2491 0.0000
vt 0.9192 0.2981 0.0000
vt 0.9180 0.0209 0.0000
vt 0.9187 0.0671 0.0000
vt 0.9192 0.3330 0.0000
vt 0.9193 0.3736 0.0000
vt 0.9185 0.2487 0.0000
vt 0.9193 0.2992 0.0000
vt 0.8775 0.2312 0.0000
vt 0.9185 0.2101 0.0000
vt 0.9958 0.0812 0.0000
vt 0.9335 0.0819 0.0000
vt 0.9339 0.0150 0.0000
vt 0.9958 0.0148 0.0000
vt 0.9961 0.1474 0.0000
vt 0.9334 0.1475 0.0000
vt 0.9962 0.2154 0.0000
vt 0.9332 0.2157 0.0000
vt 0.9957 0.2843 0.0000
vt 0.9338 0.2849 0.0000
vt 0.9336 0.2161 0.0000
vt 0.9960 0.2160 0.0000
vt 0.9957 0.3496 0.0000
vt 0.9336 0.3491 0.0000
vt 0.9335 0.2843 0.0000
vt 0.9959 0.2845 0.0000
vt 0.9334 0.4153 0.0000
vt 0.9958 0.4156 0.0000
# 218 texture coords

g Box01
usemtl 22___Default
s 2
f 1/1/1 2/2/2 3/3/3 
s 4
f 4/4/4 5/5/5 6/6/6 
s 8
f 7/7/7 5/8/8 4/9/9 
s 16
f 6/10/10 5/11/11 7/12/12 
s 32
f 2/13/13 1/14/14 8/15/15 
s 64
f 9/16/16 10/17/17 11/18/18 
s 4
f 12/19/19 13/20/20 14/21/21 
s 64
f 14/22/22 13/23/23 15/24/24 
s 32
f 15/25/25 13/20/26 12/19/27 
s 4
f 16/26/28 17/27/29 18/28/30 
s 8
f 18/29/31 17/30/32 19/31/33 
s 64
f 19/32/34 17/33/35 16/34/36 
s 8
f 20/35/37 21/36/38 22/37/39 
s 16
f 3/38/40 2/39/41 8/40/42 
s 4
f 23/41/43 24/42/44 12/19/19 16/26/28 
f 12/19/19 14/21/21 16/26/28 
f 16/26/28 18/28/30 4/4/4 23/41/43 
f 6/6/6 23/41/43 4/4/4 
f 23/41/43 25/43/45 24/42/44 
s 32
f 24/42/46 25/43/47 26/44/48 
s 16
f 26/45/49 25/46/50 23/47/51 
s 2
f 27/48/52 28/49/53 29/50/54 30/51/55 
s 32
f 31/52/56 32/53/57 33/54/58 34/55/59 
f 35/56/60 34/55/59 33/54/58 36/57/61 
s 64
f 37/58/62 38/59/63 39/60/64 40/61/65 
s 8
f 41/62/66 42/63/67 43/64/68 44/65/69 
f 43/64/68 45/66/70 46/67/71 44/65/69 
s 16
f 39/68/72 38/69/73 47/70/74 48/71/75 
s 8
f 49/72/76 50/73/77 51/74/78 
s 16
f 51/75/79 50/76/80 52/77/81 
s 2
f 52/78/82 50/79/83 49/80/84 
f 10/81/85 9/82/86 53/83/87 
s 32
f 53/84/88 9/16/89 11/18/90 
s 16
f 26/45/49 23/47/51 6/10/10 3/38/40 
f 6/10/10 7/12/12 51/75/79 3/38/40 
f 51/75/79 52/77/81 3/38/40 
f 8/40/42 26/45/49 3/38/40 
s 2
f 22/85/91 21/86/92 54/87/93 
s 64
f 54/88/94 21/89/95 20/90/96 
s 32
f 15/91/25 12/92/27 24/93/46 53/94/88 
f 24/93/46 26/95/48 8/15/15 53/94/88 
f 8/15/15 1/14/14 53/94/88 
f 11/96/90 15/91/25 53/94/88 
s 2
f 54/87/93 10/81/85 53/83/87 3/3/3 
f 53/83/87 1/1/1 3/3/3 
f 3/3/3 52/78/82 49/80/84 54/87/93 
f 54/87/93 49/80/84 22/85/91 
s 8
f 49/72/76 51/74/78 7/7/7 18/29/31 
f 7/7/7 4/9/9 18/29/31 
f 18/29/31 19/31/33 20/35/37 49/72/76 
f 22/37/39 49/72/76 20/35/37 
s 64
f 16/34/36 14/22/22 15/24/24 19/32/34 
f 15/24/24 11/97/18 10/98/17 19/32/34 
f 19/32/34 10/98/17 54/88/94 20/90/96 
s 4
f 55/99/97 56/100/5 57/101/98 
s 8
f 58/102/99 56/103/100 55/104/101 
s 16
f 57/101/102 56/100/103 58/105/104 
s 64
f 59/106/105 60/107/106 61/108/107 
s 4
f 62/109/108 63/110/29 64/111/30 
s 8
f 64/112/109 63/113/110 65/114/111 
s 64
f 65/114/112 63/113/113 62/115/114 
s 4
f 66/116/115 67/117/116 60/107/117 62/109/108 
f 60/107/117 59/106/118 62/109/108 
f 62/109/108 64/111/30 55/99/97 66/116/115 
f 57/101/98 66/116/115 55/99/97 
s 16
f 68/118/119 67/117/120 66/116/121 
f 57/119/102 58/120/104 68/121/119 66/122/121 
s 32
f 67/123/122 68/124/123 61/125/124 60/126/125 
s 8
f 58/127/99 55/128/101 64/129/109 65/130/111 
s 64
f 62/131/114 59/132/105 61/133/107 65/134/112 
s 16
f 69/135/126 70/136/127 48/137/75 47/138/74 
s 2
f 70/139/128 69/140/129 29/50/54 28/49/53 
f 71/141/130 72/142/131 73/143/132 74/144/133 
s 64
f 75/145/134 76/146/135 77/147/136 78/148/137 
s 8
f 73/149/138 79/150/139 80/151/140 74/152/141 
f 80/151/140 76/153/142 75/154/143 74/152/141 
s 16
f 77/155/144 76/156/145 80/157/146 81/158/147 
f 79/159/148 82/160/149 81/161/147 80/162/146 
s 64
f 78/163/137 71/164/150 74/165/151 75/166/134 
s 2
f 82/167/152 79/168/153 73/143/132 72/142/131 
s off
f 29/169/154 69/170/154 42/171/154 41/172/154 
f 69/135/155 47/138/155 43/173/155 42/174/155 
f 47/70/156 38/69/156 45/175/156 43/176/156 
f 38/59/157 37/58/157 46/177/157 45/178/157 
f 37/179/158 30/180/158 44/181/158 46/182/158 
f 30/183/159 29/169/159 41/172/159 44/184/159 
f 28/185/160 27/186/160 34/187/160 35/188/160 
f 27/189/161 40/190/161 31/191/161 34/192/161 
f 40/61/162 39/60/162 32/193/162 31/194/162 
f 39/68/163 48/71/163 33/195/163 32/196/163 
f 48/137/164 70/136/164 36/197/164 33/198/164 
f 70/199/165 28/185/165 35/188/165 36/200/165 
s 8
f 83/201/166 84/202/167 85/203/168 86/204/169 
s off
f 84/202/170 83/201/170 87/205/170 88/206/170 
f 88/206/171 87/205/171 89/207/171 90/208/171 
f 90/209/172 89/210/172 91/211/172 92/212/172 
f 93/213/173 94/214/173 92/215/173 91/216/173 
f 95/217/174 94/214/174 93/213/174 96/218/174 
# 54 polygons - 44 triangles

