# Exported from Wings 3D 1.4
mtllib Hatchet.mtl
o Hatchet
#32 vertices, 23 faces
v 0.19069333 2.94222300 -2.8062814e-18
v 1.4371616e-2 2.94222300 0.25892137
v -0.41130667 2.94222300 0.32642277
v -0.83698495 2.94222300 0.25892137
v -1.01330667 2.94222300 4.2036624e-17
v -0.83698495 2.94222300 -0.25892137
v -0.41130667 2.94222300 -0.33039750
v 1.4371616e-2 2.94222300 -0.25892137
v 0.19069333 -13.49713039 -2.8062814e-18
v 1.4371616e-2 -13.49713039 0.25892137
v -0.41130667 -13.49713039 0.32642277
v -0.83698495 -13.49713039 0.25892137
v -1.01330667 -13.49713039 4.2036624e-17
v -0.83698495 -13.49713039 -0.25892137
v -0.41130667 -13.49713039 -0.33039750
v 1.4371616e-2 -13.49713039 -0.25892137
v -1.13586023 2.38685217 0.53543679
v -1.13586023 4.77885217 0.53543679
v 0.27071511 4.77330127 0.25986000
v 0.27071511 2.39240307 0.25986000
v -1.13586023 2.38685217 -0.49742620
v -1.13586023 4.77885217 -0.49742620
v 0.27071511 4.77330127 -0.25986000
v 0.27071511 2.39240307 -0.25986000
v -1.44688229 4.77885217 -2.0122792e-18
v -1.44688229 2.38685217 -2.0122792e-18
v 1.28156613 4.35962873 0.25986000
v 1.28156613 2.80607561 0.25986000
v 1.28156613 2.80607561 -0.25986000
v 1.28156613 4.35962873 -0.25986000
v 4.90886159 5.35649405 -2.0122792e-18
v 4.90886159 1.80921029 -2.0122792e-18
vt 0.0000000e+0 1.00000000
vt 1.5612511e-15 1.1102230e-16
vt 4.5968608e-2 0.81522889
vt 5.0877163e-2 1.00000000
vt 5.0877163e-2 1.1102230e-16
vt 5.6694195e-2 0.79947879
vt 5.6694195e-2 0.83097898
vt 8.2588053e-2 0.79537271
vt 8.2588053e-2 0.83532685
vt 8.7855611e-2 1.00000000
vt 8.7855611e-2 1.1102230e-16
vt 0.10848191 0.79947879
vt 0.10848191 0.83097898
vt 0.11920750 0.81522889
vt 0.12483406 1.00000000
vt 0.12483406 1.1102230e-16
vt 0.17578681 1.00000000
vt 0.17578681 1.1102230e-16
vt 0.22673957 1.00000000
vt 0.22673957 1.1102230e-16
vt 0.26371802 1.00000000
vt 0.26371802 0.0000000e+0
vt 0.30069646 1.00000000
vt 0.30069646 0.0000000e+0
vt 0.35157363 1.00000000
vt 0.35157363 1.1102230e-16
vt 0.35560745 0.94741391
vt 0.35560782 0.95113491
vt 0.38496515 0.40272381
vt 0.38596286 1.00000000
vt 0.38596336 1.00000000
vt 0.38598047 7.4909167e-2
vt 0.38623770 0.89872055
vt 0.38625890 0.89872061
vt 0.38870873 8.2931507e-2
vt 0.38961319 0.41074688
vt 0.44169048 0.40311701
vt 0.44245168 8.2599655e-2
vt 0.44270580 7.5302369e-2
vt 0.44335614 0.41041502
vt 0.52395689 0.97710747
vt 0.52396183 0.97335206
vt 0.52410013 0.92238988
vt 0.52410561 0.92614531
vt 0.57299677 0.40326644
vt 0.57313321 8.2553466e-2
vt 0.57400738 7.6973257e-2
vt 0.57403347 0.40884737
vt 0.63105666 0.97742000
vt 0.63106166 0.97364271
vt 0.63119996 0.92268052
vt 0.63120538 0.92645784
vt 0.66577487 0.34721606
vt 0.66589233 0.13867406
vt 0.66643430 0.13430742
vt 0.66647976 0.35158317
vt 0.99849430 0.48614195
vt 0.99865870 0.0000000e+0
vt 1.00000000 0.0000000e+0
vt 1.00000000 0.48614303
vt 1.00000000 0.94916263
vt 1.00000000 0.95301532
vn 1.00000000 0.0000000e+0 0.0000000e+0
vn 0.53550463 0.0000000e+0 0.84453229
vn 4.2153562e-17 0.0000000e+0 1.00000000
vn -0.53550463 0.0000000e+0 0.84453229
vn -1.00000000 0.0000000e+0 3.3580133e-16
vn -0.53933959 0.0000000e+0 -0.84208836
vn -1.8293683e-16 0.0000000e+0 -1.00000000
vn 0.53933959 0.0000000e+0 -0.84208836
vn 0.85562788 -0.51759146 -1.9537827e-15
vn 0.47027126 -0.47832414 0.74165420
vn 3.7608841e-17 -0.45166710 0.89218655
vn -0.47027126 -0.47832414 0.74165420
vn -0.85562788 -0.51759146 -1.6664617e-15
vn -0.47385037 -0.47760409 -0.73983793
vn -1.6316430e-16 -0.45220103 -0.89191604
vn 0.47385037 -0.47760409 -0.73983793
vn -0.35023166 -0.52351438 0.77670489
vn -0.35023166 0.52351438 0.77670489
vn 0.20356694 0.68233463 0.70212531
vn 0.20356694 -0.68233463 0.70212531
vn -0.34968440 -0.51581680 -0.78208302
vn -0.34968440 0.51581680 -0.78208302
vn 0.19457580 0.68277552 -0.70424275
vn 0.19457580 -0.68277552 -0.70424275
vn -0.86303683 0.50494486 -1.4075280e-2
vn -0.86303683 -0.50494486 -1.4075280e-2
vn 6.7201469e-2 0.68569931 0.72477611
vn 6.7201469e-2 -0.68569931 0.72477611
vn 6.7201469e-2 -0.68569931 -0.72477611
vn 6.7201469e-2 0.68569931 -0.72477611
vn -0.12560775 0.99207998 0.0000000e+0
vn -0.12560775 -0.99207998 0.0000000e+0
g Hatchet_Hatchet_auv
usemtl Hatchet_auv
s 1
f 1/10/1 9/11/9 16/16/16 8/15/8
f 2/4/2 10/5/10 9/11/9 1/10/1
f 3/1/3 11/2/11 10/5/10 2/4/2
f 4/23/4 12/24/12 11/26/11 3/25/3
f 5/21/5 13/22/13 12/24/12 4/23/4
f 6/19/6 14/20/14 13/22/13 5/21/5
f 7/17/7 15/18/15 14/20/14 6/19/6
f 8/15/8 16/16/16 15/18/15 7/17/7
f 10/6/10 11/8/11 12/12/12 13/14/13 14/13/14 15/9/15 16/7/16 9/3/9
f 17/39/17 20/47/20 19/45/19 18/37/18
f 17/30/17 26/27/26 21/33/21 24/43/24 20/42/20
f 18/37/18 25/29/25 26/32/26 17/39/17
f 19/44/19 23/41/23 22/31/22 25/28/25 18/34/18
f 19/44/19 27/52/27 30/49/30 23/41/23
f 20/47/20 28/55/28 27/53/27 19/45/19
f 21/40/21 26/36/26 25/35/25 22/38/22
f 22/38/22 23/46/23 24/48/24 21/40/21
f 23/46/23 30/54/30 29/56/29 24/48/24
f 24/43/24 29/51/29 28/50/28 20/42/20
f 27/52/27 31/62/31 30/49/30
f 28/55/28 32/59/32 31/57/31 27/53/27
f 29/51/29 32/61/32 28/50/28
f 30/54/30 31/58/31 32/60/32 29/56/29
