# 3ds Max Wavefront OBJ Exporter v0.97b - (c)2007 guruware
# File Created: 16.10.2011 18:19:23

mtllib rope_part.mtl

#
# object Cylinder01
#

v  2.7019 0.5552 -0.2228
v  2.7019 -0.2775 -0.7035
v  -1.6031 -0.2775 -0.7035
v  -1.6031 0.5552 -0.2228
v  2.7019 -0.2775 0.2580
v  -1.6031 -0.2775 0.2580
v  3.7091 1.7232 -0.2228
v  3.7091 -0.8616 -1.7151
v  3.7091 -0.8616 1.2695
v  -2.6103 -0.8616 -1.7151
v  -2.6103 1.7232 -0.2228
v  -2.6103 -0.8616 1.2695
v  -1.6043 -0.2774 -0.7035
v  -1.6043 -0.2774 0.2580
v  -1.6043 0.5552 -0.2228
v  2.6997 -0.2773 -0.7035
v  2.6997 0.5553 -0.2228
v  2.6997 -0.2773 0.2579
# 18 vertices

vn -0.5428 0.8399 -0.0000
vn -0.5428 -0.4199 -0.7273
vn 0.5428 -0.4199 -0.7273
vn 0.5428 0.8399 -0.0000
vn -0.5428 -0.4199 0.7273
vn 0.5428 -0.4199 0.7273
vn -0.7573 0.6531 -0.0000
vn -0.7573 -0.3265 -0.5655
vn -0.7573 -0.3265 0.5655
vn 0.7573 -0.3265 -0.5655
vn 0.7573 0.6531 -0.0000
vn 0.7573 -0.3265 0.5655
vn -1.0000 0.0000 0.0000
vn 1.0000 0.0000 -0.0000
# 14 vertex normals

vt 0.0241 0.5626 0.0000
vt 0.0241 0.2089 0.0000
vt 0.9961 0.2089 0.0000
vt 0.9961 0.5626 0.0000
vt 0.8113 0.8643 0.0000
vt 0.9811 0.5975 0.0000
vt 0.2877 0.5975 0.0000
vt 0.4575 0.8643 0.0000
vt 0.3655 0.8748 0.0000
vt 0.0117 0.8748 0.0000
vt 0.1886 0.5684 0.0000
# 11 texture coords

g Cylinder01
usemtl Material__68
s 1
f 1/1/1 2/2/2 3/3/3 4/4/4 
f 2/1/2 5/2/5 6/3/6 3/4/3 
f 5/1/5 1/2/1 4/3/4 6/4/6 
s 3
f 1/5/1 7/6/7 8/7/8 2/8/2 
f 2/5/2 8/6/8 9/7/9 5/8/5 
f 5/5/5 9/6/9 7/7/7 1/8/1 
f 4/5/4 3/8/3 10/7/10 11/6/11 
f 3/5/3 6/8/6 12/7/12 10/6/10 
f 6/5/6 4/8/4 11/7/11 12/6/12 
f 13/9/13 14/10/13 15/11/13 
s 2
f 16/10/14 17/11/14 18/9/14 
# 9 polygons - 2 triangles

