# 3ds Max Wavefront OBJ Exporter v0.97b - (c)2007 guruware
# File Created: 07.11.2011 21:50:53

mtllib Laser_pointer.mtl

#
# object Box01
#

v  -2.8892 0.8598 -14.7042
v  -2.8892 15.6732 -14.7042
v  -2.8892 15.6732 -5.0205
v  -2.8892 0.8598 -5.0205
v  -5.8518 0.8598 -14.7042
v  -5.8518 0.8598 -5.0205
v  -5.8518 15.6732 -5.0205
v  -5.8518 15.6732 -14.7042
v  -2.8892 0.8598 9.7912
v  -2.8892 15.6732 9.7912
v  -2.8892 15.6732 19.4749
v  -2.8892 0.8598 19.4749
v  -5.8518 0.8598 9.7912
v  -5.8518 0.8598 19.4749
v  -5.8518 15.6732 19.4749
v  -5.8518 15.6732 9.7912
v  -5.7543 1.9583 -13.1770
v  -5.7543 3.6173 -13.1770
v  -4.5550 3.6173 -13.1770
v  -4.5550 1.9583 -13.1770
v  -5.7543 1.9583 16.0831
v  -4.5550 1.9583 16.0831
v  -4.5550 3.6173 16.0831
v  -5.7543 3.6173 16.0831
v  8.6262 17.2637 -35.7329
v  6.8803 22.0606 -35.7329
v  6.8803 22.0606 26.4179
v  8.6262 17.2637 26.4179
v  2.4595 24.6129 -35.7329
v  2.4595 24.6129 26.4179
v  -2.5677 23.7265 -35.7329
v  -2.5677 23.7265 26.4179
v  -5.8490 19.8160 -35.7329
v  -5.8490 19.8160 26.4179
v  -5.8490 14.7113 -35.7329
v  -5.8490 14.7113 26.4179
v  -2.5677 10.8008 -35.7329
v  -2.5677 10.8008 26.4179
v  2.4595 9.9144 -35.7329
v  2.4595 9.9144 26.4179
v  6.8803 12.4668 -35.7329
v  6.8803 12.4668 26.4179
v  7.3904 17.0729 26.4179
v  5.9448 13.1012 26.4179
v  5.9448 21.0446 26.4179
v  2.2845 23.1578 26.4179
v  -1.8779 22.4239 26.4179
v  -4.5946 19.1862 26.4179
v  -4.5946 14.9596 26.4179
v  -1.8779 11.7218 26.4179
v  2.2845 10.9879 26.4179
v  5.9448 13.1012 23.0698
v  7.3904 17.0729 23.0698
v  5.9448 21.0446 23.0698
v  2.2845 23.1578 23.0698
v  -1.8779 22.4239 23.0698
v  -4.5946 14.9596 23.0698
v  -4.5946 19.1862 23.0698
v  -1.8779 11.7218 23.0698
v  2.2845 10.9879 23.0698
# 60 vertices

vn 1.0000 0.0000 0.0000
vn -1.0000 -0.0000 -0.0000
vn 0.0000 -1.0000 0.0000
vn -0.0000 -1.0000 0.0000
vn -0.0000 0.0000 1.0000
vn 0.0000 0.0000 1.0000
vn -0.0000 1.0000 -0.0000
vn -0.0000 0.0000 -1.0000
vn -0.0000 -1.0000 -0.0000
vn 0.0000 -1.0000 -0.0000
vn 0.0000 1.0000 -0.0000
vn 0.0000 -0.0000 -1.0000
vn -0.0000 1.0000 0.0000
vn -1.0000 0.0000 -0.0000
vn 1.0000 0.0000 -0.0000
vn 0.9397 0.3420 -0.0000
vn 1.0000 -0.0000 -0.0000
vn 0.5000 0.8660 0.0000
vn 0.1736 0.9848 0.0000
vn -0.1736 0.9848 0.0000
vn -0.7660 0.6428 0.0000
vn -0.9397 0.3420 0.0000
vn -0.9397 -0.3420 0.0000
vn -0.7660 -0.6428 0.0000
vn -0.1736 -0.9848 0.0000
vn 0.1736 -0.9848 0.0000
vn 0.1736 -0.9848 -0.0000
vn 0.5000 -0.8660 0.0000
vn 0.5000 -0.8660 -0.0000
vn 0.9397 -0.3420 -0.0000
vn 0.9397 -0.3420 0.0000
vn 0.0000 0.0000 -1.0000
vn -0.9397 0.3420 -0.0000
vn -1.0000 -0.0000 0.0000
vn -0.5000 -0.8660 0.0000
vn 0.7660 -0.6428 -0.0000
vn 0.7660 0.6428 0.0000
vn 0.7660 0.6428 -0.0000
vn 0.1736 0.9848 -0.0000
vn -0.5000 0.8660 0.0000
vn -0.5000 0.8660 -0.0000
# 41 vertex normals

vt 0.4360 0.5895 0.0000
vt 0.4794 0.7815 0.0000
vt 0.4352 0.7918 0.0000
vt 0.3918 0.5998 0.0000
vt 0.2353 -0.1212 0.0000
vt 0.1687 -0.1163 0.0000
vt 0.1225 -0.2856 0.0000
vt 0.1867 -0.3075 0.0000
vt 1.1950 -0.2918 0.0000
vt 1.1950 -0.2708 0.0000
vt 1.1775 -0.2708 0.0000
vt 1.1775 -0.2918 0.0000
vt 1.4891 0.6051 0.0000
vt 1.5246 0.7917 0.0000
vt 1.4252 0.7959 0.0000
vt 1.3982 0.6092 0.0000
vt 1.1950 -0.2499 0.0000
vt 1.1775 -0.2499 0.0000
vt 1.4981 0.6017 0.0000
vt 1.5344 0.7884 0.0000
vt 1.4350 0.7925 0.0000
vt 1.4072 0.6059 0.0000
vt 0.4802 0.5791 0.0000
vt 0.5236 0.7711 0.0000
vt 0.5419 -0.2058 0.0000
vt 0.4292 -0.2009 0.0000
vt 0.3927 -0.3921 0.0000
vt 0.4836 -0.4140 0.0000
vt 1.1950 -0.2289 0.0000
vt 1.1775 -0.2289 0.0000
vt 1.4915 0.6008 0.0000
vt 1.5273 0.7875 0.0000
vt 1.4279 0.7916 0.0000
vt 1.4006 0.6049 0.0000
vt 1.1950 -0.2079 0.0000
vt 1.1775 -0.2079 0.0000
vt 1.4962 0.5998 0.0000
vt 1.5324 0.7864 0.0000
vt 1.4329 0.7905 0.0000
vt 1.4053 0.6039 0.0000
vt 1.1534 -0.2236 0.0000
vt 1.1534 -0.2284 0.0000
vt 1.1605 -0.2284 0.0000
vt 1.1605 -0.2236 0.0000
vt 1.1436 -0.2284 0.0000
vt 1.1507 -0.2284 0.0000
vt 1.1507 -0.2236 0.0000
vt 1.1436 -0.2236 0.0000
vt 1.1704 -0.2918 0.0000
vt 1.1775 -0.2284 0.0000
vt 1.1704 -0.2284 0.0000
vt 1.1534 -0.2918 0.0000
vt 1.1633 -0.2918 0.0000
vt 1.1633 -0.2284 0.0000
vt 1.3754 -0.3618 0.0000
vt 1.3841 -0.3430 0.0000
vt 1.2105 -0.2910 0.0000
vt 1.2019 -0.3176 0.0000
vt 1.0099 1.9193 0.0000
vt 1.0296 1.9637 0.0000
vt 1.5784 1.8599 0.0000
vt 1.5610 1.7908 0.0000
vt 1.0377 1.9681 0.0000
vt 1.0093 1.9142 0.0000
vt 1.5557 1.7930 0.0000
vt 1.5841 1.8570 0.0000
vt 1.0361 1.9665 0.0000
vt 1.5850 1.8603 0.0000
vt 1.0114 1.9138 0.0000
vt 1.5650 1.7950 0.0000
vt 1.0381 1.9703 0.0000
vt 1.5748 1.8641 0.0000
vt 1.0103 1.9156 0.0000
vt 1.5614 1.7895 0.0000
vt 1.0320 1.9673 0.0000
vt 1.0152 1.9135 0.0000
vt 1.5639 1.7898 0.0000
vt 1.5857 1.8562 0.0000
vt 1.3483 0.8446 0.0000
vt 1.3831 0.8470 0.0000
vt 1.4058 0.8575 0.0000
vt 1.4058 0.8713 0.0000
vt 1.3831 0.8819 0.0000
vt 1.3483 0.8842 0.0000
vt 1.3177 0.8774 0.0000
vt 1.3057 0.8644 0.0000
vt 1.3177 0.8515 0.0000
vt 1.6554 0.1145 0.0000
vt 1.6654 0.1252 0.0000
vt 1.6589 0.1269 0.0000
vt 1.6468 0.1140 0.0000
vt 1.6654 0.1038 0.0000
vt 1.6589 0.1010 0.0000
vt 1.6895 0.0941 0.0000
vt 1.6907 0.0981 0.0000
vt 1.7243 0.0965 0.0000
vt 1.7195 0.1000 0.0000
vt 1.7470 0.1071 0.0000
vt 1.7383 0.1088 0.0000
vt 1.7470 0.1208 0.0000
vt 1.7383 0.1202 0.0000
vt 1.7243 0.1314 0.0000
vt 1.7195 0.1289 0.0000
vt 1.6895 0.1338 0.0000
vt 1.6907 0.1309 0.0000
vt 1.7702 0.1156 0.0000
vt 1.7470 0.1156 0.0000
vt 1.7470 0.1048 0.0000
vt 1.7702 0.1048 0.0000
vt 0.7497 1.0950 0.0000
vt 0.8086 1.0610 0.0000
vt 0.8756 1.0728 0.0000
vt 0.9193 1.1929 0.0000
vt 0.9193 1.1249 0.0000
vt 0.8756 1.2450 0.0000
vt 0.8086 1.2568 0.0000
vt 0.7264 1.1589 0.0000
vt 0.7497 1.2228 0.0000
vt 1.7470 0.0941 0.0000
vt 1.7702 0.0941 0.0000
vt 1.6700 0.1778 0.0000
vt 1.6700 0.1877 0.0000
vt 1.6468 0.1877 0.0000
vt 1.6468 0.1778 0.0000
vt 1.6700 0.1666 0.0000
vt 1.6468 0.1666 0.0000
vt 1.7702 0.0746 0.0000
vt 1.7702 0.0833 0.0000
vt 1.7470 0.0833 0.0000
vt 1.7470 0.0746 0.0000
vt 1.7702 0.0632 0.0000
vt 1.7470 0.0632 0.0000
vt 1.7702 0.0545 0.0000
vt 1.7470 0.0545 0.0000
vt 1.7530 0.1437 0.0000
vt 1.7530 0.1549 0.0000
vt 1.7298 0.1549 0.0000
vt 1.7298 0.1437 0.0000
vt 1.7530 0.1338 0.0000
vt 1.7298 0.1338 0.0000
# 140 texture coords

g Box01
usemtl Material__1
s 2
f 1/1/1 2/2/1 3/3/1 4/4/1 
s 4
f 5/5/2 6/6/2 7/7/2 8/8/2 
s 8
f 1/9/3 4/10/3 6/11/3 
f 6/11/4 5/12/4 1/9/4 
s 16
f 4/13/5 3/14/5 7/15/5 
f 7/15/6 6/16/6 4/13/6 
s 32
f 3/10/7 2/17/7 8/18/7 
f 8/18/7 7/11/7 3/10/7 
s 64
f 2/19/8 1/20/8 5/21/8 
f 5/21/8 8/22/8 2/19/8 
s 2
f 9/23/1 10/24/1 11/2/1 12/1/1 
s 4
f 13/25/2 14/26/2 15/27/2 16/28/2 
s 8
f 9/17/9 12/29/9 14/30/9 
f 14/30/10 13/18/10 9/17/10 
s 16
f 12/31/5 11/32/5 15/33/5 
f 15/33/5 14/34/5 12/31/5 
s 32
f 11/29/11 10/35/11 16/36/11 
f 16/36/7 15/30/7 11/29/7 
s 64
f 10/37/12 9/38/12 13/39/12 
f 13/39/12 16/40/12 10/37/12 
s 2
f 17/41/12 18/42/12 19/43/12 20/44/12 
s 4
f 21/45/5 22/46/5 23/47/5 24/48/5 
s 8
f 17/49/10 20/12/10 22/50/10 
f 22/50/10 21/51/10 17/49/10 
s 16
f 20/52/1 19/53/1 23/54/1 
f 23/54/1 22/42/1 20/52/1 
s 32
f 19/51/13 18/54/13 24/53/13 
f 24/53/13 23/49/13 19/51/13 
s 64
f 18/55/14 17/56/14 21/57/14 
f 21/57/2 24/58/2 18/55/2 
s 8
f 25/59/15 26/60/16 27/61/16 28/62/17 
f 26/63/18 29/64/19 30/65/19 
f 30/65/19 27/66/18 26/63/18 
f 29/64/19 31/67/20 32/68/20 30/65/19 
f 31/60/21 33/69/22 34/70/22 
f 34/70/22 32/61/21 31/60/21 
f 33/69/22 35/71/23 36/72/23 34/70/22 
f 35/71/23 37/73/24 38/74/24 36/72/23 
f 37/75/25 39/76/26 40/77/27 
f 40/77/27 38/78/25 37/75/25 
f 39/76/26 41/63/28 42/66/29 40/77/27 
f 41/67/30 25/59/15 28/62/17 
f 28/62/17 42/68/31 41/67/31 
s 1
f 39/79/32 37/80/32 35/81/32 
f 35/81/12 33/82/12 31/83/12 
f 31/83/12 29/84/12 26/85/12 
f 35/81/12 31/83/12 26/85/12 
f 39/79/12 35/81/12 26/85/12 
f 39/79/12 26/85/12 25/86/12 
f 41/87/12 39/79/12 25/86/12 
f 43/88/5 44/89/5 42/90/5 
f 43/88/5 42/90/5 28/91/5 
f 45/92/5 43/88/5 28/91/5 
f 45/92/5 28/91/5 27/93/5 
f 45/92/5 27/93/5 30/94/5 
f 46/95/5 45/92/5 30/94/5 
f 46/95/5 30/94/5 32/96/5 
f 47/97/5 46/95/5 32/96/5 
f 47/97/5 32/96/5 34/98/5 
f 48/99/5 47/97/5 34/98/5 
f 48/99/5 34/98/5 36/100/5 
f 49/101/5 48/99/5 36/100/5 
f 49/101/5 36/100/5 38/102/5 
f 50/103/5 49/101/5 38/102/5 
f 50/103/5 38/102/5 40/104/5 
f 51/105/5 50/103/5 40/104/5 
f 51/105/5 40/104/5 42/90/5 
f 51/105/5 42/90/5 44/89/5 
s 8
f 52/106/22 44/107/33 43/108/33 
f 43/108/22 53/109/34 52/106/22 
s 1
f 54/110/5 55/111/5 56/112/5 57/113/5 
f 56/112/5 58/114/5 57/113/5 
f 57/113/5 59/115/5 60/116/5 54/110/5 
f 53/117/5 54/110/5 60/116/5 
f 52/118/5 53/117/5 60/116/5 
s 8
f 53/109/34 43/108/23 45/119/23 
f 45/119/23 54/120/23 53/109/34 
f 55/121/35 54/122/35 45/123/35 
f 45/123/35 46/124/35 55/121/35 
f 56/125/27 55/121/27 46/124/27 
f 46/124/27 47/126/27 56/125/27 
f 58/127/36 56/128/36 47/129/36 
f 47/129/36 48/130/36 58/127/36 
f 57/131/1 58/127/1 48/130/1 
f 48/130/1 49/132/1 57/131/1 
f 59/133/37 57/131/37 49/132/37 
f 49/132/38 50/134/38 59/133/38 
f 60/135/39 59/136/39 50/137/39 
f 50/137/19 51/138/19 60/135/19 
f 52/139/40 60/135/40 51/138/40 
f 51/138/41 44/140/41 52/139/41 
# 13 polygons - 78 triangles

