# Exported from Wings 3D 1.4
mtllib beer.mtl
o cylinder1
#24 vertices, 20 faces
v 1.00000000 1.00000000 0.0000000e+0
v 0.50000000 1.00000000 0.86602540
v -0.50000000 1.00000000 0.86602540
v -1.00000000 1.00000000 1.2246468e-16
v -0.50000000 1.00000000 -0.86602540
v 0.50000000 1.00000000 -0.86602540
v 1.00000000 -1.54032675 0.0000000e+0
v 0.50000000 -1.54032675 0.86602540
v -0.50000000 -1.54032675 0.86602540
v -1.00000000 -1.54032675 1.2246468e-16
v -0.50000000 -1.54032675 -0.86602540
v 0.50000000 -1.54032675 -0.86602540
v 0.28448385 3.05603787 0.49274048
v 0.56896770 3.05603787 7.7715612e-19
v 0.28448385 3.05603787 -0.49274048
v -0.28448385 3.05603787 -0.49274048
v -0.56896770 3.05603787 7.0455603e-17
v -0.28448385 3.05603787 0.49274048
v 0.28448385 4.03693939 0.49274048
v 0.56896770 4.03693939 7.7715612e-19
v 0.28448385 4.03693939 -0.49274048
v -0.28448385 4.03693939 -0.49274048
v -0.56896770 4.03693939 7.0455603e-17
v -0.28448385 4.03693939 0.49274048
vt 2.2880000e-3 0.78853153
vt 7.1780462e-2 0.66816705
vt 7.1780462e-2 0.90889600
vt 0.21076538 0.90889600
vt 0.21076538 0.66816705
vt 0.27796985 0.82775455
vt 0.28025785 0.78853153
vt 0.31750881 0.89623805
vt 0.31750881 0.75927105
vt 0.39658674 0.89623805
vt 0.39658674 0.75927105
vt 0.43612571 0.82775455
vt 0.49040430 0.51959049
vt 0.49040430 0.51959049
vt 0.49260414 0.33125701
vt 0.49260414 0.33125701
vt 0.52488601 0.32198400
vt 0.52488601 0.32198400
vt 0.52802393 0.51458767
vt 0.52802393 0.51458767
vt 0.53000548 0.78768751
vt 0.53000548 0.78768751
vt 0.53149980 0.70303724
vt 0.53149980 0.70303724
vt 0.54543487 0.69821884
vt 0.54543487 0.69821884
vt 0.54591387 0.78865528
vt 0.54591387 0.78865528
vt 0.56442753 0.79009318
vt 0.56442753 0.79009318
vt 0.56690382 0.70049410
vt 0.56690382 0.70049410
vt 0.57089939 0.32322721
vt 0.57089939 0.32322721
vt 0.57533302 0.51468903
vt 0.57533302 0.51468903
vt 0.58604378 0.70378291
vt 0.58604378 0.70378291
vt 0.58887440 0.78698751
vt 0.58887440 0.78698751
vt 0.61624000 0.32905969
vt 0.61624000 0.32905969
vt 0.62548953 0.51632212
vt 0.62548953 0.51632212
vn 0.99463842 0.10341381 -1.9281594e-16
vn 0.49731921 0.10341381 0.86138214
vn -0.49731921 0.10341381 0.86138214
vn -0.99463842 0.10341381 2.7315592e-16
vn -0.49731921 0.10341381 -0.86138214
vn 0.49731921 0.10341381 -0.86138214
vn 0.86602540 -0.50000000 -1.6653345e-16
vn 0.43301270 -0.50000000 0.75000000
vn -0.43301270 -0.50000000 0.75000000
vn -0.86602540 -0.50000000 2.2204460e-16
vn -0.43301270 -0.50000000 -0.75000000
vn 0.43301270 -0.50000000 -0.75000000
vn 0.49731921 0.10341381 0.86138214
vn 0.99463842 0.10341381 -2.5708792e-16
vn 0.49731921 0.10341381 -0.86138214
vn -0.49731921 0.10341381 -0.86138214
vn -0.99463842 0.10341381 2.7315592e-16
vn -0.49731921 0.10341381 0.86138214
vn 0.43301270 0.50000000 0.75000000
vn 0.86602540 0.50000000 -4.1633363e-16
vn 0.43301270 0.50000000 -0.75000000
vn -0.43301270 0.50000000 -0.75000000
vn -0.86602540 0.50000000 1.1102230e-16
vn -0.43301270 0.50000000 0.75000000
g cylinder1_cylinder1_auv
usemtl cylinder1_auv
s 1
f 1/35/1 7/33/7 12/42/12 6/43/6
f 1/35/1 14/31/14 13/25/13 2/19/2
f 2/19/2 8/18/8 7/33/7 1/35/1
f 2/19/2 13/25/13 18/23/18 3/13/3
f 3/13/3 9/15/9 8/18/8 2/19/2
f 3/44/3 18/38/18 17/32/17 4/36/4
f 4/36/4 10/34/10 9/41/9 3/44/3
f 4/36/4 17/32/17 16/26/16 5/20/5
f 5/20/5 11/17/11 10/34/10 4/36/4
f 5/20/5 16/26/16 15/24/15 6/14/6
f 6/14/6 12/16/12 11/17/11 5/20/5
f 6/43/6 15/37/15 14/31/14 1/35/1
f 8/2/8 9/5/9 10/7/10 11/4/11 12/3/12 7/1/7
f 13/25/13 19/27/19 24/21/24 18/23/18
f 14/31/14 20/29/20 19/27/19 13/25/13
f 15/37/15 21/39/21 20/29/20 14/31/14
f 16/26/16 22/28/22 21/22/21 15/24/15
f 17/32/17 23/30/23 22/28/22 16/26/16
f 18/38/18 24/40/24 23/30/23 17/32/17
f 20/12/20 21/10/21 22/8/22 23/6/23 24/9/24 19/11/19
