# Exported from Wings 3D 1.4
mtllib booze.mtl
o cylinder1
#24 vertices, 20 faces
v 1.30592000 1.75773366 -1.1262596e-18
v 0.65296000 1.75773366 1.13095990
v -0.65296000 1.75773366 1.13095990
v -1.30592000 1.75773366 1.5880282e-16
v -0.65296000 1.75773366 -1.13095990
v 0.65296000 1.75773366 -1.13095990
v 1.30592000 -0.38702000 -1.1262596e-18
v 0.65296000 -0.38702000 1.13095990
v -0.65296000 -0.38702000 1.13095990
v -1.30592000 -0.38702000 1.5880282e-16
v -0.65296000 -0.38702000 -1.13095990
v 0.65296000 -0.38702000 -1.13095990
v 0.27210844 2.57430633 0.47130564
v 0.54421687 2.57430633 1.2931182e-18
v 0.27210844 2.57430633 -0.47130564
v -0.27210844 2.57430633 -0.47130564
v -0.54421687 2.57430633 6.7940463e-17
v -0.27210844 2.57430633 0.47130564
v 0.27210844 6.53914280 0.47130564
v 0.54421687 6.53914280 1.2931182e-18
v 0.27210844 6.53914280 -0.47130564
v -0.27210844 6.53914280 -0.47130564
v -0.54421687 6.53914280 6.7940463e-17
v -0.27210844 6.53914280 0.47130564
vt 0.14316131 0.89178843
vt 0.21054612 0.97600895
vt 0.22146612 0.80335013
vt 0.35687129 0.81282569
vt 0.36773351 0.98042895
vt 0.39446121 0.48335401
vt 0.39538016 0.48905802
vt 0.39552848 0.32898852
vt 0.39553714 0.32094101
vt 0.41024499 0.88927510
vt 0.43943466 0.47205682
vt 0.43952578 0.47737576
vt 0.43982339 0.31869331
vt 0.44125898 0.31121062
vt 0.45103786 0.77541120
vt 0.45206567 0.78228508
vt 0.45224868 0.54565993
vt 0.45233346 0.55059526
vt 0.46682533 0.77821990
vt 0.46820214 0.78366863
vt 0.46848715 0.53929310
vt 0.46860299 0.54412138
vt 0.47885708 0.77845988
vt 0.48023578 0.78245867
vt 0.48143831 0.53957826
vt 0.48155443 0.54419421
vt 0.48173314 0.47053577
vt 0.48182582 0.47466100
vt 0.48670655 0.31233195
vt 0.48813495 0.31037443
vt 0.49434437 0.53949797
vt 0.49442971 0.54400680
vt 0.49643572 0.77827353
vt 0.49746912 0.78084627
vt 0.55177310 0.47364174
vt 0.55200128 0.47894407
vt 0.55418667 0.31653175
vt 0.55418667 0.31792817
vt 0.68113020 0.65638840
vt 0.70975765 0.73601013
vt 0.75395765 0.56899556
vt 0.82297033 0.58214000
vt 0.84986588 0.73601013
vt 0.85951333 0.66132840
vn 0.92585691 0.37787430 -2.5035162e-16
vn 0.46292845 0.37787430 0.80181560
vn -0.46292845 0.37787430 0.80181560
vn -0.92585691 0.37787430 2.1697140e-16
vn -0.46292845 0.37787430 -0.80181560
vn 0.46292845 0.37787430 -0.80181560
vn 0.86602540 -0.50000000 -2.2204460e-16
vn 0.43301270 -0.50000000 0.75000000
vn -0.43301270 -0.50000000 0.75000000
vn -0.86602540 -0.50000000 2.2204460e-16
vn -0.43301270 -0.50000000 -0.75000000
vn 0.43301270 -0.50000000 -0.75000000
vn 0.46292845 0.37787430 0.80181560
vn 0.92585691 0.37787430 -2.1697140e-16
vn 0.46292845 0.37787430 -0.80181560
vn -0.46292845 0.37787430 -0.80181560
vn -0.92585691 0.37787430 1.6690108e-16
vn -0.46292845 0.37787430 0.80181560
vn 0.43301270 0.50000000 0.75000000
vn 0.86602540 0.50000000 3.8857806e-16
vn 0.43301270 0.50000000 -0.75000000
vn -0.43301270 0.50000000 -0.75000000
vn -0.86602540 0.50000000 7.2164497e-16
vn -0.43301270 0.50000000 0.75000000
g cylinder1_cylinder1_auv
usemtl cylinder1_auv
s 1
f 1/7/1 7/8/7 12/13/12 6/12/6
f 1/35/1 14/31/14 13/25/13 2/27/2
f 2/27/2 8/30/8 7/37/7 1/35/1
f 2/27/2 13/25/13 18/21/18 3/11/3
f 3/11/3 9/14/9 8/30/8 2/27/2
f 3/11/3 18/21/18 17/17/17 4/6/4
f 4/6/4 10/9/10 9/14/9 3/11/3
f 4/36/4 17/32/17 16/26/16 5/28/5
f 5/28/5 11/29/11 10/38/10 4/36/4
f 5/28/5 16/26/16 15/22/15 6/12/6
f 6/12/6 12/13/12 11/29/11 5/28/5
f 6/12/6 15/22/15 14/18/14 1/7/1
f 8/41/8 9/42/9 10/44/10 11/43/11 12/40/12 7/39/7
f 13/25/13 19/23/19 24/19/24 18/21/18
f 14/31/14 20/33/20 19/23/19 13/25/13
f 15/22/15 21/20/21 20/16/20 14/18/14
f 16/26/16 22/24/22 21/20/21 15/22/15
f 17/32/17 23/34/23 22/24/22 16/26/16
f 18/21/18 24/19/24 23/15/23 17/17/17
f 20/10/20 21/5/21 22/2/22 23/1/23 24/3/24 19/4/19
